<svg width="20" height="20" viewBox="0 0 20 20" fill="none" xmlns="http://www.w3.org/2000/svg">
<g clip-path="url(#clip0_149_11140)">
<path d="M18.1589 5.02082H14.9792V1.84113C14.9792 0.83332 14.1648 0 13.138 0H1.84113C0.833164 0 0 0.814492 0 1.84113V13.138C0 14.144 0.812656 14.9791 1.84113 14.9791H5.02082V18.1588C5.02082 19.1666 5.83516 20 6.86195 20H18.1588C19.1668 20 20 19.1855 20 18.1589V6.86199C20 5.85594 19.1873 5.02082 18.1589 5.02082ZM7.02133 13.8073L13.8073 7.02133V9.75731L9.75731 13.8073H7.02133ZM12.9787 6.1927L6.1927 12.9787V10.2427L10.2427 6.1927H12.9787ZM6.1927 8.58543V6.86195C6.1927 6.49328 6.49105 6.1927 6.86195 6.1927H8.58543L6.1927 8.58543ZM13.8073 11.4146V13.138C13.8073 13.5067 13.5089 13.8073 13.138 13.8073H11.4146L13.8073 11.4146ZM1.84113 13.8073C1.47164 13.8073 1.17188 13.5082 1.17188 13.138V1.84117C1.17188 1.47238 1.47023 1.17188 1.84113 1.17188H13.138C13.5075 1.17188 13.8073 1.47102 13.8073 1.84113V5.02082H6.86195C5.8541 5.02082 5.02082 5.83516 5.02082 6.86195V13.8073H1.84113V13.8073ZM18.8281 18.1589C18.8281 18.5276 18.5298 18.8281 18.1589 18.8281H6.86199C6.49254 18.8281 6.19273 18.529 6.19273 18.1589V14.9792H13.138C14.1459 14.9792 14.9792 14.1648 14.9792 13.138V6.19273H18.1589C18.5284 6.19273 18.8281 6.49184 18.8281 6.86199V18.1589Z" fill="#202224"/>
</g>
<defs>
<clipPath id="clip0_149_11140">
<rect width="20" height="20" fill="white"/>
</clipPath>
</defs>
</svg>
