<svg width="100" height="82" viewBox="0 0 100 82" fill="none" xmlns="http://www.w3.org/2000/svg">
<g clip-path="url(#clip0_803_15455)">
<path d="M24.6824 74.8213L24.8858 79.1086L24.8858 79.1088C24.9201 79.8334 24.6651 80.5419 24.1771 81.0786C23.689 81.6153 23.0077 81.9361 22.2831 81.9705L22.1943 81.9747L21.8613 74.9551L24.6824 74.8213Z" fill="#2F2E41"/>
<path d="M85.6376 67.5763C83.5957 71.5611 81.0057 75.4149 77.7287 78.903C77.6559 78.9817 77.5824 79.0585 77.5083 79.1366L69.7441 75.461C69.7916 75.3821 69.8437 75.2935 69.8997 75.1966C73.2349 69.4902 93.3677 34.6807 92.7315 26.7968C92.8056 27.447 95.192 48.9506 85.6376 67.5763Z" fill="#E6E6E6"/>
<path d="M79.2251 79.6122C79.1164 79.674 79.005 79.7345 78.8928 79.7929L73.0684 77.0356C73.1498 76.9778 73.2447 76.9095 73.3537 76.8326C75.1381 75.5515 80.4442 71.7076 85.6361 67.5764C91.2157 63.137 96.6645 58.367 97.4736 56.0901C97.3093 56.6122 92.2024 72.483 79.2251 79.6122Z" fill="#E6E6E6"/>
<path d="M9.68798 81.804C14.6523 81.804 18.6767 77.7796 18.6767 72.8152C18.6767 67.8509 14.6523 63.8265 9.68798 63.8265C4.72363 63.8265 0.699219 67.8509 0.699219 72.8152C0.699219 77.7796 4.72363 81.804 9.68798 81.804Z" fill="#448BFF"/>
<path d="M13.2901 69.0425H6.08887C5.77067 69.0429 5.4656 69.1695 5.2406 69.3945C5.0156 69.6195 4.88903 69.9245 4.88867 70.2427V75.3864C4.88903 75.7046 5.01559 76.0097 5.2406 76.2347C5.4656 76.4597 5.77067 76.5863 6.08887 76.5867H13.2901C13.6083 76.5863 13.9134 76.4597 14.1384 76.2347C14.3634 76.0097 14.4899 75.7047 14.4903 75.3864V70.2427C14.4899 69.9245 14.3634 69.6195 14.1384 69.3945C13.9133 69.1695 13.6083 69.0429 13.2901 69.0425ZM13.2901 69.7284C13.3331 69.7285 13.3759 69.7341 13.4175 69.745L9.6903 72.7182L5.98494 69.7389C6.01913 69.7319 6.05396 69.7284 6.08886 69.7284H13.2901ZM13.2901 75.9008H6.08887C5.9525 75.9007 5.82176 75.8464 5.72533 75.75C5.6289 75.6536 5.57466 75.5228 5.5745 75.3864V70.2889L9.47461 73.4248C9.53535 73.4736 9.6109 73.5003 9.68882 73.5004C9.76675 73.5006 9.8424 73.4742 9.90332 73.4256L13.8045 70.3136V75.3864C13.8043 75.5228 13.7501 75.6536 13.6536 75.75C13.5572 75.8464 13.4264 75.9007 13.2901 75.9008Z" fill="white"/>
<path d="M44.3775 59.837L46.3888 59.8535C46.5923 59.8552 46.7937 59.8125 46.979 59.7283C47.1643 59.6441 47.329 59.5205 47.4617 59.3662C47.5943 59.2118 47.6916 59.0304 47.7469 58.8345C47.8022 58.6387 47.8142 58.4331 47.7819 58.2322C47.7471 58.0159 47.6621 57.8108 47.5336 57.6334C47.4051 57.456 47.2368 57.3113 47.0421 57.2108C46.8475 57.1104 46.632 57.057 46.413 57.055C46.1939 57.053 45.9775 57.1025 45.7811 57.1994L43.8844 58.1353L37.3971 59.582L34.6179 56.7405L33.0215 59.3699L36.7718 62.2674L44.3775 59.837Z" fill="#FFB8B8"/>
<path d="M44.0028 80.6174L41.6332 81.0731C40.0146 75.971 38.2609 71.1393 38.2611 67.4023C35.9705 69.9516 33.13 71.41 29.7852 71.8681L30.1497 66.2175L32.8839 64.7592L37.0685 62.8279C37.4349 62.6588 37.8301 62.561 38.2331 62.5398C39.0165 62.4986 39.7875 62.7486 40.3976 63.2417C41.0077 63.7349 41.4138 64.4363 41.5378 65.211L44.0028 80.6174Z" fill="#2F2E41"/>
<path d="M32.6546 71.1838L31.7102 71.9016C31.304 72.2103 30.8243 72.4073 30.3185 72.4733C29.8127 72.5392 29.2984 72.4717 28.8268 72.2775C26.1217 70.2499 24.1999 70.848 22.4581 73.9085C20.3688 71.5506 19.8534 68.1451 21.718 64.6219L32.0622 64.8497L34.1584 64.2117L32.6546 71.1838Z" fill="#2F2E41"/>
<path d="M29.2099 81.7441C28.6172 81.9265 27.9791 81.8945 27.4076 81.6537C26.8361 81.4129 26.3676 80.9787 26.0841 80.4272C25.1544 79.6084 24.3701 78.4361 23.6898 77.0105C23.2016 75.9647 22.7825 74.8881 22.435 73.7876C21.9643 72.3337 22.7514 70.7453 24.2165 70.3103C24.26 70.2974 24.3041 70.2852 24.3487 70.2737C26.3045 69.7716 28.3129 70.8996 28.9815 72.805L30.9254 78.3452C31.0402 78.6725 31.0895 79.0192 31.0703 79.3655C31.0512 79.7119 30.964 80.051 30.8138 80.3637C30.6636 80.6763 30.4532 80.9563 30.1948 81.1876C29.9364 81.4189 29.6349 81.5971 29.3076 81.712C29.2753 81.7233 29.2427 81.734 29.2099 81.7441Z" fill="#2F2E41"/>
<path opacity="0.2" d="M23.3594 76.3784C23.3594 76.3784 25.6378 78.9303 26.0935 80.3885L23.3594 76.3784Z" fill="black"/>
<path d="M14.5213 64.3356L13.7588 66.1968C13.6816 66.3851 13.6465 66.588 13.6558 66.7913C13.6651 66.9946 13.7186 67.1934 13.8126 67.3739C13.9067 67.5544 14.039 67.7122 14.2003 67.8363C14.3616 67.9604 14.548 68.0478 14.7465 68.0925C14.9602 68.1406 15.1822 68.1378 15.3946 68.0844C15.6071 68.031 15.804 67.9285 15.9696 67.7851C16.1352 67.6418 16.2648 67.4615 16.348 67.2589C16.4312 67.0563 16.4657 66.837 16.4487 66.6186L16.2844 64.51L17.3513 57.9495L21.0219 56.4249L19.1739 53.9659L15.0905 56.3714L14.5213 64.3356Z" fill="#FFB8B8"/>
<path d="M32.7449 64.622C30.1263 69.0206 24.906 70.7238 20.4348 67.2795C21.2213 64.6952 23.7607 57.5529 22.1202 57.2795C18.637 58.7402 18.632 55.3106 17.9805 53.5942L25.9095 50.6778L30.1931 51.8626L31.0711 52.1742C31.6426 52.3769 32.1382 52.7498 32.4914 53.2427C32.8446 53.7356 33.0384 54.3248 33.0467 54.9311C31.2473 57.5306 29.9153 60.3037 32.7449 64.622Z" fill="#448BFF"/>
<path d="M33.7478 61.0678L30.6035 58.4704L31.6516 52.4097L35.9351 56.9666L33.7478 61.0678Z" fill="#6C63FF"/>
<path d="M85.9222 19.4325H85.4728V7.12408C85.4728 5.23479 84.7223 3.42287 83.3864 2.08694C82.0504 0.751008 80.2385 0.000488281 78.3492 0.000488281H52.272C50.3827 0.000488281 48.5708 0.751008 47.2349 2.08694C45.899 3.42287 45.1484 5.23479 45.1484 7.12408V74.6493C45.1484 76.5385 45.899 78.3505 47.2349 79.6864C48.5708 81.0223 50.3827 81.7728 52.272 81.7728H78.3491C80.2384 81.7728 82.0503 81.0223 83.3862 79.6864C84.7222 78.3505 85.4727 76.5385 85.4727 74.6493V28.1939H85.9221L85.9222 19.4325Z" fill="#3F3D56"/>
<path d="M78.6365 1.85327H75.2326C75.3892 2.23708 75.449 2.65352 75.4068 3.06589C75.3645 3.47827 75.2215 3.87391 74.9903 4.21798C74.7591 4.56204 74.4468 4.84395 74.0809 5.03888C73.7151 5.2338 73.3069 5.33575 72.8924 5.33575H57.9532C57.5387 5.33571 57.1306 5.23375 56.7648 5.03883C56.399 4.84392 56.0868 4.56204 55.8556 4.21802C55.6244 3.87401 55.4813 3.47842 55.439 3.0661C55.3968 2.65379 55.4565 2.23739 55.6131 1.85361H52.4333C51.0223 1.85361 49.6692 2.41411 48.6715 3.4118C47.6738 4.4095 47.1133 5.76266 47.1133 7.17361V74.5993C47.1133 76.0103 47.6738 77.3635 48.6715 78.3612C49.6692 79.3588 51.0223 79.9193 52.4333 79.9193H78.6355C80.0465 79.9193 81.3996 79.3588 82.3973 78.3612C83.395 77.3635 83.9555 76.0103 83.9555 74.5993V7.17327C83.9555 5.76232 83.395 4.40916 82.3973 3.41146C81.3996 2.41377 80.0465 1.85327 78.6355 1.85327L78.6365 1.85327Z" fill="white"/>
<path d="M65.5796 76.1512C67.193 76.1512 68.5009 74.8432 68.5009 73.2298C68.5009 71.6164 67.193 70.3085 65.5796 70.3085C63.9661 70.3085 62.6582 71.6164 62.6582 73.2298C62.6582 74.8432 63.9661 76.1512 65.5796 76.1512Z" fill="#E6E6E6"/>
<path d="M53.7294 46.2134C53.4532 46.2134 53.2285 46.4699 53.2285 46.7851C53.2285 47.1002 53.4532 47.3567 53.7294 47.3567H77.3409C77.617 47.3567 77.8417 47.1002 77.8417 46.7851C77.8417 46.4699 77.617 46.2134 77.3409 46.2134H53.7294Z" fill="#E6E6E6"/>
<path d="M53.7294 59.6962C53.4532 59.6962 53.2285 59.9527 53.2285 60.2679C53.2285 60.5831 53.4532 60.8396 53.7294 60.8396H77.3409C77.617 60.8396 77.8417 60.5831 77.8417 60.2679C77.8417 59.9527 77.617 59.6962 77.3409 59.6962H53.7294Z" fill="#E6E6E6"/>
<path d="M53.7294 49.6439C53.4532 49.6439 53.2285 49.9004 53.2285 50.2156C53.2285 50.5308 53.4532 50.7873 53.7294 50.7873H63.8895C64.1656 50.7873 64.3903 50.5308 64.3903 50.2156C64.3903 49.9004 64.1656 49.6439 63.8895 49.6439H53.7294Z" fill="#E6E6E6"/>
<path d="M53.7294 52.9131C53.4532 52.9131 53.2285 53.1696 53.2285 53.4848C53.2285 53.8 53.4532 54.0565 53.7294 54.0565H77.3409C77.617 54.0565 77.8417 53.8 77.8417 53.4848C77.8417 53.1696 77.617 52.9131 77.3409 52.9131H53.7294Z" fill="#E6E6E6"/>
<path d="M53.7294 56.3428C53.4532 56.3428 53.2285 56.5993 53.2285 56.9144C53.2285 57.2296 53.4532 57.4861 53.7294 57.4861H63.8895C64.1656 57.4861 64.3903 57.2296 64.3903 56.9144C64.3903 56.5993 64.1656 56.3428 63.8895 56.3428H53.7294Z" fill="#E6E6E6"/>
<path d="M58.1866 20.183H72.8848C73.0472 20.1832 73.2028 20.2478 73.3176 20.3626C73.4324 20.4774 73.497 20.6331 73.4972 20.7955V36.103C73.497 36.2653 73.4324 36.421 73.3176 36.5358C73.2028 36.6506 73.0472 36.7152 72.8848 36.7154H58.1866C58.0243 36.7152 57.8686 36.6506 57.7538 36.5358C57.639 36.421 57.5744 36.2653 57.5742 36.103V20.7955C57.5744 20.6331 57.639 20.4774 57.7538 20.3626C57.8686 20.2478 58.0243 20.1832 58.1866 20.183Z" fill="#448BFF"/>
<path d="M69.7514 33.5594C69.8061 33.5595 69.8602 33.5489 69.9107 33.528C69.9613 33.5072 70.0072 33.4766 70.0459 33.438C70.0846 33.3994 70.1153 33.3536 70.1363 33.3031C70.1572 33.2526 70.168 33.1985 70.168 33.1438C70.1681 33.0892 70.1573 33.035 70.1364 32.9845C70.1155 32.9341 70.0848 32.8882 70.0462 32.8495C70.0075 32.8109 69.9616 32.7803 69.9111 32.7594C69.8606 32.7385 69.8065 32.7278 69.7518 32.7278H61.317C61.2624 32.7277 61.2082 32.7384 61.1577 32.7592C61.1072 32.7801 61.0612 32.8107 61.0226 32.8493C60.9839 32.8878 60.9531 32.9337 60.9322 32.9842C60.9112 33.0347 60.9004 33.0888 60.9004 33.1434C60.9004 33.1981 60.9111 33.2522 60.932 33.3027C60.9529 33.3532 60.9836 33.3991 61.0223 33.4377C61.0609 33.4763 61.1068 33.507 61.1573 33.5279C61.2078 33.5487 61.262 33.5595 61.3166 33.5594H69.7514Z" fill="white"/>
<path d="M69.7527 31.1091C69.863 31.1091 69.9687 31.0653 70.0467 30.9873C70.1247 30.9093 70.1685 30.8036 70.1685 30.6933C70.1685 30.583 70.1247 30.4773 70.0467 30.3993C69.9687 30.3213 69.863 30.2775 69.7527 30.2775H61.3183C61.2081 30.2775 61.1023 30.3212 61.0243 30.3992C60.9463 30.4771 60.9024 30.5828 60.9023 30.6931C60.9023 30.8034 60.946 30.9092 61.024 30.9872C61.1019 31.0652 61.2076 31.109 61.3179 31.1091H69.7527Z" fill="white"/>
<path d="M65.5351 23.3394C66.0527 23.3394 66.5587 23.4929 66.9891 23.7805C67.4195 24.0681 67.7549 24.4768 67.953 24.955C68.1511 25.4332 68.2029 25.9595 68.102 26.4671C68.001 26.9748 67.7517 27.4411 67.3857 27.8072C67.0197 28.1732 66.5534 28.4224 66.0457 28.5234C65.538 28.6244 65.0118 28.5726 64.5336 28.3745C64.0554 28.1764 63.6466 27.841 63.359 27.4106C63.0715 26.9802 62.918 26.4742 62.918 25.9566C62.9188 25.2627 63.1947 24.5975 63.6854 24.1068C64.176 23.6162 64.8412 23.3402 65.5351 23.3394Z" fill="white"/>
<path d="M32.142 49.8847H24.3723C24.2125 49.8845 24.0593 49.8209 23.9463 49.7079C23.8333 49.5949 23.7697 49.4417 23.7695 49.2819V45.9329C23.7695 44.7427 24.2423 43.6012 25.0839 42.7597C25.9255 41.9181 27.067 41.4453 28.2572 41.4453C29.4474 41.4453 30.5888 41.9181 31.4304 42.7597C32.272 43.6012 32.7448 44.7427 32.7448 45.9329V49.2819C32.7446 49.4417 32.6811 49.5949 32.568 49.7079C32.455 49.8209 32.3018 49.8845 32.142 49.8847Z" fill="#2F2E41"/>
<path d="M32.0025 47.9709C32.8741 46.3765 32.2881 44.3773 30.6937 43.5057C29.0993 42.6341 27.1002 43.2201 26.2286 44.8146C25.357 46.409 25.9429 48.4081 27.5374 49.2797C29.1318 50.1513 31.1309 49.5653 32.0025 47.9709Z" fill="#FFB6B6"/>
<path d="M33.8068 46.2681H29.0558L29.0071 45.586L28.7635 46.2681H28.0319L27.9354 44.9162L27.4526 46.2681H26.0371V46.2011C26.0382 45.2599 26.4125 44.3576 27.078 43.6921C27.7435 43.0266 28.6458 42.6522 29.587 42.6512H30.2568C31.198 42.6522 32.1003 43.0266 32.7658 43.6921C33.4313 44.3576 33.8057 45.2599 33.8068 46.2011V46.2681Z" fill="#2F2E41"/>
<path d="M29.0172 50.5093C28.9814 50.5093 28.9457 50.5062 28.9105 50.4999L25.4316 49.8861V44.1366H29.2612L29.1664 44.2471C27.8473 45.7856 28.8411 48.2802 29.5509 49.6302C29.6032 49.7291 29.6265 49.8408 29.6182 49.9523C29.6098 50.0639 29.5701 50.1708 29.5037 50.2608C29.448 50.3377 29.3749 50.4004 29.2903 50.4436C29.2058 50.4868 29.1121 50.5093 29.0172 50.5093Z" fill="#2F2E41"/>
<path d="M40.5996 78.8962L44.8917 78.896H44.8919C45.6173 78.896 46.313 79.1842 46.826 79.6972C47.3389 80.2101 47.6271 80.9058 47.6272 81.6312V81.7201L40.5997 81.7204L40.5996 78.8962Z" fill="#2F2E41"/>
<path d="M99.8876 81.9993H0.11236C0.0825599 81.9993 0.0539808 81.9875 0.0329093 81.9664C0.0118378 81.9453 0 81.9168 0 81.887C0 81.8572 0.0118378 81.8286 0.0329093 81.8075C0.0539808 81.7864 0.0825599 81.7746 0.11236 81.7746H99.8876C99.9174 81.7746 99.946 81.7864 99.9671 81.8075C99.9882 81.8286 100 81.8572 100 81.887C100 81.9168 99.9882 81.9453 99.9671 81.9664C99.946 81.9875 99.9174 81.9993 99.8876 81.9993Z" fill="#CACACA"/>
</g>
<defs>
<clipPath id="clip0_803_15455">
<rect width="100" height="81.9986" fill="white"/>
</clipPath>
</defs>
</svg>
