<svg width="36" height="36" viewBox="0 0 36 36" fill="none" xmlns="http://www.w3.org/2000/svg">
<path d="M18 0.5C8.33594 0.5 0.5 8.33594 0.5 18C0.5 27.6641 8.33594 35.5 18 35.5C27.6641 35.5 35.5 27.6641 35.5 18C35.5 8.33594 27.6641 0.5 18 0.5ZM18 32.5312C9.97656 32.5312 3.46875 26.0234 3.46875 18C3.46875 9.97656 9.97656 3.46875 18 3.46875C26.0234 3.46875 32.5312 9.97656 32.5312 18C32.5312 26.0234 26.0234 32.5312 18 32.5312ZM19.8633 17.0938L18.8711 16.8633V11.6172C20.3555 11.8203 21.2734 12.75 21.4297 13.8906C21.4492 14.0469 21.582 14.1602 21.7383 14.1602H23.4922C23.6758 14.1602 23.8203 14 23.8047 13.8164C23.5664 11.3828 21.5625 9.82031 18.8867 9.55078V8.27344C18.8867 8.10156 18.7461 7.96094 18.5742 7.96094H17.4766C17.3047 7.96094 17.1641 8.10156 17.1641 8.27344V9.5625C14.3984 9.83203 12.2344 11.3594 12.2344 14.2109C12.2344 16.8516 14.1797 18.125 16.2227 18.6133L17.1875 18.8594V24.4336C15.4609 24.2031 14.4922 23.2812 14.293 22.0391C14.2695 21.8906 14.1367 21.7812 13.9844 21.7812H12.1797C11.9961 21.7812 11.8516 21.9375 11.8672 22.1211C12.043 24.2695 13.6719 26.2461 17.1484 26.5V27.7266C17.1484 27.8984 17.2891 28.0391 17.4609 28.0391H18.5703C18.7422 28.0391 18.8828 27.8984 18.8828 27.7227L18.875 26.4844C21.9336 26.2148 24.1211 24.5781 24.1211 21.6406C24.1172 18.9297 22.3945 17.7188 19.8633 17.0938ZM17.1836 16.4609C16.9648 16.3984 16.7812 16.3398 16.5977 16.2656C15.2773 15.7891 14.6641 15.0195 14.6641 14.0273C14.6641 12.6094 15.7383 11.8008 17.1836 11.6172V16.4609ZM18.8711 24.4453V19.2227C18.9922 19.2578 19.1016 19.2852 19.2148 19.3086C21.0625 19.8711 21.6836 20.6523 21.6836 21.8516C21.6836 23.3789 20.5352 24.2969 18.8711 24.4453Z" fill="#B88AF6"/>
</svg>
