<svg width="17" height="17" viewBox="0 0 17 17" fill="none" xmlns="http://www.w3.org/2000/svg">
<g opacity="0.6">
<path fill-rule="evenodd" clip-rule="evenodd" d="M15.1365 1.86351C14.785 1.51203 14.2151 1.51203 13.8637 1.86351L7.64112 8.08606L7.42911 9.57133L8.91386 9.35894L15.1365 3.13631C15.488 2.78484 15.488 2.21498 15.1365 1.86351ZM13.0151 1.01498C13.8353 0.194876 15.1649 0.194876 15.985 1.01498C16.8051 1.83509 16.8051 3.16474 15.985 3.98484L9.62101 10.3488C9.52924 10.4406 9.41018 10.5002 9.28171 10.5185L6.80704 10.8725C6.62008 10.8993 6.43144 10.8364 6.29788 10.7029C6.16431 10.5694 6.10141 10.3808 6.1281 10.1938L6.48143 7.71846C6.49978 7.58992 6.55933 7.4708 6.65115 7.37898L13.0151 1.01498Z" fill="black"/>
<path fill-rule="evenodd" clip-rule="evenodd" d="M12.3085 1.72212C12.5429 1.48781 12.9228 1.48781 13.1571 1.72212L15.2784 3.84346C15.5127 4.07777 15.5127 4.45767 15.2784 4.69198C15.0441 4.9263 14.6642 4.9263 14.4299 4.69198L12.3085 2.57065C12.0742 2.33634 12.0742 1.95644 12.3085 1.72212Z" fill="black"/>
<path fill-rule="evenodd" clip-rule="evenodd" d="M2.00039 4.60039C1.77948 4.60039 1.60039 4.77948 1.60039 5.00039V15.0004C1.60039 15.2213 1.77948 15.4004 2.00039 15.4004H12.0004C12.2213 15.4004 12.4004 15.2213 12.4004 15.0004V10.0004C12.4004 9.66902 12.669 9.40039 13.0004 9.40039C13.3318 9.40039 13.6004 9.66902 13.6004 10.0004V15.0004C13.6004 15.884 12.884 16.6004 12.0004 16.6004H2.00039C1.11673 16.6004 0.400391 15.884 0.400391 15.0004V5.00039C0.400391 4.11673 1.11673 3.40039 2.00039 3.40039H7.00039C7.33176 3.40039 7.60039 3.66902 7.60039 4.00039C7.60039 4.33176 7.33176 4.60039 7.00039 4.60039H2.00039Z" fill="black"/>
</g>
</svg>
