<svg width="22" height="22" viewBox="0 0 22 22" fill="none" xmlns="http://www.w3.org/2000/svg">
<path d="M10.082 13.75H11.9154V15.5833H10.082V13.75ZM10.082 6.41665H11.9154V11.9166H10.082V6.41665ZM10.9895 1.83331C5.92953 1.83331 1.83203 5.93998 1.83203 11C1.83203 16.06 5.92953 20.1666 10.9895 20.1666C16.0587 20.1666 20.1654 16.06 20.1654 11C20.1654 5.93998 16.0587 1.83331 10.9895 1.83331ZM10.9987 18.3333C6.94703 18.3333 3.66536 15.0516 3.66536 11C3.66536 6.94831 6.94703 3.66665 10.9987 3.66665C15.0504 3.66665 18.332 6.94831 18.332 11C18.332 15.0516 15.0504 18.3333 10.9987 18.3333Z" fill="white"/>
</svg>
