<svg width="328" height="377" viewBox="0 0 328 377" fill="none" xmlns="http://www.w3.org/2000/svg">
<path d="M40.6548 346.818V357H39.1186V346.818H40.6548ZM44.2592 352.466V357H42.7727V349.364H44.1996V350.607H44.294C44.4697 350.202 44.7448 349.877 45.1193 349.632C45.4972 349.387 45.9728 349.264 46.5462 349.264C47.0665 349.264 47.5223 349.374 47.9134 349.592C48.3045 349.808 48.6077 350.129 48.8232 350.557C49.0386 350.984 49.1463 351.513 49.1463 352.143V357H47.6598V352.322C47.6598 351.768 47.5156 351.336 47.2273 351.024C46.9389 350.709 46.5429 350.552 46.0391 350.552C45.6944 350.552 45.3878 350.626 45.1193 350.776C44.8542 350.925 44.6437 351.143 44.4879 351.432C44.3355 351.717 44.2592 352.062 44.2592 352.466ZM54.3565 357.154C53.6174 357.154 52.9811 356.987 52.4474 356.652C51.9171 356.314 51.5095 355.848 51.2244 355.255C50.9394 354.662 50.7969 353.982 50.7969 353.217C50.7969 352.441 50.9427 351.757 51.2344 351.163C51.526 350.567 51.937 350.101 52.4673 349.766C52.9976 349.432 53.6224 349.264 54.3416 349.264C54.9216 349.264 55.4387 349.372 55.8928 349.587C56.3468 349.799 56.7131 350.098 56.9915 350.482C57.2732 350.867 57.4406 351.316 57.4936 351.83H56.0469C55.9673 351.472 55.785 351.163 55.5 350.905C55.2183 350.646 54.8404 350.517 54.3665 350.517C53.9522 350.517 53.5893 350.626 53.2777 350.845C52.9695 351.061 52.7292 351.369 52.5568 351.77C52.3845 352.168 52.2983 352.638 52.2983 353.182C52.2983 353.739 52.3828 354.219 52.5518 354.624C52.7209 355.028 52.9595 355.341 53.2678 355.563C53.5793 355.785 53.9455 355.896 54.3665 355.896C54.6482 355.896 54.9034 355.845 55.1321 355.742C55.3641 355.636 55.558 355.485 55.7138 355.29C55.8729 355.094 55.9839 354.859 56.0469 354.584H57.4936C57.4406 355.078 57.2798 355.518 57.0114 355.906C56.7429 356.294 56.3833 356.599 55.9325 356.821C55.4851 357.043 54.9598 357.154 54.3565 357.154ZM62.2999 357.154C61.584 357.154 60.9592 356.99 60.4256 356.662C59.892 356.334 59.4777 355.875 59.1827 355.285C58.8877 354.695 58.7402 354.005 58.7402 353.217C58.7402 352.424 58.8877 351.732 59.1827 351.138C59.4777 350.545 59.892 350.085 60.4256 349.756C60.9592 349.428 61.584 349.264 62.2999 349.264C63.0158 349.264 63.6406 349.428 64.1742 349.756C64.7078 350.085 65.1221 350.545 65.4171 351.138C65.7121 351.732 65.8596 352.424 65.8596 353.217C65.8596 354.005 65.7121 354.695 65.4171 355.285C65.1221 355.875 64.7078 356.334 64.1742 356.662C63.6406 356.99 63.0158 357.154 62.2999 357.154ZM62.3049 355.906C62.7689 355.906 63.1534 355.784 63.4583 355.538C63.7632 355.293 63.9886 354.967 64.1344 354.559C64.2836 354.151 64.3581 353.702 64.3581 353.212C64.3581 352.724 64.2836 352.277 64.1344 351.869C63.9886 351.458 63.7632 351.129 63.4583 350.88C63.1534 350.631 62.7689 350.507 62.3049 350.507C61.8375 350.507 61.4498 350.631 61.1415 350.88C60.8366 351.129 60.6096 351.458 60.4604 351.869C60.3146 352.277 60.2417 352.724 60.2417 353.212C60.2417 353.702 60.3146 354.151 60.4604 354.559C60.6096 354.967 60.8366 355.293 61.1415 355.538C61.4498 355.784 61.8375 355.906 62.3049 355.906ZM67.5188 357V349.364H68.9457V350.607H69.0401C69.1992 350.186 69.4594 349.857 69.8207 349.622C70.1819 349.384 70.6145 349.264 71.1183 349.264C71.6287 349.264 72.0562 349.384 72.4009 349.622C72.7489 349.861 73.0058 350.189 73.1715 350.607H73.2511C73.4334 350.199 73.7234 349.874 74.1211 349.632C74.5188 349.387 74.9928 349.264 75.543 349.264C76.2357 349.264 76.8008 349.481 77.2383 349.915C77.6791 350.35 77.8995 351.004 77.8995 351.879V357H76.413V352.018C76.413 351.501 76.2721 351.127 75.9904 350.895C75.7087 350.663 75.3723 350.547 74.9812 350.547C74.4973 350.547 74.1211 350.696 73.8526 350.994C73.5842 351.289 73.4499 351.669 73.4499 352.133V357H71.9684V351.924C71.9684 351.51 71.8391 351.177 71.5806 350.925C71.3221 350.673 70.9857 350.547 70.5714 350.547C70.2897 350.547 70.0295 350.621 69.7908 350.771C69.5555 350.916 69.3649 351.12 69.2191 351.382C69.0766 351.644 69.0053 351.947 69.0053 352.292V357H67.5188ZM83.1831 357.154C82.4307 357.154 81.7827 356.993 81.2392 356.672C80.6989 356.347 80.2813 355.891 79.9863 355.305C79.6947 354.715 79.5488 354.024 79.5488 353.232C79.5488 352.449 79.6947 351.76 79.9863 351.163C80.2813 350.567 80.6923 350.101 81.2193 349.766C81.7496 349.432 82.3694 349.264 83.0787 349.264C83.5095 349.264 83.9271 349.335 84.3315 349.478C84.7359 349.621 85.0988 349.844 85.4203 350.149C85.7418 350.454 85.9953 350.85 86.1809 351.337C86.3665 351.821 86.4593 352.41 86.4593 353.102V353.629H80.389V352.516H85.0027C85.0027 352.125 84.9231 351.778 84.764 351.477C84.6049 351.172 84.3812 350.931 84.0929 350.756C83.8078 350.58 83.4731 350.492 83.0886 350.492C82.671 350.492 82.3064 350.595 81.9949 350.8C81.6866 351.003 81.448 351.268 81.2789 351.596C81.1132 351.921 81.0304 352.274 81.0304 352.655V353.525C81.0304 354.035 81.1199 354.469 81.2988 354.827C81.4811 355.185 81.7347 355.459 82.0595 355.648C82.3843 355.833 82.7638 355.926 83.198 355.926C83.4797 355.926 83.7366 355.886 83.9686 355.807C84.2006 355.724 84.4011 355.601 84.5701 355.439C84.7392 355.277 84.8684 355.076 84.9579 354.837L86.3649 355.091C86.2522 355.505 86.05 355.868 85.7583 356.18C85.47 356.488 85.1071 356.728 84.6696 356.901C84.2354 357.07 83.7399 357.154 83.1831 357.154Z" fill="black"/>
<rect x="56" y="324" width="15" height="15" rx="5" fill="#5B93FF"/>
<path d="M139.117 357V346.818H145.5V348.141H140.653V351.243H145.167V352.56H140.653V355.678H145.56V357H139.117ZM148.606 349.364L150.292 352.337L151.992 349.364H153.618L151.236 353.182L153.637 357H152.012L150.292 354.146L148.576 357H146.946L149.322 353.182L146.975 349.364H148.606ZM155.144 359.864V349.364H156.596V350.602H156.72C156.806 350.442 156.93 350.259 157.093 350.05C157.255 349.841 157.48 349.659 157.769 349.503C158.057 349.344 158.438 349.264 158.912 349.264C159.529 349.264 160.079 349.42 160.563 349.732C161.047 350.043 161.426 350.492 161.701 351.079C161.98 351.665 162.119 352.371 162.119 353.197C162.119 354.022 161.981 354.73 161.706 355.32C161.431 355.906 161.053 356.359 160.573 356.677C160.092 356.992 159.544 357.149 158.927 357.149C158.463 357.149 158.084 357.071 157.789 356.915C157.497 356.76 157.268 356.577 157.103 356.369C156.937 356.16 156.809 355.974 156.72 355.812H156.63V359.864H155.144ZM156.6 353.182C156.6 353.719 156.678 354.189 156.834 354.594C156.99 354.998 157.215 355.315 157.51 355.543C157.805 355.769 158.167 355.881 158.594 355.881C159.038 355.881 159.409 355.764 159.708 355.528C160.006 355.29 160.231 354.967 160.384 354.559C160.54 354.151 160.618 353.692 160.618 353.182C160.618 352.678 160.541 352.226 160.389 351.825C160.24 351.424 160.014 351.107 159.713 350.875C159.414 350.643 159.042 350.527 158.594 350.527C158.163 350.527 157.799 350.638 157.5 350.86C157.205 351.082 156.982 351.392 156.829 351.79C156.677 352.187 156.6 352.652 156.6 353.182ZM167.076 357.154C166.323 357.154 165.675 356.993 165.132 356.672C164.592 356.347 164.174 355.891 163.879 355.305C163.587 354.715 163.441 354.024 163.441 353.232C163.441 352.449 163.587 351.76 163.879 351.163C164.174 350.567 164.585 350.101 165.112 349.766C165.642 349.432 166.262 349.264 166.971 349.264C167.402 349.264 167.82 349.335 168.224 349.478C168.628 349.621 168.991 349.844 169.313 350.149C169.634 350.454 169.888 350.85 170.074 351.337C170.259 351.821 170.352 352.41 170.352 353.102V353.629H164.282V352.516H168.895C168.895 352.125 168.816 351.778 168.657 351.477C168.498 351.172 168.274 350.931 167.985 350.756C167.7 350.58 167.366 350.492 166.981 350.492C166.564 350.492 166.199 350.595 165.887 350.8C165.579 351.003 165.341 351.268 165.172 351.596C165.006 351.921 164.923 352.274 164.923 352.655V353.525C164.923 354.035 165.012 354.469 165.191 354.827C165.374 355.185 165.627 355.459 165.952 355.648C166.277 355.833 166.656 355.926 167.091 355.926C167.372 355.926 167.629 355.886 167.861 355.807C168.093 355.724 168.294 355.601 168.463 355.439C168.632 355.277 168.761 355.076 168.85 354.837L170.257 355.091C170.145 355.505 169.943 355.868 169.651 356.18C169.363 356.488 169 356.728 168.562 356.901C168.128 357.07 167.632 357.154 167.076 357.154ZM173.488 352.466V357H172.001V349.364H173.428V350.607H173.523C173.698 350.202 173.973 349.877 174.348 349.632C174.726 349.387 175.201 349.264 175.775 349.264C176.295 349.264 176.751 349.374 177.142 349.592C177.533 349.808 177.836 350.129 178.052 350.557C178.267 350.984 178.375 351.513 178.375 352.143V357H176.888V352.322C176.888 351.768 176.744 351.336 176.456 351.024C176.167 350.709 175.771 350.552 175.268 350.552C174.923 350.552 174.616 350.626 174.348 350.776C174.083 350.925 173.872 351.143 173.716 351.432C173.564 351.717 173.488 352.062 173.488 352.466ZM186.091 351.228L184.743 351.467C184.687 351.294 184.598 351.13 184.475 350.974C184.356 350.819 184.193 350.691 183.988 350.592C183.782 350.492 183.525 350.442 183.217 350.442C182.796 350.442 182.445 350.537 182.163 350.726C181.881 350.911 181.741 351.152 181.741 351.447C181.741 351.702 181.835 351.907 182.024 352.063C182.213 352.219 182.518 352.347 182.939 352.446L184.152 352.724C184.854 352.887 185.378 353.137 185.723 353.475C186.068 353.813 186.24 354.252 186.24 354.793C186.24 355.25 186.107 355.658 185.842 356.016C185.58 356.37 185.214 356.649 184.743 356.851C184.276 357.053 183.734 357.154 183.118 357.154C182.263 357.154 181.565 356.972 181.025 356.607C180.484 356.239 180.153 355.717 180.03 355.041L181.467 354.822C181.557 355.197 181.741 355.48 182.019 355.673C182.297 355.862 182.66 355.956 183.108 355.956C183.595 355.956 183.984 355.855 184.276 355.653C184.568 355.447 184.714 355.197 184.714 354.902C184.714 354.663 184.624 354.463 184.445 354.3C184.269 354.138 183.999 354.015 183.635 353.933L182.342 353.649C181.63 353.487 181.103 353.228 180.761 352.874C180.423 352.519 180.254 352.07 180.254 351.526C180.254 351.076 180.38 350.681 180.632 350.343C180.884 350.005 181.232 349.741 181.676 349.553C182.12 349.36 182.629 349.264 183.202 349.264C184.028 349.264 184.677 349.443 185.151 349.801C185.625 350.156 185.938 350.631 186.091 351.228ZM191.165 357.154C190.413 357.154 189.765 356.993 189.222 356.672C188.681 356.347 188.264 355.891 187.969 355.305C187.677 354.715 187.531 354.024 187.531 353.232C187.531 352.449 187.677 351.76 187.969 351.163C188.264 350.567 188.675 350.101 189.202 349.766C189.732 349.432 190.352 349.264 191.061 349.264C191.492 349.264 191.91 349.335 192.314 349.478C192.718 349.621 193.081 349.844 193.403 350.149C193.724 350.454 193.978 350.85 194.163 351.337C194.349 351.821 194.442 352.41 194.442 353.102V353.629H188.371V352.516H192.985C192.985 352.125 192.906 351.778 192.746 351.477C192.587 351.172 192.364 350.931 192.075 350.756C191.79 350.58 191.455 350.492 191.071 350.492C190.653 350.492 190.289 350.595 189.977 350.8C189.669 351.003 189.43 351.268 189.261 351.596C189.096 351.921 189.013 352.274 189.013 352.655V353.525C189.013 354.035 189.102 354.469 189.281 354.827C189.464 355.185 189.717 355.459 190.042 355.648C190.367 355.833 190.746 355.926 191.18 355.926C191.462 355.926 191.719 355.886 191.951 355.807C192.183 355.724 192.384 355.601 192.553 355.439C192.722 355.277 192.851 355.076 192.94 354.837L194.347 355.091C194.235 355.505 194.032 355.868 193.741 356.18C193.452 356.488 193.089 356.728 192.652 356.901C192.218 357.07 191.722 357.154 191.165 357.154ZM201.813 351.228L200.466 351.467C200.41 351.294 200.32 351.13 200.198 350.974C200.078 350.819 199.916 350.691 199.71 350.592C199.505 350.492 199.248 350.442 198.94 350.442C198.519 350.442 198.168 350.537 197.886 350.726C197.604 350.911 197.463 351.152 197.463 351.447C197.463 351.702 197.558 351.907 197.747 352.063C197.936 352.219 198.24 352.347 198.661 352.446L199.874 352.724C200.577 352.887 201.101 353.137 201.445 353.475C201.79 353.813 201.963 354.252 201.963 354.793C201.963 355.25 201.83 355.658 201.565 356.016C201.303 356.37 200.937 356.649 200.466 356.851C199.999 357.053 199.457 357.154 198.84 357.154C197.985 357.154 197.288 356.972 196.747 356.607C196.207 356.239 195.876 355.717 195.753 355.041L197.19 354.822C197.279 355.197 197.463 355.48 197.742 355.673C198.02 355.862 198.383 355.956 198.83 355.956C199.318 355.956 199.707 355.855 199.999 355.653C200.29 355.447 200.436 355.197 200.436 354.902C200.436 354.663 200.347 354.463 200.168 354.3C199.992 354.138 199.722 354.015 199.357 353.933L198.065 353.649C197.352 353.487 196.825 353.228 196.484 352.874C196.146 352.519 195.977 352.07 195.977 351.526C195.977 351.076 196.103 350.681 196.355 350.343C196.606 350.005 196.954 349.741 197.399 349.553C197.843 349.36 198.352 349.264 198.925 349.264C199.75 349.264 200.4 349.443 200.874 349.801C201.348 350.156 201.661 350.631 201.813 351.228Z" fill="black"/>
<rect x="162.998" y="324" width="15" height="15" rx="5" fill="#FFD66B"/>
<path d="M254.117 357V346.818H257.746C258.538 346.818 259.194 346.962 259.715 347.251C260.235 347.539 260.624 347.933 260.883 348.434C261.142 348.931 261.271 349.491 261.271 350.114C261.271 350.741 261.14 351.304 260.878 351.805C260.619 352.302 260.228 352.696 259.705 352.988C259.184 353.276 258.53 353.42 257.741 353.42H255.245V352.118H257.602C258.102 352.118 258.508 352.032 258.82 351.859C259.131 351.684 259.36 351.445 259.506 351.143C259.652 350.842 259.725 350.499 259.725 350.114C259.725 349.73 259.652 349.388 259.506 349.09C259.36 348.792 259.13 348.558 258.815 348.389C258.503 348.22 258.092 348.136 257.582 348.136H255.653V357H254.117ZM262.952 357V349.364H264.389V350.577H264.469C264.608 350.166 264.853 349.843 265.205 349.607C265.559 349.369 265.96 349.249 266.408 349.249C266.5 349.249 266.61 349.253 266.736 349.259C266.865 349.266 266.966 349.274 267.039 349.284V350.706C266.979 350.689 266.873 350.671 266.721 350.651C266.568 350.628 266.416 350.616 266.263 350.616C265.912 350.616 265.599 350.691 265.324 350.84C265.052 350.986 264.837 351.19 264.678 351.452C264.518 351.71 264.439 352.005 264.439 352.337V357H262.952ZM271.269 357.154C270.553 357.154 269.928 356.99 269.394 356.662C268.861 356.334 268.446 355.875 268.151 355.285C267.856 354.695 267.709 354.005 267.709 353.217C267.709 352.424 267.856 351.732 268.151 351.138C268.446 350.545 268.861 350.085 269.394 349.756C269.928 349.428 270.553 349.264 271.269 349.264C271.985 349.264 272.609 349.428 273.143 349.756C273.677 350.085 274.091 350.545 274.386 351.138C274.681 351.732 274.828 352.424 274.828 353.217C274.828 354.005 274.681 354.695 274.386 355.285C274.091 355.875 273.677 356.334 273.143 356.662C272.609 356.99 271.985 357.154 271.269 357.154ZM271.274 355.906C271.738 355.906 272.122 355.784 272.427 355.538C272.732 355.293 272.957 354.967 273.103 354.559C273.252 354.151 273.327 353.702 273.327 353.212C273.327 352.724 273.252 352.277 273.103 351.869C272.957 351.458 272.732 351.129 272.427 350.88C272.122 350.631 271.738 350.507 271.274 350.507C270.806 350.507 270.419 350.631 270.11 350.88C269.805 351.129 269.578 351.458 269.429 351.869C269.283 352.277 269.21 352.724 269.21 353.212C269.21 353.702 269.283 354.151 269.429 354.559C269.578 354.967 269.805 355.293 270.11 355.538C270.419 355.784 270.806 355.906 271.274 355.906ZM280.122 349.364V350.557H275.806V349.364H280.122ZM276.99 357V348.479C276.99 348.001 277.094 347.605 277.303 347.29C277.512 346.972 277.788 346.735 278.133 346.58C278.478 346.42 278.852 346.341 279.257 346.341C279.555 346.341 279.81 346.366 280.022 346.415C280.234 346.462 280.392 346.505 280.495 346.545L280.147 347.748C280.077 347.728 279.988 347.705 279.878 347.678C279.769 347.648 279.636 347.634 279.48 347.634C279.119 347.634 278.861 347.723 278.705 347.902C278.552 348.081 278.476 348.339 278.476 348.678V357H276.99ZM281.656 357V349.364H283.142V357H281.656ZM282.406 348.185C282.148 348.185 281.926 348.099 281.74 347.927C281.558 347.751 281.467 347.542 281.467 347.3C281.467 347.055 281.558 346.846 281.74 346.674C281.926 346.498 282.148 346.411 282.406 346.411C282.665 346.411 282.885 346.498 283.067 346.674C283.253 346.846 283.346 347.055 283.346 347.3C283.346 347.542 283.253 347.751 283.067 347.927C282.885 348.099 282.665 348.185 282.406 348.185ZM288.706 349.364V350.557H284.535V349.364H288.706ZM285.654 347.534H287.14V354.758C287.14 355.046 287.184 355.263 287.27 355.409C287.356 355.552 287.467 355.649 287.603 355.702C287.742 355.752 287.893 355.777 288.055 355.777C288.175 355.777 288.279 355.769 288.368 355.752C288.458 355.736 288.528 355.722 288.577 355.712L288.846 356.94C288.76 356.973 288.637 357.007 288.478 357.04C288.319 357.076 288.12 357.096 287.881 357.099C287.49 357.106 287.126 357.036 286.787 356.891C286.449 356.745 286.176 356.519 285.967 356.214C285.758 355.91 285.654 355.527 285.654 355.066V347.534Z" fill="black"/>
<rect x="263.998" y="324" width="15" height="15" rx="5" fill="#FA5FF0"/>
<circle cx="164.5" cy="179.5" r="110" stroke="#5B93FF" stroke-opacity="0.05" stroke-width="15"/>
<path d="M115.27 271.967C111.864 278.41 103.828 280.93 97.8079 276.824C87.9614 270.107 79.173 261.916 71.7614 252.516C61.6198 239.654 54.2803 224.813 50.2142 208.946C46.1481 193.079 45.4454 176.537 48.1511 160.383C50.1284 148.577 53.8943 137.168 59.2969 126.544C62.6 120.048 70.8579 118.393 76.9426 122.404C83.0273 126.414 84.6102 134.57 81.5202 141.17C78.0231 148.639 75.5481 156.568 74.179 164.742C72.0812 177.267 72.6261 190.093 75.7786 202.395C78.9312 214.697 84.6217 226.203 92.4848 236.176C97.6166 242.684 103.6 248.445 110.258 253.312C116.142 257.613 118.676 265.524 115.27 271.967Z" fill="#FA5FF0"/>
<path d="M244.909 241.587C251.779 246.835 253.161 256.747 247.047 262.859C229.21 280.691 205.988 292.414 180.75 296.05C155.512 299.686 129.925 294.995 107.78 282.923C100.19 278.786 98.7171 268.886 103.826 261.913C108.935 254.94 118.69 253.579 126.472 257.344C141.83 264.776 159.167 267.532 176.286 265.066C193.405 262.6 209.259 255.061 221.895 243.597C228.297 237.788 238.04 236.34 244.909 241.587Z" fill="#FFD66B"/>
<g filter="url(#filter0_d_1601_8943)">
<path d="M164.5 82.4878C164.5 71.1727 173.741 61.8185 184.884 63.7816C202.018 66.7999 218.355 73.6016 232.664 83.7928C252.567 97.968 267.556 117.995 275.544 141.087C283.532 164.18 284.122 189.188 277.232 212.631C272.279 229.485 263.636 244.928 252.03 257.888C244.482 266.317 231.436 264.673 224.444 255.776C217.453 246.88 219.287 234.111 226.017 225.015C231.327 217.838 235.372 209.744 237.92 201.077C242.407 185.809 242.022 169.522 236.82 154.483C231.617 139.444 221.856 126.4 208.894 117.169C201.536 111.928 193.354 108.064 184.744 105.702C173.832 102.708 164.5 93.8028 164.5 82.4878Z" fill="#448BFF"/>
</g>
<path d="M110.301 156.545V174H107.659V159.187H107.557L103.381 161.915V159.392L107.736 156.545H110.301ZM115.023 174V172.091L120.929 165.971C121.56 165.307 122.08 164.724 122.489 164.224C122.903 163.719 123.213 163.239 123.418 162.784C123.622 162.329 123.724 161.846 123.724 161.335C123.724 160.756 123.588 160.256 123.315 159.835C123.043 159.409 122.67 159.082 122.199 158.855C121.727 158.622 121.196 158.506 120.605 158.506C119.98 158.506 119.435 158.633 118.969 158.889C118.503 159.145 118.145 159.506 117.895 159.971C117.645 160.437 117.52 160.983 117.52 161.608H115.006C115.006 160.545 115.25 159.616 115.739 158.821C116.227 158.025 116.898 157.409 117.75 156.971C118.602 156.528 119.571 156.307 120.656 156.307C121.753 156.307 122.719 156.525 123.554 156.963C124.395 157.395 125.051 157.986 125.523 158.736C125.994 159.48 126.23 160.321 126.23 161.258C126.23 161.906 126.108 162.54 125.864 163.159C125.625 163.778 125.207 164.469 124.611 165.23C124.014 165.986 123.185 166.903 122.122 167.983L118.653 171.614V171.741H126.511V174H115.023ZM133.091 171.614L132.963 172.542C132.878 173.224 132.733 173.935 132.528 174.673C132.33 175.417 132.122 176.108 131.906 176.744C131.696 177.381 131.523 177.886 131.386 178.261H129.58C129.653 177.909 129.756 177.432 129.886 176.829C130.017 176.233 130.145 175.565 130.27 174.827C130.395 174.088 130.489 173.335 130.551 172.568L130.636 171.614H133.091ZM142.099 174.29C140.753 174.284 139.602 173.929 138.648 173.224C137.693 172.52 136.963 171.494 136.457 170.148C135.952 168.801 135.699 167.179 135.699 165.281C135.699 163.389 135.952 161.773 136.457 160.432C136.969 159.091 137.702 158.068 138.656 157.364C139.616 156.659 140.764 156.307 142.099 156.307C143.435 156.307 144.58 156.662 145.534 157.372C146.489 158.077 147.219 159.099 147.724 160.44C148.236 161.775 148.491 163.389 148.491 165.281C148.491 167.185 148.239 168.81 147.733 170.156C147.227 171.497 146.497 172.523 145.543 173.233C144.588 173.937 143.44 174.29 142.099 174.29ZM142.099 172.014C143.281 172.014 144.205 171.437 144.869 170.284C145.54 169.131 145.875 167.463 145.875 165.281C145.875 163.832 145.722 162.608 145.415 161.608C145.114 160.602 144.679 159.841 144.111 159.324C143.548 158.801 142.878 158.54 142.099 158.54C140.923 158.54 140 159.119 139.33 160.278C138.659 161.437 138.321 163.105 138.315 165.281C138.315 166.736 138.466 167.966 138.767 168.971C139.074 169.971 139.509 170.73 140.071 171.247C140.634 171.758 141.31 172.014 142.099 172.014ZM157.592 174.29C156.245 174.284 155.094 173.929 154.14 173.224C153.185 172.52 152.455 171.494 151.95 170.148C151.444 168.801 151.191 167.179 151.191 165.281C151.191 163.389 151.444 161.773 151.95 160.432C152.461 159.091 153.194 158.068 154.148 157.364C155.109 156.659 156.256 156.307 157.592 156.307C158.927 156.307 160.072 156.662 161.026 157.372C161.981 158.077 162.711 159.099 163.217 160.44C163.728 161.775 163.984 163.389 163.984 165.281C163.984 167.185 163.731 168.81 163.225 170.156C162.719 171.497 161.989 172.523 161.035 173.233C160.08 173.937 158.933 174.29 157.592 174.29ZM157.592 172.014C158.773 172.014 159.697 171.437 160.362 170.284C161.032 169.131 161.367 167.463 161.367 165.281C161.367 163.832 161.214 162.608 160.907 161.608C160.606 160.602 160.171 159.841 159.603 159.324C159.04 158.801 158.37 158.54 157.592 158.54C156.415 158.54 155.492 159.119 154.822 160.278C154.151 161.437 153.813 163.105 153.808 165.281C153.808 166.736 153.958 167.966 154.259 168.971C154.566 169.971 155.001 170.73 155.563 171.247C156.126 171.758 156.802 172.014 157.592 172.014ZM173.084 174.29C171.737 174.284 170.587 173.929 169.632 173.224C168.678 172.52 167.947 171.494 167.442 170.148C166.936 168.801 166.683 167.179 166.683 165.281C166.683 163.389 166.936 161.773 167.442 160.432C167.953 159.091 168.686 158.068 169.641 157.364C170.601 156.659 171.749 156.307 173.084 156.307C174.419 156.307 175.564 156.662 176.518 157.372C177.473 158.077 178.203 159.099 178.709 160.44C179.22 161.775 179.476 163.389 179.476 165.281C179.476 167.185 179.223 168.81 178.717 170.156C178.212 171.497 177.482 172.523 176.527 173.233C175.572 173.937 174.425 174.29 173.084 174.29ZM173.084 172.014C174.266 172.014 175.189 171.437 175.854 170.284C176.524 169.131 176.859 167.463 176.859 165.281C176.859 163.832 176.706 162.608 176.399 161.608C176.098 160.602 175.663 159.841 175.095 159.324C174.533 158.801 173.862 158.54 173.084 158.54C171.908 158.54 170.984 159.119 170.314 160.278C169.643 161.437 169.305 163.105 169.3 165.281C169.3 166.736 169.45 167.966 169.751 168.971C170.058 169.971 170.493 170.73 171.055 171.247C171.618 171.758 172.294 172.014 173.084 172.014ZM188.576 174.29C187.229 174.284 186.079 173.929 185.124 173.224C184.17 172.52 183.44 171.494 182.934 170.148C182.428 168.801 182.175 167.179 182.175 165.281C182.175 163.389 182.428 161.773 182.934 160.432C183.445 159.091 184.178 158.068 185.133 157.364C186.093 156.659 187.241 156.307 188.576 156.307C189.911 156.307 191.056 156.662 192.011 157.372C192.965 158.077 193.695 159.099 194.201 160.44C194.712 161.775 194.968 163.389 194.968 165.281C194.968 167.185 194.715 168.81 194.21 170.156C193.704 171.497 192.974 172.523 192.019 173.233C191.065 173.937 189.917 174.29 188.576 174.29ZM188.576 172.014C189.758 172.014 190.681 171.437 191.346 170.284C192.016 169.131 192.352 167.463 192.352 165.281C192.352 163.832 192.198 162.608 191.891 161.608C191.59 160.602 191.156 159.841 190.587 159.324C190.025 158.801 189.354 158.54 188.576 158.54C187.4 158.54 186.477 159.119 185.806 160.278C185.136 161.437 184.798 163.105 184.792 165.281C184.792 166.736 184.942 167.966 185.244 168.971C185.55 169.971 185.985 170.73 186.548 171.247C187.11 171.758 187.786 172.014 188.576 172.014ZM204.068 174.29C202.722 174.284 201.571 173.929 200.616 173.224C199.662 172.52 198.932 171.494 198.426 170.148C197.92 168.801 197.668 167.179 197.668 165.281C197.668 163.389 197.92 161.773 198.426 160.432C198.938 159.091 199.67 158.068 200.625 157.364C201.585 156.659 202.733 156.307 204.068 156.307C205.403 156.307 206.548 156.662 207.503 157.372C208.457 158.077 209.188 159.099 209.693 160.44C210.205 161.775 210.46 163.389 210.46 165.281C210.46 167.185 210.207 168.81 209.702 170.156C209.196 171.497 208.466 172.523 207.511 173.233C206.557 173.937 205.409 174.29 204.068 174.29ZM204.068 172.014C205.25 172.014 206.173 171.437 206.838 170.284C207.509 169.131 207.844 167.463 207.844 165.281C207.844 163.832 207.69 162.608 207.384 161.608C207.082 160.602 206.648 159.841 206.08 159.324C205.517 158.801 204.847 158.54 204.068 158.54C202.892 158.54 201.969 159.119 201.298 160.278C200.628 161.437 200.29 163.105 200.284 165.281C200.284 166.736 200.435 167.966 200.736 168.971C201.043 169.971 201.477 170.73 202.04 171.247C202.602 171.758 203.278 172.014 204.068 172.014Z" fill="black"/>
<path d="M136.358 191.818H137.77L140.594 196.571H140.713L143.537 191.818H144.949L141.27 197.804V202H140.037V197.804L136.358 191.818ZM148.506 202.159C147.77 202.159 147.136 201.997 146.602 201.672C146.072 201.344 145.662 200.886 145.374 200.3C145.089 199.71 144.946 199.024 144.946 198.241C144.946 197.459 145.089 196.77 145.374 196.173C145.662 195.573 146.063 195.106 146.577 194.771C147.094 194.433 147.697 194.264 148.387 194.264C148.784 194.264 149.177 194.33 149.565 194.463C149.953 194.596 150.306 194.811 150.624 195.109C150.942 195.404 151.196 195.795 151.385 196.283C151.574 196.77 151.668 197.37 151.668 198.082V198.579H145.782V197.565H150.475C150.475 197.134 150.389 196.75 150.216 196.412C150.047 196.074 149.805 195.807 149.49 195.611C149.179 195.416 148.811 195.318 148.387 195.318C147.919 195.318 147.515 195.434 147.174 195.666C146.836 195.895 146.575 196.193 146.393 196.561C146.211 196.929 146.12 197.323 146.12 197.744V198.42C146.12 198.997 146.219 199.486 146.418 199.887C146.62 200.285 146.9 200.588 147.258 200.797C147.616 201.002 148.032 201.105 148.506 201.105C148.814 201.105 149.093 201.062 149.341 200.976C149.593 200.886 149.81 200.754 149.993 200.578C150.175 200.399 150.316 200.177 150.415 199.912L151.549 200.23C151.429 200.614 151.229 200.953 150.947 201.244C150.665 201.533 150.317 201.758 149.903 201.92C149.489 202.079 149.023 202.159 148.506 202.159ZM155.7 202.179C155.216 202.179 154.777 202.088 154.382 201.905C153.988 201.72 153.675 201.453 153.443 201.105C153.211 200.754 153.095 200.329 153.095 199.832C153.095 199.395 153.181 199.04 153.353 198.768C153.526 198.493 153.756 198.278 154.044 198.122C154.333 197.966 154.651 197.85 154.999 197.774C155.35 197.694 155.703 197.632 156.058 197.585C156.522 197.525 156.898 197.481 157.186 197.451C157.478 197.418 157.69 197.363 157.823 197.287C157.959 197.211 158.027 197.078 158.027 196.889V196.849C158.027 196.359 157.892 195.978 157.624 195.706C157.359 195.434 156.956 195.298 156.416 195.298C155.856 195.298 155.417 195.421 155.098 195.666C154.78 195.911 154.556 196.173 154.427 196.452L153.314 196.054C153.512 195.59 153.778 195.229 154.109 194.97C154.444 194.708 154.808 194.526 155.203 194.423C155.6 194.317 155.992 194.264 156.376 194.264C156.621 194.264 156.903 194.294 157.221 194.354C157.543 194.41 157.853 194.528 158.151 194.707C158.453 194.886 158.703 195.156 158.902 195.517C159.1 195.878 159.2 196.362 159.2 196.969V202H158.027V200.966H157.967C157.887 201.132 157.755 201.309 157.569 201.498C157.384 201.687 157.137 201.847 156.828 201.98C156.52 202.113 156.144 202.179 155.7 202.179ZM155.879 201.125C156.343 201.125 156.734 201.034 157.052 200.851C157.374 200.669 157.616 200.434 157.778 200.145C157.944 199.857 158.027 199.554 158.027 199.236V198.162C157.977 198.221 157.868 198.276 157.699 198.326C157.533 198.372 157.341 198.414 157.122 198.45C156.906 198.483 156.696 198.513 156.49 198.54C156.288 198.563 156.124 198.583 155.998 198.599C155.693 198.639 155.408 198.704 155.143 198.793C154.881 198.879 154.669 199.01 154.507 199.186C154.348 199.358 154.268 199.594 154.268 199.892C154.268 200.3 154.419 200.608 154.721 200.817C155.025 201.022 155.412 201.125 155.879 201.125ZM161.341 202V194.364H162.475V195.517H162.555C162.694 195.139 162.946 194.833 163.31 194.597C163.675 194.362 164.086 194.244 164.543 194.244C164.629 194.244 164.737 194.246 164.866 194.249C164.996 194.252 165.093 194.257 165.16 194.264V195.457C165.12 195.447 165.029 195.432 164.886 195.413C164.747 195.389 164.599 195.378 164.444 195.378C164.073 195.378 163.741 195.456 163.449 195.611C163.161 195.764 162.932 195.976 162.763 196.248C162.598 196.516 162.515 196.823 162.515 197.167V202H161.341ZM167.724 191.818V202H166.55V191.818H167.724ZM170.628 204.864C170.43 204.864 170.252 204.847 170.096 204.814C169.941 204.784 169.833 204.754 169.773 204.724L170.072 203.69C170.357 203.763 170.608 203.79 170.827 203.77C171.046 203.75 171.24 203.652 171.409 203.476C171.581 203.304 171.739 203.024 171.881 202.636L172.1 202.04L169.276 194.364H170.549L172.657 200.449H172.736L174.844 194.364H176.117L172.876 203.114C172.73 203.508 172.549 203.834 172.334 204.093C172.118 204.355 171.868 204.549 171.583 204.675C171.301 204.801 170.983 204.864 170.628 204.864Z" fill="black" fill-opacity="0.6"/>
<path d="M25.4382 18V4.90909H30.1044C31.1229 4.90909 31.9666 5.09446 32.6357 5.4652C33.3047 5.83594 33.8054 6.34304 34.1378 6.98651C34.4702 7.62571 34.6364 8.34588 34.6364 9.14702C34.6364 9.95241 34.468 10.6768 34.1314 11.3203C33.799 11.9595 33.2962 12.4666 32.6229 12.8416C31.9538 13.2124 31.1122 13.3977 30.098 13.3977H26.8892V11.723H29.919C30.5625 11.723 31.0845 11.6122 31.4851 11.3906C31.8857 11.1648 32.1797 10.858 32.3672 10.4702C32.5547 10.0824 32.6484 9.64133 32.6484 9.14702C32.6484 8.6527 32.5547 8.21378 32.3672 7.83026C32.1797 7.44673 31.8835 7.14631 31.4787 6.92898C31.0781 6.71165 30.5497 6.60298 29.8935 6.60298H27.4134V18H25.4382ZM36.7985 18V8.18182H38.6458V9.74148H38.748C38.927 9.21307 39.2424 8.79758 39.6941 8.49503C40.15 8.18821 40.6657 8.0348 41.2409 8.0348C41.3603 8.0348 41.5009 8.03906 41.6628 8.04759C41.829 8.05611 41.959 8.06676 42.0527 8.07955V9.90767C41.976 9.88636 41.8397 9.86293 41.6436 9.83736C41.4476 9.80753 41.2516 9.79261 41.0556 9.79261C40.6039 9.79261 40.2012 9.88849 39.8475 10.0803C39.498 10.2678 39.2211 10.5298 39.0165 10.8665C38.812 11.1989 38.7097 11.5781 38.7097 12.0043V18H36.7985ZM47.4908 18.1982C46.5703 18.1982 45.767 17.9872 45.081 17.5653C44.3949 17.1435 43.8622 16.5533 43.483 15.7947C43.1037 15.0362 42.9141 14.1499 42.9141 13.1357C42.9141 12.1172 43.1037 11.2266 43.483 10.4638C43.8622 9.70099 44.3949 9.10866 45.081 8.68679C45.767 8.26491 46.5703 8.05398 47.4908 8.05398C48.4112 8.05398 49.2145 8.26491 49.9006 8.68679C50.5866 9.10866 51.1193 9.70099 51.4986 10.4638C51.8778 11.2266 52.0675 12.1172 52.0675 13.1357C52.0675 14.1499 51.8778 15.0362 51.4986 15.7947C51.1193 16.5533 50.5866 17.1435 49.9006 17.5653C49.2145 17.9872 48.4112 18.1982 47.4908 18.1982ZM47.4972 16.5938C48.0938 16.5938 48.5881 16.4361 48.9801 16.1207C49.3722 15.8054 49.6619 15.3857 49.8494 14.8615C50.0412 14.3374 50.1371 13.7599 50.1371 13.1293C50.1371 12.5028 50.0412 11.9276 49.8494 11.4034C49.6619 10.875 49.3722 10.451 48.9801 10.1314C48.5881 9.81179 48.0938 9.65199 47.4972 9.65199C46.8963 9.65199 46.3977 9.81179 46.0014 10.1314C45.6094 10.451 45.3175 10.875 45.1257 11.4034C44.9382 11.9276 44.8445 12.5028 44.8445 13.1293C44.8445 13.7599 44.9382 14.3374 45.1257 14.8615C45.3175 15.3857 45.6094 15.8054 46.0014 16.1207C46.3977 16.4361 46.8963 16.5938 47.4972 16.5938ZM58.8734 8.18182V9.71591H53.3251V8.18182H58.8734ZM54.8464 18V7.04403C54.8464 6.4304 54.9806 5.92116 55.2491 5.51634C55.5176 5.10724 55.8734 4.80256 56.3166 4.60227C56.7598 4.39773 57.2413 4.29545 57.7612 4.29545C58.1447 4.29545 58.4728 4.32741 58.7456 4.39134C59.0183 4.45099 59.2207 4.50639 59.3528 4.55753L58.9054 6.1044C58.8159 6.07883 58.7008 6.04901 58.5602 6.01491C58.4196 5.97656 58.2491 5.95739 58.0488 5.95739C57.5843 5.95739 57.252 6.07244 57.0517 6.30256C56.8556 6.53267 56.7576 6.86506 56.7576 7.29972V18H54.8464ZM60.8453 18V8.18182H62.7566V18H60.8453ZM61.8105 6.6669C61.4782 6.6669 61.1926 6.55611 60.954 6.33452C60.7196 6.10866 60.6025 5.8402 60.6025 5.52912C60.6025 5.21378 60.7196 4.94531 60.954 4.72372C61.1926 4.49787 61.4782 4.38494 61.8105 4.38494C62.1429 4.38494 62.4263 4.49787 62.6607 4.72372C62.8993 4.94531 63.0186 5.21378 63.0186 5.52912C63.0186 5.8402 62.8993 6.10866 62.6607 6.33452C62.4263 6.55611 62.1429 6.6669 61.8105 6.6669ZM69.9109 8.18182V9.71591H64.5479V8.18182H69.9109ZM65.9862 5.82955H67.8974V15.1172C67.8974 15.4879 67.9528 15.767 68.0636 15.9545C68.1744 16.1378 68.3171 16.2635 68.4918 16.3317C68.6708 16.3956 68.8647 16.4276 69.0735 16.4276C69.2269 16.4276 69.3612 16.4169 69.4762 16.3956C69.5913 16.3743 69.6808 16.3572 69.7447 16.3445L70.0898 17.9233C69.979 17.9659 69.8214 18.0085 69.6168 18.0511C69.4123 18.098 69.1566 18.1236 68.8498 18.1278C68.3469 18.1364 67.8782 18.0469 67.4435 17.8594C67.0089 17.6719 66.6573 17.3821 66.3888 16.9901C66.1204 16.598 65.9862 16.1058 65.9862 15.5135V5.82955Z" fill="black"/>
<defs>
<filter id="filter0_d_1601_8943" x="160.5" y="63.5198" width="125.5" height="207.885" filterUnits="userSpaceOnUse" color-interpolation-filters="sRGB">
<feFlood flood-opacity="0" result="BackgroundImageFix"/>
<feColorMatrix in="SourceAlpha" type="matrix" values="0 0 0 0 0 0 0 0 0 0 0 0 0 0 0 0 0 0 127 0" result="hardAlpha"/>
<feOffset dy="4"/>
<feGaussianBlur stdDeviation="2"/>
<feColorMatrix type="matrix" values="0 0 0 0 0.356863 0 0 0 0 0.576471 0 0 0 0 1 0 0 0 0.24 0"/>
<feBlend mode="normal" in2="BackgroundImageFix" result="effect1_dropShadow_1601_8943"/>
<feBlend mode="normal" in="SourceGraphic" in2="effect1_dropShadow_1601_8943" result="shape"/>
</filter>
</defs>
</svg>
