<svg width="548" height="387" viewBox="0 0 548 387" fill="none" xmlns="http://www.w3.org/2000/svg">
  <g clip-path="url(#clip0_458_23781)">
    <path d="M291.788 170.698L289.157 174.765L324.287 197.423L326.918 193.356L291.788 170.698Z"
      fill="#2F2E41" />
    <path
      d="M328.657 197.355C333.017 190.616 335.182 184.271 333.494 183.182C331.806 182.094 326.904 186.674 322.545 193.412C318.186 200.151 316.021 206.496 317.708 207.585C319.396 208.673 324.298 204.093 328.657 197.355Z"
      fill="#2F2E41" />
    <path
      d="M293.529 174.693C297.888 167.955 300.053 161.61 298.365 160.521C296.677 159.433 291.775 164.013 287.416 170.751C283.057 177.49 280.892 183.835 282.58 184.923C284.267 186.012 289.169 181.432 293.529 174.693Z"
      fill="#2F2E41" />
    <path
      d="M408.034 387.007C485.338 387.007 548.006 382.233 548.006 376.344C548.006 370.455 485.338 365.681 408.034 365.681C330.729 365.681 268.062 370.455 268.062 376.344C268.062 382.233 330.729 387.007 408.034 387.007Z"
      fill="#448BFF" fill-opacity="0.3" />
    <path
      d="M139.972 335.911C217.277 335.911 279.945 331.138 279.945 325.249C279.945 319.36 217.277 314.586 139.972 314.586C62.6678 314.586 0 319.36 0 325.249C0 331.138 62.6678 335.911 139.972 335.911Z"
      fill="#448BFF" fill-opacity="0.3" />
    <path
      d="M523.172 325.229C522.715 342.363 519.841 359.347 514.636 375.68C514.518 376.058 514.393 376.43 514.269 376.814H482.407C482.438 376.473 482.475 376.095 482.506 375.68C484.63 351.304 496.873 202.935 482.239 177.561C483.531 179.594 525.637 247.769 523.172 325.229Z"
      fill="#00972A" fill-opacity="0.12" />
    <path
      d="M520.782 375.68C520.515 376.058 520.235 376.436 519.956 376.815H496.065L496.686 375.68C500.635 368.569 512.319 347.299 523.166 325.255C534.819 301.561 545.517 276.968 544.61 268.066C544.896 270.049 552.961 331.243 520.782 375.68Z"
      fill="#00972A" fill-opacity="0.12" />
    <path
      d="M297.496 350.617C297.734 359.31 299.197 367.927 301.842 376.214C301.905 376.406 301.967 376.598 302.035 376.79H318.177C318.177 376.617 318.146 376.424 318.128 376.214C317.047 363.815 310.832 288.53 318.264 275.654C317.618 276.696 296.242 311.3 297.496 350.617Z"
      fill="#00972A" fill-opacity="0.12" />
    <path
      d="M298.708 376.213L299.13 376.789H311.255L310.932 376.213C308.933 372.605 302.998 361.806 297.497 350.616C291.58 338.589 286.154 326.11 286.607 321.591C286.47 322.607 282.373 353.672 298.708 376.213Z"
      fill="#00972A" fill-opacity="0.12" />
    <path
      d="M318.127 162.386C318.127 162.386 291.12 188.814 302.463 192.05C313.806 195.286 326.769 167.779 326.769 167.779L318.127 162.386Z"
      fill="#FFB8B8" />
    <path d="M345.135 251.377L341.895 266.479L366.201 267.557L362.42 251.377H345.135Z"
      fill="#FFB8B8" />
    <path d="M421.841 344.689L418.601 359.791L442.907 360.869L439.126 344.689H421.841Z"
      fill="#FFB8B8" />
    <path
      d="M379.164 150.52L381.325 159.149C381.325 159.149 321.368 147.284 324.609 177.487C327.85 207.69 341.894 236.815 341.894 236.815C341.894 236.815 340.814 246.523 342.974 248.141C345.135 249.759 342.974 255.152 342.974 255.152C342.974 255.152 362.96 257.849 363.5 252.995C363.792 249.75 363.61 246.48 362.96 243.287C362.96 243.287 364.04 243.287 362.96 237.893C361.879 232.5 357.515 189.005 354.268 183.073C354.268 183.073 382.939 204.994 398.063 202.291C398.063 202.291 395.902 223.864 404.545 252.449C413.187 281.035 413.193 284.271 413.193 284.271C413.193 284.271 423.456 338.751 420.755 345.223L420.215 347.919H440.188C440.188 347.919 438.568 319.334 440.188 315.559C441.808 311.783 441.809 279.417 432.626 263.236C426.119 251.78 427.33 218.558 430.888 205.421C433.874 194.393 434.613 185.906 432.881 174.617C431.018 162.547 425.43 156.236 418.601 150.514L379.164 150.52Z"
      fill="#2F2E41" />
    <path
      d="M395.102 69.3454C405.841 69.3454 414.547 60.6524 414.547 49.9291C414.547 39.2057 405.841 30.5128 395.102 30.5128C384.362 30.5128 375.656 39.2057 375.656 49.9291C375.656 60.6524 384.362 69.3454 395.102 69.3454Z"
      fill="#FFB8B8" />
    <path
      d="M389.967 63.6861C389.967 63.6861 395.908 80.9451 395.368 84.1811C394.828 87.4172 412.659 77.709 412.659 77.709C412.659 77.709 405.637 60.4438 407.798 55.5898L389.967 63.6861Z"
      fill="#FFB8B8" />
    <path
      d="M411.579 71.7763L392.668 79.3519L393.748 85.824C393.748 85.824 392.128 87.9814 392.668 89.0601C393.208 90.1388 385.646 94.4535 386.726 96.0716C387.807 97.6896 380.245 104.131 380.785 105.78C381.325 107.429 363.5 117.106 373.223 135.983C373.223 135.983 378.264 142.523 377.637 150.241C377.637 150.508 377.581 150.787 377.544 151.06C376.464 159.15 418.601 149.981 418.601 149.981V140.812C418.601 140.812 422.382 139.194 421.842 132.183C421.302 125.171 418.061 128.407 421.842 124.632C425.623 120.857 425.623 121.396 425.083 118.16C424.866 116.864 424.822 112.221 424.847 107.106C424.897 96.2973 421.373 85.7739 414.82 77.1698L411.579 71.7763Z"
      fill="#448BFF" />
    <path
      d="M401.31 85.7989L366.201 122.474L314.887 162.925L326.23 172.094L420.762 108.991C420.762 108.991 428.864 74.4727 401.31 85.7989Z"
      fill="#448BFF" />
    <path
      d="M346.755 259.467C346.755 259.467 342.974 252.995 340.274 255.127L321.369 270.229C321.369 270.229 287.879 279.937 320.288 287.494C320.288 287.494 338.113 290.191 341.894 287.494C345.675 284.797 351.617 285.331 353.237 286.415C354.858 287.5 375.383 285.876 375.383 281.555C375.383 277.234 364.065 258.388 364.065 258.388C364.065 258.388 357.558 265.951 346.755 259.467Z"
      fill="#2F2E41" />
    <path
      d="M423.462 352.78C423.462 352.78 419.681 346.308 416.98 348.44L398.069 363.542C398.069 363.542 364.58 373.25 396.988 380.801C396.988 380.801 414.819 383.497 418.6 380.801C422.382 378.104 428.323 378.643 429.944 379.722C431.564 380.801 452.09 379.183 452.09 374.868C452.09 370.553 440.765 351.695 440.765 351.695C440.765 351.695 434.265 359.252 423.462 352.78Z"
      fill="#2F2E41" />
    <path
      d="M371.794 42.2302C371.794 42.2302 375.084 13.3722 403.203 21.5616C403.203 21.5616 423.102 17.5258 430.123 42.3356L437.257 68.3418L433.979 66.6494L432.539 69.966L427.33 71.3919L425.001 66.9903L424.045 72.4086L388.036 79.668C388.036 79.668 400.204 65.7877 400.117 45.4538L396.535 49.3842L371.794 42.2302Z"
      fill="#2F2E41" />
    <path d="M178.571 18.7592H133.59V74.7641H178.571V18.7592Z" fill="#2F2E41" />
    <path
      d="M96.4505 280.011L90.3164 302.552L100.542 310.066L103.267 308.014L108.036 284.791L96.4505 280.011Z"
      fill="#FFB8B8" />
    <path d="M173.462 277.966L171.419 305.28H184.364V280.012L173.462 277.966Z" fill="#FFB8B8" />
    <path
      d="M132.571 105.159V121.557L157.784 125.654L179.595 116.777L175.504 106.529L132.571 105.159Z"
      fill="#FFB8B8" />
    <path
      d="M153.017 118.823L131.206 114.726L125.755 159.119L112.096 214.442C112.096 214.442 91.6516 261.557 94.3771 272.499L95.7368 275.915L94.4082 282.071L108.03 287.526L113.481 278.649C113.481 278.649 117.572 284.792 124.389 271.829C131.206 258.866 159.828 178.256 159.828 178.256L164.596 191.895C163.363 196.108 163.129 200.551 163.913 204.87C165.279 211.689 166.639 232.873 166.639 232.873C166.639 232.873 159.145 269.753 169.364 272.486L171.413 280.682L185.693 282.052L188.418 273.856C188.418 273.856 202.046 269.071 198.638 245.166C195.229 221.261 193.87 142.716 193.87 142.716L180.44 109.537L153.017 118.823Z"
      fill="#2F2E41" />
    <path
      d="M94.408 301.182C94.408 301.182 90.9995 298.455 89.6336 299.137C88.2677 299.818 73.9631 318.262 73.9631 318.262C73.9631 318.262 58.9818 329.873 69.8717 331.237C80.7615 332.601 110.761 317.598 110.761 314.164C110.761 310.729 104.46 302.193 104.46 302.193C104.46 302.193 99.8591 305.968 94.408 301.182Z"
      fill="#2F2E41" />
    <path
      d="M170.052 299.136C170.052 299.136 182.321 298.374 184.363 300.463C186.406 302.552 185.729 312.793 185.729 312.793C185.729 312.793 187.089 331.236 176.187 331.236C165.284 331.236 168.01 318.943 168.01 318.943L170.052 299.136Z"
      fill="#2F2E41" />
    <path
      d="M157.784 45.0569C167.193 45.0569 174.821 37.4131 174.821 27.9839C174.821 18.5548 167.193 10.9109 157.784 10.9109C148.375 10.9109 140.748 18.5548 140.748 27.9839C140.748 37.4131 148.375 45.0569 157.784 45.0569Z"
      fill="#FFB8B8" />
    <path
      d="M146.523 38.5717C146.523 38.5717 156.084 50.2141 136.999 59.0606C117.914 67.907 150.658 104.818 150.658 104.818C150.658 104.818 188.822 90.4788 185.426 62.4764C185.426 62.4764 162.255 58.3786 167.706 39.2537L146.523 38.5717Z"
      fill="#FFB8B8" />
    <path
      d="M136.322 58.3792C136.322 58.3792 120.645 56.3272 119.962 69.3025C119.279 82.2777 119.962 113.702 119.962 113.702C119.962 113.702 113.133 141.023 116.554 164.927C116.554 164.927 112.469 192.93 123.383 191.584C134.298 190.239 126.109 162.894 126.109 162.894L130.877 118.5L128.834 85.7183L137.694 65.9114L136.322 58.3792Z"
      fill="#FFB8B8" />
    <path
      d="M181.427 61.3732C181.427 61.3732 196.29 61.088 196.948 72.0174C197.606 82.9469 192.18 116.411 192.18 116.411L183.997 120.509L176.528 97.3293L181.427 61.3732Z"
      fill="#FFB8B8" />
    <path
      d="M185.73 117.458L184.395 120.887L188.487 131.128C188.487 131.128 172.127 144.103 173.493 146.837C174.859 149.571 182.353 143.421 182.353 143.421L193.255 148.889C193.255 148.889 202.115 139.323 198.029 130.446C195.761 125.673 193.866 120.732 192.361 115.667C192.361 115.667 186.413 115.406 185.73 117.458Z"
      fill="#FFB8B8" />
    <path
      d="M133.255 55.9861L131.206 78.5269C131.206 78.5269 121.688 88.0863 132.572 101.049L131.206 111.297C131.206 111.297 156.425 109.933 161.194 111.297C165.962 112.66 180.67 110.212 180.67 110.212L180.931 102.432C180.931 102.432 187.76 92.866 185.705 78.5269C183.65 64.1878 185.705 59.4019 185.705 59.4019L180.931 58.72C180.931 58.72 177.864 79.5498 156.717 81.6018C156.717 81.6018 130.48 83.9885 137.974 55.9861H133.255Z"
      fill="#448BFF" />
    <path
      d="M159.493 0.322567C159.493 0.322567 141.773 -0.780915 137.682 10.2415C133.59 21.2639 126.438 27.0789 126.438 27.0789C126.438 27.0789 115.163 34.9583 120.801 48.975C120.801 48.975 103.268 60.7537 114.853 71.2926C114.853 71.2926 114.17 81.7819 120.987 88.9607C120.987 88.9607 126.438 91.7256 124.395 93.3809C122.353 95.0361 138.023 93.9326 136.657 79.0232C135.291 64.1138 144.499 53.6059 144.499 53.6059C144.499 53.6059 135.639 34.2826 139.724 27.6555C142.208 23.6321 143.276 20.6316 145.312 18.8958C146.46 17.9567 147.523 16.9196 148.491 15.7961C149.405 14.6348 150.65 13.7767 152.061 13.3341C153.473 12.8916 154.986 12.8854 156.401 13.3164C162.56 14.9592 163.907 19.9249 163.907 19.9249C163.907 19.9249 168.34 31.7966 175.833 37.3202C183.327 42.8438 170.041 52.5024 170.041 52.5024C170.041 52.5024 172.35 63.8782 178.354 70.6107C184.358 77.3432 176.622 83.2201 176.175 83.9765C175.151 85.6999 171.072 96.5797 187.934 96.6231C187.934 96.6231 191.852 88.3904 197.303 83.4247C202.754 78.4591 198.675 64.0952 198.675 64.0952C198.675 64.0952 206.858 59.1357 197.998 46.9788C197.998 46.9788 200.724 35.9378 193.224 28.7589C193.224 28.7589 182.663 -3.54582 159.493 0.322567Z"
      fill="#2F2E41" />
    <path
      d="M139.389 30.3763C140.328 30.3763 141.09 29.1523 141.09 27.6424C141.09 26.1325 140.328 24.9084 139.389 24.9084C138.449 24.9084 137.688 26.1325 137.688 27.6424C137.688 29.1523 138.449 30.3763 139.389 30.3763Z"
      fill="#FFB8B8" />
    <path d="M58.0065 309.372H16.1855V314.214H58.0065V309.372Z" fill="#2F2E41" />
    <path
      d="M58.0064 326.314C60.0157 326.314 61.6446 319.811 61.6446 311.789C61.6446 303.767 60.0157 297.264 58.0064 297.264C55.9971 297.264 54.3682 303.767 54.3682 311.789C54.3682 319.811 55.9971 326.314 58.0064 326.314Z"
      fill="#2F2E41" />
    <path
      d="M16.1861 326.314C18.1954 326.314 19.8243 319.811 19.8243 311.789C19.8243 303.767 18.1954 297.264 16.1861 297.264C14.1767 297.264 12.5479 303.767 12.5479 311.789C12.5479 319.811 14.1767 326.314 16.1861 326.314Z"
      fill="#2F2E41" />
    <path d="M48.0788 309.372H6.25781V314.214H48.0788V309.372Z" fill="#2F2E41" />
    <path
      d="M48.0796 326.314C50.089 326.314 51.7179 319.811 51.7179 311.789C51.7179 303.767 50.089 297.264 48.0796 297.264C46.0703 297.264 44.4414 303.767 44.4414 311.789C44.4414 319.811 46.0703 326.314 48.0796 326.314Z"
      fill="#2F2E41" />
    <path
      d="M6.25834 326.314C8.26768 326.314 9.89657 319.811 9.89657 311.789C9.89657 303.767 8.26768 297.264 6.25834 297.264C4.24901 297.264 2.62012 303.767 2.62012 311.789C2.62012 319.811 4.24901 326.314 6.25834 326.314Z"
      fill="#2F2E41" />
    <path d="M523.868 358.173H482.047V363.015H523.868V358.173Z" fill="#2F2E41" />
    <path
      d="M523.867 375.122C525.876 375.122 527.505 368.619 527.505 360.597C527.505 352.575 525.876 346.072 523.867 346.072C521.857 346.072 520.229 352.575 520.229 360.597C520.229 368.619 521.857 375.122 523.867 375.122Z"
      fill="#2F2E41" />
    <path
      d="M482.046 375.122C484.056 375.122 485.685 368.619 485.685 360.597C485.685 352.575 484.056 346.072 482.046 346.072C480.037 346.072 478.408 352.575 478.408 360.597C478.408 368.619 480.037 375.122 482.046 375.122Z"
      fill="#2F2E41" />
  </g>
  <defs>
    <clipPath id="clip0_458_23781">
      <rect width="548" height="387" fill="white" />
    </clipPath>
  </defs>
</svg>