<svg width="395" height="98" viewBox="0 0 395 98" fill="none" xmlns="http://www.w3.org/2000/svg">
  <path
    d="M0.605469 43.445C0.605469 27.9535 0.605469 20.2078 4.23005 15.7337C6.50587 12.9245 9.65327 10.9542 13.1745 10.1345C18.7825 8.82885 25.7499 12.213 39.6846 18.9813L66.6522 32.0798C69.7519 33.5854 71.7197 36.7289 71.7197 40.1749C71.7197 43.022 70.3724 45.7012 68.0869 47.3991L44.0204 65.2771C28.9828 76.4478 21.4641 82.0332 15.1592 81.3698C11.2247 80.9558 7.57631 79.1211 4.89776 76.2096C0.605469 71.544 0.605469 62.1777 0.605469 43.445Z"
    fill="#448BFF" />
  <path
    d="M41.2432 38.6051C42.3607 38.6051 43.3177 38.2069 44.1141 37.4104C44.9106 36.6139 45.3082 35.6576 45.3068 34.5415C45.3068 33.4239 44.9086 32.467 44.1121 31.6705C43.3156 30.874 42.3593 30.4764 41.2432 30.4778C40.1256 30.4778 39.1687 30.876 38.3722 31.6725C37.5757 32.469 37.1781 33.4253 37.1795 34.5415C37.1795 35.659 37.5777 36.616 38.3742 37.4124C39.1707 38.2089 40.127 38.6065 41.2432 38.6051ZM27.1219 67.0508C27.6637 67.0508 28.1297 66.8646 28.5198 66.4921C28.9099 66.1196 29.1212 65.6624 29.1537 65.1206L30.0681 46.7325L37.1795 44.7006H49.3705C49.9462 44.7006 50.4291 44.5056 50.8192 44.1155C51.2093 43.7254 51.4037 43.2431 51.4023 42.6688C51.4023 42.0931 51.2073 41.6102 50.8172 41.2201C50.4271 40.83 49.9448 40.6356 49.3705 40.637H39.2113L26.5123 31.5445C26.0721 31.2397 25.598 31.1212 25.0901 31.1889C24.5821 31.2567 24.1419 31.4937 23.7694 31.9001C23.3969 32.3742 23.2445 32.8903 23.3122 33.4483C23.3799 34.0064 23.6508 34.4724 24.1249 34.8462L30.7792 39.621H24.9885L10.4608 31.2397C10.0883 31.0027 9.67316 30.9349 9.21532 31.0365C8.75748 31.1381 8.34299 31.409 7.97184 31.8493C7.59934 32.2556 7.44695 32.7216 7.51468 33.2472C7.58241 33.7727 7.83638 34.2042 8.27662 34.5415L23.9725 46.7325L24.8869 65.1206C24.9207 65.6624 25.1409 66.1196 25.5472 66.4921C25.9536 66.8646 26.4785 67.0508 27.1219 67.0508Z"
    fill="#FEFFFF" />
  <path
    d="M108.404 42.2866H104.705V48.5408C107.002 48.4879 108.605 48.3821 109.515 48.2233C111.716 47.8212 112.891 46.9058 113.039 45.4772C113.049 45.3608 113.055 45.2444 113.055 45.128C113.055 44.7893 112.996 44.4772 112.88 44.1914C112.764 43.8951 112.552 43.5935 112.245 43.2866C111.949 42.9797 111.473 42.7363 110.817 42.5564C110.16 42.3765 109.356 42.2866 108.404 42.2866ZM108.658 51.0806C108.573 51.0806 107.255 51.1388 104.705 51.2552V57.7952H108.261C108.684 57.7952 109.044 57.7952 109.34 57.7952C109.647 57.7846 110.065 57.7582 110.594 57.7158C111.123 57.6735 111.578 57.6153 111.959 57.5412C112.34 57.4566 112.758 57.3349 113.213 57.1761C113.668 57.0174 114.034 56.8269 114.309 56.6047C114.594 56.3824 114.833 56.102 115.023 55.7634C115.224 55.4141 115.325 55.0226 115.325 54.5887C115.325 53.4987 114.721 52.6415 113.515 52.0172C112.319 51.3928 110.7 51.0806 108.658 51.0806ZM100.705 38.9214H109.308C110.272 38.9214 111.15 38.9954 111.944 39.1436C112.748 39.2917 113.425 39.4875 113.975 39.7309C114.526 39.9637 115.012 40.2495 115.436 40.5881C115.87 40.9161 116.208 41.2548 116.452 41.604C116.706 41.9426 116.912 42.3077 117.071 42.6993C117.229 43.0803 117.335 43.4295 117.388 43.747C117.441 44.0539 117.468 44.3607 117.468 44.6676C117.468 45.3872 117.272 46.1174 116.88 46.8582C116.489 47.599 115.997 48.2233 115.404 48.7313C116.589 49.2181 117.536 49.98 118.245 51.0171C118.965 52.0436 119.325 53.1707 119.325 54.3982C119.325 54.7474 119.288 55.1073 119.214 55.4776C119.15 55.8374 119.018 56.2555 118.817 56.7317C118.616 57.2079 118.351 57.6629 118.023 58.0968C117.706 58.5201 117.272 58.9434 116.722 59.3667C116.171 59.79 115.536 60.1551 114.817 60.462C114.097 60.7583 113.208 61.0017 112.15 61.1922C111.102 61.3827 109.949 61.4779 108.689 61.4779H100.705V38.9214ZM132.31 38.9214H136.691L145.612 61.4779H141.5L138.976 55.5729H129.77L127.246 61.4779H123.373L132.31 38.9214ZM137.58 51.9061L134.373 43.5406L131.151 51.9061H137.58ZM150.485 38.9214H154.485V57.8111H165.914V61.4779H150.485V38.9214ZM171.089 38.9214H175.089V57.8111H186.518V61.4779H171.089V38.9214ZM191.693 61.4779V38.9214H207.519V42.6041H195.709V48.017H206.646V51.6997H195.709V57.7952H207.519V61.4779H191.693ZM232.155 45.382C232.155 46.1016 232.065 46.7894 231.885 47.4455C231.716 48.0911 231.441 48.7154 231.06 49.3186C230.69 49.9218 230.176 50.4615 229.52 50.9378C228.875 51.414 228.107 51.7844 227.218 52.0489L234.028 61.4779H228.822L222.504 52.7315H218.678V61.4779H214.678V38.9214H224.282C224.758 38.9214 225.192 38.9372 225.583 38.969C225.986 38.9901 226.467 39.0536 227.028 39.1595C227.599 39.2547 228.102 39.387 228.536 39.5563C228.98 39.7256 229.436 39.9743 229.901 40.3024C230.377 40.6304 230.769 41.0167 231.076 41.4611C231.393 41.895 231.653 42.4506 231.854 43.1279C232.055 43.7946 232.155 44.5459 232.155 45.382ZM218.678 42.5882V49.0488H222.361C222.996 49.0488 223.557 49.0276 224.044 48.9853C224.531 48.943 225.033 48.8583 225.552 48.7313C226.07 48.5937 226.494 48.4085 226.822 48.1757C227.16 47.9429 227.435 47.6201 227.647 47.2074C227.869 46.7947 227.98 46.3079 227.98 45.747C227.98 43.6411 226.356 42.5882 223.107 42.5882H218.678ZM240.584 38.9214H244.584V61.4779H240.584V38.9214ZM252.997 38.9214H257.41L269.998 56.2555V38.9214H273.998V61.4779H269.538L256.998 44.1121V61.4779H252.997V38.9214ZM288.348 38.9214H292.729L301.65 61.4779H297.539L295.015 55.5729H285.808L283.284 61.4779H279.411L288.348 38.9214ZM293.618 51.9061L290.412 43.5406L287.189 51.9061H293.618ZM336.287 58.2079C334.096 60.5996 330.964 61.7954 326.89 61.7954C325.154 61.7954 323.567 61.5731 322.127 61.1287C320.699 60.6736 319.503 60.0757 318.54 59.335C317.577 58.5836 316.762 57.7053 316.095 56.6999C315.439 55.6946 314.963 54.6522 314.667 53.5728C314.37 52.4828 314.222 51.3663 314.222 50.2234C314.222 49.0276 314.386 47.8741 314.714 46.763C315.042 45.6518 315.55 44.6094 316.238 43.6358C316.937 42.6623 317.773 41.8157 318.746 41.0961C319.731 40.3659 320.916 39.7944 322.302 39.3817C323.688 38.9584 325.202 38.7467 326.842 38.7467C329.837 38.7467 332.53 39.4134 334.922 40.7468L335.477 41.0643L333.81 44.2073L333.239 43.9057C332.488 43.5247 331.546 43.1861 330.414 42.8898C329.281 42.5829 328.144 42.4294 327.001 42.4294C325.879 42.4294 324.794 42.6041 323.747 42.9533C322.699 43.3025 321.762 43.7946 320.937 44.4295C320.122 45.0645 319.466 45.874 318.969 46.8582C318.482 47.8318 318.238 48.9006 318.238 50.0647C318.238 51.5992 318.641 52.9802 319.445 54.2077C320.249 55.4353 321.36 56.393 322.778 57.0809C324.207 57.7582 325.81 58.0968 327.588 58.0968C329.535 58.0968 331.128 57.6576 332.366 56.7793V52.4458H325.302V48.9218H336.287V58.2079ZM340.271 38.9214H345.001L351.033 47.6678L357.192 38.9214H361.764L353.113 50.9378V61.4779H348.621V50.9378L340.271 38.9214ZM365.955 38.9214H370.812L378.305 51.8743L385.908 38.9214H390.527V61.4779H386.527V44.6041L380.114 55.0173H376.336L369.955 44.6041V61.4779H365.955V38.9214Z"
    fill="#2F2F2F" />
</svg>