<svg width="100" height="82" viewBox="0 0 100 82" fill="none" xmlns="http://www.w3.org/2000/svg">
<g clip-path="url(#clip0_803_15540)">
<path d="M75.4354 47.1973C75.7523 51.3718 75.6765 55.2737 74.9199 58.6967L86.0653 58.6898L91.1095 55.1829C89.7313 50.5625 88.7941 49.7738 89.8305 46.5573L75.4354 47.1973Z" fill="#FFB6B6"/>
<path d="M75.5739 46.9757C75.8909 49.7023 74.7111 51.1488 73.9531 53.3854C76.1582 51.976 79.9386 52.0476 82.4979 52.6064L90.4914 54.3488C89.1132 51.3305 88.9327 48.659 89.969 46.5573L75.5739 46.9702V46.9757Z" fill="#3F3D56"/>
<path d="M90.8569 53.8837L94.5435 62.9786C95.7373 65.9265 96.2276 69.1115 95.9755 72.2814L95.2037 81.9997H84.1313C84.1313 81.9997 83.5676 79.62 83.9935 79.7535C84.4194 79.8871 83.4422 79.2429 83.926 78.669C84.4097 78.095 83.7565 75.9479 83.7565 75.9479C83.7565 75.9479 83.0508 78.4075 82.0254 82.0039H69.8574C70.8828 75.3754 71.9771 67.4146 71.4024 66.8641C70.4087 65.9199 71.4368 66.2117 72.4677 65.2936C73.4986 64.3756 73.1968 63.6558 72.6538 63.1204C72.1108 62.585 72.8757 62.3772 73.3566 61.8982C73.8376 61.4192 75.0339 55.6276 75.0339 55.6276C75.0339 55.6276 75.4474 55.6647 75.4474 55.6688C75.723 55.9441 77.4168 56.4947 81.3736 56.4947C84.819 56.4947 90.0699 54.2925 90.7218 53.9581L90.8514 53.8906L90.8569 53.8837Z" fill="#2F2E41"/>
<path d="M11.7041 0.14563C11.4117 0.14563 11.1313 0.261668 10.9245 0.468216C10.7177 0.674765 10.6016 0.954905 10.6016 1.24701C10.6016 1.53911 10.7177 1.81925 10.9245 2.0258C11.1313 2.23235 11.4117 2.34839 11.7041 2.34839H36.5473C36.8398 2.34839 37.1202 2.23235 37.327 2.0258C37.5337 1.81925 37.6499 1.53911 37.6499 1.24701C37.6499 0.954905 37.5337 0.674765 37.327 0.468216C37.1202 0.261668 36.8398 0.14563 36.5473 0.14563H11.7041Z" fill="#F2F2F2"/>
<path d="M11.7041 22.0214C11.4117 22.0214 11.1313 22.1375 10.9245 22.344C10.7177 22.5506 10.6016 22.8307 10.6016 23.1228C10.6016 23.4149 10.7177 23.695 10.9245 23.9016C11.1313 24.1081 11.4117 24.2242 11.7041 24.2242H36.5473C36.8398 24.2242 37.1202 24.1081 37.327 23.9016C37.5337 23.695 37.6499 23.4149 37.6499 23.1228C37.6499 22.8307 37.5337 22.5506 37.327 22.344C37.1202 22.1375 36.8398 22.0214 36.5473 22.0214H11.7041Z" fill="#F2F2F2"/>
<path d="M16.4014 7.43878C16.109 7.43878 15.8285 7.55482 15.6218 7.76137C15.415 7.96792 15.2988 8.24806 15.2988 8.54016C15.2988 8.83226 15.415 9.11241 15.6218 9.31895C15.8285 9.5255 16.109 9.64154 16.4014 9.64154H57.9675C58.26 9.64154 58.5404 9.5255 58.7472 9.31895C58.9539 9.11241 59.0701 8.83226 59.0701 8.54016C59.0701 8.24806 58.9539 7.96792 58.7472 7.76137C58.5404 7.55482 58.26 7.43878 57.9675 7.43878H16.4014Z" fill="#F2F2F2"/>
<path d="M16.4014 14.7265C16.109 14.7265 15.8285 14.8425 15.6218 15.0491C15.415 15.2556 15.2988 15.5358 15.2988 15.8279C15.2988 16.12 15.415 16.4001 15.6218 16.6067C15.8285 16.8132 16.109 16.9293 16.4014 16.9293H57.9675C58.26 16.9293 58.5404 16.8132 58.7472 16.6067C58.9539 16.4001 59.0701 16.12 59.0701 15.8279C59.0701 15.5358 58.9539 15.2556 58.7472 15.0491C58.5404 14.8425 58.26 14.7265 57.9675 14.7265H16.4014Z" fill="#F2F2F2"/>
<path d="M5.25269 2.07571C5.70939 2.07571 6.07961 1.70589 6.07961 1.24968C6.07961 0.793473 5.70939 0.423645 5.25269 0.423645C4.796 0.423645 4.42578 0.793473 4.42578 1.24968C4.42578 1.70589 4.796 2.07571 5.25269 2.07571Z" fill="#F2F2F2"/>
<path d="M5.25269 23.9554C5.70939 23.9554 6.07961 23.5855 6.07961 23.1293C6.07961 22.6731 5.70939 22.3033 5.25269 22.3033C4.796 22.3033 4.42578 22.6731 4.42578 23.1293C4.42578 23.5855 4.796 23.9554 5.25269 23.9554Z" fill="#F2F2F2"/>
<path d="M10.3523 9.36899C10.809 9.36899 11.1792 8.99916 11.1792 8.54295C11.1792 8.08675 10.809 7.71692 10.3523 7.71692C9.89561 7.71692 9.52539 8.08675 9.52539 8.54295C9.52539 8.99916 9.89561 9.36899 10.3523 9.36899Z" fill="#F2F2F2"/>
<path d="M10.3523 16.6623C10.809 16.6623 11.1792 16.2925 11.1792 15.8363C11.1792 15.3801 10.809 15.0103 10.3523 15.0103C9.89561 15.0103 9.52539 15.3801 9.52539 15.8363C9.52539 16.2925 9.89561 16.6623 10.3523 16.6623Z" fill="#F2F2F2"/>
<path d="M1.7479 2.08692L1.413 2.04975C1.44273 1.93942 1.46483 1.82719 1.47916 1.71383C1.56302 1.21359 1.58339 0.704774 1.5398 0.199436C1.53778 0.159534 1.52437 0.121044 1.50115 0.0885125C1.47793 0.0559815 1.44588 0.0307698 1.40877 0.0158569C1.37167 0.000944034 1.33106 -0.00304671 1.29176 0.00435629C1.25246 0.0117593 1.2161 0.0302466 1.18698 0.0576335L0.464809 0.711577C0.274618 0.890551 0.561282 1.18242 0.756985 1.00344L1.14701 0.651002C1.15081 0.880856 1.14069 1.11073 1.11669 1.33936C1.09817 1.52032 1.06918 1.70005 1.02987 1.87766C1.02247 1.92241 1.00902 1.96594 0.989898 2.00707L0.814868 1.9878C0.619166 1.9644 0.566794 2.21634 0.66878 2.34024C0.722946 2.3978 0.79356 2.43728 0.871001 2.45329C0.948442 2.46931 1.02894 2.46108 1.10153 2.42973L1.74515 2.49994C1.79997 2.49994 1.85256 2.47818 1.89132 2.43946C1.93009 2.40073 1.95187 2.3482 1.95187 2.29343C1.95187 2.23866 1.93009 2.18614 1.89132 2.14741C1.85256 2.10868 1.79997 2.08692 1.74515 2.08692H1.7479ZM0.945796 2.04838H0.936149C0.936149 2.04838 0.940284 2.04562 0.945796 2.04838Z" fill="#F2F2F2"/>
<path d="M1.85611 9.46552L1.28416 9.42008C1.65137 9.09681 1.88802 8.65092 1.94982 8.16589C1.9829 7.81758 1.83406 7.42659 1.50053 7.2724C1.42235 7.23212 1.33655 7.20877 1.24872 7.20386C1.16089 7.19895 1.07301 7.21259 0.990821 7.2439C0.908629 7.27521 0.833969 7.32348 0.771713 7.38556C0.709457 7.44764 0.661005 7.52214 0.629518 7.60419C0.599696 7.69315 0.594638 7.78854 0.614884 7.88015C0.63513 7.97176 0.67992 8.05615 0.744465 8.12431C0.809009 8.19246 0.890882 8.24181 0.98133 8.26708C1.07178 8.29234 1.1674 8.29258 1.25797 8.26777C1.51018 8.18792 1.39579 7.79004 1.14772 7.86989C1.13264 7.87556 1.11643 7.87758 1.10042 7.87579C1.08441 7.874 1.06905 7.86844 1.05561 7.85958C1.04216 7.85071 1.03101 7.83879 1.02306 7.82479C1.01512 7.81079 1.01061 7.79511 1.0099 7.77903C1.01271 7.74102 1.02759 7.7049 1.05238 7.67593C1.07717 7.64696 1.11057 7.62664 1.14772 7.61795C1.43162 7.55325 1.54601 7.91533 1.53223 8.12596C1.49502 8.67665 1.054 9.15988 0.593685 9.40219C0.397983 9.50406 0.506859 9.77115 0.697049 9.78629L1.84922 9.87853C1.90404 9.87853 1.95663 9.85678 1.99539 9.81805C2.03416 9.77932 2.05594 9.72679 2.05594 9.67202C2.05455 9.61769 2.03232 9.56597 1.99385 9.52754C1.95538 9.48911 1.9036 9.46691 1.84922 9.46552H1.85611Z" fill="#F2F2F2"/>
<path d="M1.93843 15.6904C2.01704 15.5988 2.07014 15.4881 2.09239 15.3694C2.11464 15.2508 2.10528 15.1284 2.06522 15.0145C2.01825 14.8886 1.94039 14.7765 1.83877 14.6884C1.73716 14.6004 1.61504 14.5392 1.48363 14.5106C1.20122 14.4545 0.908078 14.5119 0.667739 14.6703C0.441716 14.808 0.649822 15.1673 0.877224 15.0269C1.10462 14.8864 1.4726 14.8149 1.64487 15.0847C1.6782 15.1323 1.69607 15.189 1.69607 15.2471C1.69607 15.3053 1.6782 15.362 1.64487 15.4096C1.62436 15.4311 1.59945 15.448 1.57183 15.4592C1.4779 15.4292 1.3796 15.4152 1.28103 15.4179C1.23633 15.419 1.19321 15.4346 1.15804 15.4622C1.12287 15.4898 1.09754 15.5279 1.08578 15.571C1.07403 15.6141 1.07649 15.6599 1.09279 15.7015C1.10909 15.743 1.13837 15.7783 1.17629 15.802C1.28192 15.8681 1.40627 15.8981 1.53049 15.8873C1.63612 15.9403 1.71798 16.031 1.75984 16.1414C1.8017 16.2518 1.80051 16.3739 1.75651 16.4834C1.72631 16.5575 1.67803 16.6228 1.61607 16.6735C1.55412 16.7241 1.48047 16.7585 1.40182 16.7734C1.32317 16.7883 1.24204 16.7833 1.16582 16.7589C1.08959 16.7344 1.0207 16.6913 0.965428 16.6335C0.775238 16.4476 0.481683 16.7395 0.673252 16.9267C0.781105 17.031 0.912776 17.1074 1.05686 17.1494C1.20095 17.1914 1.35311 17.1977 1.50016 17.1677C1.65377 17.1336 1.79544 17.0591 1.9105 16.9518C2.02556 16.8446 2.10982 16.7086 2.15453 16.5579C2.19924 16.4072 2.20278 16.2473 2.16478 16.0948C2.12678 15.9422 2.04863 15.8026 1.93843 15.6904Z" fill="#F2F2F2"/>
<path d="M2.03025 23.0402L2.15015 21.8838C2.14979 21.8291 2.12789 21.7768 2.0892 21.7381C2.05051 21.6995 1.99814 21.6776 1.94342 21.6772C1.88893 21.6783 1.83696 21.7004 1.79841 21.7389C1.75987 21.7774 1.73775 21.8293 1.73669 21.8838L1.61817 23.0278L0.466004 23.0388L0.515619 22.9507C0.54456 22.9012 0.572124 22.8516 0.599688 22.802L0.964908 22.1481C0.978663 22.1247 0.987667 22.0988 0.991406 22.0719C0.995144 22.045 0.993545 22.0176 0.986698 21.9914C0.979851 21.9651 0.967891 21.9404 0.951501 21.9188C0.935112 21.8971 0.914613 21.8789 0.891175 21.8652C0.867737 21.8514 0.84182 21.8424 0.814902 21.8387C0.787985 21.835 0.760595 21.8366 0.734295 21.8434C0.707996 21.8502 0.683303 21.8622 0.661626 21.8786C0.639949 21.8949 0.621712 21.9154 0.607957 21.9388C0.470138 22.1908 0.32405 22.4413 0.183475 22.6933C0.0936784 22.8123 0.031108 22.9495 0.000175936 23.0953C-0.00225028 23.1699 0.020476 23.2431 0.0647101 23.3033C0.108944 23.3635 0.172123 23.4071 0.244115 23.4271C0.368122 23.4536 0.495477 23.4611 0.621739 23.4491H1.05173H1.57545C1.54329 23.7602 1.51113 24.0723 1.47897 24.3853C1.47933 24.4399 1.50123 24.4922 1.53992 24.5309C1.57861 24.5695 1.63098 24.5914 1.6857 24.5918C1.7402 24.5907 1.79217 24.5686 1.83071 24.5301C1.86925 24.4916 1.89137 24.4397 1.89243 24.3853C1.92551 24.07 1.9572 23.7561 1.99028 23.4408C2.03384 23.4311 2.07323 23.4079 2.10283 23.3745C2.13244 23.3412 2.15076 23.2993 2.15518 23.2549C2.15961 23.2106 2.14992 23.1659 2.12749 23.1274C2.10506 23.0888 2.07103 23.0583 2.03025 23.0402ZM0.376421 23.0402C0.357127 23.0402 0.359883 23.0292 0.376421 23.0402V23.0402Z" fill="#F2F2F2"/>
<path d="M98.2971 48.1953L94.4465 33.9639C94.2819 33.3603 93.8859 32.8458 93.3442 32.5318C92.8025 32.2177 92.1587 32.1295 91.5523 32.2861C91.2389 32.3666 90.9452 32.5099 90.6891 32.7073C90.4329 32.9048 90.2197 33.1522 90.0624 33.4346C89.9051 33.717 89.807 34.0284 89.7741 34.3498C89.7412 34.6713 89.7741 34.9961 89.8709 35.3044L94.328 49.9611L96.6585 58.9831C96.3605 59.2109 96.13 59.515 95.9912 59.8632C95.8525 60.2113 95.8108 60.5905 95.8705 60.9604C95.9303 61.3304 96.0893 61.6772 96.3306 61.9641C96.572 62.2511 96.8866 62.4673 97.2412 62.59C97.5957 62.7126 97.9769 62.7371 98.3443 62.6607C98.7116 62.5843 99.0514 62.41 99.3274 62.1562C99.6035 61.9025 99.8056 61.5788 99.9123 61.2195C100.019 60.8602 100.026 60.4788 99.933 60.1158C99.8339 59.7254 99.6221 59.3727 99.3239 59.1015L98.2971 48.1925V48.1953Z" fill="#FFB6B6"/>
<path d="M65.9006 45.1301L77.5986 36.1398C78.0913 35.7573 78.4142 35.1971 78.4979 34.5796C78.5817 33.962 78.4196 33.3362 78.0465 32.8366C77.8525 32.5781 77.6078 32.3617 77.3274 32.2007C77.0469 32.0397 76.7365 31.9374 76.4152 31.9C76.0939 31.8627 75.7683 31.8911 75.4583 31.9835C75.1483 32.0759 74.8604 32.2303 74.6121 32.4375L62.7473 42.1435L55.2885 47.7411C54.9197 47.5275 54.494 47.4325 54.0692 47.4689C53.6444 47.5054 53.2412 47.6714 52.9142 47.9446C52.5872 48.2178 52.3523 48.5849 52.2414 48.996C52.1305 49.4071 52.149 49.8423 52.2943 50.2426C52.4397 50.6429 52.7048 50.9888 53.0538 51.2333C53.4028 51.4779 53.8187 51.6093 54.245 51.6096C54.6714 51.61 55.0875 51.4794 55.4369 51.2354C55.7863 50.9915 56.0521 50.646 56.1981 50.246L65.9006 45.1301Z" fill="#FFB6B6"/>
<path d="M85.3893 26.1131H79.9951L77.6783 30.0715L76.5758 30.0109C76.0358 29.9807 75.4953 30.0609 74.9874 30.2467C74.4795 30.4325 74.015 30.7199 73.6223 31.0913C73.2406 31.4533 73.6223 32.3947 72.7141 32.3782C71.6308 32.3576 70.2967 34.5116 70.6468 35.6305V41.6865C72.3792 41.6232 73.8483 38.8416 73.8166 36.594C73.8166 36.594 71.3083 40.3101 74.8117 42.398C74.8117 42.398 74.1874 49.3513 74.8117 49.3087C75.436 49.266 75.7461 49.6693 74.904 50.0189C73.388 50.6492 75.3451 51.4104 75.5311 51.5975L75.7185 51.7833C77.648 47.8676 84.9524 53.4859 90.9792 54.993C91.6683 54.4755 91.944 53.3276 90.7036 52.3518C89.5363 51.4338 91.1515 49.4257 91.5843 49.7436C92.017 50.0615 89.8367 47.357 90.1564 46.0784C90.4762 44.7998 90.9558 45.2801 90.4762 44.8011C89.9966 44.3222 92.5076 41.8613 91.0275 39.5586L92.2003 44.2726C91.4051 44.4171 91.3444 44.6952 91.587 45.265C91.6725 45.4618 92.1204 45.5306 92.13 46.366C92.1397 47.2015 92.6523 46.066 92.396 46.5629C92.1397 47.0597 92.6716 46.7156 92.8274 46.7831C94.7706 47.4148 96.3638 46.8395 97.7889 45.682C97.8826 45.4219 98.7729 44.4887 98.1431 44.742C97.5132 44.9952 97.5284 44.4777 98.2106 44.3924C98.8928 44.307 98.1238 43.9588 98.081 43.7207C97.9997 43.2803 97.7889 42.8357 97.0998 43.0669C96.7318 40.7547 96.492 37.3936 95.293 36.2595C95.293 35.6705 94.6425 31.9929 93.7962 32.1305C92.95 32.2681 93.3456 31.6419 93.0713 31.4217C91.8309 30.4293 90.0255 29.7838 88.6983 29.7838H88.4144L85.3824 26.1172L85.3893 26.1131Z" fill="#448BFF"/>
<path d="M86.9831 23.7898C83.0718 24.8138 79.0144 25.2377 77.3564 27.4619C77.3564 27.4619 79.3548 23.7141 77.304 23.7306C73.8586 23.7581 77.6624 17.4076 78.9441 16.6438C81.0803 15.3693 86.1313 16.2309 86.1313 16.2309L88.6589 19.3923L86.9831 23.7898Z" fill="#2F2E41"/>
<path d="M82.8024 24.8069C85.8721 24.8069 88.3606 22.3218 88.3606 19.2561C88.3606 16.1905 85.8721 13.7053 82.8024 13.7053C79.7326 13.7053 77.2441 16.1905 77.2441 19.2561C77.2441 22.3218 79.7326 24.8069 82.8024 24.8069Z" fill="#FFB6B6"/>
<path d="M85.4659 18.0629L85.3102 19.0112L81.5312 18.3629C81.6008 18.1865 81.6332 17.9977 81.6264 17.8082C81.6195 17.6187 81.5735 17.4327 81.4912 17.2618C81.424 17.6319 81.2685 17.9803 81.0378 18.2776C78.7417 18.5528 78.6949 18.9657 77.3002 18.0725C77.0771 18.0338 76.8785 17.9083 76.748 17.7236C76.6175 17.5388 76.5658 17.3099 76.6042 17.087C77.1031 14.1802 78.0347 11.3834 80.9551 11.8225C81.6654 11.9287 82.3472 12.1754 82.9607 12.5483C83.5742 12.9212 84.1069 13.4127 84.5276 13.994C84.9483 14.5753 85.2485 15.2346 85.4105 15.9333C85.5726 16.6321 85.5933 17.3561 85.4714 18.0629H85.4659Z" fill="#2F2E41"/>
<path d="M83.1825 21.1679C83.4319 19.7171 83.0939 18.2268 82.2431 17.0248C81.3923 15.8228 80.0982 15.0075 78.6455 14.7583C78.2815 14.6961 77.9122 14.6698 77.543 14.6798C78.0767 14.073 78.8098 13.6762 79.6103 13.5609L84.2065 13.4879C86.3041 13.8485 89.8571 13.8705 90.7446 15.6295C91.5715 17.2481 90.0555 19.1199 90.7446 20.8004C91.4875 22.642 90.9527 24.2331 90.2182 24.9708C89.3678 25.8241 87.9386 26.877 86.7575 26.7421C86.8535 26.3576 86.8106 25.9516 86.6363 25.5956C86.5702 25.9719 86.4296 26.3313 86.2228 26.6527L77.7235 29.0874C78.5353 28.8122 79.5978 27.6932 80.5736 26.3347C81.1511 25.5309 82.5169 25.7319 82.1434 23.805C81.7699 21.8781 83.0819 21.8189 83.1949 21.1652L83.1825 21.1679Z" fill="#2F2E41"/>
<path d="M67.5478 49.9005H32.6796C31.8389 49.9005 31.0326 49.567 30.4382 48.9733C29.8437 48.3796 29.5098 47.5745 29.5098 46.7349V21.823C29.5098 20.9834 29.8437 20.1783 30.4382 19.5846C31.0326 18.9909 31.8389 18.6574 32.6796 18.6574H67.5478C68.3885 18.6574 69.1947 18.9909 69.7892 19.5846C70.3836 20.1783 70.7176 20.9834 70.7176 21.823V46.7349C70.7176 47.5745 70.3836 48.3796 69.7892 48.9733C69.1947 49.567 68.3885 49.9005 67.5478 49.9005Z" fill="white"/>
<path d="M67.5478 49.9005H32.6796C31.8389 49.9005 31.0326 49.567 30.4382 48.9733C29.8437 48.3796 29.5098 47.5745 29.5098 46.7349V21.823C29.5098 20.9834 29.8437 20.1783 30.4382 19.5846C31.0326 18.9909 31.8389 18.6574 32.6796 18.6574H67.5478C68.3885 18.6574 69.1947 18.9909 69.7892 19.5846C70.3836 20.1783 70.7176 20.9834 70.7176 21.823V46.7349C70.7176 47.5745 70.3836 48.3796 69.7892 48.9733C69.1947 49.567 68.3885 49.9005 67.5478 49.9005ZM48.3744 18.9327C45.9333 18.9325 43.5161 19.4125 41.2608 20.3453C39.0055 21.2781 36.9562 22.6454 35.2301 24.3691C33.5039 26.0928 32.1346 28.1392 31.2004 30.3915C30.2662 32.6437 29.7854 35.0577 29.7854 37.4955V46.7349C29.7854 47.5014 30.0903 48.2366 30.6331 48.7787C31.1759 49.3207 31.912 49.6252 32.6796 49.6252H67.5478C68.3154 49.6252 69.0515 49.3207 69.5943 48.7787C70.137 48.2366 70.442 47.5014 70.442 46.7349V21.823C70.442 21.0564 70.137 20.3213 69.5943 19.7792C69.0515 19.2372 68.3154 18.9327 67.5478 18.9327H48.3744Z" fill="#3F3D56"/>
<path d="M41.484 40.7784H35.9712C35.825 40.7784 35.6848 40.7204 35.5814 40.6171C35.478 40.5138 35.4199 40.3737 35.4199 40.2277C35.4199 40.0816 35.478 39.9416 35.5814 39.8383C35.6848 39.735 35.825 39.677 35.9712 39.677H41.484C41.6302 39.677 41.7704 39.735 41.8738 39.8383C41.9771 39.9416 42.0352 40.0816 42.0352 40.2277C42.0352 40.3737 41.9771 40.5138 41.8738 40.6171C41.7704 40.7204 41.6302 40.7784 41.484 40.7784Z" fill="#CCCCCC"/>
<path d="M53.4742 44.8084H35.9712C35.825 44.8084 35.6848 44.7504 35.5814 44.6471C35.478 44.5438 35.4199 44.4038 35.4199 44.2577C35.4199 44.1117 35.478 43.9716 35.5814 43.8683C35.6848 43.765 35.825 43.707 35.9712 43.707H53.4742C53.6204 43.707 53.7606 43.765 53.864 43.8683C53.9674 43.9716 54.0255 44.1117 54.0255 44.2577C54.0255 44.4038 53.9674 44.5438 53.864 44.6471C53.7606 44.7504 53.6204 44.8084 53.4742 44.8084Z" fill="#CCCCCC"/>
<path d="M56.124 41.0918C60.9193 41.0918 64.8066 37.2097 64.8066 32.4208C64.8066 27.6319 60.9193 23.7498 56.124 23.7498C51.3287 23.7498 47.4414 27.6319 47.4414 32.4208C47.4414 37.2097 51.3287 41.0918 56.124 41.0918Z" fill="#448BFF"/>
<path d="M54.3373 29.1096C54.1681 29.1103 54.006 29.1779 53.8864 29.2975C53.7669 29.4171 53.6996 29.5792 53.6992 29.7482V35.0967C53.6992 35.2058 53.7273 35.3131 53.7808 35.4083C53.8342 35.5034 53.9113 35.5833 54.0045 35.6402C54.0977 35.6971 54.2041 35.7292 54.3132 35.7333C54.4224 35.7374 54.5309 35.7135 54.6281 35.6637L59.8542 32.9909C59.9586 32.9372 60.0462 32.8558 60.1074 32.7556C60.1685 32.6555 60.2009 32.5404 60.2009 32.4231C60.2009 32.3058 60.1685 32.1908 60.1074 32.0906C60.0462 31.9905 59.9586 31.9091 59.8542 31.8554L54.6281 29.1784C54.5384 29.1314 54.4386 29.1068 54.3373 29.1068V29.1096Z" fill="white"/>
</g>
<defs>
<clipPath id="clip0_803_15540">
<rect width="100" height="82" fill="white"/>
</clipPath>
</defs>
</svg>
