<svg width="40" height="40" viewBox="0 0 40 40" fill="none" xmlns="http://www.w3.org/2000/svg">
<path d="M12.3327 11.6667H7.66602C7.4008 11.6667 7.14645 11.772 6.95891 11.9596C6.77137 12.1471 6.66602 12.4015 6.66602 12.6667V27.3334C6.66602 27.4647 6.69188 27.5947 6.74214 27.716C6.79239 27.8374 6.86605 27.9476 6.95891 28.0405C7.05177 28.1333 7.16201 28.207 7.28333 28.2572C7.40466 28.3075 7.53469 28.3334 7.66602 28.3334H12.3327C12.464 28.3334 12.594 28.3075 12.7154 28.2572C12.8367 28.207 12.9469 28.1333 13.0398 28.0405C13.1326 27.9476 13.2063 27.8374 13.2566 27.716C13.3068 27.5947 13.3327 27.4647 13.3327 27.3334V12.6667C13.3327 12.4015 13.2273 12.1471 13.0398 11.9596C12.8523 11.772 12.5979 11.6667 12.3327 11.6667ZM32.3327 11.6667H27.666C27.4008 11.6667 27.1464 11.772 26.9589 11.9596C26.7714 12.1471 26.666 12.4015 26.666 12.6667V27.3334C26.666 27.4647 26.6919 27.5947 26.7421 27.716C26.7924 27.8374 26.866 27.9476 26.9589 28.0405C27.0518 28.1333 27.162 28.207 27.2833 28.2572C27.4047 28.3075 27.5347 28.3334 27.666 28.3334H32.3327C32.464 28.3334 32.594 28.3075 32.7154 28.2572C32.8367 28.207 32.9469 28.1333 33.0398 28.0405C33.1326 27.9476 33.2063 27.8374 33.2566 27.716C33.3068 27.5947 33.3327 27.4647 33.3327 27.3334V12.6667C33.3327 12.4015 33.2273 12.1471 33.0398 11.9596C32.8523 11.772 32.5979 11.6667 32.3327 11.6667Z" stroke="#0C6741" stroke-width="2" stroke-linecap="round" stroke-linejoin="round"/>
<path d="M13.3327 20H26.666M1.66602 24V16C1.66602 15.7348 1.77137 15.4804 1.95891 15.2929C2.14645 15.1054 2.4008 15 2.66602 15H5.66602C5.93123 15 6.18559 15.1054 6.37312 15.2929C6.56066 15.4804 6.66602 15.7348 6.66602 16V24C6.66602 24.2652 6.56066 24.5196 6.37312 24.7071C6.18559 24.8946 5.93123 25 5.66602 25H2.66602C2.4008 25 2.14645 24.8946 1.95891 24.7071C1.77137 24.5196 1.66602 24.2652 1.66602 24ZM38.3327 24V16C38.3327 15.7348 38.2273 15.4804 38.0398 15.2929C37.8523 15.1054 37.5979 15 37.3327 15H34.3327C34.0675 15 33.8131 15.1054 33.6256 15.2929C33.438 15.4804 33.3327 15.7348 33.3327 16V24C33.3327 24.2652 33.438 24.5196 33.6256 24.7071C33.8131 24.8946 34.0675 25 34.3327 25H37.3327C37.5979 25 37.8523 24.8946 38.0398 24.7071C38.2273 24.5196 38.3327 24.2652 38.3327 24Z" stroke="#0C6741" stroke-width="2" stroke-linecap="round" stroke-linejoin="round"/>
</svg>
