<svg width="124" height="118" viewBox="0 0 124 118" fill="none" xmlns="http://www.w3.org/2000/svg">
<g clip-path="url(#clip0_803_16567)">
<path d="M61.744 25.325C40.9026 25.325 24.0078 40.8987 24.0078 60.1095C24.0078 79.3203 40.9026 94.894 61.744 94.894C65.2626 94.894 67.2929 94.8485 69.7297 94.4937C71.1166 94.2933 72.5314 94.5302 73.7775 95.1715C75.0237 95.8127 76.0394 96.8264 76.6834 98.0718L79.2075 102.944L82.3925 96.4811C84.2502 92.6985 86.7492 89.2669 89.7784 86.3389C95.5753 80.7508 98.0877 76.4915 99.7881 66.4254C100.187 64.0639 100.134 61.7951 100.134 60.1942C100.132 40.9818 82.5853 25.325 61.744 25.325ZM48.3699 60.7489C48.2093 63.3092 46.1318 65.3861 43.5751 65.5475C42.8454 65.5947 42.1141 65.4857 41.43 65.2277C40.7458 64.9697 40.1245 64.5686 39.6075 64.0512C39.0905 63.5338 38.6897 62.912 38.4319 62.2273C38.1741 61.5426 38.0651 60.8107 38.1123 60.0805C38.273 57.5213 40.3488 55.4444 42.9072 55.2815C43.6369 55.2342 44.3682 55.3432 45.0524 55.6013C45.7367 55.8593 46.358 56.2605 46.875 56.7779C47.392 57.2954 47.7928 57.9172 48.0506 58.602C48.3084 59.2868 48.4172 60.0187 48.3699 60.7489ZM67.1997 60.7489C67.0391 63.3092 64.9616 65.3861 62.4049 65.5475C61.6752 65.5947 60.9439 65.4857 60.2598 65.2277C59.5756 64.9697 58.9543 64.5686 58.4373 64.0512C57.9203 63.5338 57.5195 62.912 57.2617 62.2273C57.0038 61.5426 56.8949 60.8107 56.9421 60.0805C57.1028 57.5213 59.1786 55.4444 61.737 55.2815C62.4667 55.2342 63.198 55.3432 63.8822 55.6013C64.5664 55.8593 65.1878 56.2605 65.7048 56.7779C66.2218 57.2954 66.6226 57.9172 66.8804 58.602C67.1382 59.2868 67.247 60.0187 67.1997 60.7489ZM86.0295 60.7489C85.8688 63.3092 83.7914 65.3861 81.2346 65.5475C80.505 65.5947 79.7737 65.4857 79.0895 65.2277C78.4054 64.9697 77.7841 64.5686 77.2671 64.0512C76.7501 63.5338 76.3493 62.912 76.0914 62.2273C75.8336 61.5426 75.7247 60.8107 75.7719 60.0805C75.9326 57.5213 78.0084 55.4444 80.5668 55.2815C81.2964 55.2342 82.0278 55.3432 82.712 55.6013C83.3962 55.8593 84.0176 56.2605 84.5346 56.7779C85.0516 57.2954 85.4524 57.9172 85.7101 58.602C85.9679 59.2868 86.0768 60.0187 86.0295 60.7489Z" fill="#448BFF"/>
<path d="M0 59.3273C0 64.9593 3.23907 69.8323 7.95522 72.1906V46.4683C3.23907 48.8201 0 53.6953 0 59.3273Z" fill="#448BFF"/>
<path d="M116.045 46.4683V72.1906C120.761 69.8366 124 64.9614 124 59.3273C124 53.6932 120.761 48.8201 116.045 46.4683Z" fill="#448BFF"/>
<path d="M116.044 44.6164C116.044 43.3876 115.636 42.1938 114.883 41.2226C114.131 40.2514 113.078 39.558 111.889 39.2513C111.09 37.2464 110.197 35.2925 109.211 33.3894C107.944 30.9469 106.518 28.5901 104.942 26.3344C105.346 25.4463 105.491 24.4623 105.361 23.4953C105.232 22.5284 104.832 21.6176 104.209 20.8675C103.768 20.3315 103.313 19.7956 102.856 19.2783C91.9171 6.84703 77.3166 0 61.7425 0C46.1684 0 31.5701 6.84703 20.6302 19.2794C20.1734 19.7977 19.7197 20.3321 19.2774 20.8675C18.6539 21.6176 18.2544 22.5283 18.1245 23.4953C17.9946 24.4622 18.1397 25.4462 18.5431 26.3344C16.9668 28.5906 15.5403 30.9478 14.2726 33.391C13.2536 35.3588 12.3362 37.3776 11.5241 39.4394C10.4748 39.8388 9.57163 40.5478 8.93425 41.4725C8.29686 42.3973 7.95538 43.4941 7.95508 44.6175V74.0423C7.9558 75.359 8.42516 76.6325 9.279 77.6343C10.1328 78.6361 11.3153 79.3008 12.6145 79.5092C15.4752 88.0498 20.6203 95.6423 27.4907 101.462C34.3611 107.281 42.6939 111.104 51.5835 112.516C51.7636 114.005 52.4749 115.379 53.5865 116.386C54.6982 117.392 56.1355 117.963 57.6342 117.994C59.1329 118.024 60.5923 117.512 61.744 116.552C62.8957 115.592 63.6624 114.248 63.903 112.767C64.1437 111.287 63.8421 109.769 63.0538 108.493C62.2655 107.217 61.0435 106.268 59.6123 105.822C58.1812 105.376 56.6371 105.461 55.2641 106.063C53.8911 106.665 52.7813 107.743 52.1388 109.099C35.4036 106.425 21.6044 94.5539 16.0919 78.9287C16.9777 78.4568 17.7187 77.7526 18.2353 76.8916C18.7519 76.0305 19.0247 75.045 19.0246 74.0407V44.6159C19.0255 43.6914 18.7947 42.7815 18.3534 41.9694C17.9121 41.1573 17.2743 40.469 16.4983 39.9674C18.0579 36.2393 19.9932 32.6801 22.2744 29.345C22.6257 29.4163 22.9833 29.4522 23.3417 29.4522C24.1187 29.4523 24.8859 29.2798 25.5881 28.9471C26.2903 28.6145 26.91 28.13 27.4024 27.5286C33.0295 20.6917 40.1273 15.6262 47.9293 12.8789C52.3661 11.3092 57.0377 10.5077 61.7436 10.5088C74.6388 10.5088 87.1554 16.7186 96.0843 27.5457C96.5759 28.1432 97.1937 28.624 97.8934 28.9537C98.5931 29.2834 99.3571 29.4536 100.13 29.4522H100.148C100.506 29.4522 100.863 29.4163 101.214 29.345C103.552 32.7655 105.527 36.421 107.106 40.252C106.928 40.3906 106.758 40.5399 106.598 40.699C106.084 41.2128 105.676 41.8233 105.397 42.4955C105.119 43.1677 104.977 43.8883 104.978 44.6159V74.0407C104.992 75.5001 105.582 76.8949 106.618 77.9219C107.654 78.9488 109.054 79.5249 110.512 79.5249C111.97 79.5249 113.37 78.9488 114.406 77.9219C115.443 76.8949 116.032 75.5001 116.046 74.0407V44.6159L116.044 44.6164Z" fill="black"/>
</g>
<defs>
<clipPath id="clip0_803_16567">
<rect width="124" height="118" fill="white"/>
</clipPath>
</defs>
</svg>
