<svg width="516" height="510" viewBox="0 0 516 510" fill="none" xmlns="http://www.w3.org/2000/svg">
<rect x="0.595" y="6.595" width="502.81" height="502.81" rx="31.405" fill="white" stroke="#E2E2E8" stroke-width="1.19"/>
<rect x="197" y="98" width="84" height="15" rx="7.5" fill="#E4E4E5"/>
<rect x="344" y="98" width="81" height="15" rx="7.5" fill="#E4E4E5"/>
<rect x="80" y="98" width="51" height="15" rx="7.5" fill="#E4E4E5"/>
<path d="M40 318C40 314.686 42.6863 312 46 312H66C69.3137 312 72 314.686 72 318V464H40V318Z" fill="#E4E4E5"/>
<path d="M179 395C179 391.686 181.686 389 185 389H205C208.314 389 211 391.686 211 395V464H179V395Z" fill="#E4E4E5"/>
<path d="M318 327C318 323.686 320.686 321 324 321H344C347.314 321 350 323.686 350 327V464H318V327Z" fill="#E4E4E5"/>
<path d="M460 286C460 282.686 462.686 280 466 280H486C489.314 280 492 282.686 492 286V464H460V286Z" fill="#E4E4E5"/>
<line opacity="0.05" x1="39.8438" y1="463.712" x2="492.096" y2="463.712" stroke="#030229" stroke-width="0.707964"/>
<line opacity="0.05" x1="39.8438" y1="427.607" x2="492.096" y2="427.607" stroke="#030229" stroke-width="0.707964"/>
<line opacity="0.05" x1="39.8438" y1="391.502" x2="492.096" y2="391.502" stroke="#030229" stroke-width="0.707964"/>
<line opacity="0.05" x1="39.8438" y1="355.397" x2="492.096" y2="355.397" stroke="#030229" stroke-width="0.707964"/>
<line opacity="0.05" x1="39.8438" y1="319.292" x2="492.096" y2="319.292" stroke="#030229" stroke-width="0.707964"/>
<line opacity="0.05" x1="39.8438" y1="246.751" x2="492.096" y2="246.751" stroke="#030229" stroke-width="0.707964"/>
<line opacity="0.05" x1="39.8438" y1="174.751" x2="492.096" y2="174.751" stroke="#030229" stroke-width="0.707964"/>
<line opacity="0.05" x1="39.8438" y1="283.187" x2="492.096" y2="283.187" stroke="#030229" stroke-width="0.707964"/>
<line opacity="0.05" x1="39.8438" y1="210.646" x2="492.096" y2="210.646" stroke="#030229" stroke-width="0.707964"/>
<line opacity="0.05" x1="39.8438" y1="138.646" x2="492.096" y2="138.646" stroke="#030229" stroke-width="0.707964"/>
<path d="M80.756 83.2102V82.2727H87.3015V83.2102H84.5572V91H83.5004V83.2102H80.756ZM88.7962 91V84.4545H89.8018V91H88.7962ZM89.3075 83.3636C89.1115 83.3636 88.9425 83.2969 88.8004 83.1634C88.6612 83.0298 88.5916 82.8693 88.5916 82.6818C88.5916 82.4943 88.6612 82.3338 88.8004 82.2003C88.9425 82.0668 89.1115 82 89.3075 82C89.5036 82 89.6712 82.0668 89.8104 82.2003C89.9524 82.3338 90.0234 82.4943 90.0234 82.6818C90.0234 82.8693 89.9524 83.0298 89.8104 83.1634C89.6712 83.2969 89.5036 83.3636 89.3075 83.3636ZM92.6495 82.2727V91H91.6438V82.2727H92.6495ZM95.4972 82.2727V91H94.4915V82.2727H95.4972ZM103.561 84.4545V85.3068H100.169V84.4545H103.561ZM101.157 82.8864H102.163V89.125C102.163 89.4091 102.204 89.6222 102.287 89.7642C102.372 89.9034 102.48 89.9972 102.61 90.0455C102.744 90.0909 102.885 90.1136 103.032 90.1136C103.143 90.1136 103.234 90.108 103.305 90.0966C103.376 90.0824 103.433 90.071 103.475 90.0625L103.68 90.9659C103.612 90.9915 103.517 91.017 103.395 91.0426C103.272 91.071 103.118 91.0852 102.93 91.0852C102.646 91.0852 102.368 91.0241 102.095 90.902C101.825 90.7798 101.6 90.5938 101.422 90.3438C101.245 90.0938 101.157 89.7784 101.157 89.3977V82.8864ZM107.662 91.1364C107.071 91.1364 106.553 90.9957 106.107 90.7145C105.664 90.4332 105.317 90.0398 105.067 89.5341C104.82 89.0284 104.696 88.4375 104.696 87.7614C104.696 87.0795 104.82 86.4844 105.067 85.9759C105.317 85.4673 105.664 85.0724 106.107 84.7912C106.553 84.5099 107.071 84.3693 107.662 84.3693C108.253 84.3693 108.77 84.5099 109.213 84.7912C109.659 85.0724 110.006 85.4673 110.253 85.9759C110.503 86.4844 110.628 87.0795 110.628 87.7614C110.628 88.4375 110.503 89.0284 110.253 89.5341C110.006 90.0398 109.659 90.4332 109.213 90.7145C108.77 90.9957 108.253 91.1364 107.662 91.1364ZM107.662 90.233C108.111 90.233 108.48 90.1179 108.77 89.8878C109.06 89.6577 109.275 89.3551 109.414 88.9801C109.553 88.6051 109.623 88.1989 109.623 87.7614C109.623 87.3239 109.553 86.9162 109.414 86.5384C109.275 86.1605 109.06 85.8551 108.77 85.6222C108.48 85.3892 108.111 85.2727 107.662 85.2727C107.213 85.2727 106.844 85.3892 106.554 85.6222C106.265 85.8551 106.05 86.1605 105.911 86.5384C105.772 86.9162 105.702 87.3239 105.702 87.7614C105.702 88.1989 105.772 88.6051 105.911 88.9801C106.05 89.3551 106.265 89.6577 106.554 89.8878C106.844 90.1179 107.213 90.233 107.662 90.233ZM114.635 91.1364C114.089 91.1364 113.608 90.9986 113.19 90.723C112.773 90.4446 112.446 90.0526 112.21 89.5469C111.974 89.0384 111.857 88.4375 111.857 87.7443C111.857 87.0568 111.974 86.4602 112.21 85.9545C112.446 85.4489 112.774 85.0582 113.195 84.7827C113.615 84.5071 114.101 84.3693 114.652 84.3693C115.078 84.3693 115.415 84.4403 115.662 84.5824C115.912 84.7216 116.102 84.8807 116.233 85.0597C116.366 85.2358 116.47 85.3807 116.544 85.4943H116.629V82.2727H117.635V91H116.663V89.9943H116.544C116.47 90.1136 116.365 90.2642 116.229 90.446C116.092 90.625 115.898 90.7855 115.645 90.9276C115.392 91.0668 115.055 91.1364 114.635 91.1364ZM114.771 90.233C115.175 90.233 115.516 90.1278 115.794 89.9176C116.072 89.7045 116.284 89.4105 116.429 89.0355C116.574 88.6577 116.646 88.2216 116.646 87.7273C116.646 87.2386 116.575 86.8111 116.433 86.4446C116.291 86.0753 116.081 85.7884 115.803 85.5838C115.524 85.3764 115.18 85.2727 114.771 85.2727C114.345 85.2727 113.99 85.3821 113.706 85.6009C113.425 85.8168 113.213 86.1108 113.071 86.483C112.932 86.8523 112.862 87.267 112.862 87.7273C112.862 88.1932 112.933 88.6165 113.075 88.9972C113.22 89.375 113.433 89.6761 113.714 89.9006C113.999 90.1222 114.351 90.233 114.771 90.233ZM121.543 91.1534C121.128 91.1534 120.751 91.0753 120.413 90.919C120.075 90.7599 119.807 90.5312 119.608 90.233C119.409 89.9318 119.31 89.5682 119.31 89.142C119.31 88.767 119.384 88.4631 119.531 88.2301C119.679 87.9943 119.876 87.8097 120.124 87.6761C120.371 87.5426 120.643 87.4432 120.942 87.3778C121.243 87.3097 121.545 87.2557 121.849 87.2159C122.247 87.1648 122.57 87.1264 122.817 87.1009C123.067 87.0724 123.249 87.0256 123.362 86.9602C123.479 86.8949 123.537 86.7812 123.537 86.6193V86.5852C123.537 86.1648 123.422 85.8381 123.192 85.6051C122.964 85.3722 122.619 85.2557 122.156 85.2557C121.676 85.2557 121.3 85.3608 121.027 85.571C120.754 85.7812 120.562 86.0057 120.452 86.2443L119.497 85.9034C119.668 85.5057 119.895 85.196 120.179 84.9744C120.466 84.75 120.778 84.5937 121.116 84.5057C121.457 84.4148 121.793 84.3693 122.122 84.3693C122.332 84.3693 122.574 84.3949 122.847 84.446C123.122 84.4943 123.388 84.5952 123.643 84.7486C123.902 84.902 124.116 85.1335 124.287 85.4432C124.457 85.7528 124.543 86.1676 124.543 86.6875V91H123.537V90.1136H123.486C123.418 90.2557 123.304 90.4077 123.145 90.5696C122.986 90.7315 122.774 90.8693 122.51 90.983C122.246 91.0966 121.923 91.1534 121.543 91.1534ZM121.696 90.25C122.094 90.25 122.429 90.1719 122.702 90.0156C122.977 89.8594 123.185 89.6577 123.324 89.4105C123.466 89.1634 123.537 88.9034 123.537 88.6307V87.7102C123.494 87.7614 123.401 87.8082 123.256 87.8509C123.114 87.8906 122.949 87.9261 122.761 87.9574C122.577 87.9858 122.396 88.0114 122.22 88.0341C122.047 88.054 121.906 88.071 121.798 88.0852C121.537 88.1193 121.293 88.1747 121.065 88.2514C120.841 88.3253 120.659 88.4375 120.52 88.5881C120.384 88.7358 120.315 88.9375 120.315 89.1932C120.315 89.5426 120.445 89.8068 120.703 89.9858C120.964 90.1619 121.295 90.25 121.696 90.25ZM126.792 93.4545C126.621 93.4545 126.469 93.4403 126.336 93.4119C126.202 93.3864 126.11 93.3608 126.059 93.3352L126.314 92.4489C126.559 92.5114 126.775 92.5341 126.962 92.517C127.15 92.5 127.316 92.4162 127.461 92.2656C127.608 92.1179 127.743 91.8778 127.865 91.5455L128.053 91.0341L125.632 84.4545H126.723L128.53 89.6705H128.598L130.405 84.4545H131.496L128.718 91.9545C128.593 92.2926 128.438 92.5724 128.253 92.794C128.069 93.0185 127.854 93.1847 127.61 93.2926C127.368 93.4006 127.096 93.4545 126.792 93.4545Z" fill="black"/>
<path d="M197.236 91V82.2727H198.293V86.1591H202.946V82.2727H204.003V91H202.946V87.0966H198.293V91H197.236ZM205.983 91V84.4545H206.988V91H205.983ZM206.494 83.3636C206.298 83.3636 206.129 83.2969 205.987 83.1634C205.848 83.0298 205.778 82.8693 205.778 82.6818C205.778 82.4943 205.848 82.3338 205.987 82.2003C206.129 82.0668 206.298 82 206.494 82C206.69 82 206.858 82.0668 206.997 82.2003C207.139 82.3338 207.21 82.4943 207.21 82.6818C207.21 82.8693 207.139 83.0298 206.997 83.1634C206.858 83.2969 206.69 83.3636 206.494 83.3636ZM211.472 93.5909C210.987 93.5909 210.569 93.5284 210.219 93.4034C209.87 93.2812 209.579 93.1193 209.346 92.9176C209.116 92.7188 208.933 92.5057 208.796 92.2784L209.597 91.7159C209.688 91.8352 209.803 91.9716 209.942 92.125C210.082 92.2812 210.272 92.4162 210.513 92.5298C210.758 92.6463 211.077 92.7045 211.472 92.7045C212.001 92.7045 212.437 92.5767 212.781 92.321C213.124 92.0653 213.296 91.6648 213.296 91.1193V89.7898H213.211C213.137 89.9091 213.032 90.0568 212.896 90.233C212.762 90.4062 212.569 90.5611 212.316 90.6974C212.066 90.831 211.728 90.8977 211.302 90.8977C210.773 90.8977 210.299 90.7727 209.879 90.5227C209.461 90.2727 209.13 89.9091 208.886 89.4318C208.644 88.9545 208.523 88.375 208.523 87.6932C208.523 87.0227 208.641 86.4389 208.877 85.9418C209.113 85.4418 209.441 85.0554 209.862 84.7827C210.282 84.5071 210.768 84.3693 211.319 84.3693C211.745 84.3693 212.083 84.4403 212.333 84.5824C212.586 84.7216 212.779 84.8807 212.913 85.0597C213.049 85.2358 213.154 85.3807 213.228 85.4943H213.33V84.4545H214.302V91.1875C214.302 91.75 214.174 92.2074 213.918 92.5597C213.665 92.9148 213.325 93.1747 212.896 93.3395C212.469 93.5071 211.995 93.5909 211.472 93.5909ZM211.438 89.9943C211.842 89.9943 212.183 89.902 212.461 89.7173C212.739 89.5327 212.951 89.267 213.096 88.9205C213.241 88.5739 213.313 88.1591 213.313 87.6761C213.313 87.2045 213.242 86.7884 213.1 86.4276C212.958 86.0668 212.748 85.7841 212.469 85.5795C212.191 85.375 211.847 85.2727 211.438 85.2727C211.012 85.2727 210.657 85.3807 210.373 85.5966C210.092 85.8125 209.88 86.1023 209.738 86.4659C209.599 86.8295 209.529 87.233 209.529 87.6761C209.529 88.1307 209.6 88.5327 209.742 88.8821C209.887 89.2287 210.1 89.5014 210.381 89.7003C210.665 89.8963 211.018 89.9943 211.438 89.9943ZM217.148 87.0625V91H216.143V82.2727H217.148V85.4773H217.234C217.387 85.1392 217.617 84.8707 217.924 84.6719C218.234 84.4702 218.646 84.3693 219.16 84.3693C219.606 84.3693 219.996 84.4588 220.332 84.6378C220.667 84.8139 220.927 85.0852 221.112 85.4517C221.299 85.8153 221.393 86.2784 221.393 86.8409V91H220.387V86.9091C220.387 86.3892 220.252 85.9872 219.982 85.7031C219.715 85.4162 219.344 85.2727 218.87 85.2727C218.54 85.2727 218.245 85.3423 217.984 85.4815C217.725 85.6207 217.521 85.8239 217.37 86.0909C217.222 86.358 217.148 86.6818 217.148 87.0625ZM225.977 91.1364C225.346 91.1364 224.802 90.9972 224.345 90.7188C223.89 90.4375 223.539 90.0455 223.292 89.5426C223.048 89.0369 222.926 88.4489 222.926 87.7784C222.926 87.108 223.048 86.517 223.292 86.0057C223.539 85.4915 223.883 85.0909 224.324 84.804C224.767 84.5142 225.284 84.3693 225.875 84.3693C226.216 84.3693 226.552 84.4261 226.885 84.5398C227.217 84.6534 227.52 84.8381 227.792 85.0938C228.065 85.3466 228.282 85.6818 228.444 86.0994C228.606 86.517 228.687 87.0312 228.687 87.642V88.0682H223.642V87.1989H227.664C227.664 86.8295 227.591 86.5 227.443 86.2102C227.298 85.9205 227.091 85.6918 226.821 85.5241C226.554 85.3565 226.238 85.2727 225.875 85.2727C225.474 85.2727 225.127 85.3722 224.835 85.571C224.545 85.767 224.322 86.0227 224.166 86.3381C224.01 86.6534 223.931 86.9915 223.931 87.3523V87.9318C223.931 88.4261 224.017 88.8452 224.187 89.1889C224.36 89.5298 224.6 89.7898 224.907 89.9688C225.214 90.1449 225.571 90.233 225.977 90.233C226.241 90.233 226.48 90.196 226.693 90.1222C226.909 90.0455 227.095 89.9318 227.251 89.7812C227.407 89.6278 227.528 89.4375 227.613 89.2102L228.585 89.483C228.483 89.8125 228.311 90.1023 228.069 90.3523C227.828 90.5994 227.529 90.7926 227.174 90.9318C226.819 91.0682 226.42 91.1364 225.977 91.1364ZM234.853 85.9205L233.95 86.1761C233.893 86.0256 233.809 85.8793 233.699 85.7372C233.591 85.5923 233.443 85.473 233.255 85.3793C233.068 85.2855 232.828 85.2386 232.535 85.2386C232.135 85.2386 231.801 85.331 231.534 85.5156C231.27 85.6974 231.137 85.929 231.137 86.2102C231.137 86.4602 231.228 86.6577 231.41 86.8026C231.592 86.9474 231.876 87.0682 232.262 87.1648L233.234 87.4034C233.819 87.5455 234.255 87.7628 234.542 88.0554C234.829 88.3452 234.973 88.7187 234.973 89.1761C234.973 89.5511 234.865 89.8864 234.649 90.1818C234.436 90.4773 234.137 90.7102 233.754 90.8807C233.37 91.0511 232.924 91.1364 232.416 91.1364C231.748 91.1364 231.196 90.9915 230.758 90.7017C230.321 90.4119 230.044 89.9886 229.927 89.4318L230.882 89.1932C230.973 89.5455 231.145 89.8097 231.397 89.9858C231.653 90.1619 231.987 90.25 232.399 90.25C232.868 90.25 233.24 90.1506 233.515 89.9517C233.794 89.75 233.933 89.5085 233.933 89.2273C233.933 89 233.853 88.8097 233.694 88.6562C233.535 88.5 233.291 88.3835 232.961 88.3068L231.87 88.0511C231.271 87.9091 230.831 87.6889 230.549 87.3906C230.271 87.0895 230.132 86.7131 230.132 86.2614C230.132 85.892 230.235 85.5653 230.443 85.2812C230.653 84.9972 230.939 84.7741 231.299 84.6122C231.663 84.4503 232.075 84.3693 232.535 84.3693C233.183 84.3693 233.691 84.5114 234.061 84.7955C234.433 85.0795 234.697 85.4545 234.853 85.9205ZM239.333 84.4545V85.3068H235.941V84.4545H239.333ZM236.93 82.8864H237.935V89.125C237.935 89.4091 237.977 89.6222 238.059 89.7642C238.144 89.9034 238.252 89.9972 238.383 90.0455C238.516 90.0909 238.657 90.1136 238.805 90.1136C238.915 90.1136 239.006 90.108 239.077 90.0966C239.148 90.0824 239.205 90.071 239.248 90.0625L239.452 90.9659C239.384 90.9915 239.289 91.017 239.167 91.0426C239.045 91.071 238.89 91.0852 238.702 91.0852C238.418 91.0852 238.14 91.0241 237.867 90.902C237.597 90.7798 237.373 90.5938 237.194 90.3438C237.018 90.0938 236.93 89.7784 236.93 89.3977V82.8864ZM244.357 82.2727H245.619L248.585 89.517H248.687L251.653 82.2727H252.914V91H251.925V84.3693H251.84L249.113 91H248.158L245.431 84.3693H245.346V91H244.357V82.2727ZM257.556 91.1364C256.965 91.1364 256.446 90.9957 256 90.7145C255.557 90.4332 255.211 90.0398 254.961 89.5341C254.713 89.0284 254.59 88.4375 254.59 87.7614C254.59 87.0795 254.713 86.4844 254.961 85.9759C255.211 85.4673 255.557 85.0724 256 84.7912C256.446 84.5099 256.965 84.3693 257.556 84.3693C258.147 84.3693 258.664 84.5099 259.107 84.7912C259.553 85.0724 259.899 85.4673 260.147 85.9759C260.397 86.4844 260.522 87.0795 260.522 87.7614C260.522 88.4375 260.397 89.0284 260.147 89.5341C259.899 90.0398 259.553 90.4332 259.107 90.7145C258.664 90.9957 258.147 91.1364 257.556 91.1364ZM257.556 90.233C258.005 90.233 258.374 90.1179 258.664 89.8878C258.953 89.6577 259.168 89.3551 259.307 88.9801C259.446 88.6051 259.516 88.1989 259.516 87.7614C259.516 87.3239 259.446 86.9162 259.307 86.5384C259.168 86.1605 258.953 85.8551 258.664 85.6222C258.374 85.3892 258.005 85.2727 257.556 85.2727C257.107 85.2727 256.738 85.3892 256.448 85.6222C256.158 85.8551 255.944 86.1605 255.804 86.5384C255.665 86.9162 255.596 87.3239 255.596 87.7614C255.596 88.1989 255.665 88.6051 255.804 88.9801C255.944 89.3551 256.158 89.6577 256.448 89.8878C256.738 90.1179 257.107 90.233 257.556 90.233ZM263.062 87.0625V91H262.057V84.4545H263.028V85.4773H263.114C263.267 85.1449 263.5 84.8778 263.812 84.6761C264.125 84.4716 264.528 84.3693 265.023 84.3693C265.466 84.3693 265.854 84.4602 266.186 84.642C266.518 84.821 266.777 85.0938 266.962 85.4602C267.146 85.8239 267.239 86.2841 267.239 86.8409V91H266.233V86.9091C266.233 86.3949 266.099 85.9943 265.832 85.7074C265.565 85.4176 265.199 85.2727 264.733 85.2727C264.412 85.2727 264.125 85.3423 263.872 85.4815C263.622 85.6207 263.425 85.8239 263.28 86.0909C263.135 86.358 263.062 86.6818 263.062 87.0625ZM271.923 84.4545V85.3068H268.531V84.4545H271.923ZM269.52 82.8864H270.525V89.125C270.525 89.4091 270.566 89.6222 270.649 89.7642C270.734 89.9034 270.842 89.9972 270.973 90.0455C271.106 90.0909 271.247 90.1136 271.395 90.1136C271.505 90.1136 271.596 90.108 271.667 90.0966C271.738 90.0824 271.795 90.071 271.838 90.0625L272.042 90.9659C271.974 90.9915 271.879 91.017 271.757 91.0426C271.635 91.071 271.48 91.0852 271.292 91.0852C271.008 91.0852 270.73 91.0241 270.457 90.902C270.187 90.7798 269.963 90.5938 269.784 90.3438C269.608 90.0938 269.52 89.7784 269.52 89.3977V82.8864ZM274.582 87.0625V91H273.576V82.2727H274.582V85.4773H274.667C274.821 85.1392 275.051 84.8707 275.358 84.6719C275.667 84.4702 276.079 84.3693 276.593 84.3693C277.039 84.3693 277.43 84.4588 277.765 84.6378C278.1 84.8139 278.36 85.0852 278.545 85.4517C278.733 85.8153 278.826 86.2784 278.826 86.8409V91H277.821V86.9091C277.821 86.3892 277.686 85.9872 277.416 85.7031C277.149 85.4162 276.778 85.2727 276.304 85.2727C275.974 85.2727 275.679 85.3423 275.417 85.4815C275.159 85.6207 274.954 85.8239 274.804 86.0909C274.656 86.358 274.582 86.6818 274.582 87.0625Z" fill="black"/>
<path d="M345.003 91V82.2727H346.06V90.0625H350.117V91H345.003ZM354.276 91.1364C353.685 91.1364 353.167 90.9957 352.721 90.7145C352.278 90.4332 351.931 90.0398 351.681 89.5341C351.434 89.0284 351.31 88.4375 351.31 87.7614C351.31 87.0795 351.434 86.4844 351.681 85.9759C351.931 85.4673 352.278 85.0724 352.721 84.7912C353.167 84.5099 353.685 84.3693 354.276 84.3693C354.867 84.3693 355.384 84.5099 355.827 84.7912C356.273 85.0724 356.62 85.4673 356.867 85.9759C357.117 86.4844 357.242 87.0795 357.242 87.7614C357.242 88.4375 357.117 89.0284 356.867 89.5341C356.62 90.0398 356.273 90.4332 355.827 90.7145C355.384 90.9957 354.867 91.1364 354.276 91.1364ZM354.276 90.233C354.725 90.233 355.094 90.1179 355.384 89.8878C355.674 89.6577 355.888 89.3551 356.028 88.9801C356.167 88.6051 356.236 88.1989 356.236 87.7614C356.236 87.3239 356.167 86.9162 356.028 86.5384C355.888 86.1605 355.674 85.8551 355.384 85.6222C355.094 85.3892 354.725 85.2727 354.276 85.2727C353.827 85.2727 353.458 85.3892 353.168 85.6222C352.878 85.8551 352.664 86.1605 352.525 86.5384C352.386 86.9162 352.316 87.3239 352.316 87.7614C352.316 88.1989 352.386 88.6051 352.525 88.9801C352.664 89.3551 352.878 89.6577 353.168 89.8878C353.458 90.1179 353.827 90.233 354.276 90.233ZM360.038 91L358.043 84.4545H359.1L360.515 89.4659H360.583L361.981 84.4545H363.055L364.435 89.4489H364.503L365.918 84.4545H366.975L364.981 91H363.992L362.56 85.9716H362.458L361.026 91H360.038ZM370.826 91.1364C370.196 91.1364 369.652 90.9972 369.194 90.7188C368.74 90.4375 368.389 90.0455 368.142 89.5426C367.897 89.0369 367.775 88.4489 367.775 87.7784C367.775 87.108 367.897 86.517 368.142 86.0057C368.389 85.4915 368.733 85.0909 369.173 84.804C369.616 84.5142 370.133 84.3693 370.724 84.3693C371.065 84.3693 371.402 84.4261 371.734 84.5398C372.066 84.6534 372.369 84.8381 372.642 85.0938C372.914 85.3466 373.132 85.6818 373.294 86.0994C373.456 86.517 373.536 87.0312 373.536 87.642V88.0682H368.491V87.1989H372.514C372.514 86.8295 372.44 86.5 372.292 86.2102C372.147 85.9205 371.94 85.6918 371.67 85.5241C371.403 85.3565 371.088 85.2727 370.724 85.2727C370.323 85.2727 369.977 85.3722 369.684 85.571C369.394 85.767 369.171 86.0227 369.015 86.3381C368.859 86.6534 368.781 86.9915 368.781 87.3523V87.9318C368.781 88.4261 368.866 88.8452 369.036 89.1889C369.21 89.5298 369.45 89.7898 369.757 89.9688C370.063 90.1449 370.42 90.233 370.826 90.233C371.09 90.233 371.329 90.196 371.542 90.1222C371.758 90.0455 371.944 89.9318 372.1 89.7812C372.257 89.6278 372.377 89.4375 372.463 89.2102L373.434 89.483C373.332 89.8125 373.16 90.1023 372.919 90.3523C372.677 90.5994 372.379 90.7926 372.024 90.9318C371.669 91.0682 371.269 91.1364 370.826 91.1364ZM379.703 85.9205L378.799 86.1761C378.742 86.0256 378.659 85.8793 378.548 85.7372C378.44 85.5923 378.292 85.473 378.105 85.3793C377.917 85.2855 377.677 85.2386 377.385 85.2386C376.984 85.2386 376.65 85.331 376.383 85.5156C376.119 85.6974 375.987 85.929 375.987 86.2102C375.987 86.4602 376.078 86.6577 376.26 86.8026C376.441 86.9474 376.725 87.0682 377.112 87.1648L378.083 87.4034C378.669 87.5455 379.105 87.7628 379.392 88.0554C379.679 88.3452 379.822 88.7187 379.822 89.1761C379.822 89.5511 379.714 89.8864 379.498 90.1818C379.285 90.4773 378.987 90.7102 378.603 90.8807C378.22 91.0511 377.774 91.1364 377.265 91.1364C376.598 91.1364 376.045 90.9915 375.608 90.7017C375.17 90.4119 374.893 89.9886 374.777 89.4318L375.731 89.1932C375.822 89.5455 375.994 89.8097 376.247 89.9858C376.502 90.1619 376.836 90.25 377.248 90.25C377.717 90.25 378.089 90.1506 378.365 89.9517C378.643 89.75 378.782 89.5085 378.782 89.2273C378.782 89 378.703 88.8097 378.544 88.6562C378.385 88.5 378.14 88.3835 377.811 88.3068L376.72 88.0511C376.12 87.9091 375.68 87.6889 375.399 87.3906C375.12 87.0895 374.981 86.7131 374.981 86.2614C374.981 85.892 375.085 85.5653 375.292 85.2812C375.502 84.9972 375.788 84.7741 376.149 84.6122C376.512 84.4503 376.924 84.3693 377.385 84.3693C378.032 84.3693 378.541 84.5114 378.91 84.7955C379.282 85.0795 379.546 85.4545 379.703 85.9205ZM384.182 84.4545V85.3068H380.79V84.4545H384.182ZM381.779 82.8864H382.785V89.125C382.785 89.4091 382.826 89.6222 382.908 89.7642C382.994 89.9034 383.101 89.9972 383.232 90.0455C383.366 90.0909 383.506 90.1136 383.654 90.1136C383.765 90.1136 383.856 90.108 383.927 90.0966C383.998 90.0824 384.055 90.071 384.097 90.0625L384.302 90.9659C384.234 90.9915 384.138 91.017 384.016 91.0426C383.894 91.071 383.739 91.0852 383.552 91.0852C383.268 91.0852 382.989 91.0241 382.717 90.902C382.447 90.7798 382.222 90.5938 382.043 90.3438C381.867 90.0938 381.779 89.7784 381.779 89.3977V82.8864ZM389.207 82.2727H390.468L393.434 89.517H393.536L396.502 82.2727H397.763V91H396.775V84.3693H396.69L393.962 91H393.008L390.28 84.3693H390.195V91H389.207V82.2727ZM402.405 91.1364C401.814 91.1364 401.296 90.9957 400.85 90.7145C400.407 90.4332 400.06 90.0398 399.81 89.5341C399.563 89.0284 399.439 88.4375 399.439 87.7614C399.439 87.0795 399.563 86.4844 399.81 85.9759C400.06 85.4673 400.407 85.0724 400.85 84.7912C401.296 84.5099 401.814 84.3693 402.405 84.3693C402.996 84.3693 403.513 84.5099 403.956 84.7912C404.402 85.0724 404.749 85.4673 404.996 85.9759C405.246 86.4844 405.371 87.0795 405.371 87.7614C405.371 88.4375 405.246 89.0284 404.996 89.5341C404.749 90.0398 404.402 90.4332 403.956 90.7145C403.513 90.9957 402.996 91.1364 402.405 91.1364ZM402.405 90.233C402.854 90.233 403.223 90.1179 403.513 89.8878C403.803 89.6577 404.017 89.3551 404.157 88.9801C404.296 88.6051 404.365 88.1989 404.365 87.7614C404.365 87.3239 404.296 86.9162 404.157 86.5384C404.017 86.1605 403.803 85.8551 403.513 85.6222C403.223 85.3892 402.854 85.2727 402.405 85.2727C401.956 85.2727 401.587 85.3892 401.297 85.6222C401.007 85.8551 400.793 86.1605 400.654 86.5384C400.514 86.9162 400.445 87.3239 400.445 87.7614C400.445 88.1989 400.514 88.6051 400.654 88.9801C400.793 89.3551 401.007 89.6577 401.297 89.8878C401.587 90.1179 401.956 90.233 402.405 90.233ZM407.912 87.0625V91H406.906V84.4545H407.878V85.4773H407.963C408.116 85.1449 408.349 84.8778 408.662 84.6761C408.974 84.4716 409.378 84.3693 409.872 84.3693C410.315 84.3693 410.703 84.4602 411.035 84.642C411.368 84.821 411.626 85.0938 411.811 85.4602C411.996 85.8239 412.088 86.2841 412.088 86.8409V91H411.082V86.9091C411.082 86.3949 410.949 85.9943 410.682 85.7074C410.415 85.4176 410.048 85.2727 409.582 85.2727C409.261 85.2727 408.974 85.3423 408.722 85.4815C408.472 85.6207 408.274 85.8239 408.129 86.0909C407.984 86.358 407.912 86.6818 407.912 87.0625ZM416.772 84.4545V85.3068H413.38V84.4545H416.772ZM414.369 82.8864H415.375V89.125C415.375 89.4091 415.416 89.6222 415.498 89.7642C415.583 89.9034 415.691 89.9972 415.822 90.0455C415.956 90.0909 416.096 90.1136 416.244 90.1136C416.355 90.1136 416.446 90.108 416.517 90.0966C416.588 90.0824 416.644 90.071 416.687 90.0625L416.892 90.9659C416.823 90.9915 416.728 91.017 416.606 91.0426C416.484 91.071 416.329 91.0852 416.142 91.0852C415.858 91.0852 415.579 91.0241 415.306 90.902C415.036 90.7798 414.812 90.5938 414.633 90.3438C414.457 90.0938 414.369 89.7784 414.369 89.3977V82.8864ZM419.431 87.0625V91H418.426V82.2727H419.431V85.4773H419.517C419.67 85.1392 419.9 84.8707 420.207 84.6719C420.517 84.4702 420.929 84.3693 421.443 84.3693C421.889 84.3693 422.279 84.4588 422.615 84.6378C422.95 84.8139 423.21 85.0852 423.394 85.4517C423.582 85.8153 423.676 86.2784 423.676 86.8409V91H422.67V86.9091C422.67 86.3892 422.535 85.9872 422.265 85.7031C421.998 85.4162 421.627 85.2727 421.153 85.2727C420.823 85.2727 420.528 85.3423 420.267 85.4815C420.008 85.6207 419.804 85.8239 419.653 86.0909C419.505 86.358 419.431 86.6818 419.431 87.0625Z" fill="black"/>
<g opacity="0.7">
<path opacity="0.7" d="M12.54 280.06V285.878H11.8355V280.798H11.8014L10.3809 281.741V281.025L11.8355 280.06H12.54ZM16.1111 285.957C15.683 285.957 15.3184 285.841 15.0173 285.608C14.7162 285.373 14.4861 285.033 14.327 284.588C14.1679 284.141 14.0883 283.601 14.0883 282.969C14.0883 282.34 14.1679 281.803 14.327 281.358C14.488 280.911 14.719 280.57 15.0202 280.335C15.3232 280.098 15.6868 279.98 16.1111 279.98C16.5353 279.98 16.898 280.098 17.1991 280.335C17.5022 280.57 17.7332 280.911 17.8923 281.358C18.0533 281.803 18.1338 282.34 18.1338 282.969C18.1338 283.601 18.0542 284.141 17.8952 284.588C17.7361 285.033 17.5059 285.373 17.2048 285.608C16.9037 285.841 16.5391 285.957 16.1111 285.957ZM16.1111 285.332C16.5353 285.332 16.8648 285.128 17.0997 284.719C17.3345 284.31 17.452 283.726 17.452 282.969C17.452 282.465 17.398 282.036 17.29 281.682C17.184 281.327 17.0306 281.058 16.8298 280.872C16.6309 280.686 16.3914 280.594 16.1111 280.594C15.6906 280.594 15.362 280.801 15.1253 281.216C14.8885 281.629 14.7702 282.213 14.7702 282.969C14.7702 283.472 14.8232 283.9 14.9292 284.253C15.0353 284.605 15.1878 284.873 15.3866 285.057C15.5874 285.24 15.8289 285.332 16.1111 285.332ZM21.1111 285.957C20.683 285.957 20.3184 285.841 20.0173 285.608C19.7162 285.373 19.4861 285.033 19.327 284.588C19.1679 284.141 19.0883 283.601 19.0883 282.969C19.0883 282.34 19.1679 281.803 19.327 281.358C19.488 280.911 19.719 280.57 20.0202 280.335C20.3232 280.098 20.6868 279.98 21.1111 279.98C21.5353 279.98 21.898 280.098 22.1991 280.335C22.5022 280.57 22.7332 280.911 22.8923 281.358C23.0533 281.803 23.1338 282.34 23.1338 282.969C23.1338 283.601 23.0542 284.141 22.8952 284.588C22.7361 285.033 22.5059 285.373 22.2048 285.608C21.9037 285.841 21.5391 285.957 21.1111 285.957ZM21.1111 285.332C21.5353 285.332 21.8648 285.128 22.0997 284.719C22.3345 284.31 22.452 283.726 22.452 282.969C22.452 282.465 22.398 282.036 22.29 281.682C22.184 281.327 22.0306 281.058 21.8298 280.872C21.6309 280.686 21.3914 280.594 21.1111 280.594C20.6906 280.594 20.362 280.801 20.1253 281.216C19.8885 281.629 19.7702 282.213 19.7702 282.969C19.7702 283.472 19.8232 283.9 19.9292 284.253C20.0353 284.605 20.1878 284.873 20.3866 285.057C20.5874 285.24 20.8289 285.332 21.1111 285.332ZM24.8497 284.287L24.8383 283.457H24.9747L26.8838 281.514H27.7133L25.6792 283.571H25.6224L24.8497 284.287ZM24.2247 285.878V280.06H24.8952V285.878H24.2247ZM26.9974 285.878L25.2929 283.719L25.7702 283.253L27.8497 285.878H26.9974Z" fill="#030229"/>
<path opacity="0.7" d="M13.8211 244.06V249.878H13.1166V244.798H13.0825L11.662 245.741V245.025L13.1166 244.06H13.8211ZM17.5399 244.06V249.878H16.8353V244.798H16.8012L15.3808 245.741V245.025L16.8353 244.06H17.5399ZM21.1109 249.957C20.6829 249.957 20.3183 249.841 20.0171 249.608C19.716 249.373 19.4859 249.033 19.3268 248.588C19.1677 248.141 19.0882 247.601 19.0882 246.969C19.0882 246.34 19.1677 245.803 19.3268 245.358C19.4878 244.911 19.7188 244.57 20.02 244.335C20.323 244.098 20.6866 243.98 21.1109 243.98C21.5351 243.98 21.8978 244.098 22.199 244.335C22.502 244.57 22.733 244.911 22.8921 245.358C23.0531 245.803 23.1336 246.34 23.1336 246.969C23.1336 247.601 23.0541 248.141 22.895 248.588C22.7359 249.033 22.5058 249.373 22.2046 249.608C21.9035 249.841 21.5389 249.957 21.1109 249.957ZM21.1109 249.332C21.5351 249.332 21.8647 249.128 22.0995 248.719C22.3344 248.31 22.4518 247.726 22.4518 246.969C22.4518 246.465 22.3978 246.036 22.2899 245.682C22.1838 245.327 22.0304 245.058 21.8296 244.872C21.6308 244.686 21.3912 244.594 21.1109 244.594C20.6904 244.594 20.3618 244.801 20.1251 245.216C19.8883 245.629 19.77 246.213 19.77 246.969C19.77 247.472 19.823 247.9 19.9291 248.253C20.0351 248.605 20.1876 248.873 20.3865 249.057C20.5872 249.24 20.8287 249.332 21.1109 249.332ZM24.8495 248.287L24.8382 247.457H24.9745L26.8836 245.514H27.7132L25.6791 247.571H25.6222L24.8495 248.287ZM24.2245 249.878V244.06H24.895V249.878H24.2245ZM26.9972 249.878L25.2927 247.719L25.77 247.253L27.8495 249.878H26.9972Z" fill="#030229"/>
<path opacity="0.7" d="M12.6962 208.182V214H11.9917V208.92H11.9576L10.5371 209.864V209.148L11.9917 208.182H12.6962ZM14.3695 214V213.489L16.29 211.386C16.5153 211.14 16.7009 210.926 16.8468 210.744C16.9926 210.561 17.1006 210.388 17.1706 210.227C17.2426 210.064 17.2786 209.894 17.2786 209.716C17.2786 209.511 17.2293 209.334 17.1309 209.185C17.0343 209.035 16.9017 208.92 16.7331 208.838C16.5646 208.757 16.3752 208.716 16.165 208.716C15.9415 208.716 15.7464 208.762 15.5797 208.855C15.415 208.946 15.2871 209.074 15.1962 209.239C15.1072 209.403 15.0627 209.597 15.0627 209.818H14.3922C14.3922 209.477 14.4708 209.178 14.628 208.92C14.7852 208.663 14.9992 208.462 15.2701 208.318C15.5428 208.174 15.8487 208.102 16.1877 208.102C16.5286 208.102 16.8307 208.174 17.0939 208.318C17.3572 208.462 17.5636 208.656 17.7132 208.901C17.8629 209.145 17.9377 209.417 17.9377 209.716C17.9377 209.93 17.8989 210.139 17.8212 210.344C17.7454 210.546 17.6129 210.773 17.4235 211.023C17.236 211.271 16.9756 211.574 16.6422 211.932L15.3354 213.33V213.375H18.04V214H14.3695ZM21.111 214.08C20.6829 214.08 20.3184 213.963 20.0172 213.73C19.7161 213.495 19.486 213.155 19.3269 212.71C19.1678 212.263 19.0882 211.723 19.0882 211.091C19.0882 210.462 19.1678 209.925 19.3269 209.48C19.4879 209.033 19.7189 208.692 20.0201 208.457C20.3231 208.221 20.6867 208.102 21.111 208.102C21.5352 208.102 21.8979 208.221 22.199 208.457C22.5021 208.692 22.7331 209.033 22.8922 209.48C23.0532 209.925 23.1337 210.462 23.1337 211.091C23.1337 211.723 23.0542 212.263 22.8951 212.71C22.736 213.155 22.5059 213.495 22.2047 213.73C21.9036 213.963 21.539 214.08 21.111 214.08ZM21.111 213.455C21.5352 213.455 21.8648 213.25 22.0996 212.841C22.3345 212.432 22.4519 211.848 22.4519 211.091C22.4519 210.587 22.3979 210.158 22.29 209.804C22.1839 209.45 22.0305 209.18 21.8297 208.994C21.6309 208.809 21.3913 208.716 21.111 208.716C20.6905 208.716 20.3619 208.923 20.1252 209.338C19.8884 209.751 19.7701 210.335 19.7701 211.091C19.7701 211.595 19.8231 212.023 19.9292 212.375C20.0352 212.727 20.1877 212.995 20.3865 213.179C20.5873 213.363 20.8288 213.455 21.111 213.455ZM24.8496 212.409L24.8382 211.58H24.9746L26.8837 209.636H27.7132L25.6792 211.693H25.6223L24.8496 212.409ZM24.2246 214V208.182H24.8951V214H24.2246ZM26.9973 214L25.2928 211.841L25.7701 211.375L27.8496 214H26.9973Z" fill="#030229"/>
<path opacity="0.7" d="M12.4463 172.182V178H11.7417V172.92H11.7077L10.2872 173.864V173.148L11.7417 172.182H12.4463ZM16.0855 178.08C15.7105 178.08 15.3762 178.015 15.0827 177.886C14.791 177.758 14.559 177.579 14.3866 177.349C14.2162 177.118 14.1234 176.85 14.1082 176.545H14.8241C14.8393 176.733 14.9037 176.895 15.0173 177.031C15.1309 177.166 15.2796 177.27 15.4633 177.344C15.647 177.418 15.8506 177.455 16.0741 177.455C16.3241 177.455 16.5457 177.411 16.7389 177.324C16.9321 177.237 17.0836 177.116 17.1934 176.96C17.3033 176.805 17.3582 176.625 17.3582 176.42C17.3582 176.206 17.3052 176.018 17.1991 175.855C17.0931 175.69 16.9378 175.562 16.7332 175.469C16.5287 175.376 16.2787 175.33 15.9832 175.33H15.5173V174.705H15.9832C16.2143 174.705 16.4169 174.663 16.5912 174.58C16.7673 174.496 16.9046 174.379 17.0031 174.227C17.1035 174.076 17.1537 173.898 17.1537 173.693C17.1537 173.496 17.1101 173.325 17.023 173.179C16.9359 173.033 16.8128 172.92 16.6537 172.838C16.4965 172.757 16.3109 172.716 16.0969 172.716C15.8961 172.716 15.7067 172.753 15.5287 172.827C15.3525 172.899 15.2086 173.004 15.0969 173.142C14.9851 173.278 14.9245 173.443 14.915 173.636H14.2332C14.2446 173.331 14.3364 173.064 14.5088 172.835C14.6811 172.604 14.9065 172.424 15.1849 172.295C15.4652 172.167 15.773 172.102 16.1082 172.102C16.4681 172.102 16.7768 172.175 17.0344 172.321C17.2919 172.465 17.4898 172.655 17.6281 172.892C17.7664 173.129 17.8355 173.384 17.8355 173.659C17.8355 173.987 17.7493 174.266 17.577 174.497C17.4065 174.728 17.1745 174.888 16.8809 174.977V175.023C17.2484 175.083 17.5353 175.24 17.7417 175.491C17.9482 175.741 18.0514 176.051 18.0514 176.42C18.0514 176.737 17.9652 177.021 17.7929 177.273C17.6224 177.523 17.3895 177.72 17.094 177.864C16.7986 178.008 16.4624 178.08 16.0855 178.08ZM21.1111 178.08C20.683 178.08 20.3184 177.963 20.0173 177.73C19.7162 177.495 19.4861 177.155 19.327 176.71C19.1679 176.263 19.0883 175.723 19.0883 175.091C19.0883 174.462 19.1679 173.925 19.327 173.48C19.488 173.033 19.719 172.692 20.0202 172.457C20.3232 172.221 20.6868 172.102 21.1111 172.102C21.5353 172.102 21.898 172.221 22.1991 172.457C22.5022 172.692 22.7332 173.033 22.8923 173.48C23.0533 173.925 23.1338 174.462 23.1338 175.091C23.1338 175.723 23.0542 176.263 22.8952 176.71C22.7361 177.155 22.5059 177.495 22.2048 177.73C21.9037 177.963 21.5391 178.08 21.1111 178.08ZM21.1111 177.455C21.5353 177.455 21.8648 177.25 22.0997 176.841C22.3345 176.432 22.452 175.848 22.452 175.091C22.452 174.587 22.398 174.158 22.29 173.804C22.184 173.45 22.0306 173.18 21.8298 172.994C21.6309 172.809 21.3914 172.716 21.1111 172.716C20.6906 172.716 20.362 172.923 20.1253 173.338C19.8885 173.751 19.7702 174.335 19.7702 175.091C19.7702 175.595 19.8232 176.023 19.9292 176.375C20.0353 176.727 20.1878 176.995 20.3866 177.179C20.5874 177.363 20.8289 177.455 21.1111 177.455ZM24.8497 176.409L24.8383 175.58H24.9747L26.8838 173.636H27.7133L25.6792 175.693H25.6224L24.8497 176.409ZM24.2247 178V172.182H24.8952V178H24.2247ZM26.9974 178L25.2929 175.841L25.7702 175.375L27.8497 178H26.9974Z" fill="#030229"/>
<path opacity="0.7" d="M12.4072 136.182V142H11.7027V136.92H11.6686L10.2481 137.864V137.148L11.7027 136.182H12.4072ZM13.9442 140.807V140.227L16.501 136.182H16.9214V137.08H16.6373L14.7055 140.136V140.182H18.1487V140.807H13.9442ZM16.6828 142V140.631V140.361V136.182H17.3532V142H16.6828ZM21.1111 142.08C20.683 142.08 20.3184 141.963 20.0173 141.73C19.7162 141.495 19.4861 141.155 19.327 140.71C19.1679 140.263 19.0883 139.723 19.0883 139.091C19.0883 138.462 19.1679 137.925 19.327 137.48C19.488 137.033 19.719 136.692 20.0202 136.457C20.3232 136.221 20.6868 136.102 21.1111 136.102C21.5353 136.102 21.898 136.221 22.1991 136.457C22.5022 136.692 22.7332 137.033 22.8923 137.48C23.0533 137.925 23.1338 138.462 23.1338 139.091C23.1338 139.723 23.0542 140.263 22.8952 140.71C22.7361 141.155 22.5059 141.495 22.2048 141.73C21.9037 141.963 21.5391 142.08 21.1111 142.08ZM21.1111 141.455C21.5353 141.455 21.8648 141.25 22.0997 140.841C22.3345 140.432 22.452 139.848 22.452 139.091C22.452 138.587 22.398 138.158 22.29 137.804C22.184 137.45 22.0306 137.18 21.8298 136.994C21.6309 136.809 21.3914 136.716 21.1111 136.716C20.6906 136.716 20.362 136.923 20.1253 137.338C19.8885 137.751 19.7702 138.335 19.7702 139.091C19.7702 139.595 19.8232 140.023 19.9292 140.375C20.0353 140.727 20.1878 140.995 20.3866 141.179C20.5874 141.363 20.8289 141.455 21.1111 141.455ZM24.8497 140.409L24.8383 139.58H24.9747L26.8838 137.636H27.7133L25.6792 139.693H25.6224L24.8497 140.409ZM24.2247 142V136.182H24.8952V142H24.2247ZM26.9974 142L25.2929 139.841L25.7702 139.375L27.8497 142H26.9974Z" fill="#030229"/>
<path opacity="0.7" d="M12.1547 322.08C11.7646 322.08 11.4199 322.01 11.1206 321.872C10.8233 321.732 10.5913 321.54 10.4246 321.295C10.258 321.049 10.1756 320.769 10.1775 320.455C10.1756 320.208 10.2239 319.981 10.3224 319.773C10.4208 319.562 10.5553 319.387 10.7258 319.247C10.8981 319.105 11.0903 319.015 11.3025 318.977V318.943C11.0241 318.871 10.8025 318.715 10.6377 318.474C10.4729 318.232 10.3915 317.956 10.3934 317.648C10.3915 317.352 10.4663 317.088 10.6178 316.855C10.7693 316.622 10.9777 316.438 11.2428 316.304C11.5099 316.17 11.8138 316.102 12.1547 316.102C12.4919 316.102 12.793 316.17 13.0581 316.304C13.3233 316.438 13.5316 316.622 13.6831 316.855C13.8366 317.088 13.9142 317.352 13.9161 317.648C13.9142 317.956 13.8299 318.232 13.6633 318.474C13.4985 318.715 13.2797 318.871 13.007 318.943V318.977C13.2172 319.015 13.4066 319.105 13.5752 319.247C13.7438 319.387 13.8782 319.562 13.9786 319.773C14.079 319.981 14.1301 320.208 14.132 320.455C14.1301 320.769 14.0449 321.049 13.8763 321.295C13.7097 321.54 13.4777 321.732 13.1803 321.872C12.8849 322.01 12.543 322.08 12.1547 322.08ZM12.1547 321.455C12.418 321.455 12.6453 321.412 12.8366 321.327C13.0278 321.241 13.1756 321.121 13.2797 320.966C13.3839 320.811 13.4369 320.629 13.4388 320.42C13.4369 320.201 13.3801 320.007 13.2684 319.838C13.1566 319.67 13.0042 319.537 12.811 319.44C12.6197 319.344 12.401 319.295 12.1547 319.295C11.9066 319.295 11.685 319.344 11.49 319.44C11.2968 319.537 11.1443 319.67 11.0326 319.838C10.9227 320.007 10.8688 320.201 10.8706 320.42C10.8688 320.629 10.9189 320.811 11.0212 320.966C11.1254 321.121 11.2741 321.241 11.4672 321.327C11.6604 321.412 11.8896 321.455 12.1547 321.455ZM12.1547 318.693C12.3631 318.693 12.5477 318.652 12.7087 318.568C12.8716 318.485 12.9994 318.368 13.0922 318.219C13.185 318.069 13.2324 317.894 13.2343 317.693C13.2324 317.496 13.186 317.325 13.0951 317.179C13.0042 317.031 12.8782 316.918 12.7172 316.838C12.5563 316.757 12.3688 316.716 12.1547 316.716C11.9369 316.716 11.7466 316.757 11.5837 316.838C11.4208 316.918 11.2949 317.031 11.2059 317.179C11.1169 317.325 11.0733 317.496 11.0752 317.693C11.0733 317.894 11.1178 318.069 11.2087 318.219C11.3015 318.368 11.4294 318.485 11.5922 318.568C11.7551 318.652 11.9426 318.693 12.1547 318.693ZM17.1185 322.08C16.6905 322.08 16.3259 321.963 16.0248 321.73C15.7236 321.495 15.4935 321.155 15.3344 320.71C15.1753 320.263 15.0958 319.723 15.0958 319.091C15.0958 318.462 15.1753 317.925 15.3344 317.48C15.4954 317.033 15.7265 316.692 16.0276 316.457C16.3306 316.221 16.6943 316.102 17.1185 316.102C17.5428 316.102 17.9055 316.221 18.2066 316.457C18.5096 316.692 18.7407 317.033 18.8998 317.48C19.0608 317.925 19.1412 318.462 19.1412 319.091C19.1412 319.723 19.0617 320.263 18.9026 320.71C18.7435 321.155 18.5134 321.495 18.2123 321.73C17.9111 321.963 17.5465 322.08 17.1185 322.08ZM17.1185 321.455C17.5428 321.455 17.8723 321.25 18.1072 320.841C18.342 320.432 18.4594 319.848 18.4594 319.091C18.4594 318.587 18.4055 318.158 18.2975 317.804C18.1914 317.45 18.038 317.18 17.8373 316.994C17.6384 316.809 17.3988 316.716 17.1185 316.716C16.6981 316.716 16.3695 316.923 16.1327 317.338C15.896 317.751 15.7776 318.335 15.7776 319.091C15.7776 319.595 15.8306 320.023 15.9367 320.375C16.0428 320.727 16.1952 320.995 16.3941 321.179C16.5948 321.363 16.8363 321.455 17.1185 321.455ZM20.8572 320.409L20.8458 319.58H20.9822L22.8912 317.636H23.7208L21.6867 319.693H21.6299L20.8572 320.409ZM20.2322 322V316.182H20.9026V322H20.2322ZM23.0049 322L21.3003 319.841L21.7776 319.375L23.8572 322H23.0049Z" fill="#030229"/>
<path opacity="0.7" d="M12.1604 358.08C11.9218 358.076 11.6831 358.03 11.4445 357.943C11.2059 357.856 10.9881 357.709 10.7911 357.503C10.5941 357.295 10.436 357.013 10.3167 356.659C10.1974 356.303 10.1377 355.856 10.1377 355.318C10.1377 354.803 10.186 354.347 10.2826 353.949C10.3792 353.549 10.5193 353.213 10.703 352.94C10.8867 352.666 11.1083 352.457 11.3678 352.315C11.6292 352.173 11.9237 352.102 12.2513 352.102C12.5771 352.102 12.8669 352.168 13.1206 352.298C13.3763 352.427 13.5847 352.607 13.7456 352.838C13.9066 353.069 14.0108 353.335 14.0581 353.636H13.365C13.3006 353.375 13.1756 353.158 12.99 352.986C12.8044 352.813 12.5581 352.727 12.2513 352.727C11.8006 352.727 11.4455 352.923 11.186 353.315C10.9284 353.707 10.7987 354.258 10.7968 354.966H10.8422C10.9483 354.805 11.0742 354.668 11.2201 354.554C11.3678 354.438 11.5307 354.349 11.7087 354.287C11.8867 354.224 12.0752 354.193 12.2741 354.193C12.6074 354.193 12.9123 354.277 13.1888 354.443C13.4653 354.608 13.6869 354.836 13.8536 355.128C14.0203 355.418 14.1036 355.75 14.1036 356.125C14.1036 356.485 14.0231 356.814 13.8621 357.114C13.7011 357.411 13.4748 357.648 13.1831 357.824C12.8934 357.998 12.5525 358.083 12.1604 358.08ZM12.1604 357.455C12.3991 357.455 12.6131 357.395 12.8025 357.276C12.9938 357.156 13.1443 356.996 13.2542 356.795C13.3659 356.595 13.4218 356.371 13.4218 356.125C13.4218 355.884 13.3678 355.666 13.2599 355.469C13.1538 355.27 13.007 355.112 12.8195 354.994C12.6339 354.877 12.4218 354.818 12.1831 354.818C12.0032 354.818 11.8356 354.854 11.6803 354.926C11.525 354.996 11.3886 355.093 11.2712 355.216C11.1557 355.339 11.0648 355.48 10.9985 355.639C10.9322 355.796 10.8991 355.962 10.8991 356.136C10.8991 356.367 10.953 356.583 11.061 356.784C11.1708 356.985 11.3205 357.147 11.5099 357.27C11.7011 357.393 11.918 357.455 12.1604 357.455ZM17.1185 358.08C16.6905 358.08 16.3259 357.963 16.0248 357.73C15.7236 357.495 15.4935 357.155 15.3344 356.71C15.1753 356.263 15.0958 355.723 15.0958 355.091C15.0958 354.462 15.1753 353.925 15.3344 353.48C15.4954 353.033 15.7265 352.692 16.0276 352.457C16.3306 352.221 16.6943 352.102 17.1185 352.102C17.5428 352.102 17.9055 352.221 18.2066 352.457C18.5096 352.692 18.7407 353.033 18.8998 353.48C19.0608 353.925 19.1412 354.462 19.1412 355.091C19.1412 355.723 19.0617 356.263 18.9026 356.71C18.7435 357.155 18.5134 357.495 18.2123 357.73C17.9111 357.963 17.5465 358.08 17.1185 358.08ZM17.1185 357.455C17.5428 357.455 17.8723 357.25 18.1072 356.841C18.342 356.432 18.4594 355.848 18.4594 355.091C18.4594 354.587 18.4055 354.158 18.2975 353.804C18.1914 353.45 18.038 353.18 17.8373 352.994C17.6384 352.809 17.3988 352.716 17.1185 352.716C16.6981 352.716 16.3695 352.923 16.1327 353.338C15.896 353.751 15.7776 354.335 15.7776 355.091C15.7776 355.595 15.8306 356.023 15.9367 356.375C16.0428 356.727 16.1952 356.995 16.3941 357.179C16.5948 357.363 16.8363 357.455 17.1185 357.455ZM20.8572 356.409L20.8458 355.58H20.9822L22.8912 353.636H23.7208L21.6867 355.693H21.6299L20.8572 356.409ZM20.2322 358V352.182H20.9026V358H20.2322ZM23.0049 358L21.3003 355.841L21.7776 355.375L23.8572 358H23.0049Z" fill="#030229"/>
<path opacity="0.7" d="M9.08452 392.807V392.227L11.6413 388.182H12.0618V389.08H11.7777L9.84588 392.136V392.182H13.2891V392.807H9.08452ZM11.8232 394V392.631V392.361V388.182H12.4936V394H11.8232ZM16.2514 394.08C15.8234 394.08 15.4588 393.963 15.1577 393.73C14.8565 393.495 14.6264 393.155 14.4673 392.71C14.3082 392.263 14.2287 391.723 14.2287 391.091C14.2287 390.462 14.3082 389.925 14.4673 389.48C14.6283 389.033 14.8594 388.692 15.1605 388.457C15.4635 388.221 15.8272 388.102 16.2514 388.102C16.6757 388.102 17.0384 388.221 17.3395 388.457C17.6425 388.692 17.8736 389.033 18.0327 389.48C18.1937 389.925 18.2741 390.462 18.2741 391.091C18.2741 391.723 18.1946 392.263 18.0355 392.71C17.8764 393.155 17.6463 393.495 17.3452 393.73C17.044 393.963 16.6795 394.08 16.2514 394.08ZM16.2514 393.455C16.6757 393.455 17.0052 393.25 17.2401 392.841C17.4749 392.432 17.5923 391.848 17.5923 391.091C17.5923 390.587 17.5384 390.158 17.4304 389.804C17.3243 389.45 17.1709 389.18 16.9702 388.994C16.7713 388.809 16.5317 388.716 16.2514 388.716C15.831 388.716 15.5024 388.923 15.2656 389.338C15.0289 389.751 14.9105 390.335 14.9105 391.091C14.9105 391.595 14.9635 392.023 15.0696 392.375C15.1757 392.727 15.3281 392.995 15.527 393.179C15.7277 393.363 15.9692 393.455 16.2514 393.455ZM19.456 394V388.182H20.1605V391.068H20.2287L22.8423 388.182H23.7628L21.3196 390.807L23.7628 394H22.9105L20.8878 391.295L20.1605 392.114V394H19.456Z" fill="#030229"/>
<path opacity="0.7" d="M9.50994 430V429.489L11.4304 427.386C11.6558 427.14 11.8414 426.926 11.9872 426.744C12.133 426.561 12.241 426.388 12.3111 426.227C12.383 426.064 12.419 425.894 12.419 425.716C12.419 425.511 12.3698 425.334 12.2713 425.185C12.1747 425.035 12.0421 424.92 11.8736 424.838C11.705 424.757 11.5156 424.716 11.3054 424.716C11.0819 424.716 10.8868 424.762 10.7202 424.855C10.5554 424.946 10.4276 425.074 10.3366 425.239C10.2476 425.403 10.2031 425.597 10.2031 425.818H9.53267C9.53267 425.477 9.61127 425.178 9.76847 424.92C9.92566 424.663 10.1397 424.462 10.4105 424.318C10.6832 424.174 10.9891 424.102 11.3281 424.102C11.669 424.102 11.9711 424.174 12.2344 424.318C12.4976 424.462 12.7041 424.656 12.8537 424.901C13.0033 425.145 13.0781 425.417 13.0781 425.716C13.0781 425.93 13.0393 426.139 12.9616 426.344C12.8859 426.546 12.7533 426.773 12.5639 427.023C12.3764 427.271 12.116 427.574 11.7827 427.932L10.4759 429.33V429.375H13.1804V430H9.50994ZM16.2514 430.08C15.8234 430.08 15.4588 429.963 15.1577 429.73C14.8565 429.495 14.6264 429.155 14.4673 428.71C14.3082 428.263 14.2287 427.723 14.2287 427.091C14.2287 426.462 14.3082 425.925 14.4673 425.48C14.6283 425.033 14.8594 424.692 15.1605 424.457C15.4635 424.221 15.8272 424.102 16.2514 424.102C16.6757 424.102 17.0384 424.221 17.3395 424.457C17.6425 424.692 17.8736 425.033 18.0327 425.48C18.1937 425.925 18.2741 426.462 18.2741 427.091C18.2741 427.723 18.1946 428.263 18.0355 428.71C17.8764 429.155 17.6463 429.495 17.3452 429.73C17.044 429.963 16.6795 430.08 16.2514 430.08ZM16.2514 429.455C16.6757 429.455 17.0052 429.25 17.2401 428.841C17.4749 428.432 17.5923 427.848 17.5923 427.091C17.5923 426.587 17.5384 426.158 17.4304 425.804C17.3243 425.45 17.1709 425.18 16.9702 424.994C16.7713 424.809 16.5317 424.716 16.2514 424.716C15.831 424.716 15.5024 424.923 15.2656 425.338C15.0289 425.751 14.9105 426.335 14.9105 427.091C14.9105 427.595 14.9635 428.023 15.0696 428.375C15.1757 428.727 15.3281 428.995 15.527 429.179C15.7277 429.363 15.9692 429.455 16.2514 429.455ZM19.456 430V424.182H20.1605V427.068H20.2287L22.8423 424.182H23.7628L21.3196 426.807L23.7628 430H22.9105L20.8878 427.295L20.1605 428.114V430H19.456Z" fill="#030229"/>
<path opacity="0.7" d="M16.479 466.08C16.0509 466.08 15.6863 465.963 15.3852 465.73C15.0841 465.495 14.854 465.155 14.6949 464.71C14.5358 464.263 14.4562 463.723 14.4562 463.091C14.4562 462.462 14.5358 461.925 14.6949 461.48C14.8559 461.033 15.0869 460.692 15.3881 460.457C15.6911 460.221 16.0547 460.102 16.479 460.102C16.9032 460.102 17.2659 460.221 17.567 460.457C17.8701 460.692 18.1011 461.033 18.2602 461.48C18.4212 461.925 18.5017 462.462 18.5017 463.091C18.5017 463.723 18.4221 464.263 18.2631 464.71C18.104 465.155 17.8738 465.495 17.5727 465.73C17.2716 465.963 16.907 466.08 16.479 466.08ZM16.479 465.455C16.9032 465.455 17.2327 465.25 17.4676 464.841C17.7024 464.432 17.8199 463.848 17.8199 463.091C17.8199 462.587 17.7659 462.158 17.6579 461.804C17.5519 461.45 17.3985 461.18 17.1977 460.994C16.9988 460.809 16.7593 460.716 16.479 460.716C16.0585 460.716 15.7299 460.923 15.4932 461.338C15.2564 461.751 15.1381 462.335 15.1381 463.091C15.1381 463.595 15.1911 464.023 15.2971 464.375C15.4032 464.727 15.5557 464.995 15.7545 465.179C15.9553 465.363 16.1968 465.455 16.479 465.455Z" fill="#030229"/>
</g>
<g opacity="0.7">
<path opacity="0.7" d="M41.0016 483.978H40.2172L42.4859 477.799H43.2582L45.5269 483.978H44.7426L42.8962 478.777H42.8479L41.0016 483.978ZM41.2912 481.565H44.4529V482.228H41.2912V481.565ZM49.3132 482.083V479.344H50.0251V483.978H49.3132V483.194H49.2649C49.1563 483.429 48.9873 483.629 48.758 483.794C48.5288 483.957 48.2391 484.038 47.8892 484.038C47.5996 484.038 47.3421 483.975 47.1169 483.848C46.8916 483.72 46.7146 483.526 46.5859 483.269C46.4572 483.01 46.3928 482.683 46.3928 482.289V479.344H47.1048V482.24C47.1048 482.578 47.1993 482.848 47.3884 483.049C47.5794 483.25 47.8228 483.351 48.1185 483.351C48.2955 483.351 48.4755 483.305 48.6585 483.215C48.8435 483.124 48.9984 482.985 49.1231 482.798C49.2498 482.611 49.3132 482.373 49.3132 482.083ZM53.1997 485.812C52.8557 485.812 52.5601 485.768 52.3127 485.68C52.0653 485.593 51.8592 485.478 51.6942 485.336C51.5313 485.195 51.4016 485.044 51.3051 484.883L51.8722 484.485C51.9366 484.569 52.018 484.666 52.1166 484.774C52.2152 484.885 52.3499 484.981 52.5209 485.061C52.6938 485.144 52.9201 485.185 53.1997 485.185C53.5738 485.185 53.8825 485.094 54.1259 484.913C54.3692 484.732 54.4909 484.449 54.4909 484.063V483.121H54.4306C54.3783 483.206 54.3038 483.31 54.2073 483.435C54.1128 483.558 53.976 483.667 53.797 483.764C53.62 483.858 53.3807 483.906 53.079 483.906C52.7049 483.906 52.369 483.817 52.0713 483.64C51.7757 483.463 51.5414 483.206 51.3684 482.868C51.1975 482.53 51.112 482.12 51.112 481.637C51.112 481.162 51.1954 480.749 51.3624 480.397C51.5293 480.043 51.7616 479.769 52.0593 479.576C52.3569 479.381 52.7009 479.284 53.0911 479.284C53.3927 479.284 53.6321 479.334 53.8091 479.435C53.9881 479.533 54.1248 479.646 54.2194 479.772C54.3159 479.897 54.3903 480 54.4426 480.08H54.515V479.344H55.2029V484.111C55.2029 484.509 55.1124 484.833 54.9314 485.082C54.7524 485.334 54.511 485.518 54.2073 485.634C53.9056 485.753 53.5697 485.812 53.1997 485.812ZM53.1755 483.266C53.4611 483.266 53.7025 483.201 53.8996 483.07C54.0967 482.939 54.2465 482.751 54.3491 482.506C54.4517 482.26 54.503 481.967 54.503 481.625C54.503 481.291 54.4527 480.996 54.3521 480.741C54.2516 480.485 54.1027 480.285 53.9056 480.141C53.7085 479.996 53.4652 479.923 53.1755 479.923C52.8738 479.923 52.6224 480 52.4213 480.153C52.2222 480.305 52.0724 480.511 51.9718 480.768C51.8732 481.025 51.824 481.311 51.824 481.625C51.824 481.947 51.8742 482.231 51.9748 482.479C52.0774 482.724 52.2282 482.917 52.4273 483.058C52.6285 483.197 52.8779 483.266 53.1755 483.266ZM61.0557 477.799V483.978H60.3075V478.584H60.2713L58.7628 479.585V478.825L60.3075 477.799H61.0557Z" fill="#030229"/>
<path opacity="0.7" d="M182.002 483.978H181.217L183.486 477.799H184.258L186.527 483.978H185.743L183.896 478.777H183.848L182.002 483.978ZM182.291 481.565H185.453V482.228H182.291V481.565ZM190.313 482.083V479.344H191.025V483.978H190.313V483.194H190.265C190.156 483.429 189.987 483.629 189.758 483.794C189.529 483.957 189.239 484.038 188.889 484.038C188.6 484.038 188.342 483.975 188.117 483.848C187.892 483.72 187.715 483.526 187.586 483.269C187.457 483.01 187.393 482.683 187.393 482.289V479.344H188.105V482.24C188.105 482.578 188.199 482.848 188.388 483.049C188.579 483.25 188.823 483.351 189.118 483.351C189.295 483.351 189.475 483.305 189.658 483.215C189.844 483.124 189.998 482.985 190.123 482.798C190.25 482.611 190.313 482.373 190.313 482.083ZM194.2 485.812C193.856 485.812 193.56 485.768 193.313 485.68C193.065 485.593 192.859 485.478 192.694 485.336C192.531 485.195 192.402 485.044 192.305 484.883L192.872 484.485C192.937 484.569 193.018 484.666 193.117 484.774C193.215 484.885 193.35 484.981 193.521 485.061C193.694 485.144 193.92 485.185 194.2 485.185C194.574 485.185 194.882 485.094 195.126 484.913C195.369 484.732 195.491 484.449 195.491 484.063V483.121H195.431C195.378 483.206 195.304 483.31 195.207 483.435C195.113 483.558 194.976 483.667 194.797 483.764C194.62 483.858 194.381 483.906 194.079 483.906C193.705 483.906 193.369 483.817 193.071 483.64C192.776 483.463 192.541 483.206 192.368 482.868C192.197 482.53 192.112 482.12 192.112 481.637C192.112 481.162 192.195 480.749 192.362 480.397C192.529 480.043 192.762 479.769 193.059 479.576C193.357 479.381 193.701 479.284 194.091 479.284C194.393 479.284 194.632 479.334 194.809 479.435C194.988 479.533 195.125 479.646 195.219 479.772C195.316 479.897 195.39 480 195.443 480.08H195.515V479.344H196.203V484.111C196.203 484.509 196.112 484.833 195.931 485.082C195.752 485.334 195.511 485.518 195.207 485.634C194.906 485.753 194.57 485.812 194.2 485.812ZM194.176 483.266C194.461 483.266 194.702 483.201 194.9 483.07C195.097 482.939 195.247 482.751 195.349 482.506C195.452 482.26 195.503 481.967 195.503 481.625C195.503 481.291 195.453 480.996 195.352 480.741C195.252 480.485 195.103 480.285 194.906 480.141C194.709 479.996 194.465 479.923 194.176 479.923C193.874 479.923 193.622 480 193.421 480.153C193.222 480.305 193.072 480.511 192.972 480.768C192.873 481.025 192.824 481.311 192.824 481.625C192.824 481.947 192.874 482.231 192.975 482.479C193.077 482.724 193.228 482.917 193.427 483.058C193.628 483.197 193.878 483.266 194.176 483.266ZM202.056 477.799V483.978H201.307V478.584H201.271L199.763 479.585V478.825L201.307 477.799H202.056ZM205.848 484.063C205.393 484.063 205.006 483.939 204.686 483.691C204.367 483.442 204.122 483.081 203.953 482.608C203.784 482.134 203.7 481.56 203.7 480.889C203.7 480.221 203.784 479.651 203.953 479.178C204.124 478.703 204.37 478.341 204.689 478.092C205.011 477.841 205.397 477.715 205.848 477.715C206.298 477.715 206.684 477.841 207.003 478.092C207.325 478.341 207.571 478.703 207.739 479.178C207.91 479.651 207.996 480.221 207.996 480.889C207.996 481.56 207.911 482.134 207.743 482.608C207.574 483.081 207.329 483.442 207.009 483.691C206.69 483.939 206.302 484.063 205.848 484.063ZM205.848 483.399C206.298 483.399 206.648 483.182 206.898 482.747C207.147 482.313 207.272 481.693 207.272 480.889C207.272 480.354 207.215 479.898 207.1 479.522C206.987 479.146 206.824 478.859 206.611 478.662C206.4 478.465 206.146 478.367 205.848 478.367C205.401 478.367 205.052 478.587 204.801 479.027C204.55 479.466 204.424 480.086 204.424 480.889C204.424 481.424 204.48 481.878 204.593 482.252C204.705 482.626 204.867 482.911 205.079 483.106C205.292 483.301 205.548 483.399 205.848 483.399Z" fill="#030229"/>
<path opacity="0.7" d="M322.002 483.978H321.217L323.486 477.799H324.258L326.527 483.978H325.743L323.896 478.777H323.848L322.002 483.978ZM322.291 481.565H325.453V482.228H322.291V481.565ZM330.313 482.083V479.344H331.025V483.978H330.313V483.194H330.265C330.156 483.429 329.987 483.629 329.758 483.794C329.529 483.957 329.239 484.038 328.889 484.038C328.6 484.038 328.342 483.975 328.117 483.848C327.892 483.72 327.715 483.526 327.586 483.269C327.457 483.01 327.393 482.683 327.393 482.289V479.344H328.105V482.24C328.105 482.578 328.199 482.848 328.388 483.049C328.579 483.25 328.823 483.351 329.118 483.351C329.295 483.351 329.475 483.305 329.658 483.215C329.844 483.124 329.998 482.985 330.123 482.798C330.25 482.611 330.313 482.373 330.313 482.083ZM334.2 485.812C333.856 485.812 333.56 485.768 333.313 485.68C333.065 485.593 332.859 485.478 332.694 485.336C332.531 485.195 332.402 485.044 332.305 484.883L332.872 484.485C332.937 484.569 333.018 484.666 333.117 484.774C333.215 484.885 333.35 484.981 333.521 485.061C333.694 485.144 333.92 485.185 334.2 485.185C334.574 485.185 334.882 485.094 335.126 484.913C335.369 484.732 335.491 484.449 335.491 484.063V483.121H335.431C335.378 483.206 335.304 483.31 335.207 483.435C335.113 483.558 334.976 483.667 334.797 483.764C334.62 483.858 334.381 483.906 334.079 483.906C333.705 483.906 333.369 483.817 333.071 483.64C332.776 483.463 332.541 483.206 332.368 482.868C332.197 482.53 332.112 482.12 332.112 481.637C332.112 481.162 332.195 480.749 332.362 480.397C332.529 480.043 332.762 479.769 333.059 479.576C333.357 479.381 333.701 479.284 334.091 479.284C334.393 479.284 334.632 479.334 334.809 479.435C334.988 479.533 335.125 479.646 335.219 479.772C335.316 479.897 335.39 480 335.443 480.08H335.515V479.344H336.203V484.111C336.203 484.509 336.112 484.833 335.931 485.082C335.752 485.334 335.511 485.518 335.207 485.634C334.906 485.753 334.57 485.812 334.2 485.812ZM334.176 483.266C334.461 483.266 334.702 483.201 334.9 483.07C335.097 482.939 335.247 482.751 335.349 482.506C335.452 482.26 335.503 481.967 335.503 481.625C335.503 481.291 335.453 480.996 335.352 480.741C335.252 480.485 335.103 480.285 334.906 480.141C334.709 479.996 334.465 479.923 334.176 479.923C333.874 479.923 333.622 480 333.421 480.153C333.222 480.305 333.072 480.511 332.972 480.768C332.873 481.025 332.824 481.311 332.824 481.625C332.824 481.947 332.874 482.231 332.975 482.479C333.077 482.724 333.228 482.917 333.427 483.058C333.628 483.197 333.878 483.266 334.176 483.266ZM339.883 483.978V483.435L341.923 481.202C342.162 480.941 342.359 480.714 342.514 480.521C342.669 480.326 342.784 480.143 342.858 479.972C342.935 479.799 342.973 479.618 342.973 479.429C342.973 479.211 342.92 479.023 342.816 478.864C342.713 478.706 342.573 478.583 342.394 478.496C342.215 478.41 342.013 478.367 341.79 478.367C341.553 478.367 341.346 478.416 341.169 478.514C340.994 478.611 340.858 478.747 340.761 478.922C340.667 479.097 340.62 479.302 340.62 479.537H339.908C339.908 479.175 339.991 478.857 340.158 478.584C340.325 478.31 340.552 478.097 340.84 477.944C341.129 477.791 341.454 477.715 341.814 477.715C342.176 477.715 342.497 477.791 342.777 477.944C343.056 478.097 343.275 478.303 343.434 478.563C343.593 478.822 343.673 479.111 343.673 479.429C343.673 479.656 343.631 479.878 343.549 480.095C343.469 480.31 343.328 480.551 343.127 480.816C342.928 481.08 342.651 481.402 342.297 481.782L340.909 483.266V483.314H343.781V483.978H339.883ZM347.043 484.063C346.588 484.063 346.201 483.939 345.881 483.691C345.561 483.442 345.317 483.081 345.148 482.608C344.979 482.134 344.895 481.56 344.895 480.889C344.895 480.221 344.979 479.651 345.148 479.178C345.319 478.703 345.564 478.341 345.884 478.092C346.206 477.841 346.592 477.715 347.043 477.715C347.493 477.715 347.878 477.841 348.198 478.092C348.52 478.341 348.765 478.703 348.934 479.178C349.105 479.651 349.191 480.221 349.191 480.889C349.191 481.56 349.106 482.134 348.937 482.608C348.768 483.081 348.524 483.442 348.204 483.691C347.884 483.939 347.497 484.063 347.043 484.063ZM347.043 483.399C347.493 483.399 347.843 483.182 348.092 482.747C348.342 482.313 348.467 481.693 348.467 480.889C348.467 480.354 348.409 479.898 348.295 479.522C348.182 479.146 348.019 478.859 347.806 478.662C347.595 478.465 347.34 478.367 347.043 478.367C346.596 478.367 346.247 478.587 345.996 479.027C345.744 479.466 345.619 480.086 345.619 480.889C345.619 481.424 345.675 481.878 345.788 482.252C345.9 482.626 346.062 482.911 346.273 483.106C346.486 483.301 346.743 483.399 347.043 483.399Z" fill="#030229"/>
<path opacity="0.7" d="M466.002 483.978H465.217L467.486 477.799H468.258L470.527 483.978H469.743L467.896 478.777H467.848L466.002 483.978ZM466.291 481.565H469.453V482.228H466.291V481.565ZM474.313 482.083V479.344H475.025V483.978H474.313V483.194H474.265C474.156 483.429 473.987 483.629 473.758 483.794C473.529 483.957 473.239 484.038 472.889 484.038C472.6 484.038 472.342 483.975 472.117 483.848C471.892 483.72 471.715 483.526 471.586 483.269C471.457 483.01 471.393 482.683 471.393 482.289V479.344H472.105V482.24C472.105 482.578 472.199 482.848 472.388 483.049C472.579 483.25 472.823 483.351 473.118 483.351C473.295 483.351 473.475 483.305 473.658 483.215C473.844 483.124 473.998 482.985 474.123 482.798C474.25 482.611 474.313 482.373 474.313 482.083ZM478.2 485.812C477.856 485.812 477.56 485.768 477.313 485.68C477.065 485.593 476.859 485.478 476.694 485.336C476.531 485.195 476.402 485.044 476.305 484.883L476.872 484.485C476.937 484.569 477.018 484.666 477.117 484.774C477.215 484.885 477.35 484.981 477.521 485.061C477.694 485.144 477.92 485.185 478.2 485.185C478.574 485.185 478.882 485.094 479.126 484.913C479.369 484.732 479.491 484.449 479.491 484.063V483.121H479.431C479.378 483.206 479.304 483.31 479.207 483.435C479.113 483.558 478.976 483.667 478.797 483.764C478.62 483.858 478.381 483.906 478.079 483.906C477.705 483.906 477.369 483.817 477.071 483.64C476.776 483.463 476.541 483.206 476.368 482.868C476.197 482.53 476.112 482.12 476.112 481.637C476.112 481.162 476.195 480.749 476.362 480.397C476.529 480.043 476.762 479.769 477.059 479.576C477.357 479.381 477.701 479.284 478.091 479.284C478.393 479.284 478.632 479.334 478.809 479.435C478.988 479.533 479.125 479.646 479.219 479.772C479.316 479.897 479.39 480 479.443 480.08H479.515V479.344H480.203V484.111C480.203 484.509 480.112 484.833 479.931 485.082C479.752 485.334 479.511 485.518 479.207 485.634C478.906 485.753 478.57 485.812 478.2 485.812ZM478.176 483.266C478.461 483.266 478.702 483.201 478.9 483.07C479.097 482.939 479.247 482.751 479.349 482.506C479.452 482.26 479.503 481.967 479.503 481.625C479.503 481.291 479.453 480.996 479.352 480.741C479.252 480.485 479.103 480.285 478.906 480.141C478.709 479.996 478.465 479.923 478.176 479.923C477.874 479.923 477.622 480 477.421 480.153C477.222 480.305 477.072 480.511 476.972 480.768C476.873 481.025 476.824 481.311 476.824 481.625C476.824 481.947 476.874 482.231 476.975 482.479C477.077 482.724 477.228 482.917 477.427 483.058C477.628 483.197 477.878 483.266 478.176 483.266ZM485.971 484.063C485.573 484.063 485.218 483.994 484.906 483.857C484.596 483.721 484.35 483.531 484.167 483.287C483.986 483.042 483.888 482.757 483.871 482.433H484.632C484.648 482.632 484.716 482.804 484.837 482.949C484.958 483.092 485.115 483.203 485.31 483.281C485.506 483.36 485.722 483.399 485.959 483.399C486.225 483.399 486.46 483.353 486.665 483.26C486.87 483.167 487.031 483.039 487.148 482.874C487.264 482.709 487.323 482.518 487.323 482.301C487.323 482.073 487.266 481.873 487.154 481.7C487.041 481.525 486.876 481.389 486.659 481.29C486.442 481.191 486.176 481.142 485.863 481.142H485.368V480.478H485.863C486.108 480.478 486.323 480.434 486.508 480.346C486.695 480.257 486.841 480.132 486.946 479.972C487.052 479.811 487.106 479.622 487.106 479.404C487.106 479.195 487.059 479.013 486.967 478.858C486.874 478.703 486.744 478.583 486.575 478.496C486.408 478.41 486.211 478.367 485.983 478.367C485.77 478.367 485.569 478.406 485.38 478.484C485.193 478.561 485.04 478.672 484.921 478.819C484.803 478.964 484.738 479.139 484.728 479.344H484.004C484.016 479.02 484.114 478.737 484.297 478.493C484.48 478.248 484.719 478.057 485.015 477.92C485.312 477.783 485.639 477.715 485.995 477.715C486.377 477.715 486.705 477.792 486.979 477.947C487.252 478.1 487.463 478.302 487.609 478.554C487.756 478.805 487.83 479.077 487.83 479.368C487.83 479.716 487.738 480.013 487.555 480.258C487.374 480.504 487.128 480.674 486.816 480.768V480.816C487.206 480.881 487.511 481.047 487.73 481.314C487.949 481.58 488.059 481.908 488.059 482.301C488.059 482.637 487.967 482.938 487.784 483.206C487.603 483.471 487.356 483.68 487.042 483.833C486.728 483.986 486.371 484.063 485.971 484.063ZM491.308 484.063C490.854 484.063 490.466 483.939 490.147 483.691C489.827 483.442 489.582 483.081 489.413 482.608C489.245 482.134 489.16 481.56 489.16 480.889C489.16 480.221 489.245 479.651 489.413 479.178C489.584 478.703 489.83 478.341 490.15 478.092C490.471 477.841 490.858 477.715 491.308 477.715C491.759 477.715 492.144 477.841 492.464 478.092C492.785 478.341 493.031 478.703 493.2 479.178C493.371 479.651 493.456 480.221 493.456 480.889C493.456 481.56 493.372 482.134 493.203 482.608C493.034 483.081 492.789 483.442 492.47 483.691C492.15 483.939 491.763 484.063 491.308 484.063ZM491.308 483.399C491.759 483.399 492.109 483.182 492.358 482.747C492.607 482.313 492.732 481.693 492.732 480.889C492.732 480.354 492.675 479.898 492.56 479.522C492.447 479.146 492.285 478.859 492.071 478.662C491.86 478.465 491.606 478.367 491.308 478.367C490.862 478.367 490.513 478.587 490.261 479.027C490.01 479.466 489.884 480.086 489.884 480.889C489.884 481.424 489.94 481.878 490.053 482.252C490.166 482.626 490.328 482.911 490.539 483.106C490.752 483.301 491.008 483.399 491.308 483.399Z" fill="#030229"/>
</g>
<path d="M17.4382 42V28.9091H22.1044C23.1229 28.9091 23.9666 29.0945 24.6357 29.4652C25.3047 29.8359 25.8054 30.343 26.1378 30.9865C26.4702 31.6257 26.6364 32.3459 26.6364 33.147C26.6364 33.9524 26.468 34.6768 26.1314 35.3203C25.799 35.9595 25.2962 36.4666 24.6229 36.8416C23.9538 37.2124 23.1122 37.3977 22.098 37.3977H18.8892V35.723H21.919C22.5625 35.723 23.0845 35.6122 23.4851 35.3906C23.8857 35.1648 24.1797 34.858 24.3672 34.4702C24.5547 34.0824 24.6484 33.6413 24.6484 33.147C24.6484 32.6527 24.5547 32.2138 24.3672 31.8303C24.1797 31.4467 23.8835 31.1463 23.4787 30.929C23.0781 30.7116 22.5497 30.603 21.8935 30.603H19.4134V42H17.4382ZM28.7985 42V32.1818H30.6458V33.7415H30.748C30.927 33.2131 31.2424 32.7976 31.6941 32.495C32.15 32.1882 32.6657 32.0348 33.2409 32.0348C33.3603 32.0348 33.5009 32.0391 33.6628 32.0476C33.829 32.0561 33.959 32.0668 34.0527 32.0795V33.9077C33.976 33.8864 33.8397 33.8629 33.6436 33.8374C33.4476 33.8075 33.2516 33.7926 33.0556 33.7926C32.6039 33.7926 32.2012 33.8885 31.8475 34.0803C31.498 34.2678 31.2211 34.5298 31.0165 34.8665C30.812 35.1989 30.7097 35.5781 30.7097 36.0043V42H28.7985ZM39.4908 42.1982C38.5703 42.1982 37.767 41.9872 37.081 41.5653C36.3949 41.1435 35.8622 40.5533 35.483 39.7947C35.1037 39.0362 34.9141 38.1499 34.9141 37.1357C34.9141 36.1172 35.1037 35.2266 35.483 34.4638C35.8622 33.701 36.3949 33.1087 37.081 32.6868C37.767 32.2649 38.5703 32.054 39.4908 32.054C40.4112 32.054 41.2145 32.2649 41.9006 32.6868C42.5866 33.1087 43.1193 33.701 43.4986 34.4638C43.8778 35.2266 44.0675 36.1172 44.0675 37.1357C44.0675 38.1499 43.8778 39.0362 43.4986 39.7947C43.1193 40.5533 42.5866 41.1435 41.9006 41.5653C41.2145 41.9872 40.4112 42.1982 39.4908 42.1982ZM39.4972 40.5938C40.0938 40.5938 40.5881 40.4361 40.9801 40.1207C41.3722 39.8054 41.6619 39.3857 41.8494 38.8615C42.0412 38.3374 42.1371 37.7599 42.1371 37.1293C42.1371 36.5028 42.0412 35.9276 41.8494 35.4034C41.6619 34.875 41.3722 34.451 40.9801 34.1314C40.5881 33.8118 40.0938 33.652 39.4972 33.652C38.8963 33.652 38.3977 33.8118 38.0014 34.1314C37.6094 34.451 37.3175 34.875 37.1257 35.4034C36.9382 35.9276 36.8445 36.5028 36.8445 37.1293C36.8445 37.7599 36.9382 38.3374 37.1257 38.8615C37.3175 39.3857 37.6094 39.8054 38.0014 40.1207C38.3977 40.4361 38.8963 40.5938 39.4972 40.5938ZM50.8734 32.1818V33.7159H45.3251V32.1818H50.8734ZM46.8464 42V31.044C46.8464 30.4304 46.9806 29.9212 47.2491 29.5163C47.5176 29.1072 47.8734 28.8026 48.3166 28.6023C48.7598 28.3977 49.2413 28.2955 49.7612 28.2955C50.1447 28.2955 50.4728 28.3274 50.7456 28.3913C51.0183 28.451 51.2207 28.5064 51.3528 28.5575L50.9054 30.1044C50.8159 30.0788 50.7008 30.049 50.5602 30.0149C50.4196 29.9766 50.2491 29.9574 50.0488 29.9574C49.5843 29.9574 49.252 30.0724 49.0517 30.3026C48.8556 30.5327 48.7576 30.8651 48.7576 31.2997V42H46.8464ZM52.8453 42V32.1818H54.7566V42H52.8453ZM53.8105 30.6669C53.4782 30.6669 53.1926 30.5561 52.954 30.3345C52.7196 30.1087 52.6025 29.8402 52.6025 29.5291C52.6025 29.2138 52.7196 28.9453 52.954 28.7237C53.1926 28.4979 53.4782 28.3849 53.8105 28.3849C54.1429 28.3849 54.4263 28.4979 54.6607 28.7237C54.8993 28.9453 55.0186 29.2138 55.0186 29.5291C55.0186 29.8402 54.8993 30.1087 54.6607 30.3345C54.4263 30.5561 54.1429 30.6669 53.8105 30.6669ZM61.9109 32.1818V33.7159H56.5479V32.1818H61.9109ZM57.9862 29.8295H59.8974V39.1172C59.8974 39.4879 59.9528 39.767 60.0636 39.9545C60.1744 40.1378 60.3171 40.2635 60.4918 40.3317C60.6708 40.3956 60.8647 40.4276 61.0735 40.4276C61.2269 40.4276 61.3612 40.4169 61.4762 40.3956C61.5913 40.3743 61.6808 40.3572 61.7447 40.3445L62.0898 41.9233C61.979 41.9659 61.8214 42.0085 61.6168 42.0511C61.4123 42.098 61.1566 42.1236 60.8498 42.1278C60.3469 42.1364 59.8782 42.0469 59.4435 41.8594C59.0089 41.6719 58.6573 41.3821 58.3888 40.9901C58.1204 40.598 57.9862 40.1058 57.9862 39.5135V29.8295Z" fill="black"/>
<g filter="url(#filter0_d_2204_6357)">
<rect x="308" y="24" width="88" height="33" rx="8" fill="#448BFF"/>
<g filter="url(#filter1_ddd_2204_6357)">
<path d="M329.612 46L326.788 35.8182H328.404L330.388 43.7031H330.482L332.545 35.8182H334.146L336.21 43.7081H336.304L338.283 35.8182H339.903L337.075 46H335.528L333.386 38.3736H333.306L331.163 46H329.612ZM344.124 46.1541C343.372 46.1541 342.724 45.9934 342.18 45.6719C341.64 45.3471 341.222 44.8913 340.927 44.3047C340.636 43.7147 340.49 43.0237 340.49 42.2315C340.49 41.4493 340.636 40.7599 340.927 40.1634C341.222 39.5668 341.633 39.1011 342.16 38.7663C342.691 38.4316 343.31 38.2642 344.02 38.2642C344.451 38.2642 344.868 38.3355 345.273 38.478C345.677 38.6205 346.04 38.8442 346.361 39.1491C346.683 39.4541 346.936 39.8501 347.122 40.3374C347.308 40.8213 347.4 41.4096 347.4 42.1023V42.6293H341.33V41.5156H345.944C345.944 41.1245 345.864 40.7782 345.705 40.4766C345.546 40.1716 345.322 39.9313 345.034 39.7557C344.749 39.58 344.414 39.4922 344.03 39.4922C343.612 39.4922 343.247 39.5949 342.936 39.8004C342.628 40.0026 342.389 40.2678 342.22 40.5959C342.054 40.9207 341.971 41.2737 341.971 41.6548V42.5249C341.971 43.0353 342.061 43.4695 342.24 43.8274C342.422 44.1854 342.676 44.4588 343 44.6477C343.325 44.8333 343.705 44.9261 344.139 44.9261C344.421 44.9261 344.678 44.8864 344.91 44.8068C345.142 44.724 345.342 44.6013 345.511 44.4389C345.68 44.2765 345.809 44.076 345.899 43.8374L347.306 44.0909C347.193 44.5052 346.991 44.8681 346.699 45.1797C346.411 45.4879 346.048 45.7282 345.611 45.9006C345.176 46.0696 344.681 46.1541 344.124 46.1541ZM352.741 46.1541C351.989 46.1541 351.341 45.9934 350.797 45.6719C350.257 45.3471 349.839 44.8913 349.544 44.3047C349.252 43.7147 349.107 43.0237 349.107 42.2315C349.107 41.4493 349.252 40.7599 349.544 40.1634C349.839 39.5668 350.25 39.1011 350.777 38.7663C351.307 38.4316 351.927 38.2642 352.636 38.2642C353.067 38.2642 353.485 38.3355 353.889 38.478C354.294 38.6205 354.657 38.8442 354.978 39.1491C355.3 39.4541 355.553 39.8501 355.739 40.3374C355.924 40.8213 356.017 41.4096 356.017 42.1023V42.6293H349.947V41.5156H354.56C354.56 41.1245 354.481 40.7782 354.322 40.4766C354.163 40.1716 353.939 39.9313 353.651 39.7557C353.366 39.58 353.031 39.4922 352.646 39.4922C352.229 39.4922 351.864 39.5949 351.553 39.8004C351.244 40.0026 351.006 40.2678 350.837 40.5959C350.671 40.9207 350.588 41.2737 350.588 41.6548V42.5249C350.588 43.0353 350.678 43.4695 350.857 43.8274C351.039 44.1854 351.292 44.4588 351.617 44.6477C351.942 44.8333 352.322 44.9261 352.756 44.9261C353.038 44.9261 353.294 44.8864 353.526 44.8068C353.758 44.724 353.959 44.6013 354.128 44.4389C354.297 44.2765 354.426 44.076 354.516 43.8374L355.923 44.0909C355.81 44.5052 355.608 44.8681 355.316 45.1797C355.028 45.4879 354.665 45.7282 354.227 45.9006C353.793 46.0696 353.298 46.1541 352.741 46.1541ZM359.434 43.4098L359.424 41.5952H359.682L362.725 38.3636H364.505L361.035 42.0426H360.801L359.434 43.4098ZM358.066 46V35.8182H359.553V46H358.066ZM362.889 46L360.155 42.3707L361.179 41.3317L364.713 46H362.889ZM367.746 35.8182V46H366.259V35.8182H367.746ZM371.085 48.8636C370.863 48.8636 370.661 48.8454 370.479 48.8089C370.297 48.7758 370.161 48.7393 370.071 48.6996L370.429 47.4815C370.701 47.5545 370.943 47.5859 371.155 47.576C371.367 47.5661 371.554 47.4865 371.717 47.3374C371.883 47.1882 372.028 46.9446 372.154 46.6065L372.338 46.0994L369.544 38.3636H371.135L373.069 44.2898H373.149L375.083 38.3636H376.678L373.531 47.0192C373.386 47.4169 373.2 47.7533 372.975 48.0284C372.749 48.3068 372.481 48.5156 372.169 48.6548C371.858 48.794 371.496 48.8636 371.085 48.8636Z" fill="#FEFFFF"/>
</g>
<g filter="url(#filter2_ddd_2204_6357)">
<path d="M420.619 35.8182H422.483L425.724 43.733H425.844L429.085 35.8182H430.95V46H429.488V38.6321H429.393L426.391 45.9851H425.178L422.175 38.6271H422.08V46H420.619V35.8182ZM436.68 46.1541C435.964 46.1541 435.34 45.9901 434.806 45.6619C434.272 45.3338 433.858 44.8748 433.563 44.2848C433.268 43.6948 433.121 43.0054 433.121 42.2166C433.121 41.4245 433.268 40.7318 433.563 40.1385C433.858 39.5452 434.272 39.0845 434.806 38.7564C435.34 38.4283 435.964 38.2642 436.68 38.2642C437.396 38.2642 438.021 38.4283 438.555 38.7564C439.088 39.0845 439.503 39.5452 439.798 40.1385C440.093 40.7318 440.24 41.4245 440.24 42.2166C440.24 43.0054 440.093 43.6948 439.798 44.2848C439.503 44.8748 439.088 45.3338 438.555 45.6619C438.021 45.9901 437.396 46.1541 436.68 46.1541ZM436.685 44.9062C437.149 44.9062 437.534 44.7836 437.839 44.5384C438.144 44.2931 438.369 43.9666 438.515 43.5589C438.664 43.1513 438.739 42.7022 438.739 42.2116C438.739 41.7244 438.664 41.277 438.515 40.8693C438.369 40.4583 438.144 40.1286 437.839 39.88C437.534 39.6314 437.149 39.5071 436.685 39.5071C436.218 39.5071 435.83 39.6314 435.522 39.88C435.217 40.1286 434.99 40.4583 434.841 40.8693C434.695 41.277 434.622 41.7244 434.622 42.2116C434.622 42.7022 434.695 43.1513 434.841 43.5589C434.99 43.9666 435.217 44.2931 435.522 44.5384C435.83 44.7836 436.218 44.9062 436.685 44.9062ZM443.786 41.4659V46H442.299V38.3636H443.726V39.6065H443.821C443.996 39.2022 444.271 38.8774 444.646 38.6321C445.024 38.3868 445.499 38.2642 446.073 38.2642C446.593 38.2642 447.049 38.3736 447.44 38.5923C447.831 38.8078 448.134 39.1293 448.35 39.5568C448.565 39.9844 448.673 40.513 448.673 41.1428V46H447.186V41.3217C447.186 40.7682 447.042 40.3357 446.754 40.0241C446.465 39.7093 446.069 39.5518 445.566 39.5518C445.221 39.5518 444.914 39.6264 444.646 39.7756C444.381 39.9247 444.17 40.1435 444.014 40.4318C443.862 40.7169 443.786 41.0616 443.786 41.4659ZM454.631 38.3636V39.5568H450.46V38.3636H454.631ZM451.579 36.5341H453.065V43.7578C453.065 44.0462 453.108 44.2633 453.194 44.4091C453.28 44.5516 453.392 44.6494 453.527 44.7024C453.667 44.7521 453.817 44.777 453.98 44.777C454.099 44.777 454.204 44.7687 454.293 44.7521C454.383 44.7356 454.452 44.7223 454.502 44.7124L454.77 45.9403C454.684 45.9735 454.562 46.0066 454.402 46.0398C454.243 46.0762 454.044 46.0961 453.806 46.0994C453.415 46.1061 453.05 46.0365 452.712 45.8906C452.374 45.7448 452.101 45.5194 451.892 45.2145C451.683 44.9096 451.579 44.5268 451.579 44.0661V36.5341ZM458.326 41.4659V46H456.84V35.8182H458.306V39.6065H458.401C458.58 39.1955 458.853 38.8691 459.221 38.6271C459.589 38.3852 460.069 38.2642 460.663 38.2642C461.186 38.2642 461.644 38.3719 462.035 38.5874C462.429 38.8028 462.734 39.1243 462.95 39.5518C463.168 39.9761 463.278 40.5064 463.278 41.1428V46H461.791V41.3217C461.791 40.7616 461.647 40.3274 461.359 40.0192C461.07 39.7076 460.669 39.5518 460.156 39.5518C459.804 39.5518 459.489 39.6264 459.211 39.7756C458.936 39.9247 458.719 40.1435 458.56 40.4318C458.404 40.7169 458.326 41.0616 458.326 41.4659ZM467.148 35.8182V46H465.661V35.8182H467.148ZM470.487 48.8636C470.265 48.8636 470.063 48.8454 469.881 48.8089C469.699 48.7758 469.563 48.7393 469.473 48.6996L469.831 47.4815C470.103 47.5545 470.345 47.5859 470.557 47.576C470.769 47.5661 470.956 47.4865 471.119 47.3374C471.284 47.1882 471.43 46.9446 471.556 46.6065L471.74 46.0994L468.946 38.3636H470.537L472.471 44.2898H472.551L474.485 38.3636H476.08L472.933 47.0192C472.788 47.4169 472.602 47.7533 472.377 48.0284C472.151 48.3068 471.883 48.5156 471.571 48.6548C471.26 48.794 470.898 48.8636 470.487 48.8636Z" fill="#448BFF"/>
</g>
<rect x="308.5" y="24.5" width="183" height="32" rx="7.5" stroke="#2F2F2F" stroke-opacity="0.2" shape-rendering="crispEdges"/>
</g>
<defs>
<filter id="filter0_d_2204_6357" x="278.5" y="0" width="237.5" height="81" filterUnits="userSpaceOnUse" color-interpolation-filters="sRGB">
<feFlood flood-opacity="0" result="BackgroundImageFix"/>
<feColorMatrix in="SourceAlpha" type="matrix" values="0 0 0 0 0 0 0 0 0 0 0 0 0 0 0 0 0 0 127 0" result="hardAlpha"/>
<feMorphology radius="8" operator="dilate" in="SourceAlpha" result="effect1_dropShadow_2204_6357"/>
<feOffset/>
<feGaussianBlur stdDeviation="8"/>
<feComposite in2="hardAlpha" operator="out"/>
<feColorMatrix type="matrix" values="0 0 0 0 0 0 0 0 0 0 0 0 0 0 0 0 0 0 0.02 0"/>
<feBlend mode="normal" in2="BackgroundImageFix" result="effect1_dropShadow_2204_6357"/>
<feBlend mode="normal" in="SourceGraphic" in2="effect1_dropShadow_2204_6357" result="shape"/>
</filter>
<filter id="filter1_ddd_2204_6357" x="297.5" y="20" width="109" height="43" filterUnits="userSpaceOnUse" color-interpolation-filters="sRGB">
<feFlood flood-opacity="0" result="BackgroundImageFix"/>
<feColorMatrix in="SourceAlpha" type="matrix" values="0 0 0 0 0 0 0 0 0 0 0 0 0 0 0 0 0 0 127 0" result="hardAlpha"/>
<feMorphology radius="2" operator="erode" in="SourceAlpha" result="effect1_dropShadow_2204_6357"/>
<feOffset dy="3"/>
<feGaussianBlur stdDeviation="0.5"/>
<feComposite in2="hardAlpha" operator="out"/>
<feColorMatrix type="matrix" values="0 0 0 0 0 0 0 0 0 0 0 0 0 0 0 0 0 0 0.2 0"/>
<feBlend mode="normal" in2="BackgroundImageFix" result="effect1_dropShadow_2204_6357"/>
<feColorMatrix in="SourceAlpha" type="matrix" values="0 0 0 0 0 0 0 0 0 0 0 0 0 0 0 0 0 0 127 0" result="hardAlpha"/>
<feOffset dy="2"/>
<feGaussianBlur stdDeviation="1"/>
<feComposite in2="hardAlpha" operator="out"/>
<feColorMatrix type="matrix" values="0 0 0 0 0 0 0 0 0 0 0 0 0 0 0 0 0 0 0.14 0"/>
<feBlend mode="normal" in2="effect1_dropShadow_2204_6357" result="effect2_dropShadow_2204_6357"/>
<feColorMatrix in="SourceAlpha" type="matrix" values="0 0 0 0 0 0 0 0 0 0 0 0 0 0 0 0 0 0 127 0" result="hardAlpha"/>
<feOffset dy="1"/>
<feGaussianBlur stdDeviation="2.5"/>
<feComposite in2="hardAlpha" operator="out"/>
<feColorMatrix type="matrix" values="0 0 0 0 0 0 0 0 0 0 0 0 0 0 0 0 0 0 0.12 0"/>
<feBlend mode="normal" in2="effect2_dropShadow_2204_6357" result="effect3_dropShadow_2204_6357"/>
<feBlend mode="normal" in="SourceGraphic" in2="effect3_dropShadow_2204_6357" result="shape"/>
</filter>
<filter id="filter2_ddd_2204_6357" x="399.5" y="20" width="97" height="43" filterUnits="userSpaceOnUse" color-interpolation-filters="sRGB">
<feFlood flood-opacity="0" result="BackgroundImageFix"/>
<feColorMatrix in="SourceAlpha" type="matrix" values="0 0 0 0 0 0 0 0 0 0 0 0 0 0 0 0 0 0 127 0" result="hardAlpha"/>
<feMorphology radius="2" operator="erode" in="SourceAlpha" result="effect1_dropShadow_2204_6357"/>
<feOffset dy="3"/>
<feGaussianBlur stdDeviation="0.5"/>
<feComposite in2="hardAlpha" operator="out"/>
<feColorMatrix type="matrix" values="0 0 0 0 0 0 0 0 0 0 0 0 0 0 0 0 0 0 0.2 0"/>
<feBlend mode="normal" in2="BackgroundImageFix" result="effect1_dropShadow_2204_6357"/>
<feColorMatrix in="SourceAlpha" type="matrix" values="0 0 0 0 0 0 0 0 0 0 0 0 0 0 0 0 0 0 127 0" result="hardAlpha"/>
<feOffset dy="2"/>
<feGaussianBlur stdDeviation="1"/>
<feComposite in2="hardAlpha" operator="out"/>
<feColorMatrix type="matrix" values="0 0 0 0 0 0 0 0 0 0 0 0 0 0 0 0 0 0 0.14 0"/>
<feBlend mode="normal" in2="effect1_dropShadow_2204_6357" result="effect2_dropShadow_2204_6357"/>
<feColorMatrix in="SourceAlpha" type="matrix" values="0 0 0 0 0 0 0 0 0 0 0 0 0 0 0 0 0 0 127 0" result="hardAlpha"/>
<feOffset dy="1"/>
<feGaussianBlur stdDeviation="2.5"/>
<feComposite in2="hardAlpha" operator="out"/>
<feColorMatrix type="matrix" values="0 0 0 0 0 0 0 0 0 0 0 0 0 0 0 0 0 0 0.12 0"/>
<feBlend mode="normal" in2="effect2_dropShadow_2204_6357" result="effect3_dropShadow_2204_6357"/>
<feBlend mode="normal" in="SourceGraphic" in2="effect3_dropShadow_2204_6357" result="shape"/>
</filter>
</defs>
</svg>
