<svg width="669" height="354" viewBox="0 0 669 354" fill="none" xmlns="http://www.w3.org/2000/svg">
  <line opacity="0.05" x1="43.7676" y1="318.829" x2="663" y2="318.829" stroke="black"
    stroke-width="0.967551" />
  <line opacity="0.05" x1="43.7676" y1="269.484" x2="663" y2="269.484" stroke="black"
    stroke-width="0.967551" />
  <line opacity="0.05" x1="43.7676" y1="220.139" x2="663" y2="220.139" stroke="black"
    stroke-width="0.967551" />
  <line opacity="0.05" x1="43.7676" y1="170.794" x2="663" y2="170.794" stroke="black"
    stroke-width="0.967551" />
  <line opacity="0.05" x1="43.7676" y1="121.449" x2="663" y2="121.449" stroke="black"
    stroke-width="0.967551" />
  <line opacity="0.05" x1="43.7676" y1="72.1039" x2="663" y2="72.1039" stroke="black"
    stroke-width="0.967551" />
  <g opacity="0.7">
    <path opacity="0.7"
      d="M4.61678 67.403V75.847H3.59426V68.475H3.54478L1.48323 69.8438V68.8048L3.59426 67.403H4.61678ZM9.7995 75.9625C9.17829 75.9625 8.64916 75.7934 8.21211 75.4554C7.77507 75.1145 7.4411 74.6211 7.2102 73.9752C6.97931 73.3265 6.86386 72.5431 6.86386 71.625C6.86386 70.7124 6.97931 69.9332 7.2102 69.2872C7.44385 68.6385 7.77919 68.1437 8.21624 67.8029C8.65603 67.4593 9.18379 67.2875 9.7995 67.2875C10.4152 67.2875 10.9416 67.4593 11.3786 67.8029C11.8184 68.1437 12.1538 68.6385 12.3847 69.2872C12.6183 69.9332 12.7351 70.7124 12.7351 71.625C12.7351 72.5431 12.6197 73.3265 12.3888 73.9752C12.1579 74.6211 11.8239 75.1145 11.3869 75.4554C10.9498 75.7934 10.4207 75.9625 9.7995 75.9625ZM9.7995 75.0554C10.4152 75.0554 10.8935 74.7586 11.2343 74.1648C11.5752 73.5711 11.7456 72.7245 11.7456 71.625C11.7456 70.8938 11.6673 70.2713 11.5106 69.7572C11.3567 69.2432 11.134 68.8515 10.8426 68.5822C10.554 68.3128 10.2063 68.1781 9.7995 68.1781C9.18929 68.1781 8.71238 68.4791 8.36879 69.0811C8.0252 69.6803 7.85341 70.5283 7.85341 71.625C7.85341 72.3562 7.93037 72.9774 8.0843 73.4886C8.23823 73.9999 8.4595 74.3888 8.74812 74.6555C9.03948 74.9221 9.38994 75.0554 9.7995 75.0554ZM17.0561 75.9625C16.4349 75.9625 15.9058 75.7934 15.4688 75.4554C15.0317 75.1145 14.6977 74.6211 14.4668 73.9752C14.2359 73.3265 14.1205 72.5431 14.1205 71.625C14.1205 70.7124 14.2359 69.9332 14.4668 69.2872C14.7005 68.6385 15.0358 68.1437 15.4729 67.8029C15.9127 67.4593 16.4404 67.2875 17.0561 67.2875C17.6719 67.2875 18.1982 67.4593 18.6353 67.8029C19.0751 68.1437 19.4104 68.6385 19.6413 69.2872C19.875 69.9332 19.9918 70.7124 19.9918 71.625C19.9918 72.5431 19.8763 73.3265 19.6454 73.9752C19.4145 74.6211 19.0806 75.1145 18.6435 75.4554C18.2065 75.7934 17.6774 75.9625 17.0561 75.9625ZM17.0561 75.0554C17.6719 75.0554 18.1501 74.7586 18.491 74.1648C18.8318 73.5711 19.0022 72.7245 19.0022 71.625C19.0022 70.8938 18.9239 70.2713 18.7672 69.7572C18.6133 69.2432 18.3906 68.8515 18.0993 68.5822C17.8107 68.3128 17.463 68.1781 17.0561 68.1781C16.4459 68.1781 15.969 68.4791 15.6254 69.0811C15.2818 69.6803 15.11 70.5283 15.11 71.625C15.11 72.3562 15.187 72.9774 15.3409 73.4886C15.4949 73.9999 15.7161 74.3888 16.0048 74.6555C16.2961 74.9221 16.6466 75.0554 17.0561 75.0554ZM22.4821 73.5381L22.4656 72.3342H22.6635L25.4343 69.514H26.6382L23.6861 72.4991H23.6036L22.4821 73.5381ZM21.575 75.847V67.403H22.5481V75.847H21.575ZM25.5992 75.847L23.1253 72.7135L23.818 72.0373L26.8361 75.847H25.5992Z"
      fill="black" />
    <path opacity="0.7"
      d="M4.85207 125.308C4.28584 125.308 3.78557 125.207 3.35127 125.007C2.91972 124.803 2.583 124.524 2.34111 124.17C2.09923 123.812 1.97966 123.406 1.9824 122.949C1.97966 122.592 2.04975 122.262 2.19268 121.96C2.33562 121.655 2.53078 121.4 2.77816 121.197C3.02829 120.991 3.30729 120.86 3.61515 120.805V120.756C3.21109 120.651 2.88948 120.425 2.65035 120.076C2.41121 119.724 2.29301 119.324 2.29576 118.876C2.29301 118.447 2.40159 118.063 2.62148 117.725C2.84138 117.387 3.14374 117.121 3.52856 116.925C3.91613 116.73 4.3573 116.633 4.85207 116.633C5.34135 116.633 5.7784 116.73 6.16322 116.925C6.54804 117.121 6.8504 117.387 7.0703 117.725C7.29294 118.063 7.40564 118.447 7.40839 118.876C7.40564 119.324 7.28332 119.724 7.04143 120.076C6.8023 120.425 6.48482 120.651 6.089 120.756V120.805C6.39411 120.86 6.66898 120.991 6.91362 121.197C7.15826 121.4 7.35341 121.655 7.4991 121.96C7.64478 122.262 7.719 122.592 7.72174 122.949C7.719 123.406 7.5953 123.812 7.35067 124.17C7.10878 124.524 6.77206 124.803 6.34051 125.007C5.91171 125.207 5.41556 125.308 4.85207 125.308ZM4.85207 124.401C5.23415 124.401 5.56399 124.339 5.84162 124.215C6.11924 124.091 6.33364 123.917 6.48482 123.691C6.636 123.466 6.71296 123.202 6.71571 122.9C6.71296 122.581 6.6305 122.299 6.46833 122.055C6.30615 121.81 6.08488 121.618 5.80451 121.477C5.52689 121.337 5.20941 121.267 4.85207 121.267C4.49199 121.267 4.17039 121.337 3.88727 121.477C3.6069 121.618 3.38563 121.81 3.22345 122.055C3.06403 122.299 2.98569 122.581 2.98844 122.9C2.98569 123.202 3.05853 123.466 3.20696 123.691C3.35814 123.917 3.57392 124.091 3.85429 124.215C4.13466 124.339 4.46725 124.401 4.85207 124.401ZM4.85207 120.393C5.15443 120.393 5.42244 120.333 5.65608 120.212C5.89247 120.091 6.07801 119.922 6.21269 119.704C6.34738 119.487 6.4161 119.233 6.41885 118.942C6.4161 118.656 6.34876 118.407 6.21682 118.195C6.08488 117.981 5.90209 117.816 5.66845 117.701C5.4348 117.582 5.16268 117.523 4.85207 117.523C4.53597 117.523 4.25972 117.582 4.02333 117.701C3.78694 117.816 3.60415 117.981 3.47496 118.195C3.34577 118.407 3.28255 118.656 3.2853 118.942C3.28255 119.233 3.34715 119.487 3.47909 119.704C3.61377 119.922 3.79931 120.091 4.0357 120.212C4.27209 120.333 4.54422 120.393 4.85207 120.393ZM12.0561 125.308C11.4349 125.308 10.9058 125.139 10.4688 124.801C10.0317 124.46 9.69773 123.966 9.46684 123.32C9.23595 122.672 9.1205 121.888 9.1205 120.97C9.1205 120.058 9.23595 119.278 9.46684 118.632C9.70048 117.984 10.0358 117.489 10.4729 117.148C10.9127 116.805 11.4404 116.633 12.0561 116.633C12.6719 116.633 13.1982 116.805 13.6353 117.148C14.0751 117.489 14.4104 117.984 14.6413 118.632C14.875 119.278 14.9918 120.058 14.9918 120.97C14.9918 121.888 14.8763 122.672 14.6454 123.32C14.4145 123.966 14.0806 124.46 13.6435 124.801C13.2065 125.139 12.6774 125.308 12.0561 125.308ZM12.0561 124.401C12.6719 124.401 13.1501 124.104 13.491 123.51C13.8318 122.916 14.0022 122.07 14.0022 120.97C14.0022 120.239 13.9239 119.616 13.7672 119.102C13.6133 118.588 13.3906 118.197 13.0993 117.927C12.8107 117.658 12.463 117.523 12.0561 117.523C11.4459 117.523 10.969 117.824 10.6254 118.426C10.2818 119.025 10.11 119.873 10.11 120.97C10.11 121.701 10.187 122.323 10.3409 122.834C10.4949 123.345 10.7161 123.734 11.0048 124.001C11.2961 124.267 11.6466 124.401 12.0561 124.401ZM17.4821 122.883L17.4656 121.679H17.6635L20.4343 118.859H21.6382L18.6861 121.844H18.6036L17.4821 122.883ZM16.575 125.192V116.748H17.5481V125.192H16.575ZM20.5992 125.192L18.1253 122.059L18.818 121.383L21.8361 125.192H20.5992Z"
      fill="black" />
    <path opacity="0.7"
      d="M4.86032 174.653C4.51398 174.647 4.16764 174.581 3.8213 174.455C3.47496 174.328 3.15886 174.115 2.87299 173.816C2.58712 173.513 2.35761 173.105 2.18444 172.591C2.01127 172.074 1.92468 171.426 1.92468 170.645C1.92468 169.897 1.99477 169.235 2.13496 168.658C2.27514 168.078 2.47855 167.59 2.74518 167.194C3.0118 166.795 3.3334 166.493 3.70998 166.287C4.0893 166.081 4.51673 165.978 4.99226 165.978C5.46504 165.978 5.8856 166.073 6.25392 166.262C6.625 166.449 6.92736 166.71 7.161 167.046C7.39465 167.381 7.54583 167.767 7.61454 168.204H6.60851C6.51505 167.825 6.33364 167.51 6.06426 167.26C5.79489 167.01 5.43755 166.885 4.99226 166.885C4.33806 166.885 3.82268 167.169 3.4461 167.738C3.07227 168.307 2.88399 169.106 2.88124 170.134H2.94721C3.10114 169.9 3.28393 169.701 3.49558 169.536C3.70998 169.368 3.94637 169.239 4.20475 169.148C4.46313 169.058 4.73663 169.012 5.02524 169.012C5.50902 169.012 5.95156 169.133 6.35288 169.375C6.75419 169.614 7.07579 169.945 7.31768 170.369C7.55957 170.789 7.68051 171.272 7.68051 171.816C7.68051 172.338 7.56369 172.817 7.33005 173.251C7.09641 173.682 6.76794 174.026 6.34463 174.282C5.92408 174.534 5.42931 174.658 4.86032 174.653ZM4.86032 173.746C5.20666 173.746 5.51727 173.659 5.79214 173.486C6.06976 173.313 6.28828 173.08 6.44771 172.789C6.60988 172.498 6.69097 172.173 6.69097 171.816C6.69097 171.467 6.61263 171.149 6.45596 170.864C6.30203 170.575 6.089 170.345 5.81688 170.175C5.5475 170.005 5.23964 169.919 4.89331 169.919C4.63218 169.919 4.38891 169.972 4.16352 170.076C3.93812 170.178 3.74021 170.318 3.56979 170.497C3.40212 170.675 3.27018 170.88 3.17398 171.111C3.07777 171.339 3.02967 171.58 3.02967 171.832C3.02967 172.168 3.10801 172.481 3.26469 172.773C3.42411 173.064 3.64126 173.299 3.91613 173.478C4.19375 173.656 4.50848 173.746 4.86032 173.746ZM12.0561 174.653C11.4349 174.653 10.9058 174.484 10.4688 174.146C10.0317 173.805 9.69773 173.311 9.46684 172.665C9.23595 172.017 9.1205 171.233 9.1205 170.315C9.1205 169.403 9.23595 168.623 9.46684 167.977C9.70048 167.329 10.0358 166.834 10.4729 166.493C10.9127 166.149 11.4404 165.978 12.0561 165.978C12.6719 165.978 13.1982 166.149 13.6353 166.493C14.0751 166.834 14.4104 167.329 14.6413 167.977C14.875 168.623 14.9918 169.403 14.9918 170.315C14.9918 171.233 14.8763 172.017 14.6454 172.665C14.4145 173.311 14.0806 173.805 13.6435 174.146C13.2065 174.484 12.6774 174.653 12.0561 174.653ZM12.0561 173.746C12.6719 173.746 13.1501 173.449 13.491 172.855C13.8318 172.261 14.0022 171.415 14.0022 170.315C14.0022 169.584 13.9239 168.961 13.7672 168.447C13.6133 167.933 13.3906 167.542 13.0993 167.272C12.8107 167.003 12.463 166.868 12.0561 166.868C11.4459 166.868 10.969 167.169 10.6254 167.771C10.2818 168.37 10.11 169.218 10.11 170.315C10.11 171.046 10.187 171.668 10.3409 172.179C10.4949 172.69 10.7161 173.079 11.0048 173.346C11.2961 173.612 11.6466 173.746 12.0561 173.746ZM17.4821 172.228L17.4656 171.024H17.6635L20.4343 168.204H21.6382L18.6861 171.189H18.6036L17.4821 172.228ZM16.575 174.537V166.093H17.5481V174.537H16.575ZM20.5992 174.537L18.1253 171.404L18.818 170.727L21.8361 174.537H20.5992Z"
      fill="black" />
    <path opacity="0.7"
      d="M1.65462 222.151V221.31L5.3654 215.438H5.97562V216.741H5.56331L2.75961 221.178V221.244H7.75679V222.151H1.65462ZM5.62928 223.882V221.895V221.503V215.438H6.60232V223.882H5.62928ZM12.0561 223.998C11.4349 223.998 10.9058 223.829 10.4688 223.491C10.0317 223.15 9.69773 222.657 9.46684 222.011C9.23595 221.362 9.1205 220.578 9.1205 219.66C9.1205 218.748 9.23595 217.969 9.46684 217.323C9.70048 216.674 10.0358 216.179 10.4729 215.838C10.9127 215.495 11.4404 215.323 12.0561 215.323C12.6719 215.323 13.1982 215.495 13.6353 215.838C14.0751 216.179 14.4104 216.674 14.6413 217.323C14.875 217.969 14.9918 218.748 14.9918 219.66C14.9918 220.578 14.8763 221.362 14.6454 222.011C14.4145 222.657 14.0806 223.15 13.6435 223.491C13.2065 223.829 12.6774 223.998 12.0561 223.998ZM12.0561 223.091C12.6719 223.091 13.1501 222.794 13.491 222.2C13.8318 221.607 14.0022 220.76 14.0022 219.66C14.0022 218.929 13.9239 218.307 13.7672 217.793C13.6133 217.279 13.3906 216.887 13.0993 216.618C12.8107 216.348 12.463 216.214 12.0561 216.214C11.4459 216.214 10.969 216.514 10.6254 217.116C10.2818 217.716 10.11 218.564 10.11 219.66C10.11 220.392 10.187 221.013 10.3409 221.524C10.4949 222.035 10.7161 222.424 11.0048 222.691C11.2961 222.958 11.6466 223.091 12.0561 223.091ZM17.4821 221.574L17.4656 220.37H17.6635L20.4343 217.549H21.6382L18.6861 220.534H18.6036L17.4821 221.574ZM16.575 223.882V215.438H17.5481V223.882H16.575ZM20.5992 223.882L18.1253 220.749L18.818 220.073L21.8361 223.882H20.5992Z"
      fill="black" />
    <path opacity="0.7"
      d="M2.27205 273.228V272.485L5.05926 269.434C5.38636 269.077 5.65573 268.766 5.86739 268.502C6.07904 268.236 6.23571 267.986 6.33742 267.752C6.44187 267.516 6.49409 267.268 6.49409 267.01C6.49409 266.713 6.42263 266.456 6.27969 266.239C6.13951 266.022 5.9471 265.854 5.70246 265.736C5.45782 265.618 5.18295 265.559 4.87784 265.559C4.55349 265.559 4.27038 265.626 4.02849 265.761C3.78935 265.893 3.60381 266.078 3.47187 266.317C3.34268 266.556 3.27809 266.837 3.27809 267.158H2.30504C2.30504 266.664 2.41911 266.229 2.64725 265.855C2.8754 265.482 3.186 265.19 3.57907 264.981C3.97489 264.772 4.41881 264.668 4.91083 264.668C5.4056 264.668 5.84402 264.772 6.22609 264.981C6.60817 265.19 6.90778 265.472 7.12493 265.827C7.34208 266.181 7.45065 266.576 7.45065 267.01C7.45065 267.321 7.3943 267.624 7.2816 267.921C7.17166 268.215 6.97924 268.544 6.70437 268.907C6.43225 269.267 6.0543 269.706 5.57052 270.226L3.6739 272.254V272.32H7.59908V273.228H2.27205ZM12.0561 273.343C11.4349 273.343 10.9058 273.174 10.4688 272.836C10.0317 272.495 9.69773 272.002 9.46684 271.356C9.23595 270.707 9.1205 269.924 9.1205 269.005C9.1205 268.093 9.23595 267.314 9.46684 266.668C9.70048 266.019 10.0358 265.524 10.4729 265.183C10.9127 264.84 11.4404 264.668 12.0561 264.668C12.6719 264.668 13.1982 264.84 13.6353 265.183C14.0751 265.524 14.4104 266.019 14.6413 266.668C14.875 267.314 14.9918 268.093 14.9918 269.005C14.9918 269.924 14.8763 270.707 14.6454 271.356C14.4145 272.002 14.0806 272.495 13.6435 272.836C13.2065 273.174 12.6774 273.343 12.0561 273.343ZM12.0561 272.436C12.6719 272.436 13.1501 272.139 13.491 271.545C13.8318 270.952 14.0022 270.105 14.0022 269.005C14.0022 268.274 13.9239 267.652 13.7672 267.138C13.6133 266.624 13.3906 266.232 13.0993 265.963C12.8107 265.693 12.463 265.559 12.0561 265.559C11.4459 265.559 10.969 265.86 10.6254 266.462C10.2818 267.061 10.11 267.909 10.11 269.005C10.11 269.737 10.187 270.358 10.3409 270.869C10.4949 271.38 10.7161 271.769 11.0048 272.036C11.2961 272.303 11.6466 272.436 12.0561 272.436ZM17.4821 270.919L17.4656 269.715H17.6635L20.4343 266.894H21.6382L18.6861 269.88H18.6036L17.4821 270.919ZM16.575 273.228V264.783H17.5481V273.228H16.575ZM20.5992 273.228L18.1253 270.094L18.818 269.418L21.8361 273.228H20.5992Z"
      fill="black" />
    <path opacity="0.7"
      d="M5.05614 322.688C4.43493 322.688 3.9058 322.519 3.46875 322.181C3.0317 321.84 2.69773 321.347 2.46684 320.701C2.23595 320.052 2.1205 319.269 2.1205 318.351C2.1205 317.438 2.23595 316.659 2.46684 316.013C2.70048 315.364 3.03583 314.869 3.47287 314.529C3.91267 314.185 4.44043 314.013 5.05614 314.013C5.67185 314.013 6.19824 314.185 6.63528 314.529C7.07508 314.869 7.41042 315.364 7.64132 316.013C7.87496 316.659 7.99178 317.438 7.99178 318.351C7.99178 319.269 7.87633 320.052 7.64544 320.701C7.41455 321.347 7.08058 321.84 6.64353 322.181C6.20648 322.519 5.67735 322.688 5.05614 322.688ZM5.05614 321.781C5.67185 321.781 6.15013 321.484 6.49098 320.891C6.83182 320.297 7.00224 319.45 7.00224 318.351C7.00224 317.62 6.9239 316.997 6.76722 316.483C6.61329 315.969 6.39065 315.577 6.09928 315.308C5.81067 315.038 5.46295 314.904 5.05614 314.904C4.44592 314.904 3.96902 315.205 3.62543 315.807C3.28184 316.406 3.11004 317.254 3.11004 318.351C3.11004 319.082 3.18701 319.703 3.34094 320.214C3.49486 320.726 3.71614 321.115 4.00475 321.381C4.29612 321.648 4.64658 321.781 5.05614 321.781ZM10.4821 320.264L10.4656 319.06H10.6635L13.4343 316.24H14.6382L11.6861 319.225H11.6036L10.4821 320.264ZM9.57505 322.573V314.129H10.5481V322.573H9.57505ZM13.5992 322.573L11.1253 319.439L11.818 318.763L14.8361 322.573H13.5992Z"
      fill="black" />
  </g>
  <path
    d="M44.7344 184.339L52.0763 191.861C59.4611 199.102 74.3596 214.568 88.9575 225.605C103.598 237.063 118.153 244.093 133.181 229.33C147.779 214.568 162.377 176.606 177.404 176.817C191.959 176.606 206.6 214.568 221.198 225.605C236.096 237.063 250.823 221.598 265.421 229.33C280.276 237.063 295.046 266.589 309.644 255.552C324.414 244.093 339.269 192.072 353.867 195.587C368.594 199.102 383.492 226.538 398.09 256.274C412.731 286.292 427.286 286.292 442.313 267.522C458.952 249.556 467.075 242.528 484.968 232.632C503.842 223.552 515.732 237.063 530.33 221.808C545.229 206.835 559.955 161.844 574.553 154.322C589.409 147.081 604.179 176.606 618.777 180.613C633.546 184.339 648.402 161.844 655.701 150.596L663 139.348V319.313H655.658C648.273 319.313 633.375 319.313 618.777 319.313C604.136 319.313 589.581 319.313 574.553 319.313C559.955 319.313 545.358 319.313 530.33 319.313C515.775 319.313 501.134 319.313 486.536 319.313C471.638 319.313 456.911 319.313 442.313 319.313C427.458 319.313 412.688 319.313 398.09 319.313C383.32 319.313 368.465 319.313 353.867 319.313C339.14 319.313 324.242 319.313 309.644 319.313C295.003 319.313 280.448 319.313 265.421 319.313C250.823 319.313 236.225 319.313 221.198 319.313C206.643 319.313 192.002 319.313 177.404 319.313C162.505 319.313 147.779 319.313 133.181 319.313C118.325 319.313 103.555 319.313 88.9575 319.313C74.1878 319.313 59.3323 319.313 52.0333 319.313H44.7344V184.339Z"
    fill="url(#paint0_linear_800_14062)" />
  <g opacity="0.7">
    <path opacity="0.7"
      d="M98.8849 351.313V345.134H102.59V345.798H99.6331V347.886H102.312V348.549H99.6331V351.313H98.8849ZM105.377 351.409C104.931 351.409 104.546 351.311 104.222 351.114C103.9 350.915 103.652 350.637 103.477 350.281C103.304 349.923 103.217 349.507 103.217 349.032C103.217 348.557 103.304 348.139 103.477 347.777C103.652 347.413 103.895 347.13 104.207 346.926C104.52 346.721 104.887 346.619 105.305 346.619C105.546 346.619 105.785 346.659 106.02 346.739C106.255 346.82 106.469 346.95 106.662 347.132C106.856 347.311 107.009 347.548 107.124 347.843C107.239 348.139 107.296 348.503 107.296 348.936V349.237H103.724V348.622H106.572C106.572 348.36 106.52 348.127 106.415 347.922C106.313 347.717 106.166 347.555 105.975 347.436C105.786 347.318 105.562 347.258 105.305 347.258C105.021 347.258 104.776 347.329 104.569 347.469C104.364 347.608 104.206 347.789 104.095 348.012C103.984 348.236 103.929 348.475 103.929 348.73V349.141C103.929 349.491 103.989 349.787 104.11 350.031C104.233 350.272 104.403 350.456 104.62 350.583C104.837 350.708 105.09 350.77 105.377 350.77C105.564 350.77 105.733 350.744 105.884 350.691C106.037 350.637 106.169 350.557 106.279 350.45C106.39 350.341 106.475 350.207 106.536 350.046L107.224 350.239C107.151 350.472 107.03 350.677 106.859 350.854C106.688 351.029 106.476 351.166 106.225 351.265C105.974 351.361 105.691 351.409 105.377 351.409ZM108.476 351.313V345.134H109.188V347.415H109.248C109.3 347.335 109.373 347.232 109.465 347.107C109.56 346.981 109.694 346.868 109.869 346.769C110.046 346.669 110.286 346.619 110.587 346.619C110.978 346.619 111.322 346.716 111.619 346.911C111.917 347.106 112.149 347.383 112.316 347.741C112.483 348.099 112.567 348.521 112.567 349.008C112.567 349.499 112.483 349.924 112.316 350.284C112.149 350.642 111.918 350.92 111.622 351.117C111.327 351.312 110.986 351.409 110.6 351.409C110.302 351.409 110.064 351.36 109.885 351.262C109.706 351.161 109.568 351.047 109.471 350.921C109.375 350.792 109.3 350.685 109.248 350.601H109.163V351.313H108.476ZM109.176 348.996C109.176 349.346 109.227 349.655 109.329 349.922C109.432 350.188 109.582 350.396 109.779 350.547C109.976 350.695 110.217 350.77 110.503 350.77C110.801 350.77 111.049 350.691 111.248 350.535C111.449 350.376 111.6 350.162 111.701 349.895C111.803 349.625 111.855 349.326 111.855 348.996C111.855 348.67 111.804 348.376 111.704 348.115C111.605 347.852 111.455 347.643 111.254 347.491C111.055 347.336 110.805 347.258 110.503 347.258C110.213 347.258 109.97 347.332 109.773 347.478C109.576 347.623 109.427 347.826 109.326 348.088C109.226 348.347 109.176 348.65 109.176 348.996Z"
      fill="black" />
    <path opacity="0.7"
      d="M47.1134 345.134H47.8616V349.551C47.8616 349.945 47.7892 350.28 47.6444 350.556C47.4996 350.831 47.2955 351.04 47.032 351.183C46.7685 351.326 46.4578 351.397 46.0998 351.397C45.7619 351.397 45.4612 351.336 45.1977 351.213C44.9342 351.089 44.7271 350.912 44.5762 350.682C44.4254 350.453 44.35 350.181 44.35 349.865H45.0861C45.0861 350.04 45.1293 350.193 45.2158 350.323C45.3043 350.452 45.425 350.553 45.5778 350.625C45.7307 350.697 45.9047 350.734 46.0998 350.734C46.315 350.734 46.498 350.688 46.6488 350.598C46.7997 350.507 46.9143 350.375 46.9928 350.2C47.0732 350.023 47.1134 349.806 47.1134 349.551V345.134ZM50.6281 351.422C50.3345 351.422 50.068 351.366 49.8286 351.256C49.5893 351.143 49.3992 350.981 49.2584 350.77C49.1177 350.557 49.0473 350.299 49.0473 349.998C49.0473 349.732 49.0996 349.517 49.2041 349.352C49.3087 349.185 49.4485 349.054 49.6235 348.96C49.7985 348.865 49.9916 348.795 50.2027 348.749C50.4159 348.7 50.6301 348.662 50.8453 348.634C51.1269 348.598 51.3552 348.571 51.5302 348.552C51.7072 348.532 51.8359 348.499 51.9163 348.453C51.9988 348.407 52.04 348.326 52.04 348.212V348.187C52.04 347.89 51.9586 347.658 51.7957 347.494C51.6348 347.329 51.3904 347.246 51.0625 347.246C50.7226 347.246 50.4562 347.321 50.2631 347.469C50.07 347.618 49.9342 347.777 49.8558 347.946L49.18 347.705C49.3007 347.423 49.4616 347.204 49.6627 347.047C49.8658 346.888 50.0871 346.778 50.3264 346.715C50.5678 346.651 50.8051 346.619 51.0384 346.619C51.1872 346.619 51.3582 346.637 51.5513 346.673C51.7464 346.707 51.9344 346.779 52.1154 346.887C52.2985 346.996 52.4503 347.16 52.571 347.379C52.6917 347.598 52.752 347.892 52.752 348.26V351.313H52.04V350.685H52.0038C51.9555 350.786 51.8751 350.894 51.7625 351.008C51.6498 351.123 51.5 351.22 51.313 351.301C51.1259 351.381 50.8976 351.422 50.6281 351.422ZM50.7367 350.782C51.0183 350.782 51.2556 350.727 51.4487 350.616C51.6438 350.505 51.7906 350.363 51.8892 350.188C51.9897 350.013 52.04 349.829 52.04 349.636V348.984C52.0099 349.02 51.9435 349.053 51.8409 349.083C51.7403 349.112 51.6237 349.137 51.4909 349.159C51.3602 349.179 51.2325 349.197 51.1078 349.213C50.9851 349.227 50.8856 349.239 50.8091 349.249C50.6241 349.274 50.4511 349.313 50.2902 349.367C50.1313 349.419 50.0026 349.499 49.9041 349.605C49.8075 349.71 49.7593 349.853 49.7593 350.034C49.7593 350.281 49.8508 350.468 50.0338 350.595C50.2188 350.72 50.4531 350.782 50.7367 350.782ZM54.7635 348.525V351.313H54.0515V346.679H54.7394V347.403H54.7997C54.9083 347.168 55.0733 346.979 55.2945 346.836C55.5157 346.691 55.8013 346.619 56.1513 346.619C56.4651 346.619 56.7396 346.683 56.9749 346.812C57.2102 346.938 57.3932 347.132 57.524 347.391C57.6547 347.648 57.7201 347.974 57.7201 348.368V351.313H57.0081V348.417C57.0081 348.053 56.9136 347.769 56.7245 347.566C56.5354 347.361 56.276 347.258 55.9461 347.258C55.7189 347.258 55.5157 347.307 55.3367 347.406C55.1597 347.505 55.02 347.648 54.9174 347.837C54.8148 348.027 54.7635 348.256 54.7635 348.525Z"
      fill="black" />
    <path opacity="0.7"
      d="M153.024 345.134H153.917L156.016 350.263H156.089L158.189 345.134H159.082V351.313H158.382V346.619H158.321L156.39 351.313H155.715L153.784 346.619H153.723V351.313H153.024V345.134ZM161.849 351.422C161.555 351.422 161.289 351.366 161.049 351.256C160.81 351.143 160.62 350.981 160.479 350.77C160.338 350.557 160.268 350.299 160.268 349.998C160.268 349.732 160.32 349.517 160.425 349.352C160.529 349.185 160.669 349.054 160.844 348.96C161.019 348.865 161.212 348.795 161.423 348.749C161.637 348.7 161.851 348.662 162.066 348.634C162.348 348.598 162.576 348.571 162.751 348.552C162.928 348.532 163.057 348.499 163.137 348.453C163.219 348.407 163.261 348.326 163.261 348.212V348.187C163.261 347.89 163.179 347.658 163.016 347.494C162.855 347.329 162.611 347.246 162.283 347.246C161.943 347.246 161.677 347.321 161.484 347.469C161.291 347.618 161.155 347.777 161.076 347.946L160.401 347.705C160.521 347.423 160.682 347.204 160.883 347.047C161.086 346.888 161.308 346.778 161.547 346.715C161.788 346.651 162.026 346.619 162.259 346.619C162.408 346.619 162.579 346.637 162.772 346.673C162.967 346.707 163.155 346.779 163.336 346.887C163.519 346.996 163.671 347.16 163.792 347.379C163.912 347.598 163.973 347.892 163.973 348.26V351.313H163.261V350.685H163.224C163.176 350.786 163.096 350.894 162.983 351.008C162.87 351.123 162.721 351.22 162.534 351.301C162.347 351.381 162.118 351.422 161.849 351.422ZM161.957 350.782C162.239 350.782 162.476 350.727 162.669 350.616C162.864 350.505 163.011 350.363 163.11 350.188C163.21 350.013 163.261 349.829 163.261 349.636V348.984C163.23 349.02 163.164 349.053 163.062 349.083C162.961 349.112 162.844 349.137 162.712 349.159C162.581 349.179 162.453 349.197 162.328 349.213C162.206 349.227 162.106 349.239 162.03 349.249C161.845 349.274 161.672 349.313 161.511 349.367C161.352 349.419 161.223 349.499 161.125 349.605C161.028 349.71 160.98 349.853 160.98 350.034C160.98 350.281 161.071 350.468 161.254 350.595C161.439 350.72 161.674 350.782 161.957 350.782ZM165.272 351.313V346.679H165.96V347.379H166.008C166.093 347.15 166.246 346.964 166.467 346.821C166.688 346.678 166.937 346.607 167.215 346.607C167.267 346.607 167.333 346.608 167.411 346.61C167.49 346.612 167.549 346.615 167.589 346.619V347.343C167.565 347.337 167.51 347.328 167.423 347.316C167.339 347.301 167.249 347.294 167.155 347.294C166.929 347.294 166.728 347.342 166.551 347.436C166.376 347.529 166.238 347.657 166.135 347.822C166.034 347.985 165.984 348.171 165.984 348.381V351.313H165.272Z"
      fill="black" />
    <path opacity="0.7"
      d="M208.437 351.313H207.653L209.921 345.134H210.694L212.962 351.313H212.178L210.332 346.112H210.283L208.437 351.313ZM208.727 348.899H211.888V349.563H208.727V348.899ZM213.828 353.051V346.679H214.516V347.415H214.601C214.653 347.335 214.725 347.232 214.818 347.107C214.912 346.981 215.047 346.868 215.222 346.769C215.399 346.669 215.638 346.619 215.94 346.619C216.33 346.619 216.674 346.716 216.972 346.911C217.27 347.106 217.502 347.383 217.669 347.741C217.836 348.099 217.919 348.521 217.919 349.008C217.919 349.499 217.836 349.924 217.669 350.284C217.502 350.642 217.271 350.92 216.975 351.117C216.679 351.312 216.338 351.409 215.952 351.409C215.655 351.409 215.416 351.36 215.237 351.262C215.058 351.161 214.92 351.047 214.824 350.921C214.727 350.792 214.653 350.685 214.601 350.601H214.54V353.051H213.828ZM214.528 348.996C214.528 349.346 214.58 349.655 214.682 349.922C214.785 350.188 214.935 350.396 215.132 350.547C215.329 350.695 215.57 350.77 215.856 350.77C216.153 350.77 216.402 350.691 216.601 350.535C216.802 350.376 216.953 350.162 217.053 349.895C217.156 349.625 217.207 349.326 217.207 348.996C217.207 348.67 217.157 348.376 217.056 348.115C216.958 347.852 216.808 347.643 216.607 347.491C216.408 347.336 216.157 347.258 215.856 347.258C215.566 347.258 215.323 347.332 215.126 347.478C214.929 347.623 214.78 347.826 214.679 348.088C214.579 348.347 214.528 348.65 214.528 348.996ZM219.005 351.313V346.679H219.693V347.379H219.741C219.826 347.15 219.979 346.964 220.2 346.821C220.421 346.678 220.671 346.607 220.948 346.607C221.001 346.607 221.066 346.608 221.144 346.61C221.223 346.612 221.282 346.615 221.322 346.619V347.343C221.298 347.337 221.243 347.328 221.156 347.316C221.072 347.301 220.982 347.294 220.888 347.294C220.663 347.294 220.461 347.342 220.284 347.436C220.11 347.529 219.971 347.657 219.868 347.822C219.768 347.985 219.717 348.171 219.717 348.381V351.313H219.005Z"
      fill="black" />
    <path opacity="0.7"
      d="M262.32 345.134H263.213L265.313 350.263H265.386L267.485 345.134H268.378V351.313H267.678V346.619H267.618L265.687 351.313H265.012L263.081 346.619H263.02V351.313H262.32V345.134ZM271.146 351.422C270.852 351.422 270.585 351.366 270.346 351.256C270.107 351.143 269.917 350.981 269.776 350.77C269.635 350.557 269.565 350.299 269.565 349.998C269.565 349.732 269.617 349.517 269.722 349.352C269.826 349.185 269.966 349.054 270.141 348.96C270.316 348.865 270.509 348.795 270.72 348.749C270.933 348.7 271.148 348.662 271.363 348.634C271.644 348.598 271.873 348.571 272.048 348.552C272.225 348.532 272.353 348.499 272.434 348.453C272.516 348.407 272.558 348.326 272.558 348.212V348.187C272.558 347.89 272.476 347.658 272.313 347.494C272.152 347.329 271.908 347.246 271.58 347.246C271.24 347.246 270.974 347.321 270.781 347.469C270.587 347.618 270.452 347.777 270.373 347.946L269.698 347.705C269.818 347.423 269.979 347.204 270.18 347.047C270.383 346.888 270.605 346.778 270.844 346.715C271.085 346.651 271.323 346.619 271.556 346.619C271.705 346.619 271.876 346.637 272.069 346.673C272.264 346.707 272.452 346.779 272.633 346.887C272.816 346.996 272.968 347.16 273.089 347.379C273.209 347.598 273.27 347.892 273.27 348.26V351.313H272.558V350.685H272.521C272.473 350.786 272.393 350.894 272.28 351.008C272.167 351.123 272.018 351.22 271.83 351.301C271.643 351.381 271.415 351.422 271.146 351.422ZM271.254 350.782C271.536 350.782 271.773 350.727 271.966 350.616C272.161 350.505 272.308 350.363 272.407 350.188C272.507 350.013 272.558 349.829 272.558 349.636V348.984C272.527 349.02 272.461 349.053 272.358 349.083C272.258 349.112 272.141 349.137 272.008 349.159C271.878 349.179 271.75 349.197 271.625 349.213C271.503 349.227 271.403 349.239 271.327 349.249C271.142 349.274 270.969 349.313 270.808 349.367C270.649 349.419 270.52 349.499 270.422 349.605C270.325 349.71 270.277 349.853 270.277 350.034C270.277 350.281 270.368 350.468 270.551 350.595C270.736 350.72 270.971 350.782 271.254 350.782ZM274.862 353.051C274.741 353.051 274.633 353.041 274.539 353.02C274.444 353.002 274.379 352.984 274.343 352.966L274.524 352.339C274.697 352.383 274.85 352.399 274.982 352.387C275.115 352.375 275.233 352.316 275.335 352.209C275.44 352.104 275.535 351.934 275.622 351.699L275.755 351.337L274.041 346.679H274.813L276.093 350.372H276.141L277.42 346.679H278.192L276.225 351.989C276.137 352.228 276.027 352.426 275.896 352.583C275.766 352.742 275.614 352.86 275.441 352.936C275.27 353.012 275.077 353.051 274.862 353.051Z"
      fill="black" />
    <path opacity="0.7"
      d="M320.869 345.134H321.617V349.551C321.617 349.945 321.545 350.28 321.4 350.556C321.255 350.831 321.051 351.04 320.788 351.183C320.524 351.326 320.214 351.397 319.856 351.397C319.518 351.397 319.217 351.336 318.954 351.213C318.69 351.089 318.483 350.912 318.332 350.682C318.181 350.453 318.106 350.181 318.106 349.865H318.842C318.842 350.04 318.885 350.193 318.972 350.323C319.06 350.452 319.181 350.553 319.334 350.625C319.487 350.697 319.661 350.734 319.856 350.734C320.071 350.734 320.254 350.688 320.405 350.598C320.556 350.507 320.67 350.375 320.749 350.2C320.829 350.023 320.869 349.806 320.869 349.551V345.134ZM325.941 349.418V346.679H326.653V351.313H325.941V350.529H325.892C325.784 350.764 325.615 350.964 325.386 351.129C325.156 351.292 324.867 351.373 324.517 351.373C324.227 351.373 323.97 351.31 323.744 351.183C323.519 351.054 323.342 350.861 323.213 350.604C323.085 350.345 323.02 350.018 323.02 349.623V346.679H323.732V349.575C323.732 349.913 323.827 350.183 324.016 350.384C324.207 350.585 324.45 350.685 324.746 350.685C324.923 350.685 325.103 350.64 325.286 350.55C325.471 350.459 325.626 350.32 325.751 350.133C325.877 349.946 325.941 349.708 325.941 349.418ZM328.669 348.525V351.313H327.957V346.679H328.645V347.403H328.705C328.814 347.168 328.978 346.979 329.2 346.836C329.421 346.691 329.707 346.619 330.056 346.619C330.37 346.619 330.645 346.683 330.88 346.812C331.115 346.938 331.298 347.132 331.429 347.391C331.56 347.648 331.625 347.974 331.625 348.368V351.313H330.913V348.417C330.913 348.053 330.819 347.769 330.63 347.566C330.441 347.361 330.181 347.258 329.851 347.258C329.624 347.258 329.421 347.307 329.242 347.406C329.065 347.505 328.925 347.648 328.823 347.837C328.72 348.027 328.669 348.256 328.669 348.525Z"
      fill="black" />
    <path opacity="0.7"
      d="M375.008 345.134H375.756V349.551C375.756 349.945 375.684 350.28 375.539 350.556C375.394 350.831 375.19 351.04 374.927 351.183C374.663 351.326 374.352 351.397 373.994 351.397C373.656 351.397 373.356 351.336 373.092 351.213C372.829 351.089 372.622 350.912 372.471 350.682C372.32 350.453 372.244 350.181 372.244 349.865H372.981C372.981 350.04 373.024 350.193 373.11 350.323C373.199 350.452 373.32 350.553 373.472 350.625C373.625 350.697 373.799 350.734 373.994 350.734C374.209 350.734 374.393 350.688 374.543 350.598C374.694 350.507 374.809 350.375 374.887 350.2C374.968 350.023 375.008 349.806 375.008 349.551V345.134ZM380.079 349.418V346.679H380.791V351.313H380.079V350.529H380.031C379.922 350.764 379.754 350.964 379.524 351.129C379.295 351.292 379.005 351.373 378.655 351.373C378.366 351.373 378.108 351.31 377.883 351.183C377.658 351.054 377.481 350.861 377.352 350.604C377.223 350.345 377.159 350.018 377.159 349.623V346.679H377.871V349.575C377.871 349.913 377.966 350.183 378.155 350.384C378.346 350.585 378.589 350.685 378.885 350.685C379.062 350.685 379.242 350.64 379.425 350.55C379.61 350.459 379.765 350.32 379.889 350.133C380.016 349.946 380.079 349.708 380.079 349.418ZM382.807 345.134V351.313H382.095V345.134H382.807Z"
      fill="black" />
    <path opacity="0.7"
      d="M423.964 351.313H423.18L425.449 345.134H426.221L428.49 351.313H427.705L425.859 346.112H425.811L423.964 351.313ZM424.254 348.899H427.416V349.563H424.254V348.899ZM432.276 349.418V346.679H432.988V351.313H432.276V350.529H432.228C432.119 350.764 431.95 350.964 431.721 351.129C431.492 351.292 431.202 351.373 430.852 351.373C430.562 351.373 430.305 351.31 430.08 351.183C429.854 351.054 429.677 350.861 429.549 350.604C429.42 350.345 429.356 350.018 429.356 349.623V346.679H430.068V349.575C430.068 349.913 430.162 350.183 430.351 350.384C430.542 350.585 430.786 350.685 431.081 350.685C431.258 350.685 431.438 350.64 431.621 350.55C431.806 350.459 431.961 350.32 432.086 350.133C432.213 349.946 432.276 349.708 432.276 349.418ZM436.163 353.147C435.819 353.147 435.523 353.103 435.276 353.014C435.028 352.928 434.822 352.813 434.657 352.671C434.494 352.53 434.364 352.379 434.268 352.218L434.835 351.82C434.899 351.904 434.981 352.001 435.079 352.109C435.178 352.22 435.313 352.316 435.484 352.396C435.657 352.478 435.883 352.52 436.163 352.52C436.537 352.52 436.845 352.429 437.089 352.248C437.332 352.067 437.454 351.784 437.454 351.397V350.456H437.393C437.341 350.541 437.267 350.645 437.17 350.77C437.076 350.893 436.939 351.002 436.76 351.099C436.583 351.193 436.344 351.241 436.042 351.241C435.668 351.241 435.332 351.152 435.034 350.975C434.739 350.798 434.504 350.541 434.331 350.203C434.16 349.865 434.075 349.455 434.075 348.972C434.075 348.497 434.158 348.084 434.325 347.732C434.492 347.378 434.725 347.104 435.022 346.911C435.32 346.716 435.664 346.619 436.054 346.619C436.356 346.619 436.595 346.669 436.772 346.769C436.951 346.868 437.088 346.981 437.182 347.107C437.279 347.232 437.353 347.335 437.406 347.415H437.478V346.679H438.166V351.446C438.166 351.844 438.075 352.168 437.894 352.417C437.715 352.669 437.474 352.853 437.17 352.969C436.869 353.088 436.533 353.147 436.163 353.147ZM436.138 350.601C436.424 350.601 436.665 350.536 436.862 350.405C437.06 350.274 437.209 350.086 437.312 349.841C437.415 349.595 437.466 349.302 437.466 348.96C437.466 348.626 437.416 348.331 437.315 348.076C437.214 347.82 437.066 347.62 436.869 347.475C436.671 347.331 436.428 347.258 436.138 347.258C435.837 347.258 435.585 347.335 435.384 347.488C435.185 347.64 435.035 347.846 434.935 348.103C434.836 348.36 434.787 348.646 434.787 348.96C434.787 349.282 434.837 349.566 434.938 349.814C435.04 350.059 435.191 350.252 435.39 350.393C435.591 350.532 435.841 350.601 436.138 350.601Z"
      fill="black" />
    <path opacity="0.7"
      d="M482.25 346.679C482.214 346.373 482.067 346.136 481.81 345.967C481.552 345.798 481.236 345.714 480.862 345.714C480.589 345.714 480.35 345.758 480.144 345.846C479.941 345.935 479.782 346.056 479.668 346.211C479.555 346.366 479.499 346.542 479.499 346.739C479.499 346.904 479.538 347.046 479.616 347.165C479.697 347.281 479.799 347.379 479.924 347.457C480.049 347.534 480.18 347.597 480.316 347.647C480.453 347.696 480.579 347.735 480.693 347.765L481.321 347.934C481.482 347.976 481.661 348.035 481.858 348.109C482.057 348.183 482.247 348.285 482.428 348.414C482.611 348.54 482.762 348.703 482.881 348.902C482.999 349.102 483.059 349.346 483.059 349.636C483.059 349.969 482.971 350.271 482.796 350.541C482.623 350.81 482.37 351.024 482.036 351.183C481.704 351.342 481.301 351.422 480.826 351.422C480.384 351.422 480.001 351.35 479.677 351.207C479.355 351.065 479.102 350.865 478.916 350.61C478.733 350.355 478.63 350.058 478.606 349.72H479.378C479.398 349.953 479.477 350.146 479.613 350.299C479.752 350.45 479.927 350.563 480.138 350.637C480.352 350.71 480.581 350.746 480.826 350.746C481.112 350.746 481.368 350.699 481.595 350.607C481.823 350.512 482.003 350.382 482.136 350.215C482.268 350.046 482.335 349.849 482.335 349.623C482.335 349.418 482.277 349.251 482.163 349.123C482.048 348.994 481.897 348.889 481.71 348.809C481.523 348.728 481.321 348.658 481.104 348.598L480.343 348.381C479.861 348.242 479.479 348.044 479.197 347.786C478.915 347.529 478.775 347.192 478.775 346.776C478.775 346.43 478.868 346.128 479.055 345.87C479.244 345.611 479.498 345.41 479.816 345.267C480.135 345.122 480.492 345.05 480.887 345.05C481.285 345.05 481.639 345.121 481.948 345.264C482.258 345.405 482.504 345.598 482.685 345.843C482.868 346.089 482.964 346.367 482.974 346.679H482.25ZM486.135 351.409C485.689 351.409 485.304 351.311 484.98 351.114C484.658 350.915 484.409 350.637 484.235 350.281C484.062 349.923 483.975 349.507 483.975 349.032C483.975 348.557 484.062 348.139 484.235 347.777C484.409 347.413 484.653 347.13 484.965 346.926C485.278 346.721 485.644 346.619 486.063 346.619C486.304 346.619 486.542 346.659 486.778 346.739C487.013 346.82 487.227 346.95 487.42 347.132C487.613 347.311 487.767 347.548 487.882 347.843C487.997 348.139 488.054 348.503 488.054 348.936V349.237H484.482V348.622H487.33C487.33 348.36 487.278 348.127 487.173 347.922C487.07 347.717 486.924 347.555 486.733 347.436C486.543 347.318 486.32 347.258 486.063 347.258C485.779 347.258 485.534 347.329 485.327 347.469C485.121 347.608 484.964 347.789 484.853 348.012C484.742 348.236 484.687 348.475 484.687 348.73V349.141C484.687 349.491 484.747 349.787 484.868 350.031C484.991 350.272 485.161 350.456 485.378 350.583C485.595 350.708 485.848 350.77 486.135 350.77C486.322 350.77 486.491 350.744 486.642 350.691C486.795 350.637 486.927 350.557 487.037 350.45C487.148 350.341 487.233 350.207 487.294 350.046L487.982 350.239C487.909 350.472 487.787 350.677 487.616 350.854C487.446 351.029 487.234 351.166 486.983 351.265C486.732 351.361 486.449 351.409 486.135 351.409ZM489.137 353.051V346.679H489.825V347.415H489.909C489.962 347.335 490.034 347.232 490.127 347.107C490.221 346.981 490.356 346.868 490.531 346.769C490.708 346.669 490.947 346.619 491.249 346.619C491.639 346.619 491.983 346.716 492.281 346.911C492.578 347.106 492.811 347.383 492.977 347.741C493.144 348.099 493.228 348.521 493.228 349.008C493.228 349.499 493.144 349.924 492.977 350.284C492.811 350.642 492.579 350.92 492.284 351.117C491.988 351.312 491.647 351.409 491.261 351.409C490.963 351.409 490.725 351.36 490.546 351.262C490.367 351.161 490.229 351.047 490.133 350.921C490.036 350.792 489.962 350.685 489.909 350.601H489.849V353.051H489.137ZM489.837 348.996C489.837 349.346 489.888 349.655 489.991 349.922C490.093 350.188 490.243 350.396 490.44 350.547C490.637 350.695 490.879 350.77 491.164 350.77C491.462 350.77 491.71 350.691 491.909 350.535C492.111 350.376 492.261 350.162 492.362 349.895C492.465 349.625 492.516 349.326 492.516 348.996C492.516 348.67 492.466 348.376 492.365 348.115C492.266 347.852 492.117 347.643 491.916 347.491C491.716 347.336 491.466 347.258 491.164 347.258C490.875 347.258 490.631 347.332 490.434 347.478C490.237 347.623 490.088 347.826 489.988 348.088C489.887 348.347 489.837 348.65 489.837 348.996Z"
      fill="black" />
    <path opacity="0.7"
      d="M539.245 348.224C539.245 348.875 539.127 349.438 538.892 349.913C538.656 350.388 538.333 350.754 537.923 351.011C537.513 351.269 537.044 351.397 536.517 351.397C535.99 351.397 535.522 351.269 535.111 351.011C534.701 350.754 534.378 350.388 534.143 349.913C533.908 349.438 533.79 348.875 533.79 348.224C533.79 347.572 533.908 347.009 534.143 346.534C534.378 346.06 534.701 345.693 535.111 345.436C535.522 345.179 535.99 345.05 536.517 345.05C537.044 345.05 537.513 345.179 537.923 345.436C538.333 345.693 538.656 346.06 538.892 346.534C539.127 347.009 539.245 347.572 539.245 348.224ZM538.521 348.224C538.521 347.689 538.431 347.237 538.252 346.869C538.075 346.501 537.835 346.222 537.531 346.033C537.229 345.844 536.891 345.75 536.517 345.75C536.143 345.75 535.804 345.844 535.501 346.033C535.199 346.222 534.959 346.501 534.78 346.869C534.603 347.237 534.514 347.689 534.514 348.224C534.514 348.759 534.603 349.21 534.78 349.578C534.959 349.946 535.199 350.225 535.501 350.414C535.804 350.603 536.143 350.697 536.517 350.697C536.891 350.697 537.229 350.603 537.531 350.414C537.835 350.225 538.075 349.946 538.252 349.578C538.431 349.21 538.521 348.759 538.521 348.224ZM542.289 351.409C541.854 351.409 541.48 351.307 541.166 351.102C540.853 350.897 540.611 350.614 540.442 350.254C540.273 349.894 540.189 349.483 540.189 349.02C540.189 348.549 540.275 348.134 540.448 347.774C540.623 347.412 540.867 347.13 541.178 346.926C541.492 346.721 541.858 346.619 542.277 346.619C542.602 346.619 542.896 346.679 543.157 346.8C543.419 346.92 543.633 347.089 543.8 347.306C543.967 347.524 544.071 347.777 544.111 348.067H543.399C543.345 347.856 543.224 347.669 543.037 347.506C542.852 347.341 542.602 347.258 542.289 347.258C542.011 347.258 541.768 347.331 541.559 347.475C541.351 347.618 541.189 347.82 541.073 348.082C540.958 348.341 540.901 348.646 540.901 348.996C540.901 349.354 540.957 349.666 541.07 349.931C541.184 350.197 541.345 350.403 541.553 350.55C541.762 350.696 542.007 350.77 542.289 350.77C542.474 350.77 542.642 350.738 542.792 350.673C542.943 350.609 543.071 350.516 543.176 350.396C543.28 350.275 543.355 350.13 543.399 349.961H544.111C544.071 350.235 543.971 350.481 543.812 350.7C543.655 350.918 543.447 351.091 543.188 351.219C542.93 351.346 542.631 351.409 542.289 351.409ZM547.167 346.679V347.282H544.766V346.679H547.167ZM545.465 345.569H546.177V349.985C546.177 350.187 546.207 350.337 546.265 350.438C546.325 350.537 546.402 350.603 546.494 350.637C546.589 350.669 546.688 350.685 546.793 350.685C546.871 350.685 546.936 350.681 546.986 350.673C547.036 350.663 547.076 350.655 547.107 350.649L547.251 351.289C547.203 351.307 547.136 351.325 547.049 351.343C546.963 351.363 546.853 351.373 546.72 351.373C546.519 351.373 546.322 351.33 546.129 351.244C545.938 351.157 545.779 351.025 545.652 350.848C545.528 350.671 545.465 350.448 545.465 350.179V345.569Z"
      fill="black" />
    <path opacity="0.7"
      d="M593.068 345.134V351.313H592.343L588.977 346.462H588.916V351.313H588.168V345.134H588.892L592.271 349.998H592.331V345.134H593.068ZM596.351 351.409C595.932 351.409 595.565 351.31 595.25 351.111C594.936 350.912 594.69 350.633 594.513 350.275C594.338 349.917 594.251 349.499 594.251 349.02C594.251 348.537 594.338 348.116 594.513 347.756C594.69 347.396 594.936 347.116 595.25 346.917C595.565 346.718 595.932 346.619 596.351 346.619C596.769 346.619 597.135 346.718 597.449 346.917C597.765 347.116 598.01 347.396 598.185 347.756C598.362 348.116 598.45 348.537 598.45 349.02C598.45 349.499 598.362 349.917 598.185 350.275C598.01 350.633 597.765 350.912 597.449 351.111C597.135 351.31 596.769 351.409 596.351 351.409ZM596.351 350.77C596.668 350.77 596.93 350.688 597.135 350.526C597.34 350.363 597.492 350.148 597.591 349.883C597.689 349.617 597.738 349.33 597.738 349.02C597.738 348.71 597.689 348.422 597.591 348.154C597.492 347.887 597.34 347.671 597.135 347.506C596.93 347.341 596.668 347.258 596.351 347.258C596.033 347.258 595.771 347.341 595.566 347.506C595.361 347.671 595.209 347.887 595.111 348.154C595.012 348.422 594.963 348.71 594.963 349.02C594.963 349.33 595.012 349.617 595.111 349.883C595.209 350.148 595.361 350.363 595.566 350.526C595.771 350.688 596.033 350.77 596.351 350.77ZM603.161 346.679L601.447 351.313H600.723L599.009 346.679H599.782L601.061 350.372H601.109L602.388 346.679H603.161Z"
      fill="black" />
    <path opacity="0.7"
      d="M646.258 351.324H644.352V345.145H646.343C646.942 345.145 647.455 345.269 647.881 345.516C648.308 345.762 648.635 346.114 648.862 346.575C649.089 347.034 649.203 347.583 649.203 348.222C649.203 348.866 649.088 349.42 648.859 349.885C648.63 350.347 648.296 350.703 647.857 350.953C647.419 351.2 646.886 351.324 646.258 351.324ZM645.1 350.66H646.21C646.721 350.66 647.144 350.561 647.48 350.364C647.816 350.167 648.067 349.887 648.231 349.523C648.396 349.159 648.479 348.725 648.479 348.222C648.479 347.724 648.397 347.294 648.234 346.934C648.072 346.572 647.828 346.295 647.504 346.101C647.181 345.906 646.777 345.809 646.295 345.809H645.1V350.66ZM652.304 351.42C651.858 351.42 651.473 351.322 651.149 351.125C650.827 350.925 650.579 350.648 650.404 350.292C650.231 349.934 650.144 349.518 650.144 349.043C650.144 348.568 650.231 348.15 650.404 347.788C650.579 347.424 650.822 347.14 651.134 346.937C651.447 346.732 651.813 346.629 652.232 346.629C652.473 346.629 652.712 346.67 652.947 346.75C653.182 346.831 653.396 346.961 653.589 347.142C653.783 347.321 653.936 347.559 654.051 347.854C654.166 348.15 654.223 348.514 654.223 348.946V349.248H650.651V348.633H653.499C653.499 348.371 653.447 348.138 653.342 347.933C653.239 347.728 653.093 347.566 652.902 347.447C652.713 347.328 652.489 347.269 652.232 347.269C651.948 347.269 651.703 347.339 651.496 347.48C651.291 347.619 651.133 347.8 651.022 348.023C650.911 348.246 650.856 348.486 650.856 348.741V349.152C650.856 349.501 650.916 349.798 651.037 350.041C651.16 350.283 651.33 350.467 651.547 350.594C651.764 350.718 652.017 350.781 652.304 350.781C652.491 350.781 652.66 350.754 652.811 350.702C652.964 350.648 653.096 350.567 653.206 350.461C653.317 350.352 653.402 350.217 653.463 350.057L654.151 350.25C654.078 350.483 653.956 350.688 653.786 350.865C653.615 351.04 653.403 351.177 653.152 351.275C652.901 351.372 652.618 351.42 652.304 351.42ZM657.189 351.42C656.754 351.42 656.38 351.318 656.066 351.112C655.753 350.907 655.511 350.625 655.342 350.265C655.173 349.905 655.089 349.493 655.089 349.031C655.089 348.56 655.175 348.145 655.348 347.785C655.523 347.423 655.767 347.14 656.078 346.937C656.392 346.732 656.758 346.629 657.177 346.629C657.502 346.629 657.796 346.69 658.057 346.81C658.319 346.931 658.533 347.1 658.7 347.317C658.867 347.534 658.971 347.788 659.011 348.077H658.299C658.245 347.866 658.124 347.679 657.937 347.516C657.752 347.351 657.502 347.269 657.189 347.269C656.911 347.269 656.668 347.341 656.459 347.486C656.251 347.629 656.089 347.831 655.973 348.093C655.858 348.352 655.801 348.657 655.801 349.007C655.801 349.365 655.857 349.676 655.97 349.942C656.084 350.207 656.245 350.414 656.452 350.56C656.662 350.707 656.907 350.781 657.189 350.781C657.374 350.781 657.542 350.748 657.692 350.684C657.843 350.62 657.971 350.527 658.076 350.407C658.18 350.286 658.255 350.141 658.299 349.972H659.011C658.971 350.246 658.871 350.492 658.712 350.711C658.555 350.928 658.347 351.101 658.088 351.23C657.83 351.357 657.531 351.42 657.189 351.42Z"
      fill="black" />
  </g>
  <g filter="url(#filter0_d_800_14062)">
    <path
      d="M44.7344 186.554L52.0763 194.446C59.4611 202.044 74.3596 218.271 88.9575 229.851C103.598 241.873 118.153 249.249 133.181 233.76C147.779 218.271 162.377 178.441 177.404 178.662C191.959 178.441 206.6 218.271 221.198 229.851C236.096 241.873 250.823 225.647 265.421 233.76C280.276 241.873 295.046 272.852 309.644 261.272C324.414 249.249 339.269 194.668 353.867 198.356C368.594 202.044 383.492 230.83 398.09 262.03C412.731 293.525 427.286 293.525 442.313 273.831C458.952 254.981 467.075 247.607 484.968 237.225C503.842 227.697 515.732 241.873 530.33 225.868C545.229 210.157 559.955 162.951 574.553 155.059C589.409 147.462 604.179 178.441 618.777 182.645C633.546 186.554 648.402 162.951 655.701 151.15L663 139.349"
      stroke="url(#paint1_linear_800_14062)" stroke-width="3.87021" stroke-linecap="round" />
  </g>
  <g filter="url(#filter1_d_800_14062)">
    <circle cx="176.322" cy="179.018" r="6.77286" fill="white" />
    <circle cx="176.322" cy="179.018" r="5.32153" stroke="#AE8FF7" stroke-width="2.90265" />
  </g>
  <g filter="url(#filter2_d_800_14062)">
    <circle cx="255.662" cy="231.266" r="6.77286" fill="white" />
    <circle cx="255.662" cy="231.266" r="5.32153" stroke="#AE8FF7" stroke-width="2.90265" />
  </g>
  <g filter="url(#filter3_d_800_14062)">
    <circle cx="353.384" cy="198.369" r="6.77286" fill="white" />
    <circle cx="353.384" cy="198.369" r="5.32153" stroke="#AE8FF7" stroke-width="2.90265" />
  </g>
  <g filter="url(#filter4_d_800_14062)">
    <circle cx="491.744" cy="235.136" r="6.77286" fill="white" />
    <circle cx="491.744" cy="235.136" r="5.32153" stroke="#AE8FF7" stroke-width="2.90265" />
  </g>
  <g filter="url(#filter5_d_800_14062)">
    <circle cx="579.79" cy="153.862" r="6.77286" fill="white" />
    <circle cx="579.79" cy="153.862" r="5.32153" stroke="#AE8FF7" stroke-width="2.90265" />
  </g>
  <path
    d="M20.4382 18V4.90909H25.1044C26.1186 4.90909 26.9602 5.08381 27.6293 5.43324C28.3026 5.78267 28.8054 6.26633 29.1378 6.88423C29.4702 7.49787 29.6364 8.20739 29.6364 9.01278C29.6364 9.81392 29.468 10.5192 29.1314 11.1286C28.799 11.7337 28.2962 12.2045 27.6229 12.5412C26.9538 12.8778 26.1122 13.0462 25.098 13.0462H21.5632V11.3459H24.919C25.5582 11.3459 26.0781 11.2543 26.4787 11.071C26.8835 10.8878 27.1797 10.6214 27.3672 10.272C27.5547 9.92258 27.6484 9.50284 27.6484 9.01278C27.6484 8.51847 27.5526 8.0902 27.3608 7.72798C27.1733 7.36577 26.8771 7.08878 26.4723 6.89702C26.0717 6.70099 25.5455 6.60298 24.8935 6.60298H22.4134V18H20.4382ZM26.9006 12.0938L30.1349 18H27.8849L24.7145 12.0938H26.9006ZM35.9949 18.1982C35.0275 18.1982 34.1944 17.9915 33.4956 17.5781C32.801 17.1605 32.264 16.5746 31.8848 15.8203C31.5098 15.0618 31.3223 14.1733 31.3223 13.1548C31.3223 12.1491 31.5098 11.2628 31.8848 10.4957C32.264 9.72869 32.7924 9.12997 33.47 8.69957C34.1518 8.26918 34.9487 8.05398 35.8606 8.05398C36.4146 8.05398 36.9515 8.1456 37.4714 8.32884C37.9913 8.51207 38.4579 8.79972 38.8713 9.19176C39.2846 9.58381 39.6106 10.093 39.8493 10.7195C40.0879 11.3416 40.2072 12.098 40.2072 12.9886V13.6662H32.4025V12.2344H38.3343C38.3343 11.7315 38.2321 11.2862 38.0275 10.8984C37.823 10.5064 37.5353 10.1974 37.1646 9.97159C36.7981 9.74574 36.3677 9.63281 35.8734 9.63281C35.3365 9.63281 34.8677 9.76491 34.4672 10.0291C34.0708 10.2891 33.764 10.63 33.5467 11.0518C33.3336 11.4695 33.2271 11.9233 33.2271 12.4134V13.532C33.2271 14.1882 33.3422 14.7464 33.5723 15.2067C33.8066 15.6669 34.1326 16.0185 34.5502 16.2614C34.9679 16.5 35.4558 16.6193 36.014 16.6193C36.3762 16.6193 36.7065 16.5682 37.0048 16.4659C37.3031 16.3594 37.5609 16.2017 37.7782 15.9929C37.9956 15.7841 38.1618 15.5263 38.2768 15.2195L40.0858 15.5455C39.9409 16.0781 39.6809 16.5447 39.3059 16.9453C38.9352 17.3416 38.4686 17.6506 37.9061 17.8722C37.3478 18.0895 36.7108 18.1982 35.9949 18.1982ZM42.3278 21.6818V8.18182H44.1942V9.77344H44.354C44.4648 9.56889 44.6246 9.33239 44.8335 9.06392C45.0423 8.79545 45.332 8.56108 45.7028 8.3608C46.0735 8.15625 46.5636 8.05398 47.1729 8.05398C47.9656 8.05398 48.6729 8.25426 49.2951 8.65483C49.9173 9.0554 50.4052 9.63281 50.7589 10.3871C51.1168 11.1413 51.2958 12.049 51.2958 13.1101C51.2958 14.1712 51.119 15.081 50.7653 15.8395C50.4116 16.5937 49.9258 17.1754 49.3079 17.5845C48.69 17.9893 47.9847 18.1918 47.1921 18.1918C46.5955 18.1918 46.1076 18.0916 45.7283 17.8913C45.3533 17.6911 45.0593 17.4567 44.8462 17.1882C44.6332 16.9197 44.4691 16.6811 44.354 16.4723H44.239V21.6818H42.3278ZM44.2006 13.0909C44.2006 13.7812 44.3008 14.3864 44.5011 14.9062C44.7013 15.4261 44.9911 15.8331 45.3704 16.1271C45.7496 16.4169 46.2141 16.5618 46.7638 16.5618C47.3349 16.5618 47.8121 16.4105 48.1957 16.108C48.5792 15.8011 48.869 15.3857 49.065 14.8615C49.2653 14.3374 49.3654 13.7472 49.3654 13.0909C49.3654 12.4432 49.2674 11.8615 49.0714 11.3459C48.8796 10.8303 48.5898 10.4233 48.2021 10.125C47.8185 9.8267 47.3391 9.67756 46.7638 9.67756C46.2099 9.67756 45.7411 9.82031 45.3576 10.1058C44.9783 10.3913 44.6907 10.7898 44.4947 11.3011C44.2987 11.8125 44.2006 12.4091 44.2006 13.0909ZM57.5728 18.1982C56.6523 18.1982 55.8491 17.9872 55.163 17.5653C54.4769 17.1435 53.9442 16.5533 53.565 15.7947C53.1857 15.0362 52.9961 14.1499 52.9961 13.1357C52.9961 12.1172 53.1857 11.2266 53.565 10.4638C53.9442 9.70099 54.4769 9.10866 55.163 8.68679C55.8491 8.26491 56.6523 8.05398 57.5728 8.05398C58.4933 8.05398 59.2965 8.26491 59.9826 8.68679C60.6687 9.10866 61.2013 9.70099 61.5806 10.4638C61.9599 11.2266 62.1495 12.1172 62.1495 13.1357C62.1495 14.1499 61.9599 15.0362 61.5806 15.7947C61.2013 16.5533 60.6687 17.1435 59.9826 17.5653C59.2965 17.9872 58.4933 18.1982 57.5728 18.1982ZM57.5792 16.5938C58.1758 16.5938 58.6701 16.4361 59.0621 16.1207C59.4542 15.8054 59.744 15.3857 59.9315 14.8615C60.1232 14.3374 60.2191 13.7599 60.2191 13.1293C60.2191 12.5028 60.1232 11.9276 59.9315 11.4034C59.744 10.875 59.4542 10.451 59.0621 10.1314C58.6701 9.81179 58.1758 9.65199 57.5792 9.65199C56.9783 9.65199 56.4798 9.81179 56.0835 10.1314C55.6914 10.451 55.3995 10.875 55.2077 11.4034C55.0202 11.9276 54.9265 12.5028 54.9265 13.1293C54.9265 13.7599 55.0202 14.3374 55.2077 14.8615C55.3995 15.3857 55.6914 15.8054 56.0835 16.1207C56.4798 16.4361 56.9783 16.5938 57.5792 16.5938ZM64.2828 18V8.18182H66.1301V9.74148H66.2324C66.4114 9.21307 66.7267 8.79758 67.1784 8.49503C67.6344 8.18821 68.15 8.0348 68.7253 8.0348C68.8446 8.0348 68.9853 8.03906 69.1472 8.04759C69.3134 8.05611 69.4434 8.06676 69.5371 8.07955V9.90767C69.4604 9.88636 69.324 9.86293 69.128 9.83736C68.932 9.80753 68.736 9.79261 68.54 9.79261C68.0882 9.79261 67.6855 9.88849 67.3319 10.0803C66.9824 10.2678 66.7054 10.5298 66.5009 10.8665C66.2963 11.1989 66.1941 11.5781 66.1941 12.0043V18H64.2828ZM76.3542 8.18182V9.71591H70.9913V8.18182H76.3542ZM72.4295 5.82955H74.3407V15.1172C74.3407 15.4879 74.3961 15.767 74.5069 15.9545C74.6177 16.1378 74.7605 16.2635 74.9352 16.3317C75.1142 16.3956 75.3081 16.4276 75.5169 16.4276C75.6703 16.4276 75.8045 16.4169 75.9196 16.3956C76.0346 16.3743 76.1241 16.3572 76.188 16.3445L76.5332 17.9233C76.4224 17.9659 76.2647 18.0085 76.0602 18.0511C75.8556 18.098 75.6 18.1236 75.2931 18.1278C74.7903 18.1364 74.3216 18.0469 73.8869 17.8594C73.4522 17.6719 73.1007 17.3821 72.8322 16.9901C72.5637 16.598 72.4295 16.1058 72.4295 15.5135V5.82955ZM85.6674 10.5788L83.9352 10.8857C83.8627 10.6641 83.7477 10.4531 83.59 10.2528C83.4366 10.0526 83.2278 9.88849 82.9636 9.76065C82.6994 9.63281 82.3691 9.56889 81.9728 9.56889C81.4316 9.56889 80.9799 9.69034 80.6177 9.93324C80.2555 10.1719 80.0744 10.4808 80.0744 10.8601C80.0744 11.1882 80.1958 11.4524 80.4387 11.6527C80.6816 11.853 81.0737 12.017 81.6149 12.1449L83.1745 12.5028C84.0779 12.7116 84.7512 13.0334 85.1944 13.468C85.6376 13.9027 85.8592 14.4673 85.8592 15.1619C85.8592 15.75 85.6887 16.2741 85.3478 16.7344C85.0112 17.1903 84.5403 17.5483 83.9352 17.8082C83.3343 18.0682 82.6376 18.1982 81.845 18.1982C80.7456 18.1982 79.8485 17.9638 79.1539 17.495C78.4593 17.022 78.0332 16.3509 77.8755 15.4815L79.7228 15.2003C79.8379 15.6818 80.0744 16.0462 80.4324 16.2933C80.7903 16.5362 81.2569 16.6577 81.8322 16.6577C82.4586 16.6577 82.9593 16.5277 83.3343 16.2678C83.7093 16.0036 83.8968 15.6818 83.8968 15.3026C83.8968 14.9957 83.7818 14.7379 83.5517 14.5291C83.3258 14.3203 82.9785 14.1626 82.5098 14.0561L80.8478 13.6918C79.9316 13.483 79.2541 13.1506 78.8152 12.6946C78.3805 12.2386 78.1632 11.6612 78.1632 10.9624C78.1632 10.3828 78.3251 9.87571 78.649 9.44105C78.9728 9.00639 79.4203 8.66761 79.9913 8.42472C80.5623 8.17756 81.2164 8.05398 81.9537 8.05398C83.0147 8.05398 83.85 8.28409 84.4593 8.74432C85.0687 9.20028 85.4714 9.81179 85.6674 10.5788Z"
    fill="black" />
  <g filter="url(#filter6_d_800_14062)">
    <g filter="url(#filter7_d_800_14062)">
      <path fill-rule="evenodd" clip-rule="evenodd"
        d="M320.676 124.835C315.332 124.835 311 129.167 311 134.511V169.343C311 174.686 315.332 179.018 320.676 179.018H348.355C348.355 179.018 348.355 179.018 348.355 179.018L352.545 186.275C352.917 186.92 353.848 186.92 354.221 186.275L358.41 179.018C358.41 179.018 358.41 179.018 358.41 179.018H387.437C392.78 179.018 397.112 174.686 397.112 169.343V134.511C397.112 129.167 392.78 124.835 387.437 124.835H320.676Z"
        fill="#448BFF" />
    </g>
    <path opacity="0.8"
      d="M340.023 143.576V135.132H342.876C343.538 135.132 344.08 135.251 344.5 135.49C344.924 135.727 345.237 136.047 345.44 136.451C345.644 136.855 345.745 137.306 345.745 137.803C345.745 138.301 345.644 138.753 345.44 139.16C345.24 139.567 344.929 139.891 344.508 140.133C344.088 140.372 343.549 140.492 342.892 140.492H340.847V139.584H342.859C343.313 139.584 343.677 139.506 343.952 139.349C344.227 139.193 344.426 138.981 344.55 138.715C344.676 138.445 344.739 138.141 344.739 137.803C344.739 137.465 344.676 137.163 344.55 136.896C344.426 136.63 344.225 136.421 343.948 136.27C343.67 136.116 343.302 136.039 342.843 136.039H341.045V143.576H340.023ZM347.261 143.576V137.243H348.201V138.199H348.267C348.382 137.886 348.591 137.632 348.893 137.436C349.196 137.241 349.537 137.144 349.916 137.144C349.987 137.144 350.077 137.145 350.184 137.148C350.291 137.15 350.372 137.155 350.427 137.16V138.15C350.394 138.141 350.319 138.129 350.2 138.113C350.085 138.093 349.963 138.084 349.833 138.084C349.526 138.084 349.251 138.148 349.009 138.277C348.77 138.404 348.58 138.58 348.44 138.805C348.302 139.028 348.234 139.282 348.234 139.568V143.576H347.261ZM353.961 143.708C353.389 143.708 352.887 143.571 352.456 143.299C352.027 143.027 351.692 142.647 351.45 142.157C351.211 141.668 351.091 141.096 351.091 140.442C351.091 139.782 351.211 139.207 351.45 138.715C351.692 138.222 352.027 137.84 352.456 137.568C352.887 137.296 353.389 137.16 353.961 137.16C354.532 137.16 355.033 137.296 355.461 137.568C355.893 137.84 356.228 138.222 356.467 138.715C356.709 139.207 356.83 139.782 356.83 140.442C356.83 141.096 356.709 141.668 356.467 142.157C356.228 142.647 355.893 143.027 355.461 143.299C355.033 143.571 354.532 143.708 353.961 143.708ZM353.961 142.833C354.395 142.833 354.752 142.722 355.033 142.499C355.313 142.277 355.521 141.984 355.655 141.621C355.79 141.258 355.857 140.865 355.857 140.442C355.857 140.019 355.79 139.624 355.655 139.259C355.521 138.893 355.313 138.598 355.033 138.372C354.752 138.147 354.395 138.034 353.961 138.034C353.526 138.034 353.169 138.147 352.889 138.372C352.608 138.598 352.401 138.893 352.266 139.259C352.131 139.624 352.064 140.019 352.064 140.442C352.064 140.865 352.131 141.258 352.266 141.621C352.401 141.984 352.608 142.277 352.889 142.499C353.169 142.722 353.526 142.833 353.961 142.833ZM361.136 137.243V138.067H357.722V137.243H361.136ZM358.744 143.576V136.368C358.744 136.006 358.83 135.703 359 135.461C359.17 135.219 359.392 135.038 359.664 134.917C359.936 134.796 360.223 134.736 360.526 134.736C360.765 134.736 360.96 134.755 361.111 134.793C361.262 134.832 361.375 134.868 361.449 134.901L361.169 135.742C361.119 135.725 361.051 135.705 360.963 135.68C360.877 135.655 360.765 135.643 360.625 135.643C360.303 135.643 360.071 135.724 359.928 135.886C359.788 136.048 359.717 136.286 359.717 136.599V143.576H358.744ZM362.5 143.576V137.243H363.473V143.576H362.5ZM362.994 136.187C362.805 136.187 362.641 136.122 362.504 135.993C362.369 135.864 362.302 135.709 362.302 135.527C362.302 135.346 362.369 135.191 362.504 135.061C362.641 134.932 362.805 134.868 362.994 134.868C363.184 134.868 363.346 134.932 363.481 135.061C363.618 135.191 363.687 135.346 363.687 135.527C363.687 135.709 363.618 135.864 363.481 135.993C363.346 136.122 363.184 136.187 362.994 136.187ZM368.009 137.243V138.067H364.727V137.243H368.009ZM365.684 135.725H366.657V141.761C366.657 142.036 366.697 142.242 366.776 142.38C366.859 142.515 366.963 142.605 367.09 142.652C367.219 142.696 367.355 142.718 367.498 142.718C367.605 142.718 367.693 142.713 367.762 142.702C367.83 142.688 367.885 142.677 367.927 142.669L368.124 143.543C368.058 143.567 367.966 143.592 367.848 143.617C367.73 143.644 367.58 143.658 367.399 143.658C367.124 143.658 366.855 143.599 366.591 143.481C366.33 143.363 366.112 143.183 365.939 142.941C365.769 142.699 365.684 142.394 365.684 142.025V135.725Z"
      fill="white" />
    <path
      d="M332.762 164.141C332.052 164.141 331.416 164.008 330.855 163.741C330.294 163.471 329.848 163.102 329.518 162.633C329.191 162.165 329.017 161.628 328.996 161.025H330.914C330.949 161.472 331.143 161.838 331.494 162.122C331.846 162.402 332.268 162.543 332.762 162.543C333.149 162.543 333.494 162.454 333.795 162.276C334.097 162.099 334.335 161.852 334.509 161.536C334.683 161.22 334.768 160.859 334.765 160.455C334.768 160.043 334.681 159.677 334.504 159.357C334.326 159.038 334.083 158.787 333.774 158.606C333.465 158.422 333.11 158.329 332.709 158.329C332.382 158.326 332.061 158.386 331.745 158.51C331.429 158.635 331.178 158.798 330.994 159L329.209 158.707L329.779 153.082H336.107V154.734H331.414L331.1 157.626H331.164C331.366 157.388 331.652 157.191 332.022 157.035C332.391 156.875 332.796 156.795 333.236 156.795C333.897 156.795 334.486 156.951 335.005 157.264C335.523 157.573 335.931 157.999 336.23 158.542C336.528 159.086 336.677 159.707 336.677 160.407C336.677 161.128 336.51 161.77 336.176 162.335C335.846 162.896 335.386 163.338 334.797 163.661C334.211 163.981 333.533 164.141 332.762 164.141ZM342.339 164.141C341.548 164.141 340.844 164.008 340.23 163.741C339.619 163.475 339.14 163.111 338.792 162.649C338.447 162.184 338.277 161.657 338.281 161.067C338.277 160.609 338.376 160.188 338.579 159.805C338.781 159.421 339.055 159.102 339.399 158.846C339.747 158.587 340.134 158.422 340.56 158.351V158.276C339.999 158.152 339.545 157.866 339.197 157.418C338.852 156.967 338.682 156.447 338.685 155.858C338.682 155.297 338.838 154.796 339.154 154.356C339.47 153.915 339.903 153.569 340.454 153.317C341.004 153.061 341.633 152.933 342.339 152.933C343.039 152.933 343.662 153.061 344.209 153.317C344.76 153.569 345.193 153.915 345.509 154.356C345.828 154.796 345.988 155.297 345.988 155.858C345.988 156.447 345.812 156.967 345.461 157.418C345.113 157.866 344.664 158.152 344.113 158.276V158.351C344.539 158.422 344.923 158.587 345.264 158.846C345.608 159.102 345.882 159.421 346.084 159.805C346.29 160.188 346.393 160.609 346.393 161.067C346.393 161.657 346.219 162.184 345.871 162.649C345.523 163.111 345.044 163.475 344.433 163.741C343.826 164.008 343.128 164.141 342.339 164.141ZM342.339 162.617C342.748 162.617 343.103 162.548 343.405 162.41C343.707 162.268 343.941 162.069 344.108 161.813C344.275 161.557 344.36 161.263 344.364 160.929C344.36 160.581 344.27 160.274 344.092 160.007C343.918 159.737 343.678 159.526 343.373 159.373C343.071 159.221 342.727 159.144 342.339 159.144C341.949 159.144 341.601 159.221 341.295 159.373C340.99 159.526 340.749 159.737 340.571 160.007C340.397 160.274 340.312 160.581 340.315 160.929C340.312 161.263 340.393 161.557 340.56 161.813C340.727 162.065 340.962 162.262 341.263 162.404C341.569 162.546 341.928 162.617 342.339 162.617ZM342.339 157.647C342.673 157.647 342.968 157.58 343.224 157.445C343.483 157.31 343.687 157.122 343.836 156.88C343.985 156.639 344.062 156.36 344.065 156.044C344.062 155.732 343.987 155.458 343.842 155.224C343.696 154.986 343.494 154.803 343.234 154.675C342.975 154.544 342.677 154.478 342.339 154.478C341.995 154.478 341.691 154.544 341.429 154.675C341.169 154.803 340.967 154.986 340.821 155.224C340.679 155.458 340.61 155.732 340.614 156.044C340.61 156.36 340.681 156.639 340.827 156.88C340.976 157.118 341.18 157.307 341.439 157.445C341.702 157.58 342.002 157.647 342.339 157.647ZM350.107 162.5L350.038 163.086C349.988 163.533 349.899 163.988 349.772 164.45C349.647 164.915 349.516 165.343 349.377 165.733C349.239 166.124 349.127 166.431 349.042 166.655H347.742C347.792 166.438 347.859 166.144 347.945 165.771C348.033 165.398 348.119 164.979 348.2 164.514C348.282 164.048 348.337 163.576 348.365 163.097L348.403 162.5H350.107ZM355.853 164.199C354.976 164.199 354.223 163.977 353.595 163.533C352.97 163.086 352.489 162.442 352.151 161.6C351.817 160.755 351.651 159.737 351.651 158.548C351.654 157.358 351.823 156.346 352.157 155.511C352.494 154.673 352.975 154.034 353.6 153.594C354.229 153.154 354.98 152.933 355.853 152.933C356.727 152.933 357.478 153.154 358.107 153.594C358.735 154.034 359.216 154.673 359.55 155.511C359.887 156.35 360.056 157.362 360.056 158.548C360.056 159.741 359.887 160.76 359.55 161.605C359.216 162.447 358.735 163.09 358.107 163.533C357.482 163.977 356.73 164.199 355.853 164.199ZM355.853 162.532C356.535 162.532 357.073 162.196 357.467 161.525C357.865 160.851 358.064 159.858 358.064 158.548C358.064 157.681 357.973 156.953 357.792 156.364C357.611 155.774 357.355 155.33 357.025 155.032C356.695 154.73 356.304 154.579 355.853 154.579C355.175 154.579 354.639 154.917 354.245 155.591C353.85 156.263 353.652 157.248 353.648 158.548C353.645 159.418 353.732 160.149 353.909 160.742C354.09 161.335 354.346 161.783 354.676 162.085C355.006 162.383 355.399 162.532 355.853 162.532ZM365.858 164.199C364.981 164.199 364.228 163.977 363.6 163.533C362.975 163.086 362.494 162.442 362.156 161.6C361.822 160.755 361.655 159.737 361.655 158.548C361.659 157.358 361.828 156.346 362.161 155.511C362.499 154.673 362.98 154.034 363.605 153.594C364.234 153.154 364.985 152.933 365.858 152.933C366.732 152.933 367.483 153.154 368.111 153.594C368.74 154.034 369.221 154.673 369.555 155.511C369.892 156.35 370.061 157.362 370.061 158.548C370.061 159.741 369.892 160.76 369.555 161.605C369.221 162.447 368.74 163.09 368.111 163.533C367.486 163.977 366.735 164.199 365.858 164.199ZM365.858 162.532C366.54 162.532 367.078 162.196 367.472 161.525C367.87 160.851 368.069 159.858 368.069 158.548C368.069 157.681 367.978 156.953 367.797 156.364C367.616 155.774 367.36 155.33 367.03 155.032C366.7 154.73 366.309 154.579 365.858 154.579C365.18 154.579 364.644 154.917 364.25 155.591C363.855 156.263 363.657 157.248 363.653 158.548C363.649 159.418 363.736 160.149 363.914 160.742C364.095 161.335 364.351 161.783 364.681 162.085C365.011 162.383 365.404 162.532 365.858 162.532ZM375.863 164.199C374.986 164.199 374.233 163.977 373.605 163.533C372.98 163.086 372.498 162.442 372.161 161.6C371.827 160.755 371.66 159.737 371.66 158.548C371.664 157.358 371.833 156.346 372.166 155.511C372.504 154.673 372.985 154.034 373.61 153.594C374.238 153.154 374.99 152.933 375.863 152.933C376.737 152.933 377.488 153.154 378.116 153.594C378.745 154.034 379.226 154.673 379.56 155.511C379.897 156.35 380.066 157.362 380.066 158.548C380.066 159.741 379.897 160.76 379.56 161.605C379.226 162.447 378.745 163.09 378.116 163.533C377.491 163.977 376.74 164.199 375.863 164.199ZM375.863 162.532C376.545 162.532 377.083 162.196 377.477 161.525C377.875 160.851 378.074 159.858 378.074 158.548C378.074 157.681 377.983 156.953 377.802 156.364C377.621 155.774 377.365 155.33 377.035 155.032C376.705 154.73 376.314 154.579 375.863 154.579C375.185 154.579 374.649 154.917 374.254 155.591C373.86 156.263 373.661 157.248 373.658 158.548C373.654 159.418 373.741 160.149 373.919 160.742C374.1 161.335 374.356 161.783 374.686 162.085C375.016 162.383 375.409 162.532 375.863 162.532Z"
      fill="white" />
  </g>
  <line x1="352.899" y1="318.346" x2="352.899" y2="205.142" stroke="#605BFF" stroke-width="0.967551"
    stroke-dasharray="1.94 6.77" />
  <defs>
    <filter id="filter0_d_800_14062" x="38.9286" y="137.413" width="629.877" height="159.649"
      filterUnits="userSpaceOnUse" color-interpolation-filters="sRGB">
      <feFlood flood-opacity="0" result="BackgroundImageFix" />
      <feColorMatrix in="SourceAlpha" type="matrix"
        values="0 0 0 0 0 0 0 0 0 0 0 0 0 0 0 0 0 0 127 0" result="hardAlpha" />
      <feOffset dy="3.87021" />
      <feGaussianBlur stdDeviation="1.9351" />
      <feColorMatrix type="matrix" values="0 0 0 0 0.376471 0 0 0 0 0.356863 0 0 0 0 1 0 0 0 0.17 0" />
      <feBlend mode="normal" in2="BackgroundImageFix" result="effect1_dropShadow_800_14062" />
      <feBlend mode="normal" in="SourceGraphic" in2="effect1_dropShadow_800_14062" result="shape" />
    </filter>
    <filter id="filter1_d_800_14062" x="165.679" y="172.245" width="21.2853" height="21.2861"
      filterUnits="userSpaceOnUse" color-interpolation-filters="sRGB">
      <feFlood flood-opacity="0" result="BackgroundImageFix" />
      <feColorMatrix in="SourceAlpha" type="matrix"
        values="0 0 0 0 0 0 0 0 0 0 0 0 0 0 0 0 0 0 127 0" result="hardAlpha" />
      <feOffset dy="3.87021" />
      <feGaussianBlur stdDeviation="1.9351" />
      <feColorMatrix type="matrix" values="0 0 0 0 0.376471 0 0 0 0 0.356863 0 0 0 0 1 0 0 0 0.17 0" />
      <feBlend mode="normal" in2="BackgroundImageFix" result="effect1_dropShadow_800_14062" />
      <feBlend mode="normal" in="SourceGraphic" in2="effect1_dropShadow_800_14062" result="shape" />
    </filter>
    <filter id="filter2_d_800_14062" x="245.018" y="224.493" width="21.2853" height="21.2861"
      filterUnits="userSpaceOnUse" color-interpolation-filters="sRGB">
      <feFlood flood-opacity="0" result="BackgroundImageFix" />
      <feColorMatrix in="SourceAlpha" type="matrix"
        values="0 0 0 0 0 0 0 0 0 0 0 0 0 0 0 0 0 0 127 0" result="hardAlpha" />
      <feOffset dy="3.87021" />
      <feGaussianBlur stdDeviation="1.9351" />
      <feColorMatrix type="matrix" values="0 0 0 0 0.376471 0 0 0 0 0.356863 0 0 0 0 1 0 0 0 0.17 0" />
      <feBlend mode="normal" in2="BackgroundImageFix" result="effect1_dropShadow_800_14062" />
      <feBlend mode="normal" in="SourceGraphic" in2="effect1_dropShadow_800_14062" result="shape" />
    </filter>
    <filter id="filter3_d_800_14062" x="342.741" y="191.596" width="21.2853" height="21.2861"
      filterUnits="userSpaceOnUse" color-interpolation-filters="sRGB">
      <feFlood flood-opacity="0" result="BackgroundImageFix" />
      <feColorMatrix in="SourceAlpha" type="matrix"
        values="0 0 0 0 0 0 0 0 0 0 0 0 0 0 0 0 0 0 127 0" result="hardAlpha" />
      <feOffset dy="3.87021" />
      <feGaussianBlur stdDeviation="1.9351" />
      <feColorMatrix type="matrix" values="0 0 0 0 0.376471 0 0 0 0 0.356863 0 0 0 0 1 0 0 0 0.17 0" />
      <feBlend mode="normal" in2="BackgroundImageFix" result="effect1_dropShadow_800_14062" />
      <feBlend mode="normal" in="SourceGraphic" in2="effect1_dropShadow_800_14062" result="shape" />
    </filter>
    <filter id="filter4_d_800_14062" x="481.1" y="228.363" width="21.2853" height="21.2861"
      filterUnits="userSpaceOnUse" color-interpolation-filters="sRGB">
      <feFlood flood-opacity="0" result="BackgroundImageFix" />
      <feColorMatrix in="SourceAlpha" type="matrix"
        values="0 0 0 0 0 0 0 0 0 0 0 0 0 0 0 0 0 0 127 0" result="hardAlpha" />
      <feOffset dy="3.87021" />
      <feGaussianBlur stdDeviation="1.9351" />
      <feColorMatrix type="matrix" values="0 0 0 0 0.376471 0 0 0 0 0.356863 0 0 0 0 1 0 0 0 0.17 0" />
      <feBlend mode="normal" in2="BackgroundImageFix" result="effect1_dropShadow_800_14062" />
      <feBlend mode="normal" in="SourceGraphic" in2="effect1_dropShadow_800_14062" result="shape" />
    </filter>
    <filter id="filter5_d_800_14062" x="569.147" y="147.089" width="21.2853" height="21.2861"
      filterUnits="userSpaceOnUse" color-interpolation-filters="sRGB">
      <feFlood flood-opacity="0" result="BackgroundImageFix" />
      <feColorMatrix in="SourceAlpha" type="matrix"
        values="0 0 0 0 0 0 0 0 0 0 0 0 0 0 0 0 0 0 127 0" result="hardAlpha" />
      <feOffset dy="3.87021" />
      <feGaussianBlur stdDeviation="1.9351" />
      <feColorMatrix type="matrix" values="0 0 0 0 0.376471 0 0 0 0 0.356863 0 0 0 0 1 0 0 0 0.17 0" />
      <feBlend mode="normal" in2="BackgroundImageFix" result="effect1_dropShadow_800_14062" />
      <feBlend mode="normal" in="SourceGraphic" in2="effect1_dropShadow_800_14062" result="shape" />
    </filter>
    <filter id="filter6_d_800_14062" x="287" y="100.835" width="134.111" height="109.923"
      filterUnits="userSpaceOnUse" color-interpolation-filters="sRGB">
      <feFlood flood-opacity="0" result="BackgroundImageFix" />
      <feColorMatrix in="SourceAlpha" type="matrix"
        values="0 0 0 0 0 0 0 0 0 0 0 0 0 0 0 0 0 0 127 0" result="hardAlpha" />
      <feMorphology radius="8" operator="dilate" in="SourceAlpha"
        result="effect1_dropShadow_800_14062" />
      <feOffset />
      <feGaussianBlur stdDeviation="8" />
      <feComposite in2="hardAlpha" operator="out" />
      <feColorMatrix type="matrix" values="0 0 0 0 0 0 0 0 0 0 0 0 0 0 0 0 0 0 0.02 0" />
      <feBlend mode="normal" in2="BackgroundImageFix" result="effect1_dropShadow_800_14062" />
      <feBlend mode="normal" in="SourceGraphic" in2="effect1_dropShadow_800_14062" result="shape" />
    </filter>
    <filter id="filter7_d_800_14062" x="304.227" y="121.933" width="99.657" height="75.4691"
      filterUnits="userSpaceOnUse" color-interpolation-filters="sRGB">
      <feFlood flood-opacity="0" result="BackgroundImageFix" />
      <feColorMatrix in="SourceAlpha"
        type="matrix"
        values="0 0 0 0 0 0 0 0 0 0 0 0 0 0 0 0 0 0 127 0" result="hardAlpha" />
      <feOffset
        dy="3.87021" />
      <feGaussianBlur stdDeviation="3.38643" />
      <feColorMatrix type="matrix"
        values="0 0 0 0 0.0117647 0 0 0 0 0.00784314 0 0 0 0 0.160784 0 0 0 0.07 0" />
      dropShadow_800_14062" /> <feBlend mode="normal" in="SourceGraphic"
        in2="effect1_dropShadow_800_14062" result="shape" />
    </filter>
    <linearGradient id="paint0_linear_800_14062" x1="38.2526" y1="148.056" x2="662.999" y2="146.514"
      gradientUnits="userSpaceOnUse">
      <stop stop-color="#5EC3FF" stop-opacity="0.04" />
      <stop offset="1" stop-color="#FD5DEF" stop-opacity="0.04" />
    </linearGradient>
    <linearGradient id="paint1_linear_800_14062" x1="35.7596" y1="139.349" x2="671.974" y2="139.349"
      gradientUnits="userSpaceOnUse">
      <stop stop-color="#448BFF" />
      <stop offset="1" stop-color="#FF5BEF" />
    </linearGradient>
  </defs>
</svg>
  