<svg width="552" height="552" viewBox="0 0 552 552" fill="none" xmlns="http://www.w3.org/2000/svg">
  <g filter="url(#filter0_d_2204_6357)">
    <rect x="24.595" y="24.595" width="502.81" height="502.81" rx="31.405" fill="white"
      stroke="#E2E2E8" stroke-width="1.19" />
    <rect x="221" y="116" width="84" height="15" rx="7.5" fill="#F4F6FA" />
    <rect x="368" y="116" width="81" height="15" rx="7.5" fill="#F4F6FA" />
    <rect x="104" y="116" width="51" height="15" rx="7.5" fill="#F4F6FA" />
    <path d="M64 336C64 332.686 66.6863 330 70 330H90C93.3137 330 96 332.686 96 336V482H64V336Z"
      fill="#F4F6FA" />
    <path
      d="M203 413C203 409.686 205.686 407 209 407H229C232.314 407 235 409.686 235 413V482H203V413Z"
      fill="#F4F6FA" />
    <path
      d="M342 345C342 341.686 344.686 339 348 339H368C371.314 339 374 341.686 374 345V482H342V345Z"
      fill="#F4F6FA" />
    <path
      d="M484 304C484 300.686 486.686 298 490 298H510C513.314 298 516 300.686 516 304V482H484V304Z"
      fill="#F4F6FA" />
    <line opacity="0.05" x1="63.8438" y1="481.712" x2="516.096" y2="481.712" stroke="#030229"
      stroke-width="0.707964" />
    <line opacity="0.05" x1="63.8438" y1="445.607" x2="516.096" y2="445.607" stroke="#030229"
      stroke-width="0.707964" />
    <line opacity="0.05" x1="63.8438" y1="409.502" x2="516.096" y2="409.502" stroke="#030229"
      stroke-width="0.707964" />
    <line opacity="0.05" x1="63.8438" y1="373.397" x2="516.096" y2="373.397" stroke="#030229"
      stroke-width="0.707964" />
    <line opacity="0.05" x1="63.8438" y1="337.292" x2="516.096" y2="337.292" stroke="#030229"
      stroke-width="0.707964" />
    <line opacity="0.05" x1="63.8438" y1="264.751" x2="516.096" y2="264.751" stroke="#030229"
      stroke-width="0.707964" />
    <line opacity="0.05" x1="63.8438" y1="192.751" x2="516.096" y2="192.751" stroke="#030229"
      stroke-width="0.707964" />
    <line opacity="0.05" x1="63.8438" y1="301.187" x2="516.096" y2="301.187" stroke="#030229"
      stroke-width="0.707964" />
    <line opacity="0.05" x1="63.8438" y1="228.646" x2="516.096" y2="228.646" stroke="#030229"
      stroke-width="0.707964" />
    <line opacity="0.05" x1="63.8438" y1="156.646" x2="516.096" y2="156.646" stroke="#030229"
      stroke-width="0.707964" />
    <path
      d="M104.756 101.21V100.273H111.301V101.21H108.557V109H107.5V101.21H104.756ZM112.796 109V102.455H113.802V109H112.796ZM113.308 101.364C113.112 101.364 112.942 101.297 112.8 101.163C112.661 101.03 112.592 100.869 112.592 100.682C112.592 100.494 112.661 100.334 112.8 100.2C112.942 100.067 113.112 100 113.308 100C113.504 100 113.671 100.067 113.81 100.2C113.952 100.334 114.023 100.494 114.023 100.682C114.023 100.869 113.952 101.03 113.81 101.163C113.671 101.297 113.504 101.364 113.308 101.364ZM116.65 100.273V109H115.644V100.273H116.65ZM119.497 100.273V109H118.491V100.273H119.497ZM127.561 102.455V103.307H124.169V102.455H127.561ZM125.157 100.886H126.163V107.125C126.163 107.409 126.204 107.622 126.287 107.764C126.372 107.903 126.48 107.997 126.61 108.045C126.744 108.091 126.885 108.114 127.032 108.114C127.143 108.114 127.234 108.108 127.305 108.097C127.376 108.082 127.433 108.071 127.475 108.062L127.68 108.966C127.612 108.991 127.517 109.017 127.395 109.043C127.272 109.071 127.118 109.085 126.93 109.085C126.646 109.085 126.368 109.024 126.095 108.902C125.825 108.78 125.6 108.594 125.422 108.344C125.245 108.094 125.157 107.778 125.157 107.398V100.886ZM131.662 109.136C131.071 109.136 130.553 108.996 130.107 108.714C129.664 108.433 129.317 108.04 129.067 107.534C128.82 107.028 128.696 106.437 128.696 105.761C128.696 105.08 128.82 104.484 129.067 103.976C129.317 103.467 129.664 103.072 130.107 102.791C130.553 102.51 131.071 102.369 131.662 102.369C132.253 102.369 132.77 102.51 133.213 102.791C133.659 103.072 134.006 103.467 134.253 103.976C134.503 104.484 134.628 105.08 134.628 105.761C134.628 106.437 134.503 107.028 134.253 107.534C134.006 108.04 133.659 108.433 133.213 108.714C132.77 108.996 132.253 109.136 131.662 109.136ZM131.662 108.233C132.111 108.233 132.48 108.118 132.77 107.888C133.06 107.658 133.275 107.355 133.414 106.98C133.553 106.605 133.623 106.199 133.623 105.761C133.623 105.324 133.553 104.916 133.414 104.538C133.275 104.161 133.06 103.855 132.77 103.622C132.48 103.389 132.111 103.273 131.662 103.273C131.213 103.273 130.844 103.389 130.554 103.622C130.265 103.855 130.05 104.161 129.911 104.538C129.772 104.916 129.702 105.324 129.702 105.761C129.702 106.199 129.772 106.605 129.911 106.98C130.05 107.355 130.265 107.658 130.554 107.888C130.844 108.118 131.213 108.233 131.662 108.233ZM138.635 109.136C138.089 109.136 137.608 108.999 137.19 108.723C136.773 108.445 136.446 108.053 136.21 107.547C135.974 107.038 135.857 106.438 135.857 105.744C135.857 105.057 135.974 104.46 136.21 103.955C136.446 103.449 136.774 103.058 137.195 102.783C137.615 102.507 138.101 102.369 138.652 102.369C139.078 102.369 139.415 102.44 139.662 102.582C139.912 102.722 140.102 102.881 140.233 103.06C140.366 103.236 140.47 103.381 140.544 103.494H140.629V100.273H141.635V109H140.663V107.994H140.544C140.47 108.114 140.365 108.264 140.229 108.446C140.092 108.625 139.898 108.786 139.645 108.928C139.392 109.067 139.055 109.136 138.635 109.136ZM138.771 108.233C139.175 108.233 139.516 108.128 139.794 107.918C140.072 107.705 140.284 107.411 140.429 107.036C140.574 106.658 140.646 106.222 140.646 105.727C140.646 105.239 140.575 104.811 140.433 104.445C140.291 104.075 140.081 103.788 139.803 103.584C139.524 103.376 139.18 103.273 138.771 103.273C138.345 103.273 137.99 103.382 137.706 103.601C137.425 103.817 137.213 104.111 137.071 104.483C136.932 104.852 136.862 105.267 136.862 105.727C136.862 106.193 136.933 106.616 137.075 106.997C137.22 107.375 137.433 107.676 137.714 107.901C137.999 108.122 138.351 108.233 138.771 108.233ZM145.543 109.153C145.128 109.153 144.751 109.075 144.413 108.919C144.075 108.76 143.807 108.531 143.608 108.233C143.409 107.932 143.31 107.568 143.31 107.142C143.31 106.767 143.384 106.463 143.531 106.23C143.679 105.994 143.876 105.81 144.124 105.676C144.371 105.543 144.643 105.443 144.942 105.378C145.243 105.31 145.545 105.256 145.849 105.216C146.247 105.165 146.57 105.126 146.817 105.101C147.067 105.072 147.249 105.026 147.362 104.96C147.479 104.895 147.537 104.781 147.537 104.619V104.585C147.537 104.165 147.422 103.838 147.192 103.605C146.964 103.372 146.619 103.256 146.156 103.256C145.676 103.256 145.3 103.361 145.027 103.571C144.754 103.781 144.562 104.006 144.452 104.244L143.497 103.903C143.668 103.506 143.895 103.196 144.179 102.974C144.466 102.75 144.778 102.594 145.116 102.506C145.457 102.415 145.793 102.369 146.122 102.369C146.332 102.369 146.574 102.395 146.847 102.446C147.122 102.494 147.388 102.595 147.643 102.749C147.902 102.902 148.116 103.134 148.287 103.443C148.457 103.753 148.543 104.168 148.543 104.688V109H147.537V108.114H147.486C147.418 108.256 147.304 108.408 147.145 108.57C146.986 108.732 146.774 108.869 146.51 108.983C146.246 109.097 145.923 109.153 145.543 109.153ZM145.696 108.25C146.094 108.25 146.429 108.172 146.702 108.016C146.977 107.859 147.185 107.658 147.324 107.411C147.466 107.163 147.537 106.903 147.537 106.631V105.71C147.494 105.761 147.401 105.808 147.256 105.851C147.114 105.891 146.949 105.926 146.761 105.957C146.577 105.986 146.396 106.011 146.22 106.034C146.047 106.054 145.906 106.071 145.798 106.085C145.537 106.119 145.293 106.175 145.065 106.251C144.841 106.325 144.659 106.437 144.52 106.588C144.384 106.736 144.315 106.937 144.315 107.193C144.315 107.543 144.445 107.807 144.703 107.986C144.964 108.162 145.295 108.25 145.696 108.25ZM150.792 111.455C150.621 111.455 150.469 111.44 150.336 111.412C150.202 111.386 150.11 111.361 150.059 111.335L150.314 110.449C150.559 110.511 150.775 110.534 150.962 110.517C151.15 110.5 151.316 110.416 151.461 110.266C151.608 110.118 151.743 109.878 151.865 109.545L152.053 109.034L149.632 102.455H150.723L152.53 107.67H152.598L154.405 102.455H155.496L152.718 109.955C152.593 110.293 152.438 110.572 152.253 110.794C152.069 111.018 151.854 111.185 151.61 111.293C151.368 111.401 151.096 111.455 150.792 111.455Z"
      fill="black" />
    <path
      d="M221.236 109V100.273H222.293V104.159H226.946V100.273H228.003V109H226.946V105.097H222.293V109H221.236ZM229.983 109V102.455H230.988V109H229.983ZM230.494 101.364C230.298 101.364 230.129 101.297 229.987 101.163C229.848 101.03 229.778 100.869 229.778 100.682C229.778 100.494 229.848 100.334 229.987 100.2C230.129 100.067 230.298 100 230.494 100C230.69 100 230.858 100.067 230.997 100.2C231.139 100.334 231.21 100.494 231.21 100.682C231.21 100.869 231.139 101.03 230.997 101.163C230.858 101.297 230.69 101.364 230.494 101.364ZM235.472 111.591C234.987 111.591 234.569 111.528 234.219 111.403C233.87 111.281 233.579 111.119 233.346 110.918C233.116 110.719 232.933 110.506 232.796 110.278L233.597 109.716C233.688 109.835 233.803 109.972 233.942 110.125C234.082 110.281 234.272 110.416 234.513 110.53C234.758 110.646 235.077 110.705 235.472 110.705C236.001 110.705 236.437 110.577 236.781 110.321C237.124 110.065 237.296 109.665 237.296 109.119V107.79H237.211C237.137 107.909 237.032 108.057 236.896 108.233C236.762 108.406 236.569 108.561 236.316 108.697C236.066 108.831 235.728 108.898 235.302 108.898C234.773 108.898 234.299 108.773 233.879 108.523C233.461 108.273 233.13 107.909 232.886 107.432C232.644 106.955 232.523 106.375 232.523 105.693C232.523 105.023 232.641 104.439 232.877 103.942C233.113 103.442 233.441 103.055 233.862 102.783C234.282 102.507 234.768 102.369 235.319 102.369C235.745 102.369 236.083 102.44 236.333 102.582C236.586 102.722 236.779 102.881 236.913 103.06C237.049 103.236 237.154 103.381 237.228 103.494H237.33V102.455H238.302V109.188C238.302 109.75 238.174 110.207 237.918 110.56C237.665 110.915 237.325 111.175 236.896 111.339C236.469 111.507 235.995 111.591 235.472 111.591ZM235.438 107.994C235.842 107.994 236.183 107.902 236.461 107.717C236.739 107.533 236.951 107.267 237.096 106.92C237.241 106.574 237.313 106.159 237.313 105.676C237.313 105.205 237.242 104.788 237.1 104.428C236.958 104.067 236.748 103.784 236.469 103.58C236.191 103.375 235.847 103.273 235.438 103.273C235.012 103.273 234.657 103.381 234.373 103.597C234.092 103.812 233.88 104.102 233.738 104.466C233.599 104.83 233.529 105.233 233.529 105.676C233.529 106.131 233.6 106.533 233.742 106.882C233.887 107.229 234.1 107.501 234.381 107.7C234.665 107.896 235.018 107.994 235.438 107.994ZM241.148 105.062V109H240.143V100.273H241.148V103.477H241.234C241.387 103.139 241.617 102.871 241.924 102.672C242.234 102.47 242.646 102.369 243.16 102.369C243.606 102.369 243.996 102.459 244.332 102.638C244.667 102.814 244.927 103.085 245.112 103.452C245.299 103.815 245.393 104.278 245.393 104.841V109H244.387V104.909C244.387 104.389 244.252 103.987 243.982 103.703C243.715 103.416 243.344 103.273 242.87 103.273C242.54 103.273 242.245 103.342 241.984 103.482C241.725 103.621 241.521 103.824 241.37 104.091C241.222 104.358 241.148 104.682 241.148 105.062ZM249.977 109.136C249.346 109.136 248.802 108.997 248.345 108.719C247.89 108.438 247.539 108.045 247.292 107.543C247.048 107.037 246.926 106.449 246.926 105.778C246.926 105.108 247.048 104.517 247.292 104.006C247.539 103.491 247.883 103.091 248.324 102.804C248.767 102.514 249.284 102.369 249.875 102.369C250.216 102.369 250.552 102.426 250.885 102.54C251.217 102.653 251.52 102.838 251.792 103.094C252.065 103.347 252.282 103.682 252.444 104.099C252.606 104.517 252.687 105.031 252.687 105.642V106.068H247.642V105.199H251.664C251.664 104.83 251.591 104.5 251.443 104.21C251.298 103.92 251.091 103.692 250.821 103.524C250.554 103.357 250.238 103.273 249.875 103.273C249.474 103.273 249.127 103.372 248.835 103.571C248.545 103.767 248.322 104.023 248.166 104.338C248.01 104.653 247.931 104.991 247.931 105.352V105.932C247.931 106.426 248.017 106.845 248.187 107.189C248.36 107.53 248.6 107.79 248.907 107.969C249.214 108.145 249.571 108.233 249.977 108.233C250.241 108.233 250.48 108.196 250.693 108.122C250.909 108.045 251.095 107.932 251.251 107.781C251.407 107.628 251.528 107.437 251.613 107.21L252.585 107.483C252.483 107.812 252.311 108.102 252.069 108.352C251.828 108.599 251.529 108.793 251.174 108.932C250.819 109.068 250.42 109.136 249.977 109.136ZM258.853 103.92L257.95 104.176C257.893 104.026 257.809 103.879 257.699 103.737C257.591 103.592 257.443 103.473 257.255 103.379C257.068 103.286 256.828 103.239 256.535 103.239C256.135 103.239 255.801 103.331 255.534 103.516C255.27 103.697 255.137 103.929 255.137 104.21C255.137 104.46 255.228 104.658 255.41 104.803C255.592 104.947 255.876 105.068 256.262 105.165L257.234 105.403C257.819 105.545 258.255 105.763 258.542 106.055C258.829 106.345 258.973 106.719 258.973 107.176C258.973 107.551 258.865 107.886 258.649 108.182C258.436 108.477 258.137 108.71 257.754 108.881C257.37 109.051 256.924 109.136 256.416 109.136C255.748 109.136 255.196 108.991 254.758 108.702C254.321 108.412 254.044 107.989 253.927 107.432L254.882 107.193C254.973 107.545 255.145 107.81 255.397 107.986C255.653 108.162 255.987 108.25 256.399 108.25C256.868 108.25 257.24 108.151 257.515 107.952C257.794 107.75 257.933 107.509 257.933 107.227C257.933 107 257.853 106.81 257.694 106.656C257.535 106.5 257.291 106.384 256.961 106.307L255.87 106.051C255.271 105.909 254.831 105.689 254.549 105.391C254.271 105.089 254.132 104.713 254.132 104.261C254.132 103.892 254.235 103.565 254.443 103.281C254.653 102.997 254.939 102.774 255.299 102.612C255.663 102.45 256.075 102.369 256.535 102.369C257.183 102.369 257.691 102.511 258.061 102.795C258.433 103.08 258.697 103.455 258.853 103.92ZM263.333 102.455V103.307H259.941V102.455H263.333ZM260.93 100.886H261.935V107.125C261.935 107.409 261.977 107.622 262.059 107.764C262.144 107.903 262.252 107.997 262.383 108.045C262.516 108.091 262.657 108.114 262.805 108.114C262.915 108.114 263.006 108.108 263.077 108.097C263.148 108.082 263.205 108.071 263.248 108.062L263.452 108.966C263.384 108.991 263.289 109.017 263.167 109.043C263.045 109.071 262.89 109.085 262.702 109.085C262.418 109.085 262.14 109.024 261.867 108.902C261.597 108.78 261.373 108.594 261.194 108.344C261.018 108.094 260.93 107.778 260.93 107.398V100.886ZM268.357 100.273H269.619L272.585 107.517H272.687L275.653 100.273H276.914V109H275.925V102.369H275.84L273.113 109H272.158L269.431 102.369H269.346V109H268.357V100.273ZM281.556 109.136C280.965 109.136 280.446 108.996 280 108.714C279.557 108.433 279.211 108.04 278.961 107.534C278.713 107.028 278.59 106.437 278.59 105.761C278.59 105.08 278.713 104.484 278.961 103.976C279.211 103.467 279.557 103.072 280 102.791C280.446 102.51 280.965 102.369 281.556 102.369C282.147 102.369 282.664 102.51 283.107 102.791C283.553 103.072 283.899 103.467 284.147 103.976C284.397 104.484 284.522 105.08 284.522 105.761C284.522 106.437 284.397 107.028 284.147 107.534C283.899 108.04 283.553 108.433 283.107 108.714C282.664 108.996 282.147 109.136 281.556 109.136ZM281.556 108.233C282.005 108.233 282.374 108.118 282.664 107.888C282.953 107.658 283.168 107.355 283.307 106.98C283.446 106.605 283.516 106.199 283.516 105.761C283.516 105.324 283.446 104.916 283.307 104.538C283.168 104.161 282.953 103.855 282.664 103.622C282.374 103.389 282.005 103.273 281.556 103.273C281.107 103.273 280.738 103.389 280.448 103.622C280.158 103.855 279.944 104.161 279.804 104.538C279.665 104.916 279.596 105.324 279.596 105.761C279.596 106.199 279.665 106.605 279.804 106.98C279.944 107.355 280.158 107.658 280.448 107.888C280.738 108.118 281.107 108.233 281.556 108.233ZM287.062 105.062V109H286.057V102.455H287.028V103.477H287.114C287.267 103.145 287.5 102.878 287.812 102.676C288.125 102.472 288.528 102.369 289.023 102.369C289.466 102.369 289.854 102.46 290.186 102.642C290.518 102.821 290.777 103.094 290.962 103.46C291.146 103.824 291.239 104.284 291.239 104.841V109H290.233V104.909C290.233 104.395 290.099 103.994 289.832 103.707C289.565 103.418 289.199 103.273 288.733 103.273C288.412 103.273 288.125 103.342 287.872 103.482C287.622 103.621 287.425 103.824 287.28 104.091C287.135 104.358 287.062 104.682 287.062 105.062ZM295.923 102.455V103.307H292.531V102.455H295.923ZM293.52 100.886H294.525V107.125C294.525 107.409 294.566 107.622 294.649 107.764C294.734 107.903 294.842 107.997 294.973 108.045C295.106 108.091 295.247 108.114 295.395 108.114C295.505 108.114 295.596 108.108 295.667 108.097C295.738 108.082 295.795 108.071 295.838 108.062L296.042 108.966C295.974 108.991 295.879 109.017 295.757 109.043C295.635 109.071 295.48 109.085 295.292 109.085C295.008 109.085 294.73 109.024 294.457 108.902C294.187 108.78 293.963 108.594 293.784 108.344C293.608 108.094 293.52 107.778 293.52 107.398V100.886ZM298.582 105.062V109H297.576V100.273H298.582V103.477H298.667C298.821 103.139 299.051 102.871 299.358 102.672C299.667 102.47 300.079 102.369 300.593 102.369C301.039 102.369 301.43 102.459 301.765 102.638C302.1 102.814 302.36 103.085 302.545 103.452C302.733 103.815 302.826 104.278 302.826 104.841V109H301.821V104.909C301.821 104.389 301.686 103.987 301.416 103.703C301.149 103.416 300.778 103.273 300.304 103.273C299.974 103.273 299.679 103.342 299.417 103.482C299.159 103.621 298.954 103.824 298.804 104.091C298.656 104.358 298.582 104.682 298.582 105.062Z"
      fill="black" />
    <path
      d="M369.003 109V100.273H370.06V108.062H374.117V109H369.003ZM378.276 109.136C377.685 109.136 377.167 108.996 376.721 108.714C376.278 108.433 375.931 108.04 375.681 107.534C375.434 107.028 375.31 106.437 375.31 105.761C375.31 105.08 375.434 104.484 375.681 103.976C375.931 103.467 376.278 103.072 376.721 102.791C377.167 102.51 377.685 102.369 378.276 102.369C378.867 102.369 379.384 102.51 379.827 102.791C380.273 103.072 380.62 103.467 380.867 103.976C381.117 104.484 381.242 105.08 381.242 105.761C381.242 106.437 381.117 107.028 380.867 107.534C380.62 108.04 380.273 108.433 379.827 108.714C379.384 108.996 378.867 109.136 378.276 109.136ZM378.276 108.233C378.725 108.233 379.094 108.118 379.384 107.888C379.674 107.658 379.888 107.355 380.028 106.98C380.167 106.605 380.236 106.199 380.236 105.761C380.236 105.324 380.167 104.916 380.028 104.538C379.888 104.161 379.674 103.855 379.384 103.622C379.094 103.389 378.725 103.273 378.276 103.273C377.827 103.273 377.458 103.389 377.168 103.622C376.878 103.855 376.664 104.161 376.525 104.538C376.386 104.916 376.316 105.324 376.316 105.761C376.316 106.199 376.386 106.605 376.525 106.98C376.664 107.355 376.878 107.658 377.168 107.888C377.458 108.118 377.827 108.233 378.276 108.233ZM384.038 109L382.043 102.455H383.1L384.515 107.466H384.583L385.981 102.455H387.055L388.435 107.449H388.503L389.918 102.455H390.975L388.981 109H387.992L386.56 103.972H386.458L385.026 109H384.038ZM394.826 109.136C394.196 109.136 393.652 108.997 393.194 108.719C392.74 108.438 392.389 108.045 392.142 107.543C391.897 107.037 391.775 106.449 391.775 105.778C391.775 105.108 391.897 104.517 392.142 104.006C392.389 103.491 392.733 103.091 393.173 102.804C393.616 102.514 394.133 102.369 394.724 102.369C395.065 102.369 395.402 102.426 395.734 102.54C396.066 102.653 396.369 102.838 396.642 103.094C396.914 103.347 397.132 103.682 397.294 104.099C397.456 104.517 397.536 105.031 397.536 105.642V106.068H392.491V105.199H396.514C396.514 104.83 396.44 104.5 396.292 104.21C396.147 103.92 395.94 103.692 395.67 103.524C395.403 103.357 395.088 103.273 394.724 103.273C394.323 103.273 393.977 103.372 393.684 103.571C393.394 103.767 393.171 104.023 393.015 104.338C392.859 104.653 392.781 104.991 392.781 105.352V105.932C392.781 106.426 392.866 106.845 393.036 107.189C393.21 107.53 393.45 107.79 393.757 107.969C394.063 108.145 394.42 108.233 394.826 108.233C395.09 108.233 395.329 108.196 395.542 108.122C395.758 108.045 395.944 107.932 396.1 107.781C396.257 107.628 396.377 107.437 396.463 107.21L397.434 107.483C397.332 107.812 397.16 108.102 396.919 108.352C396.677 108.599 396.379 108.793 396.024 108.932C395.669 109.068 395.269 109.136 394.826 109.136ZM403.703 103.92L402.799 104.176C402.742 104.026 402.659 103.879 402.548 103.737C402.44 103.592 402.292 103.473 402.105 103.379C401.917 103.286 401.677 103.239 401.385 103.239C400.984 103.239 400.65 103.331 400.383 103.516C400.119 103.697 399.987 103.929 399.987 104.21C399.987 104.46 400.078 104.658 400.26 104.803C400.441 104.947 400.725 105.068 401.112 105.165L402.083 105.403C402.669 105.545 403.105 105.763 403.392 106.055C403.679 106.345 403.822 106.719 403.822 107.176C403.822 107.551 403.714 107.886 403.498 108.182C403.285 108.477 402.987 108.71 402.603 108.881C402.22 109.051 401.774 109.136 401.265 109.136C400.598 109.136 400.045 108.991 399.608 108.702C399.17 108.412 398.893 107.989 398.777 107.432L399.731 107.193C399.822 107.545 399.994 107.81 400.247 107.986C400.502 108.162 400.836 108.25 401.248 108.25C401.717 108.25 402.089 108.151 402.365 107.952C402.643 107.75 402.782 107.509 402.782 107.227C402.782 107 402.703 106.81 402.544 106.656C402.385 106.5 402.14 106.384 401.811 106.307L400.72 106.051C400.12 105.909 399.68 105.689 399.399 105.391C399.12 105.089 398.981 104.713 398.981 104.261C398.981 103.892 399.085 103.565 399.292 103.281C399.502 102.997 399.788 102.774 400.149 102.612C400.512 102.45 400.924 102.369 401.385 102.369C402.032 102.369 402.541 102.511 402.91 102.795C403.282 103.08 403.546 103.455 403.703 103.92ZM408.182 102.455V103.307H404.79V102.455H408.182ZM405.779 100.886H406.785V107.125C406.785 107.409 406.826 107.622 406.908 107.764C406.994 107.903 407.101 107.997 407.232 108.045C407.366 108.091 407.506 108.114 407.654 108.114C407.765 108.114 407.856 108.108 407.927 108.097C407.998 108.082 408.055 108.071 408.097 108.062L408.302 108.966C408.234 108.991 408.138 109.017 408.016 109.043C407.894 109.071 407.739 109.085 407.552 109.085C407.268 109.085 406.989 109.024 406.717 108.902C406.447 108.78 406.222 108.594 406.043 108.344C405.867 108.094 405.779 107.778 405.779 107.398V100.886ZM413.207 100.273H414.468L417.434 107.517H417.536L420.502 100.273H421.763V109H420.775V102.369H420.69L417.962 109H417.008L414.28 102.369H414.195V109H413.207V100.273ZM426.405 109.136C425.814 109.136 425.296 108.996 424.85 108.714C424.407 108.433 424.06 108.04 423.81 107.534C423.563 107.028 423.439 106.437 423.439 105.761C423.439 105.08 423.563 104.484 423.81 103.976C424.06 103.467 424.407 103.072 424.85 102.791C425.296 102.51 425.814 102.369 426.405 102.369C426.996 102.369 427.513 102.51 427.956 102.791C428.402 103.072 428.749 103.467 428.996 103.976C429.246 104.484 429.371 105.08 429.371 105.761C429.371 106.437 429.246 107.028 428.996 107.534C428.749 108.04 428.402 108.433 427.956 108.714C427.513 108.996 426.996 109.136 426.405 109.136ZM426.405 108.233C426.854 108.233 427.223 108.118 427.513 107.888C427.803 107.658 428.017 107.355 428.157 106.98C428.296 106.605 428.365 106.199 428.365 105.761C428.365 105.324 428.296 104.916 428.157 104.538C428.017 104.161 427.803 103.855 427.513 103.622C427.223 103.389 426.854 103.273 426.405 103.273C425.956 103.273 425.587 103.389 425.297 103.622C425.007 103.855 424.793 104.161 424.654 104.538C424.514 104.916 424.445 105.324 424.445 105.761C424.445 106.199 424.514 106.605 424.654 106.98C424.793 107.355 425.007 107.658 425.297 107.888C425.587 108.118 425.956 108.233 426.405 108.233ZM431.912 105.062V109H430.906V102.455H431.878V103.477H431.963C432.116 103.145 432.349 102.878 432.662 102.676C432.974 102.472 433.378 102.369 433.872 102.369C434.315 102.369 434.703 102.46 435.035 102.642C435.368 102.821 435.626 103.094 435.811 103.46C435.996 103.824 436.088 104.284 436.088 104.841V109H435.082V104.909C435.082 104.395 434.949 103.994 434.682 103.707C434.415 103.418 434.048 103.273 433.582 103.273C433.261 103.273 432.974 103.342 432.722 103.482C432.472 103.621 432.274 103.824 432.129 104.091C431.984 104.358 431.912 104.682 431.912 105.062ZM440.772 102.455V103.307H437.38V102.455H440.772ZM438.369 100.886H439.375V107.125C439.375 107.409 439.416 107.622 439.498 107.764C439.583 107.903 439.691 107.997 439.822 108.045C439.956 108.091 440.096 108.114 440.244 108.114C440.355 108.114 440.446 108.108 440.517 108.097C440.588 108.082 440.644 108.071 440.687 108.062L440.892 108.966C440.823 108.991 440.728 109.017 440.606 109.043C440.484 109.071 440.329 109.085 440.142 109.085C439.858 109.085 439.579 109.024 439.306 108.902C439.036 108.78 438.812 108.594 438.633 108.344C438.457 108.094 438.369 107.778 438.369 107.398V100.886ZM443.431 105.062V109H442.426V100.273H443.431V103.477H443.517C443.67 103.139 443.9 102.871 444.207 102.672C444.517 102.47 444.929 102.369 445.443 102.369C445.889 102.369 446.279 102.459 446.615 102.638C446.95 102.814 447.21 103.085 447.394 103.452C447.582 103.815 447.676 104.278 447.676 104.841V109H446.67V104.909C446.67 104.389 446.535 103.987 446.265 103.703C445.998 103.416 445.627 103.273 445.153 103.273C444.823 103.273 444.528 103.342 444.267 103.482C444.008 103.621 443.804 103.824 443.653 104.091C443.505 104.358 443.431 104.682 443.431 105.062Z"
      fill="black" />
    <g opacity="0.7">
      <path opacity="0.7"
        d="M36.54 298.06V303.878H35.8355V298.798H35.8014L34.3809 299.741V299.025L35.8355 298.06H36.54ZM40.1111 303.957C39.683 303.957 39.3184 303.841 39.0173 303.608C38.7162 303.373 38.4861 303.033 38.327 302.588C38.1679 302.141 38.0883 301.601 38.0883 300.969C38.0883 300.34 38.1679 299.803 38.327 299.358C38.488 298.911 38.719 298.57 39.0202 298.335C39.3232 298.098 39.6868 297.98 40.1111 297.98C40.5353 297.98 40.898 298.098 41.1991 298.335C41.5022 298.57 41.7332 298.911 41.8923 299.358C42.0533 299.803 42.1338 300.34 42.1338 300.969C42.1338 301.601 42.0542 302.141 41.8952 302.588C41.7361 303.033 41.5059 303.373 41.2048 303.608C40.9037 303.841 40.5391 303.957 40.1111 303.957ZM40.1111 303.332C40.5353 303.332 40.8648 303.128 41.0997 302.719C41.3345 302.31 41.452 301.726 41.452 300.969C41.452 300.465 41.398 300.036 41.29 299.682C41.184 299.327 41.0306 299.058 40.8298 298.872C40.6309 298.686 40.3914 298.594 40.1111 298.594C39.6906 298.594 39.362 298.801 39.1253 299.216C38.8885 299.629 38.7702 300.213 38.7702 300.969C38.7702 301.472 38.8232 301.9 38.9292 302.253C39.0353 302.605 39.1878 302.873 39.3866 303.057C39.5874 303.24 39.8289 303.332 40.1111 303.332ZM45.1111 303.957C44.683 303.957 44.3184 303.841 44.0173 303.608C43.7162 303.373 43.4861 303.033 43.327 302.588C43.1679 302.141 43.0883 301.601 43.0883 300.969C43.0883 300.34 43.1679 299.803 43.327 299.358C43.488 298.911 43.719 298.57 44.0202 298.335C44.3232 298.098 44.6868 297.98 45.1111 297.98C45.5353 297.98 45.898 298.098 46.1991 298.335C46.5022 298.57 46.7332 298.911 46.8923 299.358C47.0533 299.803 47.1338 300.34 47.1338 300.969C47.1338 301.601 47.0542 302.141 46.8952 302.588C46.7361 303.033 46.5059 303.373 46.2048 303.608C45.9037 303.841 45.5391 303.957 45.1111 303.957ZM45.1111 303.332C45.5353 303.332 45.8648 303.128 46.0997 302.719C46.3345 302.31 46.452 301.726 46.452 300.969C46.452 300.465 46.398 300.036 46.29 299.682C46.184 299.327 46.0306 299.058 45.8298 298.872C45.6309 298.686 45.3914 298.594 45.1111 298.594C44.6906 298.594 44.362 298.801 44.1253 299.216C43.8885 299.629 43.7702 300.213 43.7702 300.969C43.7702 301.472 43.8232 301.9 43.9292 302.253C44.0353 302.605 44.1878 302.873 44.3866 303.057C44.5874 303.24 44.8289 303.332 45.1111 303.332ZM48.8497 302.287L48.8383 301.457H48.9747L50.8838 299.514H51.7133L49.6792 301.571H49.6224L48.8497 302.287ZM48.2247 303.878V298.06H48.8952V303.878H48.2247ZM50.9974 303.878L49.2929 301.719L49.7702 301.253L51.8497 303.878H50.9974Z"
        fill="#030229" />
      <path opacity="0.7"
        d="M37.8211 262.06V267.878H37.1166V262.798H37.0825L35.662 263.741V263.025L37.1166 262.06H37.8211ZM41.5399 262.06V267.878H40.8353V262.798H40.8012L39.3808 263.741V263.025L40.8353 262.06H41.5399ZM45.1109 267.957C44.6829 267.957 44.3183 267.841 44.0171 267.608C43.716 267.373 43.4859 267.033 43.3268 266.588C43.1677 266.141 43.0882 265.601 43.0882 264.969C43.0882 264.34 43.1677 263.803 43.3268 263.358C43.4878 262.911 43.7188 262.57 44.02 262.335C44.323 262.098 44.6866 261.98 45.1109 261.98C45.5351 261.98 45.8978 262.098 46.199 262.335C46.502 262.57 46.733 262.911 46.8921 263.358C47.0531 263.803 47.1336 264.34 47.1336 264.969C47.1336 265.601 47.0541 266.141 46.895 266.588C46.7359 267.033 46.5058 267.373 46.2046 267.608C45.9035 267.841 45.5389 267.957 45.1109 267.957ZM45.1109 267.332C45.5351 267.332 45.8647 267.128 46.0995 266.719C46.3344 266.31 46.4518 265.726 46.4518 264.969C46.4518 264.465 46.3978 264.036 46.2899 263.682C46.1838 263.327 46.0304 263.058 45.8296 262.872C45.6308 262.686 45.3912 262.594 45.1109 262.594C44.6904 262.594 44.3618 262.801 44.1251 263.216C43.8883 263.629 43.77 264.213 43.77 264.969C43.77 265.472 43.823 265.9 43.9291 266.253C44.0351 266.605 44.1876 266.873 44.3865 267.057C44.5872 267.24 44.8287 267.332 45.1109 267.332ZM48.8495 266.287L48.8382 265.457H48.9745L50.8836 263.514H51.7132L49.6791 265.571H49.6222L48.8495 266.287ZM48.2245 267.878V262.06H48.895V267.878H48.2245ZM50.9972 267.878L49.2927 265.719L49.77 265.253L51.8495 267.878H50.9972Z"
        fill="#030229" />
      <path opacity="0.7"
        d="M36.6962 226.182V232H35.9917V226.92H35.9576L34.5371 227.864V227.148L35.9917 226.182H36.6962ZM38.3695 232V231.489L40.29 229.386C40.5153 229.14 40.7009 228.926 40.8468 228.744C40.9926 228.561 41.1006 228.388 41.1706 228.227C41.2426 228.064 41.2786 227.894 41.2786 227.716C41.2786 227.511 41.2293 227.334 41.1309 227.185C41.0343 227.035 40.9017 226.92 40.7331 226.838C40.5646 226.757 40.3752 226.716 40.165 226.716C39.9415 226.716 39.7464 226.762 39.5797 226.855C39.415 226.946 39.2871 227.074 39.1962 227.239C39.1072 227.403 39.0627 227.597 39.0627 227.818H38.3922C38.3922 227.477 38.4708 227.178 38.628 226.92C38.7852 226.663 38.9992 226.462 39.2701 226.318C39.5428 226.174 39.8487 226.102 40.1877 226.102C40.5286 226.102 40.8307 226.174 41.0939 226.318C41.3572 226.462 41.5636 226.656 41.7132 226.901C41.8629 227.145 41.9377 227.417 41.9377 227.716C41.9377 227.93 41.8989 228.139 41.8212 228.344C41.7454 228.546 41.6129 228.773 41.4235 229.023C41.236 229.271 40.9756 229.574 40.6422 229.932L39.3354 231.33V231.375H42.04V232H38.3695ZM45.111 232.08C44.6829 232.08 44.3184 231.963 44.0172 231.73C43.7161 231.495 43.486 231.155 43.3269 230.71C43.1678 230.263 43.0882 229.723 43.0882 229.091C43.0882 228.462 43.1678 227.925 43.3269 227.48C43.4879 227.033 43.7189 226.692 44.0201 226.457C44.3231 226.221 44.6867 226.102 45.111 226.102C45.5352 226.102 45.8979 226.221 46.199 226.457C46.5021 226.692 46.7331 227.033 46.8922 227.48C47.0532 227.925 47.1337 228.462 47.1337 229.091C47.1337 229.723 47.0542 230.263 46.8951 230.71C46.736 231.155 46.5059 231.495 46.2047 231.73C45.9036 231.963 45.539 232.08 45.111 232.08ZM45.111 231.455C45.5352 231.455 45.8648 231.25 46.0996 230.841C46.3345 230.432 46.4519 229.848 46.4519 229.091C46.4519 228.587 46.3979 228.158 46.29 227.804C46.1839 227.45 46.0305 227.18 45.8297 226.994C45.6309 226.809 45.3913 226.716 45.111 226.716C44.6905 226.716 44.3619 226.923 44.1252 227.338C43.8884 227.751 43.7701 228.335 43.7701 229.091C43.7701 229.595 43.8231 230.023 43.9292 230.375C44.0352 230.727 44.1877 230.995 44.3865 231.179C44.5873 231.363 44.8288 231.455 45.111 231.455ZM48.8496 230.409L48.8382 229.58H48.9746L50.8837 227.636H51.7132L49.6792 229.693H49.6223L48.8496 230.409ZM48.2246 232V226.182H48.8951V232H48.2246ZM50.9973 232L49.2928 229.841L49.7701 229.375L51.8496 232H50.9973Z"
        fill="#030229" />
      <path opacity="0.7"
        d="M36.4463 190.182V196H35.7417V190.92H35.7077L34.2872 191.864V191.148L35.7417 190.182H36.4463ZM40.0855 196.08C39.7105 196.08 39.3762 196.015 39.0827 195.886C38.791 195.758 38.559 195.579 38.3866 195.349C38.2162 195.118 38.1234 194.85 38.1082 194.545H38.8241C38.8393 194.733 38.9037 194.895 39.0173 195.031C39.1309 195.166 39.2796 195.27 39.4633 195.344C39.647 195.418 39.8506 195.455 40.0741 195.455C40.3241 195.455 40.5457 195.411 40.7389 195.324C40.9321 195.237 41.0836 195.116 41.1934 194.96C41.3033 194.805 41.3582 194.625 41.3582 194.42C41.3582 194.206 41.3052 194.018 41.1991 193.855C41.0931 193.69 40.9378 193.562 40.7332 193.469C40.5287 193.376 40.2787 193.33 39.9832 193.33H39.5173V192.705H39.9832C40.2143 192.705 40.4169 192.663 40.5912 192.58C40.7673 192.496 40.9046 192.379 41.0031 192.227C41.1035 192.076 41.1537 191.898 41.1537 191.693C41.1537 191.496 41.1101 191.325 41.023 191.179C40.9359 191.033 40.8128 190.92 40.6537 190.838C40.4965 190.757 40.3109 190.716 40.0969 190.716C39.8961 190.716 39.7067 190.753 39.5287 190.827C39.3525 190.899 39.2086 191.004 39.0969 191.142C38.9851 191.278 38.9245 191.443 38.915 191.636H38.2332C38.2446 191.331 38.3364 191.064 38.5088 190.835C38.6811 190.604 38.9065 190.424 39.1849 190.295C39.4652 190.167 39.773 190.102 40.1082 190.102C40.4681 190.102 40.7768 190.175 41.0344 190.321C41.2919 190.465 41.4898 190.655 41.6281 190.892C41.7664 191.129 41.8355 191.384 41.8355 191.659C41.8355 191.987 41.7493 192.266 41.577 192.497C41.4065 192.728 41.1745 192.888 40.8809 192.977V193.023C41.2484 193.083 41.5353 193.24 41.7417 193.491C41.9482 193.741 42.0514 194.051 42.0514 194.42C42.0514 194.737 41.9652 195.021 41.7929 195.273C41.6224 195.523 41.3895 195.72 41.094 195.864C40.7986 196.008 40.4624 196.08 40.0855 196.08ZM45.1111 196.08C44.683 196.08 44.3184 195.963 44.0173 195.73C43.7162 195.495 43.4861 195.155 43.327 194.71C43.1679 194.263 43.0883 193.723 43.0883 193.091C43.0883 192.462 43.1679 191.925 43.327 191.48C43.488 191.033 43.719 190.692 44.0202 190.457C44.3232 190.221 44.6868 190.102 45.1111 190.102C45.5353 190.102 45.898 190.221 46.1991 190.457C46.5022 190.692 46.7332 191.033 46.8923 191.48C47.0533 191.925 47.1338 192.462 47.1338 193.091C47.1338 193.723 47.0542 194.263 46.8952 194.71C46.7361 195.155 46.5059 195.495 46.2048 195.73C45.9037 195.963 45.5391 196.08 45.1111 196.08ZM45.1111 195.455C45.5353 195.455 45.8648 195.25 46.0997 194.841C46.3345 194.432 46.452 193.848 46.452 193.091C46.452 192.587 46.398 192.158 46.29 191.804C46.184 191.45 46.0306 191.18 45.8298 190.994C45.6309 190.809 45.3914 190.716 45.1111 190.716C44.6906 190.716 44.362 190.923 44.1253 191.338C43.8885 191.751 43.7702 192.335 43.7702 193.091C43.7702 193.595 43.8232 194.023 43.9292 194.375C44.0353 194.727 44.1878 194.995 44.3866 195.179C44.5874 195.363 44.8289 195.455 45.1111 195.455ZM48.8497 194.409L48.8383 193.58H48.9747L50.8838 191.636H51.7133L49.6792 193.693H49.6224L48.8497 194.409ZM48.2247 196V190.182H48.8952V196H48.2247ZM50.9974 196L49.2929 193.841L49.7702 193.375L51.8497 196H50.9974Z"
        fill="#030229" />
      <path opacity="0.7"
        d="M36.4072 154.182V160H35.7027V154.92H35.6686L34.2481 155.864V155.148L35.7027 154.182H36.4072ZM37.9442 158.807V158.227L40.501 154.182H40.9214V155.08H40.6373L38.7055 158.136V158.182H42.1487V158.807H37.9442ZM40.6828 160V158.631V158.361V154.182H41.3532V160H40.6828ZM45.1111 160.08C44.683 160.08 44.3184 159.963 44.0173 159.73C43.7162 159.495 43.4861 159.155 43.327 158.71C43.1679 158.263 43.0883 157.723 43.0883 157.091C43.0883 156.462 43.1679 155.925 43.327 155.48C43.488 155.033 43.719 154.692 44.0202 154.457C44.3232 154.221 44.6868 154.102 45.1111 154.102C45.5353 154.102 45.898 154.221 46.1991 154.457C46.5022 154.692 46.7332 155.033 46.8923 155.48C47.0533 155.925 47.1338 156.462 47.1338 157.091C47.1338 157.723 47.0542 158.263 46.8952 158.71C46.7361 159.155 46.5059 159.495 46.2048 159.73C45.9037 159.963 45.5391 160.08 45.1111 160.08ZM45.1111 159.455C45.5353 159.455 45.8648 159.25 46.0997 158.841C46.3345 158.432 46.452 157.848 46.452 157.091C46.452 156.587 46.398 156.158 46.29 155.804C46.184 155.45 46.0306 155.18 45.8298 154.994C45.6309 154.809 45.3914 154.716 45.1111 154.716C44.6906 154.716 44.362 154.923 44.1253 155.338C43.8885 155.751 43.7702 156.335 43.7702 157.091C43.7702 157.595 43.8232 158.023 43.9292 158.375C44.0353 158.727 44.1878 158.995 44.3866 159.179C44.5874 159.363 44.8289 159.455 45.1111 159.455ZM48.8497 158.409L48.8383 157.58H48.9747L50.8838 155.636H51.7133L49.6792 157.693H49.6224L48.8497 158.409ZM48.2247 160V154.182H48.8952V160H48.2247ZM50.9974 160L49.2929 157.841L49.7702 157.375L51.8497 160H50.9974Z"
        fill="#030229" />
      <path opacity="0.7"
        d="M36.1547 340.08C35.7646 340.08 35.4199 340.01 35.1206 339.872C34.8233 339.732 34.5913 339.54 34.4246 339.295C34.258 339.049 34.1756 338.769 34.1775 338.455C34.1756 338.208 34.2239 337.981 34.3224 337.773C34.4208 337.562 34.5553 337.387 34.7258 337.247C34.8981 337.105 35.0903 337.015 35.3025 336.977V336.943C35.0241 336.871 34.8025 336.715 34.6377 336.474C34.4729 336.232 34.3915 335.956 34.3934 335.648C34.3915 335.352 34.4663 335.088 34.6178 334.855C34.7693 334.622 34.9777 334.438 35.2428 334.304C35.5099 334.17 35.8138 334.102 36.1547 334.102C36.4919 334.102 36.793 334.17 37.0581 334.304C37.3233 334.438 37.5316 334.622 37.6831 334.855C37.8366 335.088 37.9142 335.352 37.9161 335.648C37.9142 335.956 37.8299 336.232 37.6633 336.474C37.4985 336.715 37.2797 336.871 37.007 336.943V336.977C37.2172 337.015 37.4066 337.105 37.5752 337.247C37.7438 337.387 37.8782 337.562 37.9786 337.773C38.079 337.981 38.1301 338.208 38.132 338.455C38.1301 338.769 38.0449 339.049 37.8763 339.295C37.7097 339.54 37.4777 339.732 37.1803 339.872C36.8849 340.01 36.543 340.08 36.1547 340.08ZM36.1547 339.455C36.418 339.455 36.6453 339.412 36.8366 339.327C37.0278 339.241 37.1756 339.121 37.2797 338.966C37.3839 338.811 37.4369 338.629 37.4388 338.42C37.4369 338.201 37.3801 338.007 37.2684 337.838C37.1566 337.67 37.0042 337.537 36.811 337.44C36.6197 337.344 36.401 337.295 36.1547 337.295C35.9066 337.295 35.685 337.344 35.49 337.44C35.2968 337.537 35.1443 337.67 35.0326 337.838C34.9227 338.007 34.8688 338.201 34.8706 338.42C34.8688 338.629 34.9189 338.811 35.0212 338.966C35.1254 339.121 35.2741 339.241 35.4672 339.327C35.6604 339.412 35.8896 339.455 36.1547 339.455ZM36.1547 336.693C36.3631 336.693 36.5477 336.652 36.7087 336.568C36.8716 336.485 36.9994 336.368 37.0922 336.219C37.185 336.069 37.2324 335.894 37.2343 335.693C37.2324 335.496 37.186 335.325 37.0951 335.179C37.0042 335.031 36.8782 334.918 36.7172 334.838C36.5563 334.757 36.3688 334.716 36.1547 334.716C35.9369 334.716 35.7466 334.757 35.5837 334.838C35.4208 334.918 35.2949 335.031 35.2059 335.179C35.1169 335.325 35.0733 335.496 35.0752 335.693C35.0733 335.894 35.1178 336.069 35.2087 336.219C35.3015 336.368 35.4294 336.485 35.5922 336.568C35.7551 336.652 35.9426 336.693 36.1547 336.693ZM41.1185 340.08C40.6905 340.08 40.3259 339.963 40.0248 339.73C39.7236 339.495 39.4935 339.155 39.3344 338.71C39.1753 338.263 39.0958 337.723 39.0958 337.091C39.0958 336.462 39.1753 335.925 39.3344 335.48C39.4954 335.033 39.7265 334.692 40.0276 334.457C40.3306 334.221 40.6943 334.102 41.1185 334.102C41.5428 334.102 41.9055 334.221 42.2066 334.457C42.5096 334.692 42.7407 335.033 42.8998 335.48C43.0608 335.925 43.1412 336.462 43.1412 337.091C43.1412 337.723 43.0617 338.263 42.9026 338.71C42.7435 339.155 42.5134 339.495 42.2123 339.73C41.9111 339.963 41.5465 340.08 41.1185 340.08ZM41.1185 339.455C41.5428 339.455 41.8723 339.25 42.1072 338.841C42.342 338.432 42.4594 337.848 42.4594 337.091C42.4594 336.587 42.4055 336.158 42.2975 335.804C42.1914 335.45 42.038 335.18 41.8373 334.994C41.6384 334.809 41.3988 334.716 41.1185 334.716C40.6981 334.716 40.3695 334.923 40.1327 335.338C39.896 335.751 39.7776 336.335 39.7776 337.091C39.7776 337.595 39.8306 338.023 39.9367 338.375C40.0428 338.727 40.1952 338.995 40.3941 339.179C40.5948 339.363 40.8363 339.455 41.1185 339.455ZM44.8572 338.409L44.8458 337.58H44.9822L46.8912 335.636H47.7208L45.6867 337.693H45.6299L44.8572 338.409ZM44.2322 340V334.182H44.9026V340H44.2322ZM47.0049 340L45.3003 337.841L45.7776 337.375L47.8572 340H47.0049Z"
        fill="#030229" />
      <path opacity="0.7"
        d="M36.1604 376.08C35.9218 376.076 35.6831 376.03 35.4445 375.943C35.2059 375.856 34.9881 375.709 34.7911 375.503C34.5941 375.295 34.436 375.013 34.3167 374.659C34.1974 374.303 34.1377 373.856 34.1377 373.318C34.1377 372.803 34.186 372.347 34.2826 371.949C34.3792 371.549 34.5193 371.213 34.703 370.94C34.8867 370.666 35.1083 370.457 35.3678 370.315C35.6292 370.173 35.9237 370.102 36.2513 370.102C36.5771 370.102 36.8669 370.168 37.1206 370.298C37.3763 370.427 37.5847 370.607 37.7456 370.838C37.9066 371.069 38.0108 371.335 38.0581 371.636H37.365C37.3006 371.375 37.1756 371.158 36.99 370.986C36.8044 370.813 36.5581 370.727 36.2513 370.727C35.8006 370.727 35.4455 370.923 35.186 371.315C34.9284 371.707 34.7987 372.258 34.7968 372.966H34.8422C34.9483 372.805 35.0742 372.668 35.2201 372.554C35.3678 372.438 35.5307 372.349 35.7087 372.287C35.8867 372.224 36.0752 372.193 36.2741 372.193C36.6074 372.193 36.9123 372.277 37.1888 372.443C37.4653 372.608 37.6869 372.836 37.8536 373.128C38.0203 373.418 38.1036 373.75 38.1036 374.125C38.1036 374.485 38.0231 374.814 37.8621 375.114C37.7011 375.411 37.4748 375.648 37.1831 375.824C36.8934 375.998 36.5525 376.083 36.1604 376.08ZM36.1604 375.455C36.3991 375.455 36.6131 375.395 36.8025 375.276C36.9938 375.156 37.1443 374.996 37.2542 374.795C37.3659 374.595 37.4218 374.371 37.4218 374.125C37.4218 373.884 37.3678 373.666 37.2599 373.469C37.1538 373.27 37.007 373.112 36.8195 372.994C36.6339 372.877 36.4218 372.818 36.1831 372.818C36.0032 372.818 35.8356 372.854 35.6803 372.926C35.525 372.996 35.3886 373.093 35.2712 373.216C35.1557 373.339 35.0648 373.48 34.9985 373.639C34.9322 373.796 34.8991 373.962 34.8991 374.136C34.8991 374.367 34.953 374.583 35.061 374.784C35.1708 374.985 35.3205 375.147 35.5099 375.27C35.7011 375.393 35.918 375.455 36.1604 375.455ZM41.1185 376.08C40.6905 376.08 40.3259 375.963 40.0248 375.73C39.7236 375.495 39.4935 375.155 39.3344 374.71C39.1753 374.263 39.0958 373.723 39.0958 373.091C39.0958 372.462 39.1753 371.925 39.3344 371.48C39.4954 371.033 39.7265 370.692 40.0276 370.457C40.3306 370.221 40.6943 370.102 41.1185 370.102C41.5428 370.102 41.9055 370.221 42.2066 370.457C42.5096 370.692 42.7407 371.033 42.8998 371.48C43.0608 371.925 43.1412 372.462 43.1412 373.091C43.1412 373.723 43.0617 374.263 42.9026 374.71C42.7435 375.155 42.5134 375.495 42.2123 375.73C41.9111 375.963 41.5465 376.08 41.1185 376.08ZM41.1185 375.455C41.5428 375.455 41.8723 375.25 42.1072 374.841C42.342 374.432 42.4594 373.848 42.4594 373.091C42.4594 372.587 42.4055 372.158 42.2975 371.804C42.1914 371.45 42.038 371.18 41.8373 370.994C41.6384 370.809 41.3988 370.716 41.1185 370.716C40.6981 370.716 40.3695 370.923 40.1327 371.338C39.896 371.751 39.7776 372.335 39.7776 373.091C39.7776 373.595 39.8306 374.023 39.9367 374.375C40.0428 374.727 40.1952 374.995 40.3941 375.179C40.5948 375.363 40.8363 375.455 41.1185 375.455ZM44.8572 374.409L44.8458 373.58H44.9822L46.8912 371.636H47.7208L45.6867 373.693H45.6299L44.8572 374.409ZM44.2322 376V370.182H44.9026V376H44.2322ZM47.0049 376L45.3003 373.841L45.7776 373.375L47.8572 376H47.0049Z"
        fill="#030229" />
      <path opacity="0.7"
        d="M33.0845 410.807V410.227L35.6413 406.182H36.0618V407.08H35.7777L33.8459 410.136V410.182H37.2891V410.807H33.0845ZM35.8232 412V410.631V410.361V406.182H36.4936V412H35.8232ZM40.2514 412.08C39.8234 412.08 39.4588 411.963 39.1577 411.73C38.8565 411.495 38.6264 411.155 38.4673 410.71C38.3082 410.263 38.2287 409.723 38.2287 409.091C38.2287 408.462 38.3082 407.925 38.4673 407.48C38.6283 407.033 38.8594 406.692 39.1605 406.457C39.4635 406.221 39.8272 406.102 40.2514 406.102C40.6757 406.102 41.0384 406.221 41.3395 406.457C41.6425 406.692 41.8736 407.033 42.0327 407.48C42.1937 407.925 42.2741 408.462 42.2741 409.091C42.2741 409.723 42.1946 410.263 42.0355 410.71C41.8764 411.155 41.6463 411.495 41.3452 411.73C41.044 411.963 40.6795 412.08 40.2514 412.08ZM40.2514 411.455C40.6757 411.455 41.0052 411.25 41.2401 410.841C41.4749 410.432 41.5923 409.848 41.5923 409.091C41.5923 408.587 41.5384 408.158 41.4304 407.804C41.3243 407.45 41.1709 407.18 40.9702 406.994C40.7713 406.809 40.5317 406.716 40.2514 406.716C39.831 406.716 39.5024 406.923 39.2656 407.338C39.0289 407.751 38.9105 408.335 38.9105 409.091C38.9105 409.595 38.9635 410.023 39.0696 410.375C39.1757 410.727 39.3281 410.995 39.527 411.179C39.7277 411.363 39.9692 411.455 40.2514 411.455ZM43.456 412V406.182H44.1605V409.068H44.2287L46.8423 406.182H47.7628L45.3196 408.807L47.7628 412H46.9105L44.8878 409.295L44.1605 410.114V412H43.456Z"
        fill="#030229" />
      <path opacity="0.7"
        d="M33.5099 448V447.489L35.4304 445.386C35.6558 445.14 35.8414 444.926 35.9872 444.744C36.133 444.561 36.241 444.388 36.3111 444.227C36.383 444.064 36.419 443.894 36.419 443.716C36.419 443.511 36.3698 443.334 36.2713 443.185C36.1747 443.035 36.0421 442.92 35.8736 442.838C35.705 442.757 35.5156 442.716 35.3054 442.716C35.0819 442.716 34.8868 442.762 34.7202 442.855C34.5554 442.946 34.4276 443.074 34.3366 443.239C34.2476 443.403 34.2031 443.597 34.2031 443.818H33.5327C33.5327 443.477 33.6113 443.178 33.7685 442.92C33.9257 442.663 34.1397 442.462 34.4105 442.318C34.6832 442.174 34.9891 442.102 35.3281 442.102C35.669 442.102 35.9711 442.174 36.2344 442.318C36.4976 442.462 36.7041 442.656 36.8537 442.901C37.0033 443.145 37.0781 443.417 37.0781 443.716C37.0781 443.93 37.0393 444.139 36.9616 444.344C36.8859 444.546 36.7533 444.773 36.5639 445.023C36.3764 445.271 36.116 445.574 35.7827 445.932L34.4759 447.33V447.375H37.1804V448H33.5099ZM40.2514 448.08C39.8234 448.08 39.4588 447.963 39.1577 447.73C38.8565 447.495 38.6264 447.155 38.4673 446.71C38.3082 446.263 38.2287 445.723 38.2287 445.091C38.2287 444.462 38.3082 443.925 38.4673 443.48C38.6283 443.033 38.8594 442.692 39.1605 442.457C39.4635 442.221 39.8272 442.102 40.2514 442.102C40.6757 442.102 41.0384 442.221 41.3395 442.457C41.6425 442.692 41.8736 443.033 42.0327 443.48C42.1937 443.925 42.2741 444.462 42.2741 445.091C42.2741 445.723 42.1946 446.263 42.0355 446.71C41.8764 447.155 41.6463 447.495 41.3452 447.73C41.044 447.963 40.6795 448.08 40.2514 448.08ZM40.2514 447.455C40.6757 447.455 41.0052 447.25 41.2401 446.841C41.4749 446.432 41.5923 445.848 41.5923 445.091C41.5923 444.587 41.5384 444.158 41.4304 443.804C41.3243 443.45 41.1709 443.18 40.9702 442.994C40.7713 442.809 40.5317 442.716 40.2514 442.716C39.831 442.716 39.5024 442.923 39.2656 443.338C39.0289 443.751 38.9105 444.335 38.9105 445.091C38.9105 445.595 38.9635 446.023 39.0696 446.375C39.1757 446.727 39.3281 446.995 39.527 447.179C39.7277 447.363 39.9692 447.455 40.2514 447.455ZM43.456 448V442.182H44.1605V445.068H44.2287L46.8423 442.182H47.7628L45.3196 444.807L47.7628 448H46.9105L44.8878 445.295L44.1605 446.114V448H43.456Z"
        fill="#030229" />
      <path opacity="0.7"
        d="M40.479 484.08C40.0509 484.08 39.6863 483.963 39.3852 483.73C39.0841 483.495 38.854 483.155 38.6949 482.71C38.5358 482.263 38.4562 481.723 38.4562 481.091C38.4562 480.462 38.5358 479.925 38.6949 479.48C38.8559 479.033 39.0869 478.692 39.3881 478.457C39.6911 478.221 40.0547 478.102 40.479 478.102C40.9032 478.102 41.2659 478.221 41.567 478.457C41.8701 478.692 42.1011 479.033 42.2602 479.48C42.4212 479.925 42.5017 480.462 42.5017 481.091C42.5017 481.723 42.4221 482.263 42.2631 482.71C42.104 483.155 41.8738 483.495 41.5727 483.73C41.2716 483.963 40.907 484.08 40.479 484.08ZM40.479 483.455C40.9032 483.455 41.2327 483.25 41.4676 482.841C41.7024 482.432 41.8199 481.848 41.8199 481.091C41.8199 480.587 41.7659 480.158 41.6579 479.804C41.5519 479.45 41.3985 479.18 41.1977 478.994C40.9988 478.809 40.7593 478.716 40.479 478.716C40.0585 478.716 39.7299 478.923 39.4932 479.338C39.2564 479.751 39.1381 480.335 39.1381 481.091C39.1381 481.595 39.1911 482.023 39.2971 482.375C39.4032 482.727 39.5557 482.995 39.7545 483.179C39.9553 483.363 40.1968 483.455 40.479 483.455Z"
        fill="#030229" />
    </g>
    <g opacity="0.7">
      <path opacity="0.7"
        d="M65.0016 501.978H64.2172L66.4859 495.799H67.2582L69.5269 501.978H68.7426L66.8962 496.777H66.8479L65.0016 501.978ZM65.2912 499.565H68.4529V500.228H65.2912V499.565ZM73.3132 500.083V497.344H74.0251V501.978H73.3132V501.194H73.2649C73.1563 501.429 72.9873 501.629 72.758 501.794C72.5288 501.957 72.2391 502.038 71.8892 502.038C71.5996 502.038 71.3421 501.975 71.1169 501.848C70.8916 501.72 70.7146 501.526 70.5859 501.269C70.4572 501.01 70.3928 500.683 70.3928 500.289V497.344H71.1048V500.24C71.1048 500.578 71.1993 500.848 71.3884 501.049C71.5794 501.25 71.8228 501.351 72.1185 501.351C72.2955 501.351 72.4755 501.305 72.6585 501.215C72.8435 501.124 72.9984 500.985 73.1231 500.798C73.2498 500.611 73.3132 500.373 73.3132 500.083ZM77.1997 503.812C76.8557 503.812 76.5601 503.768 76.3127 503.68C76.0653 503.593 75.8592 503.478 75.6942 503.336C75.5313 503.195 75.4016 503.044 75.3051 502.883L75.8722 502.485C75.9366 502.569 76.018 502.666 76.1166 502.774C76.2152 502.885 76.3499 502.981 76.5209 503.061C76.6938 503.144 76.9201 503.185 77.1997 503.185C77.5738 503.185 77.8825 503.094 78.1259 502.913C78.3692 502.732 78.4909 502.449 78.4909 502.063V501.121H78.4306C78.3783 501.206 78.3038 501.31 78.2073 501.435C78.1128 501.558 77.976 501.667 77.797 501.764C77.62 501.858 77.3807 501.906 77.079 501.906C76.7049 501.906 76.369 501.817 76.0713 501.64C75.7757 501.463 75.5414 501.206 75.3684 500.868C75.1975 500.53 75.112 500.12 75.112 499.637C75.112 499.162 75.1954 498.749 75.3624 498.397C75.5293 498.043 75.7616 497.769 76.0593 497.576C76.3569 497.381 76.7009 497.284 77.0911 497.284C77.3927 497.284 77.6321 497.334 77.8091 497.435C77.9881 497.533 78.1248 497.646 78.2194 497.772C78.3159 497.897 78.3903 498 78.4426 498.08H78.515V497.344H79.2029V502.111C79.2029 502.509 79.1124 502.833 78.9314 503.082C78.7524 503.334 78.511 503.518 78.2073 503.634C77.9056 503.753 77.5697 503.812 77.1997 503.812ZM77.1755 501.266C77.4611 501.266 77.7025 501.201 77.8996 501.07C78.0967 500.939 78.2465 500.751 78.3491 500.506C78.4517 500.26 78.503 499.967 78.503 499.625C78.503 499.291 78.4527 498.996 78.3521 498.741C78.2516 498.485 78.1027 498.285 77.9056 498.141C77.7085 497.996 77.4652 497.923 77.1755 497.923C76.8738 497.923 76.6224 498 76.4213 498.153C76.2222 498.305 76.0724 498.511 75.9718 498.768C75.8732 499.025 75.824 499.311 75.824 499.625C75.824 499.947 75.8742 500.231 75.9748 500.479C76.0774 500.724 76.2282 500.917 76.4273 501.058C76.6285 501.197 76.8779 501.266 77.1755 501.266ZM85.0557 495.799V501.978H84.3075V496.584H84.2713L82.7628 497.585V496.825L84.3075 495.799H85.0557Z"
        fill="#030229" />
      <path opacity="0.7"
        d="M206.002 501.978H205.217L207.486 495.799H208.258L210.527 501.978H209.743L207.896 496.777H207.848L206.002 501.978ZM206.291 499.565H209.453V500.228H206.291V499.565ZM214.313 500.083V497.344H215.025V501.978H214.313V501.194H214.265C214.156 501.429 213.987 501.629 213.758 501.794C213.529 501.957 213.239 502.038 212.889 502.038C212.6 502.038 212.342 501.975 212.117 501.848C211.892 501.72 211.715 501.526 211.586 501.269C211.457 501.01 211.393 500.683 211.393 500.289V497.344H212.105V500.24C212.105 500.578 212.199 500.848 212.388 501.049C212.579 501.25 212.823 501.351 213.118 501.351C213.295 501.351 213.475 501.305 213.658 501.215C213.844 501.124 213.998 500.985 214.123 500.798C214.25 500.611 214.313 500.373 214.313 500.083ZM218.2 503.812C217.856 503.812 217.56 503.768 217.313 503.68C217.065 503.593 216.859 503.478 216.694 503.336C216.531 503.195 216.402 503.044 216.305 502.883L216.872 502.485C216.937 502.569 217.018 502.666 217.117 502.774C217.215 502.885 217.35 502.981 217.521 503.061C217.694 503.144 217.92 503.185 218.2 503.185C218.574 503.185 218.882 503.094 219.126 502.913C219.369 502.732 219.491 502.449 219.491 502.063V501.121H219.431C219.378 501.206 219.304 501.31 219.207 501.435C219.113 501.558 218.976 501.667 218.797 501.764C218.62 501.858 218.381 501.906 218.079 501.906C217.705 501.906 217.369 501.817 217.071 501.64C216.776 501.463 216.541 501.206 216.368 500.868C216.197 500.53 216.112 500.12 216.112 499.637C216.112 499.162 216.195 498.749 216.362 498.397C216.529 498.043 216.762 497.769 217.059 497.576C217.357 497.381 217.701 497.284 218.091 497.284C218.393 497.284 218.632 497.334 218.809 497.435C218.988 497.533 219.125 497.646 219.219 497.772C219.316 497.897 219.39 498 219.443 498.08H219.515V497.344H220.203V502.111C220.203 502.509 220.112 502.833 219.931 503.082C219.752 503.334 219.511 503.518 219.207 503.634C218.906 503.753 218.57 503.812 218.2 503.812ZM218.176 501.266C218.461 501.266 218.702 501.201 218.9 501.07C219.097 500.939 219.247 500.751 219.349 500.506C219.452 500.26 219.503 499.967 219.503 499.625C219.503 499.291 219.453 498.996 219.352 498.741C219.252 498.485 219.103 498.285 218.906 498.141C218.709 497.996 218.465 497.923 218.176 497.923C217.874 497.923 217.622 498 217.421 498.153C217.222 498.305 217.072 498.511 216.972 498.768C216.873 499.025 216.824 499.311 216.824 499.625C216.824 499.947 216.874 500.231 216.975 500.479C217.077 500.724 217.228 500.917 217.427 501.058C217.628 501.197 217.878 501.266 218.176 501.266ZM226.056 495.799V501.978H225.307V496.584H225.271L223.763 497.585V496.825L225.307 495.799H226.056ZM229.848 502.063C229.393 502.063 229.006 501.939 228.686 501.691C228.367 501.442 228.122 501.081 227.953 500.608C227.784 500.134 227.7 499.56 227.7 498.889C227.7 498.221 227.784 497.651 227.953 497.178C228.124 496.703 228.37 496.341 228.689 496.092C229.011 495.841 229.397 495.715 229.848 495.715C230.298 495.715 230.684 495.841 231.003 496.092C231.325 496.341 231.571 496.703 231.739 497.178C231.91 497.651 231.996 498.221 231.996 498.889C231.996 499.56 231.911 500.134 231.743 500.608C231.574 501.081 231.329 501.442 231.009 501.691C230.69 501.939 230.302 502.063 229.848 502.063ZM229.848 501.399C230.298 501.399 230.648 501.182 230.898 500.747C231.147 500.313 231.272 499.693 231.272 498.889C231.272 498.354 231.215 497.898 231.1 497.522C230.987 497.146 230.824 496.859 230.611 496.662C230.4 496.465 230.146 496.367 229.848 496.367C229.401 496.367 229.052 496.587 228.801 497.027C228.55 497.466 228.424 498.086 228.424 498.889C228.424 499.424 228.48 499.878 228.593 500.252C228.705 500.626 228.867 500.911 229.079 501.106C229.292 501.301 229.548 501.399 229.848 501.399Z"
        fill="#030229" />
      <path opacity="0.7"
        d="M346.002 501.978H345.217L347.486 495.799H348.258L350.527 501.978H349.743L347.896 496.777H347.848L346.002 501.978ZM346.291 499.565H349.453V500.228H346.291V499.565ZM354.313 500.083V497.344H355.025V501.978H354.313V501.194H354.265C354.156 501.429 353.987 501.629 353.758 501.794C353.529 501.957 353.239 502.038 352.889 502.038C352.6 502.038 352.342 501.975 352.117 501.848C351.892 501.72 351.715 501.526 351.586 501.269C351.457 501.01 351.393 500.683 351.393 500.289V497.344H352.105V500.24C352.105 500.578 352.199 500.848 352.388 501.049C352.579 501.25 352.823 501.351 353.118 501.351C353.295 501.351 353.475 501.305 353.658 501.215C353.844 501.124 353.998 500.985 354.123 500.798C354.25 500.611 354.313 500.373 354.313 500.083ZM358.2 503.812C357.856 503.812 357.56 503.768 357.313 503.68C357.065 503.593 356.859 503.478 356.694 503.336C356.531 503.195 356.402 503.044 356.305 502.883L356.872 502.485C356.937 502.569 357.018 502.666 357.117 502.774C357.215 502.885 357.35 502.981 357.521 503.061C357.694 503.144 357.92 503.185 358.2 503.185C358.574 503.185 358.882 503.094 359.126 502.913C359.369 502.732 359.491 502.449 359.491 502.063V501.121H359.431C359.378 501.206 359.304 501.31 359.207 501.435C359.113 501.558 358.976 501.667 358.797 501.764C358.62 501.858 358.381 501.906 358.079 501.906C357.705 501.906 357.369 501.817 357.071 501.64C356.776 501.463 356.541 501.206 356.368 500.868C356.197 500.53 356.112 500.12 356.112 499.637C356.112 499.162 356.195 498.749 356.362 498.397C356.529 498.043 356.762 497.769 357.059 497.576C357.357 497.381 357.701 497.284 358.091 497.284C358.393 497.284 358.632 497.334 358.809 497.435C358.988 497.533 359.125 497.646 359.219 497.772C359.316 497.897 359.39 498 359.443 498.08H359.515V497.344H360.203V502.111C360.203 502.509 360.112 502.833 359.931 503.082C359.752 503.334 359.511 503.518 359.207 503.634C358.906 503.753 358.57 503.812 358.2 503.812ZM358.176 501.266C358.461 501.266 358.702 501.201 358.9 501.07C359.097 500.939 359.247 500.751 359.349 500.506C359.452 500.26 359.503 499.967 359.503 499.625C359.503 499.291 359.453 498.996 359.352 498.741C359.252 498.485 359.103 498.285 358.906 498.141C358.709 497.996 358.465 497.923 358.176 497.923C357.874 497.923 357.622 498 357.421 498.153C357.222 498.305 357.072 498.511 356.972 498.768C356.873 499.025 356.824 499.311 356.824 499.625C356.824 499.947 356.874 500.231 356.975 500.479C357.077 500.724 357.228 500.917 357.427 501.058C357.628 501.197 357.878 501.266 358.176 501.266ZM363.883 501.978V501.435L365.923 499.202C366.162 498.941 366.359 498.714 366.514 498.521C366.669 498.326 366.784 498.143 366.858 497.972C366.935 497.799 366.973 497.618 366.973 497.429C366.973 497.211 366.92 497.023 366.816 496.864C366.713 496.706 366.573 496.583 366.394 496.496C366.215 496.41 366.013 496.367 365.79 496.367C365.553 496.367 365.346 496.416 365.169 496.514C364.994 496.611 364.858 496.747 364.761 496.922C364.667 497.097 364.62 497.302 364.62 497.537H363.908C363.908 497.175 363.991 496.857 364.158 496.584C364.325 496.31 364.552 496.097 364.84 495.944C365.129 495.791 365.454 495.715 365.814 495.715C366.176 495.715 366.497 495.791 366.777 495.944C367.056 496.097 367.275 496.303 367.434 496.563C367.593 496.822 367.673 497.111 367.673 497.429C367.673 497.656 367.631 497.878 367.549 498.095C367.469 498.31 367.328 498.551 367.127 498.816C366.928 499.08 366.651 499.402 366.297 499.782L364.909 501.266V501.314H367.781V501.978H363.883ZM371.043 502.063C370.588 502.063 370.201 501.939 369.881 501.691C369.561 501.442 369.317 501.081 369.148 500.608C368.979 500.134 368.895 499.56 368.895 498.889C368.895 498.221 368.979 497.651 369.148 497.178C369.319 496.703 369.564 496.341 369.884 496.092C370.206 495.841 370.592 495.715 371.043 495.715C371.493 495.715 371.878 495.841 372.198 496.092C372.52 496.341 372.765 496.703 372.934 497.178C373.105 497.651 373.191 498.221 373.191 498.889C373.191 499.56 373.106 500.134 372.937 500.608C372.768 501.081 372.524 501.442 372.204 501.691C371.884 501.939 371.497 502.063 371.043 502.063ZM371.043 501.399C371.493 501.399 371.843 501.182 372.092 500.747C372.342 500.313 372.467 499.693 372.467 498.889C372.467 498.354 372.409 497.898 372.295 497.522C372.182 497.146 372.019 496.859 371.806 496.662C371.595 496.465 371.34 496.367 371.043 496.367C370.596 496.367 370.247 496.587 369.996 497.027C369.744 497.466 369.619 498.086 369.619 498.889C369.619 499.424 369.675 499.878 369.788 500.252C369.9 500.626 370.062 500.911 370.273 501.106C370.486 501.301 370.743 501.399 371.043 501.399Z"
        fill="#030229" />
      <path opacity="0.7"
        d="M490.002 501.978H489.217L491.486 495.799H492.258L494.527 501.978H493.743L491.896 496.777H491.848L490.002 501.978ZM490.291 499.565H493.453V500.228H490.291V499.565ZM498.313 500.083V497.344H499.025V501.978H498.313V501.194H498.265C498.156 501.429 497.987 501.629 497.758 501.794C497.529 501.957 497.239 502.038 496.889 502.038C496.6 502.038 496.342 501.975 496.117 501.848C495.892 501.72 495.715 501.526 495.586 501.269C495.457 501.01 495.393 500.683 495.393 500.289V497.344H496.105V500.24C496.105 500.578 496.199 500.848 496.388 501.049C496.579 501.25 496.823 501.351 497.118 501.351C497.295 501.351 497.475 501.305 497.658 501.215C497.844 501.124 497.998 500.985 498.123 500.798C498.25 500.611 498.313 500.373 498.313 500.083ZM502.2 503.812C501.856 503.812 501.56 503.768 501.313 503.68C501.065 503.593 500.859 503.478 500.694 503.336C500.531 503.195 500.402 503.044 500.305 502.883L500.872 502.485C500.937 502.569 501.018 502.666 501.117 502.774C501.215 502.885 501.35 502.981 501.521 503.061C501.694 503.144 501.92 503.185 502.2 503.185C502.574 503.185 502.882 503.094 503.126 502.913C503.369 502.732 503.491 502.449 503.491 502.063V501.121H503.431C503.378 501.206 503.304 501.31 503.207 501.435C503.113 501.558 502.976 501.667 502.797 501.764C502.62 501.858 502.381 501.906 502.079 501.906C501.705 501.906 501.369 501.817 501.071 501.64C500.776 501.463 500.541 501.206 500.368 500.868C500.197 500.53 500.112 500.12 500.112 499.637C500.112 499.162 500.195 498.749 500.362 498.397C500.529 498.043 500.762 497.769 501.059 497.576C501.357 497.381 501.701 497.284 502.091 497.284C502.393 497.284 502.632 497.334 502.809 497.435C502.988 497.533 503.125 497.646 503.219 497.772C503.316 497.897 503.39 498 503.443 498.08H503.515V497.344H504.203V502.111C504.203 502.509 504.112 502.833 503.931 503.082C503.752 503.334 503.511 503.518 503.207 503.634C502.906 503.753 502.57 503.812 502.2 503.812ZM502.176 501.266C502.461 501.266 502.702 501.201 502.9 501.07C503.097 500.939 503.247 500.751 503.349 500.506C503.452 500.26 503.503 499.967 503.503 499.625C503.503 499.291 503.453 498.996 503.352 498.741C503.252 498.485 503.103 498.285 502.906 498.141C502.709 497.996 502.465 497.923 502.176 497.923C501.874 497.923 501.622 498 501.421 498.153C501.222 498.305 501.072 498.511 500.972 498.768C500.873 499.025 500.824 499.311 500.824 499.625C500.824 499.947 500.874 500.231 500.975 500.479C501.077 500.724 501.228 500.917 501.427 501.058C501.628 501.197 501.878 501.266 502.176 501.266ZM509.971 502.063C509.573 502.063 509.218 501.994 508.906 501.857C508.596 501.721 508.35 501.531 508.167 501.287C507.986 501.042 507.888 500.757 507.871 500.433H508.632C508.648 500.632 508.716 500.804 508.837 500.949C508.958 501.092 509.115 501.203 509.31 501.281C509.506 501.36 509.722 501.399 509.959 501.399C510.225 501.399 510.46 501.353 510.665 501.26C510.87 501.167 511.031 501.039 511.148 500.874C511.264 500.709 511.323 500.518 511.323 500.301C511.323 500.073 511.266 499.873 511.154 499.7C511.041 499.525 510.876 499.389 510.659 499.29C510.442 499.191 510.176 499.142 509.863 499.142H509.368V498.478H509.863C510.108 498.478 510.323 498.434 510.508 498.346C510.695 498.257 510.841 498.132 510.946 497.972C511.052 497.811 511.106 497.622 511.106 497.404C511.106 497.195 511.059 497.013 510.967 496.858C510.874 496.703 510.744 496.583 510.575 496.496C510.408 496.41 510.211 496.367 509.983 496.367C509.77 496.367 509.569 496.406 509.38 496.484C509.193 496.561 509.04 496.672 508.921 496.819C508.803 496.964 508.738 497.139 508.728 497.344H508.004C508.016 497.02 508.114 496.737 508.297 496.493C508.48 496.248 508.719 496.057 509.015 495.92C509.312 495.783 509.639 495.715 509.995 495.715C510.377 495.715 510.705 495.792 510.979 495.947C511.252 496.1 511.463 496.302 511.609 496.554C511.756 496.805 511.83 497.077 511.83 497.368C511.83 497.716 511.738 498.013 511.555 498.258C511.374 498.504 511.128 498.674 510.816 498.768V498.816C511.206 498.881 511.511 499.047 511.73 499.314C511.949 499.58 512.059 499.908 512.059 500.301C512.059 500.637 511.967 500.938 511.784 501.206C511.603 501.471 511.356 501.68 511.042 501.833C510.728 501.986 510.371 502.063 509.971 502.063ZM515.308 502.063C514.854 502.063 514.466 501.939 514.147 501.691C513.827 501.442 513.582 501.081 513.413 500.608C513.245 500.134 513.16 499.56 513.16 498.889C513.16 498.221 513.245 497.651 513.413 497.178C513.584 496.703 513.83 496.341 514.15 496.092C514.471 495.841 514.858 495.715 515.308 495.715C515.759 495.715 516.144 495.841 516.464 496.092C516.785 496.341 517.031 496.703 517.2 497.178C517.371 497.651 517.456 498.221 517.456 498.889C517.456 499.56 517.372 500.134 517.203 500.608C517.034 501.081 516.789 501.442 516.47 501.691C516.15 501.939 515.763 502.063 515.308 502.063ZM515.308 501.399C515.759 501.399 516.109 501.182 516.358 500.747C516.607 500.313 516.732 499.693 516.732 498.889C516.732 498.354 516.675 497.898 516.56 497.522C516.447 497.146 516.285 496.859 516.071 496.662C515.86 496.465 515.606 496.367 515.308 496.367C514.862 496.367 514.513 496.587 514.261 497.027C514.01 497.466 513.884 498.086 513.884 498.889C513.884 499.424 513.94 499.878 514.053 500.252C514.166 500.626 514.328 500.911 514.539 501.106C514.752 501.301 515.008 501.399 515.308 501.399Z"
        fill="#030229" />
    </g>
    <path
      d="M41.4382 60V46.9091H46.1044C47.1229 46.9091 47.9666 47.0945 48.6357 47.4652C49.3047 47.8359 49.8054 48.343 50.1378 48.9865C50.4702 49.6257 50.6364 50.3459 50.6364 51.147C50.6364 51.9524 50.468 52.6768 50.1314 53.3203C49.799 53.9595 49.2962 54.4666 48.6229 54.8416C47.9538 55.2124 47.1122 55.3977 46.098 55.3977H42.8892V53.723H45.919C46.5625 53.723 47.0845 53.6122 47.4851 53.3906C47.8857 53.1648 48.1797 52.858 48.3672 52.4702C48.5547 52.0824 48.6484 51.6413 48.6484 51.147C48.6484 50.6527 48.5547 50.2138 48.3672 49.8303C48.1797 49.4467 47.8835 49.1463 47.4787 48.929C47.0781 48.7116 46.5497 48.603 45.8935 48.603H43.4134V60H41.4382ZM52.7985 60V50.1818H54.6458V51.7415H54.748C54.927 51.2131 55.2424 50.7976 55.6941 50.495C56.15 50.1882 56.6657 50.0348 57.2409 50.0348C57.3603 50.0348 57.5009 50.0391 57.6628 50.0476C57.829 50.0561 57.959 50.0668 58.0527 50.0795V51.9077C57.976 51.8864 57.8397 51.8629 57.6436 51.8374C57.4476 51.8075 57.2516 51.7926 57.0556 51.7926C56.6039 51.7926 56.2012 51.8885 55.8475 52.0803C55.498 52.2678 55.2211 52.5298 55.0165 52.8665C54.812 53.1989 54.7097 53.5781 54.7097 54.0043V60H52.7985ZM63.4908 60.1982C62.5703 60.1982 61.767 59.9872 61.081 59.5653C60.3949 59.1435 59.8622 58.5533 59.483 57.7947C59.1037 57.0362 58.9141 56.1499 58.9141 55.1357C58.9141 54.1172 59.1037 53.2266 59.483 52.4638C59.8622 51.701 60.3949 51.1087 61.081 50.6868C61.767 50.2649 62.5703 50.054 63.4908 50.054C64.4112 50.054 65.2145 50.2649 65.9006 50.6868C66.5866 51.1087 67.1193 51.701 67.4986 52.4638C67.8778 53.2266 68.0675 54.1172 68.0675 55.1357C68.0675 56.1499 67.8778 57.0362 67.4986 57.7947C67.1193 58.5533 66.5866 59.1435 65.9006 59.5653C65.2145 59.9872 64.4112 60.1982 63.4908 60.1982ZM63.4972 58.5938C64.0938 58.5938 64.5881 58.4361 64.9801 58.1207C65.3722 57.8054 65.6619 57.3857 65.8494 56.8615C66.0412 56.3374 66.1371 55.7599 66.1371 55.1293C66.1371 54.5028 66.0412 53.9276 65.8494 53.4034C65.6619 52.875 65.3722 52.451 64.9801 52.1314C64.5881 51.8118 64.0938 51.652 63.4972 51.652C62.8963 51.652 62.3977 51.8118 62.0014 52.1314C61.6094 52.451 61.3175 52.875 61.1257 53.4034C60.9382 53.9276 60.8445 54.5028 60.8445 55.1293C60.8445 55.7599 60.9382 56.3374 61.1257 56.8615C61.3175 57.3857 61.6094 57.8054 62.0014 58.1207C62.3977 58.4361 62.8963 58.5938 63.4972 58.5938ZM74.8734 50.1818V51.7159H69.3251V50.1818H74.8734ZM70.8464 60V49.044C70.8464 48.4304 70.9806 47.9212 71.2491 47.5163C71.5176 47.1072 71.8734 46.8026 72.3166 46.6023C72.7598 46.3977 73.2413 46.2955 73.7612 46.2955C74.1447 46.2955 74.4728 46.3274 74.7456 46.3913C75.0183 46.451 75.2207 46.5064 75.3528 46.5575L74.9054 48.1044C74.8159 48.0788 74.7008 48.049 74.5602 48.0149C74.4196 47.9766 74.2491 47.9574 74.0488 47.9574C73.5843 47.9574 73.252 48.0724 73.0517 48.3026C72.8556 48.5327 72.7576 48.8651 72.7576 49.2997V60H70.8464ZM76.8453 60V50.1818H78.7566V60H76.8453ZM77.8105 48.6669C77.4782 48.6669 77.1926 48.5561 76.954 48.3345C76.7196 48.1087 76.6025 47.8402 76.6025 47.5291C76.6025 47.2138 76.7196 46.9453 76.954 46.7237C77.1926 46.4979 77.4782 46.3849 77.8105 46.3849C78.1429 46.3849 78.4263 46.4979 78.6607 46.7237C78.8993 46.9453 79.0186 47.2138 79.0186 47.5291C79.0186 47.8402 78.8993 48.1087 78.6607 48.3345C78.4263 48.5561 78.1429 48.6669 77.8105 48.6669ZM85.9109 50.1818V51.7159H80.5479V50.1818H85.9109ZM81.9862 47.8295H83.8974V57.1172C83.8974 57.4879 83.9528 57.767 84.0636 57.9545C84.1744 58.1378 84.3171 58.2635 84.4918 58.3317C84.6708 58.3956 84.8647 58.4276 85.0735 58.4276C85.2269 58.4276 85.3612 58.4169 85.4762 58.3956C85.5913 58.3743 85.6808 58.3572 85.7447 58.3445L86.0898 59.9233C85.979 59.9659 85.8214 60.0085 85.6168 60.0511C85.4123 60.098 85.1566 60.1236 84.8498 60.1278C84.3469 60.1364 83.8782 60.0469 83.4435 59.8594C83.0089 59.6719 82.6573 59.3821 82.3888 58.9901C82.1204 58.598 81.9862 58.1058 81.9862 57.5135V47.8295Z"
      fill="black" />
    <g filter="url(#filter1_d_2204_6357)">
      <rect x="332" y="42" width="88" height="33" rx="8" fill="#448BFF" />
      <g filter="url(#filter2_ddd_2204_6357)">
        <path
          d="M353.612 64L350.788 53.8182H352.404L354.388 61.7031H354.482L356.545 53.8182H358.146L360.21 61.7081H360.304L362.283 53.8182H363.903L361.075 64H359.528L357.386 56.3736H357.306L355.163 64H353.612ZM368.124 64.1541C367.372 64.1541 366.724 63.9934 366.18 63.6719C365.64 63.3471 365.222 62.8913 364.927 62.3047C364.636 61.7147 364.49 61.0237 364.49 60.2315C364.49 59.4493 364.636 58.7599 364.927 58.1634C365.222 57.5668 365.633 57.1011 366.16 56.7663C366.691 56.4316 367.31 56.2642 368.02 56.2642C368.451 56.2642 368.868 56.3355 369.273 56.478C369.677 56.6205 370.04 56.8442 370.361 57.1491C370.683 57.4541 370.936 57.8501 371.122 58.3374C371.308 58.8213 371.4 59.4096 371.4 60.1023V60.6293H365.33V59.5156H369.944C369.944 59.1245 369.864 58.7782 369.705 58.4766C369.546 58.1716 369.322 57.9313 369.034 57.7557C368.749 57.58 368.414 57.4922 368.03 57.4922C367.612 57.4922 367.247 57.5949 366.936 57.8004C366.628 58.0026 366.389 58.2678 366.22 58.5959C366.054 58.9207 365.971 59.2737 365.971 59.6548V60.5249C365.971 61.0353 366.061 61.4695 366.24 61.8274C366.422 62.1854 366.676 62.4588 367 62.6477C367.325 62.8333 367.705 62.9261 368.139 62.9261C368.421 62.9261 368.678 62.8864 368.91 62.8068C369.142 62.724 369.342 62.6013 369.511 62.4389C369.68 62.2765 369.809 62.076 369.899 61.8374L371.306 62.0909C371.193 62.5052 370.991 62.8681 370.699 63.1797C370.411 63.4879 370.048 63.7282 369.611 63.9006C369.176 64.0696 368.681 64.1541 368.124 64.1541ZM376.741 64.1541C375.989 64.1541 375.341 63.9934 374.797 63.6719C374.257 63.3471 373.839 62.8913 373.544 62.3047C373.252 61.7147 373.107 61.0237 373.107 60.2315C373.107 59.4493 373.252 58.7599 373.544 58.1634C373.839 57.5668 374.25 57.1011 374.777 56.7663C375.307 56.4316 375.927 56.2642 376.636 56.2642C377.067 56.2642 377.485 56.3355 377.889 56.478C378.294 56.6205 378.657 56.8442 378.978 57.1491C379.3 57.4541 379.553 57.8501 379.739 58.3374C379.924 58.8213 380.017 59.4096 380.017 60.1023V60.6293H373.947V59.5156H378.56C378.56 59.1245 378.481 58.7782 378.322 58.4766C378.163 58.1716 377.939 57.9313 377.651 57.7557C377.366 57.58 377.031 57.4922 376.646 57.4922C376.229 57.4922 375.864 57.5949 375.553 57.8004C375.244 58.0026 375.006 58.2678 374.837 58.5959C374.671 58.9207 374.588 59.2737 374.588 59.6548V60.5249C374.588 61.0353 374.678 61.4695 374.857 61.8274C375.039 62.1854 375.292 62.4588 375.617 62.6477C375.942 62.8333 376.322 62.9261 376.756 62.9261C377.038 62.9261 377.294 62.8864 377.526 62.8068C377.758 62.724 377.959 62.6013 378.128 62.4389C378.297 62.2765 378.426 62.076 378.516 61.8374L379.923 62.0909C379.81 62.5052 379.608 62.8681 379.316 63.1797C379.028 63.4879 378.665 63.7282 378.227 63.9006C377.793 64.0696 377.298 64.1541 376.741 64.1541ZM383.434 61.4098L383.424 59.5952H383.682L386.725 56.3636H388.505L385.035 60.0426H384.801L383.434 61.4098ZM382.066 64V53.8182H383.553V64H382.066ZM386.889 64L384.155 60.3707L385.179 59.3317L388.713 64H386.889ZM391.746 53.8182V64H390.259V53.8182H391.746ZM395.085 66.8636C394.863 66.8636 394.661 66.8454 394.479 66.8089C394.297 66.7758 394.161 66.7393 394.071 66.6996L394.429 65.4815C394.701 65.5545 394.943 65.5859 395.155 65.576C395.367 65.5661 395.554 65.4865 395.717 65.3374C395.883 65.1882 396.028 64.9446 396.154 64.6065L396.338 64.0994L393.544 56.3636H395.135L397.069 62.2898H397.149L399.083 56.3636H400.678L397.531 65.0192C397.386 65.4169 397.2 65.7533 396.975 66.0284C396.749 66.3068 396.481 66.5156 396.169 66.6548C395.858 66.794 395.496 66.8636 395.085 66.8636Z"
          fill="#FEFFFF" />
      </g>
      <g filter="url(#filter3_ddd_2204_6357)">
        <path
          d="M444.619 53.8182H446.483L449.724 61.733H449.844L453.085 53.8182H454.95V64H453.488V56.6321H453.393L450.391 63.9851H449.178L446.175 56.6271H446.08V64H444.619V53.8182ZM460.68 64.1541C459.964 64.1541 459.34 63.9901 458.806 63.6619C458.272 63.3338 457.858 62.8748 457.563 62.2848C457.268 61.6948 457.121 61.0054 457.121 60.2166C457.121 59.4245 457.268 58.7318 457.563 58.1385C457.858 57.5452 458.272 57.0845 458.806 56.7564C459.34 56.4283 459.964 56.2642 460.68 56.2642C461.396 56.2642 462.021 56.4283 462.555 56.7564C463.088 57.0845 463.503 57.5452 463.798 58.1385C464.093 58.7318 464.24 59.4245 464.24 60.2166C464.24 61.0054 464.093 61.6948 463.798 62.2848C463.503 62.8748 463.088 63.3338 462.555 63.6619C462.021 63.9901 461.396 64.1541 460.68 64.1541ZM460.685 62.9062C461.149 62.9062 461.534 62.7836 461.839 62.5384C462.144 62.2931 462.369 61.9666 462.515 61.5589C462.664 61.1513 462.739 60.7022 462.739 60.2116C462.739 59.7244 462.664 59.277 462.515 58.8693C462.369 58.4583 462.144 58.1286 461.839 57.88C461.534 57.6314 461.149 57.5071 460.685 57.5071C460.218 57.5071 459.83 57.6314 459.522 57.88C459.217 58.1286 458.99 58.4583 458.841 58.8693C458.695 59.277 458.622 59.7244 458.622 60.2116C458.622 60.7022 458.695 61.1513 458.841 61.5589C458.99 61.9666 459.217 62.2931 459.522 62.5384C459.83 62.7836 460.218 62.9062 460.685 62.9062ZM467.786 59.4659V64H466.299V56.3636H467.726V57.6065H467.821C467.996 57.2022 468.271 56.8774 468.646 56.6321C469.024 56.3868 469.499 56.2642 470.073 56.2642C470.593 56.2642 471.049 56.3736 471.44 56.5923C471.831 56.8078 472.134 57.1293 472.35 57.5568C472.565 57.9844 472.673 58.513 472.673 59.1428V64H471.186V59.3217C471.186 58.7682 471.042 58.3357 470.754 58.0241C470.465 57.7093 470.069 57.5518 469.566 57.5518C469.221 57.5518 468.914 57.6264 468.646 57.7756C468.381 57.9247 468.17 58.1435 468.014 58.4318C467.862 58.7169 467.786 59.0616 467.786 59.4659ZM478.631 56.3636V57.5568H474.46V56.3636H478.631ZM475.579 54.5341H477.065V61.7578C477.065 62.0462 477.108 62.2633 477.194 62.4091C477.28 62.5516 477.392 62.6494 477.527 62.7024C477.667 62.7521 477.817 62.777 477.98 62.777C478.099 62.777 478.204 62.7687 478.293 62.7521C478.383 62.7356 478.452 62.7223 478.502 62.7124L478.77 63.9403C478.684 63.9735 478.562 64.0066 478.402 64.0398C478.243 64.0762 478.044 64.0961 477.806 64.0994C477.415 64.1061 477.05 64.0365 476.712 63.8906C476.374 63.7448 476.101 63.5194 475.892 63.2145C475.683 62.9096 475.579 62.5268 475.579 62.0661V54.5341ZM482.326 59.4659V64H480.84V53.8182H482.306V57.6065H482.401C482.58 57.1955 482.853 56.8691 483.221 56.6271C483.589 56.3852 484.069 56.2642 484.663 56.2642C485.186 56.2642 485.644 56.3719 486.035 56.5874C486.429 56.8028 486.734 57.1243 486.95 57.5518C487.168 57.9761 487.278 58.5064 487.278 59.1428V64H485.791V59.3217C485.791 58.7616 485.647 58.3274 485.359 58.0192C485.07 57.7076 484.669 57.5518 484.156 57.5518C483.804 57.5518 483.489 57.6264 483.211 57.7756C482.936 57.9247 482.719 58.1435 482.56 58.4318C482.404 58.7169 482.326 59.0616 482.326 59.4659ZM491.148 53.8182V64H489.661V53.8182H491.148ZM494.487 66.8636C494.265 66.8636 494.063 66.8454 493.881 66.8089C493.699 66.7758 493.563 66.7393 493.473 66.6996L493.831 65.4815C494.103 65.5545 494.345 65.5859 494.557 65.576C494.769 65.5661 494.956 65.4865 495.119 65.3374C495.284 65.1882 495.43 64.9446 495.556 64.6065L495.74 64.0994L492.946 56.3636H494.537L496.471 62.2898H496.551L498.485 56.3636H500.08L496.933 65.0192C496.788 65.4169 496.602 65.7533 496.377 66.0284C496.151 66.3068 495.883 66.5156 495.571 66.6548C495.26 66.794 494.898 66.8636 494.487 66.8636Z"
          fill="#448BFF" />
      </g>
      <rect x="332.5" y="42.5" width="183" height="32" rx="7.5" stroke="#2F2F2F"
        stroke-opacity="0.2" shape-rendering="crispEdges" />
    </g>
  </g>
  <defs>
    <filter id="filter0_d_2204_6357" x="0" y="0" width="552" height="552"
      filterUnits="userSpaceOnUse" color-interpolation-filters="sRGB">
      <feFlood flood-opacity="0" result="BackgroundImageFix" />
      <feColorMatrix in="SourceAlpha" type="matrix"
        values="0 0 0 0 0 0 0 0 0 0 0 0 0 0 0 0 0 0 127 0" result="hardAlpha" />
      <feMorphology radius="8" operator="dilate" in="SourceAlpha"
        result="effect1_dropShadow_2204_6357" />
      <feOffset />
      <feGaussianBlur stdDeviation="8" />
      <feComposite in2="hardAlpha" operator="out" />
      <feColorMatrix type="matrix" values="0 0 0 0 0 0 0 0 0 0 0 0 0 0 0 0 0 0 0.02 0" />
      <feBlend mode="normal" in2="BackgroundImageFix" result="effect1_dropShadow_2204_6357" />
      <feBlend mode="normal" in="SourceGraphic" in2="effect1_dropShadow_2204_6357" result="shape" />
    </filter>
    <filter id="filter1_d_2204_6357" x="302.5" y="18" width="237.5" height="81"
      filterUnits="userSpaceOnUse" color-interpolation-filters="sRGB">
      <feFlood flood-opacity="0" result="BackgroundImageFix" />
      <feColorMatrix in="SourceAlpha" type="matrix"
        values="0 0 0 0 0 0 0 0 0 0 0 0 0 0 0 0 0 0 127 0" result="hardAlpha" />
      <feMorphology radius="8" operator="dilate" in="SourceAlpha"
        result="effect1_dropShadow_2204_6357" />
      <feOffset />
      <feGaussianBlur stdDeviation="8" />
      <feComposite in2="hardAlpha" operator="out" />
      <feColorMatrix type="matrix" values="0 0 0 0 0 0 0 0 0 0 0 0 0 0 0 0 0 0 0.02 0" />
      <feBlend mode="normal" in2="BackgroundImageFix" result="effect1_dropShadow_2204_6357" />
      <feBlend mode="normal" in="SourceGraphic" in2="effect1_dropShadow_2204_6357" result="shape" />
    </filter>
    <filter id="filter2_ddd_2204_6357" x="321.5" y="38" width="109" height="43"
      filterUnits="userSpaceOnUse" color-interpolation-filters="sRGB">
      <feFlood flood-opacity="0" result="BackgroundImageFix" />
      <feColorMatrix in="SourceAlpha" type="matrix"
        values="0 0 0 0 0 0 0 0 0 0 0 0 0 0 0 0 0 0 127 0" result="hardAlpha" />
      <feMorphology radius="2" operator="erode" in="SourceAlpha"
        result="effect1_dropShadow_2204_6357" />
      <feOffset dy="3" />
      <feGaussianBlur stdDeviation="0.5" />
      <feComposite in2="hardAlpha" operator="out" />
      <feColorMatrix type="matrix" values="0 0 0 0 0 0 0 0 0 0 0 0 0 0 0 0 0 0 0.2 0" />
      <feBlend mode="normal" in2="BackgroundImageFix" result="effect1_dropShadow_2204_6357" />
      <feColorMatrix in="SourceAlpha" type="matrix"
        values="0 0 0 0 0 0 0 0 0 0 0 0 0 0 0 0 0 0 127 0" result="hardAlpha" />
      <feOffset dy="2" />
      <feGaussianBlur stdDeviation="1" />
      <feComposite in2="hardAlpha" operator="out" />
      <feColorMatrix type="matrix" values="0 0 0 0 0 0 0 0 0 0 0 0 0 0 0 0 0 0 0.14 0" />
      <feBlend mode="normal" in2="effect1_dropShadow_2204_6357"
        result="effect2_dropShadow_2204_6357" />
      <feColorMatrix in="SourceAlpha" type="matrix"
        values="0 0 0 0 0 0 0 0 0 0 0 0 0 0 0 0 0 0 127 0" result="hardAlpha" />
      <feOffset dy="1" />
      <feGaussianBlur stdDeviation="2.5" />
      <feComposite in2="hardAlpha" operator="out" />
      <feColorMatrix type="matrix" values="0 0 0 0 0 0 0 0 0 0 0 0 0 0 0 0 0 0 0.12 0" />
      <feBlend mode="normal" in2="effect2_dropShadow_2204_6357"
        result="effect3_dropShadow_2204_6357" />
      <feBlend mode="normal" in="SourceGraphic" in2="effect3_dropShadow_2204_6357" result="shape" />
    </filter>
    <filter id="filter3_ddd_2204_6357" x="423.5" y="38" width="97" height="43"
      filterUnits="userSpaceOnUse" color-interpolation-filters="sRGB">
      <feFlood flood-opacity="0" result="BackgroundImageFix" />
      <feColorMatrix in="SourceAlpha" type="matrix"
        values="0 0 0 0 0 0 0 0 0 0 0 0 0 0 0 0 0 0 127 0" result="hardAlpha" />
      <feMorphology radius="2" operator="erode" in="SourceAlpha"
        result="effect1_dropShadow_2204_6357" />
      <feOffset dy="3" />
      <feGaussianBlur stdDeviation="0.5" />
      <feComposite in2="hardAlpha" operator="out" />
      <feColorMatrix type="matrix" values="0 0 0 0 0 0 0 0 0 0 0 0 0 0 0 0 0 0 0.2 0" />
      <feBlend mode="normal" in2="BackgroundImageFix" result="effect1_dropShadow_2204_6357" />
      <feColorMatrix in="SourceAlpha" type="matrix"
        values="0 0 0 0 0 0 0 0 0 0 0 0 0 0 0 0 0 0 127 0" result="hardAlpha" />
      <feOffset dy="2" />
      <feGaussianBlur stdDeviation="1" />
      <feComposite in2="hardAlpha" operator="out" />
      <feColorMatrix type="matrix" values="0 0 0 0 0 0 0 0 0 0 0 0 0 0 0 0 0 0 0.14 0" />
      <feBlend mode="normal" in2="effect1_dropShadow_2204_6357"
        result="effect2_dropShadow_2204_6357" />
      <feColorMatrix in="SourceAlpha" type="matrix"
        values="0 0 0 0 0 0 0 0 0 0 0 0 0 0 0 0 0 0 127 0" result="hardAlpha" />
      <feOffset dy="1" />
      <feGaussianBlur stdDeviation="2.5" />
      <feComposite in2="hardAlpha" operator="out" />
      <feColorMatrix type="matrix" values="0 0 0 0 0 0 0 0 0 0 0 0 0 0 0 0 0 0 0.12 0" />
      <feBlend mode="normal" in2="effect2_dropShadow_2204_6357"
        result="effect3_dropShadow_2204_6357" />
      <feBlend mode="normal" in="SourceGraphic" in2="effect3_dropShadow_2204_6357" result="shape" />
    </filter>
  </defs>
</svg>