<svg width="752" height="717" viewBox="0 0 752 717" fill="none" xmlns="http://www.w3.org/2000/svg">
  <g clip-path="url(#clip0_458_23881)">
    <path
      d="M19.9004 715.23C19.9004 715.89 20.4304 716.42 21.0904 716.42H750.38C751.04 716.42 751.57 715.89 751.57 715.23C751.57 714.57 751.04 714.04 750.38 714.04H21.0904C20.4304 714.04 19.9004 714.57 19.9004 715.23Z"
      fill="#3F3D58" />
    <path
      d="M253.43 272.15H19.5296C10.6096 272.15 3.34961 264.89 3.34961 255.97C3.34961 247.05 10.6096 239.79 19.5296 239.79H253.43C262.35 239.79 269.61 247.05 269.61 255.97C269.61 264.89 262.35 272.15 253.43 272.15ZM19.5296 241.79C11.7096 241.79 5.34961 248.15 5.34961 255.97C5.34961 263.79 11.7096 270.15 19.5296 270.15H253.43C261.25 270.15 267.61 263.79 267.61 255.97C267.61 248.15 261.25 241.79 253.43 241.79H19.5296Z"
      fill="#E2E3E4" />
    <path
      d="M253.43 461.5H19.5296C10.8796 461.5 3.84961 454.47 3.84961 445.82C3.84961 437.17 10.8796 430.14 19.5296 430.14H253.43C262.08 430.14 269.11 437.17 269.11 445.82C269.11 454.47 262.08 461.5 253.43 461.5Z"
      fill="#448BFF" />
    <path
      d="M176.78 208.36H15.68C7.03 208.36 0 201.33 0 192.68C0 184.03 7.03 177 15.68 177H176.78C185.43 177 192.46 184.03 192.46 192.68C192.46 201.33 185.43 208.36 176.78 208.36Z"
      fill="#E2E3E4" />
    <path
      d="M253.43 335.43H19.5296C10.6096 335.43 3.34961 328.17 3.34961 319.25C3.34961 310.33 10.6096 303.07 19.5296 303.07H253.43C262.35 303.07 269.61 310.33 269.61 319.25C269.61 328.17 262.35 335.43 253.43 335.43ZM19.5296 305.07C11.7096 305.07 5.34961 311.43 5.34961 319.25C5.34961 327.07 11.7096 333.43 19.5296 333.43H253.43C261.25 333.43 267.61 327.07 267.61 319.25C267.61 311.43 261.25 305.07 253.43 305.07H19.5296Z"
      fill="#E2E3E4" />
    <path
      d="M253.43 398.72H19.5296C10.6096 398.72 3.34961 391.46 3.34961 382.54C3.34961 373.62 10.6096 366.36 19.5296 366.36H253.43C262.35 366.36 269.61 373.62 269.61 382.54C269.61 391.46 262.35 398.72 253.43 398.72ZM19.5296 368.36C11.7096 368.36 5.34961 374.72 5.34961 382.54C5.34961 390.36 11.7096 396.72 19.5296 396.72H253.43C261.25 396.72 267.61 390.36 267.61 382.54C267.61 374.72 261.25 368.36 253.43 368.36H19.5296Z"
      fill="#E2E3E4" />
    <path
      d="M11.4898 228.17H72.7898C74.2498 228.17 75.4398 229.35 75.4398 230.82C75.4398 232.28 74.2498 233.47 72.7898 233.47H11.4898C10.0298 233.47 8.83984 232.29 8.83984 230.82C8.83984 229.36 10.0298 228.17 11.4898 228.17Z"
      fill="#E2E3E4" />
    <path
      d="M11.4898 292.95H72.7898C74.2498 292.95 75.4398 294.13 75.4398 295.59C75.4398 297.05 74.2498 298.24 72.7898 298.24H11.4898C10.0298 298.24 8.83984 297.06 8.83984 295.6C8.83984 294.14 10.0298 292.95 11.4898 292.95Z"
      fill="#E2E3E4" />
    <path
      d="M11.4898 357.74H72.7898C74.2498 357.74 75.4398 358.92 75.4398 360.39C75.4398 361.85 74.2498 363.03 72.7898 363.03H11.4898C10.0298 363.03 8.83984 361.85 8.83984 360.38C8.83984 358.92 10.0298 357.74 11.4898 357.74Z"
      fill="#E2E3E4" />
    <path d="M447.081 309.26L424.721 316.62V284.43H445.011L447.081 309.26Z" fill="#FFB6B6" />
    <path
      d="M427.491 293.34C439.796 293.34 449.771 283.365 449.771 271.06C449.771 258.755 439.796 248.78 427.491 248.78C415.186 248.78 405.211 258.755 405.211 271.06C405.211 283.365 415.186 293.34 427.491 293.34Z"
      fill="#FFB6B6" />
    <path
      d="M433.611 268.85C429.881 268.74 427.431 264.97 425.981 261.53C424.531 258.09 423.041 254.14 419.581 252.72C416.751 251.56 411.761 259.41 409.531 257.32C407.201 255.14 409.471 243.95 411.941 241.94C414.411 239.93 417.791 239.54 420.971 239.39C428.731 239.03 436.541 239.66 444.151 241.25C448.861 242.23 453.701 243.71 457.101 247.11C461.401 251.43 462.501 257.94 462.811 264.03C463.131 270.26 462.771 276.78 459.741 282.23C456.711 287.68 450.371 291.7 444.291 290.31C443.681 287.01 444.301 283.62 444.541 280.26C444.771 276.91 444.531 273.29 442.481 270.62C440.441 267.95 436.061 266.89 433.681 269.26"
      fill="#2F2E43" />
    <path
      d="M461.021 276.57C463.251 274.94 465.921 273.57 468.661 273.91C471.621 274.27 474.131 276.71 474.891 279.6C475.651 282.49 474.801 285.67 472.961 288.03C471.131 290.39 468.401 291.95 465.521 292.73C463.851 293.18 462.021 293.37 460.431 292.69C458.091 291.68 456.821 288.69 457.741 286.31"
      fill="#2F2E43" />
    <path
      d="M375.761 486.2C374.271 493.52 377.001 500.21 381.841 501.14C386.681 502.07 391.811 496.88 393.291 489.56C393.921 486.64 393.821 483.62 393.001 480.74L411.431 365.99L388.381 361.65L379.481 478.15C377.591 480.51 376.321 483.27 375.761 486.21V486.2Z"
      fill="#FFB6B6" />
    <path
      d="M424.481 301.85H408.751C397.631 303.54 394.611 309.47 392.081 320.43C388.221 337.15 383.291 359.41 384.271 359.74C385.841 360.26 412.621 372.86 426.271 369.98L424.481 301.85Z"
      fill="#3E7EE7" />
    <path d="M439.691 667.36H418.751V697.07H439.691V667.36Z" fill="#FFB6B6" />
    <path
      d="M398.36 715.05C396.16 715.05 394.2 715 392.72 714.86C387.16 714.35 381.85 710.24 379.18 707.84C377.98 706.76 377.6 705.04 378.22 703.56C378.67 702.5 379.56 701.7 380.67 701.39L395.37 697.19L419.17 681.13L419.44 681.61C419.54 681.79 421.88 686 422.66 688.84C422.96 689.92 422.88 690.82 422.43 691.52C422.12 692 421.68 692.28 421.33 692.44C421.76 692.89 423.11 693.81 427.27 694.47C433.34 695.43 434.62 689.14 434.67 688.88L434.71 688.67L434.89 688.55C437.78 686.69 439.56 685.84 440.17 686.02C440.55 686.13 441.19 686.33 442.92 703.46C443.09 704 444.3 707.94 443.48 711.71C442.59 715.81 424.67 714.4 421.08 714.08C420.98 714.09 407.56 715.05 398.37 715.05H398.36Z"
      fill="#2F2E43" />
    <path d="M499.317 644.018L481.549 655.099L497.271 680.308L515.039 669.227L499.317 644.018Z"
      fill="#FFB6B6" />
    <path
      d="M475.721 710.98C473.261 710.98 471.001 710.68 469.391 710.4C467.811 710.12 466.571 708.86 466.311 707.28C466.131 706.14 466.461 704.99 467.241 704.14L477.491 692.8L489.191 666.58L489.671 666.84C489.851 666.94 494.061 669.27 496.231 671.27C497.061 672.03 497.471 672.84 497.451 673.67C497.441 674.25 497.221 674.71 497.001 675.04C497.601 675.2 499.231 675.26 503.111 673.62C508.771 671.23 506.531 665.21 506.431 664.96L506.351 664.76L506.441 664.57C507.911 661.46 508.961 659.8 509.581 659.63C509.971 659.52 510.611 659.35 521.141 672.98C521.571 673.34 524.681 676.05 525.981 679.68C527.391 683.63 511.441 691.92 508.231 693.54C508.131 693.62 491.441 705.75 484.581 709.2C481.861 710.57 478.641 710.99 475.711 710.99L475.721 710.98Z"
      fill="#2F2E43" />
    <path
      d="M455.11 418.91H396.48L391.16 473.45L414.44 674.97H444.37L432.4 558.58L480.95 663.66L507.55 645.04L469.64 546.94C469.64 546.94 483.18 461.48 472.54 440.19C461.9 418.91 455.11 418.91 455.11 418.91Z"
      fill="#2F2E43" />
    <path d="M484.28 422.23H391.16L419.1 301.85H459.67L484.28 422.23Z" fill="#448BFF" />
    <path
      d="M492.66 486.2C494.15 493.52 491.42 500.21 486.58 501.14C481.74 502.07 476.61 496.88 475.13 489.56C474.5 486.64 474.6 483.62 475.42 480.74L456.99 365.99L480.04 361.65L488.94 478.15C490.83 480.51 492.1 483.27 492.66 486.21V486.2Z"
      fill="#FFB6B6" />
    <path
      d="M443.94 301.85H459.67C470.79 303.54 473.81 309.47 476.34 320.43C480.2 337.15 485.13 359.41 484.15 359.74C482.58 360.26 455.8 372.86 442.15 369.98L443.94 301.85Z"
      fill="#3E7EE7" />
  </g>
  <path
    d="M178.605 43.445C178.605 27.9535 178.605 20.2078 182.23 15.7337C184.506 12.9245 187.653 10.9542 191.174 10.1345C196.783 8.82885 203.75 12.213 217.685 18.9813L244.652 32.0798C247.752 33.5854 249.72 36.7289 249.72 40.1749C249.72 43.022 248.372 45.7012 246.087 47.3991L222.02 65.2771C206.983 76.4478 199.464 82.0332 193.159 81.3698C189.225 80.9558 185.576 79.1211 182.898 76.2096C178.605 71.544 178.605 62.1777 178.605 43.445Z"
    fill="#448BFF" />
  <path
    d="M219.243 38.6051C220.361 38.6051 221.318 38.2069 222.114 37.4104C222.911 36.6139 223.308 35.6576 223.307 34.5415C223.307 33.4239 222.909 32.467 222.112 31.6705C221.316 30.874 220.359 30.4764 219.243 30.4778C218.126 30.4778 217.169 30.876 216.372 31.6725C215.576 32.469 215.178 33.4253 215.179 34.5415C215.179 35.659 215.578 36.616 216.374 37.4124C217.171 38.2089 218.127 38.6065 219.243 38.6051ZM205.122 67.0508C205.664 67.0508 206.13 66.8646 206.52 66.4921C206.91 66.1196 207.121 65.6624 207.154 65.1206L208.068 46.7325L215.179 44.7006H227.371C227.946 44.7006 228.429 44.5056 228.819 44.1155C229.209 43.7254 229.404 43.2431 229.402 42.6688C229.402 42.0931 229.207 41.6102 228.817 41.2201C228.427 40.83 227.945 40.6356 227.371 40.637H217.211L204.512 31.5445C204.072 31.2397 203.598 31.1212 203.09 31.1889C202.582 31.2567 202.142 31.4937 201.769 31.9001C201.397 32.3742 201.244 32.8903 201.312 33.4483C201.38 34.0064 201.651 34.4724 202.125 34.8462L208.779 39.621H202.988L188.461 31.2397C188.088 31.0027 187.673 30.9349 187.215 31.0365C186.757 31.1381 186.343 31.409 185.972 31.8493C185.599 32.2556 185.447 32.7216 185.515 33.2472C185.582 33.7727 185.836 34.2042 186.277 34.5415L201.973 46.7325L202.887 65.1206C202.921 65.6624 203.141 66.1196 203.547 66.4921C203.954 66.8646 204.478 67.0508 205.122 67.0508Z"
    fill="#FEFFFF" />
  <path
    d="M286.404 42.2866H282.705V48.5408C285.002 48.4879 286.605 48.3821 287.515 48.2233C289.716 47.8212 290.891 46.9058 291.039 45.4772C291.049 45.3608 291.055 45.2444 291.055 45.128C291.055 44.7893 290.996 44.4772 290.88 44.1914C290.764 43.8951 290.552 43.5935 290.245 43.2866C289.949 42.9797 289.473 42.7363 288.817 42.5564C288.16 42.3765 287.356 42.2866 286.404 42.2866ZM286.658 51.0806C286.573 51.0806 285.255 51.1388 282.705 51.2552V57.7952H286.261C286.684 57.7952 287.044 57.7952 287.34 57.7952C287.647 57.7846 288.065 57.7582 288.594 57.7158C289.123 57.6735 289.578 57.6153 289.959 57.5412C290.34 57.4566 290.758 57.3349 291.213 57.1761C291.668 57.0174 292.034 56.8269 292.309 56.6047C292.594 56.3824 292.833 56.102 293.023 55.7634C293.224 55.4141 293.325 55.0226 293.325 54.5887C293.325 53.4987 292.721 52.6415 291.515 52.0172C290.319 51.3928 288.7 51.0806 286.658 51.0806ZM278.705 38.9214H287.308C288.272 38.9214 289.15 38.9954 289.944 39.1436C290.748 39.2917 291.425 39.4875 291.975 39.7309C292.526 39.9637 293.012 40.2495 293.436 40.5881C293.87 40.9161 294.208 41.2548 294.452 41.604C294.706 41.9426 294.912 42.3077 295.071 42.6993C295.229 43.0803 295.335 43.4295 295.388 43.747C295.441 44.0539 295.468 44.3607 295.468 44.6676C295.468 45.3872 295.272 46.1174 294.88 46.8582C294.489 47.599 293.997 48.2233 293.404 48.7313C294.589 49.2181 295.536 49.98 296.245 51.0171C296.965 52.0436 297.325 53.1707 297.325 54.3982C297.325 54.7474 297.288 55.1073 297.214 55.4776C297.15 55.8374 297.018 56.2555 296.817 56.7317C296.616 57.2079 296.351 57.6629 296.023 58.0968C295.706 58.5201 295.272 58.9434 294.722 59.3667C294.171 59.79 293.536 60.1551 292.817 60.462C292.097 60.7583 291.208 61.0017 290.15 61.1922C289.102 61.3827 287.949 61.4779 286.689 61.4779H278.705V38.9214ZM310.31 38.9214H314.691L323.612 61.4779H319.5L316.976 55.5729H307.77L305.246 61.4779H301.373L310.31 38.9214ZM315.58 51.9061L312.373 43.5406L309.151 51.9061H315.58ZM328.485 38.9214H332.485V57.8111H343.914V61.4779H328.485V38.9214ZM349.089 38.9214H353.089V57.8111H364.518V61.4779H349.089V38.9214ZM369.693 61.4779V38.9214H385.519V42.6041H373.709V48.017H384.646V51.6997H373.709V57.7952H385.519V61.4779H369.693ZM410.155 45.382C410.155 46.1016 410.065 46.7894 409.885 47.4455C409.716 48.0911 409.441 48.7154 409.06 49.3186C408.69 49.9218 408.176 50.4615 407.52 50.9378C406.875 51.414 406.107 51.7844 405.218 52.0489L412.028 61.4779H406.822L400.504 52.7315H396.678V61.4779H392.678V38.9214H402.282C402.758 38.9214 403.192 38.9372 403.583 38.969C403.986 38.9901 404.467 39.0536 405.028 39.1595C405.599 39.2547 406.102 39.387 406.536 39.5563C406.98 39.7256 407.436 39.9743 407.901 40.3024C408.377 40.6304 408.769 41.0167 409.076 41.4611C409.393 41.895 409.653 42.4506 409.854 43.1279C410.055 43.7946 410.155 44.5459 410.155 45.382ZM396.678 42.5882V49.0488H400.361C400.996 49.0488 401.557 49.0276 402.044 48.9853C402.531 48.943 403.033 48.8583 403.552 48.7313C404.07 48.5937 404.494 48.4085 404.822 48.1757C405.16 47.9429 405.435 47.6201 405.647 47.2074C405.869 46.7947 405.98 46.3079 405.98 45.747C405.98 43.6411 404.356 42.5882 401.107 42.5882H396.678ZM418.584 38.9214H422.584V61.4779H418.584V38.9214ZM430.997 38.9214H435.41L447.998 56.2555V38.9214H451.998V61.4779H447.538L434.998 44.1121V61.4779H430.997V38.9214ZM466.348 38.9214H470.729L479.65 61.4779H475.539L473.015 55.5729H463.808L461.284 61.4779H457.411L466.348 38.9214ZM471.618 51.9061L468.412 43.5406L465.189 51.9061H471.618ZM514.287 58.2079C512.096 60.5996 508.964 61.7954 504.89 61.7954C503.154 61.7954 501.567 61.5731 500.127 61.1287C498.699 60.6736 497.503 60.0757 496.54 59.335C495.577 58.5836 494.762 57.7053 494.095 56.6999C493.439 55.6946 492.963 54.6522 492.667 53.5728C492.37 52.4828 492.222 51.3663 492.222 50.2234C492.222 49.0276 492.386 47.8741 492.714 46.763C493.042 45.6518 493.55 44.6094 494.238 43.6358C494.937 42.6623 495.773 41.8157 496.746 41.0961C497.731 40.3659 498.916 39.7944 500.302 39.3817C501.688 38.9584 503.202 38.7467 504.842 38.7467C507.837 38.7467 510.53 39.4134 512.922 40.7468L513.477 41.0643L511.81 44.2073L511.239 43.9057C510.488 43.5247 509.546 43.1861 508.414 42.8898C507.281 42.5829 506.144 42.4294 505.001 42.4294C503.879 42.4294 502.794 42.6041 501.747 42.9533C500.699 43.3025 499.762 43.7946 498.937 44.4295C498.122 45.0645 497.466 45.874 496.969 46.8582C496.482 47.8318 496.238 48.9006 496.238 50.0647C496.238 51.5992 496.641 52.9802 497.445 54.2077C498.249 55.4353 499.36 56.393 500.778 57.0809C502.207 57.7582 503.81 58.0968 505.588 58.0968C507.535 58.0968 509.128 57.6576 510.366 56.7793V52.4458H503.302V48.9218H514.287V58.2079ZM518.271 38.9214H523.001L529.033 47.6678L535.192 38.9214H539.764L531.113 50.9378V61.4779H526.621V50.9378L518.271 38.9214ZM543.955 38.9214H548.812L556.305 51.8743L563.908 38.9214H568.527V61.4779H564.527V44.6041L558.114 55.0173H554.336L547.955 44.6041V61.4779H543.955V38.9214Z"
    fill="#2F2F2F" />
  <defs>
    <clipPath id="clip0_458_23881">
      <rect width="751.57" height="539.42" fill="white" transform="translate(0 177)" />
    </clipPath>
  </defs>
</svg>