<svg width="130" height="19" viewBox="0 0 130 19" fill="none" xmlns="http://www.w3.org/2000/svg">
  <path
    d="M6.46 15.22C5.35333 15.22 4.30667 15.08 3.32 14.8C2.34667 14.52 1.53333 14.14 0.88 13.66L1.78 11.22C2.40667 11.66 3.12 12.0067 3.92 12.26C4.73333 12.5133 5.58 12.64 6.46 12.64C7.42 12.64 8.10667 12.4933 8.52 12.2C8.94667 11.8933 9.16 11.5133 9.16 11.06C9.16 10.6733 9.01333 10.3667 8.72 10.14C8.42667 9.91333 7.91333 9.72 7.18 9.56L4.92 9.08C2.4 8.54667 1.14 7.24 1.14 5.16C1.14 4.26667 1.38 3.48667 1.86 2.82C2.34 2.14 3.00667 1.61333 3.86 1.24C4.72667 0.866666 5.72667 0.68 6.86 0.68C7.83333 0.68 8.74667 0.819999 9.6 1.1C10.4533 1.38 11.16 1.77333 11.72 2.28L10.82 4.56C9.72667 3.69333 8.4 3.26 6.84 3.26C6 3.26 5.34667 3.42667 4.88 3.76C4.42667 4.08 4.2 4.5 4.2 5.02C4.2 5.40667 4.34 5.72 4.62 5.96C4.9 6.2 5.38667 6.39333 6.08 6.54L8.34 7.02C10.9267 7.58 12.22 8.84667 12.22 10.82C12.22 11.7 11.98 12.4733 11.5 13.14C11.0333 13.7933 10.3667 14.3067 9.5 14.68C8.64667 15.04 7.63333 15.22 6.46 15.22ZM13.9725 18.6V5.18H16.9325V6.64C17.1992 6.13333 17.6058 5.73333 18.1525 5.44C18.7125 5.13333 19.3392 4.98 20.0325 4.98C20.8858 4.98 21.6325 5.18667 22.2725 5.6C22.9258 6.01333 23.4325 6.6 23.7925 7.36C24.1525 8.12 24.3325 9.02667 24.3325 10.08C24.3325 11.1333 24.1525 12.0467 23.7925 12.82C23.4325 13.58 22.9258 14.1733 22.2725 14.6C21.6325 15.0133 20.8858 15.22 20.0325 15.22C19.3792 15.22 18.7792 15.08 18.2325 14.8C17.6992 14.52 17.2858 14.1467 16.9925 13.68V18.6H13.9725ZM19.1325 12.96C19.7725 12.96 20.2925 12.7267 20.6925 12.26C21.0925 11.7933 21.2925 11.0667 21.2925 10.08C21.2925 9.10667 21.0925 8.39333 20.6925 7.94C20.2925 7.47333 19.7725 7.24 19.1325 7.24C18.4792 7.24 17.9525 7.47333 17.5525 7.94C17.1525 8.39333 16.9525 9.10667 16.9525 10.08C16.9525 11.0667 17.1525 11.7933 17.5525 12.26C17.9525 12.7267 18.4792 12.96 19.1325 12.96ZM30.8995 15.22C29.8462 15.22 28.9262 15.0133 28.1395 14.6C27.3662 14.1733 26.7662 13.58 26.3395 12.82C25.9129 12.0467 25.6995 11.1333 25.6995 10.08C25.6995 9.04 25.9129 8.14 26.3395 7.38C26.7662 6.60667 27.3662 6.01333 28.1395 5.6C28.9262 5.18667 29.8462 4.98 30.8995 4.98C31.9529 4.98 32.8662 5.18667 33.6395 5.6C34.4262 6.01333 35.0329 6.60667 35.4595 7.38C35.8995 8.14 36.1195 9.04 36.1195 10.08C36.1195 11.1333 35.8995 12.0467 35.4595 12.82C35.0329 13.58 34.4262 14.1733 33.6395 14.6C32.8662 15.0133 31.9529 15.22 30.8995 15.22ZM30.8995 12.96C31.5395 12.96 32.0595 12.7267 32.4595 12.26C32.8729 11.7933 33.0795 11.0667 33.0795 10.08C33.0795 9.10667 32.8729 8.39333 32.4595 7.94C32.0595 7.47333 31.5395 7.24 30.8995 7.24C30.2595 7.24 29.7395 7.47333 29.3395 7.94C28.9395 8.39333 28.7395 9.10667 28.7395 10.08C28.7395 11.0667 28.9395 11.7933 29.3395 12.26C29.7395 12.7267 30.2595 12.96 30.8995 12.96ZM37.9569 15V5.18H40.9169V6.88C41.3835 5.73333 42.3835 5.1 43.9169 4.98L44.7969 4.92L44.9769 7.46L43.2769 7.64C41.7835 7.78667 41.0369 8.54667 41.0369 9.92V15H37.9569ZM51.605 15.22C48.845 15.22 47.465 13.88 47.465 11.2V7.44H45.605V5.18H47.465V2.3H50.485V5.18H53.385V7.44H50.485V11.08C50.485 11.64 50.6117 12.06 50.865 12.34C51.1317 12.62 51.5517 12.76 52.125 12.76C52.2983 12.76 52.4783 12.74 52.665 12.7C52.865 12.66 53.0783 12.6067 53.305 12.54L53.745 14.74C53.465 14.8867 53.1317 15 52.745 15.08C52.3583 15.1733 51.9783 15.22 51.605 15.22ZM58.6309 15.22C57.7643 15.22 56.9576 15.12 56.2109 14.92C55.4643 14.72 54.8443 14.4467 54.3509 14.1L55.0709 12.14C55.5643 12.4467 56.1243 12.6933 56.7509 12.88C57.3909 13.0533 58.0243 13.14 58.6509 13.14C59.2109 13.14 59.6243 13.0533 59.8909 12.88C60.1576 12.6933 60.2909 12.4533 60.2909 12.16C60.2909 11.6933 59.9509 11.4 59.2709 11.28L57.1709 10.9C56.3309 10.7533 55.6909 10.4533 55.2509 10C54.8109 9.54667 54.5909 8.95333 54.5909 8.22C54.5909 7.55333 54.7776 6.98 55.1509 6.5C55.5243 6.02 56.0376 5.64667 56.6909 5.38C57.3443 5.11333 58.0976 4.98 58.9509 4.98C59.6576 4.98 60.3443 5.07333 61.0109 5.26C61.6776 5.43333 62.2509 5.71333 62.7309 6.1L61.9709 8.04C61.5709 7.74667 61.0909 7.50667 60.5309 7.32C59.9843 7.13333 59.4709 7.04 58.9909 7.04C58.3909 7.04 57.9576 7.14 57.6909 7.34C57.4243 7.52667 57.2909 7.76667 57.2909 8.06C57.2909 8.52667 57.6043 8.82 58.2309 8.94L60.3309 9.32C61.1976 9.46667 61.8576 9.76 62.3109 10.2C62.7643 10.6267 62.9909 11.2133 62.9909 11.96C62.9909 12.9867 62.5909 13.7867 61.7909 14.36C60.9909 14.9333 59.9376 15.22 58.6309 15.22Z"
    fill="#4880FF" />
  <path
    d="M64.9747 15V0.899999H68.0747V6.56H74.6347V0.899999H77.7347V15H74.6347V9.14H68.0747V15H64.9747ZM83.9402 15.22C82.6868 15.22 81.7602 14.8733 81.1602 14.18C80.5735 13.4867 80.2802 12.4467 80.2802 11.06V5.18H83.3002V11.14C83.3002 12.3 83.8002 12.88 84.8002 12.88C85.3735 12.88 85.8402 12.68 86.2002 12.28C86.5735 11.8667 86.7602 11.3267 86.7602 10.66V5.18H89.7802V15H86.8402V13.66C86.1868 14.7 85.2202 15.22 83.9402 15.22ZM92.117 15V5.18H95.077V6.62C95.4104 6.08667 95.857 5.68 96.417 5.4C96.977 5.12 97.6037 4.98 98.297 4.98C99.457 4.98 100.324 5.32 100.897 6C101.47 6.66667 101.757 7.7 101.757 9.1V15H98.737V9.24C98.737 8.56 98.6104 8.07333 98.357 7.78C98.1037 7.47333 97.7304 7.32 97.237 7.32C96.597 7.32 96.0837 7.52 95.697 7.92C95.3237 8.32 95.137 8.85333 95.137 9.52V15H92.117ZM108.832 15.22C106.072 15.22 104.692 13.88 104.692 11.2V7.44H102.832V5.18H104.692V2.3H107.712V5.18H110.612V7.44H107.712V11.08C107.712 11.64 107.838 12.06 108.092 12.34C108.358 12.62 108.778 12.76 109.352 12.76C109.525 12.76 109.705 12.74 109.892 12.7C110.092 12.66 110.305 12.6067 110.532 12.54L110.972 14.74C110.692 14.8867 110.358 15 109.972 15.08C109.585 15.1733 109.205 15.22 108.832 15.22ZM117.1 15.22C115.94 15.22 114.94 15.0133 114.1 14.6C113.273 14.1733 112.633 13.58 112.18 12.82C111.74 12.0467 111.52 11.14 111.52 10.1C111.52 9.08667 111.733 8.2 112.16 7.44C112.6 6.66667 113.193 6.06667 113.94 5.64C114.7 5.2 115.573 4.98 116.56 4.98C117.987 4.98 119.12 5.43333 119.96 6.34C120.8 7.23333 121.22 8.44667 121.22 9.98V10.74H114.4C114.507 11.5133 114.787 12.08 115.24 12.44C115.707 12.7867 116.347 12.96 117.16 12.96C117.693 12.96 118.233 12.88 118.78 12.72C119.327 12.56 119.82 12.3133 120.26 11.98L121.06 14C120.567 14.3733 119.96 14.6733 119.24 14.9C118.533 15.1133 117.82 15.22 117.1 15.22ZM116.68 6.98C116.04 6.98 115.52 7.17333 115.12 7.56C114.733 7.94667 114.493 8.48667 114.4 9.18H118.72C118.64 7.71333 117.96 6.98 116.68 6.98ZM122.976 15V5.18H125.936V6.88C126.403 5.73333 127.403 5.1 128.936 4.98L129.816 4.92L129.996 7.46L128.296 7.64C126.803 7.78667 126.056 8.54667 126.056 9.92V15H122.976Z"
    fill="#202224" />
</svg>
  