<svg xmlns="http://www.w3.org/2000/svg" version="1.0" width="166.000000pt" height="168.000000pt"
  viewBox="0 0 166.000000 168.000000" preserveAspectRatio="xMidYMid meet">

  <g transform="translate(0.000000,168.000000) scale(0.100000,-0.100000)" fill="#ffffff" stroke="none">
    <path
      d="M1086 1666 c-79 -30 -129 -100 -129 -182 0 -67 28 -120 82 -159 37 -26 51 -30 110 -30 77 0 120 22 162 83 20 30 24 48 24 108 0 66 -3 76 -31 111 -58 71 -141 97 -218 69z" />
    <path
      d="M600 1380 c-115 -24 -275 -142 -320 -235 -19 -39 -20 -48 -8 -72 17 -37 78 -67 118 -58 19 4 47 27 80 65 68 78 131 110 219 110 37 0 71 -4 77 -8 18 -12 -200 -423 -257 -486 -61 -67 -134 -106 -209 -113 -48 -5 -67 -1 -115 21 -78 36 -109 34 -151 -8 -98 -98 18 -203 238 -214 79 -3 110 0 165 16 79 24 150 67 210 124 l42 41 42 -17 c58 -23 161 -84 236 -139 60 -45 64 -50 142 -211 46 -94 89 -169 100 -175 11 -6 36 -11 56 -11 46 0 95 45 95 87 0 31 -143 329 -183 382 -28 36 -177 150 -239 182 -21 11 -38 24 -38 30 0 11 166 318 179 332 4 4 40 2 79 -5 151 -26 288 24 413 151 86 87 102 124 74 167 -9 14 -32 32 -52 40 -50 21 -90 5 -146 -60 -62 -72 -130 -106 -213 -106 -75 0 -122 16 -233 79 -147 84 -284 115 -401 91z" />
  </g>
</svg>