<svg width="28" height="28" viewBox="0 0 28 28" fill="none" xmlns="http://www.w3.org/2000/svg">
<g clip-path="url(#clip0_833_14663)">
<rect width="26.893" height="26.893" rx="13.4465" transform="matrix(-1 0 0 1 27.4463 0.553467)" fill="#F268F0" fill-opacity="0.6"/>
<path d="M15.8432 21.0483C15.1745 19.9365 13.6394 17.8054 9.98406 14.8109C4.46826 10.2923 9.67407 6.15924 15.2666 8.36048C15.8649 8.59599 17.5227 7.6532 19.0584 8.64643C20.049 9.28714 19.6635 9.78926 20.0492 10.2914C20.4349 10.7935 21.9221 10.764 22.2478 12.0678C22.4408 12.8402 21.9068 13.6494 21.9783 14.2308C22.0497 14.8122 22.6133 15.3362 22.6402 16.1038C22.6519 16.428 22.5995 16.7512 22.4862 17.0552C22.3729 17.3591 22.2008 17.6378 21.9798 17.8752C21.7587 18.1126 21.4931 18.3042 21.198 18.439C20.9029 18.5737 20.5842 18.649 20.26 18.6606C20.2574 19.3014 20.0071 19.9165 19.5616 20.3772C19.1161 20.8379 18.5097 21.1085 17.8693 21.1326C17.4586 21.1476 17.0508 21.0593 16.6831 20.8757C16.3184 21.2119 16.0052 21.3176 15.8432 21.0483Z" fill="url(#paint0_linear_833_14663)"/>
<path d="M14.4761 8.08695C15.427 8.6969 16.6034 10.6974 16.087 13.3828C15.9744 13.9687 16.3264 14.1441 16.6275 13.4214C17.536 11.2409 17.6413 9.2745 16.087 8.33387C15.8168 8.17119 15.6624 8.30298 15.4694 8.287C15.1022 8.25658 14.6079 7.99646 14.4761 8.08695Z" fill="url(#paint1_linear_833_14663)"/>
<path d="M15.7112 19.8999C15.7112 19.205 15.7348 15.7775 15.7336 15.7196C17.6414 16.0008 17.6028 12.372 15.6726 13.2599C15.2479 13.5302 14.0512 13.2599 14.167 11.0209C12.0824 13.2599 9.6621 10.6484 9.45457 12.7764C9.17113 15.6822 9.45626 18.7231 11.2621 18.7234C11.4597 18.721 11.6566 18.7013 11.8507 18.6645V19.8999C11.8507 20.672 10.461 21.058 10.461 21.058C10.461 21.058 12.8616 23.3202 13.8582 23.3077C14.8548 23.2952 17.1009 21.058 17.1009 21.058C17.1009 21.058 15.7112 20.672 15.7112 19.8999Z" fill="url(#paint2_linear_833_14663)"/>
<g style="mix-blend-mode:multiply">
<path d="M11.8506 18.6641C12.8084 18.4517 13.7161 18.0558 14.5234 17.4984C14.5234 17.4984 13.8573 19.1269 11.853 19.4359L11.8506 18.6641Z" fill="#FFDBC9"/>
</g>
<path d="M6.67771 23.3742C6.11756 24.619 5.82842 28.3928 5.82842 28.3928H21.7334C21.7334 28.3928 21.4443 24.619 20.8841 23.3742C20.3934 22.2838 17.1596 21.0318 16.212 20.6719C15.6648 21.284 14.8807 21.6756 13.7809 21.6756C12.6811 21.6756 11.897 21.284 11.3498 20.6719C10.4022 21.0318 7.16845 22.2838 6.67771 23.3742Z" fill="url(#paint3_linear_833_14663)"/>
</g>
<defs>
<linearGradient id="paint0_linear_833_14663" x1="15.4059" y1="21.2252" x2="14.9303" y2="7.65005" gradientUnits="userSpaceOnUse">
<stop/>
<stop offset="1"/>
</linearGradient>
<linearGradient id="paint1_linear_833_14663" x1="15.8821" y1="8.06793" x2="15.8821" y2="13.8961" gradientUnits="userSpaceOnUse">
<stop stop-color="#C80000"/>
<stop offset="1" stop-color="#C80000"/>
</linearGradient>
<linearGradient id="paint2_linear_833_14663" x1="13.2513" y1="11.0209" x2="13.2513" y2="23.3078" gradientUnits="userSpaceOnUse">
<stop stop-color="#FFE0CC"/>
<stop offset="1" stop-color="#FFEADB"/>
</linearGradient>
<linearGradient id="paint3_linear_833_14663" x1="13.7809" y1="20.6719" x2="13.7809" y2="28.3928" gradientUnits="userSpaceOnUse">
<stop stop-color="#130027"/>
<stop offset="1" stop-color="#130017"/>
</linearGradient>
<clipPath id="clip0_833_14663">
<rect width="26.893" height="26.893" rx="13.4465" transform="matrix(-1 0 0 1 27.4463 0.553467)" fill="white"/>
</clipPath>
</defs>
</svg>
