<svg width="186" height="48" viewBox="0 0 186 48" fill="none" xmlns="http://www.w3.org/2000/svg">
  <path d="M0 21.3822C0 13.7578 0 9.94556 1.7839 7.74359C2.90397 6.361 4.45302 5.3913 6.18603 4.98783C8.94612 4.34526 12.3752 6.01082 19.2334 9.34195L32.5059 15.7886C34.0315 16.5296 35 18.0767 35 19.7727C35 21.174 34.3369 22.4926 33.212 23.3282L21.3673 32.1271C13.9664 37.625 10.2659 40.3739 7.16285 40.0474C5.22644 39.8437 3.43081 38.9407 2.11252 37.5077C0 35.2115 0 30.6017 0 21.3822Z" fill="#00A0DA"/>
  <path d="M20 19C20.55 19 21.021 18.804 21.413 18.412C21.805 18.02 22.0007 17.5493 22 17C22 16.45 21.804 15.979 21.412 15.587C21.02 15.195 20.5493 14.9993 20 15C19.45 15 18.979 15.196 18.587 15.588C18.195 15.98 17.9993 16.4507 18 17C18 17.55 18.196 18.021 18.588 18.413C18.98 18.805 19.4507 19.0007 20 19ZM13.05 33C13.3167 33 13.546 32.9083 13.738 32.725C13.93 32.5417 14.034 32.3167 14.05 32.05L14.5 23L18 22H24C24.2833 22 24.521 21.904 24.713 21.712C24.905 21.52 25.0007 21.2827 25 21C25 20.7167 24.904 20.479 24.712 20.287C24.52 20.095 24.2827 19.9993 24 20H19L12.75 15.525C12.5333 15.375 12.3 15.3167 12.05 15.35C11.8 15.3833 11.5833 15.5 11.4 15.7C11.2167 15.9333 11.1417 16.1873 11.175 16.462C11.2083 16.7367 11.3417 16.966 11.575 17.15L14.85 19.5H12L4.85 15.375C4.66666 15.2583 4.46233 15.225 4.237 15.275C4.01166 15.325 3.80766 15.4583 3.625 15.675C3.44166 15.875 3.36666 16.1043 3.4 16.363C3.43333 16.6217 3.55833 16.834 3.775 17L11.5 23L11.95 32.05C11.9667 32.3167 12.075 32.5417 12.275 32.725C12.475 32.9083 12.7333 33 13.05 33Z" fill="#FEFFFF"/>
  <path d="M45.2656 14.8984H47.6562L51.3438 21.2734L55.0859 14.8984H57.3594V26H55.3906V17.6953L52.2344 22.8203H50.375L47.2344 17.6953V26H45.2656V14.8984ZM66.1484 18.2812H68.0703V26H66.6406L66.4141 25.4766C65.3672 25.9297 64.3594 26.1562 63.3906 26.1562C62.8854 26.1562 62.4479 26.0911 62.0781 25.9609C61.7083 25.8255 61.4167 25.6562 61.2031 25.4531C60.9948 25.2448 60.8281 24.987 60.7031 24.6797C60.5781 24.3724 60.4974 24.0781 60.4609 23.7969C60.4245 23.5156 60.4062 23.1979 60.4062 22.8438V18.2812H62.3281V22.8281C62.3281 22.9635 62.3333 23.0833 62.3438 23.1875C62.3594 23.2917 62.3984 23.4245 62.4609 23.5859C62.5234 23.7422 62.612 23.8724 62.7266 23.9766C62.8411 24.0807 63.013 24.1719 63.2422 24.25C63.4714 24.3281 63.7422 24.3672 64.0547 24.3672C64.6797 24.3672 65.3776 24.224 66.1484 23.9375V18.2812ZM75.7891 23.6953C75.7786 23.5651 75.6771 23.4505 75.4844 23.3516C75.2969 23.2526 75.0547 23.1641 74.7578 23.0859C74.4609 23.0078 74.1354 22.9271 73.7812 22.8438C73.4271 22.7604 73.0729 22.6589 72.7188 22.5391C72.3698 22.4141 72.0495 22.2708 71.7578 22.1094C71.4661 21.9427 71.2292 21.7266 71.0469 21.4609C70.8646 21.1901 70.7734 20.8828 70.7734 20.5391C70.7734 20.3359 70.8099 20.1328 70.8828 19.9297C70.9609 19.7214 71.099 19.5078 71.2969 19.2891C71.4948 19.0651 71.7448 18.8698 72.0469 18.7031C72.349 18.5365 72.7526 18.401 73.2578 18.2969C73.763 18.1875 74.3333 18.1328 74.9688 18.1328C75.3438 18.1328 75.6823 18.1536 75.9844 18.1953C76.2865 18.2318 76.5 18.2656 76.625 18.2969C76.75 18.3281 76.9401 18.3828 77.1953 18.4609L77.5156 18.5547L76.9844 20.1328L76.6875 20.0547C76.0104 19.8672 75.3516 19.7734 74.7109 19.7734C74.388 19.7734 74.1042 19.7969 73.8594 19.8438C73.6146 19.8854 73.4271 19.9375 73.2969 20C73.1719 20.0573 73.0703 20.1276 72.9922 20.2109C72.9141 20.2891 72.8646 20.3568 72.8438 20.4141C72.8229 20.4661 72.8125 20.5156 72.8125 20.5625C72.8125 20.6823 72.9036 20.7917 73.0859 20.8906C73.2734 20.9896 73.5156 21.0807 73.8125 21.1641C74.1094 21.2422 74.4349 21.3281 74.7891 21.4219C75.1484 21.5104 75.5078 21.6198 75.8672 21.75C76.2266 21.8802 76.5547 22.0286 76.8516 22.1953C77.1484 22.362 77.388 22.5755 77.5703 22.8359C77.7578 23.0964 77.8516 23.388 77.8516 23.7109C77.8516 23.9349 77.8177 24.151 77.75 24.3594C77.6875 24.5677 77.5625 24.7839 77.375 25.0078C77.1927 25.2318 76.9557 25.4271 76.6641 25.5938C76.3724 25.7552 75.9792 25.8906 75.4844 26C74.9896 26.1042 74.4219 26.1562 73.7812 26.1562C72.7812 26.1562 71.7839 25.9531 70.7891 25.5469L70.5 25.4297L71.0781 23.8672L71.375 23.9844C72.3073 24.3333 73.1328 24.5078 73.8516 24.5078C74.5182 24.5078 75.0078 24.4427 75.3203 24.3125C75.6328 24.1771 75.7891 23.9714 75.7891 23.6953ZM84.1406 19.9219C83.5417 19.9219 82.8646 20.0651 82.1094 20.3516V26H80.1875V14.1953H82.1094V18.6797C83.0469 18.3203 83.9193 18.1406 84.7266 18.1406C85.1328 18.1406 85.4974 18.1875 85.8203 18.2812C86.1432 18.3698 86.4089 18.4818 86.6172 18.6172C86.8255 18.7526 87.0052 18.9271 87.1562 19.1406C87.3073 19.349 87.4219 19.5495 87.5 19.7422C87.5781 19.9297 87.638 20.151 87.6797 20.4062C87.7266 20.6615 87.7526 20.8724 87.7578 21.0391C87.7682 21.2005 87.7734 21.3906 87.7734 21.6094V26H85.8672V21.4922C85.8672 20.4453 85.2917 19.9219 84.1406 19.9219ZM95.7344 25.8594C94.9688 26.0573 94.3281 26.1562 93.8125 26.1562C93.3177 26.1562 92.8906 26.1068 92.5312 26.0078C92.1771 25.9089 91.8984 25.7839 91.6953 25.6328C91.4922 25.4766 91.3307 25.2786 91.2109 25.0391C91.0964 24.7943 91.0208 24.5573 90.9844 24.3281C90.9479 24.099 90.9297 23.8307 90.9297 23.5234V19.9297H89.7344V18.2812H90.9297V16.0703H92.8516V18.2812H95.6875V19.9297H92.8516V23.3906C92.8516 23.5208 92.8724 23.6458 92.9141 23.7656C92.9609 23.8854 93.0339 24.0052 93.1328 24.125C93.2318 24.2448 93.3802 24.3411 93.5781 24.4141C93.776 24.4818 94.0104 24.5156 94.2812 24.5156C94.4219 24.5156 94.8021 24.4635 95.4219 24.3594L95.7266 24.3047L96.0312 25.7812L95.7344 25.8594ZM101.195 18.1328C101.758 18.1328 102.25 18.1849 102.672 18.2891C103.099 18.388 103.443 18.5208 103.703 18.6875C103.964 18.8542 104.174 19.0625 104.336 19.3125C104.497 19.5625 104.607 19.8177 104.664 20.0781C104.727 20.3333 104.758 20.6198 104.758 20.9375V26H103.32L103.102 25.4922C102.409 25.9349 101.62 26.1562 100.734 26.1562C99.7708 26.1562 98.9896 25.9297 98.3906 25.4766C97.7917 25.0234 97.4922 24.487 97.4922 23.8672C97.4922 23.4818 97.5885 23.1458 97.7812 22.8594C97.9792 22.5729 98.237 22.3438 98.5547 22.1719C98.8724 22 99.2708 21.8594 99.75 21.75C100.229 21.6406 100.708 21.5651 101.188 21.5234C101.672 21.4818 102.219 21.4583 102.828 21.4531V21.1875C102.828 20.9896 102.81 20.8255 102.773 20.6953C102.742 20.5651 102.669 20.4271 102.555 20.2812C102.44 20.1354 102.247 20.026 101.977 19.9531C101.711 19.875 101.37 19.8359 100.953 19.8359C100.37 19.8359 99.5964 19.9505 98.6328 20.1797L98.3203 20.2656L97.9219 18.7266L98.1953 18.6328C99.1589 18.2995 100.159 18.1328 101.195 18.1328ZM102.828 24.0078V22.9062H102.641C101.589 22.9062 100.805 22.9688 100.289 23.0938C99.7786 23.2188 99.5234 23.4297 99.5234 23.7266C99.5234 23.9141 99.6797 24.0911 99.9922 24.2578C100.305 24.4245 100.688 24.5078 101.141 24.5078C101.781 24.5078 102.344 24.3411 102.828 24.0078ZM111.391 18.125C112.068 18.125 112.82 18.2891 113.648 18.6172L113.789 18.2812H115.156V30.1484H113.234V25.7969C112.552 26.0365 111.87 26.1562 111.188 26.1562C110.786 26.1562 110.401 26.1146 110.031 26.0312C109.661 25.9531 109.299 25.8177 108.945 25.625C108.596 25.4323 108.292 25.1901 108.031 24.8984C107.776 24.6016 107.568 24.2214 107.406 23.7578C107.25 23.2943 107.172 22.7708 107.172 22.1875C107.172 21.526 107.286 20.9323 107.516 20.4062C107.75 19.875 108.062 19.4479 108.453 19.125C108.849 18.7969 109.297 18.5495 109.797 18.3828C110.297 18.2109 110.828 18.125 111.391 18.125ZM111.484 19.8047C110.75 19.8047 110.161 20.0078 109.719 20.4141C109.281 20.8151 109.062 21.3672 109.062 22.0703C109.062 22.4453 109.12 22.7786 109.234 23.0703C109.354 23.362 109.503 23.5938 109.68 23.7656C109.857 23.9323 110.065 24.0703 110.305 24.1797C110.549 24.2891 110.781 24.362 111 24.3984C111.224 24.4349 111.453 24.4531 111.688 24.4531C112.203 24.4531 112.719 24.362 113.234 24.1797V20.1016C112.547 19.9036 111.964 19.8047 111.484 19.8047ZM123.203 14.8984H125.594L129.281 21.2734L133.023 14.8984H135.297V26H133.328V17.6953L130.172 22.8203H128.312L125.172 17.6953V26H123.203V14.8984ZM144.086 18.2812H146.008V26H144.578L144.352 25.4766C143.305 25.9297 142.297 26.1562 141.328 26.1562C140.823 26.1562 140.385 26.0911 140.016 25.9609C139.646 25.8255 139.354 25.6562 139.141 25.4531C138.932 25.2448 138.766 24.987 138.641 24.6797C138.516 24.3724 138.435 24.0781 138.398 23.7969C138.362 23.5156 138.344 23.1979 138.344 22.8438V18.2812H140.266V22.8281C140.266 22.9635 140.271 23.0833 140.281 23.1875C140.297 23.2917 140.336 23.4245 140.398 23.5859C140.461 23.7422 140.549 23.8724 140.664 23.9766C140.779 24.0807 140.951 24.1719 141.18 24.25C141.409 24.3281 141.68 24.3672 141.992 24.3672C142.617 24.3672 143.315 24.224 144.086 23.9375V18.2812ZM153.727 23.6953C153.716 23.5651 153.615 23.4505 153.422 23.3516C153.234 23.2526 152.992 23.1641 152.695 23.0859C152.398 23.0078 152.073 22.9271 151.719 22.8438C151.365 22.7604 151.01 22.6589 150.656 22.5391C150.307 22.4141 149.987 22.2708 149.695 22.1094C149.404 21.9427 149.167 21.7266 148.984 21.4609C148.802 21.1901 148.711 20.8828 148.711 20.5391C148.711 20.3359 148.747 20.1328 148.82 19.9297C148.898 19.7214 149.036 19.5078 149.234 19.2891C149.432 19.0651 149.682 18.8698 149.984 18.7031C150.286 18.5365 150.69 18.401 151.195 18.2969C151.701 18.1875 152.271 18.1328 152.906 18.1328C153.281 18.1328 153.62 18.1536 153.922 18.1953C154.224 18.2318 154.438 18.2656 154.562 18.2969C154.688 18.3281 154.878 18.3828 155.133 18.4609L155.453 18.5547L154.922 20.1328L154.625 20.0547C153.948 19.8672 153.289 19.7734 152.648 19.7734C152.326 19.7734 152.042 19.7969 151.797 19.8438C151.552 19.8854 151.365 19.9375 151.234 20C151.109 20.0573 151.008 20.1276 150.93 20.2109C150.852 20.2891 150.802 20.3568 150.781 20.4141C150.76 20.4661 150.75 20.5156 150.75 20.5625C150.75 20.6823 150.841 20.7917 151.023 20.8906C151.211 20.9896 151.453 21.0807 151.75 21.1641C152.047 21.2422 152.372 21.3281 152.727 21.4219C153.086 21.5104 153.445 21.6198 153.805 21.75C154.164 21.8802 154.492 22.0286 154.789 22.1953C155.086 22.362 155.326 22.5755 155.508 22.8359C155.695 23.0964 155.789 23.388 155.789 23.7109C155.789 23.9349 155.755 24.151 155.688 24.3594C155.625 24.5677 155.5 24.7839 155.312 25.0078C155.13 25.2318 154.893 25.4271 154.602 25.5938C154.31 25.7552 153.917 25.8906 153.422 26C152.927 26.1042 152.359 26.1562 151.719 26.1562C150.719 26.1562 149.721 25.9531 148.727 25.5469L148.438 25.4297L149.016 23.8672L149.312 23.9844C150.245 24.3333 151.07 24.5078 151.789 24.5078C152.456 24.5078 152.945 24.4427 153.258 24.3125C153.57 24.1771 153.727 23.9714 153.727 23.6953ZM157.656 22.3047C157.656 21.6953 157.74 21.151 157.906 20.6719C158.073 20.1875 158.297 19.7917 158.578 19.4844C158.865 19.1719 159.203 18.9141 159.594 18.7109C159.99 18.5026 160.401 18.3568 160.828 18.2734C161.26 18.1849 161.721 18.1406 162.211 18.1406C163.091 18.1406 163.904 18.3021 164.648 18.625L164.922 18.7422L164.414 20.2656L164.109 20.1641C163.573 19.9766 163.005 19.8828 162.406 19.8828C162.016 19.8828 161.659 19.9167 161.336 19.9844C161.018 20.0521 160.719 20.1641 160.438 20.3203C160.156 20.4714 159.935 20.6953 159.773 20.9922C159.617 21.2891 159.539 21.6458 159.539 22.0625C159.539 23.6615 160.552 24.4609 162.578 24.4609C163.083 24.4609 163.562 24.3802 164.016 24.2188L164.32 24.1172L164.844 25.5938L164.555 25.7031C163.773 26.0052 162.932 26.1562 162.031 26.1562C161.568 26.1562 161.133 26.1198 160.727 26.0469C160.326 25.974 159.932 25.8464 159.547 25.6641C159.161 25.4766 158.831 25.2422 158.555 24.9609C158.284 24.6745 158.065 24.3047 157.898 23.8516C157.737 23.3984 157.656 22.8828 157.656 22.3047ZM167.312 14.1953H169.234V26H167.312V14.1953ZM176.281 18.1328C176.729 18.1328 177.13 18.1823 177.484 18.2812C177.844 18.375 178.138 18.4974 178.367 18.6484C178.602 18.7943 178.802 18.987 178.969 19.2266C179.141 19.4609 179.271 19.6875 179.359 19.9062C179.448 20.1198 179.516 20.3776 179.562 20.6797C179.615 20.9818 179.646 21.237 179.656 21.4453C179.667 21.6536 179.672 21.901 179.672 22.1875V23.0625H173.867C173.977 23.4479 174.286 23.7839 174.797 24.0703C175.307 24.3516 175.979 24.4922 176.812 24.4922C177.401 24.4922 178 24.4036 178.609 24.2266L178.93 24.1328L179.312 25.6172L179.031 25.7109C178.161 26.0078 177.234 26.1562 176.25 26.1562C175.562 26.1562 174.953 26.0807 174.422 25.9297C173.891 25.7786 173.464 25.5833 173.141 25.3438C172.823 25.1042 172.56 24.8151 172.352 24.4766C172.148 24.138 172.008 23.7995 171.93 23.4609C171.852 23.1224 171.812 22.7604 171.812 22.375C171.812 21.8021 171.893 21.2786 172.055 20.8047C172.221 20.3255 172.445 19.9245 172.727 19.6016C173.013 19.2734 173.346 18.9974 173.727 18.7734C174.112 18.5495 174.518 18.388 174.945 18.2891C175.372 18.1849 175.818 18.1328 176.281 18.1328ZM175.961 19.8828C175.362 19.8828 174.883 20.0339 174.523 20.3359C174.164 20.6328 173.951 21.0052 173.883 21.4531H177.781C177.74 20.8906 177.562 20.4896 177.25 20.25C176.938 20.0052 176.508 19.8828 175.961 19.8828ZM45.2656 32.8984H47.6562L51.3438 39.2734L55.0859 32.8984H57.3594V44H55.3906V35.6953L52.2344 40.8203H50.375L47.2344 35.6953V44H45.2656V32.8984ZM63.6641 36.1328C64.2266 36.1328 64.7188 36.1849 65.1406 36.2891C65.5677 36.388 65.9115 36.5208 66.1719 36.6875C66.4323 36.8542 66.6432 37.0625 66.8047 37.3125C66.9661 37.5625 67.0755 37.8177 67.1328 38.0781C67.1953 38.3333 67.2266 38.6198 67.2266 38.9375V44H65.7891L65.5703 43.4922C64.8776 43.9349 64.0885 44.1562 63.2031 44.1562C62.2396 44.1562 61.4583 43.9297 60.8594 43.4766C60.2604 43.0234 59.9609 42.487 59.9609 41.8672C59.9609 41.4818 60.0573 41.1458 60.25 40.8594C60.4479 40.5729 60.7057 40.3438 61.0234 40.1719C61.3411 40 61.7396 39.8594 62.2188 39.75C62.6979 39.6406 63.1771 39.5651 63.6562 39.5234C64.1406 39.4818 64.6875 39.4583 65.2969 39.4531V39.1875C65.2969 38.9896 65.2786 38.8255 65.2422 38.6953C65.2109 38.5651 65.138 38.4271 65.0234 38.2812C64.9089 38.1354 64.7161 38.026 64.4453 37.9531C64.1797 37.875 63.8385 37.8359 63.4219 37.8359C62.8385 37.8359 62.0651 37.9505 61.1016 38.1797L60.7891 38.2656L60.3906 36.7266L60.6641 36.6328C61.6276 36.2995 62.6276 36.1328 63.6641 36.1328ZM65.2969 42.0078V40.9062H65.1094C64.0573 40.9062 63.2734 40.9688 62.7578 41.0938C62.2474 41.2188 61.9922 41.4297 61.9922 41.7266C61.9922 41.9141 62.1484 42.0911 62.4609 42.2578C62.7734 42.4245 63.1562 42.5078 63.6094 42.5078C64.25 42.5078 64.8125 42.3411 65.2969 42.0078ZM70.0469 36.2812H71.3906L71.6562 36.8125C72.7292 36.3542 73.7266 36.125 74.6484 36.125C75.1484 36.125 75.5807 36.1927 75.9453 36.3281C76.3099 36.4635 76.5964 36.6328 76.8047 36.8359C77.013 37.0391 77.1771 37.2969 77.2969 37.6094C77.4219 37.9167 77.5026 38.2109 77.5391 38.4922C77.5755 38.7734 77.5938 39.0911 77.5938 39.4453V44H75.6719V39.4688C75.6719 39.3229 75.6641 39.1979 75.6484 39.0938C75.638 38.9844 75.6016 38.8516 75.5391 38.6953C75.4766 38.5339 75.3906 38.4036 75.2812 38.3047C75.1719 38.2005 75.0052 38.112 74.7812 38.0391C74.5625 37.9609 74.3021 37.9219 74 37.9219C73.3906 37.9219 72.7135 38.0651 71.9688 38.3516V44H70.0469V36.2812ZM80.2891 32.8984H82.4453V35.0156H80.2891V32.8984ZM80.4062 36.2812H82.3281V44H80.4062V36.2812ZM88.3984 36.1328C88.9609 36.1328 89.4531 36.1849 89.875 36.2891C90.3021 36.388 90.6458 36.5208 90.9062 36.6875C91.1667 36.8542 91.3776 37.0625 91.5391 37.3125C91.7005 37.5625 91.8099 37.8177 91.8672 38.0781C91.9297 38.3333 91.9609 38.6198 91.9609 38.9375V44H90.5234L90.3047 43.4922C89.612 43.9349 88.8229 44.1562 87.9375 44.1562C86.974 44.1562 86.1927 43.9297 85.5938 43.4766C84.9948 43.0234 84.6953 42.487 84.6953 41.8672C84.6953 41.4818 84.7917 41.1458 84.9844 40.8594C85.1823 40.5729 85.4401 40.3438 85.7578 40.1719C86.0755 40 86.474 39.8594 86.9531 39.75C87.4323 39.6406 87.9115 39.5651 88.3906 39.5234C88.875 39.4818 89.4219 39.4583 90.0312 39.4531V39.1875C90.0312 38.9896 90.013 38.8255 89.9766 38.6953C89.9453 38.5651 89.8724 38.4271 89.7578 38.2812C89.6432 38.1354 89.4505 38.026 89.1797 37.9531C88.9141 37.875 88.5729 37.8359 88.1562 37.8359C87.5729 37.8359 86.7995 37.9505 85.8359 38.1797L85.5234 38.2656L85.125 36.7266L85.3984 36.6328C86.362 36.2995 87.362 36.1328 88.3984 36.1328ZM90.0312 42.0078V40.9062H89.8438C88.7917 40.9062 88.0078 40.9688 87.4922 41.0938C86.9818 41.2188 86.7266 41.4297 86.7266 41.7266C86.7266 41.9141 86.8828 42.0911 87.1953 42.2578C87.5078 42.4245 87.8906 42.5078 88.3438 42.5078C88.9844 42.5078 89.5469 42.3411 90.0312 42.0078ZM110.289 42.3906C109.211 43.5677 107.669 44.1562 105.664 44.1562C104.81 44.1562 104.029 44.0469 103.32 43.8281C102.617 43.6042 102.029 43.3099 101.555 42.9453C101.081 42.5755 100.68 42.1432 100.352 41.6484C100.029 41.1536 99.7943 40.6406 99.6484 40.1094C99.5026 39.5729 99.4297 39.0234 99.4297 38.4609C99.4297 37.8724 99.5104 37.3047 99.6719 36.7578C99.8333 36.2109 100.083 35.6979 100.422 35.2188C100.766 34.7396 101.177 34.3229 101.656 33.9688C102.141 33.6094 102.724 33.3281 103.406 33.125C104.089 32.9167 104.833 32.8125 105.641 32.8125C107.115 32.8125 108.44 33.1406 109.617 33.7969L109.891 33.9531L109.07 35.5L108.789 35.3516C108.419 35.1641 107.956 34.9974 107.398 34.8516C106.841 34.7005 106.281 34.625 105.719 34.625C105.167 34.625 104.633 34.7109 104.117 34.8828C103.602 35.0547 103.141 35.2969 102.734 35.6094C102.333 35.9219 102.01 36.3203 101.766 36.8047C101.526 37.2839 101.406 37.8099 101.406 38.3828C101.406 39.138 101.604 39.8177 102 40.4219C102.396 41.026 102.943 41.4974 103.641 41.8359C104.344 42.1693 105.133 42.3359 106.008 42.3359C106.966 42.3359 107.75 42.1198 108.359 41.6875V39.5547H104.883V37.8203H110.289V42.3906ZM112.25 32.8984H114.578L117.547 37.2031L120.578 32.8984H122.828L118.57 38.8125V44H116.359V38.8125L112.25 32.8984ZM124.891 32.8984H127.281L130.969 39.2734L134.711 32.8984H136.984V44H135.016V35.6953L131.859 40.8203H130L126.859 35.6953V44H124.891V32.8984Z" fill="black"/>
  </svg>
  