<svg width="18" height="18" viewBox="0 0 18 18" fill="none" xmlns="http://www.w3.org/2000/svg">
<path d="M12.75 15H16.5V13.5C16.5 13.0324 16.3542 12.5764 16.0831 12.1955C15.812 11.8145 15.4289 11.5275 14.9871 11.3743C14.5453 11.2211 14.0667 11.2094 13.6179 11.3408C13.1692 11.4721 12.7725 11.74 12.483 12.1072M12.75 15H5.25M12.75 15V13.5C12.75 13.008 12.6555 12.5377 12.483 12.1072M12.483 12.1072C12.2045 11.4112 11.7238 10.8146 11.103 10.3943C10.4822 9.97409 9.74969 9.74947 9 9.74947C8.25031 9.74947 7.51782 9.97409 6.897 10.3943C6.27618 10.8146 5.79552 11.4112 5.517 12.1072M5.25 15H1.5V13.5C1.50003 13.0324 1.64575 12.5764 1.9169 12.1955C2.18804 11.8145 2.57114 11.5275 3.01294 11.3743C3.45474 11.2211 3.93328 11.2094 4.38205 11.3408C4.83082 11.4721 5.22752 11.74 5.517 12.1072M5.25 15V13.5C5.25 13.008 5.3445 12.5377 5.517 12.1072M11.25 5.25C11.25 5.84674 11.0129 6.41903 10.591 6.84099C10.169 7.26295 9.59674 7.5 9 7.5C8.40326 7.5 7.83097 7.26295 7.40901 6.84099C6.98705 6.41903 6.75 5.84674 6.75 5.25C6.75 4.65326 6.98705 4.08097 7.40901 3.65901C7.83097 3.23705 8.40326 3 9 3C9.59674 3 10.169 3.23705 10.591 3.65901C11.0129 4.08097 11.25 4.65326 11.25 5.25ZM15.75 7.5C15.75 7.89782 15.592 8.27936 15.3107 8.56066C15.0294 8.84196 14.6478 9 14.25 9C13.8522 9 13.4706 8.84196 13.1893 8.56066C12.908 8.27936 12.75 7.89782 12.75 7.5C12.75 7.10218 12.908 6.72064 13.1893 6.43934C13.4706 6.15804 13.8522 6 14.25 6C14.6478 6 15.0294 6.15804 15.3107 6.43934C15.592 6.72064 15.75 7.10218 15.75 7.5ZM5.25 7.5C5.25 7.89782 5.09196 8.27936 4.81066 8.56066C4.52936 8.84196 4.14782 9 3.75 9C3.35218 9 2.97064 8.84196 2.68934 8.56066C2.40804 8.27936 2.25 7.89782 2.25 7.5C2.25 7.10218 2.40804 6.72064 2.68934 6.43934C2.97064 6.15804 3.35218 6 3.75 6C4.14782 6 4.52936 6.15804 4.81066 6.43934C5.09196 6.72064 5.25 7.10218 5.25 7.5Z" stroke="url(#paint0_linear_2494_3158)" stroke-width="1.5" stroke-linecap="round" stroke-linejoin="round"/>
<defs>
<linearGradient id="paint0_linear_2494_3158" x1="0.375" y1="9" x2="16.5" y2="9" gradientUnits="userSpaceOnUse">
<stop stop-color="#448BFF"/>
<stop offset="1" stop-color="#FA5FF0"/>
</linearGradient>
</defs>
</svg>
