<svg width="7" height="33" viewBox="0 0 7 33" fill="none" xmlns="http://www.w3.org/2000/svg">
<path d="M0.515 3.29999C0.473129 2.88285 0.519152 2.46157 0.650101 2.06331C0.781049 1.66505 0.994016 1.29866 1.27527 0.987765C1.55652 0.67687 1.89981 0.428375 2.283 0.258305C2.66619 0.0882346 3.08077 0.000366211 3.5 0.000366211C3.91923 0.000366211 4.33382 0.0882346 4.717 0.258305C5.10019 0.428375 5.44348 0.67687 5.72473 0.987765C6.00598 1.29866 6.21895 1.66505 6.3499 2.06331C6.48085 2.46157 6.52687 2.88285 6.485 3.29999L5.321 22.35C5.27603 22.8017 5.06477 23.2206 4.72825 23.5253C4.39172 23.83 3.95396 23.9987 3.5 23.9987C3.04604 23.9987 2.60828 23.83 2.27175 23.5253C1.93523 23.2206 1.72397 22.8017 1.679 22.35L0.515 3.29999ZM0.5 30C0.5 29.2043 0.816071 28.4413 1.37868 27.8787C1.94129 27.3161 2.70435 27 3.5 27C4.29565 27 5.05871 27.3161 5.62132 27.8787C6.18393 28.4413 6.5 29.2043 6.5 30C6.5 30.7956 6.18393 31.5587 5.62132 32.1213C5.05871 32.6839 4.29565 33 3.5 33C2.70435 33 1.94129 32.6839 1.37868 32.1213C0.816071 31.5587 0.5 30.7956 0.5 30Z" fill="#448BFF"/>
</svg>
