<svg width="18" height="18" viewBox="0 0 18 18" fill="none" xmlns="http://www.w3.org/2000/svg">
<path fill-rule="evenodd" clip-rule="evenodd" d="M12.958 10.4167C13.4641 10.4167 13.8888 10.8344 13.8115 11.3341C13.3575 14.2741 10.8407 16.457 7.80514 16.457C4.44671 16.457 1.72461 13.7349 1.72461 10.3773C1.72461 7.61095 3.82619 5.0341 6.19224 4.45147C6.70066 4.32595 7.22171 4.68358 7.22171 5.207C7.22171 8.75332 7.34092 9.67068 8.01435 10.1696C8.68777 10.6686 9.47961 10.4167 12.958 10.4167Z" stroke="url(#paint0_linear_2503_6644)" stroke-width="1.5" stroke-linecap="round" stroke-linejoin="round"/>
<path fill-rule="evenodd" clip-rule="evenodd" d="M16.2691 7.46365C16.3094 5.18523 13.5107 1.5126 10.1002 1.57576C9.8349 1.58049 9.62253 1.80154 9.61069 2.06602C9.52463 3.93944 9.64069 6.36707 9.70542 7.4676C9.72516 7.81023 9.99437 8.07944 10.3362 8.09918C11.4675 8.16391 13.9836 8.25233 15.8302 7.97286C16.0812 7.93497 16.2652 7.71707 16.2691 7.46365Z" stroke="url(#paint1_linear_2503_6644)" stroke-width="1.5" stroke-linecap="round" stroke-linejoin="round"/>
<defs>
<linearGradient id="paint0_linear_2503_6644" x1="7.7726" y1="4.42627" x2="7.7726" y2="16.457" gradientUnits="userSpaceOnUse">
<stop stop-color="#FA5FF0"/>
<stop offset="1" stop-color="#448BFF"/>
</linearGradient>
<linearGradient id="paint1_linear_2503_6644" x1="12.9248" y1="1.57495" x2="12.9248" y2="8.1655" gradientUnits="userSpaceOnUse">
<stop stop-color="#FA5FF0"/>
<stop offset="1" stop-color="#448BFF"/>
</linearGradient>
</defs>
</svg>
