<svg width="16" height="14" viewBox="0 0 16 14" fill="none" xmlns="http://www.w3.org/2000/svg">
<path d="M8.93709 0.249822C8.03447 0.224046 7.13586 0.379574 6.29441 0.707206C5.45296 1.03484 4.68577 1.52792 4.03824 2.15727C3.39071 2.78662 2.87598 3.53945 2.52453 4.37123C2.17307 5.20301 1.99202 6.09684 1.99209 6.99982H0.649588C0.312088 6.99982 0.147088 7.40482 0.387088 7.63732L2.47959 9.73732C2.62959 9.88732 2.86209 9.88732 3.01209 9.73732L5.10459 7.63732C5.34459 7.40482 5.17209 6.99982 4.84209 6.99982H3.49209C3.49209 4.07482 5.87709 1.71232 8.81709 1.74982C11.6071 1.78732 13.9546 4.13482 13.9921 6.92482C14.0296 9.85732 11.6671 12.2498 8.74209 12.2498C7.53459 12.2498 6.41709 11.8373 5.53209 11.1398C5.38844 11.0267 5.2082 10.9702 5.02566 10.9813C4.84313 10.9924 4.67102 11.0701 4.54209 11.1998C4.22709 11.5223 4.24959 12.0473 4.60209 12.3248C5.7835 13.2502 7.24142 13.752 8.74209 13.7498C12.5296 13.7498 15.5971 10.6223 15.4921 6.80482C15.3946 3.28732 12.4546 0.347322 8.93709 0.249822ZM8.55459 3.99982C8.24709 3.99982 7.99209 4.25482 7.99209 4.56232V7.32232C7.99209 7.58482 8.13459 7.83232 8.35959 7.96732L10.6996 9.35482C10.9696 9.51232 11.3146 9.42232 11.4721 9.15982C11.6296 8.88982 11.5396 8.54482 11.2771 8.38732L9.11709 7.10482V4.55482C9.11709 4.25482 8.86959 3.99982 8.55459 3.99982Z" fill="black"/>
</svg>
