<svg width="472" height="97" viewBox="0 0 472 97" fill="none" xmlns="http://www.w3.org/2000/svg">
  <path
    d="M38.6055 43.445C38.6055 27.9535 38.6055 20.2078 42.23 15.7337C44.5059 12.9245 47.6533 10.9542 51.1745 10.1345C56.7825 8.82885 63.7499 12.213 77.6846 18.9813L104.652 32.0798C107.752 33.5854 109.72 36.7289 109.72 40.1749C109.72 43.022 108.372 45.7012 106.087 47.3991L82.0204 65.2771C66.9828 76.4478 59.4641 82.0332 53.1592 81.3698C49.2247 80.9558 45.5763 79.1211 42.8978 76.2096C38.6055 71.544 38.6055 62.1777 38.6055 43.445Z"
    fill="#448BFF" />
  <path
    d="M79.2432 38.6051C80.3607 38.6051 81.3177 38.2069 82.1141 37.4104C82.9106 36.6139 83.3082 35.6576 83.3068 34.5415C83.3068 33.4239 82.9086 32.467 82.1121 31.6705C81.3156 30.874 80.3593 30.4764 79.2432 30.4778C78.1256 30.4778 77.1687 30.876 76.3722 31.6725C75.5757 32.469 75.1781 33.4253 75.1795 34.5415C75.1795 35.659 75.5777 36.616 76.3742 37.4124C77.1707 38.2089 78.127 38.6065 79.2432 38.6051ZM65.1219 67.0508C65.6637 67.0508 66.1297 66.8646 66.5198 66.4921C66.9099 66.1196 67.1212 65.6624 67.1537 65.1206L68.0681 46.7325L75.1795 44.7006H87.3705C87.9462 44.7006 88.4291 44.5056 88.8192 44.1155C89.2093 43.7254 89.4037 43.2431 89.4023 42.6688C89.4023 42.0931 89.2073 41.6102 88.8172 41.2201C88.4271 40.83 87.9448 40.6356 87.3705 40.637H77.2113L64.5123 31.5445C64.0721 31.2397 63.598 31.1212 63.0901 31.1889C62.5821 31.2567 62.1419 31.4937 61.7694 31.9001C61.3969 32.3742 61.2445 32.8903 61.3122 33.4483C61.3799 34.0064 61.6508 34.4724 62.1249 34.8462L68.7792 39.621H62.9885L48.4608 31.2397C48.0883 31.0027 47.6732 30.9349 47.2153 31.0365C46.7575 31.1381 46.343 31.409 45.9718 31.8493C45.5993 32.2556 45.4469 32.7216 45.5147 33.2472C45.5824 33.7727 45.8364 34.2042 46.2766 34.5415L61.9725 46.7325L62.8869 65.1206C62.9207 65.6624 63.1409 66.1196 63.5472 66.4921C63.9536 66.8646 64.4785 67.0508 65.1219 67.0508Z"
    fill="#FEFFFF" />
  <path
    d="M146.404 42.2866H142.705V48.5408C145.002 48.4879 146.605 48.3821 147.515 48.2233C149.716 47.8212 150.891 46.9058 151.039 45.4772C151.049 45.3608 151.055 45.2444 151.055 45.128C151.055 44.7893 150.996 44.4772 150.88 44.1914C150.764 43.8951 150.552 43.5935 150.245 43.2866C149.949 42.9797 149.473 42.7363 148.817 42.5564C148.16 42.3765 147.356 42.2866 146.404 42.2866ZM146.658 51.0806C146.573 51.0806 145.255 51.1388 142.705 51.2552V57.7952H146.261C146.684 57.7952 147.044 57.7952 147.34 57.7952C147.647 57.7846 148.065 57.7582 148.594 57.7158C149.123 57.6735 149.578 57.6153 149.959 57.5412C150.34 57.4566 150.758 57.3349 151.213 57.1761C151.668 57.0174 152.034 56.8269 152.309 56.6047C152.594 56.3824 152.833 56.102 153.023 55.7634C153.224 55.4141 153.325 55.0226 153.325 54.5887C153.325 53.4987 152.721 52.6415 151.515 52.0172C150.319 51.3928 148.7 51.0806 146.658 51.0806ZM138.705 38.9214H147.308C148.272 38.9214 149.15 38.9954 149.944 39.1436C150.748 39.2917 151.425 39.4875 151.975 39.7309C152.526 39.9637 153.012 40.2495 153.436 40.5881C153.87 40.9161 154.208 41.2548 154.452 41.604C154.706 41.9426 154.912 42.3077 155.071 42.6993C155.229 43.0803 155.335 43.4295 155.388 43.747C155.441 44.0539 155.468 44.3607 155.468 44.6676C155.468 45.3872 155.272 46.1174 154.88 46.8582C154.489 47.599 153.997 48.2233 153.404 48.7313C154.589 49.2181 155.536 49.98 156.245 51.0171C156.965 52.0436 157.325 53.1707 157.325 54.3982C157.325 54.7474 157.288 55.1073 157.214 55.4776C157.15 55.8374 157.018 56.2555 156.817 56.7317C156.616 57.2079 156.351 57.6629 156.023 58.0968C155.706 58.5201 155.272 58.9434 154.722 59.3667C154.171 59.79 153.536 60.1551 152.817 60.462C152.097 60.7583 151.208 61.0017 150.15 61.1922C149.102 61.3827 147.949 61.4779 146.689 61.4779H138.705V38.9214ZM170.31 38.9214H174.691L183.612 61.4779H179.5L176.976 55.5729H167.77L165.246 61.4779H161.373L170.31 38.9214ZM175.58 51.9061L172.373 43.5406L169.151 51.9061H175.58ZM188.485 38.9214H192.485V57.8111H203.914V61.4779H188.485V38.9214ZM209.089 38.9214H213.089V57.8111H224.518V61.4779H209.089V38.9214ZM229.693 61.4779V38.9214H245.519V42.6041H233.709V48.017H244.646V51.6997H233.709V57.7952H245.519V61.4779H229.693ZM270.155 45.382C270.155 46.1016 270.065 46.7894 269.885 47.4455C269.716 48.0911 269.441 48.7154 269.06 49.3186C268.69 49.9218 268.176 50.4615 267.52 50.9378C266.875 51.414 266.107 51.7844 265.218 52.0489L272.028 61.4779H266.822L260.504 52.7315H256.678V61.4779H252.678V38.9214H262.282C262.758 38.9214 263.192 38.9372 263.583 38.969C263.986 38.9901 264.467 39.0536 265.028 39.1595C265.599 39.2547 266.102 39.387 266.536 39.5563C266.98 39.7256 267.436 39.9743 267.901 40.3024C268.377 40.6304 268.769 41.0167 269.076 41.4611C269.393 41.895 269.653 42.4506 269.854 43.1279C270.055 43.7946 270.155 44.5459 270.155 45.382ZM256.678 42.5882V49.0488H260.361C260.996 49.0488 261.557 49.0276 262.044 48.9853C262.531 48.943 263.033 48.8583 263.552 48.7313C264.07 48.5937 264.494 48.4085 264.822 48.1757C265.16 47.9429 265.435 47.6201 265.647 47.2074C265.869 46.7947 265.98 46.3079 265.98 45.747C265.98 43.6411 264.356 42.5882 261.107 42.5882H256.678ZM278.584 38.9214H282.584V61.4779H278.584V38.9214ZM290.997 38.9214H295.41L307.998 56.2555V38.9214H311.998V61.4779H307.538L294.998 44.1121V61.4779H290.997V38.9214ZM326.348 38.9214H330.729L339.65 61.4779H335.539L333.015 55.5729H323.808L321.284 61.4779H317.411L326.348 38.9214ZM331.618 51.9061L328.412 43.5406L325.189 51.9061H331.618ZM374.287 58.2079C372.096 60.5996 368.964 61.7954 364.89 61.7954C363.154 61.7954 361.567 61.5731 360.127 61.1287C358.699 60.6736 357.503 60.0757 356.54 59.335C355.577 58.5836 354.762 57.7053 354.095 56.6999C353.439 55.6946 352.963 54.6522 352.667 53.5728C352.37 52.4828 352.222 51.3663 352.222 50.2234C352.222 49.0276 352.386 47.8741 352.714 46.763C353.042 45.6518 353.55 44.6094 354.238 43.6358C354.937 42.6623 355.773 41.8157 356.746 41.0961C357.731 40.3659 358.916 39.7944 360.302 39.3817C361.688 38.9584 363.202 38.7467 364.842 38.7467C367.837 38.7467 370.53 39.4134 372.922 40.7468L373.477 41.0643L371.81 44.2073L371.239 43.9057C370.488 43.5247 369.546 43.1861 368.414 42.8898C367.281 42.5829 366.144 42.4294 365.001 42.4294C363.879 42.4294 362.794 42.6041 361.747 42.9533C360.699 43.3025 359.762 43.7946 358.937 44.4295C358.122 45.0645 357.466 45.874 356.969 46.8582C356.482 47.8318 356.238 48.9006 356.238 50.0647C356.238 51.5992 356.641 52.9802 357.445 54.2077C358.249 55.4353 359.36 56.393 360.778 57.0809C362.207 57.7582 363.81 58.0968 365.588 58.0968C367.535 58.0968 369.128 57.6576 370.366 56.7793V52.4458H363.302V48.9218H374.287V58.2079ZM378.271 38.9214H383.001L389.033 47.6678L395.192 38.9214H399.764L391.113 50.9378V61.4779H386.621V50.9378L378.271 38.9214ZM403.955 38.9214H408.812L416.305 51.8743L423.908 38.9214H428.527V61.4779H424.527V44.6041L418.114 55.0173H414.336L407.955 44.6041V61.4779H403.955V38.9214Z"
    fill="black" />
</svg>
<svg width="619" height="509" viewBox="0 0 619 509" fill="none" xmlns="http://www.w3.org/2000/svg">
  <g clip-path="url(#clip0_458_23608)">
    <path
      d="M494.043 52.93C492.703 57.89 494.243 65.7 494.823 70.33C495.443 75.28 486.863 79.71 481.953 79.99C482.074 78.3515 481.614 76.7229 480.653 75.39C480.642 76.9751 480.315 78.5421 479.693 80H438.723C433.563 70.29 429.173 57.02 433.913 43.3C434.154 40.5445 435.202 37.9214 436.928 35.7598C438.654 33.5982 440.98 31.9945 443.613 31.15L465.953 24C474.763 24 485.573 25.25 490.443 31.81C492.599 34.8302 494.043 38.2993 494.666 41.957C495.289 45.6148 495.077 49.3663 494.043 52.93Z"
      fill="#2F2E41" />
    <path
      d="M533.271 482.01C534.002 482.037 534.722 481.838 535.336 481.441C535.95 481.045 536.427 480.469 536.702 479.792C536.978 479.115 537.038 478.37 536.876 477.658C536.714 476.945 536.337 476.3 535.795 475.809C535.702 475.452 535.635 475.197 535.542 474.84C536.224 473.059 537.422 471.522 538.983 470.426C540.543 469.33 542.396 468.725 544.303 468.689C546.21 468.653 548.084 469.187 549.685 470.223C551.286 471.259 552.542 472.75 553.291 474.504C557.608 484.35 563.172 494.532 560.557 505.446C578.151 467.219 571.594 419.939 544.747 387.646C537.373 383.675 531.36 376.553 529.732 368.232C533.374 369.428 537.872 366.432 535.107 362.634C533.91 361.183 532.701 359.745 531.504 358.295C545.154 343.477 561.805 366.402 546.815 386.369C551.839 392.547 556.204 399.233 559.839 406.319C558.943 398.767 559.853 391.11 562.494 383.978C565.176 377.329 570.269 371.702 574.746 365.934C580.189 358.905 591.559 362.015 592.385 370.861C587.316 372.581 586.725 379.932 592.551 380.882C591.184 397.365 580.569 412.602 565.819 419.966C571.438 435.269 573.73 451.593 572.544 467.851C574.979 448.84 595.315 444.039 609.488 436.357C610.39 435.767 611.443 435.452 612.52 435.45C613.597 435.449 614.651 435.761 615.554 436.348C616.457 436.935 617.17 437.773 617.605 438.758C618.04 439.743 618.179 440.834 618.004 441.897C616.046 442.715 614.174 443.726 612.415 444.914C611.591 445.48 610.962 446.286 610.614 447.223C610.267 448.16 610.217 449.181 610.473 450.148C610.729 451.114 611.277 451.977 612.042 452.619C612.808 453.262 613.754 453.651 614.749 453.735C607.738 471.575 589.288 483.685 570.221 483.799C568.464 491.779 565.884 499.554 562.52 507L534.221 507.27C534.117 506.956 534.022 506.632 533.928 506.319C536.549 506.458 539.177 506.277 541.754 505.778C534.746 497.639 529.346 493.504 533.271 482.011L533.271 482.01Z"
      fill="#F2F2F2" />
    <path d="M474.867 487.701H463.829L458.576 445.127H474.867V487.701Z" fill="#FFB6B6" />
    <path
      d="M480.692 506.825H472.776L471.363 499.352L467.745 506.825H446.751C445.744 506.825 444.764 506.504 443.954 505.907C443.143 505.311 442.545 504.471 442.245 503.511C441.946 502.55 441.961 501.519 442.289 500.567C442.617 499.616 443.241 498.794 444.069 498.223L460.834 486.644V479.089L478.468 480.141L480.692 506.825Z"
      fill="#2F2E41" />
    <path d="M492.193 410.591L484.443 418.451L450.438 392.302L461.875 380.702L492.193 410.591Z"
      fill="#FFB6B6" />
    <path
      d="M509.902 419.869L504.344 425.506L498.031 421.266L500.812 429.089L486.073 444.039C485.366 444.756 484.449 445.228 483.455 445.386C482.462 445.545 481.443 445.381 480.549 444.92C479.654 444.459 478.931 443.724 478.484 442.822C478.037 441.921 477.89 440.9 478.064 439.909L481.589 419.841L476.209 414.537L489.339 402.719L509.902 419.869Z"
      fill="#2F2E41" />
    <path
      d="M403.899 180.267L437.286 127.148C438.694 124.894 439.158 122.176 438.58 119.582C438.002 116.987 436.427 114.724 434.195 113.281C433.04 112.534 431.745 112.031 430.389 111.801C429.034 111.571 427.645 111.619 426.309 111.943C424.973 112.268 423.716 112.86 422.617 113.686C421.517 114.511 420.597 115.552 419.912 116.745L386.923 172.986L365.437 206.315C363.65 206.002 361.809 206.248 360.166 207.018C358.523 207.788 357.157 209.046 356.254 210.619C355.35 212.193 354.953 214.007 355.116 215.814C355.279 217.621 355.994 219.334 357.165 220.721C358.336 222.107 359.905 223.1 361.659 223.564C363.414 224.027 365.268 223.94 366.971 223.313C368.674 222.686 370.142 221.549 371.177 220.059C372.212 218.568 372.762 216.795 372.754 214.98L403.899 180.267Z"
      fill="#FFB6B6" />
    <path
      d="M435.362 141.04L438.177 140.509C437.798 139.819 437.639 139.028 437.723 138.245C437.807 137.461 438.129 136.722 438.645 136.127C439.161 135.532 439.848 135.11 440.612 134.916C441.376 134.723 442.18 134.768 442.918 135.046C439.526 131.509 441.173 125.685 443.355 121.297C444.932 118.125 446.704 114.991 447.476 111.534C448.648 106.286 447.137 99.9343 440.138 98.6777C437.276 98.23 434.349 98.8227 431.887 100.348C427.488 102.948 426.499 101.816 423.724 106L422.142 108.94C420.11 112.122 417.686 115.036 414.926 117.612C412.952 119.578 411.361 121.893 410.235 124.441C410.087 124.756 409.868 125.033 409.596 125.25C408.513 126.087 407.042 126.129 405.685 126.307C403.975 126.532 402.019 127.256 402.063 129.377C402.088 129.884 402.217 130.38 402.443 130.835C402.669 131.29 402.987 131.693 403.376 132.019C410.596 138.337 419.045 143.094 428.192 145.991C430.224 146.633 432.507 147.165 434.418 146.223C436.329 145.281 437.15 142.2 435.362 141.04Z"
      fill="#3E7EE7" />
    <path d="M477.725 242L412.725 241L410.725 226L416.725 192H467.725L477.725 242Z" fill="#FFB6B6" />
    <path
      d="M338.725 282H85.7246C79.6267 281.993 73.7806 279.568 69.4687 275.256C65.1569 270.944 62.7315 265.098 62.7246 259V114C62.7315 107.902 65.157 102.056 69.4688 97.7442C73.7806 93.4324 79.6268 91.0069 85.7246 91H338.725C344.822 91.0069 350.669 93.4324 354.98 97.7442C359.292 102.056 361.718 107.902 361.725 114V259C361.718 265.098 359.292 270.944 354.98 275.256C350.669 279.568 344.822 281.993 338.725 282Z"
      fill="white" />
    <path
      d="M338.725 282H85.7246C79.6267 281.993 73.7806 279.568 69.4687 275.256C65.1569 270.944 62.7315 265.098 62.7246 259V114C62.7315 107.902 65.157 102.056 69.4688 97.7442C73.7806 93.4324 79.6268 91.0069 85.7246 91H338.725C344.822 91.0069 350.669 93.4324 354.98 97.7442C359.292 102.056 361.718 107.902 361.725 114V259C361.718 265.098 359.292 270.944 354.98 275.256C350.669 279.568 344.822 281.993 338.725 282ZM85.7246 93C80.157 93.0062 74.8192 95.2207 70.8823 99.1577C66.9454 103.095 64.7309 108.432 64.7246 114V259C64.7309 264.568 66.9455 269.905 70.8824 273.842C74.8192 277.779 80.157 279.994 85.7246 280H338.725C344.292 279.994 349.63 277.779 353.567 273.842C357.504 269.905 359.718 264.568 359.725 259V114C359.718 108.432 357.504 103.095 353.567 99.1577C349.63 95.2207 344.292 93.0062 338.725 93H85.7246Z"
      fill="#E6E6E6" />
    <path
      d="M359.724 196.339H63.7227C63.4574 196.339 63.2031 196.234 63.0155 196.046C62.828 195.859 62.7227 195.605 62.7227 195.339C62.7227 195.074 62.828 194.82 63.0155 194.632C63.2031 194.445 63.4574 194.339 63.7227 194.339H359.724C359.99 194.339 360.244 194.445 360.431 194.632C360.619 194.82 360.724 195.074 360.724 195.339C360.724 195.605 360.619 195.859 360.431 196.046C360.244 196.234 359.99 196.339 359.724 196.339Z"
      fill="#E6E6E6" />
    <path
      d="M337.725 47C342.695 47 346.725 42.9706 346.725 38C346.725 33.0294 342.695 29 337.725 29C332.754 29 328.725 33.0294 328.725 38C328.725 42.9706 332.754 47 337.725 47Z"
      fill="#F2F2F2" />
    <path
      d="M9 190.3C13.9706 190.3 18 186.271 18 181.3C18 176.329 13.9706 172.3 9 172.3C4.02944 172.3 0 176.329 0 181.3C0 186.271 4.02944 190.3 9 190.3Z"
      fill="#F2F2F2" />
    <path
      d="M194 344.3C198.971 344.3 203 340.271 203 335.3C203 330.329 198.971 326.3 194 326.3C189.029 326.3 185 330.329 185 335.3C185 340.271 189.029 344.3 194 344.3Z"
      fill="#F2F2F2" />
    <path
      d="M139.646 240.3H108.402C108.137 240.3 107.883 240.195 107.695 240.007C107.508 239.82 107.402 239.565 107.402 239.3C107.402 239.035 107.508 238.78 107.695 238.593C107.883 238.405 108.137 238.3 108.402 238.3H139.646C139.912 238.3 140.166 238.405 140.354 238.593C140.541 238.78 140.646 239.035 140.646 239.3C140.646 239.565 140.541 239.82 140.354 240.007C140.166 240.195 139.912 240.3 139.646 240.3Z"
      fill="#CCCCCC" />
    <path
      d="M139.646 256.3H108.402C108.137 256.3 107.883 256.195 107.695 256.007C107.508 255.82 107.402 255.565 107.402 255.3C107.402 255.035 107.508 254.78 107.695 254.593C107.883 254.405 108.137 254.3 108.402 254.3H139.646C139.912 254.3 140.166 254.405 140.354 254.593C140.541 254.78 140.646 255.035 140.646 255.3C140.646 255.565 140.541 255.82 140.354 256.007C140.166 256.195 139.912 256.3 139.646 256.3Z"
      fill="#CCCCCC" />
    <path
      d="M310.646 240.3H279.402C279.137 240.3 278.883 240.195 278.695 240.007C278.508 239.82 278.402 239.565 278.402 239.3C278.402 239.035 278.508 238.78 278.695 238.593C278.883 238.405 279.137 238.3 279.402 238.3H310.646C310.912 238.3 311.166 238.405 311.354 238.593C311.541 238.78 311.646 239.035 311.646 239.3C311.646 239.565 311.541 239.82 311.354 240.007C311.166 240.195 310.912 240.3 310.646 240.3Z"
      fill="#CCCCCC" />
    <path
      d="M310.646 256.3H279.402C279.137 256.3 278.883 256.195 278.695 256.007C278.508 255.82 278.402 255.565 278.402 255.3C278.402 255.035 278.508 254.78 278.695 254.593C278.883 254.405 279.137 254.3 279.402 254.3H310.646C310.912 254.3 311.166 254.405 311.354 254.593C311.541 254.78 311.646 255.035 311.646 255.3C311.646 255.565 311.541 255.82 311.354 256.007C311.166 256.195 310.912 256.3 310.646 256.3Z"
      fill="#CCCCCC" />
    <path
      d="M253.646 240.3H222.402C222.137 240.3 221.883 240.195 221.695 240.007C221.508 239.82 221.402 239.565 221.402 239.3C221.402 239.035 221.508 238.78 221.695 238.593C221.883 238.405 222.137 238.3 222.402 238.3H253.646C253.912 238.3 254.166 238.405 254.354 238.593C254.541 238.78 254.646 239.035 254.646 239.3C254.646 239.565 254.541 239.82 254.354 240.007C254.166 240.195 253.912 240.3 253.646 240.3Z"
      fill="#CCCCCC" />
    <path
      d="M253.646 256.3H222.402C222.137 256.3 221.883 256.195 221.695 256.007C221.508 255.82 221.402 255.565 221.402 255.3C221.402 255.035 221.508 254.78 221.695 254.593C221.883 254.405 222.137 254.3 222.402 254.3H253.646C253.912 254.3 254.166 254.405 254.354 254.593C254.541 254.78 254.646 255.035 254.646 255.3C254.646 255.565 254.541 255.82 254.354 256.007C254.166 256.195 253.912 256.3 253.646 256.3Z"
      fill="#CCCCCC" />
    <path
      d="M196.646 240.3H165.402C165.137 240.3 164.883 240.195 164.695 240.007C164.508 239.82 164.402 239.565 164.402 239.3C164.402 239.035 164.508 238.78 164.695 238.593C164.883 238.405 165.137 238.3 165.402 238.3H196.646C196.912 238.3 197.166 238.405 197.354 238.593C197.541 238.78 197.646 239.035 197.646 239.3C197.646 239.565 197.541 239.82 197.354 240.007C197.166 240.195 196.912 240.3 196.646 240.3Z"
      fill="#CCCCCC" />
    <path
      d="M196.646 256.3H165.402C165.137 256.3 164.883 256.195 164.695 256.007C164.508 255.82 164.402 255.565 164.402 255.3C164.402 255.035 164.508 254.78 164.695 254.593C164.883 254.405 165.137 254.3 165.402 254.3H196.646C196.912 254.3 197.166 254.405 197.354 254.593C197.541 254.78 197.646 255.035 197.646 255.3C197.646 255.565 197.541 255.82 197.354 256.007C197.166 256.195 196.912 256.3 196.646 256.3Z"
      fill="#CCCCCC" />
    <path
      d="M410.725 225L408.725 252L370.992 319.592C369.18 322.601 368.385 326.115 368.725 329.611C369.065 333.108 370.522 336.402 372.88 339.006L432.052 392.623C432.052 392.623 443.685 393.004 442.705 398.502C441.725 404 447.942 403.739 447.942 403.739L454.939 408.794L458.725 380C446.003 351.594 427.138 342.929 410.725 329.825C410.725 329.825 417.646 327.767 416.186 325.384C414.725 323 419.311 322.842 419.311 322.842C419.311 322.842 422.354 322.431 422.54 320.216C422.725 318 425.676 317.665 425.676 317.665L442.231 301L485.725 299C485.725 299 504.131 252.89 473.725 223L410.725 225Z"
      fill="#2F2E41" />
    <path d="M442.326 288.478L456.723 460L477.928 458.716L485.723 299L442.326 288.478Z"
      fill="#2F2E41" />
    <path
      d="M443.361 83.8957L467.634 82.6453L478.908 100.46C478.908 100.46 500.121 104.007 498.651 129.004C497.18 154 472.841 175.935 472.841 175.935L473.881 188.953L472.074 194.116L472.306 197.015L474.771 200.085L475.025 203.26L472.841 208.284L473.881 223C473.881 223 464.983 223.093 440.5 224C427 224.5 411.084 225 411.084 225L411.084 198.727L414.415 194.26L412.554 188.434L415.352 182.83L416.81 165.03C416.81 165.03 400.853 141.057 419.171 123.001L426.523 110.502L434.75 100.466L443.361 83.8957Z"
      fill="#448BFF" />
    <path
      d="M502.883 192.305L501.097 129.59C501.013 126.933 499.889 124.416 497.965 122.581C496.042 120.746 493.475 119.741 490.817 119.783C489.442 119.804 488.086 120.106 486.831 120.669C485.576 121.231 484.449 122.044 483.519 123.056C482.589 124.068 481.874 125.26 481.419 126.557C480.964 127.855 480.778 129.232 480.872 130.604L484.725 195.692L485.399 235.34C483.74 236.075 482.346 237.302 481.409 238.856C480.472 240.41 480.035 242.214 480.159 244.025C480.283 245.835 480.962 247.563 482.102 248.975C483.242 250.386 484.79 251.412 486.534 251.914C488.278 252.415 490.134 252.368 491.85 251.778C493.566 251.188 495.058 250.084 496.125 248.615C497.192 247.147 497.78 245.387 497.812 243.572C497.843 241.758 497.314 239.978 496.299 238.474L502.883 192.305Z"
      fill="#FFB6B6" />
    <path
      d="M507.223 142.205C507.681 141.74 507.974 141.136 508.057 140.487C508.139 139.838 508.007 139.181 507.679 138.615C507.288 137.909 507.128 137.098 507.219 136.297C507.239 136.142 507.269 135.988 507.308 135.837C507.569 134.934 507.608 133.981 507.422 133.059C507.236 132.137 506.83 131.274 506.239 130.542C504.258 128.163 503.302 124.562 502.888 121.352C502.435 117.839 502.166 114.248 500.885 110.946C499.037 106.182 494.623 101.936 488.597 103.968C486.048 104.872 483.888 106.627 482.481 108.938C479.477 113.729 479.444 119.523 479.466 125.066L478.385 122.876C478.515 128.929 477.42 134.947 475.168 140.567C476.511 140.306 477.461 142.111 477.027 143.408C476.592 144.706 475.393 145.559 474.364 146.461C473.068 147.599 471.845 149.288 473.061 151.027C473.363 151.434 473.747 151.775 474.187 152.027C474.628 152.28 475.116 152.438 475.621 152.493C485.135 153.73 494.803 152.986 504.016 150.307C506.062 149.711 508.255 148.884 509.32 147.038C510.384 145.192 509.353 142.176 507.223 142.205Z"
      fill="#3E7EE7" />
    <path
      d="M456.725 79C469.427 79 479.725 68.7025 479.725 56C479.725 43.2975 469.427 33 456.725 33C444.022 33 433.725 43.2975 433.725 56C433.725 68.7025 444.022 79 456.725 79Z"
      fill="#FFB6B6" />
    <path
      d="M218.315 53.6378C233.127 53.6378 245.134 41.6306 245.134 26.8189C245.134 12.0072 233.127 0 218.315 0C203.503 0 191.496 12.0072 191.496 26.8189C191.496 41.6306 203.503 53.6378 218.315 53.6378Z"
      fill="#448BFF" />
    <path
      d="M217.373 37.5771C217.013 37.5771 216.658 37.4932 216.336 37.3322C216.014 37.1712 215.734 36.9375 215.518 36.6495L209.831 29.0675C209.648 28.8239 209.515 28.5466 209.439 28.2514C209.362 27.9562 209.345 27.649 209.388 27.3472C209.431 27.0453 209.533 26.755 209.688 26.4926C209.843 26.2302 210.049 26.001 210.293 25.8181C210.537 25.6353 210.814 25.5022 211.109 25.4267C211.405 25.3512 211.712 25.3347 212.014 25.3781C212.316 25.4215 212.606 25.524 212.868 25.6797C213.13 25.8354 213.359 26.0412 213.541 26.2854L217.261 31.2453L226.816 16.9131C227.158 16.4027 227.688 16.0488 228.291 15.9289C228.893 15.809 229.518 15.933 230.029 16.2737C230.54 16.6144 230.895 17.1439 231.016 17.746C231.137 18.3481 231.014 18.9737 230.675 19.4853L219.302 36.5445C219.096 36.8531 218.82 37.1078 218.495 37.2873C218.171 37.4668 217.808 37.5659 217.437 37.5763L217.373 37.5771Z"
      fill="white" />
    <path
      d="M269.671 103.424H154.778C151.979 103.424 149.295 102.313 147.316 100.333C145.336 98.3544 144.225 95.6701 144.225 92.8712C144.225 90.0723 145.336 87.3881 147.316 85.409C149.295 83.4299 151.979 82.318 154.778 82.318H269.671C271.058 82.3166 272.432 82.5886 273.713 83.1184C274.995 83.6481 276.159 84.4252 277.14 85.4053C278.121 86.3854 278.9 87.5493 279.431 88.8303C279.962 90.1113 280.235 91.4845 280.235 92.8712C280.235 94.258 279.962 95.6311 279.431 96.9121C278.9 98.1932 278.121 99.357 277.14 100.337C276.159 101.317 274.995 102.094 273.713 102.624C272.432 103.154 271.058 103.426 269.671 103.424Z"
      fill="#448BFF" />
    <path
      d="M617.34 508.371L361.983 508.679C361.668 508.677 361.367 508.551 361.145 508.328C360.923 508.104 360.799 507.803 360.799 507.488C360.799 507.173 360.923 506.872 361.145 506.649C361.367 506.425 361.668 506.299 361.983 506.297L617.34 505.99C617.655 505.992 617.956 506.118 618.178 506.341C618.4 506.564 618.525 506.866 618.525 507.181C618.525 507.495 618.4 507.797 618.178 508.021C617.956 508.244 617.655 508.37 617.34 508.371Z"
      fill="#CACACA" />
    <path
      d="M485.725 50V55H465.825C466.027 54.0348 466.027 53.0382 465.826 52.0728C465.624 51.1074 465.226 50.194 464.655 49.39C464.638 51.3469 464.151 53.2711 463.235 55C451.728 58.4026 442.07 58.3374 434.155 55C432.98 55 431.853 54.5332 431.022 53.7022C430.191 52.8713 429.725 51.7443 429.725 50.5692C429.725 35.2393 441.808 22.322 457.135 22.0061C460.861 21.9272 464.565 22.593 468.03 23.9644C471.496 25.3358 474.652 27.3853 477.315 29.9926C479.978 32.6 482.093 35.7127 483.537 39.1483C484.981 42.5839 485.725 46.2732 485.725 50Z"
      fill="#2F2E41" />
    <path
      d="M221.725 136H181.725C180.664 136 179.646 135.579 178.896 134.828C178.146 134.078 177.725 133.061 177.725 132C177.725 130.939 178.146 129.922 178.896 129.172C179.646 128.421 180.664 128 181.725 128H221.725C222.785 128 223.803 128.421 224.553 129.172C225.303 129.922 225.725 130.939 225.725 132C225.725 133.061 225.303 134.078 224.553 134.828C223.803 135.579 222.785 136 221.725 136Z"
      fill="#CCCCCC" />
    <path
      d="M231.725 221.3H191.725C190.664 221.3 189.646 220.879 188.896 220.128C188.146 219.378 187.725 218.361 187.725 217.3C187.725 216.239 188.146 215.222 188.896 214.472C189.646 213.721 190.664 213.3 191.725 213.3H231.725C232.785 213.3 233.803 213.721 234.553 214.472C235.303 215.222 235.725 216.239 235.725 217.3C235.725 218.361 235.303 219.378 234.553 220.128C233.803 220.879 232.785 221.3 231.725 221.3Z"
      fill="#CCCCCC" />
    <path
      d="M307.725 158H180.725C179.664 158 178.646 157.579 177.896 156.828C177.146 156.078 176.725 155.061 176.725 154C176.725 152.939 177.146 151.922 177.896 151.172C178.646 150.421 179.664 150 180.725 150H307.725C308.785 150 309.803 150.421 310.553 151.172C311.303 151.922 311.725 152.939 311.725 154C311.725 155.061 311.303 156.078 310.553 156.828C309.803 157.579 308.785 158 307.725 158Z"
      fill="#CCCCCC" />
    <path
      d="M134.221 169.819C149.033 169.819 161.04 157.812 161.04 143C161.04 128.188 149.033 116.181 134.221 116.181C119.41 116.181 107.402 128.188 107.402 143C107.402 157.812 119.41 169.819 134.221 169.819Z"
      fill="#E6E6E6" />
  </g>
  <defs>
    <clipPath id="clip0_458_23608">
      <rect width="618.524" height="508.679" fill="white" />
    </clipPath>
  </defs>
</svg>