<svg width="20" height="20" viewBox="0 0 20 20" fill="none" xmlns="http://www.w3.org/2000/svg">
<path d="M17.0703 10.4747H15.1126C14.8461 10.4747 14.5882 10.5111 14.3427 10.5781C13.8584 9.62606 12.8696 8.97192 11.7303 8.97192H8.26973C7.13039 8.97192 6.14164 9.62606 5.65734 10.5781C5.41184 10.5111 5.15387 10.4747 4.88742 10.4747H2.92969C1.31426 10.4747 0 11.789 0 13.4044V16.534C0 17.5033 0.788555 18.2918 1.75781 18.2918H18.2422C19.2114 18.2918 20 17.5033 20 16.534V13.4044C20 11.789 18.6857 10.4747 17.0703 10.4747ZM5.34004 11.9017V17.12H1.75781C1.43473 17.12 1.17188 16.8572 1.17188 16.5341V13.4045C1.17188 12.4352 1.96043 11.6467 2.92969 11.6467H4.88742C5.04648 11.6467 5.20051 11.6683 5.34715 11.7081C5.34293 11.7722 5.34004 11.8366 5.34004 11.9017ZM13.4881 17.12H6.51191V11.9017C6.51191 10.9324 7.30047 10.1438 8.26973 10.1438H11.7303C12.6995 10.1438 13.4881 10.9324 13.4881 11.9017V17.12ZM18.8281 16.5341C18.8281 16.8572 18.5653 17.12 18.2422 17.12H14.66V11.9017C14.66 11.8365 14.6571 11.7721 14.6529 11.708C14.7995 11.6683 14.9535 11.6466 15.1126 11.6466H17.0703C18.0396 11.6466 18.8281 12.4352 18.8281 13.4044V16.5341Z" fill="#202224"/>
<path d="M3.90854 4.94165C2.47303 4.94165 1.30518 6.1095 1.30518 7.54501C1.30514 8.98052 2.47303 10.1484 3.90854 10.1484C5.344 10.1484 6.51189 8.98052 6.51189 7.54501C6.51189 6.1095 5.34404 4.94165 3.90854 4.94165ZM3.9085 8.97649C3.11916 8.97649 2.47701 8.33435 2.47701 7.54501C2.47701 6.75567 3.11916 6.11353 3.9085 6.11353C4.69783 6.11353 5.33998 6.75567 5.33998 7.54501C5.33998 8.33435 4.69783 8.97649 3.9085 8.97649Z" fill="#202224"/>
<path d="M10 1.70825C8.08221 1.70825 6.52197 3.26849 6.52197 5.1863C6.52197 7.10411 8.08221 8.66435 10 8.66435C11.9178 8.66435 13.4781 7.10411 13.4781 5.1863C13.4781 3.26853 11.9178 1.70825 10 1.70825ZM10 7.49247C8.72838 7.49247 7.69385 6.45794 7.69385 5.1863C7.69385 3.9147 8.72838 2.88013 10 2.88013C11.2717 2.88013 12.3062 3.91466 12.3062 5.1863C12.3062 6.45794 11.2717 7.49247 10 7.49247Z" fill="#202224"/>
<path d="M16.0914 4.94165C14.6559 4.94165 13.488 6.1095 13.488 7.54501C13.4881 8.98052 14.6559 10.1484 16.0914 10.1484C17.5269 10.1484 18.6948 8.98052 18.6948 7.54501C18.6948 6.1095 17.5269 4.94165 16.0914 4.94165ZM16.0914 8.97649C15.3021 8.97649 14.6599 8.33435 14.6599 7.54501C14.66 6.75567 15.3021 6.11353 16.0914 6.11353C16.8807 6.11353 17.5229 6.75567 17.5229 7.54501C17.5229 8.33435 16.8807 8.97649 16.0914 8.97649Z" fill="#202224"/>
</svg>
