<svg width="36" height="36" viewBox="0 0 36 36" fill="none" xmlns="http://www.w3.org/2000/svg">
<circle cx="18.0003" cy="18" r="17.2884" fill="#5B93FF"/>
<g clip-path="url(#clip0_2070_6326)">
<rect width="34.5767" height="34.5767" rx="17.2884" transform="matrix(-1 0 0 1 35.2881 0.71167)" fill="#448BFF"/>
<g clip-path="url(#clip1_2070_6326)">
<path d="M18.4993 22.9192C20.5057 22.9024 22.2492 21.9071 23.1554 20.4439L22.8498 20.3231C22.6784 20.1391 22.5206 19.9428 22.3776 19.736C21.9192 19.0525 21.8917 18.2422 21.8917 17.9165C21.8917 17.5908 21.9069 16.6505 21.9879 16.4885C22.0689 16.3264 22.3287 15.091 22.3287 15.091C22.3287 15.091 22.425 15.0788 22.5487 15.0497C22.7367 15.0054 22.9934 14.9213 23.1004 14.7745C23.2792 14.5314 23.3281 14.3693 23.2792 13.9795C23.2303 13.5896 23.4732 13.3449 23.5221 12.9887C23.571 12.6325 23.6031 12.1447 23.3434 12.0469C23.2753 12.0172 23.2047 11.9936 23.1325 11.9765C23.1218 11.8405 22.8971 9.09294 22.5808 8.49053C22.2645 7.88812 21.2499 6.86679 20.1802 6.38364C19.6509 6.14883 19.0783 6.02753 18.4993 6.02753C17.9203 6.02753 17.3477 6.14883 16.8184 6.38364C15.7487 6.87137 14.7417 7.87895 14.4162 8.49512C14.0907 9.11128 13.8768 11.845 13.8645 11.9811C13.7924 11.9985 13.7218 12.022 13.6536 12.0515C13.3939 12.1493 13.426 12.6355 13.4749 12.9933C13.5238 13.3511 13.7667 13.5942 13.7194 13.984C13.672 14.3739 13.7194 14.536 13.8966 14.7791C14.0051 14.932 14.2603 15.01 14.4483 15.0543C14.5736 15.0834 14.6683 15.0956 14.6683 15.0956C14.6683 15.0956 14.9281 16.3295 15.0091 16.4931C15.0901 16.6566 15.1069 17.597 15.1069 17.9211C15.1069 18.2452 15.0733 19.0571 14.6194 19.7405C14.4769 19.9478 14.3191 20.144 14.1472 20.3277L13.8416 20.4484C14.7493 21.9071 16.4929 22.8963 18.4993 22.9192Z" fill="#F5C48F"/>
<path d="M8.22443 53.8146C8.13428 53.6036 8.04564 53.4231 7.98757 53.2825C7.95243 53.3757 7.93867 53.3864 7.96771 53.2336L7.30757 53.3085L7.18074 53.0944C7.02028 52.8223 6.21498 51.4294 6.19053 50.7352V50.5976C6.03772 46.2401 5.7596 44.3289 5.54872 43.4972L4.84427 40.7191L5.35007 39.6274C5.57012 39.3308 7.85769 36.2408 8.28097 33.1217C8.29473 33.0789 8.31306 33.0224 8.3314 32.9566C8.3314 32.9383 8.31917 32.9184 8.31306 32.9016C8.48425 32.3912 8.61305 31.8675 8.69814 31.3359C8.78743 30.792 8.84306 30.2431 8.86471 29.6923C8.92125 27.8377 8.54228 25.4694 6.80941 23.4037C5.45551 24.2202 3.90601 25.5794 3.56371 27.6175V27.6435C3.56371 27.7307 3.20308 29.8666 2.41458 31.4414L2.36262 31.5209C2.3504 31.5347 1.05151 33.1737 0.0078125 41.1411C0.0322622 41.4056 0.646561 47.6697 2.52002 50.6374L3.77459 53.1066L4.87788 55.4704L5.98117 56.8465L6.7544 57.458C8.56673 56.0636 8.46893 54.5989 8.22443 53.8146Z" fill="#F5C48F"/>
<path d="M8.86122 29.6923C8.84405 30.2434 8.78839 30.7926 8.69465 31.3359C8.60956 31.8675 8.48076 32.3912 8.30957 32.9015C8.30957 32.9184 8.3218 32.9382 8.32791 32.9566C8.50059 33.4489 8.76036 34.4855 8.76342 34.5207C8.79551 34.9427 8.86122 35.1048 9.00792 35.3005C9.15462 35.4962 9.18518 35.5267 9.38078 36.1766C9.57637 36.8264 9.81934 37.9471 9.80253 38.1244C9.78572 38.3018 9.85143 38.6779 9.98132 39.3109C10.1112 39.9439 9.98132 39.8629 9.93242 40.2359C9.88352 40.609 9.93242 40.9025 9.98132 41.5523C10.0059 42.1506 9.96228 42.7497 9.85143 43.3382C9.78572 43.6944 9.72154 43.7112 9.78572 44.0201C9.8499 44.3289 9.75363 45.286 9.80253 45.7248C9.85143 46.1637 9.64972 47.6574 9.49691 48.2094C9.3441 48.7613 8.6534 50.8086 8.7512 50.9707C8.7635 50.994 8.77093 51.0196 8.77304 51.0459C8.77514 51.0721 8.77187 51.0986 8.76342 51.1236C11.9702 51.7678 15.2299 52.1122 18.5005 52.1525C21.7714 52.1143 25.0316 51.7719 28.2391 51.1297C28.2307 51.1047 28.2274 51.0783 28.2295 51.052C28.2316 51.0257 28.239 51.0001 28.2513 50.9768C28.3491 50.8132 27.6676 48.7675 27.5056 48.2155C27.3436 47.6636 27.148 46.1698 27.2 45.731C27.252 45.2922 27.1511 44.335 27.2168 44.0262C27.2825 43.7173 27.2168 43.7005 27.1511 43.3443C27.0409 42.7558 26.9978 42.1567 27.0227 41.5585C27.0701 40.9087 27.119 40.6166 27.0701 40.242C27.0212 39.8674 26.8929 39.95 27.0227 39.317C27.1526 38.684 27.2168 38.311 27.2 38.1306C27.1832 37.9501 27.4277 36.8325 27.6233 36.1827C27.8189 35.5329 27.8495 35.5008 27.9961 35.3066C28.1428 35.1124 28.207 34.9488 28.2391 34.5268C28.2391 34.4871 28.5019 33.4566 28.6746 32.9627L28.6945 32.9077C28.5223 32.3975 28.393 31.8738 28.3079 31.342C28.2147 30.7986 28.1596 30.2494 28.1428 29.6984C28.0848 27.8438 28.4637 25.4754 30.1966 23.4098L30.2043 23.3991C29.4496 22.9734 28.6508 22.6314 27.8219 22.3793C27.2458 22.0643 24.4464 20.9513 23.1582 20.4437C22.252 21.9069 20.5084 22.9022 18.502 22.919C16.4956 22.9022 14.7521 21.9069 13.8459 20.4437C12.5577 20.9513 9.75821 22.0643 9.18212 22.3793C8.35351 22.6295 7.55467 22.9694 6.7998 23.393L6.80745 23.4037C8.53879 25.4693 8.91776 27.8377 8.86122 29.6923Z" fill="#D05837"/>
<path d="M28.1393 29.6923C28.1598 30.2431 28.2149 30.7921 28.3044 31.3359C28.3895 31.8677 28.5188 32.3914 28.691 32.9016L28.6711 32.9566C28.691 33.0224 28.7078 33.0789 28.7215 33.1217C29.1448 36.2408 31.4324 39.3308 31.654 39.6274L32.1582 40.7191L31.4538 43.4972C31.2429 44.3305 30.9602 46.2401 30.8135 50.5976V50.7352C30.7891 51.4294 29.9838 52.8223 29.8233 53.0944L29.6965 53.3085L29.0379 53.2336C29.0669 53.3864 29.0531 53.3757 29.018 53.2825C28.9584 53.4231 28.8652 53.6036 28.7811 53.8146C28.5351 54.5989 28.4343 56.0636 30.2588 57.458L31.0305 56.8465L32.1338 55.4704L33.2371 53.1066L34.4917 50.6374C36.3651 47.6697 36.9794 41.4056 37.0039 41.1411C35.9602 33.1737 34.6613 31.5347 34.6506 31.5209L34.5971 31.4414C33.8101 29.8666 33.4495 27.7307 33.448 27.6435V27.6175C33.1087 25.5794 31.5546 24.2202 30.2007 23.4037C28.4602 25.4694 28.0813 27.8377 28.1393 29.6923Z" fill="#F5C48F"/>
<path d="M14.3198 13.5894C14.3198 13.5894 14.1808 12.3021 14.245 11.5819C14.3091 10.8618 14.7569 9.50256 14.7569 9.50256C14.8647 8.9334 15.0493 8.38151 15.3055 7.862C17.2492 9.72579 21.1245 8.47358 21.1245 8.47358C23.0988 8.87416 22.8528 13.1705 22.8528 13.1705C22.8528 13.1705 23.0224 12.3525 23.4243 9.76248C23.8262 7.17244 22.0306 5.70924 19.3595 5.12671C16.6884 4.54418 15.1221 6.26119 15.1221 6.26119C13.1844 6.29788 13.3678 9.25181 13.5512 10.0545C13.7346 10.8572 14.3198 13.5894 14.3198 13.5894Z" fill="#3F2727"/>
<path d="M22.7612 13.9963C22.5747 15.0115 21.664 16.3157 20.712 16.357C19.76 16.3983 19.2924 15.7913 18.5574 15.7454C17.8239 15.7974 17.3471 16.4044 16.4043 16.357C15.4614 16.3096 14.5415 15.0115 14.3551 13.9963C14.3046 13.7211 13.8676 19.4302 18.5574 19.5219C23.2471 19.4302 22.8116 13.7226 22.7612 13.9963ZM18.5574 17.415C17.3165 17.415 17.2737 17.1092 17.2737 17.1092C17.661 16.8743 18.1052 16.75 18.5581 16.75C19.011 16.75 19.4552 16.8743 19.8425 17.1092C19.8425 17.1092 19.7982 17.4135 18.5574 17.415Z" fill="#3F2727"/>
</g>
</g>
<defs>
<clipPath id="clip0_2070_6326">
<rect width="34.5767" height="34.5767" rx="17.2884" transform="matrix(-1 0 0 1 35.2881 0.71167)" fill="white"/>
</clipPath>
<clipPath id="clip1_2070_6326">
<rect width="37" height="98.3864" fill="white" transform="translate(0 5)"/>
</clipPath>
</defs>
</svg>
