<svg width="90" height="98" viewBox="0 0 90 98" fill="none" xmlns="http://www.w3.org/2000/svg">
  <g clip-path="url(#clip0_2070_6252)">
    <mask id="mask0_2070_6252" style="mask-type:luminance" maskUnits="userSpaceOnUse" x="-8" y="0"
      width="98" height="98">
      <path
        d="M86.245 48.9982C86.2299 60.122 82.0837 70.8437 74.6109 79.0835C67.138 87.3233 56.871 92.4938 45.8016 93.5922C34.7322 94.6905 23.6494 91.6383 14.703 85.0276C5.7566 78.417 -0.415601 68.7191 -2.61633 57.8152C-4.81707 46.9113 -2.88947 35.5787 2.79257 26.0156C8.4746 16.4525 17.506 9.34059 28.1349 6.05956C38.7638 2.77852 50.2325 3.56219 60.3163 8.25854C70.4 12.9549 78.3801 21.2292 82.7085 31.4763C85.0542 37.0195 86.257 42.9791 86.245 48.9982ZM89.7603 48.9982C89.7603 22.1929 68.0312 0.463867 41.226 0.463867C14.4207 0.463867 -7.30273 22.1929 -7.30273 48.9982C-7.30273 75.8034 14.4263 97.5311 41.2302 97.5311C68.034 97.5311 89.7645 75.802 89.7645 48.9982H89.7603Z"
        fill="white" />
    </mask>
    <g mask="url(#mask0_2070_6252)">
      <path d="M41.2274 49.0004L-16.4609 108.999H101.226V-2.07202H49.5855L41.2274 49.0004Z"
        fill="url(#paint0_linear_2070_6252)" />
    </g>
    <mask id="mask1_2070_6252" style="mask-type:luminance" maskUnits="userSpaceOnUse" x="-1" y="7"
      width="84" height="84">
      <path
        d="M41.2249 10.8147C50.6599 10.8276 59.7538 14.3443 66.7426 20.6827C73.7314 27.0211 78.1169 35.7294 79.0484 45.1183C79.9799 54.5072 77.3909 63.9074 71.7838 71.4955C66.1767 79.0836 57.951 84.3187 48.7025 86.1852C39.454 88.0517 29.8419 86.4166 21.7307 81.5971C13.6195 76.7776 7.58746 69.1172 4.80468 60.1019C2.0219 51.0867 2.68673 41.3592 6.67022 32.8063C10.6537 24.2535 17.6719 17.485 26.3634 13.8139C31.0648 11.824 36.1197 10.8039 41.2249 10.8147ZM41.2249 7.29932C18.1952 7.29932 -0.475586 25.9686 -0.475586 48.9998C-0.475586 72.0309 18.1952 90.7003 41.2249 90.7003C64.2547 90.7003 82.9268 72.0295 82.9268 48.9998C82.9268 25.97 64.2561 7.29932 41.2249 7.29932Z"
        fill="white" />
    </mask>
    <g mask="url(#mask1_2070_6252)">
      <path d="M-13.3782 108.998H101.224V105.654L41.225 48.9995L-13.3965 51.4701L-13.3782 108.998Z"
        fill="url(#paint1_linear_2070_6252)" />
    </g>
    <mask id="mask2_2070_6252" style="mask-type:luminance" maskUnits="userSpaceOnUse" x="6" y="14"
      width="71" height="70">
      <path
        d="M41.2248 17.645C48.9698 17.6562 56.4346 20.5437 62.1712 25.7472C67.9078 30.9507 71.5073 38.0995 72.2715 45.8067C73.0356 53.5139 70.91 61.2303 66.3069 67.459C61.7038 73.6877 54.9513 77.9847 47.3593 79.5166C39.7673 81.0485 31.8769 79.706 25.2186 75.7495C18.5604 71.7931 13.609 65.5047 11.3248 58.1042C9.0406 50.7036 9.58645 42.7185 12.8565 35.6977C16.1265 28.6768 21.8876 23.1207 29.0223 20.1071C32.8828 18.474 37.0331 17.6365 41.2248 17.645ZM41.2248 14.1296C21.9677 14.1296 6.35254 29.7378 6.35254 49.0019C6.35254 68.266 21.9607 83.8742 41.2248 83.8742C60.4889 83.8742 76.0971 68.266 76.0971 49.0019C76.0971 29.7378 60.4889 14.1296 41.2248 14.1296Z"
        fill="white" />
    </mask>
    <g mask="url(#mask2_2070_6252)">
      <path d="M-18.7744 108.997H-13.5942L41.2256 48.9971L-18.7744 7.54126V108.997Z"
        fill="url(#paint2_linear_2070_6252)" />
    </g>
    <circle cx="44.0003" cy="53" r="17.2884" fill="#5B93FF" />
    <g clip-path="url(#clip1_2070_6252)">
      <rect width="34.5767" height="34.5767" rx="17.2884"
        transform="matrix(-1 0 0 1 61.2881 35.7117)" fill="#448BFF" />
      <g clip-path="url(#clip2_2070_6252)">
        <path
          d="M44.4993 57.9193C46.5057 57.9025 48.2492 56.9071 49.1554 55.4439L48.8498 55.3231C48.6784 55.1391 48.5206 54.9429 48.3776 54.736C47.9192 54.0526 47.8917 53.2422 47.8917 52.9166C47.8917 52.5909 47.9069 51.6506 47.9879 51.4885C48.0689 51.3265 48.3287 50.0911 48.3287 50.0911C48.3287 50.0911 48.425 50.0788 48.5487 50.0498C48.7367 50.0054 48.9934 49.9214 49.1004 49.7746C49.2792 49.5315 49.3281 49.3694 49.2792 48.9795C49.2303 48.5896 49.4732 48.345 49.5221 47.9888C49.571 47.6325 49.6031 47.1448 49.3434 47.0469C49.2753 47.0172 49.2047 46.9937 49.1325 46.9766C49.1218 46.8405 48.8971 44.093 48.5808 43.4906C48.2645 42.8882 47.2499 41.8668 46.1802 41.3837C45.6509 41.1489 45.0783 41.0276 44.4993 41.0276C43.9203 41.0276 43.3477 41.1489 42.8184 41.3837C41.7487 41.8714 40.7417 42.879 40.4162 43.4952C40.0907 44.1113 39.8768 46.8451 39.8645 46.9812C39.7924 46.9986 39.7218 47.0221 39.6536 47.0515C39.3939 47.1494 39.426 47.6356 39.4749 47.9933C39.5238 48.3511 39.7667 48.5942 39.7194 48.9841C39.672 49.374 39.7194 49.5361 39.8966 49.7792C40.0051 49.9321 40.2603 50.01 40.4483 50.0544C40.5736 50.0834 40.6683 50.0957 40.6683 50.0957C40.6683 50.0957 40.9281 51.3295 41.0091 51.4931C41.0901 51.6567 41.1069 52.597 41.1069 52.9212C41.1069 53.2453 41.0733 54.0572 40.6194 54.7406C40.4769 54.9478 40.3191 55.1441 40.1472 55.3277L39.8416 55.4485C40.7493 56.9071 42.4929 57.8964 44.4993 57.9193Z"
          fill="#F5C48F" />
        <path
          d="M34.2244 88.8146C34.1343 88.6036 34.0456 88.4232 33.9876 88.2825C33.9524 88.3758 33.9387 88.3865 33.9677 88.2336L33.3076 88.3085L33.1807 88.0945C33.0203 87.8223 32.215 86.4294 32.1905 85.7353V85.5977C32.0377 81.2402 31.7596 79.329 31.5487 78.4973L30.8443 75.7192L31.3501 74.6275C31.5701 74.3309 33.8577 71.2409 34.281 68.1218C34.2947 68.079 34.3131 68.0224 34.3314 67.9567C34.3314 67.9383 34.3192 67.9185 34.3131 67.9016C34.4842 67.3912 34.613 66.8676 34.6981 66.336C34.7874 65.7921 34.8431 65.2432 34.8647 64.6924C34.9212 62.8378 34.5423 60.4694 32.8094 58.4038C31.4555 59.2203 29.906 60.5795 29.5637 62.6176V62.6436C29.5637 62.7307 29.2031 64.8667 28.4146 66.4415L28.3626 66.521C28.3504 66.5348 27.0515 68.1738 26.0078 76.1411C26.0323 76.4057 26.6466 82.6698 28.52 85.6375L29.7746 88.1067L30.8779 90.4705L31.9812 91.8465L32.7544 92.4581C34.5667 91.0637 34.4689 89.599 34.2244 88.8146Z"
          fill="#F5C48F" />
        <path
          d="M34.8612 64.6922C34.8441 65.2433 34.7884 65.7925 34.6947 66.3358C34.6096 66.8674 34.4808 67.3911 34.3096 67.9015C34.3096 67.9183 34.3218 67.9382 34.3279 67.9565C34.5006 68.4488 34.7604 69.4855 34.7634 69.5206C34.7955 69.9426 34.8612 70.1047 35.0079 70.3004C35.1546 70.4961 35.1852 70.5267 35.3808 71.1765C35.5764 71.8263 35.8193 72.947 35.8025 73.1244C35.7857 73.3017 35.8514 73.6779 35.9813 74.3108C36.1112 74.9438 35.9813 74.8628 35.9324 75.2359C35.8835 75.6089 35.9324 75.9025 35.9813 76.5523C36.0059 77.1506 35.9623 77.7497 35.8514 78.3381C35.7857 78.6943 35.7215 78.7112 35.7857 79.02C35.8499 79.3289 35.7536 80.286 35.8025 80.7248C35.8514 81.1636 35.6497 82.6574 35.4969 83.2093C35.3441 83.7613 34.6534 85.8085 34.7512 85.9706C34.7635 85.9939 34.7709 86.0195 34.773 86.0458C34.7751 86.0721 34.7719 86.0985 34.7634 86.1235C37.9702 86.7677 41.23 87.1122 44.5005 87.1525C47.7714 87.1143 51.0316 86.7719 54.2391 86.1296C54.2307 86.1046 54.2274 86.0782 54.2295 86.0519C54.2316 86.0256 54.239 86 54.2513 85.9767C54.3491 85.8131 53.6676 83.7674 53.5056 83.2154C53.3436 82.6635 53.148 81.1697 53.2 80.7309C53.252 80.2921 53.1511 79.335 53.2168 79.0261C53.2825 78.7173 53.2168 78.7005 53.1511 78.3442C53.0409 77.7557 52.9978 77.1566 53.0227 76.5584C53.0701 75.9086 53.119 75.6166 53.0701 75.242C53.0212 74.8674 52.8929 74.9499 53.0227 74.317C53.1526 73.684 53.2168 73.3109 53.2 73.1305C53.1832 72.9501 53.4277 71.8324 53.6233 71.1826C53.8189 70.5328 53.8495 70.5007 53.9961 70.3065C54.1428 70.1123 54.207 69.9487 54.2391 69.5268C54.2391 69.487 54.5019 68.4565 54.6746 67.9626L54.6945 67.9076C54.5223 67.3974 54.393 66.8737 54.3079 66.342C54.2147 65.7986 54.1596 65.2494 54.1428 64.6983C54.0848 62.8437 54.4637 60.4754 56.1966 58.4098L56.2043 58.3991C55.4496 57.9733 54.6508 57.6313 53.8219 57.3793C53.2458 57.0643 50.4464 55.9512 49.1582 55.4436C48.252 56.9068 46.5084 57.9022 44.502 57.919C42.4956 57.9022 40.7521 56.9068 39.8459 55.4436C38.5577 55.9512 35.7582 57.0643 35.1821 57.3793C34.3535 57.6294 33.5547 57.9693 32.7998 58.3929L32.8074 58.4036C34.5388 60.4693 34.9178 62.8376 34.8612 64.6922Z"
          fill="#D05837" />
        <path
          d="M54.1393 64.6924C54.1598 65.2432 54.2149 65.7921 54.3044 66.336C54.3895 66.8677 54.5188 67.3914 54.691 67.9016L54.6711 67.9567C54.691 68.0224 54.7078 68.079 54.7215 68.1218C55.1448 71.2409 57.4324 74.3309 57.654 74.6275L58.1582 75.7192L57.4538 78.4973C57.2429 79.3305 56.9602 81.2402 56.8135 85.5977V85.7353C56.7891 86.4294 55.9838 87.8223 55.8233 88.0945L55.6965 88.3085L55.0379 88.2336C55.0669 88.3865 55.0531 88.3758 55.018 88.2825C54.9584 88.4232 54.8652 88.6036 54.7811 88.8146C54.5351 89.599 54.4343 91.0637 56.2588 92.4581L57.0305 91.8465L58.1338 90.4705L59.2371 88.1067L60.4917 85.6375C62.3651 82.6698 62.9794 76.4057 63.0039 76.1411C61.9602 68.1738 60.6613 66.5348 60.6506 66.521L60.5971 66.4415C59.8101 64.8667 59.4495 62.7307 59.448 62.6436V62.6176C59.1087 60.5795 57.5546 59.2203 56.2007 58.4038C54.4602 60.4694 54.0813 62.8378 54.1393 64.6924Z"
          fill="#F5C48F" />
        <path
          d="M40.3198 48.5894C40.3198 48.5894 40.1808 47.3021 40.245 46.5819C40.3091 45.8618 40.7569 44.5026 40.7569 44.5026C40.8647 43.9334 41.0493 43.3815 41.3055 42.862C43.2492 44.7258 47.1245 43.4736 47.1245 43.4736C49.0988 43.8742 48.8528 48.1705 48.8528 48.1705C48.8528 48.1705 49.0224 47.3525 49.4243 44.7625C49.8262 42.1724 48.0306 40.7092 45.3595 40.1267C42.6884 39.5442 41.1221 41.2612 41.1221 41.2612C39.1844 41.2979 39.3678 44.2518 39.5512 45.0545C39.7346 45.8572 40.3198 48.5894 40.3198 48.5894Z"
          fill="#3F2727" />
        <path
          d="M48.7612 48.9962C48.5747 50.0114 47.664 51.3156 46.712 51.3569C45.76 51.3982 45.2924 50.7912 44.5574 50.7453C43.8239 50.7973 43.3471 51.4043 42.4043 51.3569C41.4614 51.3095 40.5415 50.0114 40.3551 48.9962C40.3046 48.721 39.8676 54.4301 44.5574 54.5218C49.2471 54.4301 48.8116 48.7225 48.7612 48.9962ZM44.5574 52.4149C43.3165 52.4149 43.2737 52.1092 43.2737 52.1092C43.661 51.8742 44.1052 51.75 44.5581 51.75C45.011 51.75 45.4552 51.8742 45.8425 52.1092C45.8425 52.1092 45.7982 52.4134 44.5574 52.4149Z"
          fill="#3F2727" />
      </g>
    </g>
  </g>
  <defs>
    <linearGradient id="paint0_linear_2070_6252" x1="42.3825" y1="-2.07202" x2="42.3825"
      y2="108.999" gradientUnits="userSpaceOnUse">
      <stop offset="0.630208" stop-color="#5B93FF" />
      <stop offset="1" stop-color="#5B93FF" stop-opacity="0" />
    </linearGradient>
    <linearGradient id="paint1_linear_2070_6252" x1="48.5" y1="63.5005" x2="7.5" y2="48.5005"
      gradientUnits="userSpaceOnUse">
      <stop offset="0.453125" stop-color="#00972A" />
      <stop offset="1" stop-color="#00972A" stop-opacity="0.2" />
    </linearGradient>
    <linearGradient id="paint2_linear_2070_6252" x1="24" y1="75.9993" x2="5.5" y2="40.4993"
      gradientUnits="userSpaceOnUse">
      <stop stop-color="#D32F2F" />
      <stop offset="1" stop-color="#D32F2F" stop-opacity="0.2" />
    </linearGradient>
    <clipPath id="clip0_2070_6252">
      <rect width="90" height="98" fill="white" />
    </clipPath>
    <clipPath id="clip1_2070_6252">
      <rect width="34.5767" height="34.5767" rx="17.2884"
        transform="matrix(-1 0 0 1 61.2881 35.7117)" fill="white" />
    </clipPath>
    <clipPath id="clip2_2070_6252">
      <rect width="37" height="98.3864" fill="white" transform="translate(26 40)" />
    </clipPath>
  </defs>
</svg>