<svg width="39" height="42" viewBox="0 0 39 42" fill="none" xmlns="http://www.w3.org/2000/svg">
  <path d="M16.5 6H22.5C22.5 5.20435 22.1839 4.44129 21.6213 3.87868C21.0587 3.31607 20.2956 3 19.5 3C18.7044 3 17.9413 3.31607 17.3787 3.87868C16.8161 4.44129 16.5 5.20435 16.5 6ZM13.5 6C13.5 4.4087 14.1321 2.88258 15.2574 1.75736C16.3826 0.632141 17.9087 0 19.5 0C21.0913 0 22.6174 0.632141 23.7426 1.75736C24.8679 2.88258 25.5 4.4087 25.5 6H37.5C37.8978 6 38.2794 6.15804 38.5607 6.43934C38.842 6.72064 39 7.10218 39 7.5C39 7.89782 38.842 8.27936 38.5607 8.56066C38.2794 8.84196 37.8978 9 37.5 9H35.808L32.193 35.514C31.9478 37.3108 31.0599 38.9579 29.6937 40.1504C28.3275 41.3429 26.5754 42 24.762 42H14.238C12.4246 42 10.6725 41.3429 9.3063 40.1504C7.94007 38.9579 7.05218 37.3108 6.807 35.514L3.192 9H1.5C1.10218 9 0.720644 8.84196 0.43934 8.56066C0.158035 8.27936 0 7.89782 0 7.5C0 7.10218 0.158035 6.72064 0.43934 6.43934C0.720644 6.15804 1.10218 6 1.5 6H13.5ZM16.5 16.5C16.5 16.1022 16.342 15.7206 16.0607 15.4393C15.7794 15.158 15.3978 15 15 15C14.6022 15 14.2206 15.158 13.9393 15.4393C13.658 15.7206 13.5 16.1022 13.5 16.5V31.5C13.5 31.8978 13.658 32.2794 13.9393 32.5607C14.2206 32.842 14.6022 33 15 33C15.3978 33 15.7794 32.842 16.0607 32.5607C16.342 32.2794 16.5 31.8978 16.5 31.5V16.5ZM24 15C24.3978 15 24.7794 15.158 25.0607 15.4393C25.342 15.7206 25.5 16.1022 25.5 16.5V31.5C25.5 31.8978 25.342 32.2794 25.0607 32.5607C24.7794 32.842 24.3978 33 24 33C23.6022 33 23.2206 32.842 22.9393 32.5607C22.658 32.2794 22.5 31.8978 22.5 31.5V16.5C22.5 16.1022 22.658 15.7206 22.9393 15.4393C23.2206 15.158 23.6022 15 24 15ZM9.78 35.109C9.92723 36.1869 10.4599 37.1749 11.2795 37.8903C12.0991 38.6056 13.1501 38.9999 14.238 39H24.762C25.8504 39.0006 26.9021 38.6067 27.7223 37.8913C28.5426 37.1758 29.0757 36.1874 29.223 35.109L32.781 9H6.219L9.78 35.109Z" fill="#D32F2F"/>
  </svg>
  