<svg width="100" height="71" viewBox="0 0 100 71" fill="none" xmlns="http://www.w3.org/2000/svg">
<g clip-path="url(#clip0_803_15491)">
<path d="M51.0728 70.1211C54.0805 70.1211 56.5187 67.6899 56.5187 64.6908C56.5187 61.6918 54.0805 59.2606 51.0728 59.2606C48.0652 59.2606 45.627 61.6918 45.627 64.6908C45.627 67.6899 48.0652 70.1211 51.0728 70.1211Z" fill="#448BFF"/>
<path d="M83.6054 69.8161C86.6521 68.9037 89.8911 67.9524 92.3074 65.7834C94.4665 63.8453 95.9242 60.8857 95.0297 57.979C94.137 55.0783 91.4633 53.1441 88.7028 52.1821C87.1371 51.6365 85.4991 51.3338 83.8617 51.096C82.0818 50.8376 80.2939 50.6258 78.507 50.422C71.2713 49.5968 64.0084 49.0926 56.7182 48.9096C53.1211 48.8193 49.5245 48.8215 45.9268 48.8736C42.7138 48.9201 39.33 48.9189 36.3493 47.5572C34.0314 46.4984 31.9277 44.5719 31.2819 42.0404C30.5364 39.1181 31.9115 36.1422 33.8841 34.0258C34.9238 32.9102 36.139 31.9713 37.3927 31.1079C38.7526 30.1713 40.16 29.301 41.5979 28.4886C44.4299 26.8893 47.3907 25.5283 50.4494 24.4196C51.9584 23.8725 53.4897 23.4005 55.0344 22.9651C56.3386 22.5974 57.647 22.2292 58.9075 21.7282C61.3444 20.7598 63.6622 19.1193 64.2818 16.43C64.869 13.8811 63.8789 11.1141 62.1431 9.22064C60.1349 7.03 57.1069 6.06969 54.2039 5.91431C50.9449 5.73987 47.7609 6.55319 44.6977 7.5854C41.4305 8.68633 38.2338 9.9522 34.8977 10.8439C31.5894 11.7274 28.2171 12.3524 24.8115 12.7134C23.1443 12.8905 21.4267 13.0903 19.7496 12.9548C18.344 12.8412 16.9457 12.4291 15.9098 11.4344C15.0216 10.5815 14.4924 9.40937 14.6744 8.1724C14.7074 7.94773 15.0497 8.04325 15.0168 8.26655C14.7954 9.77228 15.8219 11.1598 17.0868 11.8705C18.5486 12.6919 20.3275 12.6931 21.9551 12.5991C25.4842 12.3866 28.9893 11.8813 32.4342 11.0886C35.8193 10.3177 39.0834 9.21559 42.3438 8.03831C45.4404 6.9202 48.6062 5.82892 51.9144 5.58675C54.7848 5.37661 57.8044 5.79359 60.3051 7.28939C62.5028 8.60399 64.119 10.7963 64.6339 13.312C65.1371 15.7704 64.4402 18.2447 62.5739 19.9603C60.6417 21.7365 57.9922 22.4958 55.5231 23.1952C52.3915 24.0823 49.327 25.1192 46.3607 26.4656C43.3541 27.8264 40.4705 29.4429 37.742 31.2971C35.1083 33.0917 32.5092 35.3498 31.6762 38.5514C31.2882 40.0427 31.3598 41.6245 32.0091 43.0331C32.5863 44.2856 33.537 45.3391 34.6446 46.1518C37.2871 48.0907 40.6176 48.4888 43.8096 48.5284C47.3945 48.5728 50.9796 48.4522 54.5658 48.5109C61.8742 48.6305 69.1677 49.0741 76.4462 49.8416C78.27 50.0341 80.0915 50.2469 81.9107 50.4799C83.5471 50.6896 85.1889 50.8979 86.7976 51.2702C89.6582 51.9323 92.4417 53.2053 94.2196 55.6237C95.0087 56.6719 95.4976 57.9142 95.634 59.2178C95.7585 60.5782 95.4245 61.9411 94.8077 63.1513C93.4424 65.8299 90.885 67.5336 88.1692 68.6529C86.7146 69.2525 85.2057 69.7067 83.6999 70.1576C83.4805 70.2233 83.3867 69.8816 83.6054 69.8161Z" fill="#F2F2F2"/>
<path d="M14.9038 11.0374C16.4731 11.0374 17.7452 9.76894 17.7452 8.20422C17.7452 6.63949 16.4731 5.37103 14.9038 5.37103C13.3346 5.37103 12.0625 6.63949 12.0625 8.20422C12.0625 9.76894 13.3346 11.0374 14.9038 11.0374Z" fill="#F2F2F2"/>
<path d="M34.6167 16.4086C36.1859 16.4086 37.458 15.1402 37.458 13.5754C37.458 12.0107 36.1859 10.7422 34.6167 10.7422C33.0475 10.7422 31.7754 12.0107 31.7754 13.5754C31.7754 15.1402 33.0475 16.4086 34.6167 16.4086Z" fill="#F2F2F2"/>
<path d="M51.3081 5.66613C52.8773 5.66613 54.1495 4.39767 54.1495 2.83294C54.1495 1.26822 52.8773 -0.000244141 51.3081 -0.000244141C49.7389 -0.000244141 48.4668 1.26822 48.4668 2.83294C48.4668 4.39767 49.7389 5.66613 51.3081 5.66613Z" fill="#F2F2F2"/>
<path d="M61.7261 17.7072C63.2953 17.7072 64.5674 16.4387 64.5674 14.874C64.5674 13.3093 63.2953 12.0408 61.7261 12.0408C60.1569 12.0408 58.8848 13.3093 58.8848 14.874C58.8848 16.4387 60.1569 17.7072 61.7261 17.7072Z" fill="#F2F2F2"/>
<path d="M47.6382 31.637C49.2074 31.637 50.4795 30.3686 50.4795 28.8038C50.4795 27.2391 49.2074 25.9706 47.6382 25.9706C46.069 25.9706 44.7969 27.2391 44.7969 28.8038C44.7969 30.3686 46.069 31.637 47.6382 31.637Z" fill="#F2F2F2"/>
<path d="M29.7613 38.3658C31.3305 38.3658 32.6026 37.0974 32.6026 35.5326C32.6026 33.9679 31.3305 32.6995 29.7613 32.6995C28.192 32.6995 26.9199 33.9679 26.9199 35.5326C26.9199 37.0974 28.192 38.3658 29.7613 38.3658Z" fill="#F2F2F2"/>
<path d="M48.7046 48.8722C50.2738 48.8722 51.5459 47.6038 51.5459 46.0391C51.5459 44.4743 50.2738 43.2059 48.7046 43.2059C47.1354 43.2059 45.8633 44.4743 45.8633 46.0391C45.8633 47.6038 47.1354 48.8722 48.7046 48.8722Z" fill="#F2F2F2"/>
<path d="M69.0679 54.7747C70.6371 54.7747 71.9092 53.5062 71.9092 51.9415C71.9092 50.3768 70.6371 49.1083 69.0679 49.1083C67.4987 49.1083 66.2266 50.3768 66.2266 51.9415C66.2266 53.5062 67.4987 54.7747 69.0679 54.7747Z" fill="#F2F2F2"/>
<path d="M92.8628 53.4762C94.432 53.4762 95.7041 52.2077 95.7041 50.643C95.7041 49.0783 94.432 47.8098 92.8628 47.8098C91.2936 47.8098 90.0215 49.0783 90.0215 50.643C90.0215 52.2077 91.2936 53.4762 92.8628 53.4762Z" fill="#F2F2F2"/>
<path d="M50.4892 8.02757C41.9781 8.08752 35.0092 14.9842 34.8883 23.4704C34.8872 23.5487 34.8867 24.0996 34.8867 24.8202C34.8868 25.8766 35.3077 26.8898 36.0568 27.6369C36.806 28.384 37.8221 28.8037 38.8816 28.8039C39.4068 28.8037 39.9269 28.7004 40.4121 28.4998C40.8972 28.2992 41.338 28.0053 41.7092 27.6348C42.0803 27.2642 42.3747 26.8244 42.5753 26.3404C42.776 25.8564 42.879 25.3378 42.8786 24.8141C42.8782 24.3239 42.8779 23.9847 42.8779 23.9638C42.8776 22.6523 43.2198 21.3633 43.8706 20.2236C44.5215 19.0839 45.4587 18.1328 46.59 17.4638C47.7213 16.7948 49.0078 16.431 50.3229 16.4082C51.638 16.3854 52.9364 16.7043 54.0904 17.3336C55.2444 17.9629 56.2142 18.8809 56.9045 19.9973C57.5948 21.1137 57.9817 22.39 58.0272 23.7008C58.0727 25.0115 57.7753 26.3115 57.1641 27.4728C56.553 28.6342 55.6492 29.6169 54.5416 30.3243L54.543 30.3259C54.543 30.3259 48.857 33.976 47.1235 38.9831L47.1249 38.9835C46.8201 40.0093 46.6657 41.0736 46.6663 42.1434C46.6663 42.5832 46.6923 46.4312 46.7424 49.5543C46.76 50.6319 47.2016 51.6595 47.9722 52.4153C48.7427 53.171 49.7803 53.5945 50.8612 53.5942C51.4043 53.5942 51.942 53.4871 52.4434 53.2791C52.9449 53.0711 53.4001 52.7662 53.7829 52.3821C54.1658 51.998 54.4687 51.5422 54.6742 51.0409C54.8797 50.5396 54.9837 50.0028 54.9804 49.4613C54.963 46.601 54.9536 43.2705 54.9536 43.0288C54.9536 39.9542 57.9281 36.8909 60.3715 34.8932C63.1851 32.5927 65.2098 29.4578 66.023 25.9215C66.2029 25.1934 66.3022 24.4479 66.3189 23.6982C66.3189 21.6307 65.9086 19.5837 65.1117 17.675C64.3147 15.7664 63.1469 14.0338 61.6755 12.5772C60.2041 11.1205 58.4582 9.9686 56.5383 9.18777C54.6184 8.40694 52.5626 8.01263 50.4892 8.02757Z" fill="#448BFF"/>
<path d="M99.8586 70.2701H0.140556C0.103241 70.27 0.0674917 70.2552 0.0411441 70.2288C0.0147965 70.2025 0 70.1668 0 70.1296C0 70.0924 0.0147965 70.0567 0.0411441 70.0303C0.0674917 70.004 0.103241 69.9891 0.140556 69.989H99.8586C99.896 69.989 99.9319 70.0038 99.9583 70.0302C99.9847 70.0565 99.9996 70.0923 99.9996 70.1296C99.9996 70.1669 99.9847 70.2026 99.9583 70.229C99.9319 70.2553 99.896 70.2701 99.8586 70.2701Z" fill="#3F3D56"/>
<path d="M74.4013 32.2268C76.3628 32.2268 77.9529 30.6412 77.9529 28.6853C77.9529 26.7294 76.3628 25.1439 74.4013 25.1439C72.4397 25.1439 70.8496 26.7294 70.8496 28.6853C70.8496 30.6412 72.4397 32.2268 74.4013 32.2268Z" fill="#2F2E41"/>
<path d="M67.8372 68.7198H66.3859L65.6953 63.1375H67.8376L67.8372 68.7198Z" fill="#A0616A"/>
<path d="M65.3503 68.3061H68.1495V70.0635H63.5879C63.5879 69.8327 63.6335 69.6042 63.722 69.391C63.8106 69.1777 63.9404 68.984 64.1041 68.8208C64.2677 68.6576 64.462 68.5282 64.6759 68.4399C64.8897 68.3515 65.1189 68.3061 65.3503 68.3061Z" fill="#2F2E41"/>
<path d="M79.0853 68.7198H77.6339L76.9434 63.1375H79.0856L79.0853 68.7198Z" fill="#A0616A"/>
<path d="M76.5964 68.3061H79.3956V70.0635H74.834C74.834 69.8327 74.8796 69.6042 74.9681 69.391C75.0567 69.1777 75.1865 68.984 75.3502 68.8208C75.5138 68.6576 75.7081 68.5282 75.922 68.4399C76.1358 68.3515 76.365 68.3061 76.5964 68.3061Z" fill="#2F2E41"/>
<path d="M73.8609 32.2474C75.4668 32.2474 76.7686 30.9493 76.7686 29.348C76.7686 27.7467 75.4668 26.4486 73.8609 26.4486C72.255 26.4486 70.9531 27.7467 70.9531 29.348C70.9531 30.9493 72.255 32.2474 73.8609 32.2474Z" fill="#A0616A"/>
<path d="M75.5956 41.6012L76.8966 38.6204C77.2126 37.9212 77.3032 37.1414 77.1558 36.3886C77.0084 35.6359 76.6304 34.9473 76.0738 34.4179C75.9595 34.3052 75.8381 34.1999 75.7104 34.1027C75.0684 33.6019 74.2773 33.329 73.4622 33.3271C72.9142 33.3292 72.3731 33.4492 71.8758 33.6789C71.8331 33.6978 71.7917 33.7178 71.7491 33.7379C71.6674 33.7769 71.5869 33.8194 71.5088 33.863C70.9991 34.1548 70.5653 34.562 70.2425 35.0517C69.9196 35.5413 69.7167 36.0998 69.65 36.6821L69.0759 41.4796C68.9314 41.8562 63.7792 55.4555 65.5811 65.8379C65.6002 65.9488 65.6545 66.0506 65.7358 66.1286C65.8172 66.2065 65.9214 66.2565 66.0333 66.2711L67.8601 66.519C67.9934 66.5372 68.1288 66.5044 68.2388 66.427C68.3489 66.3497 68.4255 66.2337 68.4532 66.1023L71.5183 51.5338C71.5374 51.4433 71.5863 51.3618 71.6574 51.3023C71.7284 51.2428 71.8174 51.2088 71.9101 51.2057C72.0028 51.2025 72.0939 51.2305 72.1688 51.2851C72.2437 51.3396 72.2981 51.4177 72.3233 51.5067L76.6539 66.8271C76.6848 66.9385 76.7514 67.0366 76.8436 67.1066C76.9358 67.1765 77.0484 67.2144 77.1642 67.2144C77.1987 67.2141 77.2332 67.211 77.2672 67.2049L79.4988 66.7764C79.6285 66.7522 79.7445 66.6806 79.824 66.5755C79.9036 66.4705 79.9408 66.3396 79.9286 66.2086C79.6007 62.562 77.8579 44.2962 75.5956 41.6012Z" fill="#2F2E41"/>
<path d="M62.5608 31.761C62.5406 31.9334 62.5586 32.1081 62.6134 32.2727C62.6683 32.4374 62.7587 32.5882 62.8782 32.7142C62.9978 32.8403 63.1437 32.9388 63.3055 33.0026C63.4674 33.0664 63.6413 33.094 63.815 33.0835L65.4404 36.9783L66.6698 35.161L64.9379 31.7411C64.9009 31.4512 64.7586 31.185 64.5379 30.9928C64.3172 30.8006 64.0335 30.6958 63.7405 30.6982C63.4474 30.7007 63.1655 30.8102 62.9481 31.0061C62.7307 31.202 62.5929 31.4706 62.5608 31.761Z" fill="#A0616A"/>
<path d="M73.7002 45.5227C73.873 45.5021 74.0392 45.444 74.187 45.3524C74.3349 45.2609 74.4608 45.1381 74.5559 44.9927C74.651 44.8474 74.713 44.683 74.7375 44.5112C74.762 44.3394 74.7485 44.1643 74.6978 43.9983L78.1175 41.5147L76.0587 40.746L73.1269 43.2223C72.8529 43.3257 72.6263 43.5257 72.4903 43.7845C72.3543 44.0433 72.3182 44.3428 72.3888 44.6264C72.4595 44.91 72.632 45.1578 72.8737 45.323C73.1154 45.4882 73.4095 45.5593 73.7002 45.5227Z" fill="#A0616A"/>
<path d="M68.1248 39.5748C67.9937 39.5747 67.8629 39.5619 67.7343 39.5365C67.4232 39.4774 67.1315 39.343 66.8848 39.145C66.6382 38.9471 66.4441 38.6916 66.3198 38.4013L64.0427 35.6326C63.9946 35.5741 63.9595 35.506 63.9399 35.4329C63.9203 35.3597 63.9166 35.2832 63.9291 35.2086C63.9416 35.1339 63.9699 35.0627 64.0121 34.9999C64.0544 34.937 64.1097 34.8838 64.1742 34.844L65.7943 33.844C65.8541 33.8071 65.9207 33.7824 65.9901 33.7712C66.0596 33.7601 66.1306 33.7627 66.199 33.7791C66.2674 33.7955 66.3319 33.8252 66.3887 33.8665C66.4455 33.9078 66.4936 33.96 66.5301 34.02L68.1351 36.6565L71.2086 34.3915C71.4533 34.2636 71.736 34.2277 72.0051 34.2904C72.2741 34.3532 72.5116 34.5103 72.674 34.7332C72.8365 34.9561 72.9131 35.2298 72.8899 35.5043C72.8666 35.7789 72.7451 36.0359 72.5475 36.2285L69.4799 39.0188C69.1194 39.3751 68.6323 39.575 68.1248 39.5748Z" fill="#2F2E41"/>
<path d="M76.4301 43.7386C76.426 43.7386 76.4218 43.7386 76.4176 43.7385C76.3429 43.7367 76.2694 43.7192 76.2019 43.6873C76.1344 43.6553 76.0743 43.6096 76.0257 43.5531L74.5853 41.8776C74.5363 41.8205 74.4999 41.7537 74.4786 41.6816C74.4574 41.6095 74.4517 41.5337 74.462 41.4593C74.4723 41.3848 74.4984 41.3134 74.5384 41.2497C74.5784 41.186 74.6316 41.1315 74.6943 41.0898L77.3913 39.297L74.948 36.3679C74.8059 36.1316 74.7537 35.8522 74.8011 35.5808C74.8485 35.3093 74.9922 35.064 75.2061 34.8895C75.4199 34.715 75.6896 34.623 75.9658 34.6304C76.242 34.6378 76.5063 34.744 76.7105 34.9297L79.6801 37.8234C79.9138 38.0363 80.0922 38.3026 80.2 38.5994C80.3078 38.8962 80.3418 39.2146 80.299 39.5274C80.2562 39.8401 80.1379 40.1379 79.9543 40.395C79.7708 40.6522 79.5273 40.861 79.245 41.0037L76.8178 43.5718C76.768 43.6244 76.7079 43.6664 76.6412 43.695C76.5746 43.7237 76.5027 43.7385 76.4301 43.7386Z" fill="#2F2E41"/>
<path d="M73.1221 37.5648C73.099 37.5648 73.0759 37.5634 73.053 37.5605C72.9527 37.5483 72.858 37.5077 72.7801 37.4435C72.7023 37.3793 72.6445 37.2941 72.6137 37.1982L71.5314 33.8893C71.5042 33.8057 71.5084 33.7151 71.5431 33.6342C71.5778 33.5534 71.6407 33.4878 71.7201 33.4497L71.7552 33.4331C71.787 33.418 71.8186 33.4031 71.8508 33.3888C72.3555 33.1554 72.9049 33.0337 73.4612 33.0319C74.1834 33.0333 74.8896 33.2448 75.4929 33.6407C75.5738 33.6943 75.6303 33.7776 75.6503 33.8724C75.6702 33.9672 75.6521 34.066 75.5996 34.1476L73.5693 37.3193C73.5217 37.3947 73.4557 37.4567 73.3775 37.4996C73.2993 37.5426 73.2114 37.565 73.1221 37.5648Z" fill="#E6E6E6"/>
<path d="M77.2012 27.1041C77.8431 27.1041 78.3634 26.5853 78.3634 25.9453C78.3634 25.3053 77.8431 24.7864 77.2012 24.7864C76.5594 24.7864 76.0391 25.3053 76.0391 25.9453C76.0391 26.5853 76.5594 27.1041 77.2012 27.1041Z" fill="#2F2E41"/>
<path d="M73.2168 24.6716C72.4004 24.6716 71.6175 24.995 71.0402 25.5706C70.463 26.1462 70.1387 26.9269 70.1387 27.7409V29.0395H71.7404L72.5064 27.7409L72.7363 29.0395H77.5972L76.2949 27.7409C76.2949 26.9269 75.9706 26.1462 75.3933 25.5706C74.8161 24.995 74.0331 24.6716 73.2168 24.6716Z" fill="#2F2E41"/>
<path d="M77.7988 25.1517C77.9274 24.751 78.1934 24.4083 78.5503 24.1838C78.9071 23.9594 79.3319 23.8675 79.75 23.9245C80.4906 24.0479 81.0762 24.6416 81.4251 25.3046C81.774 25.9676 81.9351 26.7097 82.1697 27.421C82.4043 28.1323 82.7369 28.8475 83.3291 29.3079C83.9212 29.7683 84.8299 29.8932 85.4115 29.4196C85.3451 29.9132 85.1247 30.3735 84.7815 30.7354C84.4383 31.0973 83.9897 31.3424 83.4991 31.4362C83.0086 31.5299 82.5009 31.4675 82.0478 31.2577C81.5948 31.048 81.2194 30.7015 80.9746 30.2673C80.6678 29.7229 80.5885 29.0848 80.4975 28.4669C80.4065 27.8491 80.2883 27.2097 79.9219 26.7032C79.5555 26.1967 78.8697 25.8659 78.2877 26.0966L77.7988 25.1517Z" fill="#2F2E41"/>
<path d="M40.0089 26.9195C38.9494 26.9194 37.9333 26.4997 37.1841 25.7526C36.4349 25.0055 36.014 23.9923 36.014 22.9358C36.0139 22.2153 36.0144 21.6644 36.0155 21.586C36.0492 19.118 36.6725 16.6936 37.8338 14.5139C35.9258 17.1184 34.8767 20.2498 34.8316 23.4748C34.8305 23.5532 34.83 24.1041 34.8301 24.8246C34.8301 25.8811 35.2511 26.8943 36.0002 27.6414C36.7494 28.3885 37.7655 28.8082 38.825 28.8083C39.6956 28.808 40.5424 28.5243 41.2366 28.0004C41.9308 27.4764 42.4345 26.7409 42.6712 25.9054C41.9397 26.5595 40.9914 26.9207 40.0089 26.9195Z" fill="#3F3D56"/>
<path d="M50.7594 16.4215C51.9843 16.4798 53.1767 16.8337 54.2342 17.4527C55.2917 18.0718 56.1827 18.9375 56.8308 19.9756C57.4788 21.0136 57.8645 22.193 57.9547 23.4124C58.045 24.6319 57.8371 25.8549 57.3489 26.9766C58.055 26.1496 58.5741 25.1805 58.8706 24.1354C59.1671 23.0903 59.2342 21.9937 59.0671 20.9204C58.9001 19.8471 58.5029 18.8223 57.9027 17.9159C57.3025 17.0095 56.5133 16.2429 55.589 15.6682C54.6647 15.0935 53.627 14.7243 52.5466 14.5857C51.4663 14.4472 50.3686 14.5425 49.3286 14.8653C48.2885 15.1881 47.3305 15.7307 46.5198 16.4561C45.7091 17.1816 45.0648 18.0728 44.6309 19.069C45.3809 18.1893 46.3235 17.493 47.3861 17.034C48.4487 16.5749 49.6028 16.3654 50.7594 16.4215Z" fill="#3F3D56"/>
<path d="M51.9881 51.7099C50.9072 51.7101 49.8696 51.2867 49.0991 50.5309C48.3286 49.7751 47.8869 48.7476 47.8693 47.67C47.8192 44.5468 47.7933 40.6989 47.7933 40.2591C47.7926 39.1893 47.947 38.1249 48.2518 37.0992L48.2504 37.0988C48.4304 36.5839 48.6478 36.0828 48.9008 35.5995C48.124 36.6317 47.5058 37.7737 47.0665 38.9876L47.068 38.988C46.7631 40.0137 46.6087 41.0781 46.6094 42.1479C46.6094 42.5877 46.6353 46.4356 46.6855 49.5588C46.703 50.6364 47.1447 51.6639 47.9152 52.4197C48.6857 53.1755 49.7233 53.5989 50.8042 53.5987C51.6954 53.5985 52.5625 53.3103 53.2754 52.7771C53.9884 52.244 54.5088 51.4947 54.7586 50.6417C54.0013 51.3303 53.013 51.7113 51.9881 51.7099Z" fill="#3F3D56"/>
<path d="M14.9808 68.7737L16.4322 68.7735L17.1227 63.1912L14.9805 63.1913L14.9808 68.7737Z" fill="#FFB8B8"/>
<path d="M19.2324 70.1172L14.6708 70.1174L14.6707 68.36L17.4699 68.3599C17.9373 68.3599 18.3856 68.545 18.7162 68.8746C19.0467 69.2041 19.2324 69.6511 19.2324 70.1172Z" fill="#2F2E41"/>
<path d="M9.77184 68.7737L11.2232 68.7735L11.9137 63.1912L9.77148 63.1913L9.77184 68.7737Z" fill="#FFB8B8"/>
<path d="M14.0234 70.1172L9.46184 70.1174L9.46176 68.36L12.2609 68.3599C12.7283 68.3599 13.1766 68.545 13.5072 68.8746C13.8377 69.2041 14.0234 69.6511 14.0234 70.1172Z" fill="#2F2E41"/>
<path d="M11.0396 67.0567L9.6219 66.9824C9.54879 66.9785 9.47718 66.9603 9.41121 66.9287C9.34523 66.897 9.28621 66.8527 9.23755 66.7981C9.1889 66.7436 9.15158 66.68 9.12776 66.6109C9.10394 66.5419 9.0941 66.4689 9.0988 66.396L10.7933 47.6892L18.5964 49.7888L19.3482 49.5843L16.9972 66.1448C16.9771 66.2694 16.9151 66.3834 16.8213 66.4681C16.7275 66.5528 16.6075 66.603 16.4812 66.6105L14.9529 66.6815C14.8765 66.6857 14.8001 66.6741 14.7284 66.6473C14.6567 66.6206 14.5914 66.5793 14.5365 66.5261C14.4816 66.4729 14.4384 66.4089 14.4096 66.3382C14.3808 66.2675 14.367 66.1917 14.3691 66.1154L14.646 56.176C14.6473 56.1301 14.6313 56.0853 14.6011 56.0505C14.571 56.0157 14.5288 55.9935 14.483 55.9882C14.4372 55.9828 14.3911 55.9948 14.3537 56.0217C14.3163 56.0486 14.2904 56.0885 14.281 56.1335L11.6105 66.6178C11.5853 66.7422 11.5176 66.854 11.419 66.9342C11.3203 67.0144 11.1969 67.058 11.0696 67.0576C11.0597 67.0576 11.0497 67.0573 11.0396 67.0567Z" fill="#2F2E41"/>
<path d="M15.2417 32.383C16.8476 32.383 18.1495 31.0849 18.1495 29.4836C18.1495 27.8823 16.8476 26.5842 15.2417 26.5842C13.6358 26.5842 12.334 27.8823 12.334 29.4836C12.334 31.0849 13.6358 32.383 15.2417 32.383Z" fill="#FFB8B8"/>
<path d="M10.3996 38.0019L10.7193 44.8803L10.8349 47.3828C10.8395 47.4918 10.8766 47.5968 10.9415 47.6847C11.0063 47.7725 11.0959 47.839 11.1989 47.8757L18.6972 50.5842C18.7577 50.6066 18.8219 50.6178 18.8865 50.6173C18.9604 50.6176 19.0335 50.6031 19.1017 50.5747C19.1698 50.5462 19.2314 50.5043 19.283 50.4516C19.3345 50.3988 19.3749 50.3363 19.4016 50.2676C19.4284 50.199 19.4409 50.1256 19.4386 50.052L19.1312 37.6843C19.111 36.6696 18.7365 35.6938 18.072 34.9249C17.4076 34.1561 16.495 33.6425 15.4915 33.4727C15.419 33.4616 15.3452 33.4506 15.2714 33.4408C14.6492 33.3638 14.0176 33.4237 13.4211 33.6162C12.8245 33.8088 12.2775 34.1293 11.8186 34.5553C11.3434 34.9911 10.97 35.5257 10.7248 36.1213C10.4796 36.7169 10.3686 37.3588 10.3996 38.0019Z" fill="#CCCCCC"/>
<path d="M22.2799 49.2116C22.1026 49.1567 21.9405 49.0613 21.8068 48.9329C21.673 48.8045 21.5712 48.6467 21.5094 48.472C21.4477 48.2974 21.4277 48.1108 21.4511 47.9271C21.4745 47.7435 21.5407 47.5678 21.6443 47.4141L19.1016 44.0426L21.2958 43.9072L23.374 47.1296C23.5965 47.3011 23.7514 47.5453 23.8113 47.8193C23.8713 48.0932 23.8327 48.3795 23.7022 48.6279C23.5716 48.8763 23.3576 49.0709 23.0975 49.1777C22.8374 49.2844 22.548 49.2964 22.2799 49.2116Z" fill="#FFB8B8"/>
<path d="M20.4913 46.8041C20.4239 46.7769 20.3626 46.7366 20.311 46.6855C20.2593 46.6345 20.2184 46.5738 20.1904 46.5068L16.3596 37.4059C16.2844 37.2277 16.2452 37.0365 16.2442 36.8432C16.2431 36.6499 16.2803 36.4583 16.3536 36.2793C16.4269 36.1003 16.5348 35.9375 16.6712 35.8002C16.8076 35.6628 16.9699 35.5536 17.1486 35.4788C17.3274 35.404 17.5192 35.365 17.713 35.3642C17.9069 35.3633 18.099 35.4005 18.2785 35.4737C18.4579 35.5469 18.6211 35.6547 18.7587 35.7908C18.8964 35.9269 19.0058 36.0888 19.0807 36.2671L22.9115 45.3681C22.9681 45.5031 22.9688 45.6549 22.9133 45.7903C22.8578 45.9257 22.7507 46.0336 22.6155 46.0904L20.9148 46.8021C20.8478 46.8304 20.7759 46.8451 20.7032 46.8454C20.6305 46.8458 20.5585 46.8318 20.4913 46.8041Z" fill="#CCCCCC"/>
<path d="M14.3075 46.4832L17.9869 39.4582C18.0579 39.3231 18.1797 39.2216 18.3256 39.176C18.4715 39.1303 18.6297 39.1442 18.7653 39.2147L24.106 41.9959C24.2415 42.0667 24.3433 42.1881 24.3891 42.3336C24.4349 42.4791 24.421 42.6368 24.3503 42.7721L20.6709 49.7971C20.5999 49.9322 20.4781 50.0337 20.3322 50.0794C20.1863 50.125 20.0281 50.1111 19.8925 50.0407L14.5518 47.2594C14.4163 47.1886 14.3145 47.0672 14.2687 46.9217C14.2229 46.7762 14.2368 46.6185 14.3075 46.4832Z" fill="#3F3D56"/>
<path d="M16.7747 43.2736C16.7093 43.1003 16.6042 42.9447 16.4677 42.8191C16.3313 42.6935 16.1673 42.6015 15.9888 42.5503C15.8103 42.4992 15.6224 42.4903 15.4399 42.5245C15.2574 42.5586 15.0854 42.6349 14.9377 42.7471L11.4122 40.4151L11.4062 42.6072L14.755 44.4856C14.9398 44.697 15.1934 44.8366 15.4712 44.8802C15.749 44.9237 16.0334 44.8684 16.2743 44.7238C16.5153 44.5792 16.6975 44.3546 16.789 44.0894C16.8805 43.8242 16.8754 43.5354 16.7747 43.2736Z" fill="#FFB8B8"/>
<path d="M12.3171 43.7667L9.43593 41.4909C9.12424 41.3866 8.8426 41.2084 8.61519 40.9716C8.38778 40.7348 8.22139 40.4465 8.13031 40.1315C8.03922 39.8165 8.02616 39.4841 8.09225 39.163C8.15833 38.8418 8.30159 38.5414 8.50972 38.2876L11.1258 34.869C11.3076 34.6475 11.5632 34.4986 11.846 34.4496C12.1289 34.4005 12.4199 34.4546 12.666 34.602C12.9121 34.7493 13.0968 34.98 13.1864 35.252C13.2759 35.5239 13.2643 35.8189 13.1537 36.083L11.0838 39.4593L14.1257 40.8979C14.1964 40.9314 14.2593 40.9794 14.31 41.0388C14.3607 41.0983 14.3982 41.1678 14.42 41.2428C14.4418 41.3178 14.4474 41.3965 14.4365 41.4738C14.4255 41.5511 14.3982 41.6252 14.3564 41.6912L13.1285 43.6288C13.0869 43.6942 13.0321 43.7502 12.9675 43.7931C12.903 43.8361 12.8301 43.865 12.7536 43.878C12.7505 43.8786 12.7475 43.879 12.7444 43.8795C12.6692 43.8908 12.5925 43.8866 12.519 43.8672C12.4455 43.8478 12.3768 43.8136 12.3171 43.7667Z" fill="#CCCCCC"/>
<path d="M13.0448 31.4251C13.0323 31.3887 13.0284 31.3499 13.0332 31.3117C13.0381 31.2736 13.0517 31.2371 13.0729 31.2049C13.0941 31.1728 13.1224 31.146 13.1556 31.1264C13.1888 31.1069 13.2261 31.0952 13.2646 31.0923C13.3433 31.0965 13.4204 31.1167 13.4911 31.1515C13.5619 31.1863 13.6248 31.235 13.6761 31.2947C13.7813 31.4157 13.9038 31.5206 14.0397 31.606C14.1804 31.6767 14.3711 31.6666 14.4513 31.5319C14.5266 31.4053 14.475 31.2358 14.4294 31.0888C14.3134 30.7147 14.2485 30.3268 14.2365 29.9354C14.2233 29.4986 14.2851 29.0427 14.5277 28.702C14.8407 28.2623 15.4004 28.0954 15.93 28.1075C16.4597 28.1196 16.9808 28.2826 17.5055 28.3857C17.6866 28.4213 17.8995 28.4395 18.0206 28.2995C18.1494 28.1507 18.1021 27.9098 18.0473 27.7088C17.9052 27.1873 17.7543 26.6482 17.424 26.227C17.0668 25.7894 16.5566 25.503 15.9961 25.4254C15.458 25.359 14.9118 25.4208 14.4023 25.6059C13.5723 25.8667 12.8419 26.3741 12.3089 27.0601C11.7594 27.7896 11.522 28.7064 11.6485 29.61C11.7721 30.397 12.1903 31.108 12.8189 31.5996L13.0448 31.4251Z" fill="#2F2E41"/>
<path d="M49.8725 68.7966C49.0989 68.4606 48.4142 67.9499 47.8724 67.3049C47.3306 66.6599 46.9465 65.8981 46.7506 65.0797C46.5546 64.2613 46.552 63.4087 46.7431 62.5892C46.9342 61.7697 47.3137 61.0056 47.8516 60.3574C47.2279 60.8114 46.7082 61.3926 46.327 62.0622C45.9458 62.7319 45.7117 63.4747 45.6404 64.2415C45.5692 65.0082 45.6622 65.7813 45.9135 66.5094C46.1647 67.2375 46.5684 67.9041 47.0977 68.4647C47.627 69.0254 48.2699 69.4674 48.9836 69.7614C49.6974 70.0554 50.4657 70.1946 51.2375 70.1699C52.0093 70.1452 52.7671 69.9571 53.4604 69.618C54.1538 69.279 54.7669 68.7968 55.259 68.2034C54.4914 68.7628 53.5902 69.112 52.6451 69.2161C51.7 69.3201 50.7441 69.1755 49.8725 68.7966Z" fill="#3F3D56"/>
</g>
<defs>
<clipPath id="clip0_803_15491">
<rect width="100" height="70.2703" fill="white"/>
</clipPath>
</defs>
</svg>
