<svg version="1.0" xmlns="http://www.w3.org/2000/svg" width="52.000000pt" height="52.000000pt"
  viewBox="0 0 64.000000 64.000000" preserveAspectRatio="xMidYMid meet">

  <g transform="translate(0.000000,64.000000) scale(0.100000,-0.100000)" fill="#808080"
    stroke="none">
    <path
      d="M76 504 c-24 -23 -24 -345 0 -368 22 -23 306 -24 298 -2 -10 26 32
103 66 121 l32 17 -23 24 c-32 35 -68 31 -109 -11 -39 -41 -48 -42 -83 -15
-33 26 -49 25 -85 -5 -17 -14 -33 -25 -36 -25 -3 0 -6 47 -6 105 l0 105 190 0
190 0 0 -90 c0 -82 2 -90 19 -90 11 0 26 -3 35 -6 14 -5 16 8 16 109 0 92 -3
119 -16 131 -23 24 -465 24 -488 0z" />
    <path
      d="M222 421 c-8 -4 -12 -19 -10 -32 4 -34 52 -34 56 0 3 20 -11 41 -28
41 -3 0 -11 -4 -18 -9z" />
    <path
      d="M457 224 c-52 -28 -62 -98 -19 -143 61 -67 162 -30 162 59 0 33 -6
48 -29 71 -33 33 -70 37 -114 13z m63 -44 c0 -13 7 -20 20 -20 26 0 26 -30 1
-37 -11 -3 -22 -14 -24 -25 -6 -21 -27 -16 -27 6 0 8 -9 16 -20 19 -11 3 -20
12 -20 21 0 9 8 16 20 16 13 0 20 7 20 20 0 11 7 20 15 20 8 0 15 -9 15 -20z" />
  </g>
</svg>