<svg width="16" height="17" viewBox="0 0 16 17" fill="none" xmlns="http://www.w3.org/2000/svg">
<path d="M10.2824 7.35719C10.2824 6.90512 10.1483 6.4632 9.89716 6.08731C9.646 5.71143 9.28902 5.41846 8.87136 5.24546C8.4537 5.07246 7.99412 5.0272 7.55073 5.11539C7.10735 5.20359 6.70007 5.42128 6.38041 5.74094C6.06075 6.06061 5.84305 6.46788 5.75486 6.91127C5.66666 7.35465 5.71193 7.81423 5.88493 8.23189C6.05793 8.64955 6.35089 9.00653 6.72678 9.25769C7.10266 9.50885 7.54458 9.6429 7.99665 9.6429C8.60286 9.6429 9.18424 9.40209 9.6129 8.97343C10.0416 8.54478 10.2824 7.9634 10.2824 7.35719ZM6.8538 7.35719C6.8538 7.13115 6.92082 6.91019 7.0464 6.72225C7.17198 6.53431 7.35047 6.38783 7.5593 6.30133C7.76813 6.21483 7.99792 6.19219 8.21961 6.23629C8.44131 6.28039 8.64494 6.38923 8.80477 6.54907C8.96461 6.7089 9.07345 6.91253 9.11755 7.13423C9.16165 7.35592 9.13902 7.58571 9.05252 7.79454C8.96602 8.00337 8.81953 8.18186 8.63159 8.30744C8.44365 8.43302 8.22269 8.50005 7.99665 8.50005C7.69355 8.50005 7.40286 8.37964 7.18853 8.16531C6.9742 7.95098 6.8538 7.66029 6.8538 7.35719Z" fill="black"/>
<path d="M9.14062 10.2145H6.85491C6.40025 10.2145 5.96422 10.3951 5.64273 10.7166C5.32124 11.0381 5.14062 11.4741 5.14062 11.9288V15.9288C5.14062 16.0803 5.20083 16.2257 5.30799 16.3328C5.41516 16.44 5.5605 16.5002 5.71205 16.5002H10.2835C10.435 16.5002 10.5804 16.44 10.6875 16.3328C10.7947 16.2257 10.8549 16.0803 10.8549 15.9288V11.9288C10.8549 11.4741 10.6743 11.0381 10.3528 10.7166C10.0313 10.3951 9.59528 10.2145 9.14062 10.2145ZM9.71205 15.3573H6.28348V11.9288C6.28348 11.7772 6.34369 11.6319 6.45085 11.5247C6.55801 11.4175 6.70336 11.3573 6.85491 11.3573H9.14062C9.29218 11.3573 9.43752 11.4175 9.54469 11.5247C9.65185 11.6319 9.71205 11.7772 9.71205 11.9288V15.3573Z" fill="black"/>
<path d="M14.8571 0.5H13.7143C13.4112 0.5 13.1205 0.620408 12.9062 0.834735C12.6918 1.04906 12.5714 1.33975 12.5714 1.64286V2.78571H3.42857V1.64286C3.42857 1.33975 3.30816 1.04906 3.09384 0.834735C2.87951 0.620408 2.58882 0.5 2.28571 0.5H1.14286C0.839753 0.5 0.549062 0.620408 0.334735 0.834735C0.120408 1.04906 0 1.33975 0 1.64286V5.07143C0 5.37453 0.120408 5.66522 0.334735 5.87955C0.549062 6.09388 0.839753 6.21429 1.14286 6.21429H2.28571C2.58882 6.21429 2.87951 6.09388 3.09384 5.87955C3.30816 5.66522 3.42857 5.37453 3.42857 5.07143V3.92857H12.5714V5.07143C12.5714 5.37453 12.6918 5.66522 12.9062 5.87955C13.1205 6.09388 13.4112 6.21429 13.7143 6.21429H14.8571C15.1602 6.21429 15.4509 6.09388 15.6653 5.87955C15.8796 5.66522 16 5.37453 16 5.07143V1.64286C16 1.33975 15.8796 1.04906 15.6653 0.834735C15.4509 0.620408 15.1602 0.5 14.8571 0.5ZM1.14286 5.07143V1.64286H2.28571V5.07143H1.14286ZM13.7143 5.07143V1.64286H14.8571V5.07143H13.7143Z" fill="black"/>
<path d="M4.97767 10.3819L4.3371 9.74134C4.23057 9.63541 4.14612 9.5094 4.08864 9.37061C4.03116 9.23181 4.00179 9.08299 4.00224 8.93276V6.78591C4.00224 6.63435 3.94204 6.48901 3.83487 6.38185C3.72771 6.27468 3.58237 6.21448 3.43081 6.21448C3.27926 6.21448 3.13392 6.27468 3.02675 6.38185C2.91959 6.48901 2.85938 6.63435 2.85938 6.78591V8.93276C2.85853 9.23312 2.91728 9.53067 3.03224 9.80816C3.1472 10.0857 3.31608 10.3376 3.5291 10.5493L4.16967 11.1899C4.27744 11.294 4.42179 11.3516 4.57161 11.3503C4.72144 11.349 4.86476 11.2889 4.97071 11.1829C5.07666 11.077 5.13675 10.9337 5.13805 10.7838C5.13936 10.634 5.08176 10.4897 4.97767 10.3819Z" fill="black"/>
<path d="M12.5729 6.21448C12.4213 6.21448 12.276 6.27468 12.1688 6.38185C12.0616 6.48901 12.0014 6.63435 12.0014 6.78591V8.93276C12.0019 9.08299 11.9725 9.23181 11.915 9.37061C11.8576 9.5094 11.7731 9.63541 11.6666 9.74134L11.026 10.3819C10.9714 10.4346 10.9279 10.4977 10.898 10.5674C10.868 10.6371 10.8522 10.7121 10.8516 10.788C10.8509 10.8638 10.8654 10.9391 10.8941 11.0093C10.9228 11.0795 10.9653 11.1433 11.0189 11.197C11.0726 11.2506 11.1364 11.2931 11.2066 11.3218C11.2768 11.3505 11.3521 11.365 11.428 11.3643C11.5038 11.3637 11.5788 11.3479 11.6485 11.318C11.7182 11.288 11.7813 11.2445 11.834 11.1899L12.4746 10.5493C12.6876 10.3376 12.8565 10.0857 12.9714 9.80816C13.0864 9.53067 13.1452 9.23312 13.1443 8.93276V6.78591C13.1443 6.63435 13.0841 6.48901 12.9769 6.38185C12.8698 6.27468 12.7244 6.21448 12.5729 6.21448Z" fill="black"/>
</svg>
