<?xml version="1.0" encoding="UTF-8"?>
<svg id="Layer_1" data-name="Layer 1" xmlns="http://www.w3.org/2000/svg" viewBox="0 0 500 500">
  <defs>
    <style>
      .cls-1, .cls-2 {
        stroke-width: 0px;
      }

      .cls-2 {
        fill: #fff;
      }
    </style>
  </defs>
  <path class="cls-1" d="M250.04,40.1c-116.28,0-209.68,93.68-209.68,209.9s93.41,209.9,209.68,209.9,209.6-93.68,209.6-209.9S366.31,40.1,250.04,40.1Z"/>
  <g>
    <path class="cls-2" d="M112.56,184.19c-36.47,0-65.74,29.38-65.74,65.81s29.26,65.81,65.74,65.81c22.4,0,31.15-15.81,31.15-15.81v14.38h34.59v-64.38c0-36.43-29.26-65.81-65.74-65.81h0ZM112.56,218.6c17.39,0,31.33,14.02,31.33,31.4s-13.94,31.4-31.33,31.4-31.33-14.02-31.33-31.4,13.94-31.4,31.33-31.4Z"/>
    <path class="cls-2" d="M186.66,138.87v111.13c0,36.43,29.29,65.83,65.76,65.83s65.68-29.41,65.68-65.83-29.21-65.83-65.68-65.83c-22.4,0-31.18,15.85-31.18,15.85v-61.15h-34.58ZM252.42,218.6c17.39,0,31.33,14.02,31.33,31.41s-13.94,31.41-31.33,31.41-31.33-14.02-31.33-31.41,13.94-31.41,31.33-31.41Z"/>
    <path class="cls-2" d="M389.47,184.19c-36.47,0-65.74,29.38-65.74,65.81s29.26,65.81,65.74,65.81c31.48,0,57.6-21.89,64.16-51.31h-36.36c-5.22,10.03-15.66,16.9-27.8,16.9-17.39,0-31.33-14.02-31.33-31.4s13.94-31.4,31.33-31.4c12.17,0,22.67,6.9,27.87,16.98h36.29c-6.53-29.45-32.65-51.39-64.16-51.39h0Z"/>
  </g>
</svg>