<?xml version="1.0" encoding="UTF-8"?>
<svg id="Layer_1" data-name="Layer 1" xmlns="http://www.w3.org/2000/svg" viewBox="0 0 500 500">
  <defs>
    <style>
      .cls-1 {
        fill: #013ca6;
      }

      .cls-1, .cls-2 {
        stroke-width: 0px;
      }

      .cls-2 {
        fill: #a9abac;
      }
    </style>
  </defs>
  <path class="cls-1" d="M201.41,180.68c-1.44,6.82-3.61,13.46-5.48,20.16-5.21,18.66-10.51,37.28-15.7,55.94-.52,1.88-1.31,2.67-3.35,2.63-6.06-.12-12.12-.03-18.18-.05-2.65,0-2.8-.24-2.02-2.86,1.95-6.61,3.85-13.24,5.89-19.83.6-1.95.17-2.26-1.72-1.79-15.29,3.82-30.59,7.59-45.89,11.34-1.32.32-2.45.92-3.51,1.73-4.44,3.39-8.93,6.72-13.34,10.15-1.18.92-2.38,1.29-3.85,1.28-8.47-.04-16.93,0-25.4-.04-.71,0-1.77.41-2.05-.5-.22-.7.74-1.07,1.28-1.48,32.06-24.75,64.13-49.49,96.2-74.24,1.04-.81,2.07-1.64,3.1-2.46,11.34,0,22.68,0,34.02,0ZM171.87,201.49c-11.85,9.13-23.73,18.29-35.61,27.45,9.08.46,17.91.45,26.74.47,1.33,0,1.65-.91,1.95-1.91,2.41-8.16,4.83-16.32,7.24-24.48.13-.43.32-.89-.33-1.52Z"/>
  <path class="cls-1" d="M486.65,180.68c-.18.83-.3,1.67-.56,2.47-8,24.44-16.05,48.86-23.98,73.32-.72,2.23-1.77,3.03-4.12,2.96-5.27-.17-10.56-.13-15.84-.01-1.92.04-2.92-.68-3.76-2.35-8.02-15.83-16.1-31.62-24.18-47.42-.42-.81-.86-1.61-1.31-2.45-1.06.55-1.04,1.49-1.29,2.25-5.13,15.6-10.28,31.19-15.29,46.82-.77,2.42-1.92,3.27-4.45,3.17-4.73-.2-9.47-.05-14.21-.06-3.7,0-3.74-.02-2.55-3.63,3.64-11.03,7.31-22.05,10.96-33.08,2.41-7.28,4.86-14.54,7.16-21.86.65-2.07,1.8-3.44,3.59-4.59,7.23-4.68,14.39-9.46,21.57-14.22.58-.38,1.08-.87,1.62-1.31.62,0,1.24,0,1.86,0,.16.43.28.89.49,1.3,8.19,15.99,16.39,31.99,24.62,47.96.36.69.51,1.65,1.68,1.92.3-.8.63-1.58.89-2.37,2.71-8.08,5.38-16.16,8.12-24.23,2.79-8.21,5.35-16.49,8.47-24.59,6.84,0,13.67,0,20.51,0Z"/>
  <path class="cls-1" d="M302.55,180.68c-6.57,4.83-13.74,8.78-20.2,13.72-4.95,3.78-10.17,4.89-16.23,4.62-8.22-.36-16.46-.09-24.69-.09-5.45,0-10.44,1.48-12.58,9.01-2.06,7.22-4.7,14.27-7.08,21.4-2.1,6.32.03,9.75,6.66,10.87,1.54.26,3.08.33,4.64.33,14.29,0,28.58,0,42.86,0,3.03,0,3.09.1,2.14,3.02-1.47,4.49-3.01,8.96-4.4,13.48-.51,1.65-1.28,2.36-3.1,2.35-18.33-.06-36.65.01-54.98-.08-9.5-.05-16.94-5.64-18.71-13.77-.86-3.97-.33-7.85.94-11.66,3.65-10.95,7.64-21.8,10.87-32.87,3.24-11.11,10.75-16.96,21.51-19.54.98-.23,1.94-.53,2.9-.8,23.15,0,46.3,0,69.45,0Z"/>
  <path class="cls-1" d="M392.97,180.68c-.32.78-1.08,1.09-1.71,1.51-7.69,5.11-15.4,10.19-23.07,15.34-1.49,1-2.99,1.44-4.78,1.43-10.41-.05-20.81-.03-31.22-.02-7.21,0-10.27,2.21-12.54,8.99-2.48,7.42-4.98,14.84-7.42,22.27-1.85,5.61.24,8.95,6.12,9.95,1.69.29,3.38.42,5.1.41,14.6-.01,29.2,0,43.8,0,2.83,0,2.86.06,2,2.72-1.51,4.64-3.07,9.26-4.52,13.93-.49,1.58-1.32,2.2-3.01,2.2-18.48-.05-36.96.09-55.44-.09-13.45-.13-21.66-10.92-17.79-23.75,4-13.27,8.53-26.39,13.18-39.45,2.61-7.34,8.67-11.27,15.83-13.63,2.13-.7,4.33-1.21,6.49-1.8,22.99,0,45.99,0,68.98,0Z"/>
  <path class="cls-2" d="M358.43,271.96c-114.88,9.52-229.76,19.04-345.08,28.6,1.57-2.15,3.49-3.19,5.15-4.48,9.72-7.59,19.53-15.08,29.24-22.68,1.88-1.48,3.81-2.06,6.19-2.06,89.95.04,179.89.04,269.84.04,10.72,0,21.44,0,32.16,0,.83,0,1.66,0,2.49,0,0,.2.02.39.02.59Z"/>
  <path class="cls-2" d="M391.29,294.6c-10.25,0-20.5,0-30.74,0-2.98,0-3.08-.17-2.56-3.04.61-3.37,2.79-5.25,5.91-6.17,1.56-.46,3.2-.56,4.84-.55,15.84.02,31.68.02,47.51,0,1.72,0,3.41.14,5.05.7,2.14.74,3.52,2.17,4.05,4.41.79,3.34-.19,4.67-3.55,4.67-10.17,0-20.34,0-30.51,0Z"/>
  <path class="cls-2" d="M369.13,319.29c-3.8,0-7.61-.06-11.41.03-1.9.05-2.77-.62-2.52-2.56.21-1.69.37-3.38.53-5.08.16-1.6,1.3-1.71,2.54-1.71,5.67,0,11.33,0,17-.01.77,0,1.59.15,2.26-.33.78-.55.9-1.43.81-2.29-.11-1.07-.99-1.06-1.77-1.06-4.35-.02-8.69.02-13.04-.03-3.87-.05-6.08-2.18-6.38-5.96-.12-1.51.38-2.4,2.03-2.39,7.76.01,15.53-.17,23.28.09,5.73.2,8.38,3.93,7.47,9.64-.21,1.3-.37,2.6-.57,3.9-.79,4.95-3.76,7.61-8.83,7.73-3.8.09-7.61.02-11.41.02h0Z"/>
  <path class="cls-2" d="M336.9,318.86c-4.27,0-8.54-.04-12.82.02-1.7.02-2.36-.45-2.1-2.3.78-5.44,1.41-10.9,2.05-16.36.2-1.71,1.03-2.37,2.76-2.36,8.7.05,17.4.04,26.1,0,1.73,0,2.27.54,2.04,2.36-.76,6.02-.68,6.03-6.86,6.03-3.65,0-7.3.02-10.95,0-1.32,0-2.29.29-2.34,1.88-.05,1.79,1.17,1.72,2.37,1.72,4.58,0,9.17.06,13.75-.02,1.97-.03,2.75.71,2.35,2.64-.08.38-.17.76-.2,1.14-.41,6.22-.5,5.14-6.14,5.22-3.34.05-6.68,0-10.02,0Z"/>
  <path class="cls-2" d="M408.54,297.88c4.58,0,9.16.04,13.74-.02,2.01-.03,2.61.76,2.18,2.71-.75,3.4-2.6,5.15-6.1,5.22-4.19.09-8.39.13-12.58,0-2.04-.06-2.76.85-2.95,2.68-.28,2.69-.73,5.37-.97,8.06-.14,1.62-.8,2.38-2.47,2.34-2.33-.06-4.66-.06-6.99,0-1.71.05-2.46-.65-2.23-2.36.75-5.6,1.53-11.19,2.22-16.8.19-1.55,1.09-1.85,2.4-1.84,4.58.02,9.16,0,13.74,0Z"/>
  <path class="cls-2" d="M443.46,294.6c-4.66,0-9.31-.06-13.96.03-2.13.04-2.75-.77-2.31-2.81.39-1.81.55-3.67.75-5.52.13-1.2.71-1.87,1.93-1.85,8.37.13,16.76-.54,25.11.39,3.77.42,5.82,3.25,5.56,7.03-.13,1.83-.82,2.81-2.87,2.77-4.73-.1-9.46-.03-14.2-.03Z"/>
  <path class="cls-2" d="M340.22,294.6c-4.34,0-8.68-.04-13.02.02-1.87.03-2.52-.75-2.21-2.55.33-1.9.62-3.81.83-5.73.15-1.35.84-1.91,2.13-1.91,8.91,0,17.82,0,26.73-.01,1.52,0,2.11.75,1.91,2.19-.23,1.68-.65,3.36-.7,5.05-.07,2.49-1.35,3.06-3.59,2.99-4.03-.13-8.06-.04-12.09-.04Z"/>
  <path class="cls-2" d="M451.52,318.86c-.47,0-.93,0-1.4,0-4.55,0-4.53,0-3.94-4.39.62-4.6,1.26-9.19,1.77-13.8.22-1.95.92-2.96,3.05-2.83,2.24.13,4.5.07,6.75.02,1.6-.03,2.21.57,1.98,2.24-.75,5.51-1.41,11.04-2.08,16.57-.19,1.6-1.03,2.3-2.65,2.19-1.16-.08-2.33-.01-3.49-.01Z"/>
  <path class="cls-2" d="M432.51,297.87c6.89.06,5.65-.66,5.01,5.9-.41,4.23-.99,8.44-1.4,12.67-.18,1.83-1.03,2.53-2.87,2.44-2.32-.12-4.65-.05-6.98-.03-1.48.02-2.09-.55-1.9-2.11.64-5.21,1.17-10.44,1.78-15.66.36-3.1.5-3.19,3.58-3.21.93,0,1.86,0,2.79,0Z"/>
</svg>