<?xml version="1.0" encoding="UTF-8"?>
<svg id="Layer_1" data-name="Layer 1" xmlns="http://www.w3.org/2000/svg" viewBox="0 0 500 500">
  <defs>
    <style>
      .cls-1 {
        stroke-width: 0px;
      }
    </style>
  </defs>
  <path class="cls-1" d="M333.28,285.31c-30.64,0-61.27.09-91.91-.06-7.69-.04-12.79,2.61-16.74,9.69-15.88,28.44-57.3,28.62-73.55.27-4.23-7.39-9.57-10.07-17.67-9.99-22.97.25-45.95.09-68.93.08-11.78,0-18.13-7.3-16.6-18.86.36-2.74,2.36-1.68,3.65-1.69,10.15-.1,20.3-.06,30.46-.06,17.99,0,35.98-.06,53.97.03,6,.03,9.93-2.33,12.5-7.97,7.66-16.87,21.09-25.97,39.51-25.89,18.19.08,31.48,9.11,39,25.81,2.77,6.15,7.2,8.07,13.53,8.06,65.01-.09,130.02.02,195.04-.18,5.36-.02,6.35,1.05,5.39,6.37-2.13,11.83-4.61,14.35-16.8,14.36-30.28,0-60.56,0-90.84,0ZM188.09,234.42c-22.16-.08-39.5,16.85-39.72,38.79-.21,21.56,17.19,39.46,38.48,39.58,22.56.13,40.09-16.84,40.16-38.87.07-22.18-16.92-39.42-38.92-39.5Z"/>
  <path class="cls-1" d="M72.36,143.37c11.53,0,21.64.02,31.74-.01,2.44,0,2.85,1.31,2.83,3.43-.31,35.57-.63,71.14-.74,106.71-.01,3.74-.98,4.96-4.74,4.72-5.14-.32-10.32-.21-15.47-.03-2.85.1-3.74-.9-3.45-3.71.35-3.35.34-6.75.42-10.13.04-1.78,1.09-4.53-2.22-4.1-2.79.36-6.74-2.3-8.2,2.34-1.17,3.72-2.09,7.53-2.93,11.34-.64,2.92-1.74,4.69-5.24,4.26-5.2-.64-12.41,2.27-15.14-1.23-2.45-3.15,1.66-9.58,3-14.52,7.62-28.29,15.22-56.58,23.24-84.76,1.48-5.21.71-9.29-3.08-14.33ZM86.97,188.03c-.33,0-.66,0-.99.01-2.48,9.55-4.96,19.1-7.43,28.65-.44,1.69-.6,3.27,1.95,3.11,1.96-.12,4.34.8,4.53-2.69.54-9.7,1.28-19.39,1.94-29.08Z"/>
  <path class="cls-1" d="M372.14,176.09c.77-5.12,1.42-9.85,2.2-14.56.46-2.8-1.37-4.7-2.51-6.83-1.27-2.36-.77-3.13,1.86-3.09,6.59.08,13.18.11,19.77-.01,2.63-.05,3.32.79,2.94,3.44-2.95,20.42-5.77,40.86-8.61,61.3-1.69,12.15-3.53,24.29-4.95,36.48-.49,4.19-1.89,5.89-6.25,5.41-3.69-.41-8.14,1.18-11.06-.37-4.99-2.64-8.53.2-12.68,1.12-3.32.74-6.72.8-10.09.19-6.86-1.24-11.03-5.92-10.15-12.75,2.61-20.46,5.32-40.93,8.65-61.29,1.83-11.18,16.04-16.77,26.89-11.27,1.23.63,2.42,1.35,4,2.23ZM354.76,238.17c-.32,2.2.19,3.97,2.53,4.64,2.37.68,4.3-.32,5.39-2.35.72-1.35.93-3.03,1.15-4.59,1.93-13.55,3.77-27.1,5.73-40.65.39-2.72,1.26-5.64-2.49-6.41-3.78-.78-5.6,1.55-6.09,5.01-2.09,14.78-4.14,29.57-6.2,44.35Z"/>
  <path class="cls-1" d="M292.1,173.41q10.92,0,9.34,10.95c-2.45,17.24-4.88,34.49-7.29,51.74-.39,2.77-1.4,6.24,2.77,6.77,4.05.52,5.41-2.45,5.91-6,2.75-19.71,5.64-39.41,8.23-59.14.45-3.41,1.64-4.56,4.98-4.37,4.08.24,8.19.2,12.27.01,3.4-.16,4.65.69,4.09,4.5-3.66,24.97-7.16,49.97-10.5,74.98-.55,4.15-1.97,5.87-6.32,5.37-3.69-.42-8.18,1.21-11.04-.38-4.93-2.73-8.33.31-12.37,1.11-3.33.66-6.71.81-10.08.25-7.27-1.22-11.32-6.09-10.36-13.55,2.53-19.74,5.39-39.44,8.13-59.16.12-.88.33-1.75.45-2.63q1.32-10.45,11.81-10.45Z"/>
  <path class="cls-1" d="M432.69,218.39c-4.02.36-9.95-1.93-13.28.84-3.33,2.76-1.88,8.99-2.86,13.64-.33,1.56-.41,3.17-.61,4.76-.32,2.51-.07,4.93,2.97,5.29,3.05.36,5.11-1.3,5.72-4.36.49-2.44.96-4.91,1.07-7.39.13-2.82,1.05-4.2,4.14-4.07,4.62.2,9.26.12,13.89.03,2.36-.05,3.42.46,3.37,3.25-.41,21.07-19.03,34.34-39.24,27.84-9.68-3.12-14.37-9.7-13.15-19.75,1.89-15.54,3.97-31.06,6.54-46.5,1.75-10.48,9.31-16.02,18.97-18.86,4.98-1.46,10.11-1.84,15.32-.77,12.88,2.66,18.42,10.56,16.4,23.51-.98,6.33-1.99,12.66-2.68,19.03-.3,2.78-1.43,3.65-4.07,3.55-3.91-.15-7.84-.04-12.5-.04ZM424.89,207.51c3.24.78,4.45-.91,4.78-3.89.35-3.18.92-6.33,1.32-9.5.31-2.42.28-4.9-2.85-5.34-3-.42-5.27.73-5.85,4.01-.58,3.32-.9,6.7-1.64,9.99-.83,3.72.1,5.56,4.23,4.74Z"/>
  <path class="cls-1" d="M253.9,161.65c.71,0,1.42,0,2.14,0,7.62,0,7.89.03,7.05,7.58-.47,4.27,1.78,4.5,4.67,4.13,4.69-.61,6.06,1.4,5.03,5.71-.29,1.21-.63,2.47-.57,3.68.25,5.42-2.39,7.21-7.48,6.4-3.26-.52-4.54.84-4.98,4.34-1.75,13.94-3.84,27.83-5.95,41.72-.64,4.24.34,6.72,5.13,6.17,3.2-.36,3.94.92,3.44,4-2.62,16.27,1.24,12.51-14.56,12.63-10.6.08-16.9-7.36-15.62-17.78,1.84-15,4.02-29.96,6.27-44.91.64-4.26.43-7.04-4.97-6.22-2.84.43-3.89-.94-3.34-3.73.34-1.74.77-3.52.72-5.27-.16-5.11,1.74-7.68,7.23-6.73,1.89.33,3.52-.25,3.77-2.67.3-2.95-.35-7.08,2.1-8.37,2.7-1.43,6.57-.65,9.93-.83,0,.06,0,.12,0,.17Z"/>
  <path class="cls-1" d="M124.14,151.63c7.78,0,15.23.08,22.67-.04,3.06-.05,2.86,1.41,2.52,3.7-4.03,27.07-7.96,54.15-11.91,81.23-.82,5.63-1.94,11.23-2.31,16.89-.26,4.08-1.95,5.1-5.68,4.8-3.71-.3-7.5-.36-11.19.01-4.34.44-5.07-1.3-4.47-5.16,2.41-15.45,4.61-30.93,6.88-46.41,2.19-14.94,4.27-29.9,6.65-44.81.62-3.86-2.67-6.05-3.16-10.21Z"/>
  <path class="cls-1" d="M154.93,237.73c1.52-11.25,2.86-21.04,4.18-30.84.62-4.58,1.02-9.19,1.88-13.72.59-3.16-.4-4.48-3.48-4.01-5.42.82-5.95-1.88-4.71-6.14.34-1.18.46-2.46.48-3.69.07-4.2,1.49-6.8,6.34-5.95,3.03.53,4.26-.8,4.75-3.97,1.2-7.78,1.4-7.75,9.42-7.75,2.67,0,5.35.2,8-.04,3.87-.35,4.96,1.1,4.31,4.89-1.13,6.58-.97,6.81,5.77,6.84,3.56.02,4.41,1.24,3.37,4.43-.32,1-.31,2.1-.43,3.16-.87,7.69-.86,7.9-8.5,8.11-3.58.1-3.9,2.07-4.25,4.73-1.26,9.69-2.7,19.35-3.91,29.04-.33,2.66-1.29,3.9-4.05,4.59-6.73,1.67-12.63,5.26-19.17,10.34Z"/>
  <path class="cls-1" d="M287.25,346.7c-1.83,10.31-1.82,10.21-13.01,9.82-2.77-.1-3.78-.73-3.29-3.66,2.74-16.44,5.43-32.9,7.96-49.38.45-2.94,1.75-4.19,4.46-3.46,3.7.99,8.2-2.49,11.31,2.24.66,1.01,2.12-.66,3.14-1.2,3.82-2.03,7.68-2.87,11.6-.41,3.93,2.47,3.36,6.43,2.84,10.09-1.33,9.31-3.02,18.56-4.38,27.87-1.32,9.06-8.85,15.98-20.63,8.09ZM288.61,336.84c.27,1.73-.56,3.89,1.78,4.05,2.05.14,2.34-1.97,2.59-3.47,1.37-8.21,2.62-16.44,3.89-24.67.23-1.49,1.2-3.53-.92-4.12-2.42-.67-2.83,1.54-3.14,3.28-1.45,8.38-2.84,16.77-4.21,24.92Z"/>
  <path class="cls-1" d="M326.9,350.19c-11.44-.16-15.48-4.78-13.78-16.04,1.08-7.18,1.91-14.45,3.73-21.45,3.12-12.01,17.49-17.56,28.23-11.3,3.86,2.25,5.83,5.79,5.49,10.21-.69,9.02-1.93,18.01-4.41,26.71-2.29,8.02-9.31,12.01-19.27,11.87ZM335.92,311.7c-.04-1.18.45-2.75-1.2-3.1-2.19-.46-2.71,1.4-2.97,2.93-1.49,8.73-2.88,17.48-4.27,26.23-.19,1.22-.4,2.72,1.19,3.1,1.75.41,2.62-.91,2.87-2.39,1.51-8.91,2.93-17.83,4.38-26.76Z"/>
  <path class="cls-1" d="M244.67,332.12c5.3-1.17,7.45.47,5.81,5.85-.38,1.26,0,2.65,1.48,2.98,1.55.34,2.81-.41,3.31-1.98.99-3.06,1.27-5.95-2.11-7.88-1.7-.97-3.34-2.04-4.99-3.09-7.98-5.09-9.02-7.42-7.3-16.26,1.47-7.59,4.94-10.62,13.41-12.23,3.8-.72,7.48-.37,11.08.58,6.49,1.71,9.2,7.55,6.85,13.82-.54,1.45-1.25,1.95-2.67,1.93-2.13-.04-4.28-.14-6.4.03-3,.24-4.85-.32-4.09-3.99.29-1.42.72-3.54-1.9-3.39-2.01.11-2.39,1.81-2.63,3.46-.34,2.32.37,4.24,2.3,5.58,1.46,1.01,3,1.9,4.54,2.78,9.1,5.19,10.39,8,8.08,17.67-1.85,7.74-6.81,11.66-15.39,12.12-2.84.15-5.68.15-8.48-.59-7.35-1.95-10.84-8.8-7.79-15.78,1.49-3.41,4.76-.89,6.88-1.63Z"/>
  <path class="cls-1" d="M408.99,332.41c5.55-1.06,8.79-.54,7.09,5.37-.4,1.38-.08,3.04,1.77,3.27,1.6.19,2.58-.86,3.05-2.41.9-2.92,1.15-5.56-2.05-7.39-2.47-1.41-4.84-2.98-7.22-4.54-4.18-2.74-6.68-6.37-5.86-11.62.93-5.92,2.17-11.64,8.71-14.15,5.7-2.19,11.47-2.45,17.23-.56,6.14,2.02,8.46,7.94,5.92,13.87-.68,1.58-1.65,1.57-2.87,1.59-2.13.02-4.28-.12-6.4.04-2.87.22-4.38-.49-3.76-3.8.26-1.38.81-3.53-1.76-3.58-2.05-.04-2.38,1.62-2.78,3.27-.6,2.44.33,4.24,2.1,5.62,1.53,1.19,3.28,2.11,4.98,3.07,8.5,4.78,9.94,7.79,7.99,16.84-1.68,7.81-6.25,11.95-14.33,12.71-2.46.23-5,.24-7.45-.04-9.07-1.05-13.01-7.36-10.08-16,1.31-3.85,4.62-.94,5.72-1.56Z"/>
  <path class="cls-1" d="M213.85,173.41c10.89,0,10.76-.02,9.19,11.09-2.07,14.61-3.94,29.26-5.84,43.9-.78,6-.66,5.91-5.85,3.27-3-1.53-6.09-3.33-9.32-3.82-5.3-.81-5.74-3.4-5.03-8,2.12-13.89,3.85-27.83,5.59-41.78.43-3.39,1.7-5.17,5.4-4.7,1.93.25,3.91.04,5.87.04Z"/>
  <path class="cls-1" d="M394.64,293.56c2.11,0,3.37.12,4.6-.02,2.99-.34,4.26.49,3.29,3.76-.38,1.27-1.1,2.75,1.03,4.04,2.91,1.77,2.52,6.69-.65,7.68-2.62.82-2.64,2.38-2.95,4.3-1.22,7.73-2.45,15.46-3.75,23.17-.38,2.24-.73,4.18,2.23,5.02,2.8.79,1.05,2.89.89,4.42-.16,1.53-.23,3.37-2.62,3.17-.18-.02-.36,0-.53,0-12.58,0-17.95,1.71-14.6-15.29,1.31-6.62,2.2-13.33,3.21-20.01.28-1.81,1.24-3.85-1.37-5.01-.92-.41-.71-1.56-.58-2.41.25-1.54-.36-4,1.12-4.43,4.97-1.43,2.3-13.17,10.66-8.42Z"/>
  <path class="cls-1" d="M381.56,299.7c-.49,3.25-1.02,6.04-1.32,8.86-.47,4.49-.76,8.68-6.98,9.17-2.9.23-3.76,3.49-4.21,6.2-1.15,6.84-2.4,13.66-3.3,20.54-.45,3.41-1.65,4.78-5.35,4.76-10.87-.07-10.78.12-8.95-10.49,2.02-11.74,3.96-23.5,5.67-35.29.4-2.72,1.3-3.69,3.98-3.52,2.84.19,5.7,0,8.54.07.96.02,2.51-.43,2.52,1.12.02,3.13,1.14,2.23,2.64.96,1.79-1.52,3.74-2.7,6.75-2.37Z"/>
  <path class="cls-1" d="M217.96,149.14q10.06,0,8.75,9.85-1.11,8.31-9.38,8.31c-.18,0-.36.01-.53,0-4.01-.35-10.84,1.51-11.48-.82-1.29-4.74.7-10.38,1.33-15.64.21-1.76,1.57-1.66,2.8-1.67,2.84-.03,5.68,0,8.52-.02Z"/>
  <path class="cls-1" d="M187.33,310.5c-18.44.27-36.37-14.58-36.72-37.03-.03-2.13.59-4.11,2.56-5.57,2.57-1.9,5.05-3.95,7.35-6.17,3.18-3.06,6.15-5.47,9.83-.65,1.55,2.03,2.65.44,3.73-.73,3.85-4.19,7.76-8.32,11.54-12.57,1.66-1.86,2.8-2,4.54.03,3.45,4.06,7.28,7.8,10.76,11.83,1.95,2.25,3.55,3.22,5.77.39,2.07-2.64,4.15-2.62,6.49,0,2,2.25,4.14,4.6,6.7,6.07,5.41,3.12,5.45,7.9,4.63,12.92-3.05,18.65-18.31,31.49-37.17,31.46ZM213.9,282.68c.24-.23.48-.45.72-.68-7.77-8.97-15.54-17.93-23.31-26.9-.39.24-.78.47-1.17.71,3.54,10.56,7.09,21.13,10.63,31.69q3.51-9.1,11.74-5.38c.46.21.93.38,1.4.57ZM166.68,262.66c1.94,6.77,3.43,11.93,5.19,18.07,1.72-4.73,4.58-6,9.87-3.97-5.44-5.09-9.67-9.05-15.06-14.1Z"/>
</svg>