<?xml version="1.0" encoding="UTF-8"?>
<svg id="Layer_1" data-name="Layer 1" xmlns="http://www.w3.org/2000/svg" viewBox="0 0 500 500">
  <defs>
    <style>
      .cls-1, .cls-2 {
        stroke-width: 0px;
      }

      .cls-2 {
        fill: #009fdb;
      }
    </style>
  </defs>
  <path class="cls-1" d="M229.61,252.86c-13.73.24-24.67,11.56-24.43,25.29,0,.31.02.63.03.94-.89,10.47,6.87,19.68,17.34,20.57.92.08,1.84.09,2.75.03,13.73-.24,24.67-11.56,24.43-25.29,0-.31-.02-.63-.03-.94.89-10.47-6.87-19.68-17.34-20.58-.92-.08-1.84-.09-2.75-.03h0ZM226.16,287.22c-5.41,0-6.81-4.43-6.81-9.16,0-6.09,3.36-12.73,9.41-12.73,5.41,0,6.81,4.43,6.81,9.15,0,6.09-3.36,12.73-9.41,12.73ZM413.86,253.62l-9.58,45.31h-12.26l-7.66-21.5-4.51,21.5h-13.37l9.58-45.31h12.18l7.66,21.5,4.51-21.5h13.46ZM291.97,267.34c0-8.9-6-13.71-17.07-13.71h-15.29l-9.67,45.31h13.8l3.02-14.18h3.49l4.34,14.18h14.82l-6.34-16.56c5.62-2.87,9.08-8.72,8.9-15.03h0ZM272.17,273.51h-3.02l1.75-8.09h3.07c2.73,0,4.09,1.02,4.09,3.02,0,3.24-2.13,5.07-5.88,5.07ZM184.86,253.62h-14.6l-9.67,45.31h13.8l2.73-12.86h4.26c13.11,0,21.16-6.9,21.16-18.14,0-9.62-5.75-14.31-17.67-14.31h0ZM182,274.32h-2.38l1.92-8.9h2.6c3.11,0,4.43,1.06,4.43,3.53,0,3.32-2.51,5.37-6.56,5.37h0ZM419.9,253.62h30.45l-2.68,12.39h-16.61l-.94,4.43h13.46l-2.51,11.58h-13.37l-1.02,4.73h17.46l-2.64,12.18h-31.17l9.58-45.31ZM158.32,283.47c0,9.92-7.32,16.22-18.82,16.22-6.14.26-12.2-1.53-17.2-5.11l4.39-10.94c3.6,2.25,7.72,3.52,11.97,3.7,3.92,0,5.54-.89,5.54-2.34s-.64-1.92-5.19-3.79l-1.24-.51c-5.54-1.6-9.32-6.71-9.24-12.48,0-9.41,7.11-15.37,18.31-15.37,5.44-.16,10.79,1.41,15.29,4.47l-4.47,10.94c-3.29-1.96-7.03-3.01-10.86-3.07-2.68,0-4.09.72-4.09,2.21,0,1.02.6,1.53,3.15,2.51l1.23.47c7.79,2.94,11.24,6.94,11.24,13.07ZM364.84,283.47c0,9.92-7.33,16.22-18.82,16.22-6.14.26-12.2-1.53-17.2-5.11l4.39-10.94c3.6,2.25,7.72,3.52,11.97,3.7,3.92,0,5.53-.89,5.53-2.34s-.64-1.92-5.19-3.79l-1.23-.51c-5.54-1.6-9.32-6.71-9.24-12.48,0-9.41,7.11-15.37,18.31-15.37,5.44-.16,10.79,1.41,15.29,4.47l-4.47,10.94c-3.29-1.96-7.03-3.01-10.86-3.07-2.68,0-4.09.72-4.09,2.21,0,1.02.6,1.53,3.15,2.51l1.24.47c7.79,2.94,11.24,6.94,11.24,13.07h0ZM490.41,253.62l-2.64,12.39h-10.94l-6.98,32.92h-13.97l6.98-32.92h-11.2l2.64-12.39h36.11ZM331.49,266.02h-10.94l-6.98,32.92h-13.97l6.98-32.92h-11.2l2.64-12.39h36.11l-2.64,12.39Z"/>
  <path class="cls-2" d="M29.27,290.18c19.24,14.95,46.39,14.14,64.71-1.92.11-.09.05-.16-.05-.09-10.12,5.97-21.73,8.93-33.46,8.53-10.77.47-21.48-1.81-31.13-6.61-.11-.05-.15.03-.07.09M63.92,292.78c12.29.4,24.39-3.17,34.5-10.17,2.55-2.13,4.69-4.7,6.32-7.59,1.18-2.04,2.2-4.17,3.07-6.36.04-.11-.03-.16-.11-.04-7.65,11.27-29.81,18.29-52.69,18.29-16.17,0-33.57-5.17-40.38-15.05-.07-.09-.13-.05-.09.05,6.35,13.49,25.6,20.86,49.38,20.86M50.24,270.4c-26.04,0-38.32-12.13-40.54-20.41-.03-.12-.11-.09-.11.01,0,2.94.25,5.88.76,8.77.46,1.67,1.34,3.2,2.56,4.44,6.31,6.57,22.03,15.79,49.25,15.79,37.09,0,45.57-12.36,47.3-16.43,1.34-4.05,1.98-8.31,1.88-12.57,0-1.07-.03-1.92-.07-2.76,0-.13-.08-.15-.11-.01-1.85,9.94-33.54,23.17-60.93,23.17M14.5,228.18c-1.6,3.37-2.82,6.91-3.64,10.55-.23.83-.13,1.71.27,2.47,3.12,6.63,18.9,17.23,55.73,17.23,22.46,0,39.92-5.52,42.74-15.6.55-2.12.51-4.35-.12-6.45-.83-3.03-1.94-5.98-3.33-8.8-.04-.08-.11-.07-.09.03.44,13.21-36.4,21.73-54.98,21.73-20.13,0-36.93-8.03-36.93-18.16.03-1,.18-2,.45-2.96.03-.09-.05-.11-.09-.03M94.07,211.95c.22.35.33.76.32,1.17,0,5.65-17.29,15.65-44.82,15.65-20.23,0-24.01-7.51-24.01-12.28.06-1.93.8-3.78,2.09-5.23.08-.11.01-.15-.08-.07-2.63,2.23-5.03,4.72-7.16,7.44-.82.86-1.39,1.93-1.64,3.09,0,9.89,24.8,17.06,47.98,17.06,24.7,0,35.73-8.06,35.73-15.16,0-2.53-.99-4.01-3.51-6.88-1.51-1.72-3.13-3.35-4.83-4.88-.08-.07-.13-.01-.08.07M86.49,206.3c-16.16-9.64-36.33-9.56-52.41.21-2.29,1.41-3.59,2.55-3.59,4,0,4.29,10.03,8.91,27.81,8.91s31.25-5.05,31.25-9.92c0-1.16-1.01-1.97-3.07-3.2M225.4,243.14l2.34,3.24h14.56l-7.92-10.94c1.36-1.41,2.73-2.94,4.39-4.98l6.51-8.09h-12.14l-4.43,5.32-2.72-3.79c8.22-4.26,10.6-8.81,10.6-12.82-.42-6.4-5.95-11.25-12.35-10.83-.21.01-.42.03-.63.06-8.03-.64-15.05,5.34-15.69,13.37,0,.1-.01.2-.02.3.13,2.58.84,5.1,2.09,7.37-6.03,2.06-10.26,7.49-10.77,13.84-.11,6.54,5.1,11.93,11.64,12.05.54,0,1.07-.02,1.6-.08,4.64.11,9.18-1.29,12.95-4h0ZM222.8,209.5c1.32,0,2.13.72,2.13,1.87,0,1.36-.94,3.11-4.17,5.19-.77-1.05-1.19-2.32-1.19-3.62-.09-1.81,1.31-3.36,3.12-3.45.04,0,.08,0,.11,0h0ZM215.23,229.17l4.51,6.17c-1.26.78-2.7,1.21-4.17,1.28-2,0-3.19-1.02-3.19-2.81.14-1.92,1.2-3.65,2.85-4.64ZM139.57,239.09h12.26l.55,7.28h13.92l-6.26-45.31h-13.37l-25.51,45.31h14.86l3.53-7.28ZM150.22,217.08l.81,10.77h-6l5.19-10.77ZM254.18,213.46h-11.2l2.64-12.39h36.11l-2.64,12.39h-10.94l-6.98,32.92h-13.97l6.98-32.92ZM178.79,213.46h-11.2l2.64-12.39h36.11l-2.64,12.39h-10.94l-6.98,32.92h-13.97l6.98-32.92Z"/>
</svg>