<?xml version="1.0" encoding="UTF-8"?>
<svg id="Layer_1" data-name="Layer 1" xmlns="http://www.w3.org/2000/svg" viewBox="0 0 500 500">
  <defs>
    <style>
      .cls-1 {
        fill: #ea0001;
        stroke-width: 0px;
      }
    </style>
  </defs>
  <path class="cls-1" d="M26.03,249.39c.7-4.6,1.31-9.21,2.49-13.73,4.68-17.8,12.98-33.78,24.48-48.08,19.8-24.64,44.96-41.34,75.35-50.09,13.94-4.02,28.22-5.67,42.71-4.85,10.39.58,20.47,2.69,29.6,8,8.67,5.04,15.04,11.97,16.98,22.15,1.77,9.25-.9,17.55-6.04,25.14-5.48,8.09-13.28,13.47-21.79,17.91-9.52,4.97-19.7,8.11-30.15,10.42-.66.15-1.37.17-2.11.69,2.46,2.23,4.86,4.41,6.94,6.92,5.5,6.67,9,14.18,9.2,22.91.34,14.87-9.24,28.22-23.91,33.36-8.63,3.02-17.49,4.02-26.48,1.79-5.72-1.42-10.44-4.35-12.93-10-2.17-4.92-1.4-9.74,1.98-12.92,4.12-3.87,10.39-3.43,13.91,1,2.75,3.46,3.32,7.33,2.14,11.54-.64,2.29-.52,2.43,1.81,2.27,4.36-.29,8.18-2.05,11.36-4.91,8.32-7.49,13.06-16.68,12.03-28.14-.85-9.56-5.1-17.44-12.54-23.57-.72-.59-1.5-1.14-2.1-1.83-1.52-1.74-1.05-3.71,1.13-4.41,1.65-.53,3.41-.73,5.12-1.09,14.46-3.03,27.07-9.63,37.75-19.79,5.62-5.34,9.92-11.58,11.74-19.29,1.98-8.41-.88-15.81-8.01-20.74-5.41-3.73-11.54-5.49-17.92-6.5-21.23-3.35-40.72,1.73-59,12.36-20.38,11.86-36.21,28.42-48.95,48.05-8.02,12.36-14.81,25.35-19.2,39.48-1.8,5.81-2.94,11.76-3.17,17.84-.18,4.68.35,9.3,2.21,13.69,4.03,9.57,14.54,10.36,20.68,6.78,4.93-2.88,8.3-7.26,11.26-11.98,5.68-9.08,9.72-18.96,13.85-28.79,5.66-13.48,11.04-27.09,17.84-40.06,5.46-10.42,11.67-20.32,20.26-28.52,7.67-7.32,16.58-12.2,27.24-13.5,1.96-.24,3.95-.3,5.93-.34,1.13-.02,2.08.47,2.3,1.72.23,1.29-.58,1.94-1.64,2.33-9.55,3.51-16.37,10.29-22.07,18.4-7.02,9.99-11.82,21.12-16.4,32.35-4.99,12.24-9.39,24.72-14.73,36.83-4.29,9.72-9.03,19.2-15.79,27.51-6.67,8.2-14.8,14.19-25.49,15.96-9.83,1.63-18.97.2-26.62-6.76-5.32-4.83-8.26-11.05-9.92-17.92-.56-2.31-.88-4.68-1.32-7.02,0-4.2,0-8.39,0-12.59Z"/>
  <path class="cls-1" d="M220.9,367.56c-7.53-1.7-12.09-6.63-14.19-13.75-3.45-11.68-3.51-23.45.44-35.05,2.03-5.97,5.9-10.39,12.29-12.12,9.74-2.65,18.69,2.07,22.44,12.01,2.77,7.33,3.17,14.98,2.72,22.72-.18,3.02-.54,6.03-1.24,8.98-1.99,8.4-6.06,15-15.11,17.22h-7.35ZM218.13,337.47c-.05,3.57,0,7.76.77,11.9.33,1.78.8,3.53,1.81,5.06,1.95,2.94,5.57,2.91,7.52-.02.89-1.34,1.36-2.84,1.64-4.39,1.36-7.5,1.25-15.06.59-22.61-.24-2.77-.63-5.58-2.19-8.01-1.97-3.05-5.66-3.03-7.63,0-.71,1.09-1.09,2.31-1.4,3.56-1.14,4.56-1.12,9.22-1.1,14.5Z"/>
  <path class="cls-1" d="M340.55,367.56c-3.8-.93-7.27-2.4-9.96-5.42-2.85-3.21-3.95-7.05-4.36-11.19-.1-.98.5-1.34,1.3-1.55,2.87-.78,5.74-1.55,8.59-2.37,1.18-.34,1.65.11,1.65,1.25,0,1.59.23,3.15.84,4.61.83,2.02,2.06,3.71,4.4,4.07,1.92.3,3.81.12,5-1.68,1.34-2.02,1.21-4.21.26-6.34-.78-1.74-2.19-2.99-3.66-4.16-3.66-2.89-7.68-5.27-11.19-8.37-7.01-6.21-8.36-16.53-2.87-23.83,3.92-5.22,9.53-6.92,15.78-6.55,8.57.51,13.85,5.47,15.19,13.92.45,2.83.29,3.06-2.46,3.64-2.34.49-4.68.96-6.99,1.54-1.33.33-1.77-.09-1.87-1.41-.09-1.2-.36-2.43-.77-3.57-1.12-3.06-3.63-4.33-6.31-3.31-2.5.95-3.61,3.9-2.54,6.77.55,1.46,1.56,2.57,2.72,3.57,3.4,2.94,7.36,5.12,10.81,8,5.31,4.43,8.42,9.81,7.92,16.99-.49,6.92-5.02,12.69-11.8,14.66-.78.23-1.56.47-2.33.7h-7.35Z"/>
  <path class="cls-1" d="M139.38,367.56c-1.22-.38-2.46-.7-3.65-1.16-6.07-2.36-10.32-8.58-10.43-15.09-.02-1.13.37-1.71,1.46-1.99,2.82-.73,5.63-1.49,8.43-2.3,1.06-.31,1.45-.08,1.52,1.08.14,2.39.5,4.76,2.01,6.76,1.63,2.14,4.37,2.87,6.71,1.77,2-.93,3-3.42,2.46-5.99-.46-2.17-1.75-3.83-3.43-5.13-3.6-2.77-7.37-5.33-10.9-8.17-5.83-4.7-8.39-10.8-6.89-18.26,1.26-6.27,5.18-10.32,11.25-12.17,5.36-1.63,10.65-1.33,15.54,1.57,5.04,2.98,6.75,7.92,7.28,13.42.07.76-.3,1.18-1.05,1.35-3.02.66-6.03,1.34-9.04,2-1.15.26-1.45-.43-1.48-1.37-.05-1.59-.34-3.12-1.08-4.55-1.26-2.44-3.49-3.35-6-2.46-2.04.73-3.32,3.22-2.85,5.58.48,2.46,2.16,4.07,4.01,5.54,3.56,2.82,7.55,5.07,10.93,8.13,5.23,4.74,7.86,10.49,6.69,17.62-1.07,6.45-4.86,10.67-10.96,12.87-1.04.37-2.12.63-3.17.95h-7.35Z"/>
  <path class="cls-1" d="M384.1,261.84c-3.7,4.24-7.24,8.1-11.25,11.49-5.75,4.86-12.01,8.7-19.67,9.54-9.24,1.01-18.67-1.81-22.72-12.46-.46-1.21-.82-1.05-1.66-.36-6.44,5.31-13.32,9.83-21.59,11.79-5.39,1.27-10.83,1.75-16.3.72-9.34-1.77-15.2-7.61-18.54-16.26-.76-1.96-.74-1.94-2.28-.49-5.44,5.13-11.06,10.04-17.9,13.28-5.29,2.5-10.83,3.7-16.65,2.53-6.11-1.23-10.44-4.68-12.4-10.77-.6-1.86-.62-1.86-2.25-.56-4.98,3.96-10.09,7.72-15.92,10.39-2.62,1.2-5.32,2.13-8.2,2.33-7.38.52-12.72-3.33-14.79-10.63-2.06-7.24-1.08-14.35,1.2-21.31,3.32-10.1,8.87-18.97,15.75-27.01,8.66-10.12,18.94-18.08,31.44-22.98,5.75-2.25,11.69-3.66,17.9-3.46,4.32.14,8.43,1.12,11.92,3.89,3.18,2.52,4.44,6.21,3.29,9.58-1.18,3.46-4.55,5.79-8.5,5.88-5.33.12-9.98-3.06-11.85-8.36-.59-1.68-1.38-1.92-2.97-1.52-6.18,1.56-11.1,5.18-15.29,9.71-11.09,11.99-18.32,26.16-22.91,41.75-.63,2.15-.76,4.36-.61,6.58.21,2.98,2.16,4.51,5.11,4,2.87-.5,5.17-2.04,7.24-4,4.83-4.57,8.5-10.03,12.09-15.56,4-6.16,8.08-12.27,11.88-18.54,1.88-3.1,4.43-4.68,7.9-5,2.84-.26,5.68-.57,8.55-.44,3.08.15,3.97,1.37,2.72,4.16-1.85,4.15-3.88,8.22-5.86,12.31-2.39,4.93-5.02,9.74-7.17,14.78-.96,2.25-1.84,4.55-1.82,7.05.03,3.14,1.5,4.61,4.62,4.66,4.15.06,7.7-1.66,11.08-3.8,4.06-2.56,7.62-5.75,11.15-8.98.7-.65,1-1.36.95-2.31-.96-15.65,3.27-30.24,9.43-44.33,9.13-20.88,21.75-39.45,38.03-55.45,6.3-6.19,13.12-11.75,21.38-15.22,2.82-1.18,5.73-1.86,8.84-1.77,5.74.16,9.62,3.48,10.64,9.16.85,4.77.11,9.41-1.11,13.99-2.49,9.38-7.04,17.86-11.75,26.25-8.56,15.27-19.06,29.13-30.77,42.12-7.03,7.8-14.35,15.3-22.1,22.39-1.46,1.34-1.96,2.62-1.48,4.57.79,3.24,1.63,6.43,3.57,9.22,2.94,4.25,7.02,5.78,12.1,5.41,8.38-.63,14.85-5.08,21.04-10.16.57-.47.9-1.03.9-1.8.02-12.79,3.94-24.65,8.85-36.24,7.37-17.4,17.4-33.07,30.99-46.33,5.32-5.19,11.12-9.79,18.02-12.76,3.55-1.53,7.21-2.7,11.18-2.06,3.37.55,5.57,2.53,6.74,5.66,1.7,4.56,1.18,9.19.18,13.78-2.17,10.06-6.86,19.03-12.3,27.64-7.73,12.21-16.86,23.3-26.94,33.65-4.76,4.89-9.66,9.63-14.84,14.06-1.09.93-1.56,1.94-1.36,3.34.3,2.08.68,4.14,1.54,6.08,1.98,4.47,5.79,6.08,11.23,4.73,4.56-1.13,8.24-3.76,11.58-6.92,5.98-5.66,10.6-12.38,14.86-19.36,6.32-10.35,11.46-21.35,17.53-31.85,1.6-2.77,3.3-5.5,4.82-8.32,1.18-2.19,2.95-3.39,5.33-3.79,3.63-.61,7.29-.93,10.95-.57,2.37.23,3.03,1.32,2.27,3.61-1.28,3.88-3.11,7.54-4.81,11.24-5.28,11.48-10.65,22.93-15.94,34.41-1.57,3.4-2.92,6.87-2.75,10.73.16,3.44,2.23,4.81,5.43,3.49,2.08-.85,3.8-2.26,5.42-3.78,6.38-5.97,11.59-12.91,16.59-20.02,7.75-11.02,14.83-22.47,21.4-34.22,1.77-3.17,4.09-4.93,7.68-5.17,3.08-.2,6.15-.67,9.23-.31,2.36.28,2.99,1.3,2.34,3.62-.73,2.59-1.89,5.02-3.03,7.44-7.94,16.93-15.82,33.89-23.88,50.76-10.03,20.97-20.3,41.82-30.26,62.82-2.41,5.08-6.12,7.58-11.49,8-2.14.17-4.31.25-6.46.12-2.9-.18-3.95-1.76-3.05-4.51,1.63-5,3.96-9.71,6.17-14.46,7.56-16.27,15.2-32.5,22.81-48.76.16-.35.48-.66.3-1.24-4.01,3.45-7.92,6.94-12.18,9.97-4.33,3.08-8.74,6.04-14.12,7.02-5.13.93-9.51-1.16-12.03-5.75-.96-1.75-1.55-3.63-1.97-5.58-.41-1.9-.33-3.82-.44-6.17ZM290.21,240.39c.48-.35.64-.43.75-.56,16.79-18.02,31.45-37.62,43.95-58.83,4.59-7.79,8.74-15.8,11.51-24.45.75-2.34,1.32-4.72,1.08-7.21-.18-1.79-1.07-2.45-2.85-2.07-.79.17-1.58.42-2.32.75-3.03,1.35-5.53,3.46-7.92,5.68-6.99,6.51-12.87,13.95-18.28,21.78-10.95,15.85-19.73,32.71-23.93,51.67-.94,4.25-1.66,8.54-2,13.23ZM350.06,243.2c.23.18.45.37.68.55.6-.77,1.13-1.61,1.8-2.3,8.72-9.04,16.46-18.87,23.63-29.16,6.77-9.72,13.05-19.73,17.01-30.99.83-2.37,1.55-4.76,1.72-7.28.18-2.62-1.2-3.71-3.67-2.91-1.12.36-2.12.97-3.07,1.64-3.56,2.5-6.51,5.64-9.26,8.98-12.59,15.3-21.11,32.71-26.65,51.65-.94,3.22-1.76,6.49-2.18,9.83Z"/>
  <path class="cls-1" d="M277.25,338.88c6.45,2.44,7.02,7.83,7.74,13.15.43,3.23.9,6.45,1.42,9.67.17,1.02.5,2.04.88,3.01.9,2.27.93,2.25-1.6,2.25-3.15,0-6.3-.06-9.44.03-1.42.04-2.1-.54-2.53-1.82-1.18-3.46-1.32-7.08-1.8-10.65-.25-1.84-.4-3.7-.7-5.54-.64-3.94-3.6-5.79-7.42-4.74-1.06.29-.87,1.11-.88,1.83-.02,5.88-.01,11.77-.01,17.65,0,.52-.02,1.05,0,1.57.05,1.14-.38,1.71-1.63,1.69-3.38-.05-6.76-.04-10.14,0-1.13.01-1.61-.48-1.56-1.57.01-.35,0-.7,0-1.05,0-18.35,0-36.7,0-55.06,0-2.61,0-2.62,2.63-2.62,5.31,0,10.61,0,15.92,0,1.93,0,3.84.19,5.73.58,8.02,1.64,12.52,6.94,12.92,15.12.24,5-.61,9.64-4.33,13.36-1.34,1.34-3,2.19-5.15,3.14ZM262.89,325.72c0,1.22-.03,2.44,0,3.67.15,5.13-1.2,4.66,5,4.49,2.4-.06,3.95-1.47,4.7-3.76.48-1.47.42-2.99.42-4.5,0-6.59-1.78-8.29-8.34-8.05-.06,0-.12,0-.17,0-1.23-.09-1.64.53-1.62,1.69.04,2.15.01,4.31,0,6.46Z"/>
  <path class="cls-1" d="M165.52,336.78c0-9.26,0-18.51,0-27.77,0-2.27.05-2.36,2.38-2.31,5.94.12,11.88-.31,17.81.27,8.51.83,13.92,5.9,15.23,14.48.81,5.32.56,10.58-1.74,15.56-2.71,5.87-7.74,8.26-13.82,8.94-1.62.18-3.26.28-4.88.24-1.47-.03-1.91.57-1.89,1.97.05,5.47.03,10.94.02,16.42,0,2.39-.01,2.39-2.47,2.39-2.85,0-5.71-.07-8.56.03-1.6.06-2.11-.5-2.1-2.1.06-9.37.03-18.75.03-28.12ZM178.63,326.46c0,2.45,0,4.89,0,7.34,0,.63-.03,1.27.79,1.55,3.48,1.21,7.19-.77,8.11-4.33.55-2.12.45-4.28.38-6.43-.16-5.28-2.45-7.31-7.74-7.03-1.1.06-1.57.45-1.56,1.57.04,2.44.01,4.89.01,7.34Z"/>
  <path class="cls-1" d="M314.06,342.3c0,7.51-.04,15.02.03,22.53.02,1.7-.56,2.22-2.22,2.17-3.03-.11-6.06-.14-9.09,0-1.94.09-2.17-.84-2.17-2.42.03-14.73.02-29.46.02-44.19q0-2.7-2.65-2.7c-2.33,0-4.66-.04-6.99.01-1.21.03-1.66-.46-1.64-1.65.05-2.56.05-5.12,0-7.68-.02-1.18.43-1.68,1.63-1.68,10.95.02,21.91.02,32.86,0,1.15,0,1.72.41,1.7,1.63-.04,2.56-.04,5.12,0,7.69.02,1.29-.53,1.74-1.79,1.71-2.62-.06-5.25.05-7.86-.04-1.48-.05-1.88.51-1.87,1.93.05,7.57.03,15.14.02,22.71Z"/>
</svg>