<?xml version="1.0" encoding="UTF-8"?>
<svg id="Layer_1" data-name="Layer 1" xmlns="http://www.w3.org/2000/svg" xmlns:xlink="http://www.w3.org/1999/xlink" viewBox="0 0 500 500">
  <defs>
    <style>
      .cls-1, .cls-2, .cls-3, .cls-4 {
        stroke-width: 0px;
      }

      .cls-2 {
        fill: none;
      }

      .cls-3 {
        fill: #666766;
      }

      .cls-5 {
        clip-path: url(#clippath);
      }

      .cls-4 {
        fill: #0082be;
      }
    </style>
    <clipPath id="clippath">
      <rect class="cls-2" x="24.85" y="122.29" width="450.3" height="255.41"/>
    </clipPath>
  </defs>
  <path class="cls-3" d="M464.52,376.57v-11.1h2.2l3.1,8.92,3.12-8.92h2.2v11.1h-1.65v-8.45l-3.02,8.45h-1.39l-3.02-8.42v8.42h-1.55ZM457.59,376.57v-9.66h-3.36v-1.44h8.42v1.44h-3.39v9.66h-1.68ZM395.13,376.57v-60.23h16.28v21.81l16.6-21.81h18.88l-20.27,23.77,22.06,36.46h-18.4l-14.24-24.09-4.64,5.37v18.72h-16.28ZM352.56,343.28h7c6.68,0,9.61-1.88,9.61-6.92s-2.93-6.84-9.61-6.84h-7v13.76h0ZM336.6,376.57v-60.23h23.52c15.46,0,24.9,5.13,24.9,19.61,0,9.44-3.99,14.9-11.88,17.58l12.78,23.04h-17.26l-11.64-20.91h-4.47v20.91h-15.95ZM311.94,346.45c0-11.07-4.8-17.82-13.27-17.82s-13.35,6.75-13.35,17.82,4.8,18.23,13.35,18.23,13.27-7.16,13.27-18.23h0ZM269.04,346.45c0-22.05,15.06-31.26,29.63-31.26s29.55,9.2,29.55,31.26-15.06,31.26-29.55,31.26-29.63-9.2-29.63-31.26h0ZM207.02,376.57l-16.03-60.23h16.36l5.13,23.69c1.11,4.09,1.98,8.25,2.6,12.45h.16c.59-4.16,1.41-8.29,2.44-12.37l4.97-23.77h14.73l5.37,23.84c1.14,4.04,2.04,8.15,2.69,12.3h.16c.54-4.08,1.3-8.13,2.28-12.12l4.8-24.02h14.9l-15.63,60.23h-13.59l-8.22-37.69h-.16l-9.12,37.69h-13.84ZM154.84,376.57v-46.72h-17.34v-13.51h50.95v13.51h-17.34v46.72h-16.28ZM89.23,376.57v-60.23h42.98v13.51h-26.7v9.77h19.05v12.7h-19.05v11.16h28.08v13.1h-44.36ZM24.85,376.57v-60.23h16.03l22.06,33.78h.16v-33.78h14.9v60.23h-15.06l-23.03-33.7h-.16v33.7h-14.9Z"/>
  <polygon class="cls-4" points="193.24 242.83 193.24 283.36 283.62 283.36 283.62 242.83 264.17 242.83 264.17 122.49 193.24 122.49 193.24 162.99 211.8 162.99 211.8 242.83 193.24 242.83 193.24 242.83"/>
  <g class="cls-5">
    <path class="cls-1" d="M129.59,239.61c0,3.09-3.09,3.09-3.09,3.09h-30.5v-27.18h30.05s3.54-.22,3.54,3.98v20.11h0ZM96.01,163.15s24.75-.17,28.89-.17,3.04,3.04,3.04,3.04v18.23c0,1.66-2.32,2.32-2.32,2.32h-29.61v-23.42h0ZM157.44,201.16c31.16-16.57,24.31-42.43,24.31-42.43-5.08-34.91-36.9-36.24-36.9-36.24H24.85v40.44h18.78v79.99h-18.78v40.44h127.5c35.58-5.3,35.58-40.22,35.58-40.22,0-36.24-30.5-41.99-30.5-41.99h0Z"/>
    <path class="cls-4" d="M382.84,188.56h65.85v58.34c0,4.08-1.55,8.55-3.12,12.24-3.74,8.81-10.49,15.93-19.08,20.15-5.27,2.59-10.23,4.07-16.09,4.07h-84.58c-3.21,0-6.38-.66-9.39-1.74-7.64-2.74-13.93-8.26-18.48-14.9-2.28-3.33-4.16-6.93-5.7-10.65-2.25-5.42-4.21-10.55-4.21-16.47v-79.17c0-.13,0-.25,0-.38,0,0,1.33-37.12,37.57-37.57,36.24-.44,87.51,0,87.51,0,0,0,31.38,0,35.58,36.68v17.9h-52.37v-9.06s.22-5.63-5.64-5.63h-44.31s-6.02,1.33-6.02,6.02v68.34s.5,5.97,4.92,5.97h45.96s4.86.44,4.86-4.86v-20.77h-13.26v-28.51h0Z"/>
  </g>
</svg>