<?xml version="1.0" encoding="UTF-8"?>
<svg id="Layer_1" data-name="Layer 1" xmlns="http://www.w3.org/2000/svg" viewBox="0 0 500 500">
  <defs>
    <style>
      .cls-1 {
        stroke-width: 0px;
      }
    </style>
  </defs>
  <g id="layer1">
    <g id="g115">
      <g id="g119">
        <path id="path89" class="cls-1" d="M80.22,308.73h10.47v-30.35l23.72,30.35h9.42v-48.84h-10.47v30.35l-23.72-30.35h-9.42v48.84Z"/>
        <path id="path91" class="cls-1" d="M130.83,308.73h36.98v-9.77h-26.52v-10.47h20.24v-9.42h-20.24v-9.42h25.82v-9.77h-36.28v48.84Z"/>
        <path id="path93" class="cls-1" d="M186.22,308.73h10.47v-39.08h13.96v-9.77h-38.38v9.77h13.96v39.08Z"/>
        <path id="path95" class="cls-1" d="M230.86,308.73h10.12l9.91-31.75h.42l9.91,31.75h10.12l16.05-48.84h-10.82l-10.12,32.8h-.35l-10.12-32.8h-9.77l-10.12,32.8h-.35l-10.12-32.8h-10.82l16.05,48.84Z"/>
        <path id="path97" class="cls-1" d="M298.16,284.31c0-8.72,6.98-15.7,15.7-15.7s15.7,6.98,15.7,15.7-6.98,15.7-15.7,15.7-15.7-6.98-15.7-15.7ZM287.35,284.31c0,13.96,11.44,25.47,26.52,25.47s26.52-11.51,26.52-25.47-11.44-25.47-26.52-25.47-26.52,11.51-26.52,25.47Z"/>
        <path id="path99" class="cls-1" d="M345.76,308.73h10.47v-16.05h9.77l8.72,16.05h11.51l-10.12-18.14c1.6-.7,3-1.67,4.19-2.93,2.16-2.16,4.19-5.79,4.19-11.37,0-9.77-6.63-16.4-17.1-16.4h-21.63v48.84ZM356.22,282.91v-13.26h10.82c3.91,0,6.63,2.72,6.63,6.63s-2.72,6.63-6.63,6.63h-10.82Z"/>
        <path id="path101" class="cls-1" d="M390.87,308.73h10.47v-14.3l6.28-6.63,14.3,20.93h12.21l-19.54-28.61,18.14-20.24h-12.56l-18.84,20.93v-20.93h-10.47v48.84Z"/>
      </g>
      <g id="g83">
        <path id="path867" class="cls-1" d="M72.31,217.19c0,7.48-2.64,13.86-7.91,19.14-5.27,5.27-11.62,7.91-19.06,7.91s-13.81-2.64-19.1-7.91c-5.29-5.27-7.94-11.64-7.94-19.14s2.65-13.79,7.94-19.06c5.29-5.27,11.67-7.91,19.1-7.91s13.79,2.64,19.06,7.91c5.27,5.27,7.91,11.62,7.91,19.06h0ZM70.69,217.24c-2.12-4.67-5.39-8.47-9.83-11.39-4.66-3.16-9.84-4.75-15.54-4.75s-10.91,1.58-15.63,4.75c-4.38,2.92-7.63,6.72-9.75,11.39,2.12,4.67,5.37,8.49,9.75,11.47,4.71,3.11,9.92,4.67,15.63,4.67s10.89-1.56,15.56-4.67c4.43-2.98,7.7-6.8,9.82-11.47ZM59.68,217.19c0,3.95-1.41,7.33-4.2,10.13-2.8,2.8-6.17,4.2-10.13,4.2s-7.33-1.4-10.13-4.2c-2.8-2.8-4.2-6.17-4.2-10.13s1.4-7.32,4.2-10.1c2.8-2.78,6.17-4.16,10.13-4.16s7.33,1.38,10.13,4.16c2.79,2.78,4.2,6.14,4.2,10.1Z"/>
        <g id="g70">
          <path id="path869" class="cls-1" d="M77.12,217.24c0-13.95,11.5-25.45,26.5-25.45,13.6,0,20.58,9.77,20.58,9.77l-6.98,6.98s-4.88-6.98-13.6-6.98-15.69,6.98-15.69,15.69,6.98,15.69,15.69,15.69,13.95-6.98,13.95-6.98l6.98,6.98s-6.98,9.77-20.92,9.77c-15.01,0-26.51-11.51-26.51-25.45Z"/>
          <path id="path871" class="cls-1" d="M128.45,192.83h20.58c9.77,0,15.69,5.93,15.69,12.9,0,7.67-6.62,10.11-6.62,10.11,0,0,9.06,2.44,9.06,11.85,0,7.67-6.27,13.95-16.73,13.95h-21.97v-48.81ZM148.32,211.66c3.48,0,5.58-2.09,5.58-4.88s-2.09-4.88-5.58-4.88h-9.41v9.77h9.41ZM149.72,232.57c4.19,0,6.62-2.44,6.62-5.93s-2.44-5.93-6.62-5.93h-10.81v11.85h10.81Z"/>
          <path id="path873" class="cls-1" d="M168.4,235.01l6.98-6.98s4.19,5.23,11.5,5.23c5.58,0,8.02-2.44,8.02-5.58,0-8.37-24.41-4.54-24.41-21.62,0-7.67,6.62-14.29,17.79-14.29s16.39,6.62,16.39,6.62l-6.98,6.98s-3.48-4.19-9.06-4.19c-5.23,0-7.33,2.09-7.33,4.88,0,8.37,24.41,4.54,24.41,21.62,0,8.02-6.98,15-18.48,15-12.56.01-18.83-7.67-18.83-7.67h0Z"/>
          <path id="path875" class="cls-1" d="M220.7,235.01l6.98-6.98s4.19,5.23,11.5,5.23c5.58,0,8.02-2.44,8.02-5.58,0-8.37-24.41-4.54-24.41-21.62,0-7.67,6.62-14.29,17.78-14.29s16.39,6.62,16.39,6.62l-6.98,6.98s-3.48-4.19-9.06-4.19c-5.23,0-7.33,2.09-7.33,4.88,0,8.37,24.41,4.54,24.41,21.62,0,8.02-6.98,15-18.48,15-12.56.01-18.83-7.67-18.83-7.67Z"/>
          <path id="path877" class="cls-1" d="M262.95,192.83h20.57c10.46,0,17.43,6.98,17.43,16.39s-6.98,16.39-17.43,16.39h-10.11v16.04h-10.46v-48.82h-.01ZM283.18,215.84c4.19,0,6.98-2.79,6.98-6.62s-2.79-6.62-6.98-6.62h-9.77v13.25h9.77Z"/>
          <path id="path879" class="cls-1" d="M304.38,217.24c0-13.95,11.5-25.45,26.5-25.45s26.5,11.5,26.5,25.45-11.5,25.45-26.5,25.45-26.5-11.51-26.5-25.45h0ZM346.56,217.24c0-8.71-6.98-15.69-15.69-15.69s-15.69,6.98-15.69,15.69,6.98,15.69,15.69,15.69,15.69-6.98,15.69-15.69Z"/>
          <path id="path881" class="cls-1" d="M362.88,192.83h21.62c10.46,0,17.08,6.62,17.08,16.39,0,11.16-8.37,14.29-8.37,14.29l10.11,18.13h-11.5l-8.71-16.04h-9.77v16.04h-10.46v-48.81ZM384.14,215.84c3.83,0,6.62-2.79,6.62-6.62s-2.79-6.62-6.62-6.62h-10.81v13.25h10.81Z"/>
          <path id="path883" class="cls-1" d="M419.01,202.6h-13.95v-9.77h38.35v9.77h-13.95v39.04h-10.46v-39.04h0Z"/>
          <path id="path885-0" class="cls-1" d="M444.4,235.01l6.98-6.98s4.19,5.23,11.5,5.23c5.58,0,8.02-2.44,8.02-5.58,0-8.37-24.41-4.54-24.41-21.62,0-7.67,6.62-14.29,17.79-14.29s16.39,6.62,16.39,6.62l-6.98,6.98s-3.48-4.19-9.06-4.19c-5.23,0-7.33,2.09-7.33,4.88,0,8.37,24.41,4.54,24.41,21.62,0,8.02-6.98,15-18.48,15-12.56.01-18.83-7.67-18.83-7.67h0Z"/>
        </g>
      </g>
    </g>
  </g>
</svg>