<?xml version="1.0" encoding="UTF-8"?>
<svg id="Layer_1" data-name="Layer 1" xmlns="http://www.w3.org/2000/svg" viewBox="0 0 500 500">
  <defs>
    <style>
      .cls-1 {
        stroke-width: 0px;
      }
    </style>
  </defs>
  <path class="cls-1" d="M162.7,249.88c.04,32.81-26.52,59.45-59.33,59.49h-.08c-32.78-.06-59.35-26.63-59.41-59.41.11-32.75,26.66-59.26,59.41-59.33,32.81,0,59.41,26.6,59.41,59.41h0s0-.16,0-.16ZM159.12,249.88c-4.65-10.26-12.16-18.96-21.62-25.07-10.07-6.89-22.01-10.53-34.21-10.43-12.25-.09-24.24,3.55-34.38,10.43-9.39,6.15-16.83,14.84-21.45,25.07,4.64,10.25,12.08,18.99,21.45,25.22,10.17,6.79,22.15,10.37,34.38,10.28,12.18.11,24.11-3.48,34.21-10.28,9.45-6.19,16.95-14.93,21.62-25.22ZM134.89,249.88c0,17.41-14.1,31.53-31.51,31.53-8.37,0-16.39-3.32-22.31-9.24-12.3-12.3-12.3-32.25,0-44.56,12.3-12.3,32.25-12.3,44.56,0,6.05,5.81,9.4,13.88,9.26,22.26Z"/>
  <path class="cls-1" d="M173.28,249.88c0-30.68,25.3-55.98,58.29-55.98,17.56-.08,34.2,7.81,45.25,21.45l-15.27,15.35s-10.73-15.33-29.9-15.33-34.51,15.45-34.51,34.51,15.45,34.51,34.51,34.51,30.68-15.33,30.68-15.33l15.33,15.33c-11.27,13.79-28.2,21.69-46.01,21.45-33.07.03-58.37-25.28-58.37-55.96h0Z"/>
  <path class="cls-1" d="M286.17,196.19h45.25c21.45,0,34.51,13.04,34.51,28.38.13,9.69-5.64,18.48-14.57,22.23,0,0,19.94,5.38,19.94,26.07,0,16.88-13.8,30.68-36.8,30.68h-48.32v-107.37ZM329.89,237.61c7.67,0,12.26-4.6,12.26-10.74s-4.59-10.74-12.26-10.74h-20.71v21.45l20.71.03ZM332.96,283.62c9.19,0,14.57-5.36,14.57-13.04s-5.38-13.04-14.57-13.04h-23.78v26.07h23.78Z"/>
  <path class="cls-1" d="M374.07,288.99l15.33-15.33c6.43,7.25,15.62,11.45,25.31,11.55,12.26,0,17.64-5.36,17.64-12.28,0-18.4-53.7-9.9-53.7-47.54,0-16.87,14.57-31.36,39.13-31.36s36.04,14.57,36.04,14.57l-15.35,15.33c-5.12-5.65-12.31-8.98-19.94-9.21-11.55,0-16.11,4.6-16.11,10.74,0,18.4,53.68,9.9,53.68,47.54,0,17.64-15.33,33.01-40.65,33.01-27.61-.15-41.4-17.03-41.4-17.03Z"/>
</svg>