<?xml version="1.0" encoding="UTF-8"?>
<svg id="Layer_1" data-name="Layer 1" xmlns="http://www.w3.org/2000/svg" viewBox="0 0 500 500">
  <defs>
    <style>
      .cls-1 {
        fill: #c00;
        stroke-width: 0px;
      }
    </style>
  </defs>
  <path class="cls-1" d="M477.82,225.05c-.25,1.69-.5,3.38-.73,5.07-.41,2.99-.75,5.99-1.23,8.96-.67,4.11-2.89,7.27-6.36,9.54-1.38.9-2.82,1.71-4.31,2.61.76.5,1.46.96,2.17,1.43,3.91,2.55,5.75,6.21,5.35,10.8-.41,4.65-.89,9.32-1.77,13.89-1.49,7.76-6.53,12.2-14.11,13.96-3.87.9-7.79,1.12-11.74,1.12-18.93,0-37.85,0-56.78,0-.29,0-.58,0-1,0,.18-1.51.35-2.94.53-4.36.69-5.4,1.4-10.79,2.07-16.19.25-2.03.21-2.04,2.26-2.04,17.38,0,34.77,0,52.15,0,.41,0,.81,0,1.28,0,.43-3.43.85-6.73,1.29-10.17h-44.93c.76-6.47,1.5-12.81,2.26-19.27h44.93c.44-3.11.86-6.08,1.3-9.2h-55.68c.95-7.8,1.87-15.44,2.8-23.13.32-.02.58-.06.84-.06,20.56.01,41.11.02,61.67.06,2.73,0,5.46.19,8.09,1.01,5.31,1.66,8.63,5.11,9.49,10.71.03.17.12.33.18.49v4.8Z"/>
  <path class="cls-1" d="M262.25,207.46c1.61.24,3.23.4,4.81.75,4.74,1.04,8.6,3.35,10.74,7.91,1.37,2.91,1.69,6.02,1.44,9.19-.14,1.8-.44,3.58-.61,5.38-.05.52-.27.66-.73.63-.24-.02-.47,0-.71,0-54.82,0-109.64,0-164.46,0h-1.41c.19-1.49.31-2.87.55-4.22.39-2.27.6-4.61,1.33-6.77,2.09-6.11,6.63-9.73,12.67-11.55,1.94-.58,4-.77,6.01-1.14.32-.06.63-.12.95-.18,43.14,0,86.28,0,129.41,0Z"/>
  <path class="cls-1" d="M351.08,207.46c1.16.19,2.34.33,3.49.56,4.47.91,8.26,2.89,10.66,6.96,1.11,1.89,1.69,3.96,1.93,6.13.38,3.39-.1,6.72-.6,10.09h-82.15c.18-1.51.35-2.99.54-4.47.69-5.51,1.39-11.03,2.09-16.54.11-.91.21-1.82.32-2.73,21.24,0,42.49,0,63.73,0Z"/>
  <path class="cls-1" d="M108.45,207.46c-.24,1.78-.51,3.57-.73,5.35-.64,5.17-1.27,10.33-1.9,15.5-.09.76-.2,1.53-.25,2.29-.04.51-.25.76-.78.71-.21-.02-.41,0-.62,0-24.35,0-48.7,0-73.05,0-.41,0-.82,0-1.36,0,.16-1.4.29-2.68.45-3.96.69-5.72,1.4-11.45,2.09-17.17.11-.91.21-1.82.32-2.73,25.28,0,50.56,0,75.83,0Z"/>
  <path class="cls-1" d="M162.9,260.05c-.46,0-.84,0-1.22,0-12.31,0-24.62,0-36.93,0-2.34,0-4.62-.28-6.78-1.18-4.81-1.98-7.24-5.79-7.84-10.77-.27-2.21-.03-4.48-.05-6.72,0-.76.31-.99,1.07-.98,6.85.03,13.7.02,20.56.02,13.41,0,26.81,0,40.22,0,3.19,0,6.33.37,9.33,1.54,5.73,2.24,8.77,6.47,9.44,12.53.36,3.28-.15,6.5-.57,9.72-.55,4.19-1.13,8.38-1.84,12.55-1.19,6.95-5.57,11.23-11.97,13.66-3.47,1.32-7.09,1.94-10.79,1.94-20.08.03-40.16.01-60.24.01-.38,0-.76,0-1.34,0,.91-7.52,1.81-14.96,2.72-22.49h1.19c17.62,0,35.24,0,52.86.02.84,0,1.16-.15,1.24-1.08.24-2.65.63-5.28.96-7.93.03-.23,0-.47,0-.84Z"/>
  <path class="cls-1" d="M104.42,240.49c-.23,1.9-.44,3.71-.68,5.52-.57,4.37-1.17,8.73-1.69,13.11-.09.79-.36.95-1.09.95-15.1-.02-30.2,0-45.29-.04-.89,0-1.22.25-1.32,1.13-.31,2.79-.71,5.57-1.06,8.36-.01.11.01.23.03.45h47.4c-.94,7.58-1.87,15.04-2.81,22.53H22.18c2.12-17.37,4.24-34.68,6.36-52h75.89Z"/>
  <path class="cls-1" d="M192.07,292.37c2.12-17.32,4.23-34.51,6.35-51.77h79c-.2,1.64-.33,3.23-.62,4.78-.36,1.97-.62,4.01-1.35,5.85-1.98,4.95-5.97,7.49-11.07,8.42-1.53.28-3.12.37-4.68.38-11.36.03-22.72.03-34.08,0-.89,0-1.25.15-1.37,1.16-1.13,9.57-2.34,19.14-3.53,28.71-.1.82-.23,1.63-.35,2.48h-28.3Z"/>
  <path class="cls-1" d="M277.04,292.42c.14-1.23.27-2.48.42-3.73.76-6.22,1.52-12.45,2.28-18.67.81-6.55,1.62-13.09,2.43-19.63.38-3.05.76-6.1,1.1-9.16.06-.59.23-.82.85-.82,8.93.02,17.85.01,26.78.01.17,0,.35.03.71.06-2.12,17.3-4.23,34.57-6.36,51.94h-28.21Z"/>
  <path class="cls-1" d="M330.8,292.47c.14-1.19.26-2.35.41-3.52.88-7.01,1.76-14.02,2.64-21.03.92-7.3,1.86-14.61,2.78-21.91.2-1.61.41-3.23.58-4.84.05-.48.17-.76.74-.76,9.04.01,18.09.01,27.13.02.09,0,.17.04.36.08-.12,1.07-.22,2.14-.36,3.21-1.05,8.48-2.1,16.96-3.14,25.44-.92,7.48-1.82,14.97-2.72,22.46-.06.48-.14.81-.77.81-9.07.02-18.15.07-27.22.11-.11,0-.23-.03-.43-.07Z"/>
</svg>