<?xml version="1.0" encoding="UTF-8"?>
<svg id="Layer_1" data-name="Layer 1" xmlns="http://www.w3.org/2000/svg" viewBox="0 0 500 500">
  <defs>
    <style>
      .cls-1 {
        fill: #c00;
        stroke-width: 0px;
      }
    </style>
  </defs>
  <path class="cls-1" d="M419.59,242.69h48.44c11.48,0,14.9,3.27,13.68,12.72l-1.53,14.64c-.95,7.21-7.33,12.77-16.56,12.77h-48.18l2.01-17.48h42.72l.75-7.69h-22.58c-11.03,0-19.2-.53-19.2-11.37l.35-3.58h.11ZM486.29,217.24h-43.31c-13.01,0-20.77,3.3-21.8,12.97l-.77,5.51h63.84l1.89-18.49h.15ZM278.38,242.57h56.27l-1.79,15.12h-35.13l-.83,7.55h35.13l-2.06,17.48h-56.22l4.64-40.14h0ZM358.09,235.58l-.98-18.43h-76.12l-2.06,18.49,79.14-.05h.01ZM396.88,235.58l5.25-18.43h19.5l-4.93,18.43h-19.83,0ZM364.24,235.58l5.68-18.43h19.06l1.75,18.43h-26.59.1ZM375.36,258.13l2.56,24.67h25.66l11.15-40.21h-19.72l-2.81,10.21-.87-10.21h-29.28l-3.11,10.21-.5-10.21h-19.8l2.6,40.26h26.35l7.71-24.69.05-.02ZM210.5,235.61l2.06-18.44h45.01c17.13,0,17.9,5.92,16.84,18.44h-63.92ZM268.92,282.83h-21.17l4.51-40.23h21.23l-4.73,40.23h.17ZM209.72,242.59h21.23l-4.63,40.16h-21.08l4.48-40.16h0ZM77.83,242.69h48.42c11.51,0,14.97,3.22,13.76,12.72l-1.63,14.63c-.8,7.21-7.24,12.77-16.44,12.77h-48.18l2.01-17.48h42.72l.72-7.71h-22.58c-10.93,0-19.19-.52-19.19-11.36l.37-3.58h.03ZM145.07,242.69h61l-.27,2.32c-.92,8.66-2.89,12.78-14.41,12.78h-26.78l-2.91,25.03h-21.16l4.52-40.14h0ZM207.56,235.72l.54-5.05c1.11-9.65-6.84-13.44-12.65-13.44h-94.23c-13.01,0-20.83,3.29-21.92,12.97l-.61,5.51h128.89-.01ZM18.21,242.69h56.32l-1.67,15.11h-35.22l-.77,7.55h35.08l-2.08,17.48H13.71l4.51-40.14h0ZM20.99,217.26h56.51l-1.94,18.49H19.02l1.97-18.49h0Z"/>
</svg>