<?xml version="1.0" encoding="UTF-8"?>
<svg id="Layer_1" data-name="Layer 1" xmlns="http://www.w3.org/2000/svg" viewBox="0 0 500 500">
  <defs>
    <style>
      .cls-1 {
        fill: #fff;
      }

      .cls-1, .cls-2, .cls-3 {
        stroke-width: 0px;
      }

      .cls-2 {
        fill: #231f20;
      }

      .cls-3 {
        fill: #c00;
      }
    </style>
  </defs>
  <path class="cls-2" d="M448.65,296.05l-26.3-59.8,26.22-59.75h-73.67v-31.32h28.33V53.45h-143.14v91.51l13.99-.02s-.02,12.6-.07,31.57h-50.8v-31.57l13.41.02V53.45H97.21v91.73h25.12v31.32H51.42l26.22,59.75-26.3,59.8h70.98v89.57l60.19,60.93h132.2l60.19-60.93v-89.57h73.74"/>
  <path class="cls-3" d="M345.9,116.17h28.33v-33.68h-86.43v33.64l14.42-.02.1,60.4h43.59v-60.35h0ZM302.62,365.67l-19.78,18.7h-70l-18.68-18.7.14-69.62h-42.92v77.64l43.3,43.83h107.94l43.3-43.83v-77.64h-43.42l.12,69.62M194.57,176.52l.14-60.4h14.25v-33.62h-82.7v33.68h25.12v60.35h43.18Z"/>
  <path class="cls-1" d="M166.55,271.85l2.28-19.23-38.56-.05,1.08-8.19,38.61-.05,2.2-16.79h-62.39l-5.32,44.31h62.1M370.71,227.82l-5.56,43.9h23.52l5.56-43.9h-23.52M348.49,227.82h-24.23l-6.01,43.78h23.95l6.3-43.78M306.51,244.05c7.3,0,10.44-4.81,11.47-9.94.48-2.49,1.13-6.3,1.13-6.3h-66.84l-5.58,43.92h23.49l3.9-27.68h32.43M175.06,252.62l-2.3,19.11s50.58.07,51.97,0c1.7-.14,10.71,1.27,16.72-9.12,2.25-3.88,3.5-13.87,3.76-19.04.55-11.47-6.49-16.02-14.82-16.09-4.12-.05-41.07-.05-53.24.07-1.82,11.57,4.6,16.21,11.11,16.45,4.65.19,33.43.12,33.43.12l-.84,8.45-45.79.05M327.79,199.43l-2.44,20.38,70.15.07c0-.17.05-.84.26-3.19,1.25-13.39-7.09-17.27-15.35-17.32-12.86-.05-52.61.05-52.61.05M395.5,219.88h-.02c0,.12.02,0,.02,0M179.07,213.23c-.45,3.09-.96,6.59-.96,6.59l141.95.07s.74-3.74.67-7.14c-.17-7.28-5.72-12.88-12.74-13-6.92-.1-99.56,0-111.12,0-9.36,0-16.96,7.81-17.79,13.48M173.08,219.82l2.3-20.29-61.95-.02-2.56,20.31h62.22"/>
</svg>