<?xml version="1.0" encoding="UTF-8"?>
<svg id="Layer_1" data-name="Layer 1" xmlns="http://www.w3.org/2000/svg" viewBox="0 0 500 500">
  <defs>
    <style>
      .cls-1 {
        fill: #c00;
        stroke-width: 0px;
      }
    </style>
  </defs>
  <path class="cls-1" d="M174.2,196.19c-16.24-.02-26.99,8.54-28.5,21.33-.56,4.71-1.09,8.87-1.09,8.87h211.25s.4-3.12.71-5.62c1.59-12.89-3.89-24.58-23.81-24.58h0s-149.99,0-158.55,0h0ZM45.28,196.19l-3.71,30.2h95.8l3.69-30.2H45.28s0,0,0,0ZM366.87,196.19l-3.7,30.2h103.86s.13-1.09.59-4.65c2.53-19.82-10.26-25.55-22.61-25.55h-78.14s0,0,0,0ZM361.74,237.89l-8.09,65.91h35.83s8.1-65.9,8.1-65.9h-35.84s0-.01,0-.01ZM429.81,237.89l-8.11,65.91h35.83s8.1-65.9,8.1-65.9h-35.83s0-.01,0-.01ZM40.17,237.9l-8.11,65.9h95.8l3.53-28.59h-59.99s1.52-12.33,1.52-12.33h59.96l3.07-24.98H40.17ZM143.21,237.9c-2.63,17.2,5.98,24.98,18.18,24.98,6.64,0,48.47-.02,48.47-.02l-1.51,12.35h-69.72s-3.51,28.6-3.51,28.6c0,0,75.9.03,78.97,0,2.54-.18,20.29-.67,26.34-15.19,1.96-4.71,3.69-21.62,4.18-25.17,2.79-20.61-11.48-25.52-22.72-25.52-6.2,0-66.46-.02-78.69-.02ZM254.73,237.9l-8.09,65.9h35.81l5.04-40.92h44.98c12.76,0,19.61-6.86,20.89-16.07.64-4.65,1.1-8.91,1.1-8.91h-99.74Z"/>
</svg>