<?xml version="1.0" encoding="UTF-8"?>
<svg id="Layer_1" data-name="Layer 1" xmlns="http://www.w3.org/2000/svg" viewBox="0 0 500 500">
  <defs>
    <style>
      .cls-1 {
        fill: #c00;
        stroke-width: 0px;
      }
    </style>
  </defs>
  <path class="cls-1" d="M387.93,288.61c.5-4.62.97-9.29,1.52-13.94.92-7.78,1.9-15.54,2.84-23.32.87-7.24,4.45-10.47,11.71-10.47,9.75,0,19.49,0,29.24,0,1.09,0,2.17,0,3.58,0,.29-3.24.55-6.19.85-9.54h-43.09c.85-7.24,1.65-14.06,2.5-21.28,1.26,0,2.33,0,3.4,0,17.98,0,35.97,0,53.95,0,1.2,0,2.42.01,3.61.13,6.63.66,9.57,4.44,8.84,11.03-1.01,9.08-1.94,18.17-2.82,27.26-.65,6.7-4.27,10.12-11.01,10.13-10.05,0-20.1.05-30.14-.08-2.45-.03-3.76.43-3.65,3.22.08,1.97-.34,3.96-.58,6.42h43.41c-.66,6.65-1.21,12.83-1.96,18.98-.09.71-1.32,1.82-2.03,1.83-23.01.08-46.02.05-69.02.03-.28,0-.55-.18-1.16-.39Z"/>
  <path class="cls-1" d="M116.29,232.21c.81-6.89,1.16-13.28,6.08-18.31,3.06-3.13,6.6-4.86,10.94-4.86,44.41-.01,88.81-.02,133.22,0,7.46,0,12.74,5.11,13.13,12.47q.56,10.7-10.09,10.7c-49.93,0-99.87,0-149.8,0h-3.48Z"/>
  <path class="cls-1" d="M110.23,290.99c.79-7.77,1.54-15.13,2.32-22.79,1.06-.05,2.04-.13,3.01-.13,15.17-.06,30.35-.21,45.52-.07,3.21.03,4.89-.71,4.97-4.07.03-1.29.32-2.57.56-4.33-1.24,0-2.29-.01-3.34,0-11.35.15-22.7.33-34.05.45-9.27.09-12.54-2.73-13.85-11.78-.06-.4-.15-.79-.2-1.19-.82-6.34-.55-6.64,5.77-6.64,20.8,0,41.6,0,62.4,0,6.61,0,11.83,4.31,11.6,10.95-.31,8.7-1.02,17.5-2.82,25.99-1.92,9.1-8.77,13.6-18.04,13.61-20.1,0-40.19,0-60.29,0-1.07,0-2.15,0-3.55,0Z"/>
  <path class="cls-1" d="M108.41,267.73c-.94,8.07-1.8,15.43-2.69,23.03H33c.82-8.17,1.62-16.14,2.44-24.12.79-7.69,1.63-15.38,2.4-23.08.2-2,.65-3.2,3.19-3.19,22.71.11,45.43.07,68.14.08.78,0,1.56.14,2.59.23-.84,6.74-1.65,13.27-2.5,20.08-1.3.06-2.48.16-3.65.16-11.76,0-23.52,0-35.28,0q-4.53,0-5.28,4.58c-.09.58-.12,1.17-.22,2.23h43.57Z"/>
  <path class="cls-1" d="M222.62,290.86h-28.07c.45-4.61.85-9.06,1.32-13.5,1.16-11.08,2.42-22.16,3.48-33.25.25-2.62.91-3.76,3.91-3.74,23.61.13,47.22.07,70.83.07,1.08,0,2.17,0,3.19,0,1.79,9.25-5.91,18.91-14.87,18.94-11.05.04-22.1.06-33.15-.06-2.46-.03-3.47.52-3.69,3.22-.71,8.91-1.75,17.78-2.67,26.67-.05.48-.16.96-.27,1.64Z"/>
  <path class="cls-1" d="M364.55,232h-82.38c.81-7.69,1.6-15.14,2.41-22.81,1.17-.06,2.14-.15,3.11-.15,21.4,0,42.81-.1,64.21.1,2.95.03,6.2,1.04,8.73,2.56,1.81,1.09,3.51,3.69,3.76,5.79.55,4.73.17,9.57.17,14.51Z"/>
  <path class="cls-1" d="M115.54,209.49c-.84,7.13-1.61,14.2-2.64,21.23-.09.63-1.9,1.42-2.92,1.43-10.34.1-20.68.06-31.02.06-11.95,0-23.89,0-35.84,0h-3.8c.3-3.54.54-6.77.86-10,.36-3.69.83-7.38,1.13-11.08.12-1.48.59-2.12,2.17-2.12,23.69.05,47.38.06,71.07.09.18,0,.36.14.97.38Z"/>
  <path class="cls-1" d="M363.21,240.65c-2.02,16.84-4.02,33.43-6.03,50.17h-28.12c.42-4.31.8-8.46,1.23-12.61,1.2-11.57,2.46-23.14,3.62-34.72.21-2.12.76-3.16,3.24-3.11,7.73.17,15.46.05,23.19.06.87,0,1.74.12,2.88.21Z"/>
  <path class="cls-1" d="M309.84,240.45c-2.08,17.08-4.1,33.68-6.12,50.33h-27.96c.51-5.31.97-10.38,1.5-15.45,1.14-10.79,2.28-21.57,3.53-32.34.11-.9,1.09-2.42,1.68-2.43,8.92-.16,17.85-.11,27.36-.11Z"/>
</svg>