<?xml version="1.0" encoding="UTF-8"?>
<svg id="Layer_1" data-name="Layer 1" xmlns="http://www.w3.org/2000/svg" viewBox="0 0 500 500">
  <defs>
    <style>
      .cls-1 {
        fill: #19315a;
      }

      .cls-1, .cls-2 {
        stroke-width: 0px;
      }

      .cls-2 {
        fill: #fff;
      }
    </style>
  </defs>
  <path class="cls-1" d="M27.77,139.94h444.46v220.12H27.77s0-220.12,0-220.12Z"/>
  <path class="cls-2" d="M394.71,177.72c-8.89,0-17.78.04-26.67.02-10.23,10.12-20.56,20.12-30.7,30.29-.54.55-.33,1.38-.39,2.06.03,5.32-.03,10.64.03,15.96,12.83.01,25.66.04,38.46-.01-.36.56-.81,1.09-1.28,1.55-2.48,2.34-4.8,4.82-7.31,7.12-.18,3.26-.03,6.53-.09,9.79.03,26.05-.06,52.1.06,78.15,18.2-.08,36.4.03,54.6-.06,0-48.26-.03-96.52,0-144.78-8.89-.09-17.78-.1-26.7-.09ZM102.94,177.73c-8.12,0-16.25,0-24.36.08.02,48.26,0,96.53,0,144.79,16.14.04,32.28.04,48.43,0-.11-16.39-.03-32.78-.04-49.17-2.58-2.44-4.86-5.17-7.52-7.54.6-.07,1.2-.11,1.81-.13,17.6.02,35.2-.01,52.79.02.78-.04,1.62.1,2.38-.17.16-10.35-.02-20.69.09-31.05-16.48-.13-32.97-.06-49.45-.04-.18-8.63-.16-17.28-.01-25.91,16.74.04,33.5.13,50.24-.05,5.96-6.25,12.35-12.1,18.3-18.37,4.15-4.16,8.4-8.22,12.48-12.44-26.92-.04-53.84,0-80.76-.02-8.12.02-16.25,0-24.37,0ZM272.8,177.73c-14.24,0-28.48,0-42.71.08-6.53,6.75-13.35,13.22-19.94,19.9-4.14,4.13-8.42,8.12-12.41,12.38-.18,7.18,0,14.38-.1,21.57.21,2.45-.21,4.91.02,7.37.24,2.89-.01,5.79.13,8.67,5.8,6.17,12.03,11.96,17.85,18.11,16.09.07,32.19,0,48.28.04,1.04-.12,1.54.98,2.26,1.53.57.73,1.7,1.26,1.59,2.32,0,5.78-.01,11.56,0,17.34-1.32,1.27-2.64,2.54-3.87,3.9-.22.11-.66.32-.87.43-15.14-.05-30.29-.07-45.43.01-8.22,8.47-16.75,16.65-25.1,25.01.02,2.07.03,4.14,0,6.21,34.26.04,68.52,0,102.78,0,6.84-6.9,13.82-13.68,20.68-20.56,0-16.54.04-33.08,0-49.61-2.58-3.06-5.64-5.71-8.43-8.59-3.31-3.11-6.41-6.45-9.73-9.57-16.29.01-32.58.01-48.87,0-1.07-1.43-3.29-2.4-3.02-4.46.07-5.71-.09-11.42.08-17.12,1.23-1.13,2.35-2.37,3.54-3.54.36-.41.82-.58,1.38-.52,17.55,0,35.09,0,52.64,0,3.96-3.7,7.91-7.43,11.86-11.13.24-6.58.02-13.19.1-19.79-14.24.03-28.48,0-42.72,0h0Z"/>
</svg>