<?xml version="1.0" encoding="UTF-8"?>
<svg id="Layer_1" data-name="Layer 1" xmlns="http://www.w3.org/2000/svg" viewBox="0 0 500 500">
  <defs>
    <style>
      .cls-1 {
        fill: #fff;
      }

      .cls-1, .cls-2 {
        stroke-width: 0px;
      }

      .cls-2 {
        fill: #183059;
        fill-rule: evenodd;
      }
    </style>
  </defs>
  <g id="g3047">
    <path id="rect3540" class="cls-2" d="M27.77,139.24h444.46v221.52H27.77v-221.52Z"/>
    <path id="path3543" class="cls-1" d="M115.08,326.01v-50.8l-6.96-7.7h57.35v-32.11h-50.39v-26.58h51.93l30.79-32.16H66.3v149.36h48.78Z"/>
    <path id="path3545" class="cls-1" d="M287.24,325.82h-105.12v-6.12l25.76-25.87h46.63l4.43-4.4v-18.61l-3.59-3.61-50.1-.08-17.87-17.69v-39.58l33.07-33.12h86.17v20.37l-11.52,11.74h-55.36l-3.76,4.44v18.7l3.42,3.44h50.35l17.79,18.7v51.48l-20.29,20.21Z"/>
    <path id="path3020" class="cls-1" d="M437.15,326.08h-107.98v-68.22l16.76-17.15h47.56l4.29-4.68v-27.29l-3.51-2.73h-21.83l-3.12,3.12v13.64h-39.76v-25.34l20.27-21.05h67.05l20.27,21.83v56.14l-16.37,16.76h-61.59l11.31,10.53v12.08h67.05l-.39,32.36Z"/>
    <g id="text3022">
      <path id="path3027" class="cls-1" d="M445.38,325.69v-8.04h-3v-1.08h7.22v1.08h-3.02v8.04h-1.21Z"/>
      <path id="path3029" class="cls-1" d="M450.8,325.69v-9.11h1.82l2.16,6.45c.2.6.34,1.05.44,1.35.1-.33.27-.82.48-1.46l2.18-6.34h1.62v9.11h-1.16v-7.63l-2.65,7.63h-1.09l-2.64-7.76v7.76h-1.16Z"/>
    </g>
  </g>
</svg>