<?xml version="1.0" encoding="UTF-8"?>
<svg id="Layer_1" data-name="Layer 1" xmlns="http://www.w3.org/2000/svg" viewBox="0 0 500 500">
  <defs>
    <style>
      .cls-1 {
        fill: #fff;
      }

      .cls-1, .cls-2, .cls-3 {
        stroke-width: 0px;
      }

      .cls-2 {
        fill: #1d1e4d;
      }

      .cls-3 {
        fill: #d03238;
      }
    </style>
  </defs>
  <path class="cls-3" d="M16.25,0v259l231.1,241,236.4-241V0H16.25ZM474.65,257.4l-227.1,231.6L25.45,257.4V8.4h449.2v249h0Z"/>
  <path class="cls-1" d="M25.45,257.4l222.1,231.7,227.1-231.7V8.4H25.45v249ZM37.15,18.3h425.7v235.9l-215.2,219.6L37.15,254.2V18.3Z"/>
  <path class="cls-2" d="M382.65,101.6h-7.1l.1,29.4h7c10.6,0,16-4.8,16-14.7,0-1.7-.1-3.5-.6-5-1.6-6.4-6.7-9.7-15.4-9.7"/>
  <path class="cls-2" d="M308.75,175.4c-5.6,0-8.4,3.4-8.4,10.1,0,6.3,2.8,9.5,8,9.5,2.9,0,5.1-.8,6.3-2.3,1.3-1.6,1.9-4.5,1.9-8.5,0-5.9-2.6-8.8-7.8-8.8"/>
  <path class="cls-2" d="M382.75,62.4h-7.1l-.1,22.6h7c10.6,0,16-3.9,16.1-11.3,0-1.2-.2-2.3-.4-3.3-1.3-5.2-6.6-8-15.5-8"/>
  <path class="cls-2" d="M367.25,175.4h-7.9v6.6h7.3c2.2,0,4-.3,5.3-.9,1.3-.5,1.9-1.4,1.9-2.4,0-2.3-2.2-3.3-6.6-3.3"/>
  <path class="cls-2" d="M462.85,254.2v-26.5l-.1,26.4-116.7,118.9-41.9-.2v-.1l-126.5.1-.1-.1h.3c-2.7-4.8-5.8-10.2-6.7-11.7h-12.8c0-33.2,10.9-51.8,23.8-55.4,1.9-.4,1.1-9.6-1.3-12.3,0,0-6.2.1-7.5-.2-1.6-.5-.5-2.1-.5-2.1l5.9-13.6-.7-3.9h-22.4c-.4,0,18.4-13.4,18.4-13.4.9-35.3,35.9-38,57-23.5,12.5,8.7,13.4,25.7,12.6,37.6-.3.7-3.5.3-3.5.3,0,0-2.1,12.8,3.5,12.8h24.6c9.9-.3,19.7,6.7,19.7,6.7l2.4-8.8-53.8-72.4,25.7.1h200.5V18.3H37.15v235.9l210.5,219.6,215.2-219.6ZM160.75,176.3v-8.1h39.3v8.1h-11.4v26h-16.4v-26h-11.5ZM327.75,197.9c-5.1,3.3-11.4,4.8-19.2,4.8s-14.2-1.6-19.3-4.7c-4.9-3.3-7.4-7.5-7.4-12.9,0-5,2.3-9.3,7.2-12.5,4.6-3.4,11.3-5,19.6-5,7.7,0,14,1.6,19,4.7,4.8,3.2,7.3,7.4,7.3,12.6,0,5.3-2.4,9.7-7.2,13M372.95,202.2l-8.3-13h-5.4v13h-17.1v-34.1h29.2c6.5,0,11.5,1,14.9,2.8,3.7,1.8,5.3,4.3,5.3,7.3,0,2-.6,3.7-1.9,5.3-1.2,1.5-3.8,2.8-7.9,3.9l10.2,14.9h-19v-.1ZM431.65,202.2l-9.6-12.9-5.8,5.1v7.8h-16.2v-34.1h16.2v14.1l15.4-14.1h15.4l-14.2,12.5,17.5,21.6h-18.7ZM326.65,36.6h89c17.4,0,27.6,6.2,30.8,18.8.9,2.8,1.1,6.1,1.1,9.5,0,18.9-7.8,28.3-23.5,28.3,11.6,0,19,5.8,22,17.5,1.1,4.1,1.5,8.7,1.6,14.2-.1,21.2-10.7,31.8-32.1,31.8h-89.1l.2-120.1ZM260.55,36.6v94.4h56.5l-.1,25.8h-105.5l-.3-120.1,49.4-.1ZM222.15,168.1l7.8,19.6,7.7-19.6h13.4l8.4,19.7,7.8-19.7h13l-14.8,34.1h-14.4l-7.7-18.8-7.4,18.8h-14.9l-15-34.1h16.1ZM102.05,202.2h-13.9l-15.4-15c-1.9-2-3.9-4.3-5.9-7.1.9,2.2,1.3,4,1.3,5.5v16.6h-13.8v-34.1h16.1l13,12.5c2.5,2.5,4.5,4.7,5.8,6.6-.9-2.9-1.2-5.9-1.2-9v-10.1h14v34.1ZM104.15,156.8h-49.1l.1-120.2h49l24.4,48.3,24.5-48.3h48.8l-.1,120.2h-48.9l.1-64.4-24.6,48.1-24.3-48.1v64.4h.1ZM111.75,168.1h42v7.8h-25.1v5h20.2v7.6h-20.2v5.5h25.1v8.2h-42v-34.1ZM171.55,381.1h152.8l-77.2,78.8-75.6-78.8Z"/>
  <path class="cls-1" d="M171.45,381.1l75.6,78.8,77.2-78.8h-152.8ZM186.35,386.7h124.1l-62.8,64-61.3-64Z"/>
  <polygon class="cls-3" points="186.35 386.7 247.65 450.6 310.45 386.7 186.35 386.7"/>
  <polygon class="cls-1" points="153.05 92.5 152.85 156.8 201.75 156.8 201.85 36.6 153.05 36.6 128.55 84.9 104.15 36.6 55.15 36.6 55.05 156.8 104.15 156.8 104.15 92.5 128.45 140.6 153.05 92.5"/>
  <polygon class="cls-1" points="316.95 156.8 317.05 131 260.55 131 260.55 36.6 211.15 36.8 211.45 156.8 316.95 156.8"/>
  <path class="cls-1" d="M447.65,125c-.1-5.4-.5-10.1-1.6-14.2-2.9-11.7-10.3-17.5-22-17.5,15.7,0,23.5-9.5,23.5-28.3,0-3.5-.3-6.7-1.1-9.6-3.2-12.6-13.5-18.8-30.8-18.8h-89l-.1,120.2h89.1c21.3,0,31.9-10.6,32-31.8M382.65,131h-7l-.1-29.4h7.1c8.7,0,13.8,3.3,15.4,9.7.5,1.5.6,3.3.6,5,0,9.9-5.4,14.7-16,14.7M382.65,85.1h-7l.1-22.6h7.1c8.8,0,14.2,2.7,15.6,8,.2,1,.4,2.1.4,3.3-.2,7.4-5.6,11.3-16.2,11.3"/>
  <path class="cls-1" d="M88.15,178.3c0,3,.3,6.1,1.2,9-1.3-1.9-3.3-4.1-5.8-6.6l-13-12.5h-16.1v34h13.8v-16.6c0-1.5-.4-3.4-1.3-5.5,2.1,2.8,4,5,5.9,7.1l15.4,15h13.8v-34.1h-13.9v10.2Z"/>
  <polygon class="cls-1" points="153.75 194.1 128.75 194.1 128.75 188.6 148.95 188.6 148.95 180.9 128.75 180.9 128.75 176 153.75 176 153.75 168.1 111.75 168.1 111.75 202.2 153.75 202.2 153.75 194.1"/>
  <polygon class="cls-1" points="188.65 202.2 188.65 176.3 200.05 176.3 200.05 168.1 160.75 168.1 160.75 176.3 172.25 176.3 172.25 202.2 188.65 202.2"/>
  <polygon class="cls-1" points="235.85 202.2 243.25 183.4 250.95 202.2 265.45 202.2 280.15 168.1 267.15 168.1 259.35 187.8 250.95 168.1 237.55 168.1 229.95 187.7 222.15 168.1 206.05 168.1 220.95 202.2 235.85 202.2"/>
  <path class="cls-1" d="M327.75,172.3c-5-3.1-11.3-4.7-19-4.7-8.4,0-15,1.7-19.6,5-4.9,3.2-7.2,7.5-7.2,12.5,0,5.4,2.5,9.6,7.4,12.9,5.1,3.1,11.4,4.7,19.3,4.7s14.1-1.6,19.2-4.8c4.8-3.3,7.3-7.7,7.3-13-.2-5.2-2.6-9.4-7.4-12.6M314.65,192.8c-1.3,1.5-3.4,2.3-6.3,2.3-5.3,0-8-3.2-8-9.5,0-6.7,2.9-10.1,8.4-10.1,5.2,0,7.8,2.9,7.8,8.9,0,3.9-.6,6.7-1.9,8.4"/>
  <path class="cls-1" d="M389.65,183.4c1.3-1.6,1.9-3.3,1.9-5.3,0-3-1.7-5.5-5.3-7.3-3.5-1.8-8.5-2.8-14.9-2.8h-29.2v34.1h17.1v-13h5.4l8.3,13h19l-10.2-14.9c4.1-1,6.7-2.2,7.9-3.8M371.95,181.1c-1.3.6-3.1.9-5.3.9h-7.3v-6.6h7.9c4.4,0,6.6,1,6.6,3.3,0,1-.6,1.9-1.9,2.4"/>
  <polygon class="cls-1" points="446.95 168.1 431.55 168.1 416.15 182.2 416.15 168.1 399.95 168.1 399.95 202.3 416.15 202.3 416.15 194.4 421.95 189.3 431.65 202.3 450.35 202.3 432.85 180.6 446.95 168.1"/>
  <path class="cls-1" d="M330.75,361.5c6.7-.7,14-13,15.9-20.2.9-2.8-3.2-4.8-6.1-9.5-2.1-3.4-2.6-9.7-6.3-11.2-5.5-2.2-11.5-8-11.5-8v-6.9c0-.1-2.7-3.2-2.7-3.2l-2.9-.5v-3.1l-2.3-3.6-2.8-.5v-3.3l-2.3-3.3-3.9-.5-43.2-74.8-25.7-.1,53.8,72.4-2.4,8.8s-9.8-7-19.7-6.7h-24.6c-5.6,0-3.5-12.8-3.5-12.8,0,0,3.2.4,3.5-.3.8-11.9-.1-28.9-12.6-37.6-21.1-14.5-56.1-11.8-57,23.5,0,0-18.8,13.4-18.4,13.4h22l.7,3.9-5.9,13.6s-1.1,1.6.5,2.1c1.3.3,7.5.2,7.5.2,2.3,2.7,3.1,11.9,1.3,12.3-12.8,3.6-23.8,22.1-23.8,55.4h12.9c.9,1.5,4.1,7,6.7,11.7h-.3l.1.1,126.5-.1-.1-11.1h26.6v-.1Z"/>
  <path class="cls-3" d="M262.45,212.8l43.2,74.8,3.9.5,2.3,3.3v3.3l2.8.5,2.3,3.5v3.1l2.9.5s2.7,3.1,2.7,3.2v6.9s6,5.9,11.5,8c3.7,1.5,4.3,7.9,6.3,11.2,2.9,4.8,7,6.7,6.1,9.5-1.9,7.2-9.2,19.6-15.9,20.2h-26.6l.1,11.1v.1l41.9.2,116.7-118.9.1-26.4v-14.8h-200.3v.2Z"/>
  <polygon class="cls-1" points="336.15 396.4 334.55 396.4 334.55 395.2 339.45 395.2 339.45 396.4 337.85 396.4 337.85 401.2 336.15 401.2 336.15 396.4"/>
  <polygon class="cls-1" points="340.05 395.2 342.45 395.2 343.45 398.1 344.35 395.2 346.65 395.2 346.65 401.2 345.05 401.2 345.05 397 344.95 397 343.75 401.2 342.65 401.2 341.35 397 341.35 401.2 340.05 401.2 340.05 395.2"/>
</svg>