<?xml version="1.0" encoding="UTF-8"?>
<svg id="Layer_1" data-name="Layer 1" xmlns="http://www.w3.org/2000/svg" viewBox="0 0 500 500">
  <defs>
    <style>
      .cls-1 {
        fill: #f6102d;
      }

      .cls-1, .cls-2, .cls-3 {
        stroke-width: 0px;
      }

      .cls-2 {
        fill: #fff;
      }

      .cls-3 {
        fill: #1d489a;
      }
    </style>
  </defs>
  <g>
    <path class="cls-2" d="M499.99,67.77v364.47c0,33.63-27.35,60.9-60.97,60.9H60.93C27.34,493.15,0,465.86,0,432.25V67.78C0,34.18,27.32,6.86,60.92,6.86h378.13c33.62,0,60.94,27.3,60.94,60.91Z"/>
    <path class="cls-3" d="M172.65,415.8c-3.81-15.95-16.51-25.59-9.96-30.84-1.6-5.29-4.84-11.89-4.76-11.81-19.7-11.36-36.56-29.72-39.37-32.39-3.42-3.81-9.31-7.59-10.41-10.66-4.76-4.3-28.07-37.27-33.34-49.37l-9.49-1.35c-4.26-17.51-18.56-32.22-18.95-49.83-.1-6.64,3.01-20.83,4.14-23.66,1.17-2.85,6.66-7.59,6.66-7.59v-4.73c-20.58.61-14.62-1.5-18.19-9.48-2.48-5.53-.74-6.74.14-10.62,2.71-11.26,11.97-28.79,15.74-36.74,1.15-3.98,5.14-13.63,5.14-13.63,15.32-31.27,21.02-28.99,39.18-30.69l.96-1.31c18.25-.78,15.3-2.22,17.82-19.72-2.67,1.15-3.42-5.48-3.42-5.48-1.46-10.07,2.74-8.14,4.71-8.32.47-16.42,2.09-21.61,14.03-26.16H60.92c-20.08,0-36.39,16.28-36.39,36.37v364.47c0,20.13,16.33,36.41,36.4,36.41h118.49c-12.28-6.65-4.98-19.36-4.59-43.39-5.78-5.25-1.92-7.38-2.17-9.47Z"/>
    <path class="cls-1" d="M184.87,468.21c15.93-9.64,6.05-28.01,3.03-38.79-.23-.58.25-1.39.55-1.89.8-1.48-.92-4.92-.92-4.92-1.89-1.72-2.4-10.66-3.45-14.8-1.72-6.81,3.03-18.54,3.03-22.51s-3.03-9.47-8.53-16.48c-1.31-1.52-5.35-35.72-8.9-44.33-4.92-11.93-6.46-10.05-12.3-24.28-4.55-10.05-.97-24.81-11.16-59.1.04.16,2.24-2.07,2.24-2.07,0,0-8.18-29.77-10.79-37.91-2.67-8.14-7.4-8.69-7.4-8.69,0,0,.04-3.34.27-4.18.41-1.33,9.86-26.12,10.72-26.9.04-.57,13.76-9.9,14.02-8.51,1.13,6.05,6.44,36.93,8.71,41.87,2.27,4.92,10.23,20.08,13.92,29.45-14.21,3.44-24.79,16.26-24.79,31.55,0,17.93,14.54,32.44,32.46,32.44,13.7,0,25.45-8.49,30.22-20.46,2.53-8.52,2.53-16.46,0-23.81-1.04-2.71-2.4-5.17-4.24-7.61.02-4.86-5.23-4.84-6.66-6.6-1.31-1.62,1.33-2.46-7.77-4.57-1.7-.94-3.02-14.31-3.02-14.31-1.33-8.49-4.39-14.37-8.92-23.48-2.31-4.61-3.38-19.13-5.86-26.53,1.37-33.81-9.45-43.65-18.15-49.18-3.34-2.13-5.06-3.65-8.3-5.62l-.1-1.52c-2.58-2.48-7.73-5.05-11.99-6.95-1.23-1.31-.62-4.2.23-5.23,2.83-.41,6.64-6.83,9.88-13.49,2.38.16,3.24-2.3,4.1-3.61,2.57-4.29,5.37-7.96,1.74-10.48,8.33-14.83,2.97-24.87-1.45-25.26-1.91-3.69-5.02-6.05-10.62-8.04h294.38c20.13,0,36.41,16.27,36.42,36.36v364.46c0,18.29-13.18,33.3-30.6,35.97H184.87Z"/>
    <polygon class="cls-2" points="259.25 319.57 259.25 227.54 227.01 227.54 227.01 196.69 324.76 196.69 324.76 227.54 292.53 227.54 292.53 319.56 259.25 319.57"/>
    <polygon class="cls-2" points="464.82 196.68 400.29 319.56 336.23 196.69 375.3 196.68 400.29 250.24 425.42 196.68 464.82 196.68"/>
  </g>
  <g>
    <path class="cls-2" d="M47.42,387.83h12.32l8.68,29.98.39,2.17h.12v-32.15h10.89v54.56h-12.24l-8.83-31.77-.31-1.97h-.11v33.74h-10.91v-54.56h0Z"/>
    <path class="cls-2" d="M84.13,387.83h17.81c9.14,0,13.58,3.47,13.58,12.84,0,5.73-.8,10.78-6.89,12.83v.14c6.15,1.09,8.25,5.67,8.25,12.56,0,9.16-3.34,16.19-14.53,16.19h-18.22v-54.56h0ZM97.08,433.1h3.74c4.17,0,4.64-2.05,4.64-7.46,0-3.73-.48-7.37-4.37-7.37h-4.01v14.83ZM97.08,409.41h3.45c3.97,0,4.38-2.95,4.38-6.35,0-3.83-.81-5.96-3.9-5.96h-3.94v12.31h0Z"/>
    <path class="cls-2" d="M127.33,387.83h16.66l10.24,54.56h-13.18l-1.16-11.99h-8.82l-1.29,11.99h-12.57l10.12-54.56ZM135.51,397.33l-3.13,24.52h6.27l-2.86-24.52-.06-1.27h-.14l-.08,1.27Z"/>
  </g>
</svg>