<?xml version="1.0" encoding="UTF-8"?>
<svg id="Layer_1" data-name="Layer 1" xmlns="http://www.w3.org/2000/svg" xmlns:xlink="http://www.w3.org/1999/xlink" viewBox="0 0 500 500">
  <defs>
    <style>
      .cls-1 {
        fill: #0e88d3;
      }

      .cls-1, .cls-2, .cls-3, .cls-4, .cls-5, .cls-6, .cls-7, .cls-8, .cls-9 {
        stroke-width: 0px;
      }

      .cls-2 {
        fill: #c81a46;
      }

      .cls-3 {
        fill: #f25c19;
      }

      .cls-10 {
        clip-path: url(#clippath-2);
      }

      .cls-4 {
        fill: #fab20b;
      }

      .cls-5 {
        fill: none;
      }

      .cls-11 {
        clip-path: url(#clippath-1);
      }

      .cls-6 {
        fill: #fff;
      }

      .cls-7 {
        fill: #33b540;
      }

      .cls-8 {
        fill: #231f20;
      }

      .cls-12 {
        clip-path: url(#clippath);
      }

      .cls-13 {
        clip-path: url(#clippath-3);
      }

      .cls-9 {
        fill: #5f53ae;
      }
    </style>
    <clipPath id="clippath">
      <polygon class="cls-5" points="44.67 459.9 455.33 459.9 455.33 40.1 44.67 40.1 44.67 459.9 44.67 459.9"/>
    </clipPath>
    <clipPath id="clippath-1">
      <polygon class="cls-5" points="44.67 459.9 455.33 459.9 455.33 40.1 44.67 40.1 44.67 459.9 44.67 459.9"/>
    </clipPath>
    <clipPath id="clippath-2">
      <polygon class="cls-5" points="44.67 459.9 455.33 459.9 455.33 40.1 44.67 40.1 44.67 459.9 44.67 459.9"/>
    </clipPath>
    <clipPath id="clippath-3">
      <polygon class="cls-5" points="44.67 459.9 455.33 459.9 455.33 40.1 44.67 40.1 44.67 459.9 44.67 459.9"/>
    </clipPath>
  </defs>
  <g id="layer1">
    <g id="g422">
      <path id="path424" class="cls-8" d="M118.12,431.98h4.75v27.46h-4.04l-15.14-19.54v19.54h-4.75v-27.46h4.47l14.71,18.99v-18.99Z"/>
    </g>
    <g id="g426">
      <path id="path428" class="cls-8" d="M172,436.29h-15.53v7.13h13.77v4.32h-13.77v7.37h15.72v4.32h-20.54v-27.46h20.34s0,4.32,0,4.32Z"/>
    </g>
    <g id="g430">
      <path id="path432" class="cls-8" d="M206.62,459.44h-4.86v-22.99h-8.71v-4.47h22.27v4.47h-8.71v22.99Z"/>
    </g>
    <g id="g434">
      <path id="path436" class="cls-8" d="M251.01,431.9h4.07l6.76,20.43,6.53-20.36h5.08l-9.58,27.65h-4.16l-6.74-19.73-6.74,19.73h-4.16l-9.58-27.65h5.21l6.56,20.36,6.75-20.43Z"/>
    </g>
    <g id="g438">
      <g class="cls-12">
        <g id="g440">
          <g id="g446">
            <path id="path448" class="cls-8" d="M304.15,435.94c-5.43,0-9.25,4.35-9.25,9.73s3.89,9.81,9.33,9.81,9.25-4.35,9.25-9.73-3.88-9.81-9.33-9.81M304.15,459.9c-8.43,0-14.31-6.39-14.31-14.15s5.96-14.24,14.39-14.24,14.31,6.4,14.31,14.15c0,7.78-5.96,14.24-14.39,14.24"/>
          </g>
          <g id="g450">
            <path id="path452" class="cls-8" d="M353.15,436.37h-7.02v9.21h7.06c3.47,0,5.65-1.8,5.65-4.62,0-3.03-2.12-4.59-5.69-4.59M358.93,459.44l-6.75-9.57h-6.05v9.57h-4.83v-27.46h12.24c6.32,0,10.2,3.34,10.2,8.7,0,4.56-2.7,7.31-6.56,8.36l7.42,10.4s-5.68,0-5.68,0Z"/>
          </g>
          <g id="g454">
            <path id="path456" class="cls-8" d="M410.92,459.44h-5.84l-9.39-12.35-4.27,4.38v7.97h-4.83v-27.46h4.83v13.81l13.06-13.81h5.93l-11.42,11.81,11.94,15.65Z"/>
          </g>
          <g id="g458">
            <path id="path460" class="cls-8" d="M286.26,302.37c0-6.83-5.77-11.03-18.78-11.03h-29.35v22.36h30.17c11.21,0,17.96-3.48,17.96-11.03v-.29ZM279.84,261.71c0-6.69-5.94-10.46-16.65-10.46h-25.05v21.5h23.4c11.22,0,18.31-3.2,18.31-10.76,0,0,0-.28,0-.28ZM268.29,333.3h-54.9v-101.66h53.58c23.58,0,38.09,10.31,38.09,26.29v.29c0,11.47-6.93,17.86-15.16,21.94,13.34,4.5,21.58,11.32,21.58,24.97v.3c0,18.58-17.14,27.88-43.19,27.88"/>
          </g>
          <g id="g462">
            <path id="path464" class="cls-8" d="M103.66,333.26h25.06v-14.14c-6.87.68-15.65,2.07-25.06,4.64v9.49Z"/>
          </g>
          <g id="g466">
            <path id="path468" class="cls-8" d="M181.15,231.64v62.6l-54.08-62.6h-23.41v70.51c9.07-2.23,17.58-3.37,25.06-3.82v-29.66l55.89,64.62h21.59v-101.66s-25.05,0-25.05,0Z"/>
          </g>
        </g>
      </g>
    </g>
    <g id="g470">
      <g class="cls-11">
        <g id="g472">
          <g id="g478">
            <path id="path480" class="cls-8" d="M372.63,335.02c8.78-10.37,14.92-16.65,16.41-18.02,1.51-1.39,3.06-2.08,4.63-2.08,1.24,0,2.16.45,2.68.81.92.46,4.12,2.11,7.14,4.44,2.2,1.69,2.6,3.49,2.54,4.7-.03.76-.24,1.42-.53,1.99,4.75-2.75,9.03-6.1,13.14-9.97l-16.16-14.38c-9.07,7.27-17.16,11.92-30.35,11.92-19.79,0-33.48-14.53-33.48-31.96v-.29c0-17.44,14.02-31.67,33.48-31.67,11.55,0,20.63,4.36,29.52,11.47l16.17-16.4c-10.73-9.3-23.76-15.69-45.54-15.69-35.45,0-60.17,23.66-60.17,52.57v.29c0,29.2,25.22,52.28,59.18,52.28.46,0,.88-.02,1.33-.03"/>
          </g>
          <g id="g482">
            <path id="path484" class="cls-6" d="M260.9,59.98c4.12-6.76,10.98-13.79,18.34-16.75,12.65-5.81,29.69-3.34,40.06,5.81,10.02,9.08,15.11,21.51,12.72,35.43,2.48-.46,4.94-2.05,7.56-2.93,15.49-4.38,31.95.37,41.91,13.73,7.52,9.51,9.45,24.3,4.96,35.76-2.24,5.8-6.05,11.03-10.97,15.45l.51.48c14.47.71,28.68,11.94,33.09,25.73,4.72,13.9.55,28.75-9.63,38.9-8.32,8.19-18.95,11.06-30.83,10.8h-215.41c-17.71.39-31.37-7.46-38.74-23.18-5.76-13.52-2.94-30.79,7.89-41.05,6.74-7.14,15.27-10.06,24.48-11.51-10.38-9.63-15.43-22.86-12.5-37.01,2.12-11.48,11.89-23.09,23.1-27.09,9.91-3.93,23.3-3.24,32.37,2.1l.35-.38c-2.74-15.63,4.2-29.7,17.11-38.33,11.54-7.79,30.02-7.62,41.35.68,5.06,3.13,9.26,8.45,12.29,13.35"/>
          </g>
        </g>
      </g>
    </g>
    <g id="g486">
      <g class="cls-10">
        <g id="g488">
          <g id="g494">
            <path id="path496" class="cls-9" d="M321.91,65.82c4.58,9.31,1.94,21.56-2.95,29.94l-37.37,84.13-.31.36-13.55-85.32c-1.09-8.16,7.72-11.66,12.84-15.61-.23-1.2-1.6-1.15-2.44-1.7l-12.6-.14-.37-.4c.04-10.56,5.78-20.36,15.42-25.49,10.08-5.85,24.31-4.26,33.04,3.21,3.55,3.18,6.56,6.87,8.3,11.03"/>
          </g>
          <g id="g498">
            <path id="path500" class="cls-2" d="M253.04,62.87c3.03,5.65,4.83,12.09,3.73,19.18l-15.23,97.68c.06.16-.06.27-.2.32l-3.92-7.83-38.21-85.33c-3.57-11-.25-22.47,7.72-30.33,8.06-8.2,21.38-10.43,31.88-5.96,5.6,2.39,10.9,6.84,14.23,12.28"/>
          </g>
          <g id="g502">
            <path id="path504" class="cls-1" d="M377.19,104.01c5.13,8.76,3.97,22.02-1.72,30.16-3.56,5.72-9.43,8.55-14.31,12.32l-79.16,54.32h-.22l.89-2.61,41.96-94.68c6.28-11.17,18.26-16.84,30.98-15.13,8.7,1.58,17.37,7.23,21.58,15.62"/>
          </g>
          <g id="g506">
            <path id="path508" class="cls-3" d="M197.37,103.52l43.67,97.29h-.72l-88.03-60.68c-8.96-7.53-12.6-18.84-9.56-30.28,2.27-8.57,9.39-16.57,17.81-19.73,13.85-5.07,29.46.31,36.83,13.4"/>
          </g>
          <g id="g510">
            <path id="path512" class="cls-7" d="M400.15,172.69c4.35,9.25,2.63,21.96-3.62,29.84-6.22,7.56-14.55,11.66-24.31,11.39l-93.86.08,78.63-54.69c7.7-4.95,19.36-5.85,27.73-1.85,6.49,2.52,12.56,8.88,15.43,15.23"/>
          </g>
        </g>
      </g>
    </g>
    <g id="g514">
      <g class="cls-13">
        <g id="g516">
          <g id="g522">
            <path id="path524" class="cls-4" d="M122.22,172.69c-4.4,9.25-2.69,21.96,3.59,29.84,6.23,7.56,14.56,11.66,24.31,11.39l93.88.08-78.64-54.69c-7.67-4.95-19.36-5.85-27.76-1.85-6.47,2.52-12.56,8.88-15.38,15.23"/>
          </g>
          <g id="g526">
            <path id="path528" class="cls-8" d="M131.84,377.13c-4.81,8.39-21.16,18.44-26.61,21.5-3.02,1.7-9.98,5.77-18.57,8.88-9.47,3.43-17.93,5.01-18.71,2.69-.33-.97-.96-1.4,2.12-4.64,3.62-3.78,14.64-10.87,24.82-16.14,11.85-6.14,25.06-11.58,37.25-16.05.51.96.6,2.18-.3,3.75M220.88,352.52c-4.66-3.62-11.3-.76-11.3-.76-12.76,4.07-26.52,14.25-37.42,23.76,5-5.74,10.65-11.91,17.1-18.58,0,0,4.59-2.36,1.06-5.84-3.52-3.47-7.71-6.76-7.71-6.76,0,0-1.68-1.47-2.48-.87-.79.6-.2,2.22-.05,2.46.14.22-2.1,2.96-2.1,2.96,0,0-.15.16-.37.4-3.7,3.22-10.38,6.45-13.77,7.99-7.32,2.68-16.67,5.83-26.73,9.41-.58-.57-1.25-1.12-2.06-1.63-12.02-7.52-47.98-8.18-61.78-9.2-14.91-1.12-18.26-2.09-18.82-4.56-.72-3.21,3.98-7.75,10.71-12.66,26.08-19.03,62.09-22.9,73.75-22.7,12.8.2,16.38,1.7,16.58,2.64.2.9-.41,1.6-.41,1.6-2.06,2.4-4.89,3.91-7.94,5.87-11.71,7.58-24.44,13.19-24.44,13.19-2.78,2.59,2.62,3.25,2.62,3.25,7.43-.24,14.56-2.04,21.26-4.6,13.86-5.31,17.19-10.09,17.59-12.94.68-4.92-1.42-10.07-1.16-9.61-3.55-15.07-27.43-14.46-27.43-14.46-20.61.07-51.48,5.95-78.88,26.05-14.05,10.29-11.92,17.67-11.92,17.67,0,0-.25,14.29,10.6,17.76,4.38,1.41,7.57,2.15,14.72,2.86,13.87,1.39,24.13,1.58,38.51,2.56,8.47.58,14.35,1.54,18.36,2.59-11.76,4.34-23.86,9.2-34.42,14.49-9.22,4.62-23.01,12.36-27.96,18.55-5.91,7.41-.39,13.31-1.08,12.02.88,1.63,4.56,8.24,20.32,6.25,7.7-.98,16.68-4.63,23.64-8.4,9.96-5.41,17.34-11.71,21.8-16.01,8.93-8.62,11.45-15.27,11.47-21.06,0-2.23-.45-4.06-1.01-5.49,10.76-3.73,20.2-6.59,26.47-8.35-17.55,21.09-47.16,61.49-34.03,80.05,0,0,.85,1.44,2.01,2.75,0,0,2.32,1.92,3.19.75.87-1.17-1.72-2.43-1.72-2.43-.75-.92-1.22-2.39-.89-4.86.34-2.47,1.01-6.33,3.14-11.93l3.62-8.12s-.01.02-.02.03c.01-.03.03-.06.05-.09l-.03.06c4.5-7.81,12.19-18.58,21.46-27.79,23.11-22.96,43.74-32.41,47.97-33.77,3.07-.98,4.42-.72,4.92-.25,2.95,2.65-4.4,14.48-4.4,14.48-.13.19-.25.36-.37.54-13.25,19.34-21.02,24.71-27.95,27.36-4.8,1.42-7.72-.17-8.6-.77-1.68-1.6-2.62-3.8-2.46-4.87.3-2.04-.61-1.98-.61-1.98-3.3,1.12-1.46,6.95-1.46,6.95,2.45,11.02,17.75,13.83,32.26,2.97,19.18-14.36,22.99-25.87,25.73-32.85,2.74-6.99-2.48-12.38-7.12-16.02"/>
          </g>
          <g id="g530">
            <path id="path532" class="cls-8" d="M455.3,344.41c-1.05-6.3-10.64-7.79-27.45-6.45-8.88.71-25.65,3.08-40.7,5.49l14.79-16.5s3.22-2.07-.09-4.62c-3.3-2.55-6.9-4.26-6.9-4.26,0,0-1.47-1.41-4.05.94-1.51,1.39-11.02,11.03-24.35,27.7-14.85,1.98-31.94,3.19-36.34,3.7,0,0-2.17.45-3.01-1.05,0,0-1.93-1.34-1.48,1.88,0,0,.47,8.55,8.71,6.99,4.67-.88,14.16-2.12,26-3.72-2.01,2.61-5.08,6.52-8.34,11.09-14.77,16.12-39.83,42.03-45.43,38.6,0,0-1.23-1.14-.37-3.9,1.27-4.12,6.02-11.58,15.58-22.79,0,0,4.4-5.22,4.22-7.53-.28-3.54-2.26-3.46-2.26-3.46,0,0-12.7-3.76-16.94-7.56,1.78-2.76,5.03-8.93.88-11.81,0,0-5.34-3.39-9.25,4.65-1.58,3.21-1.44,6.3.62,9.14-2.91,3.08-10.95,10.95-18.97,13.27-.45-2.8-1.64-4.5-3.42-5.39,0,0-4.41-2.22-6.81.54-2.38,2.75-.27,5.5,2.18,7.38-.73,2.18-2.74,5.04-5.57,9.47-3.61,5.68-8.32,11.05-14.74,15.41-2.18,1.49-11.09,6.64-13.43-.41-1.28-3.88.86-11.38,6.36-19.91,11.31-17.61,27.12-23.38,31.41-20.64,0,0,2.01,1.99.82,4.18,0,0-.45,1.21,1.16,1.35,1.64.16,2.54-1.26,2.81-2.69.67-3.73-2.71-7.99-6.56-11.05-1.16-.92-2.49-1.56-4.01-2.32,0,0-6.73-2.37-15.91,2.2-2.82,1.39-14.87,8.03-23.62,23.63-2.78,4.94-4.53,10.23-4.47,15.35.02,3.37.65,6.7,2.46,9.8.69,1.18,4.37,6.02,9.32,8.55,9.87,5.06,21.45-4.55,25.96-8.67,7.94-7.27,14.01-16.9,15.4-21.08,10.4-2.69,20.69-13.11,24.05-16.77.61.41,1.23.81,1.95,1.2l6.25,3.32q-3.66,4.21-7.57,9.71c-3.99,5.65-13.91,18.91-7.5,27.45,1.25,1.7,2.96,3.78,5.77,4.89,8.47,3.35,18.07-4.97,32.91-20.58,2.35-2.47,4.61-4.94,6.77-7.35-.93,1.85-1.78,3.71-2.48,5.54-3.46,9.03-1.45,17.16,5.81,21.98,4.31,2.86,9.91,1.56,16.3-2.65,12.64-8.34,31.29-27.11,43.13-39.6-.43,1.71-.83,3.59-1.21,5.69-2.81,15.66-12.32,35.81-16.07,30.65-.07.76-.12-3.48-2.15-5.2-1.86-1.54-3.48-1.95-5.55-.59-2.69,1.77-1.36,8.36,6.92,12.58,1.89.97,3.59,1.48,5.14,1.67,4.5.76,13.62.83,24.37-7.22,14.55-10.93,30.3-26.59,30.3-26.59,0,0,3.16-2.79.17-4.52,0,0-1.45-.76-2.82.47-.79.71-1.49,1.63-1.49,1.63.21-.21-22.06,21.02-35.24,28.13,2.12-2.61,3.45-6.38,4.57-10.83.93-3.74,2.54-13.84,4.23-21.24.92-4.03,2.22-7.26,2.64-8.22,1.6-3.61,3.82-3.31,4.34-4.36.37-.74.23-1.42-.73-2.6-.8-1-1.87-2.04-2.75-2.85-1.05-.96-3.23-2.45-4.39-2.67-.8-.15-1.71-.09-2.52.54-.74.57-2.02,1.72-3.46,4.15-7.98,8.71-34.16,36.64-50.18,46.14.85-.51-13.01,8.86-10.08-3.33,1.35-5.55,6.91-17.96,22.55-37.56l8.13-9.08c6.67-.96,13.62-2,20.54-3.12,0,0,61.1-7.58,44.56,5.43,0,0,1.06,2.05,3.62.03,5.32-4.21,7.3-7.87,6.99-9.81"/>
          </g>
        </g>
      </g>
    </g>
  </g>
</svg>