<?xml version="1.0" encoding="UTF-8"?>
<svg id="Layer_1" data-name="Layer 1" xmlns="http://www.w3.org/2000/svg" viewBox="0 0 500 500">
  <defs>
    <style>
      .cls-1 {
        fill: #fcb711;
      }

      .cls-1, .cls-2, .cls-3, .cls-4, .cls-5, .cls-6, .cls-7, .cls-8 {
        stroke-width: 0px;
      }

      .cls-2 {
        fill: #cc004c;
      }

      .cls-4 {
        fill: #fff;
      }

      .cls-5 {
        fill: #0db14b;
      }

      .cls-6 {
        fill: #f37021;
      }

      .cls-7 {
        fill: #0089d0;
      }

      .cls-8 {
        fill: #6460aa;
      }
    </style>
  </defs>
  <g id="g4">
    <path id="path3113" class="cls-4" d="M249.99,51.97c-7.41-18.51-25.47-38.49-59.29-35.75-43.08,4.68-56.51,45.97-50,70.6-17.16-11.62-46.33-16.73-71.8,5.09-32.88,32.96-15.29,77.54,2.78,88.23-19.92-1.85-51.41,11.62-58.37,46.83-7.41,43.72,25.92,69.21,58.37,69.21h359.87c37.53,0,58.35-32.46,56.01-63.08-3.68-39.96-40.25-55.29-60.19-52.01,16.66-9.3,38.92-52.97,5.08-87.31-26.86-25.55-61.11-16.26-73.15-5.11,6.49-21.35-4.15-65.47-47.72-72.45-3.01-.34-5.91-.52-8.67-.52-33.26,0-48.22,24.32-52.91,36.27"/>
    <path id="path3115" class="cls-6" d="M74.89,98.86c-19,17.2-25.92,56.17,8.34,78.95l136.64,93.74-66.25-151.78c-13.88-35.82-51.86-43.63-78.72-20.91"/>
    <path id="path3117" class="cls-2" d="M192.51,25.06c-22.21.45-55.56,26.9-40.72,67.29l68.52,161.6,24.08-169.97c5.57-42.23-26.39-61.73-51.88-58.92"/>
    <path id="path3119" class="cls-8" d="M255.08,77.5h12.96s6.92,0,7.86,3.26c-5.1,4.16-18.98,4.69-17.14,26.93l21.78,146.24,68.05-162.03c13.92-36.18-15.3-66.39-41.22-67.31-1.21-.09-2.43-.16-3.68-.16-23.26,0-49.92,16.91-48.62,53.06"/>
    <path id="path3121" class="cls-7" d="M345.86,121.15l-64.37,149.96,136.6-94.24c31.49-22.33,26.41-58.04,8.78-75.69-7.39-8.31-20.96-14.72-35.33-14.72-16.98,0-35.15,9-45.68,34.69"/>
    <path id="path3123" class="cls-5" d="M402.8,198.21l-128.28,89.6h157.95c32.41,0,53.23-33.41,43.97-64.07-6.2-19.27-24.54-34.4-45.84-34.42-8.96,0-18.47,2.7-27.8,8.89"/>
    <path id="path3125" class="cls-1" d="M71.21,287.81h155.62l-128.31-89.6c-29.64-19.05-62.98-7.9-75.01,23.7-10.2,36.18,15.27,65.9,47.7,65.9"/>
    <path id="path3127" class="cls-3" d="M243.55,410.41h28.87c6.64.42,18.4,6.21,18.4,19.93s-12.21,20.14-18.82,20.8h-28.45v-40.73M243.11,346.51h23.76c8.12.44,17.73,6.44,17.73,17.58s-7.26,18.22-16.66,19.51h-24.83v-37.1M210.62,319.92v157.78h76.56c18.17,0,39.77-18.21,39.77-42.01s-16.24-37.08-26.52-42.01c0,0,18.82-10.93,17.98-34.52-.86-31.73-30.17-39.24-40.22-39.24h-67.57"/>
    <polygon id="polygon3129" class="cls-3" points="93.2 477.7 93.2 386.83 192.43 483.71 192.43 319.92 159.09 319.92 159.09 408.47 59.83 313.51 59.83 477.7 93.2 477.7"/>
    <path id="path3131" class="cls-3" d="M332.31,397.1c.84,49.9,36.69,87.2,82.78,87.2,10.93,0,22.44-2.07,34.21-6.6v-32.15c-9.32,5.7-19.7,8.45-29.87,8.45-27.89,0-54.21-20.64-53.12-58.18,1.88-30.45,26.81-51.48,53.67-51.48,9.84,0,19.96,2.83,29.31,9.03v-31.29c-10.9-4.42-21.74-6.4-32.18-6.4-45.97,0-83.91,38.78-84.8,81.42"/>
  </g>
</svg>