<?xml version="1.0" encoding="UTF-8"?>
<svg id="Layer_1" data-name="Layer 1" xmlns="http://www.w3.org/2000/svg" viewBox="0 0 500 500">
  <defs>
    <style>
      .cls-1, .cls-2 {
        fill-rule: evenodd;
        stroke-width: 0px;
      }

      .cls-2 {
        fill: #fff;
      }
    </style>
  </defs>
  <path class="cls-1" d="M84.41,183.77h312.64l-18.89,131.13H65.52l18.89-131.13h0ZM35.06,268.76c8.68,0,16.52-7.04,17.28-15.72.71-8.14-4.89-14.83-12.75-15.64l7.77-53.64h32.23l-19.08,131.13H28.29l6.77-46.14h0Z"/>
  <path class="cls-2" d="M107.56,204.52h27.04l9.82,39.82,5.93-39.82h26.48l-13.33,93.35h-26.86l-10-40.01-5.74,40.01h-26.67l13.33-93.35ZM300.19,204.52h27.04l9.82,39.82,5.93-39.82h26.49l-13.34,93.35h-26.86l-10-40.01-5.74,40.01h-26.67l13.34-93.35h0ZM169.42,297.86h46.3l3.15-22.59h-19.45l1.67-12.97h19.82l3.15-22.23h-19.63l1.85-12.97h19.63l3.15-22.6h-46.12l-13.52,93.35ZM287.96,208.04c-5.18-3.33-9.45-5.56-21.49-5.56s-28.34,8.7-32.04,21.85c-3.7,13.15.74,23.15,6.3,28.15,5.56,5,17.41,11.3,14.26,18.89-3.43,8.27-22.04,3.89-27.97-2.97l-3.52,23.15c3.7,3.71,12.04,8.52,26.12,8.34,14.07-.19,28.71-9.08,32.78-20.56,4.07-11.49,4.45-22.6-7.41-33.89-3.89-3.52-7.78-6.67-10.92-9.82-3.15-3.15-2.23-10,6.85-10,7.59,0,10.93,3.15,13.89,4.82l3.15-22.41h0Z"/>
  <path class="cls-1" d="M421.87,268.68c-7.26-1.3-12.31-7.89-11.63-15.63.73-8.34,7.91-15.2,16.17-15.72l7.88-53.74h-32.23l-19.08,131.13h32.23l6.66-46.04h0ZM442.38,297.8c.73-2.54-.22-4.47-2.93-4.47-3.95,0-4.9,2.47-5.3,4.36-.36,1.7.17,2.74,1.61,3.33,1.2.49,2.37.98,3.57,1.47,4.26,1.73,4.76,3.36,4.07,6.58-.99,4.63-4.46,7.33-9.16,7.33-2.41,0-5.13-.68-5.85-3.88-.26-1.21.18-3.16.42-4.47h2.7c-.9,3.62-.7,5.9,3.38,5.9,2.74,0,4.96-1.4,5.57-4.27.79-3.72-.7-3.75-2.98-4.7-1.23-.52-3.23-1.21-4.39-1.89-2.06-1.17-2.24-3.13-1.73-5.54.86-4.05,4.26-6.68,8.24-6.68,4.47,0,6.71,2.31,5.48,6.91h-2.7s0,0,0,0ZM466.95,291.38h4.76l-5.2,24.45h-2.7l4.29-20.14c.22-1.04.5-2.05.66-3.1h-.06c-.6,1.43-1.02,2.35-1.45,3.29l-9.36,19.95h-3.23l-.81-20.24c-.05-1-.08-2-.08-3h-.06c-.22,1.04-.38,2.12-.61,3.16l-4.27,20.08h-2.7l5.2-24.45h4.79l.73,19.07c.04,1.04-.05,2.05-.25,3.62h.06c.43-1.24.85-2.44,1.4-3.65l8.9-19.04h0Z"/>
</svg>