<?xml version="1.0" encoding="UTF-8"?>
<svg id="Layer_1" data-name="Layer 1" xmlns="http://www.w3.org/2000/svg" viewBox="0 0 500 500">
  <defs>
    <style>
      .cls-1 {
        fill: #013369;
      }

      .cls-1, .cls-2, .cls-3 {
        stroke-width: 0px;
      }

      .cls-2 {
        fill: #fff;
      }

      .cls-3 {
        fill: #d50a0a;
      }
    </style>
  </defs>
  <path class="cls-3" d="M50.65,311.12l-13.98,38.61H11.99l13.98-38.61h24.68ZM81.69,336.19c-.39,1.17,0,1.95,1.17,1.95h1.23l-4.18,11.59h-18.44c-5.01,0-7.8-4.23-6.02-9.25l2.01-5.4c.67-1.95-.06-3.06-2.01-3.06h-8.25l3.96-10.81h7.47c2.34,0,4.4-1.56,5.24-3.84l2.23-6.18c.84-2.28-.06-3.84-2.4-3.84H22.01l4.18-11.59h57.16c8.13,0,11.25,4.96,8.36,13.15l-2.45,6.96c-2.17,6.02-5.4,8.97-9.86,10.47,2.95.67,5.07,2.84,3.73,6.46l-1.45,3.4h0ZM121.91,318.86l-.84,2.34h16.94l-3.96,10.81h-16.88l-2.23,6.18h9.25l1.39-3.84h18.55l-5.57,15.43h-51.7l11.2-30.87h23.85v-.06h0ZM155.34,303.37l-5.63,15.43h-18.55l1.39-3.84h-37.83l4.23-11.59h56.38ZM147.76,349.73l11.2-30.87h23.96l-11.2,30.87h-23.96ZM175.79,349.73l4.18-11.59h4.4c1.95,0,3.57-1.17,4.23-3.18l6.07-16.83c.67-2.01,0-3.18-1.95-3.18h-37.05l4.23-11.59h51.87c7.63,0,10.53,4.46,7.74,12.15l-8.02,22.06c-2.79,7.63-8.86,12.15-16.55,12.15h-19.17,0Z"/>
  <polygon class="cls-1" points="288.44 311.12 250.06 338.14 263.43 338.14 266.21 330.4 285.16 330.4 278.19 349.73 211.78 349.73 215.96 338.14 254.34 311.12 288.44 311.12 288.44 311.12"/>
  <polygon class="cls-1" points="224.37 314.96 231.39 295.69 297.02 295.69 292.84 307.27 246.16 307.27 243.31 315.02 224.37 315.02 224.37 314.96 224.37 314.96"/>
  <path class="cls-1" d="M348.5,303.37c7.63,0,10.47,4.46,7.74,12.15l-8.02,22.06c-2.79,7.63-8.86,12.15-16.55,12.15h-36.77c-7.63,0-10.53-4.46-7.74-12.15l6.8-18.78h23.96l-5.85,16.16c-.67,2.01,0,3.18,1.95,3.18h7.02c1.95,0,3.45-1.06,4.23-3.18l6.07-16.83c.72-2.01,0-3.18-1.95-3.18h-34.04c2.56-6.96,8.75-11.59,16.38-11.59h36.77Z"/>
  <polygon class="cls-1" points="370.73 318.86 374.41 335.47 369.23 349.73 353.02 349.73 364.21 318.86 370.73 318.86 370.73 318.86"/>
  <polygon class="cls-1" points="398.42 303.37 403.05 324.54 410.79 303.37 427.01 303.37 410.18 349.73 381.6 349.73 373.85 314.96 360.98 314.96 365.22 303.37 398.42 303.37"/>
  <polygon class="cls-1" points="454.58 318.86 453.75 321.2 470.63 321.2 466.67 332.01 449.79 332.01 447.56 338.19 456.81 338.19 458.2 334.35 476.76 334.35 471.19 349.78 419.43 349.78 430.63 318.92 454.58 318.92 454.58 318.86 454.58 318.86"/>
  <polygon class="cls-1" points="488.01 303.37 482.38 318.81 463.83 318.81 465.22 314.96 427.39 314.96 431.63 303.37 488.01 303.37 488.01 303.37"/>
  <path class="cls-2" d="M294.46,164.98c-4.07,2.9-11.87,6.91-21.9,4.46-17.33-4.29-22.34-19.22-22.34-19.22,0,0-4.96,14.99-22.34,19.22-10.03,2.45-17.77-1.5-21.9-4.46h-3.12v80.62c0,2.01.5,6.07,3.79,10.08,4.07,4.96,10.98,8.19,20.61,9.53,7.63,1.11,13.26,3.51,17.22,7.3,2.9,2.84,5.68,7.69,5.68,7.69,0,0,2.9-4.96,5.68-7.69,3.96-3.84,9.64-6.24,17.22-7.3,9.58-1.39,16.49-4.62,20.61-9.53,3.34-4.01,3.79-8.02,3.79-10.08v-80.62h-3.01Z"/>
  <path class="cls-1" d="M294.74,168.1s-9.53,7.41-22.84,4.07c-15.6-3.9-21.62-15.6-21.62-15.6,0,0-6.07,11.7-21.62,15.6-13.37,3.34-22.84-4.07-22.84-4.07v77.44c0,2.62,1.11,13.82,21.95,16.83,8.25,1.17,14.37,3.84,18.83,8.08,1.56,1.56,2.79,3.06,3.73,4.51.95-1.39,2.12-3.01,3.73-4.51,4.4-4.23,10.53-6.91,18.83-8.08,20.89-3.01,21.95-14.21,21.95-16.83v-77.44h-.11,0Z"/>
  <path class="cls-2" d="M250.22,267.16s6.07-7.47,21.78-9.86c18-2.79,17.49-11.25,17.49-11.64v-40.62h-78.56v40.56c0,.45-.5,8.91,17.49,11.64,15.77,2.45,21.78,9.92,21.78,9.92h0Z"/>
  <path class="cls-3" d="M231.95,234.68v-19.33l-2.45-1.39v-5.01h10.98v5.01l-2.28,1.39v39.33l-5.91-1.78-8.52-25.18v16.6l2.73,2.06v5.07l-11.81-3.01v-4.35l2.73-1.06v-27.69l-2.73-1.34v-5.01h8.91l8.36,25.68h0ZM252.23,252.28l2.34,2.84v5.01l-11.76-4.35v-4.23l2.56-1.06v-35.04l-2.56-1.28v-5.07h20.34v10.14h-4.51l-1.39-4.18h-5.18v11.76h3.9l1.56-2.23h3.12v10.42h-3.12l-1.45-2.12h-3.96v19.39h.11ZM265.15,254.07v-5.01l2.9-2.4v-31.31l-2.45-1.28v-5.07h11.76v5.07l-2.28,1.28v29.36l5.07-1.39.95-7.69h4.79v12.87l-20.73,5.57h0Z"/>
  <path class="cls-2" d="M213.06,196.68l-3.57-2.67h4.35l1.39-4.12,1.39,4.12h4.35l-3.57,2.67,1.28,4.18-3.51-2.45-3.51,2.45,1.39-4.18h0ZM228.44,196.68l-3.57-2.67h4.35l1.39-4.12,1.39,4.12h4.35l-3.57,2.67,1.28,4.18-3.51-2.45-3.51,2.45,1.39-4.18h0ZM213.06,182.81l-3.57-2.67h4.35l1.39-4.12,1.39,4.12h4.35l-3.57,2.67,1.28,4.18-3.51-2.45-3.51,2.45,1.39-4.18h0ZM228.44,182.81l-3.57-2.67h4.35l1.39-4.12,1.39,4.12h4.35l-3.57,2.67,1.28,4.18-3.51-2.45-3.51,2.45,1.39-4.18h0ZM288.78,200.92l-3.51-2.45-3.51,2.45,1.28-4.18-3.57-2.67h4.35l1.39-4.12,1.39,4.12h4.35l-3.57,2.67,1.39,4.18h0ZM273.4,200.92l-3.51-2.45-3.51,2.45,1.28-4.18-3.57-2.67h4.35l1.39-4.12,1.39,4.12h4.35l-3.57,2.67,1.39,4.18h0ZM288.78,186.99l-3.51-2.45-3.51,2.45,1.28-4.18-3.57-2.67h4.35l1.39-4.12,1.39,4.12h4.35l-3.57,2.67,1.39,4.18h0ZM273.4,186.99l-3.51-2.45-3.51,2.45,1.28-4.18-3.57-2.67h4.35l1.39-4.12,1.39,4.12h4.35l-3.57,2.67,1.39,4.18h0ZM260.03,171.67s-1.84.95-4.4,3.45c.56.33,1.23.78,1.62,1.11l-1.11,1.06c-1.67-1.39-3.4-2.06-4.79-2.4.45-.33.95-.67,1.39-.95.72.22,1.39.5,1.39.5,2.9-2.23,5.4-3.18,5.4-3.18,0,0-.28-.17-1.06-.11-11.42.17-21.9,8.64-19.89,23.23.22,1.56.84,4.35,1.56,5.57.22-2.45,1.17-7.74,3.9-13.54-.95-.33-1.67-.5-1.67-.5l.67-1.34c2.01.39,3.79,1.23,5.29,2.45-.39.61-.61.95-.84,1.28-.5-.39-1.11-.78-1.67-1.11-3.01,5.29-4.46,10.31-5.01,12.93.06.17.39.22.67.22,12.48-1.62,18.33-7.97,20.11-14.88,1.17-4.51.78-9.25-.78-13.15-.22-.28-.39-.72-.78-.67h0ZM249.28,185.37c-1.62-1.34-3.51-2.17-5.4-2.56,0,0,.56-.95.89-1.39,2.28.45,4.12,1.5,5.4,2.56-.28.56-.61,1-.89,1.39ZM251.34,182.53c-1.5-1.28-3.34-2.23-5.4-2.62.33-.39.67-.84,1.06-1.28,1.56.28,3.62,1.11,5.4,2.56-.39.5-.72.89-1.06,1.34h0ZM253.62,179.8c-1.56-1.28-3.34-2.12-5.24-2.56.45-.45.95-.84,1.34-1.11,2.34.56,3.9,1.62,5.01,2.51-.39.39-.78.72-1.11,1.17h0Z"/>
</svg>