<?xml version="1.0" encoding="UTF-8"?>
<svg id="Layer_1" data-name="Layer 1" xmlns="http://www.w3.org/2000/svg" viewBox="0 0 500 500">
  <defs>
    <style>
      .cls-1 {
        fill: #013369;
      }

      .cls-1, .cls-2, .cls-3 {
        stroke-width: 0px;
      }

      .cls-2 {
        fill: #fff;
      }

      .cls-3 {
        fill: #d50a0a;
      }
    </style>
  </defs>
  <path class="cls-2" d="M293.19,169.4c-3.99,2.85-11.58,6.76-21.42,4.34-17.06-4.18-21.9-18.88-21.9-18.88,0,0-4.86,14.68-21.9,18.88-9.84,2.42-17.45-1.49-21.42-4.34h-3.07v79.1c0,1.99.49,5.94,3.73,9.92,4.01,4.86,10.79,8.01,20.15,9.36,7.48,1.08,13.01,3.43,16.9,7.19,2.86,2.75,5.59,7.54,5.59,7.54,0,0,2.82-4.88,5.59-7.55,3.9-3.74,9.44-6.1,16.9-7.18,9.36-1.36,16.18-4.52,20.15-9.36,3.24-3.94,3.73-7.88,3.74-9.92v-79.09h-3.09"/>
  <path class="cls-1" d="M293.99,172.57s-9.28,7.24-22.37,3.97c-15.31-3.82-21.26-15.23-21.26-15.23,0,0-5.93,11.42-21.18,15.23-13.09,3.28-22.45-3.97-22.45-3.97v76c0,2.58,1.08,13.57,21.5,16.5,8.09,1.17,14.12,3.76,18.48,7.93,1.38,1.33,2.61,2.81,3.65,4.42,1.04-1.61,2.26-3.09,3.65-4.42,4.34-4.17,10.39-6.76,18.49-7.93,20.47-2.96,21.5-13.88,21.5-16.5v-76Z"/>
  <path class="cls-2" d="M250.35,269.36s5.93-7.33,21.34-9.68c17.69-2.72,17.14-11.03,17.14-11.42v-39.83h-77.03v39.84c0,.42-.51,8.73,17.14,11.42,15.39,2.38,21.34,9.68,21.34,9.68"/>
  <path class="cls-3" d="M232.11,237.63v-18.96l-2.37-1.33v-4.91h10.79v4.91l-2.26,1.33v38.64l-5.78-1.73-8.33-24.67v16.26l2.65,2.04v5.01l-11.58-2.96v-4.26l2.65-1.05v-27.21l-2.71-1.36v-4.91h8.81l8.17,25.15M251.94,255.08l2.32,2.77v4.91l-11.5-4.29v-4.16l2.54-1.05v-34.43l-2.52-1.28v-4.97h19.99v10h-4.39l-1.33-4.1h-5.08v11.58h3.82l1.49-2.2h3.06v10.23h-3.06l-1.44-2.08h-3.86v19.04M264.63,256.67v-4.92l2.85-2.33v-30.7l-2.43-1.28v-4.97h11.5v4.97l-2.25,1.28v28.8l4.94-1.34.94-7.55h4.74v12.61l-20.31,5.43"/>
  <path class="cls-2" d="M213.86,200.34l-3.48-2.62h4.26l1.41-4.03,1.41,4.03h4.25l-3.48,2.62,1.29,4.1-3.47-2.43-3.46,2.43,1.28-4.1ZM228.93,200.34l-3.48-2.62h4.26l1.41-4.03,1.4,4.03h4.25l-3.48,2.62,1.29,4.1-3.47-2.43-3.46,2.43,1.28-4.1M213.86,186.85l-3.48-2.61h4.26l1.41-4.04,1.41,4.04h4.25l-3.48,2.61,1.29,4.1-3.47-2.44-3.46,2.44,1.28-4.1ZM228.93,186.85l-3.48-2.61h4.26l1.41-4.04,1.4,4.04h4.25l-3.48,2.61,1.29,4.1-3.47-2.44-3.46,2.44,1.28-4.1M287.64,204.31l-3.46-2.43-3.46,2.43,1.28-4.1-3.47-2.62h4.26l1.4-4.03,1.4,4.03h4.26l-3.48,2.62,1.28,4.1M272.57,204.31l-3.46-2.43-3.47,2.43,1.28-4.1-3.49-2.62h4.26l1.41-4.03,1.4,4.03h4.26l-3.48,2.62,1.28,4.1M287.64,190.82l-3.46-2.44-3.46,2.44,1.28-4.1-3.47-2.61h4.26l1.4-4.04,1.4,4.04h4.26l-3.48,2.61,1.28,4.1M272.57,190.82l-3.46-2.44-3.47,2.44,1.28-4.1-3.49-2.61h4.26l1.41-4.04,1.4,4.04h4.26l-3.48,2.61,1.28,4.1M259.87,175.75s-1.81.94-4.32,3.41c.57.33,1.21.77,1.56,1.08-.38.32-.76.7-1.13,1.05-1.35-1.13-2.95-1.94-4.66-2.36.44-.3.91-.62,1.36-.9.71.17,1.4.46,1.4.46,2.84-2.17,5.3-3.11,5.3-3.11,0,0-.28-.14-1.05-.13-11.19.15-21.5,8.49-19.52,22.77.21,1.51.8,4.28,1.55,5.47.25-2.38,1.14-7.63,3.8-13.25-.55-.2-1.12-.35-1.7-.46.28-.57.65-1.29.65-1.29,1.9.36,3.68,1.18,5.19,2.38-.36.58-.6.96-.77,1.27-.52-.41-1.06-.78-1.64-1.1-2.98,5.2-4.36,10.15-4.93,12.69.04.15.36.24.62.2,12.22-1.59,18.01-7.83,19.76-14.6,1.14-4.43.77-9.04-.76-12.85-.11-.26-.32-.71-.67-.68M249.36,189.27c-1.52-1.27-3.33-2.13-5.28-2.51,0,0,.55-.91.87-1.37,1.96.39,3.78,1.27,5.31,2.56-.33.46-.63.9-.9,1.33M251.36,186.45c-1.52-1.3-3.35-2.19-5.31-2.59.31-.4.68-.83,1.03-1.21,1.55.26,3.54,1.07,5.28,2.51-.35.43-.69.86-1,1.29M253.61,183.75c-1.55-1.27-3.29-2.1-5.14-2.49.45-.43.91-.78,1.31-1.12,1.81.42,3.5,1.27,4.92,2.48-.37.38-.75.76-1.09,1.14"/>
  <path class="cls-1" d="M42.02,344.73l-9.12-41.65h-15.55l4.09-11.34h33.72l6.13,28.01,10.15-28.01h18.17l-19.2,53h-28.4.02ZM7.59,344.73l13.73-37.84h8.65l3.56,16.58-7.73,21.26H7.63M146.42,299.51l-5.53,15.15h-18.17l1.36-3.79h-37.13l4.17-11.34h55.3v-.02ZM113.66,314.66l-.83,2.27h16.58l-3.86,10.63h-16.58l-2.2,6.06h9.12l1.36-3.78h18.17l-5.45,15.15h-50.77l10.95-30.31h23.48M202.75,299.51l-4.16,11.35h-13.25l-12.38,34.11h-23.48l12.38-34.11h-14.76l4.16-11.34h51.49ZM261.46,299.51l-.07,17.45,12.77-17.45h18.56l-33.4,45.46h-21.26l-.07-16.82-12.38,16.82h-17.93l-.08-34.11h-4.47l4.16-11.35h23.8v16.9l12.46-16.9h17.93M343.97,299.51c7.5,0,10.31,4.39,7.57,11.9l-7.88,21.66c-2.72,7.5-8.73,11.9-16.18,11.9h-36.02c-7.5,0-10.31-4.4-7.57-11.9l6.66-18.41h23.48l-5.75,15.79c-.68,1.97,0,3.11,1.9,3.11h6.89c1.9,0,3.41-1.06,4.17-3.11l5.97-16.5c.68-1.97,0-3.1-1.89-3.1h-33.4c2.5-6.81,8.57-11.34,16.03-11.34h36.02M384.43,320.14h3.48c1.9,0,3.41-1.13,4.16-3.1l1.05-2.88c.76-1.97,0-3.1-1.9-3.1h-35.62l4.16-11.35h50.22c7.5,0,10.31,4.4,7.57,11.9l-1.75,4.77c-1.82,4.92-4.39,7.5-8.09,8.49,2.72.68,4.01,2.95,2.87,5.9l-.45,1.21c-.38,1.06,0,1.82,1.13,1.82h1.21l-4.09,11.34h-18.17c-4.54,0-6.96-3.78-5.3-8.33l1.06-3.02c.68-1.9,0-3.03-1.9-3.03h-3.56l3.86-10.63h.02ZM347.85,345.13l10.95-30.31h23.48l-10.95,30.3h-23.48ZM492.32,299.51l-4.16,11.35h-3.86l-9.76,10.31,2.8,12.46h3.86l-4.09,11.35h-23.09l-4.47-18.41,3.33-9.12,17.22-17.85h22.29l-.09-.08ZM455.35,299.51l-16.5,45.46h-23.48l12.38-34.11h-4.55l4.16-11.35h28.01"/>
</svg>