<?xml version="1.0" encoding="UTF-8"?>
<svg id="Layer_1" data-name="Layer 1" xmlns="http://www.w3.org/2000/svg" xmlns:xlink="http://www.w3.org/1999/xlink" viewBox="0 0 500 500">
  <defs>
    <style>
      .cls-1 {
        fill: url(#linear-gradient);
      }

      .cls-1, .cls-2, .cls-3, .cls-4, .cls-5, .cls-6, .cls-7, .cls-8, .cls-9 {
        stroke-width: 0px;
      }

      .cls-2 {
        fill: url(#linear-gradient-6);
      }

      .cls-4 {
        fill: url(#linear-gradient-5);
      }

      .cls-5 {
        fill: #fff;
      }

      .cls-6 {
        fill: url(#linear-gradient-2);
      }

      .cls-7 {
        fill: url(#linear-gradient-7);
      }

      .cls-8 {
        fill: url(#linear-gradient-3);
      }

      .cls-9 {
        fill: url(#linear-gradient-4);
      }
    </style>
    <linearGradient id="linear-gradient" x1="-322.04" y1="-160.97" x2="-305.85" y2="-160.97" gradientTransform="translate(5743.83 -2567.41) scale(17.5 -17.5)" gradientUnits="userSpaceOnUse">
      <stop offset="0" stop-color="#939ba1"/>
      <stop offset=".48" stop-color="#fff"/>
      <stop offset=".57" stop-color="#fafafa"/>
      <stop offset=".68" stop-color="#ebeced"/>
      <stop offset=".79" stop-color="#d2d5d8"/>
      <stop offset=".92" stop-color="#afb5ba"/>
      <stop offset="1" stop-color="#939ba1"/>
    </linearGradient>
    <linearGradient id="linear-gradient-2" x1="-178.57" y1="-137.64" x2="-162.38" y2="-137.64" gradientTransform="translate(1643.51 1392.41) rotate(74.93) scale(7.05 -6.58) skewX(14.09)" gradientUnits="userSpaceOnUse">
      <stop offset="0" stop-color="#fff"/>
      <stop offset=".2" stop-color="#fbfbfc"/>
      <stop offset=".39" stop-color="#eff1f1"/>
      <stop offset=".58" stop-color="#dcdfe0"/>
      <stop offset=".77" stop-color="#c1c5c9"/>
      <stop offset=".95" stop-color="#9ea5aa"/>
      <stop offset="1" stop-color="#939ba1"/>
    </linearGradient>
    <linearGradient id="linear-gradient-3" x1="-178.62" y1="-154.7" x2="-162.44" y2="-154.7" gradientTransform="translate(1635.64 1393.24) rotate(74.93) scale(7.06 -6.58) skewX(14.09)" xlink:href="#linear-gradient-2"/>
    <linearGradient id="linear-gradient-4" x1="-178.61" y1="-175.88" x2="-162.42" y2="-175.88" gradientTransform="translate(1625.96 1392.93) rotate(74.93) scale(7.06 -6.58) skewX(14.09)" xlink:href="#linear-gradient-2"/>
    <linearGradient id="linear-gradient-5" x1="-450.03" y1="-75.83" x2="-433.84" y2="-75.83" gradientTransform="translate(-979.67 -2882.41) rotate(-105.07) scale(7.3 -6.8) skewX(14.09)" gradientUnits="userSpaceOnUse">
      <stop offset="0" stop-color="#fcfcfc"/>
      <stop offset=".15" stop-color="#fcfcfc"/>
      <stop offset=".27" stop-color="#f7f7f7"/>
      <stop offset=".41" stop-color="#e8e9ea"/>
      <stop offset=".56" stop-color="#cfd2d5"/>
      <stop offset=".72" stop-color="#acb2b7"/>
      <stop offset=".82" stop-color="#939ba1"/>
      <stop offset="1" stop-color="#939ba1"/>
    </linearGradient>
    <linearGradient id="linear-gradient-6" x1="-450.02" y1="-38.94" x2="-433.83" y2="-38.94" gradientTransform="translate(-997.65 -2882.63) rotate(-105.07) scale(7.3 -6.8) skewX(14.09)" xlink:href="#linear-gradient-5"/>
    <linearGradient id="linear-gradient-7" y1="-59.39" y2="-59.39" gradientTransform="translate(-988.02 -2882.41) rotate(-105.07) scale(7.3 -6.8) skewX(14.09)" xlink:href="#linear-gradient-5"/>
  </defs>
  <path class="cls-5" d="M467.72,299.14l21.04-54.16h-82.86l36.23-81.63h-54.79c4.78-17.79,11.62-29.91,11.62-29.91,0,0-39.06-3.9-49.79-52.07,0,0-24.35,24.91-48.43,24.91-31.05,0-51.49-26.55-51.49-26.55,0,0-20.44,26.55-51.49,26.55-24.09,0-48.43-24.91-48.43-24.91-10.73,48.17-49.78,52.07-49.78,52.07,0,0,6.83,12.11,11.61,29.9H30.88l22.73,22.45c1.54,1.55,2.96,3.03,3.69,4.56.7,1.51,1.15,3.33-.28,6.47l-45.52,102.32h63.11l-18.06,41.07h50.21c13.47,25.56,38.14,45.39,72.71,54.15,25.96,6.54,43.88,8.22,57.08,12.98,1.7,1.57,12.68,13.48,12.68,13.48,0,0,10.97-11.91,12.67-13.48,13.18-4.76,31.11-6.44,57.08-12.98,34.58-8.76,59.25-28.59,72.71-54.15h41.78l-13.56-23.83,29.06-17.24h18.75Z"/>
  <path class="cls-5" d="M249.24,425.94l-2.55-2.77c-3.97-4.3-10.02-10.82-12.01-12.82-6.84-2.38-15.03-3.98-25.31-5.98-8.87-1.72-18.92-3.68-30.73-6.66-33.1-8.38-59.26-27.54-73.95-54.05h-53.45l18.07-41.07H6.18l47.69-107.19c.96-2.14.6-2.92.28-3.61-.49-1.04-1.82-2.39-3-3.59l-28.71-28.34h84.11c-4.46-14.73-9.97-24.63-10.04-24.74l-2.58-4.59,5.25-.55c1.49-.16,36.72-4.38,46.74-49.38l1.39-6.24,4.47,4.57c.22.24,23.63,23.87,45.94,23.87,28.91,0,48.56-24.95,48.77-25.21l2.73-3.54,2.73,3.54c.21.25,19.84,25.21,48.75,25.21,22.32,0,45.73-23.63,45.95-23.87l4.47-4.57,1.39,6.24c10.02,45,45.27,49.22,46.76,49.38l5.25.55-2.58,4.59c-.06.11-5.6,10.01-10.05,24.76h55.53l-36.23,81.63h82.6l-23.73,61.08h-20.17l-25.31,15.03,14.83,26.04h-45.67c-14.69,26.51-40.85,45.67-73.93,54.05-11.82,2.97-21.88,4.93-30.76,6.66-10.28,2-18.46,3.6-25.29,5.98-1.98,2-8.03,8.52-12,12.82l-2.55,2.77ZM61.87,336.75h46.98l.98,1.85c13.74,26.08,38.11,44.2,70.5,52.4,11.62,2.92,21.58,4.86,30.37,6.58,10.92,2.13,19.54,3.8,27.03,6.51l1.19.72c1.26,1.18,6.91,7.23,10.32,10.92,3.4-3.68,9.04-9.74,10.31-10.92l1.19-.72c7.48-2.7,16.11-4.38,27.03-6.51,8.79-1.71,18.75-3.64,30.37-6.58,32.39-8.2,56.77-26.32,70.5-52.4l.98-1.85h37.91l-12.3-21.6,32.8-19.47h17.33l18.35-47.23h-83.13l36.23-81.63h-54l1.17-4.36c2.45-9.13,5.74-18.01,9.82-26.53-10.72-2.77-36.39-12.95-46.54-48.02-8.32,7.33-27.24,21.85-46.52,21.85-26.07,0-44.74-17.33-51.49-24.69-6.75,7.36-25.44,24.69-51.5,24.69-19.27,0-38.19-14.51-46.51-21.85-10.15,35.07-35.81,45.25-46.52,48.02,4.06,8.52,7.34,17.4,9.79,26.52l1.17,4.36H39.33l16.72,16.52c1.6,1.63,3.38,3.43,4.38,5.56.95,2.05,1.77,4.94-.24,9.38l-43.36,97.43h63.11l-18.07,41.07Z"/>
  <path class="cls-3" d="M383.44,208.09c-.41-4.11-.62-8.24-.62-12.37,0-33.77,16.12-62.31,16.12-62.31,0,0-39.04-3.89-49.78-52.06,0,0-24.36,24.91-48.45,24.91-31.05,0-51.49-26.55-51.49-26.55,0,0-20.43,26.55-51.49,26.55-24.07,0-48.43-24.91-48.43-24.91-10.73,48.17-49.78,52.06-49.78,52.06,0,0,16.12,28.54,16.12,62.31,0,4.13-.2,8.26-.62,12.37-3.42,33.75-20.1,47.28-20.1,82.9,0,48.11,29.93,89.55,84.56,103.37,25.95,6.54,43.89,8.22,57.06,12.98,1.7,1.57,12.68,13.48,12.68,13.48,0,0,10.99-11.91,12.69-13.48,13.18-4.76,31.1-6.44,57.06-12.98,54.63-13.82,84.56-55.26,84.56-103.37,0-35.61-16.71-49.15-20.1-82.9"/>
  <path class="cls-1" d="M381.9,141.77s-25.72-5.41-38.2-39.3c0,0-18.81,16.59-43.33,16.59-30.3,0-50.59-21.17-51.12-21.74-.53.57-20.82,21.74-51.14,21.74-24.53,0-43.33-16.59-43.33-16.59-12.46,33.9-38.22,39.3-38.22,39.3,0,0,11.62,23.63,11.62,54.34,0,45.55-20.59,58.73-20.59,94.6,0,50.12,39.06,82.02,75.29,91.23,28.69,7.28,47.7,8.39,60.3,14.46,0,0,4.34,4,6.07,5.92,1.73-1.93,6.04-5.92,6.04-5.92,12.61-6.07,31.63-7.17,60.31-14.46,36.23-9.21,75.29-41.12,75.29-91.23,0-35.87-20.57-49.05-20.57-94.6,0-30.71,11.59-54.34,11.59-54.34Z"/>
  <path class="cls-3" d="M376.17,272.48c-4.5-18.49-17.73-39-17.73-76.76.02-15.93,2.6-31.76,7.64-46.88-8.53-4.66-18.36-14-26.87-28.21-9.15,5.12-22.71,10.73-37.96,10.73-23.12,0-41.68-10.2-52.01-17.79-10.33,7.59-28.9,17.79-52.01,17.79-15.25,0-28.81-5.62-37.96-10.73-8.53,14.21-18.36,23.55-26.87,28.21,5.04,15.12,7.62,30.94,7.64,46.88,0,37.77-13.23,58.27-17.72,76.76-5.5,22.63-1.13,41.59,8.06,57.53,8.97,15.52,32.68,33.69,54.76,40.05,22.69,6.52,50.94,8.81,59.38,13.63,1.91,1.39,2.02,1.55,4.73,4.03,2.69-2.48,2.82-2.64,4.73-4.03,8.43-4.82,36.68-7.11,59.38-13.63,22.06-6.36,45.79-24.52,54.75-40.05,9.21-15.94,13.58-34.9,8.08-57.53"/>
  <path class="cls-5" d="M378.13,272c-1.33-5.46-3.42-11.15-5.65-17.17-5.34-14.54-12.01-32.63-12.01-59.1,0-15.72,2.55-31.33,7.53-46.23l.53-1.6-1.49-.81c-9.24-5.08-18.52-14.84-26.09-27.5l-1-1.67-1.72.96c-8.55,4.78-21.9,10.47-36.97,10.47-23.57,0-41.93-10.91-50.78-17.4l-1.23-.89-1.23.89c-8.85,6.49-27.23,17.4-50.78,17.4-15.09,0-28.44-5.7-36.99-10.47l-1.72-.96-1,1.67c-7.58,12.66-16.83,22.42-26.08,27.5l-1.49.81.53,1.6c4.97,14.91,7.52,30.52,7.53,46.23,0,26.47-6.67,44.56-12.03,59.1-2.22,6.02-4.31,11.72-5.63,17.17-5.07,20.85-2.28,40.71,8.27,59.02,9.65,16.72,34.24,34.72,55.96,40.97,10.57,3.04,22.31,5.16,32.67,7.04,11.72,2.12,21.87,3.97,26.18,6.36,1.2.87,2.34,1.83,3.4,2.87l2.41,2.3,2.41-2.3c1.06-1.04,2.2-2,3.4-2.87,4.31-2.4,14.44-4.24,26.18-6.36,10.36-1.88,22.1-4,32.67-7.04,21.72-6.25,46.3-24.25,55.94-40.97,10.57-18.31,13.35-38.17,8.29-59.02M368.09,330.02c-8.95,15.52-32.68,33.69-54.76,40.03-22.68,6.54-50.93,8.82-59.38,13.65-1.89,1.38-2.02,1.55-4.71,4.03-2.7-2.48-2.83-2.65-4.73-4.03-8.45-4.82-36.68-7.11-59.38-13.65-22.08-6.35-45.79-24.51-54.76-40.03-9.19-15.94-13.56-34.92-8.06-57.53,4.48-18.49,17.73-39,17.73-76.76-.03-15.93-2.61-31.76-7.64-46.88,8.51-4.66,18.34-14,26.86-28.23,9.16,5.13,22.73,10.75,37.97,10.75,23.12,0,41.68-10.21,52.01-17.79,10.33,7.58,28.9,17.79,52.01,17.79,15.25,0,28.81-5.62,37.96-10.75,8.51,14.23,18.34,23.57,26.87,28.23-5.04,15.12-7.62,30.94-7.64,46.88,0,37.77,13.22,58.27,17.72,76.76,5.5,22.61,1.13,41.59-8.08,57.53"/>
  <polygon class="cls-3" points="396.22 351.19 396.22 350.05 404.35 350.05 404.35 351.19 400.97 351.19 400.97 360.2 399.61 360.2 399.61 351.19 396.22 351.19"/>
  <polygon class="cls-3" points="408.35 350.05 411.56 358.58 414.78 350.05 416.63 350.05 416.63 360.21 415.35 360.21 415.35 351.76 415.31 351.76 412.14 360.21 410.99 360.21 407.82 351.76 407.79 351.76 407.79 360.21 406.51 360.21 406.51 350.05 408.35 350.05"/>
  <path class="cls-3" d="M467.72,299.14l21.04-54.16h-82.86l36.23-81.63-411.24-.02,22.73,22.45c1.54,1.55,2.96,3.03,3.69,4.56.7,1.51,1.15,3.33-.28,6.47l-45.52,102.32h63.11l-18.06,41.07h139.11l9.26-21.06h2.64l-1.5,21.06h54.99l7.24-9.02c5.21,7.69,15.7,9.47,24.3,9.47,4.92.05,9.82-.55,14.58-1.78l-.58,1.33h126.89l-13.56-23.83,29.06-17.24h18.75Z"/>
  <path class="cls-6" d="M386.26,257.75l36.24-81.63h-51.41c5.33,4.89,10.49,12.9,6.61,21.74l-38.96,88.51h120.26l11.12-28.62h-83.85Z"/>
  <path class="cls-8" d="M217.08,176.1c4.42,4.31,10.36,12.34,6.18,21.85l-38.87,88.43,34.01-.02,18.36-41.68h50.84l-18.37,41.68h34.58l49.16-110.28h0s-34.74,0-34.74,0l-18.99,42.23-50.86.05,18.61-42.28-49.92.02Z"/>
  <path class="cls-9" d="M165.07,176.1l-34.3,76.62-17.8-76.63h-51.04c2.9,2.44,5.26,5.45,6.93,8.85,2.56,5.45,2.49,11.23-.21,17.16l-37.49,84.27h33.88l30.82-69.07,16.17,69.07h37.59l49.16-110.25-33.7-.02Z"/>
  <path class="cls-4" d="M389.4,255.85l36.21-81.65h-59.68s15.62,9.66,9.94,22.55l-40.29,91.51h123.45l12.9-32.41h-82.52ZM457.5,286.37h-118.77l38.96-88.51c3.88-8.84-1.28-16.87-6.62-21.77h51.41l-36.23,81.67h82.38l-11.14,28.62Z"/>
  <path class="cls-2" d="M163.6,174.22l-32.37,72.31-16.82-72.33h-58.02s18.24,9.63,10.44,26.77l-38.83,87.28h38.51l28.91-64.77,15.15,64.77h40.52l50.84-114.06-38.33.02ZM149.61,286.37h-37.59l-16.17-69.07-30.82,69.07H31.15l37.49-84.27c2.7-5.93,2.77-11.7.21-17.16-1.67-3.4-4.03-6.42-6.93-8.85h51.04l17.8,76.63,34.3-76.63h33.7l-49.16,110.28Z"/>
  <path class="cls-7" d="M316.73,174.2l-19,42.28-46.2-.05,18.62-42.23h-57.89s14.86,9.76,9.19,22.66l-40.27,91.39h38.72l18.36-41.72h46.2l-18.36,41.72h39.22l50.75-114.04-39.34-.02ZM303.81,286.37l-34.58.02,18.37-41.7h-50.84l-18.36,41.68h-33.99l38.85-88.42c4.18-9.52-1.76-17.56-6.18-21.87l49.92.02-18.61,42.27h50.86l18.99-42.27h34.75l-49.18,110.27Z"/>
  <polygon class="cls-5" points="98.22 329.22 92.05 315.65 86.08 329.22 73.4 329.22 86.63 299.14 100.14 299.14 105.96 312.25 111.72 299.14 124.43 299.14 111.2 329.22 98.22 329.22"/>
  <polygon class="cls-5" points="121.51 329.22 134.73 299.14 168.1 299.14 164.21 307.95 143.85 307.95 142.84 310.18 162.61 310.18 159.11 318.19 139.36 318.19 138.33 320.48 158.97 320.48 155.13 329.22 121.51 329.22"/>
  <polygon class="cls-5" points="197.76 308.15 188.5 329.23 174.93 329.23 184.19 308.15 171.99 308.15 175.94 299.15 213.98 299.15 210.01 308.15 197.76 308.15"/>
  <path class="cls-5" d="M255.79,329.22h-13.68s.97-14.21,1.33-15.22c-.47,1-12.01,15.22-12.01,15.22h-13.55l2.15-30.08h14.33s-1.81,15.25-2.2,16.17c.39-.92,12.16-16.17,12.16-16.17h13.1s-1.54,15.25-1.94,16.17c.4-.92,11.9-16.17,11.9-16.17h12.56l-24.13,30.08Z"/>
  <path class="cls-5" d="M322.37,304.98c.78,2.33.29,5.33-1.28,8.92-1.5,3.51-3.77,6.63-6.64,9.15-5.03,4.42-12.45,6.64-21.87,6.64s-14.8-2.15-16.09-6.64c-.68-2.36-.11-5.47,1.49-9.11,1.41-3.25,3.55-6.13,6.26-8.42,5.31-4.48,12.74-7.09,22.08-7.09s14.65,2.22,16.04,6.56M305.5,317.46c.65-.62,1.59-2.41,2.02-3.37.44-1,.99-2.61.81-3.42-.32-1.38-1.46-2.87-6.17-2.87-4.37,0-7.01,1.46-8.64,3.03-.86.97-1.56,2.07-2.09,3.25-.52,1.18-1.02,3.03-.83,3.71.36,1.46,1.7,2.57,6.02,2.57,4.76,0,7.35-1.38,8.87-2.91"/>
  <path class="cls-5" d="M366.94,314.74c-1.69,1.35-3.67,2.31-5.78,2.8l3.93,11.67h-14.6l-2.69-9.53h-7.01l-4.19,9.53h-13.18l13.22-30.06h26.39c4.91,0,7.75.99,8.95,2.8,1.02,1.52.79,3.67-.53,6.7-1.02,2.34-2.57,4.43-4.52,6.09M358.41,308.8c-.02-1-.97-1.12-2.07-1.12h-10.23l-1.94,4.4h10.23c1.34,0,2.36-.23,2.99-.99.28-.35.52-.74.71-1.15.18-.36.29-.75.31-1.15"/>
  <polygon class="cls-5" points="397.12 329.22 392.18 318.95 390.32 320.1 386.32 329.22 373.06 329.22 386.29 299.14 399.55 299.14 395.56 308.19 410.99 299.14 427.42 299.14 405.03 312.43 414.58 329.22 397.12 329.22"/>
</svg>