<?xml version="1.0" encoding="UTF-8"?>
<svg id="Layer_1" data-name="Layer 1" xmlns="http://www.w3.org/2000/svg" viewBox="0 0 500 500">
  <defs>
    <style>
      .cls-1 {
        fill: #fcb711;
      }

      .cls-1, .cls-2, .cls-3, .cls-4, .cls-5, .cls-6, .cls-7, .cls-8 {
        stroke-width: 0px;
      }

      .cls-2 {
        fill: #cc004c;
      }

      .cls-4 {
        fill: #fff;
      }

      .cls-5 {
        fill: #0db14b;
      }

      .cls-6 {
        fill: #f37021;
      }

      .cls-7 {
        fill: #0089d0;
      }

      .cls-8 {
        fill: #6460aa;
      }
    </style>
  </defs>
  <g>
    <path id="path3113" class="cls-4" d="M249.99,133.2c-3.91-9.76-13.43-20.29-31.26-18.85-22.71,2.47-29.79,24.24-26.36,37.22-9.05-6.13-24.43-8.82-37.85,2.68-17.33,17.38-8.06,40.88,1.47,46.51-10.5-.97-27.1,6.12-30.77,24.69-3.91,23.05,13.66,36.49,30.77,36.49h189.72c19.78,0,30.76-17.12,29.53-33.26-1.94-21.07-21.22-29.15-31.73-27.42,8.79-4.9,20.52-27.93,2.68-46.03-14.16-13.47-32.22-8.57-38.57-2.69,3.42-11.25-2.19-34.52-25.16-38.2-1.59-.18-3.12-.27-4.57-.27-17.54,0-25.42,12.82-27.89,19.12"/>
    <path id="path3115" class="cls-6" d="M157.68,157.93c-10.02,9.07-13.66,29.61,4.39,41.62l72.04,49.42-34.93-80.02c-7.32-18.88-27.34-23-41.5-11.03"/>
    <path id="path3117" class="cls-2" d="M219.69,119.02c-11.71.24-29.29,14.18-21.47,35.47l36.12,85.2,12.69-89.61c2.94-22.27-13.91-32.54-27.35-31.06"/>
    <path id="path3119" class="cls-8" d="M252.68,146.67h6.83s3.65,0,4.14,1.72c-2.69,2.2-10.01,2.47-9.03,14.2l11.48,77.1,35.88-85.42c7.34-19.07-8.07-35-21.73-35.49-.64-.05-1.28-.08-1.94-.08-12.27,0-26.32,8.91-25.63,27.98"/>
    <path id="path3121" class="cls-7" d="M300.54,169.68l-33.94,79.06,72.02-49.68c16.6-11.77,13.92-30.6,4.63-39.9-3.9-4.38-11.05-7.76-18.63-7.76-8.95,0-18.53,4.75-24.08,18.29"/>
    <path id="path3123" class="cls-5" d="M330.55,210.3l-67.63,47.24h83.27c17.08,0,28.06-17.62,23.18-33.78-3.27-10.16-12.94-18.14-24.17-18.15-4.72,0-9.74,1.43-14.66,4.69"/>
    <path id="path3125" class="cls-1" d="M155.74,257.54h82.04l-67.65-47.24c-15.63-10.04-33.2-4.17-39.54,12.5-5.38,19.07,8.05,34.74,25.15,34.74"/>
  </g>
  <g>
    <path class="cls-3" d="M492.56,330.22c-.39,1.84-.84,3.67-1.77,5.33-2.62,4.68-6.8,7.23-11.9,8.21-10.79,2.07-20.37-.7-28.82-7.62-.65-.53-.66-.92-.12-1.55,1.59-1.82,3.15-3.68,4.67-5.56.52-.63.89-.69,1.54-.14,3.31,2.78,6.92,5.02,11.2,5.97,3.62.8,7.27,1.07,10.83-.28,3.46-1.31,5.12-4.44,4.24-7.79-.39-1.5-1.36-2.53-2.62-3.32-2.61-1.63-5.57-2.34-8.5-3.07-3.69-.91-7.38-1.81-10.86-3.41-3.53-1.63-6.53-3.86-7.88-7.67-2.81-7.97-.02-17.12,9.4-20.79,3.84-1.5,7.82-1.77,11.9-1.42,5.82.49,11.06,2.45,15.77,5.86,1.44,1.04,1.45,1.04.42,2.51-1.26,1.79-2.55,3.55-3.77,5.36-.45.66-.8.71-1.44.25-3.24-2.3-6.7-4.12-10.66-4.84-2.82-.51-5.62-.61-8.34.49-3.17,1.28-4.57,3.67-4.1,7.02.28,1.98,1.57,3.21,3.24,4.12,2.14,1.17,4.47,1.86,6.81,2.47,3.64.95,7.33,1.74,10.8,3.25,3.23,1.4,6.14,3.21,8.1,6.25,1.01,1.56,1.44,3.31,1.87,5.08v5.25Z"/>
    <path class="cls-3" d="M134.14,385.92c-2.43-.56-4.68-1.49-6.47-3.28-3.39-3.38-4.31-7.49-3.01-11.97,1.31-4.5,4.5-7.26,9.1-8.19,5.92-1.2,11.63,1.64,13.83,6.72,2.97,6.86-.72,14.48-7.95,16.41-.36.09-.71.2-1.06.3h-4.44ZM129.71,374.06c0,4.12,2.75,7,6.69,7,3.89,0,6.61-2.81,6.62-6.84.01-4.18-2.76-7.08-6.75-7.07-3.85.01-6.56,2.86-6.56,6.9Z"/>
    <path class="cls-3" d="M377.26,385.92c-3.1-.72-5.85-2.06-7.72-4.73-2.75-3.92-3.08-8.15-.97-12.39,2.11-4.24,5.74-6.38,10.47-6.53,4.99-.15,8.97,1.8,11.34,6.27,3.44,6.47.36,14.88-7.42,17.05-.42.12-.84.23-1.26.35h-4.44ZM372.83,374.08c0,4.08,2.79,6.98,6.71,6.99,3.85,0,6.77-2.91,6.7-6.9-.07-4.54-3.4-7.07-6.76-7.02-3.89.06-6.65,2.88-6.65,6.93Z"/>
    <path class="cls-3" d="M91.13,385.92c-2.88-.58-5.47-1.72-7.3-4.11-3.03-3.96-3.54-8.35-1.44-12.81,2.06-4.4,5.74-6.61,10.63-6.75,3.12-.09,5.99.61,8.54,2.51.64.48.83.86.23,1.52-.75.82-1.44,1.68-2.13,2.56-.4.51-.73.54-1.24.13-1.26-1.01-2.68-1.59-4.31-1.78-4.72-.55-7.98,3.67-7.29,8.16.85,5.5,6.15,7.11,10.5,5.04.71-.33.69-.91.68-1.53-.01-2.21.15-1.95-1.94-1.97-.71,0-1.41-.01-2.12,0-.58,0-.87-.23-.85-.84.02-.97.02-1.95,0-2.92,0-.55.23-.78.78-.78,2.83.01,5.65.01,8.48,0,.56,0,.78.24.78.79,0,2.89-.01,5.78,0,8.67,0,.55-.29.85-.68,1.15-1.99,1.51-4.23,2.45-6.66,2.98h-4.64Z"/>
    <path class="cls-3" d="M459.44,385.92c-2.62-.45-5.07-1.28-7.21-2.92-.7-.54-.92-.96-.22-1.66.66-.67,1.26-1.4,1.82-2.16.46-.62.84-.57,1.41-.15,1.88,1.39,3.91,2.36,6.33,2.21.2-.01.4,0,.6-.04,1.25-.17,2.08-.82,2.22-1.73.14-.91-.34-1.6-1.63-2.13-.84-.34-1.72-.57-2.59-.84-1-.3-2.01-.54-3-.88-3.78-1.28-5.17-3.36-4.87-7.29.21-2.83,2.7-5.31,5.94-5.87,3.58-.62,6.87.18,9.89,2.18.62.41.83.77.29,1.43-.61.75-1.15,1.58-1.66,2.4-.38.62-.74.7-1.37.29-1.65-1.07-3.42-1.88-5.47-1.78-.51.02-1,.11-1.45.36-1.32.72-1.37,2.31-.08,3.08.93.56,1.99.79,3.03,1.07,1.33.36,2.66.72,3.94,1.25,2.97,1.24,4.25,3.06,4.24,6.06,0,3.04-1.5,5.28-4.32,6.4-.77.31-1.61.47-2.41.7h-3.43Z"/>
    <path class="cls-3" d="M110.85,314.75c1.63.62,3.06,1.21,4.41,1.95,4.6,2.5,7.01,6.32,7.02,11.6,0,5.32-2.33,9.29-6.92,11.92-3.72,2.14-7.82,3.13-12.05,3.34-11.19.54-22.4.11-33.6.25-1.01.01-1.04-.54-1.04-1.29,0-6.49,0-12.98,0-19.47,0-11.1,0-22.2,0-33.29,0-1.52,0-1.53,1.5-1.53,9.22,0,18.44-.05,27.66.02,4.36.03,8.67.53,12.68,2.43,4.24,2.01,7.3,5.05,8.09,9.87.93,5.71-1.39,10.46-6.45,13.44-.37.22-.75.44-1.31.76ZM92.1,332.83v-.04c2.79,0,5.58.05,8.37-.02,1.86-.05,3.68-.4,5.31-1.39,1.78-1.08,2.57-2.66,2.47-4.73-.09-1.97-1.03-3.35-2.75-4.26-2.02-1.08-4.23-1.34-6.45-1.37-5.15-.06-10.29,0-15.44-.04-.86,0-1.2.22-1.18,1.13.04,3.19.04,6.39,0,9.58-.01.89.32,1.17,1.18,1.16,2.82-.04,5.65-.01,8.48-.01ZM90.21,310.6c1.88,0,3.77,0,5.65,0,.27,0,.54,0,.81-.02,1.61-.12,3.21-.33,4.72-.96,2.3-.97,3.44-2.61,3.41-4.86-.03-2.17-1.32-3.88-3.6-4.73-1.46-.55-3-.79-4.55-.81-4.37-.04-8.75,0-13.12-.04-.87,0-1.09.34-1.08,1.13.03,3.06.03,6.12,0,9.18,0,.82.26,1.14,1.1,1.12,2.22-.04,4.44-.01,6.66-.02Z"/>
    <path class="cls-3" d="M21.3,309.27c0,.51,0,.91,0,1.31,0,10.56,0,21.12,0,31.68q0,1.51-1.51,1.52c-3.63,0-7.27,0-10.9,0-1.42,0-1.43,0-1.43-1.37,0-17.62,0-35.25-.02-52.87,0-1.04.34-1.33,1.33-1.32,3.47.04,6.93.04,10.4,0,.82,0,1.38.29,1.9.9,9.11,10.57,18.24,21.13,27.36,31.7.26.3.53.59.85.94.33-.42.2-.83.2-1.2,0-10.22,0-20.45,0-30.67q0-1.64,1.69-1.65c3.67,0,7.34.02,11-.01.95,0,1.31.3,1.3,1.28-.02,17.69-.02,35.38,0,53.07,0,.87-.22,1.27-1.2,1.25-3.3-.05-6.6-.03-9.89,0-.67,0-1.12-.22-1.55-.73-9.52-11.02-19.05-22.03-28.59-33.04-.23-.27-.41-.62-.95-.77Z"/>
    <path class="cls-3" d="M156.94,333.22c5.82.15,10.76-2.07,15.17-5.65.87-.7,1.39-.67,2.18.07,2.34,2.17,4.75,4.28,7.16,6.38.6.52.62.85,0,1.42-5.64,5.24-12.25,8.25-19.93,9.03-7.89.8-15.47-.09-22.49-3.93-8.11-4.44-13.42-11.11-14.75-20.38-1.43-9.89,1.83-18.24,9.37-24.81,5.46-4.75,11.95-7.14,19.11-7.78,6.44-.58,12.76-.08,18.87,2.21,3.47,1.3,6.57,3.22,9.41,5.59.59.49.59.83.05,1.36-2.55,2.54-5.09,5.09-7.6,7.67-.59.61-.99.53-1.6.06-3.44-2.69-7.23-4.64-11.59-5.35-8.27-1.35-16.6,2.17-20.1,9.73-4.79,10.35,1.79,22.49,13.11,24.17,1.2.18,2.41.22,3.61.23Z"/>
    <path class="cls-3" d="M355.04,315.64c0-8.78,0-17.56,0-26.33,0-1.53,0-1.53,1.49-1.53,8.31,0,16.62-.08,24.93.05,4.54.07,8.87,1.17,12.64,3.87,4.04,2.88,6.12,6.92,6.57,11.77.44,4.8-.42,9.32-3.56,13.19-2.21,2.72-5.12,4.42-8.39,5.55-1.08.38-1.09.37-.4,1.34,4.45,6.24,8.91,12.48,13.36,18.73.25.35.75.72.58,1.1-.22.49-.85.22-1.28.22-3.06.02-6.12-.01-9.19.03-.77,0-1.23-.26-1.66-.88-4.07-5.81-8.19-11.59-12.24-17.42-.56-.81-1.15-1.14-2.15-1.12-3.09.06-6.19.06-9.29,0-1.01-.02-1.34.27-1.33,1.3.05,5.55.02,11.1.02,16.65,0,1.44,0,1.45-1.46,1.45-2.39,0-4.78,0-7.17,0-1.48,0-1.48,0-1.48-1.53,0-8.81,0-17.62,0-26.43ZM365.15,306.12c0,2.69.02,5.38-.01,8.07,0,.75.22,1.1,1.03,1.09,4.91-.03,9.82,0,14.74-.07,2.12-.03,4.11-.7,5.88-1.88,4.63-3.09,5.15-10.18,1-13.84-2.07-1.83-4.65-2.43-7.31-2.49-4.74-.11-9.49-.03-14.23-.06-.83,0-1.13.27-1.11,1.11.04,2.69.01,5.38.01,8.07Z"/>
    <path class="cls-3" d="M349.65,315.64c0,16.44-12.69,28.98-29.32,28.97-16.34,0-29.07-12.07-29.08-28.81-.01-16.26,12.34-29,29.34-28.97,17.69.03,29.17,13.52,29.07,28.81ZM339.11,315.82c.08-3.74-.88-7.2-2.68-10.44-5.83-10.5-20.79-12.51-29.15-3.91-5.61,5.78-7.15,15.12-3.69,22.83,4.86,10.83,17.43,13.94,26.5,8.41,6.26-3.82,8.87-9.74,9.02-16.89Z"/>
    <path class="cls-3" d="M244.13,315.69c0-8.78,0-17.55,0-26.33q0-1.58,1.62-1.58c6.9,0,13.79-.02,20.69,0,4.47.02,8.77.85,12.65,3.21,4.8,2.92,7.47,7.24,8.17,12.78.59,4.68-.09,9.13-2.72,13.14-2.96,4.51-7.36,6.86-12.46,8.09-2.3.56-4.64.79-7,.81-3.13.02-6.26,0-9.39,0q-1.56,0-1.56,1.52c0,4.98,0,9.95,0,14.93,0,1.34,0,1.34-1.34,1.34-2.46,0-4.91-.04-7.37.02-1.02.03-1.32-.29-1.32-1.31.04-8.88.02-17.75.02-26.63ZM254.14,306.81c0,2.92.02,5.85-.01,8.77,0,.75.18,1.09,1.01,1.09,3.83-.04,7.67.02,11.5-.05,2.14-.04,4.18-.63,6.05-1.71,5.48-3.17,6.22-11.43,1.35-15.43-2.17-1.79-4.79-2.42-7.52-2.49-3.76-.1-7.53-.02-11.29-.06-.84,0-1.11.27-1.1,1.1.04,2.92.02,5.85.02,8.77Z"/>
    <path class="cls-3" d="M218.37,344.4c-8.47-.04-15.94-2.8-22.43-8.25-.63-.53-.73-.89-.16-1.54,1.6-1.82,3.17-3.66,4.67-5.56.58-.74.97-.66,1.61-.11,3.27,2.78,6.88,4.95,11.11,5.93,3.21.74,6.46.92,9.69.12,1.45-.36,2.71-1.1,3.85-2.11,2.26-2,2.65-7.29-.97-9.36-2.73-1.56-5.7-2.38-8.7-3.12-4.28-1.06-8.56-2.11-12.46-4.27-4.56-2.53-6.84-6.4-7.13-11.62-.53-9.64,6.13-15.68,14.26-17.06,8.85-1.5,16.95.5,24.21,5.85.83.61.87,1.06.26,1.85-1.34,1.77-2.59,3.61-3.88,5.41-.8,1.13-.8,1.12-1.9.35-3.15-2.2-6.52-3.92-10.33-4.62-3.19-.58-6.37-.68-9.34.93-2.68,1.45-3.81,4.16-3.04,7.1.32,1.23,1.04,2.16,2.05,2.9,1.57,1.15,3.39,1.77,5.21,2.37,3.74,1.23,7.65,1.86,11.35,3.21,1.78.65,3.49,1.41,5.13,2.35,4.52,2.58,6.93,6.49,7.08,11.68.19,6.66-2.47,11.81-8.44,15.03-3.07,1.66-6.42,2.36-9.89,2.54-.6.03-1.21,0-1.82,0Z"/>
    <path class="cls-3" d="M431.24,320.38c0,7.3,0,14.6,0,21.89,0,1.33,0,1.33-1.34,1.33-2.46,0-4.91,0-7.37,0-1.32,0-1.32,0-1.32-1.35,0-14.36,0-28.72,0-43.08,0-2.27.31-2.01-2.06-2.01-4.78-.01-9.56,0-14.33,0-1.24,0-1.3-.06-1.3-1.32,0-2.32.02-4.64-.01-6.96-.01-.82.29-1.11,1.12-1.11,14.4.02,28.8.02,43.21,0,.88,0,1.19.29,1.17,1.16-.04,2.32-.05,4.64,0,6.96.02.96-.29,1.29-1.27,1.29-5.08-.04-10.16,0-15.24-.04-.96,0-1.27.26-1.26,1.25.04,7.33.02,14.66.02,21.99Z"/>
    <path class="cls-3" d="M344.12,371.51c-.39,1.11-.78,2.2-1.16,3.31-1.13,3.27-2.28,6.54-3.36,9.82-.27.83-.65,1.24-1.56,1.15-1.1-.11-2.39.38-3.26-.21-.88-.6-.88-1.97-1.24-3.01-2.13-6.23-4.25-12.47-6.37-18.7-.41-1.21-.4-1.23.88-1.23,1.08,0,2.16.05,3.23-.02.86-.05,1.25.26,1.49,1.09,1.28,4.31,2.62,8.61,3.94,12.92.07.22.15.44.24.74.34-.25.36-.59.45-.88,1.42-4.27,2.86-8.54,4.23-12.82.27-.83.66-1.18,1.56-1.18,3.27,0,3.27-.03,4.3,3.07,1.2,3.6,2.38,7.21,3.57,10.82.1.31.22.62.44,1.23.6-1.93,1.13-3.6,1.64-5.28.89-2.89,1.78-5.78,2.64-8.68.21-.73.56-1.05,1.35-1.01,1.14.06,2.29.05,3.43,0,.9-.04,1,.31.74,1.08-1.67,4.86-3.31,9.73-4.96,14.6-.73,2.16-1.5,4.32-2.19,6.49-.23.74-.62.99-1.38.99-3.55.03-3.53.04-4.67-3.29-1.19-3.5-2.41-6.99-3.62-10.48-.06-.18-.08-.39-.36-.51Z"/>
    <path class="cls-3" d="M265.43,375.92c.2-.34.1-.72.1-1.07,0-3.63.03-7.26-.01-10.89-.01-.98.23-1.43,1.29-1.34.97.08,1.95.05,2.93,0,.75-.03,1,.26.99,1-.03,2.79-.01,5.58-.01,8.37,0,4.14-.03,8.27.02,12.41,0,.94-.33,1.1-1.21,1.21-2.36.31-3.88-.54-5.24-2.52-2.53-3.68-5.37-7.15-8.08-10.71-.14-.18-.29-.36-.49-.6-.27.39-.18.77-.18,1.11,0,3.8-.04,7.6.01,11.4.01,1.03-.33,1.38-1.34,1.3-.97-.08-1.95-.06-2.93,0-.81.04-1.07-.3-1.06-1.06.02-1.92,0-3.83,0-5.75,0-4.94.02-9.89-.02-14.83,0-.98.29-1.24,1.3-1.36,2.57-.32,4.26.53,5.74,2.75,2.34,3.52,5.08,6.78,7.65,10.14.13.17.21.43.52.43Z"/>
    <path class="cls-3" d="M171.09,376.04c.26-.49.16-.86.17-1.22,0-3.66.03-7.33,0-10.99,0-.92.3-1.26,1.23-1.21,1.04.07,2.09.04,3.13,0,.7-.02.99.28.96.95-.01.23,0,.47,0,.71,0,6.56,0,13.11,0,19.67,0,1.63-.02,1.49-1.58,1.66-2.13.23-3.49-.48-4.74-2.29-2.56-3.7-5.42-7.2-8.15-10.78-.22-.28-.45-.55-.82-1.01,0,2.52,0,4.79,0,7.07,0,1.95-.04,3.9.02,5.85.02.9-.3,1.19-1.17,1.14-.97-.06-1.95-.05-2.93,0-.83.05-1.12-.25-1.11-1.09.04-2.32.01-4.64.01-6.96,0-4.57.02-9.15-.02-13.72,0-.91.3-1.11,1.19-1.23,2.62-.37,4.31.58,5.81,2.81,2.45,3.64,5.28,7.04,8.03,10.64Z"/>
    <path class="cls-3" d="M399.2,374.04c0-3.4.02-6.79-.02-10.19,0-.87.19-1.26,1.17-1.24,3.46.06,6.93-.06,10.39.06,3.07.11,5.69,1.25,7.02,4.24,1.39,3.11,1.05,7.95-3.32,10.13-.7.35-.66.64-.27,1.19,1.49,2.12,2.94,4.26,4.4,6.4.16.24.47.49.27.8-.16.23-.5.14-.76.14-1.38,0-2.76-.03-4.14.02-.7.02-1.11-.26-1.47-.82-1.23-1.89-2.52-3.74-3.74-5.63-.39-.61-.84-.85-1.56-.84-2.77.01-2.77-.01-2.77,2.73,0,1.21-.03,2.42,0,3.63.02.71-.27.95-.95.93-1.08-.03-2.15-.05-3.23,0-.82.04-1.03-.3-1.03-1.07.03-3.5.01-6.99.01-10.49ZM407.68,373.6v-.04c.87,0,1.75.06,2.62-.01,1.27-.11,2.23-.74,2.63-2.01.69-2.19-.64-3.98-3.08-4.1-1.54-.07-3.09,0-4.64-.03-.62,0-.83.25-.82.85.02,1.48.03,2.96,0,4.44-.02.73.32.94.98.91.77-.03,1.55,0,2.32,0Z"/>
    <path class="cls-3" d="M30.48,374.07c0-3.43.03-6.86-.02-10.29-.01-.88.26-1.17,1.15-1.16,3.4.05,6.8.02,10.2.03,1.19,0,2.34.25,3.44.71,2.94,1.21,4.36,3.51,4.47,6.6.11,3.01-1,5.48-3.76,6.95-.84.45-.94.77-.39,1.54,1.47,2.05,2.87,4.15,4.29,6.23.15.21.41.43.28.71-.14.3-.47.19-.73.19-1.41.01-2.83-.02-4.24.02-.65.02-1.06-.23-1.41-.76-1.24-1.88-2.54-3.72-3.75-5.62-.44-.68-.94-.92-1.73-.91-2.61.03-2.61,0-2.61,2.59,0,1.24-.02,2.49,0,3.73.02.67-.2.99-.92.96-1.08-.04-2.16-.05-3.23,0-.88.05-1.07-.35-1.06-1.14.03-3.46.01-6.93.01-10.39ZM38.96,373.59s0,0,0,0c.71,0,1.41.02,2.12,0,2.02-.07,3.19-1.15,3.25-2.96.07-1.86-1.08-3.09-3.12-3.19-1.57-.08-3.16-.01-4.73-.03-.54,0-.81.18-.8.76.02,1.54.02,3.09,0,4.63,0,.63.31.82.87.81.81-.01,1.61,0,2.42,0Z"/>
    <path class="cls-3" d="M57.17,374.07c0-3.4.03-6.79-.02-10.19-.01-.97.31-1.27,1.28-1.26,4.98.04,9.96.04,14.94,0,.97,0,1.34.3,1.26,1.27-.06.77-.05,1.55,0,2.32.06.89-.32,1.17-1.18,1.16-3.2-.03-6.39-.01-9.59-.01-1.38,0-1.38,0-1.39,1.42,0,.67.03,1.35,0,2.02-.03.7.27.94.96.93,2.86-.02,5.72.02,8.58-.03.88-.01,1.23.28,1.18,1.16-.05.8-.04,1.62,0,2.42.05.88-.34,1.18-1.2,1.17-2.72-.03-5.45-.01-8.17,0-1.32,0-1.33.02-1.34,1.37,0,.67.03,1.35,0,2.02-.05.8.32,1.05,1.08,1.04,3.3-.02,6.59-.01,9.89,0,1.34,0,1.38.04,1.38,1.34,0,.84-.01,1.68,0,2.52,0,.57-.21.86-.83.86-5.31-.01-10.63-.01-15.94,0-.86,0-.87-.53-.87-1.13,0-3.46,0-6.93,0-10.39Z"/>
    <path class="cls-3" d="M279.25,374.1c0-3.43.03-6.86-.02-10.29-.01-.94.31-1.2,1.22-1.19,4.98.04,9.96.04,14.94,0,.95,0,1.25.33,1.18,1.22-.06.8-.06,1.62,0,2.42.06.86-.32,1.11-1.12,1.11-3.16-.02-6.33,0-9.49,0q-1.53,0-1.53,1.56,0,2.8,2.79,2.8c2.29,0,4.58.02,6.86-.01.79-.01,1.1.26,1.06,1.05-.05.87-.05,1.75,0,2.62.04.8-.3,1.07-1.06,1.07-2.62-.02-5.25,0-7.87,0q-1.78,0-1.78,1.82c0,.5.04,1.01,0,1.51-.08.85.29,1.11,1.11,1.1,3.23-.03,6.46-.01,9.69-.01,1.53,0,1.57,0,1.52,1.49-.03,1.03.47,2.31-.25,3.01-.67.64-1.93.21-2.93.21-4.37.02-8.75-.01-13.12.03-.93,0-1.21-.3-1.2-1.21.04-3.43.02-6.86.02-10.29Z"/>
    <path class="cls-3" d="M431.26,372.26c2.79-3,5.42-5.79,7.99-8.63.64-.7,1.28-1.08,2.25-1.02,1.34.08,2.69.01,4.04.03.25,0,.6-.13.72.18.11.29-.22.46-.39.64-2.61,2.72-5.2,5.45-7.85,8.13-.59.6-.65.99-.13,1.68,2.81,3.73,5.57,7.5,8.35,11.27.19.26.59.52.44.84-.18.4-.66.19-1,.2-1.38.02-2.76-.02-4.14.02-.65.02-1.06-.22-1.43-.74-1.92-2.68-3.9-5.31-5.8-8.01-.51-.73-.77-.58-1.35-.08-1.33,1.13-1.98,2.41-1.77,4.2.15,1.23.01,2.48.03,3.73,0,.64-.26.91-.91.89-1.08-.03-2.16-.06-3.23.01-.96.06-1.21-.33-1.2-1.23.03-5.82.01-11.63.01-17.45,0-1.08.03-2.15,0-3.23-.03-.77.24-1.11,1.05-1.07,1.04.05,2.09.06,3.13,0,.88-.05,1.19.27,1.18,1.15-.04,2.49-.02,4.98-.01,7.46,0,.26.02.52.05,1.02Z"/>
    <path class="cls-3" d="M195.07,380.53c-1.28,0-2.56.02-3.83-.01-.6-.02-.92.2-1.13.76-.45,1.19-.97,2.36-1.42,3.56-.21.55-.54.78-1.14.76-1.18-.03-2.35-.04-3.53,0-.84.03-.99-.22-.66-.99,1.81-4.2,3.58-8.4,5.37-12.61,1.22-2.87,2.47-5.74,3.66-8.63.29-.71.7-.97,1.44-.93.94.05,1.88.05,2.82,0,.72-.04,1.08.26,1.36.91,2.52,5.97,5.07,11.94,7.6,17.9.49,1.14.94,2.3,1.47,3.43.35.75.11.94-.64.92-1.21-.03-2.42-.04-3.63,0-.69.03-1.04-.27-1.27-.88-.44-1.16-.95-2.3-1.4-3.46-.21-.56-.56-.76-1.14-.74-1.31.03-2.62.01-3.93.01ZM195.11,369.06c-.92,2.25-1.74,4.21-2.54,6.19-.17.41.07.54.45.54,1.41,0,2.82,0,4.23,0,.61,0,.54-.34.38-.73-.55-1.34-1.09-2.67-1.64-4.01-.24-.57-.5-1.14-.88-1.99Z"/>
    <path class="cls-3" d="M312.24,362.64c2.79,0,5.59.03,8.38-.02.89-.01,1.21.29,1.16,1.16-.05.9-.04,1.82,0,2.72.04.8-.31,1.07-1.08,1.06-1.51-.03-3.03.05-4.54-.03-1.05-.05-1.31.35-1.31,1.35.04,5.08.02,10.16.02,15.23,0,1.46,0,1.46-1.45,1.46-.91,0-1.82-.05-2.72.01-.89.06-1.17-.27-1.16-1.15.03-5.08.02-10.16.01-15.23q0-1.65-1.65-1.65c-1.41,0-2.83-.02-4.24,0-.72.01-1.04-.26-1-1.01.04-.97.04-1.95,0-2.92-.03-.74.25-1,.99-1,2.86.03,5.72.01,8.58.01Z"/>
    <path class="cls-3" d="M219.19,371.78c0,2.65.03,5.31-.01,7.96-.01.84.28,1.11,1.11,1.1,2.99-.04,5.98.02,8.98-.03.96-.01,1.34.3,1.27,1.27-.07.87-.03,1.75-.01,2.62,0,.56-.17.88-.8.88-5.01-.01-10.02-.01-15.03,0-.89,0-.82-.6-.82-1.17,0-3.63,0-7.26,0-10.89,0-3.23.02-6.45-.01-9.68,0-.89.25-1.3,1.2-1.23.97.07,1.95.06,2.92,0,.92-.06,1.25.26,1.23,1.2-.05,2.65-.02,5.31-.02,7.96Z"/>
    <path class="cls-3" d="M111.25,374.11c0-3.43.03-6.86-.02-10.28-.01-.92.27-1.27,1.2-1.21,1,.07,2.02.05,3.02,0,.75-.03,1,.26.99,1-.03,2.76-.01,5.51-.01,8.27,0,4.17-.02,8.34.02,12.5,0,.92-.27,1.27-1.2,1.2-.97-.07-1.95-.06-2.92,0-.84.05-1.11-.27-1.1-1.1.03-3.46.01-6.92.01-10.38Z"/>
  </g>
</svg>