<?xml version="1.0" encoding="UTF-8"?>
<svg id="Layer_1" data-name="Layer 1" xmlns="http://www.w3.org/2000/svg" viewBox="0 0 500 500">
  <defs>
    <style>
      .cls-1 {
        stroke: #fff;
        stroke-width: 2.87px;
      }

      .cls-1, .cls-2 {
        fill: #fff;
      }

      .cls-1, .cls-3, .cls-4 {
        stroke-miterlimit: 19.16;
      }

      .cls-2, .cls-5 {
        stroke-width: 0px;
      }

      .cls-5 {
        fill: #004b8d;
      }

      .cls-3 {
        fill: #e7a614;
        stroke: #e6a623;
        stroke-width: 1.15px;
      }

      .cls-4 {
        fill: #ffd046;
        stroke: #ffd24f;
        stroke-width: 2.87px;
      }
    </style>
  </defs>
  <ellipse class="cls-2" cx="250" cy="250" rx="185.59" ry="185.55"/>
  <ellipse class="cls-5" cx="250.05" cy="249.69" rx="181.44" ry="181.83"/>
  <path class="cls-1" d="M250.47,90.58c-11.79-.02-23.59,1.22-35.14,3.63l.18.15c3.15,2.67,6.06,5.61,9.03,8.49,19.1-3.19,38.79-2.79,57.72,1.33.15,8.17.05,16.35.05,24.53,2.5,3.71,5.05,7.37,7.8,10.89.04-14.68-.05-29.36.05-44.04-12.96-3.34-26.32-4.96-39.69-4.98h0ZM202.14,97.82c-23.73,7.49-45.56,20.78-63.34,38.16-18.97,18.62-33.32,42-40.95,67.49,3.37.41,6.73.83,10.11,1.2,3.87-12.53,9.59-24.44,16.65-35.47,16.52-26.13,41.56-46.63,70.21-58.17.06,26.01-.02,52.01.05,78.02,2.47,2.55,4.8,5.22,7.11,7.92l.15.18c-.09-33.11-.14-66.22.02-99.33h0ZM303.55,99.76h0c3.12,4.76,5.87,9.74,8.97,14.51,35.06,15.88,63.15,46.15,76.78,82.11,3.43,1.33,7,2.34,10.31,4,.45-.37.91-.74,1.36-1.12-.83-2.35-1.69-4.69-2.58-7.01-16.23-42.61-51.85-77.3-94.84-92.48h0ZM245.41,124.33h0c-.11,39.02.05,78.05-.08,117.08,12.34.09,24.68-.03,37.02.06-.04,7.11,0,14.22-.02,21.32,2.47,2.3,4.95,4.58,7.47,6.82l.32.29c.04-12.47-.05-24.94.05-37.41-12.53.1-25.05.02-37.57.05.07-33.42-.07-66.83.07-100.25-2.13-2.65-4.47-5.11-6.68-7.69l-.56-.28h0ZM333.35,156.37c.16,62.02.1,124.05.03,186.08,15.31-14.15,27.56-31.82,34.38-51.59,7.58,2.93,15.06,6.14,22.49,9.44,2.93-.96,5.78-2.13,8.68-3.14,1-.4,2.25-.72,2.59-1.88-12.81-5.28-25.62-10.58-38.32-16.14-4.17,16.11-11.95,31.31-22.53,44.15,0-49.27-.14-98.54.07-147.82-1.91-6-4.4-11.78-6.46-17.71-.32-.47-.63-.92-.93-1.39h0ZM144.49,199.7c-2.68.94-5.41,1.7-8.19,2.27-.77.2-1.53.41-2.29.64,20.2,23.75,40.64,47.31,60.83,71.07,0,38.03-.02,76.05.02,114.08,2.22,4.32,4.36,8.7,6.87,12.86l.25.4c.19-44.01.02-88.03.09-132.05.22-1.03-.76-1.66-1.26-2.39-19.01-22.03-37.78-44.29-56.9-66.22l1.13-.6c-.14-.02-.41-.05-.54-.08h0ZM246.1,262.94c-.19,0-.58.02-.78.02.1,37.16.05,74.32.02,111.48,12.44.38,24.96-.94,36.99-4.13-.05,8.11.05,16.21-.06,24.32,2.54,2.98,5.1,5.94,7.81,8.77.09-14.69-.04-29.37.06-44.06-12.04,4.34-24.77,6.78-37.56,7.08.05-32.31-.08-64.6.06-96.9-2.17-2.21-4.36-4.39-6.55-6.59h0ZM136.82,278.84c-13.25,5.17-26.25,10.98-39.4,16.39l.61.21c3.89,1.35,7.69,2.96,11.59,4.3,7.48-3.22,14.99-6.39,22.56-9.41,7.57,21.95,21.47,41.73,39.65,56.16.18-.25.52-.74.7-.99-2.82-5.26-5.31-10.69-7.74-16.14-13.36-14.14-23.01-31.71-27.96-50.51h0Z"/>
  <path class="cls-3" d="M215.51,94.37c-.05,103.38.09,206.77-.07,310.14,24.52,5.58,50.25,4.79,74.64-1.11-2.71-2.83-5.27-5.79-7.81-8.77-18.96,4.24-38.7,4.63-57.84,1.33-.12-77.29,0-154.58-.05-231.87.1-20.41-.2-40.83.15-61.24-2.97-2.87-5.87-5.81-9.03-8.49h0ZM303.41,99.55c-.02,99.89.04,199.77-.02,299.67,20.05-7.22,38.65-18.45,54.32-32.91,19.9-18.24,34.98-41.65,43.43-67.3.19-1.17,1.48-2.73.38-3.74-.34,1.16-1.59,1.49-2.59,1.88-2.9,1.02-5.76,2.19-8.68,3.15-13.45,36.91-41.93,68.11-77.71,84.41-.18-18.15-.04-36.3-.09-54.46.06-71.99-.08-143.99.08-215.99-3.1-4.76-5.85-9.75-8.97-14.5l-.14-.21h0ZM251.04,124.34c-1.69.02-3.38.1-5.08.27,2.21,2.58,4.56,5.04,6.68,7.69,12.73.66,25.51,2.7,37.46,7.3-2.76-3.51-5.31-7.18-7.8-10.89-5.22-1.65-10.65-2.52-16.06-3.27-5.04-.6-10.12-1.15-15.2-1.1h0ZM173.79,150.93c-11.26,8.34-20.67,19.02-28.39,30.67-4.06,6.42-7.88,13.06-10.56,20.2.36.04,1.09.12,1.46.16,2.78-.57,5.52-1.33,8.19-2.28l.22-.07c.11-1.3.7-2.47,1.31-3.6,5.08-9.66,11.32-18.78,18.94-26.61-.02,9.2.08,18.4-.06,27.6,12.36,0,24.71.08,37.06-.04-2.3-2.7-4.64-5.37-7.11-7.92-6.98.27-13.96.11-20.94.12-.19-12.75.08-25.51-.13-38.25h0ZM334.28,157.76c2.06,5.93,4.56,11.72,6.46,17.71,9.85,12.32,17.53,26.47,21.75,41.7,11.04-4.42,21.95-9.17,32.95-13.7,1.94-.76,3.8-1.81,5.88-2.17-.07-.73-.13-1.45-.18-2.18l-.17.13c-.45.38-.91.75-1.36,1.12-3.31-1.65-6.88-2.66-10.31-4-7.38,3.26-14.77,6.53-22.34,9.31-5.14-13.6-12.6-26.2-22.04-37.26-3.32-3.77-6.68-7.55-10.63-10.67h0ZM97.54,203.43c22.6,26.06,44.92,52.37,67.44,78.51-.13,15.8.25,31.61-.2,47.41,2.43,5.44,4.92,10.87,7.74,16.13-.18.25-.52.74-.7.99l-.15.23c.9.22,1.81.44,2.73.65-.31-1.61-.58-3.21-.57-4.85.09-18.63-.02-37.25.05-55.88-.12-2.37.6-5.22-1.4-7.01-21.61-24.89-42.83-50.12-64.52-74.95-3.38-.38-6.74-.79-10.11-1.2l-.32-.05h0ZM259.69,262.67c-4.53.02-9.05.09-13.58.26,2.18,2.2,4.38,4.38,6.55,6.59,12.37.26,24.76.04,37.14.11-2.51-2.25-5-4.52-7.47-6.82-7.54-.04-15.09-.17-22.64-.14h0ZM98.03,295.44c1.87,7.21,4.76,14.13,7.83,20.92,17.34,37.52,49.9,67.63,88.64,82,2.37.86,4.73,1.83,7.22,2.26-2.5-4.17-4.65-8.55-6.87-12.86-36.19-14.11-66.08-43.32-81.47-78.95-1.29-3.01-2.43-6.08-3.77-9.07-3.9-1.34-7.7-2.94-11.59-4.3h0Z"/>
  <path class="cls-4" d="M249.83,100.74c-8.47,0-16.94.72-25.29,2.11-.34,20.41-.05,40.83-.15,61.24.04,77.29-.08,154.58.05,231.87,19.13,3.3,38.88,2.91,57.83-1.33.11-8.11.02-16.22.06-24.33-12.04,3.19-24.56,4.51-36.99,4.13.03-37.16.08-74.32-.02-111.48.2,0,.59-.02.78-.02,12.06-.47,24.15-.18,36.22-.13.02-7.11-.02-14.21.02-21.32-12.34-.09-24.68.03-37.02-.06.14-39.03-.02-78.05.09-117.07l.56.28c6.76-.68,13.55.03,20.28.83,5.41.75,10.84,1.62,16.06,3.27,0-8.18.1-16.36-.05-24.53-10.65-2.31-21.53-3.47-32.43-3.45h0ZM194.81,111.04c-28.65,11.54-53.68,32.04-70.21,58.17-7.06,11.03-12.78,22.94-16.65,35.47,21.68,24.83,42.9,50.06,64.51,74.95,2,1.78,1.28,4.64,1.4,7.01-.08,18.63.04,37.25-.05,55.88-.02,1.64.26,3.24.57,4.85-.91-.21-1.82-.43-2.73-.65l.15-.23c-18.18-14.43-32.08-34.2-39.65-56.16-7.57,3.02-15.08,6.19-22.56,9.41,1.34,2.99,2.48,6.06,3.77,9.07,15.39,35.62,45.28,64.83,81.47,78.95-.04-38.03,0-76.06-.02-114.08-20.19-23.76-40.63-47.31-60.83-71.06.76-.22,1.52-.43,2.29-.63-.37-.04-1.1-.12-1.46-.16,2.68-7.14,6.5-13.78,10.56-20.2,7.73-11.65,17.13-22.34,28.39-30.67.21,12.75-.06,25.51.13,38.25,6.98,0,13.97.15,20.94-.12-.07-26.01.02-52.01-.05-78.02h0ZM312.51,114.26c-.15,72-.02,144-.08,215.99.05,18.15-.09,36.31.09,54.46,35.78-16.3,64.26-47.5,77.71-84.41-7.43-3.3-14.91-6.51-22.49-9.44-6.82,19.77-19.07,37.44-34.38,51.59.07-62.02.13-124.05-.03-186.07.31.47.61.93.93,1.39,3.95,3.12,7.31,6.89,10.63,10.67,9.44,11.05,16.9,23.66,22.04,37.26,7.57-2.78,14.96-6.06,22.34-9.31-13.62-35.96-41.71-66.23-76.77-82.11v-.02Z"/>
</svg>