<?xml version="1.0" encoding="UTF-8"?>
<svg id="Layer_1" data-name="Layer 1" xmlns="http://www.w3.org/2000/svg" viewBox="0 0 500 500">
  <defs>
    <style>
      .cls-1 {
        stroke-width: 0px;
      }
    </style>
  </defs>
  <g id="g3">
    <path id="path5" class="cls-1" d="M458.89,159.49l-14.08-14.06-22.66-22.66H13.71v184.43l25.73,25.71,25.68,25.69,18.64,18.64h402.54v-190.32l-27.41-27.43ZM377,287.99c-31.26-6.37-58.71-15.33-58.71-44.8v-.38c0-26.48,20.7-46.99,59.11-46.99h26.43l36.53,36.84h-58.83c-6.98,0-10.16,2.39-10.16,5.78v.41c0,3.77,3.78,6.16,18.51,8.94,35.63,6.57,59.52,16.93,59.52,44.98v.41c0,29.25-24.09,47.17-61.51,47.17h-34.69l-36.78-36.84h67.95c8.36,0,11.94-2.17,11.94-5.96v-.38c0-4-4.37-6.19-19.3-9.16M240.53,197.93c40.57,0,73.46,32.91,73.46,73.47s-32.89,73.47-73.46,73.47c-16.08,0-30.93-5.17-43.03-13.93v9.39h-42.33v-181.09h48.04v48.87c10.94-6.46,23.69-10.18,37.32-10.18M56.19,159.24h49.93v45.71h36.6v49.95h-36.6v85.43l-49.93-49.93s0-131.16,0-131.16Z"/>
    <path id="path7" class="cls-1" d="M240.53,296.93c14.08,0,25.52-11.44,25.52-25.53s-11.43-25.51-25.52-25.51-25.52,11.42-25.52,25.51,11.43,25.53,25.52,25.53"/>
  </g>
</svg>