<?xml version="1.0" encoding="UTF-8"?>
<svg id="Layer_1" data-name="Layer 1" xmlns="http://www.w3.org/2000/svg" viewBox="0 0 500 500">
  <defs>
    <style>
      .cls-1 {
        fill: #f60;
      }

      .cls-1, .cls-2 {
        fill-rule: evenodd;
        stroke-width: 0px;
      }
    </style>
  </defs>
  <g id="layer1">
    <g id="g2451">
      <path id="path2391" class="cls-1" d="M399.96,161.86c-33.19,0-62.02,18.6-76.59,45.92-14.57-27.32-43.4-45.92-76.59-45.92s-61.83,18.48-76.45,45.66c-14.56-27.33-43.4-45.95-76.61-45.95-47.88,0-86.69,38.71-86.69,86.46s38.81,86.46,86.69,86.46c33.08,0,61.84-18.48,76.45-45.66,14.56,27.33,43.4,45.95,76.6,45.95s62.02-18.6,76.59-45.92c14.57,27.32,43.4,45.92,76.59,45.92,47.88,0,86.7-38.71,86.7-86.46,0-47.75-38.81-86.46-86.7-86.46ZM93.72,314.27c-36.69,0-66.43-29.66-66.43-66.25s29.74-66.25,66.43-66.25,66.43,29.66,66.43,66.25-29.74,66.25-66.43,66.25ZM246.78,314.57c-36.69,0-66.43-29.66-66.43-66.25s29.74-66.25,66.43-66.25,66.43,29.66,66.43,66.25-29.74,66.25-66.43,66.25ZM399.96,314.57c-36.69,0-66.43-29.66-66.43-66.25s29.75-66.25,66.43-66.25,66.43,29.66,66.43,66.25-29.74,66.25-66.43,66.25ZM361.08,230.39h21.02s4.83-.24,4.83-.24v57.8h26.01v-57.8l4.81.24h21.03s0-21.69,0-21.69h-77.71v21.7h0ZM54.84,230.39h21.02s4.83-.24,4.83-.24v57.8h26.01v-57.8l4.81.24h21.04s0-21.69,0-21.69H54.84v21.7ZM260.98,249.11l-.96-1.53-27.78-38.88h-24.19v79.26h24.56s0-40.41,0-40.41l.96,1.53,27.65,38.88h24.23v-79.27h-24.48v40.41Z"/>
      <path id="path2393" class="cls-2" d="M232.61,247.55v40.41s-18.25,0-18.25,0v3.66h24.56s0-35.01,0-35.01l-5.35-7.52-.96-1.53ZM186.67,251.98c0-36.59,29.74-66.25,66.43-66.25,10.86,0,21.1,2.62,30.15,7.22-10.47-6.87-23-10.89-36.47-10.89-36.69,0-66.43,29.66-66.43,66.25,0,25.76,14.75,48.07,36.28,59.02-18.04-11.84-29.96-32.21-29.96-55.36ZM267.54,291.61h24.23v-79.26h-6.31v75.6h-20.52s2.6,3.66,2.6,3.66ZM260.98,249.11v-5.36l-22.43-31.39h-3.7l25.17,35.22.96,1.53ZM323.37,207.77c.63-1.18,1.32-2.32,2-3.47-8.1-12.19-19.18-22.24-32.25-29.03,12.69,8.02,23.17,19.22,30.25,32.5ZM412.94,230.15v57.8h-19.69v3.66h26.01v-57.8l4.81.24h21.04s0-21.69,0-21.69h-6.32v18.04h-21.03s-4.81-.24-4.81-.24ZM367.39,234.05h19.53v-3.9l-4.83.24h-14.7v3.66h0ZM339.85,251.98c0-36.59,29.74-66.25,66.43-66.25,10.86,0,21.1,2.62,30.15,7.22-10.47-6.87-23-10.89-36.47-10.89-36.69,0-66.43,29.66-66.43,66.25,0,25.76,14.75,48.07,36.28,59.03-18.04-11.84-29.96-32.21-29.96-55.37ZM246.78,334.78c-14.44,0-28.05-3.53-40.02-9.75,13.41,8.47,29.29,13.41,46.34,13.41,31.75,0,59.48-17.05,74.59-42.45-1.53-2.31-3-4.67-4.31-7.13-14.57,27.32-43.4,45.92-76.59,45.92ZM446.51,175.4c24.13,15.35,40.14,42.26,40.14,72.92,0,47.75-38.82,86.46-86.7,86.46-14.43,0-28.03-3.52-40-9.74,13.4,8.47,29.28,13.4,46.32,13.4,47.88,0,86.69-38.71,86.69-86.46,0-33.26-18.85-62.12-46.46-76.58ZM93.72,334.49c-14.52,0-28.2-3.58-40.22-9.87,13.45,8.55,29.4,13.53,46.53,13.53,31.65,0,59.3-16.94,74.44-42.19-1.53-2.31-2.99-4.66-4.3-7.12-14.62,27.17-43.37,45.65-76.45,45.65ZM33.61,251.69c0-36.59,29.74-66.25,66.43-66.25,10.86,0,21.1,2.61,30.15,7.22-10.47-6.87-22.99-10.88-36.46-10.88-36.69,0-66.43,29.66-66.43,66.25,0,25.75,14.75,48.06,36.26,59.02-18.04-11.85-29.95-32.21-29.95-55.36ZM170.33,207.51c.63-1.18,1.33-2.32,2.01-3.46-8.1-12.21-19.19-22.26-32.27-29.07,12.7,8.03,23.18,19.24,30.26,32.53ZM61.15,234.05h19.53v-3.9l-4.83.24h-14.7v3.66ZM106.7,230.15v57.8h-19.69v3.66h26.01v-57.8l4.81.24h21.04s0-21.69,0-21.69h-6.32v18.04h-21.04s-4.81-.24-4.81-.24Z"/>
    </g>
  </g>
</svg>