<?xml version="1.0" encoding="UTF-8"?>
<svg id="Layer_1" data-name="Layer 1" xmlns="http://www.w3.org/2000/svg" viewBox="0 0 500 500">
  <defs>
    <style>
      .cls-1 {
        fill: #171d24;
        stroke-width: 0px;
      }
    </style>
  </defs>
  <path class="cls-1" d="M279.07,218.96l4.66,18.51h21.28v-40.08h-147.63v21.57h8.31l-14.28,24.93-14.28-24.93h8.45v-21.57h-50.83v21.57h8.61l32.49,44.45v17.63h-11.1v21.55h53.93v-21.55h-11.39v-16.77l30.16-45.32h18.36v62.09h-10.03v21.55h99.24v-41.67h-21.28l-4.66,20.11h-31.76v-19.24h22.45v-23.6h-22.45v-19.28s31.76.04,31.76.04Z"/>
  <path class="cls-1" d="M375.72,226.98c-2.53-3.56-5.88-6.46-9.77-8.45-3.93-2.06-8.59-3.07-14.28-3.07s-12.83,1.89-12.83,7.58c0,9.19,16.65,8.9,33.23,12.27,16.58,3.37,33.23,10.34,33.23,34.23s-17.2,35.42-39.79,35.42c-10.05,0-20.83-2.47-27.97-10.78v8.44h-26.12v-33.1h26.82c1.91,4.04,5,7.41,8.88,9.64,3.94,2.1,8.36,3.16,12.83,3.07,6.84,0,14.9-1.45,14.9-8.61,0-9.33-16.76-9.33-33.52-12.67-16.76-3.35-33.52-9.9-33.52-32.49,0-17.06,14.42-33.38,40.36-33.38,11.21,0,19.23,2.48,27.69,10.35v-8.04h26.23v29.59h-26.38Z"/>
  <path class="cls-1" d="M448.72,132.44H51.28c-22.18,0-40.17,17.98-40.17,40.17v154.8c0,22.18,17.98,40.16,40.16,40.16h397.44c22.18,0,40.16-17.97,40.17-40.15v-154.81c0-22.18-17.98-40.17-40.17-40.17q-14.79,0,0,0h0ZM432.4,199.18v101.67c0,19.41-15.74,35.14-35.15,35.14H102.78c-19.41,0-35.14-15.72-35.15-35.13v-101.68c0-19.41,15.74-35.15,35.15-35.15h294.48c19.41,0,35.15,15.74,35.15,35.15h0Z"/>
</svg>